<?xml version="1.0" encoding="UTF-8"?><svg id="Layer_1" xmlns="http://www.w3.org/2000/svg" viewBox="0 0 24 24"><defs><style>.cls-1{fill:#007BFF;}</style></defs><path class="cls-1"  fill="#007BFF"  d="M21.9,16.35c0-.75,0-1.5,0-2.26v-3.01c0-3.01,0-6.01,0-9.02,0-.92-.55-1.64-1.45-1.88-.02,0-.04-.01-.06-.03l-.04-.02H5.73l-.02,.03c-1.07,.34-1.51,.94-1.51,2.08v1.14h-.06c-.13,0-.26,0-.38,0-.05,0-.1,0-.16,0-.2,0-.41,.02-.6,.09-.67,.23-1.04,.92-.91,1.69,.11,.69,.71,1.19,1.42,1.2,.19,0,.38,0,.57,0h.1v1.8h-.08c-.16,0-.31,0-.46,0-.17,0-.37,.02-.55,.07-.7,.21-1.1,.89-1,1.68,.09,.68,.68,1.22,1.39,1.24,.19,0,.38,0,.57,0h.14v1.8h-.12c-.19,0-.36-.01-.55,0-.21,.03-.49,.07-.72,.2-.58,.31-.86,1-.68,1.69,.17,.65,.71,1.07,1.4,1.1,.18,0,.36,0,.54,0h.13v1.8h0c-.1,0-.2,0-.3,0-.07,0-.14,0-.21,0-.2,0-.4,.01-.59,.07-.68,.19-1.08,.86-1,1.66,.07,.65,.62,1.18,1.28,1.24,.22,.02,.44,.01,.66,0h.18v1.2c0,1.25,.8,2.06,2.05,2.06h3.69c3.26,0,6.62,0,9.93,0h.01c.56,0,1.07-.21,1.45-.59,.38-.38,.58-.9,.58-1.45-.02-1.88-.02-3.79-.01-5.64ZM6.25,5.17c-.09,.17-.23,.24-.44,.24-.28,0-.56,0-.85,0h-.62c-.25,0-.49,0-.74,0-.38,0-.56-.19-.56-.53,0-.35,.2-.53,.57-.53h.17c.35,0,.71,0,1.06,0,.32,0,.64,0,.96,0,.2,0,.38,.1,.47,.26,.1,.17,.09,.38,0,.56Zm-.44,5.03c-.26,0-.53,0-.8,0h-.7c-.26,0-.52,0-.78,0-.31,0-.5-.2-.5-.52,0-.33,.19-.53,.49-.53,.77,0,1.53,0,2.3,0,.3,0,.49,.21,.49,.53s-.19,.52-.5,.52Zm.5,4.26c0,.33-.2,.53-.52,.53-.26,0-.52,0-.78,0h-.68c-.26,0-.51,0-.77,0-.17,0-.3-.05-.4-.14-.09-.09-.14-.23-.14-.39,0-.33,.19-.52,.53-.52,.74,0,1.49,0,2.23,0,.33,0,.52,.19,.52,.52Zm-.53,5.33c-.26,0-.51,0-.77,0h-.69c-.25,0-.49,0-.74,0-.35,0-.54-.19-.54-.53,0-.34,.19-.52,.54-.53,.74,0,1.47,0,2.21,0,.34,0,.53,.19,.53,.52,0,.33-.19,.54-.53,.54Zm-.6,.96s.09,0,.14,0c.19,0,.37,0,.54,0,.76-.04,1.35-.58,1.4-1.3,.06-.88-.39-1.52-1.18-1.67-.12-.02-.23-.02-.35-.02h-.09c-.14,0-.28,0-.43,0h-.06v-1.8h.13c.18,0,.36,0,.54,0,.72-.02,1.32-.53,1.42-1.2,.12-.79-.26-1.48-.95-1.71-.18-.06-.37-.07-.55-.08-.16,0-.32,0-.49,0h-.09v-1.8h.6c.89,0,1.51-.62,1.51-1.5s-.62-1.49-1.51-1.5c-.16,0-.31,0-.47,0h-.12v-1.8h.64c.82,0,1.44-.6,1.46-1.42,.03-.89-.53-1.52-1.38-1.56-.23-.01-.46,0-.68,0h-.05s0-.02,0-.04c0-.18,0-.35,0-.53,0-.27,0-.54,0-.81,.02-.56,.42-.92,1.02-.92h13.69c.71,0,1.07,.36,1.07,1.07V21.98c0,.71-.36,1.07-1.07,1.07h-3.78c-3.28,0-6.56,0-9.84,0h0c-.33,0-.61-.12-.81-.33-.18-.2-.28-.46-.25-.74,.02-.3,.02-.6,.01-.92,0-.1,0-.2,0-.3Z"/><path class="cls-1" d="M13.78,11.26h.02c1.12,0,2.19-.44,3-1.25,.81-.81,1.26-1.88,1.27-3,0-1.15-.44-2.23-1.25-3.04-.8-.81-1.87-1.25-3.01-1.26h0c-2.35,0-4.27,1.9-4.28,4.25,0,2.36,1.9,4.29,4.26,4.3Zm-2.25-2.01c.56-.67,1.38-1.06,2.26-1.06h0c.87,0,1.7,.38,2.25,1.06,.08,.09,.07,.09,0,.16-.65,.58-1.39,.87-2.27,.88-.84-.02-1.59-.31-2.22-.88-.09-.08-.09-.08-.02-.16Zm2.26-3.7h0c.21,0,.43,.09,.59,.25,.16,.16,.25,.38,.25,.59,0,.46-.37,.82-.83,.83h0c-.23,0-.44-.09-.6-.25-.16-.16-.24-.37-.24-.59,0-.45,.39-.83,.83-.83Zm1.13-.56c-.7-.55-1.68-.52-2.34,.07-.6,.54-.85,1.53-.22,2.42-.05,.03-.1,.05-.16,.08-.21,.11-.44,.23-.64,.38-.2,.14-.39,.31-.56,.47-.04,.04-.08,.07-.12,.11-.62-1.05-.56-2.8,.64-3.93,1.23-1.17,3.13-1.22,4.42-.13,1.32,1.12,1.42,2.91,.77,4.07-.42-.46-.92-.81-1.49-1.04,.7-1.32,.23-2.09-.29-2.5Z"/><path class="cls-1" d="M17.64,17.5c-.06,0-.12,0-.17,0h-7.31c-.05,0-.11,0-.16,0-.28,.02-.47,.21-.48,.46,0,.25,.19,.46,.46,.49,.07,0,.13,0,.22,0h7.17c.1,0,.2,0,.31-.02,.24-.04,.39-.22,.38-.47,0-.25-.16-.43-.42-.46Z"/><path class="cls-1" d="M17.64,19.62c-.06,0-.12,0-.18,0h-7.3c-.06,0-.11,0-.16,0-.28,.02-.47,.21-.48,.46,0,.25,.19,.46,.46,.48,.06,0,.12,0,.18,0h7.23c.09,0,.2,0,.29-.02,.24-.04,.39-.22,.38-.47,0-.25-.16-.43-.42-.46Z"/></svg>