<?xml version="1.0" encoding="UTF-8"?><svg id="Layer_1" xmlns="http://www.w3.org/2000/svg" viewBox="0 0 24 24"><defs><style>.cls-1{fill:#737373;}</style></defs><path class="cls-1" d="M18.77,8.96c0,.13,0,.27,0,.41-.02,.22-.17,.36-.38,.36-.21,0-.4-.14-.38-.35,.03-.34-.12-.48-.41-.63-.52-.26-.78-.74-.81-1.32-.02-.27,.12-.44,.35-.46,.24-.02,.4,.11,.42,.39,.05,.67,.65,.98,1.17,.79,.38-.14,.6-.52,.54-.93-.05-.38-.38-.68-.77-.72-.9-.08-1.45-.48-1.65-1.21-.22-.77,.15-1.6,.89-1.91,.22-.09,.29-.2,.27-.42,0-.08,0-.17,.05-.25,.08-.16,.24-.25,.4-.19,.12,.05,.24,.18,.3,.3,.05,.12,.02,.27,.03,.38,.24,.14,.48,.24,.68,.39,.38,.29,.57,.69,.6,1.16,.02,.28-.14,.48-.38,.49-.22,0-.38-.17-.41-.45-.04-.42-.34-.75-.74-.8-.39-.05-.79,.19-.92,.57-.21,.58,.21,1.12,.89,1.15,.67,.03,1.24,.45,1.46,1.08,.3,.85-.13,1.77-.97,2.09-.06,.02-.13,.05-.22,.08Z"/><path class="cls-1" d="M23.62,7.48c-.66,2.35-2.8,3.97-5.24,3.97-.08,0-.17,0-.28,0v.28c0,2.76,0,5.52,0,8.27,0,1.47-.96,2.67-2.39,2.98-.33,.07-.67,.07-1.01,.07-3.8,0-7.61,0-11.41,0-1.75,0-3.07-1.33-3.07-3.08,0-.51,0-1.01,0-1.52,0-.35,.11-.47,.47-.48,.78,0,1.57,0,2.35,0,.08,0,.17,0,.28,0,0-.12,0-.22,0-.32,.03-4.33,.06-8.67,.09-13,0-.36,.14-.5,.5-.5,3.04,0,6.08,0,9.13,0,.18,0,.26-.05,.34-.22,.88-2.12,2.99-3.47,5.28-3.38,2.49,.1,4.65,2,5.08,4.46,.02,.14,.17,1.29-.11,2.45Zm-10.57-2.52H4.17l-.09,13.02h.3c2.58,0,5.16,0,7.74,0,.69,0,.71,.03,.72,.71,0,.58-.03,1.17,.05,1.75,.17,1.13,1.24,1.94,2.36,1.84,1.17-.1,2.06-1.05,2.06-2.2,0-2.84,0-5.68,0-8.53,0-.15-.04-.21-.19-.25-1.32-.32-2.38-1.04-3.16-2.15-.1-.14-.19-.2-.37-.2-1.22,0-2.44,0-3.66,0-.34,0-.51-.13-.51-.39,0-.26,.17-.38,.52-.38,.31,0,.63,0,.94,0,.83,0,1.66,0,2.52,0-.44-1.05-.56-2.11-.36-3.22Zm9.99,1.08c.01-2.57-2.06-4.67-4.63-4.68-2.57-.01-4.68,2.08-4.69,4.66,0,2.56,2.08,4.66,4.65,4.66,2.58,0,4.66-2.06,4.67-4.64ZM.99,18.76c0,.44,0,.87,0,1.29,.02,1.27,1,2.23,2.27,2.23,3.19,0,6.38,0,9.56,0,.06,0,.13,0,.18-.01-.19-.27-.4-.52-.56-.79-.27-.47-.38-.98-.38-1.52,0-.4,0-.79,0-1.2H.99Z"/><path class="cls-1" d="M12.34,15.64c-.81,0-1.63,0-2.44,0-.31,0-.47-.13-.47-.38,0-.24,.17-.39,.46-.39,1.64,0,3.28,0,4.92,0,.3,0,.47,.15,.47,.39,0,.25-.16,.38-.47,.38-.83,0-1.66,0-2.49,0Z"/><path class="cls-1" d="M12.35,12.3c-.81,0-1.63,0-2.44,0-.32,0-.49-.15-.48-.4,0-.2,.12-.33,.32-.36,.05,0,.09,0,.14,0,1.64,0,3.29,0,4.93,0,.31,0,.47,.14,.47,.38,0,.24-.17,.39-.47,.39-.82,0-1.64,0-2.47,0Z"/><path class="cls-1" d="M7.36,9.78c-.67,0-1.24-.55-1.23-1.2,0-.64,.56-1.18,1.23-1.18,.67,0,1.24,.55,1.23,1.2,0,.65-.56,1.18-1.23,1.18Zm.65-1.17c0-.35-.32-.64-.67-.64-.36,0-.66,.32-.64,.66,.01,.33,.31,.61,.65,.62,.35,0,.66-.3,.66-.64Z"/><path class="cls-1" d="M7.36,13.11c-.67,0-1.24-.55-1.23-1.2,0-.64,.56-1.18,1.23-1.18,.67,0,1.24,.55,1.23,1.2,0,.65-.56,1.18-1.23,1.18Zm.65-1.17c0-.35-.32-.64-.67-.64-.36,0-.66,.32-.64,.66,.01,.33,.31,.61,.65,.62,.35,0,.66-.3,.66-.64Z"/><path class="cls-1" d="M7.36,16.45c-.67,0-1.24-.55-1.23-1.2,0-.64,.56-1.18,1.23-1.18,.67,0,1.24,.55,1.23,1.2,0,.65-.56,1.18-1.23,1.18Zm.65-1.17c0-.35-.32-.64-.67-.64-.36,0-.66,.32-.64,.66,.01,.33,.31,.61,.65,.62,.35,0,.66-.3,.66-.64Z"/></svg>