<?xml version="1.0" encoding="UTF-8"?><svg id="Layer_1" xmlns="http://www.w3.org/2000/svg" viewBox="0 0 24 24"><defs><style>.cls-1{fill:#737373;}</style></defs><path class="cls-1" d="M4.55,11.81c0,4.29,2.6,7.33,6.34,7.82,3.01,.39,5.48-.69,7.12-3.26,1.61-2.51,1.59-5.15,.13-7.77-.15-.28-.32-.68-.73-.45-.45,.26-.12,.59,.04,.88,1.32,2.39,1.31,4.78-.21,7.04-1.52,2.25-3.75,3.14-6.43,2.74-3.67-.55-6.04-4.03-5.31-7.77,.68-3.48,4.37-5.84,7.86-4.96,.73,.19,1.41,.57,2.1,.89,.26,.12,.48,.19,.65-.08,.17-.27,.01-.47-.22-.62-.04-.02-.08-.05-.12-.07-2.44-1.45-4.96-1.56-7.44-.19-2.47,1.36-3.68,3.55-3.77,5.79Z"/><path class="cls-1" d="M4.55,11.81c.09-2.23,1.3-4.42,3.77-5.79,2.48-1.37,4.99-1.26,7.44,.19,.04,.02,.08,.05,.12,.07,.24,.15,.4,.35,.22,.62-.17,.27-.4,.19-.65,.08-.69-.32-1.37-.71-2.1-.89-3.48-.89-7.18,1.47-7.86,4.96-.72,3.73,1.64,7.22,5.31,7.77,2.68,.4,4.91-.48,6.43-2.74,1.53-2.26,1.54-4.65,.21-7.04-.16-.29-.49-.62-.04-.88,.41-.23,.58,.18,.73,.45,1.46,2.61,1.48,5.25-.13,7.77-1.64,2.56-4.11,3.65-7.12,3.26-3.74-.49-6.34-3.53-6.34-7.82Z"/><path class="cls-1" d="M18.79,20.62c-.27-.02-.44-.04-.58-.05-.4-.04-.63-.66-.02-.77,.55-.1,2-.16,1.99,.57,0,.47,0,.94-.08,1.4,0,.03-.02,.06-.03,.09-.13,.25-.57,.31-.74-.1-.03-.09-.01-.32-.02-.5-.1,.09-.28,.28-.38,.37-2.12,1.7-4.54,2.53-7.24,2.52-5.68-.02-10.5-4.48-11.02-10.13-.11-1.17-.02-2.31,.2-3.45,.06-.31,.13-.63,.54-.54,.42,.09,.31,.45,.25,.73-.69,3.42,.12,6.45,2.38,9.08,3.59,4.18,10.21,4.68,14.41,1.13,.09-.08,.16-.17,.32-.33Z"/><path class="cls-1" d="M6.23,3.3c.27,.05,.43,.09,.56,.12,.39,.09,.55,.74-.07,.77-.56,.03-2-.09-1.9-.82,.06-.46,.12-.93,.25-1.38,0-.03,.02-.06,.04-.08,.16-.23,.61-.23,.72,.19,.02,.09-.03,.31-.04,.5,.11-.07,.31-.25,.42-.31C8.51,.87,11.02,.35,13.7,.7c5.63,.74,9.85,5.77,9.65,11.45-.04,1.17-.27,2.29-.64,3.39-.1,.3-.21,.61-.61,.47-.41-.15-.25-.48-.16-.76,1.11-3.3,.7-6.42-1.21-9.31C17.7,1.35,11.19,.01,6.59,3.01c-.1,.06-.18,.15-.36,.29Z"/><path class="cls-1" d="M12.31,15.68c0,.16,.01,.32,0,.48-.02,.26-.2,.43-.45,.43-.25,0-.47-.16-.45-.42,.04-.4-.14-.57-.48-.74-.61-.31-.92-.87-.96-1.56-.02-.32,.14-.52,.41-.55,.28-.02,.47,.13,.5,.46,.06,.79,.77,1.16,1.38,.93,.45-.17,.71-.62,.64-1.1-.06-.45-.45-.81-.91-.85-1.07-.1-1.71-.57-1.95-1.43-.26-.91,.18-1.89,1.05-2.26,.26-.11,.35-.24,.32-.5-.01-.09,.01-.21,.05-.29,.1-.19,.29-.3,.48-.22,.15,.06,.29,.21,.35,.36,.06,.14,.03,.32,.03,.45,.28,.16,.56,.28,.8,.46,.44,.34,.67,.82,.71,1.37,.02,.34-.17,.57-.44,.58-.26,0-.45-.2-.48-.53-.04-.5-.4-.89-.88-.94-.47-.06-.93,.23-1.08,.67-.24,.69,.25,1.33,1.05,1.36,.79,.04,1.46,.53,1.73,1.27,.36,1-.15,2.1-1.15,2.47-.08,.03-.15,.06-.26,.09Z"/></svg>