<?xml version="1.0" encoding="UTF-8"?><svg id="Layer_1" xmlns="http://www.w3.org/2000/svg" viewBox="0 0 24 24"><defs><style>.cls-1{fill:#737373;}</style></defs><path class="cls-1" d="M17.61,.06c.34,.13,.71,.21,1,.4,.58,.38,.82,.97,.83,1.66,0,.1,0,.2,0,.32,.2,.02,.39,.03,.57,.04,.98,.06,1.83,.88,1.83,2.07,0,.74,0,1.48,0,2.22,0,5.01,0,10.01,0,15.02,0,.87-.33,1.57-1.14,1.95-.28,.13-.61,.2-.92,.2-4.19,.01-8.38,.01-12.57,0-1.01,0-1.77-.58-2.01-1.54-.06-.26-.06-.54-.08-.81-.28-.03-.57-.03-.85-.1-.96-.25-1.52-1.01-1.52-2.05,0-1.53,0-3.06,0-4.59,0-4.2,0-8.41,0-12.61,0-.87,.34-1.55,1.15-1.95,.2-.1,.44-.14,.66-.21h13.06Zm-3.72,.78h-.29c-2.9,0-5.8,0-8.7,0-.9,0-1.38,.48-1.38,1.38,0,5.72,0,11.44,0,17.16,0,.9,.49,1.39,1.38,1.39,4.13,0,8.27,0,12.4,0,.88,0,1.37-.49,1.37-1.37,0-5.73,0-11.46,0-17.18,0-.91-.53-1.41-1.44-1.37-.14,0-.19,.05-.19,.19,0,.45,0,.9,0,1.35,0,.41,.02,.83-.01,1.23,0,.13-.12,.31-.23,.36-.11,.05-.29-.02-.42-.08-.09-.04-.15-.13-.22-.21-.22-.23-.45-.47-.69-.72-.32,.32-.6,.6-.87,.88-.14,.14-.29,.21-.48,.13-.19-.08-.24-.25-.24-.44,0-.54,0-1.09,0-1.63,0-.35,0-.7,0-1.08ZM5.94,21.55c-.17,.94,.39,1.61,1.29,1.61,4.17,0,8.35,0,12.52,0,.8,0,1.31-.5,1.31-1.29,0-5.78,0-11.56,0-17.35,0-.89-.7-1.43-1.62-1.26v.34c0,2.99,0,5.98,0,8.98,0,2.27,0,4.54,0,6.81,0,.71-.22,1.31-.79,1.75-.41,.31-.88,.41-1.38,.41-3.68,0-7.35,0-11.03,0h-.31ZM16.18,2.67l.08-.05V.86h-1.57v1.79s.04-.01,.05-.02c.14-.13,.28-.27,.42-.4,.23-.22,.42-.22,.65,0,.14,.14,.25,.29,.38,.44Z"/><path class="cls-1" d="M9.1,3.94l.5-.56,.55,.56c-.31,.31-.62,.61-.92,.93-.07,.08-.13,.21-.13,.32-.01,.63,0,1.26,0,1.89,0,.41-.13,.54-.55,.54-.96,0-1.93,0-2.89,0-.39,0-.52-.12-.52-.51,0-.98,0-1.96,0-2.94,0-.38,.13-.5,.5-.5,.96,0,1.93,0,2.89,0,.22,0,.42,.03,.57,.28Zm-.79,1.92h-.04c-.15,.13-.3,.28-.46,.42-.18,.16-.39,.2-.54,.05-.28-.26-.53-.54-.78-.8l.55-.58,.46,.56c.27-.27,.54-.52,.77-.78,.06-.06,.03-.19,.03-.27h-2.39v2.37h2.38v-.97Z"/><path class="cls-1" d="M9.04,9.46c.21-.17,.39-.33,.53-.5l.57,.56c-.29,.29-.58,.59-.88,.87-.12,.12-.17,.24-.17,.41,.01,.61,0,1.23,0,1.84,0,.41-.13,.54-.54,.54-.96,0-1.93,0-2.89,0-.41,0-.53-.12-.53-.53,0-.96,0-1.93,0-2.89,0-.41,.13-.54,.54-.54,.95,0,1.91,0,2.86,0,.18,0,.48,.2,.49,.23Zm-.72,1.89c-.2,.2-.35,.35-.51,.49-.19,.17-.37,.2-.54,.05-.28-.26-.53-.54-.78-.79l.56-.6,.46,.56c.27-.28,.59-.56,.82-.81,.05-.05,.02-.26,.02-.26,0,0-.16,0-.22,0-.68,0-1.37,0-2.05,0-.12,0-.19,.04-.19,.17,0,.69,0,1.38,0,2.07,0,.13,.05,.18,.18,.18,.69,0,1.38,0,2.07,0,.06,0,.16-.07,.16-.11,.01-.29,0-.58,0-.95Z"/><path class="cls-1" d="M7.12,18.36c-.49,0-.98,0-1.47,0-.39,0-.51-.12-.51-.5,0-.99,0-1.97,0-2.96,0-.37,.14-.5,.52-.5,.97,0,1.94,0,2.91,0,.38,0,.53,.14,.53,.52,0,.98,0,1.96,0,2.94,0,.37-.14,.5-.51,.5-.49,0-.98,0-1.47,0Zm.01-3.18c-.34,0-.68,0-1.02,0-.15,0-.21,.05-.21,.2,0,.67,0,1.35,0,2.02,0,.16,.06,.2,.21,.2,.67,0,1.33,0,2,0,.16,0,.22-.05,.22-.21,0-.67,0-1.33,0-2,0-.17-.06-.21-.22-.21-.33,0-.65,0-.98,0Z"/><path class="cls-1" d="M10.73,6.05h3.91v.75h-3.91v-.75Z"/><path class="cls-1" d="M14.65,11.64v.73h-3.92v-.73h3.92Z"/><path class="cls-1" d="M10.73,17.54v-.73h3.92v.73h-3.92Z"/><path class="cls-1" d="M10.72,5.22v-.74h2.33v.74h-2.33Z"/><path class="cls-1" d="M10.72,10.78v-.74h2.34v.74h-2.34Z"/><path class="cls-1" d="M10.72,15.95v-.74h2.34v.74h-2.34Z"/><path class="cls-1" d="M14.66,15.2v.75h-.76c0-.21,0-.42,0-.64,0-.04,.07-.1,.11-.11,.21-.01,.41,0,.65,0Z"/></svg>