<svg xmlns="http://www.w3.org/2000/svg" shape-rendering="geometricPrecision" text-rendering="geometricPrecision" image-rendering="optimizeQuality" fill-rule="evenodd" clip-rule="evenodd" viewBox="0 0 501 512.285"><path fill="#007BFF" fill-rule="nonzero" d="M318.159 66.904c3.517 3.656 3.406 9.474-.25 12.991-3.656 3.516-9.474 3.405-12.991-.251l-45.205-47.165v136.588c0 34.592 13.966 69.231 36.57 95.307 20.175 23.271 47.172 39.623 77.112 42.818 2.744-12.067 8.865-22.85 17.317-31.302 11.693-11.692 27.847-18.924 45.682-18.924 17.839 0 33.99 7.232 45.682 18.924S501 303.736 501 321.572c0 17.839-7.232 33.99-18.924 45.682s-27.843 18.924-45.682 18.924c-17.835 0-33.989-7.232-45.682-18.924-10.827-10.827-17.828-25.475-18.805-41.748-35.019-3.609-66.342-22.383-89.513-49.113-8.813-10.165-16.456-21.495-22.681-33.589v140.922c14.152 2.02 26.828 8.63 36.469 18.271 11.692 11.692 18.924 27.846 18.924 45.682 0 17.839-7.232 33.99-18.924 45.682s-27.843 18.924-45.682 18.924c-17.839 0-33.99-7.232-45.682-18.924s-18.924-27.843-18.924-45.682c0-17.836 7.232-33.99 18.924-45.682 9.641-9.641 22.317-16.251 36.469-18.271V242.802c-6.252 12.141-13.931 23.515-22.787 33.708-23.168 26.669-54.447 45.394-89.407 48.996-.977 16.273-7.978 30.921-18.805 41.748-11.693 11.692-27.847 18.924-45.682 18.924-17.839 0-33.99-7.232-45.682-18.924S0 339.411 0 321.572c0-17.836 7.232-33.99 18.924-45.682s27.843-18.924 45.682-18.924c17.835 0 33.989 7.232 45.682 18.924 8.452 8.452 14.573 19.237 17.317 31.302 29.896-3.198 56.851-19.5 77.006-42.702 22.669-26.089 36.676-60.779 36.676-95.423V31.727l-45.925 47.917c-3.517 3.656-9.335 3.767-12.991.251-3.656-3.517-3.768-9.335-.251-12.991l61.649-64.312a9.15 9.15 0 015.885-2.553 9.21 9.21 0 018.868 4.643l59.637 62.222zm-35.003 348.119c-8.354-8.355-19.904-13.524-32.656-13.524-12.752 0-24.302 5.169-32.656 13.524-8.355 8.355-13.524 19.902-13.524 32.656 0 12.752 5.169 24.302 13.524 32.657 8.354 8.354 19.904 13.523 32.656 13.523 12.752 0 24.302-5.169 32.656-13.523 8.355-8.355 13.524-19.905 13.524-32.657 0-12.754-5.169-24.301-13.524-32.656zm185.895-126.107c-8.355-8.355-19.904-13.524-32.657-13.524-12.754 0-24.301 5.169-32.656 13.524-8.355 8.354-13.523 19.902-13.523 32.656 0 12.752 5.168 24.301 13.523 32.656s19.902 13.524 32.656 13.524c12.753 0 24.302-5.169 32.657-13.524 8.354-8.355 13.523-19.904 13.523-32.656 0-12.754-5.169-24.302-13.523-32.656zm-371.789 0c-8.355-8.355-19.902-13.524-32.656-13.524-12.753 0-24.302 5.169-32.657 13.524-8.354 8.354-13.523 19.902-13.523 32.656 0 12.752 5.169 24.301 13.523 32.656 8.355 8.355 19.904 13.524 32.657 13.524 12.754 0 24.301-5.169 32.656-13.524s13.523-19.904 13.523-32.656c0-12.754-5.168-24.302-13.523-32.656z"/></svg>
