<?xml version="1.0" encoding="UTF-8"?><svg id="Layer_1" xmlns="http://www.w3.org/2000/svg" viewBox="0 0 24 24"><defs><style>.cls-1{fill:#737373;}</style></defs><path class="cls-1" d="M13.73,14.31c0-2.11,0-4.22,0-6.33,0-.53-.15-.68-.68-.68h-3.59c-1.22,0-2.44,0-3.66,0-.48,0-.65,.17-.65,.64,0,2.13,0,4.25,0,6.38-.02,.28,.14,.54,.41,.64,1.07,.51,2.13,1.03,3.19,1.56,.44,.24,.97,.24,1.41,0,1.06-.53,2.12-1.05,3.18-1.56,.26-.1,.42-.37,.4-.65Zm-1.15-.05c-.94,.45-1.87,.91-2.8,1.37-.21,.12-.46,.12-.68,0-.94-.47-1.89-.94-2.84-1.4-.11-.03-.18-.14-.17-.25,0-1.86,0-3.73,0-5.59,0-.04,0-.07,0-.13h6.66c0,.09,0,.16,0,.23,0,1.81,0,3.62,0,5.44,.02,.14-.06,.27-.2,.32Zm4.48,5.94c0,.29,0,.55,0,.82,0,.95-.6,1.55-1.55,1.55-4.05,0-8.1,0-12.15,0-.95,0-1.55-.6-1.55-1.55,0-5.21,0-10.43,0-15.64,.36,0,2.1,.02,2.41,0,.87-.07,1.39-.64,1.4-1.52,0-.68,0-1.36,0-2.04v-.25c.08,0,.13-.01,.18-.01,3.25,0,6.49,0,9.74,0,.24,0,.49,.05,.71,.16,.59,.28,.81,.79,.81,1.42,0,3.35,0,6.7,0,10.05v.29h.95V5.31c0-.78,.01-1.57,0-2.35,0-.69-.32-1.34-.86-1.77-.35-.28-.76-.47-1.19-.56H5.02c-.15,.12-.3,.24-.43,.38-1.12,1.11-2.23,2.23-3.35,3.35-.13,.14-.25,.29-.37,.44V21.48c.09,.43,.27,.83,.54,1.17,.36,.44,.86,.74,1.42,.85,.03,.01,.07,.02,.1,.04H15.96c.14-.04,.28-.07,.42-.13,1.53-.59,1.76-1.84,1.6-3.2h-.92ZM4.67,2.28c0,.54,0,1.04,0,1.53,0,.46-.16,.62-.62,.62-.17,0-.95,0-1.56,0,.67-.68,1.34-1.35,2.02-2.03,.04-.04,.08-.07,.16-.13ZM23.5,12.01c-.37-.38-.75-.75-1.12-1.12-.32-.32-.56-.32-.88,0-.58,.58-1.16,1.16-1.74,1.74-1.77,1.77-3.54,3.54-5.3,5.32-.13,.12-.22,.28-.25,.45-.02,.43-.02,.86,0,1.3,0,.32,.19,.49,.51,.5,.21,0,.42,0,.62,0h0c.16,0,.33,0,.49,0,.23,.03,.45-.06,.6-.23,2.36-2.36,4.71-4.73,7.07-7.09,.31-.31,.3-.55,0-.86Zm-7.52,6.99l-.56-.59,6.54-6.56,.58,.57-6.57,6.57Zm-6.06-1.19v.76c0,.52,.15,.67,.66,.67h2.65v.94c-.06,0-.13,0-.2,0-.83,0-1.67,0-2.5,0-.98,0-1.56-.59-1.57-1.58,0-.26,0-.52,0-.8h.96Zm1.55-7.88c.22,.22,.43,.44,.66,.67-.03,.03-.07,.08-.12,.13-.86,.86-1.72,1.72-2.57,2.58-.35,.35-.58,.35-.93,0-.43-.43-.86-.86-1.29-1.29l.67-.65,1.07,1.08,2.52-2.52Z"/></svg>