<?xml version="1.0" encoding="UTF-8"?><svg id="Layer_1" xmlns="http://www.w3.org/2000/svg" viewBox="0 0 24 24"><defs><style>.cls-1{fill:#737373;}</style></defs><path class="cls-1" d="M23.5,7.07c.06-.17,.12-.33,.18-.5v-.3s-.02-.02-.02-.03c-.09-.26-.32-.43-.57-.4-.32,0-.47,.25-.54,.45l-.16,.46-.15-.18c-.15-.2-.29-.4-.43-.6-.3-.43-.59-.83-.92-1.22-1.41-1.73-3.27-3.02-5.39-3.71-.13-.05-.26-.07-.4-.07-.26,.03-.47,.24-.49,.51-.02,.28,.15,.5,.48,.61,2.49,.83,4.51,2.46,5.99,4.85,.02,.04,.04,.08,.07,.13l.17,.35-.65-.21c-.08-.03-.16-.04-.24-.04-.25,0-.45,.14-.53,.39-.1,.31,.06,.6,.41,.72,.19,.06,.37,.12,.56,.19,.34,.11,.69,.23,1.03,.36,.36,.14,.61,.17,.78,.08,.17-.09,.3-.3,.41-.66,.11-.4,.26-.79,.4-1.17Z"/><path class="cls-1" d="M8.9,22.07c-2.06-.67-3.82-1.93-5.25-3.75-.22-.28-.41-.57-.6-.86-.08-.13-.17-.26-.26-.38l-.06-.09,.18-.17,.18,.06c.09,.03,.18,.06,.28,.09,.03,0,.05,.01,.07,.02,.15,.03,.3,0,.43-.09,.13-.09,.21-.22,.24-.37,.05-.28-.12-.56-.4-.64-.21-.08-.42-.14-.63-.21-.33-.11-.68-.22-1.01-.35-.34-.13-.58-.16-.75-.07-.18,.09-.31,.3-.41,.66-.11,.4-.26,.79-.4,1.17-.06,.17-.12,.34-.18,.5v.3s.01,.02,.02,.03c.09,.26,.32,.41,.57,.4,.32,0,.47-.25,.54-.45l.16-.47,.14,.19c.14,.19,.28,.39,.42,.58,.3,.43,.59,.84,.92,1.23,1.5,1.8,3.34,3.07,5.48,3.75,.2,.06,.39,.06,.53-.02,.12-.06,.22-.18,.26-.33,.1-.32-.07-.61-.44-.73Z"/><path class="cls-1" d="M15.75,8.69c-.25-.01-.36-.13-.36-.37,0-.18-.02-.37-.05-.56-.22-1.82-1.17-3.43-2.67-4.55-1.19-.9-2.64-1.37-4.1-1.37-.35,0-.71,.03-1.05,.08-3.35,.54-5.77,3.4-5.76,6.8,0,1.72,.66,3.36,1.85,4.6,1.19,1.3,2.88,2.08,4.64,2.15,.25,.01,.35,.12,.36,.37,0,.24,.03,.48,.06,.72,0,.04,.01,.09,.02,.13,.66,3.71,4.2,6.19,7.92,5.52,2.39-.42,4.33-2.04,5.18-4.34,.85-2.3,.44-4.79-1.1-6.67-1.21-1.52-3.01-2.43-4.95-2.5Zm-7.17,5.66c-3.13,0-5.68-2.56-5.69-5.69,0-3.13,2.56-5.68,5.69-5.69,3.13,0,5.68,2.56,5.68,5.69,0,3.13-2.56,5.68-5.69,5.69Zm12.52,1.15c0,1.51-.58,2.94-1.65,4.01s-2.49,1.66-4.01,1.67h-.01c-1.55,0-2.99-.6-4.06-1.69-1.06-1.08-1.65-2.52-1.62-3.96v-.09l2.02-.67v.18c-.03,.33-.03,.66,0,.99,.23,1.57,1.1,2.61,2.58,3.07,1.45,.45,2.75,.08,3.85-1.08,.16-.16,.21-.39,.13-.59-.06-.2-.24-.34-.44-.36-.22-.03-.43,.06-.56,.23-.49,.55-1.17,.85-1.89,.85-.04,0-.07,0-.11,0-1.02-.04-1.92-.68-2.29-1.63-.02-.04-.03-.08-.04-.14l-.06-.23h1.04c.56,0,1.12,0,1.68,0,.42,0,.68-.22,.69-.56,0-.15-.05-.28-.15-.38-.12-.12-.31-.19-.53-.19h-2.75l.08-.26c.02-.06,.04-.11,.06-.17,.14-.34,.35-.64,.62-.89,.48-.44,1.09-.68,1.74-.68,.03,0,.07,0,.1,0,.68,.03,1.31,.32,1.78,.82,.2,.21,.36,.29,.56,.27,.22-.01,.4-.15,.47-.36,.08-.2,.04-.43-.1-.58-.59-.7-1.4-1.13-2.3-1.24-.34-.02-.68-.03-1.03,0h-.18l.66-2h.09c.07,0,.14,0,.22,0,2.4,0,5.09,1.98,5.41,5.08,.02,.2,.03,.4,.03,.59Z"/><path class="cls-1" d="M9.13,6.46c.27,0,.54,0,.81,0h.04c.15,0,.29-.07,.4-.18,.1-.11,.16-.25,.16-.41,0-.32-.25-.54-.61-.55-.14,0-.28,0-.42,0h-.31l-.02-.09s-.02-.07-.02-.1c-.03-.41-.24-.63-.57-.63h-.01c-.34,0-.54,.25-.54,.65,0,.22-.13,.3-.25,.36-.83,.38-1.29,1.27-1.1,2.16,.18,.89,.95,1.54,1.86,1.57,.54,.02,.89,.36,.88,.85-.01,.47-.38,.79-.9,.8-.16,0-.32,0-.48,0-.27,0-.54,0-.81,0-.17,0-.32,.06-.42,.17-.11,.11-.16,.25-.16,.4,.01,.33,.26,.56,.56,.56,.08,0,.16,0,.24,0h.56v.11c.08,.74,.48,.73,.62,.71,.12,0,.5-.02,.55-.69,.03-.14,.11-.25,.23-.3,.84-.38,1.3-1.28,1.11-2.19-.19-.89-.95-1.53-1.86-1.55-.52-.02-.87-.36-.87-.83,0-.47,.37-.8,.89-.81,.16,0,.32,0,.48,0Z"/></svg>