<?xml version="1.0" encoding="UTF-8"?><svg id="Layer_1" xmlns="http://www.w3.org/2000/svg" viewBox="0 0 24 24"><defs><style>.cls-1{fill:#737373;}</style></defs><path class="cls-1" d="M18.89,14.16c-.06-.06-.12-.12-.27,.02l-.22,.22c-.14,.15-.28,.29-.44,.43-.21,.19-.27,.3-.27,.34s.06,.16,.28,.35c.16,.14,.32,.3,.48,.47l1.09,1.1-1.51,.08H5.54c-.14,0-.29,0-.43-.03-1.35-.25-2.22-1.26-2.28-2.64,0-.14-.06-.48-.46-.53-.26-.03-.54-.03-.84,0-.15,.02-.31,.07-.42,.35l-.04,.11v.27c.02,.08,.04,.15,.05,.21,.14,1.27,.69,2.27,1.7,3.07,.8,.63,1.71,.94,2.79,.94h14l-.98,.99-.31,.3c-.19,.19-.38,.37-.57,.57-.09,.09-.09,.16,0,.26,.29,.3,.58,.59,.87,.87,.12,.11,.18,.09,.27,0,1.29-1.29,2.58-2.57,3.86-3.86-1.3-1.31-2.58-2.59-3.87-3.87Z"/><path class="cls-1" d="M5.06,9.76s.12,.09,.23,0c.31-.29,.61-.59,.9-.9,.08-.09,.08-.16,0-.25-.15-.16-.3-.3-.45-.45l-.27-.27s-.08-.09-.13-.14l-.88-1h4.96c2.97,0,5.94,0,8.91,0h.02c.75,0,1.46,.29,1.99,.82,.51,.51,.8,1.19,.79,1.9,0,.26,.15,.45,.41,.49,.25,.04,.53,.04,.86,.02,.19-.02,.41-.12,.43-.38,.03-.32,0-.68-.07-1.03-.46-2.12-2.24-3.55-4.43-3.55l-14,.09,1.01-1.09,.22-.23c.2-.2,.41-.41,.61-.62,.12-.13,.12-.18,0-.31-.22-.23-.45-.45-.67-.68l-.12-.12c-.16-.16-.2-.17-.38,0-1.2,1.19-2.39,2.39-3.59,3.59-.07,.07-.15,.15-.22,.23l.74,.74c1.05,1.05,2.09,2.09,3.14,3.14Z"/></svg>