<?xml version="1.0" encoding="UTF-8"?><svg id="Layer_1" xmlns="http://www.w3.org/2000/svg" viewBox="0 0 24 24"><defs><style>.cls-1{fill:#737373;}</style></defs><path class="cls-1" d="M5.66,5.8c.05,0,.11,0,.16,0h.04c2.68,0,5.37,0,8.05,0,.09,0,.17,0,.26-.02,.26-.03,.45-.27,.44-.53,0-.26-.2-.49-.46-.51-.08-.01-.15-.02-.23-.01h-.05c-1.08,0-2.16,0-3.24,0H5.87c-.06,0-.13,0-.19,0-.32,.03-.52,.25-.51,.53,0,.28,.22,.51,.5,.53Z"/><path class="cls-1" d="M5.66,8.3c.05,0,.11,0,.16,0h.04c2.68,0,5.37,0,8.05,0,.09,0,.17,0,.26-.02,.26-.04,.45-.27,.44-.53,0-.26-.2-.49-.46-.51-.08-.01-.15-.02-.23-.01h-.02s-.03,0-.04,0c-1.09,0-2.17,0-3.26,0H5.87c-.06,0-.13,0-.19,0-.32,.03-.52,.25-.51,.53,0,.28,.22,.51,.5,.53Z"/><path class="cls-1" d="M23.45,10.82c-.22-.3-.6-.46-1.1-.46-.59,0-1.18,0-1.77,0h-.96c0-.16,0-.32,0-.48v-.04c0-.48,0-.94,0-1.4,0-.97-.6-1.56-1.58-1.57-.06,0-.12,0-.18,0-.21,0-.43,0-.65,0-.12,0-.15-.01-.15-.01,0,0-.02-.03-.02-.15,.01-.98,.01-1.98,0-2.95v-.69c0-.79-.44-1.23-1.22-1.23-4.1,0-7.91,0-11.64,0-.77,0-1.2,.43-1.21,1.21v.14c0,.36,0,.74,0,1.11,0,.02,0,.04,0,.06-.02,0-.04,0-.06,0-.29,0-.61,0-1,0-.96,.02-1.55,.62-1.55,1.57,0,4.81,0,9.87,0,15.04,0,.82,.49,1.32,1.32,1.32,3.32,0,6.63,0,9.95,0,2.58,0,5.17,0,7.75,0,.55,.02,1.06-.27,1.31-.75,.11-.2,.2-.42,.26-.64,.87-2.92,1.74-5.88,2.63-8.91,.14-.48,.1-.89-.12-1.19Zm-6.41-2.87s.06,0,.1,0c.17,0,.35,0,.52,0,.15,0,.3,0,.45,0,.26,0,.41,.14,.41,.36,.01,.51,0,1.01,0,1.54,0,.16,0,.33,0,.5h-1.49v-.26c0-.19,0-.38,0-.57,0-.48,0-.98,0-1.48,0-.03,0-.06,0-.09ZM4.04,3.16c0-.08,0-.16,0-.23,.08,0,.16-.01,.24,0H15.7c.08,0,.17,0,.25,.01,0,.08,.01,.16,.01,.25v1.63c0,1.77,0,3.6,0,5.4h0c0,.12-.02,.14-.02,.14,0,0-.02,.02-.14,.02-2.64,0-5.32,0-7.91,0h-1.76c-1,0-1.5,.38-1.78,1.34l-.14,.49c-.06,.21-.12,.42-.18,.63V3.16ZM1.77,20.76c-.03,.13-.08,.25-.14,.36-.03,.03-.06,.06-.1,.08-.05-.04-.09-.09-.12-.15,0-.04,0-.08,0-.12,0-.03,0-.06,0-.08,0-2.1,0-4.19,0-6.29V6.07c0-.53,.09-.62,.62-.62h0c.08,0,.16,0,.24,0,.19,0,.38,0,.58,0h.03s.04,0,.06,0c.01,.04,.02,.08,.01,.12,0,.32,0,.64,0,.95h0c0,.13,0,.26,0,.39v1.84c0,2.47,0,5.02,0,7.52,0,.21-.03,.41-.09,.61-.34,1.22-.69,2.45-1.04,3.64l-.07,.25ZM22.58,11.56s-.02,.08-.03,.12l-.08,.29c-.84,2.86-1.68,5.72-2.52,8.59-.02,.08-.05,.16-.08,.24l-.02,.06c-.1,.27-.27,.38-.57,.38-3.52,0-7.09,0-10.12,0H2.76v-.03c.88-3.07,1.76-6.15,2.64-9.22,.14-.5,.21-.55,.74-.55H22.31c.07,0,.13,0,.19,0,.06,0,.08,.02,.08,.03s.02,.03,0,.09Z"/></svg>