<svg width="24" height="24" viewBox="0 0 24 24" fill="none" xmlns="http://www.w3.org/2000/svg">
<path d="M3.31496 14.8C3.43496 15.075 3.70496 15.25 3.99996 15.25H18C18.215 15.25 18.42 15.16 18.56 15L22.56 10.5C22.6559 10.3918 22.7185 10.2582 22.7404 10.1153C22.7623 9.9724 22.7425 9.8262 22.6834 9.69425C22.6243 9.5623 22.5284 9.4502 22.4072 9.3714C22.2859 9.29261 22.1445 9.25045 22 9.25H19.25V8C19.25 7.585 18.915 7.25 18.5 7.25H11.25V5C11.25 4.035 10.465 3.25 9.49996 3.25C8.53496 3.25 7.74996 4.035 7.74996 5V7.25H7.24996V5C7.24996 4.035 6.46496 3.25 5.49996 3.25C4.53496 3.25 3.74996 4.035 3.74996 5V7.25H2.49996C2.08496 7.25 1.74996 7.585 1.74996 8V9.3C1.65185 9.33339 1.56183 9.38698 1.48572 9.45733C1.40962 9.52767 1.34911 9.6132 1.30812 9.70838C1.26712 9.80356 1.24655 9.90629 1.24773 10.0099C1.24891 10.1135 1.27181 10.2158 1.31496 10.31L3.31496 14.8ZM9.24996 5C9.24996 4.86 9.35996 4.75 9.49996 4.75C9.63996 4.75 9.74996 4.86 9.74996 5V7.25H9.24996V5ZM5.24996 5C5.24996 4.86 5.35996 4.75 5.49996 4.75C5.63996 4.75 5.74996 4.86 5.74996 5V7.25H5.24996V5ZM3.24996 8.75H17.75V9.25H3.24996V8.75ZM18.5 10.75H20.33L17.665 13.75H4.48496L4.03996 12.75H5.99996C6.41496 12.75 6.74996 12.415 6.74996 12C6.74996 11.585 6.41496 11.25 5.99996 11.25H3.99996C3.79496 11.25 3.60996 11.335 3.47496 11.465L3.15496 10.75H18.5Z" fill="#007BFF"/>
<path d="M8.00006 12.75H10.0001C10.4151 12.75 10.7501 12.415 10.7501 12C10.7501 11.585 10.4151 11.25 10.0001 11.25H8.00006C7.58506 11.25 7.25006 11.585 7.25006 12C7.25006 12.415 7.58506 12.75 8.00006 12.75ZM12.0001 12.75H14.0001C14.4151 12.75 14.7501 12.415 14.7501 12C14.7501 11.585 14.4151 11.25 14.0001 11.25H12.0001C11.5851 11.25 11.2501 11.585 11.2501 12C11.2501 12.415 11.5851 12.75 12.0001 12.75ZM16.0001 12.75H18.0001C18.4151 12.75 18.7501 12.415 18.7501 12C18.7501 11.585 18.4151 11.25 18.0001 11.25H16.0001C15.5851 11.25 15.2501 11.585 15.2501 12C15.2501 12.415 15.5851 12.75 16.0001 12.75ZM17.6651 16.325C16.9101 16.7 15.0951 17.285 14.6251 16.58C13.2951 14.59 10.0401 16.14 9.66506 16.325C8.91006 16.7 7.09506 17.285 6.62506 16.58C5.29506 14.585 2.03506 16.14 1.66506 16.325C1.48736 16.4138 1.35224 16.5696 1.28942 16.7581C1.22659 16.9466 1.24121 17.1523 1.33006 17.33C1.41891 17.5077 1.57471 17.6428 1.76318 17.7056C1.95165 17.7685 2.15736 17.7538 2.33506 17.665C3.09006 17.29 4.90506 16.705 5.37506 17.41C5.88506 18.17 6.67506 18.415 7.47506 18.415C8.77006 18.415 10.1051 17.78 10.3301 17.665C11.0851 17.29 12.9001 16.705 13.3701 17.41C13.8801 18.17 14.6701 18.415 15.4701 18.415C16.7651 18.415 18.1001 17.78 18.3251 17.665C19.0801 17.29 20.8951 16.705 21.3651 17.41C21.4755 17.5753 21.6469 17.6901 21.8418 17.7295C22.0366 17.7688 22.2391 17.7295 22.4051 17.62C22.4872 17.5655 22.5577 17.4954 22.6127 17.4136C22.6677 17.3319 22.706 17.2401 22.7255 17.1435C22.745 17.0469 22.7453 16.9475 22.7264 16.8508C22.7074 16.7541 22.6696 16.6621 22.6151 16.58C21.2951 14.59 18.0351 16.14 17.6651 16.325Z" fill="#007BFF"/>
<path d="M17.6651 18.66C16.9101 19.035 15.0951 19.62 14.6251 18.915C13.2951 16.925 10.0401 18.475 9.66506 18.66C8.91006 19.035 7.09506 19.62 6.62506 18.915C5.29506 16.92 2.03506 18.475 1.66506 18.66C1.48736 18.7489 1.35224 18.9046 1.28942 19.0931C1.22659 19.2816 1.24121 19.4873 1.33006 19.665C1.41891 19.8427 1.57471 19.9778 1.76318 20.0406C1.95165 20.1035 2.15736 20.0889 2.33506 20C3.09006 19.625 4.90506 19.04 5.37506 19.745C5.88506 20.505 6.67506 20.75 7.47506 20.75C8.77006 20.75 10.1051 20.115 10.3301 20C11.0851 19.625 12.9001 19.04 13.3701 19.745C13.8801 20.505 14.6701 20.75 15.4701 20.75C16.7651 20.75 18.1001 20.115 18.3251 20C19.0801 19.625 20.8951 19.04 21.3651 19.745C21.4755 19.9103 21.6469 20.0251 21.8418 20.0645C22.0366 20.1038 22.2391 20.0645 22.4051 19.955C22.4872 19.9005 22.5577 19.8304 22.6127 19.7486C22.6677 19.6669 22.706 19.5751 22.7255 19.4785C22.745 19.3819 22.7453 19.2825 22.7264 19.1858C22.7074 19.0891 22.6696 18.9971 22.6151 18.915C21.2951 16.925 18.0351 18.475 17.6651 18.66Z" fill="#848484"/>
</svg>
