<?xml version="1.0" encoding="UTF-8"?><svg id="Layer_1" xmlns="http://www.w3.org/2000/svg" viewBox="0 0 24 24"><defs><style>.cls-1{fill:#737373;}</style></defs><path class="cls-1" d="M13,1.99h3.13c0-.26,0-.5,0-.74,.02-.53,.42-.96,.93-1.01,.52-.05,1.01,.28,1.12,.79,.05,.26,.03,.53,.04,.8,0,.05,0,.09,0,.18,.24,0,.47,0,.71,0,.42,0,.82,.09,1.17,.35,.44,.33,.7,.76,.74,1.32,.01,.14,.01,.28,.01,.41,0,6.25,0,12.49,0,18.74,0,.11,0,.22-.01,.32-.03,.18-.15,.28-.33,.3-.07,0-.14,0-.21,0-5.57,0-11.14,0-16.71,0-.47,0-.56-.09-.56-.55,0-6.31,0-12.61,0-18.92,0-.99,.52-1.7,1.4-1.91,.18-.04,.36-.05,.55-.05,.22,0,.44,0,.7,0,0-.26,0-.51,0-.75,.01-.53,.41-.96,.92-1.02,.52-.06,1.02,.26,1.13,.77,.06,.26,.03,.53,.04,.8,0,.05,0,.1,.01,.17h3.12c0-.23,0-.47,0-.7,.02-.55,.42-1,.94-1.04,.56-.05,1.04,.31,1.14,.88,.03,.19,.02,.38,.02,.57,0,.09,0,.18,0,.3Zm7.14,20.72v-.3c0-6.13,0-12.26,0-18.39,0-.08,0-.15,0-.23-.02-.46-.32-.9-.76-.99-.37-.08-.77-.06-1.17-.09,0,.13,0,.19,0,.26,0,.27,.02,.54-.02,.8-.08,.49-.59,.87-1.07,.83-.55-.04-.97-.46-.99-.99-.01-.29,0-.58,0-.86h-3.13c0,.26,0,.5,0,.74,0,.63-.45,1.11-1.04,1.12-.6,0-1.05-.48-1.06-1.12,0-.24,0-.49,0-.73h-3.14c0,.31,0,.6,0,.89,0,.3-.14,.55-.38,.73-.34,.26-.72,.29-1.11,.12-.38-.17-.57-.48-.58-.89-.01-.28,0-.56,0-.87-.25,0-.47,0-.69,0-.8,0-1.25,.44-1.25,1.23,0,6.17,0,12.34,0,18.51v.25H20.14ZM7.06,2.43c0-.36,0-.72,0-1.08,0-.26-.12-.38-.33-.39-.22,0-.34,.12-.34,.39,0,.7,0,1.41,0,2.11,0,.26,.13,.41,.34,.41,.21,0,.33-.15,.33-.41,0-.34,0-.69,0-1.03Zm9.77,0c0,.35,0,.7,0,1.06,0,.25,.13,.39,.33,.39,.21,0,.34-.14,.34-.4,0-.7,0-1.41,0-2.11,0-.27-.12-.4-.34-.4-.22,0-.33,.13-.33,.4,0,.35,0,.7,0,1.06Zm-4.56,0c0-.37,0-.73,0-1.1,0-.24-.11-.35-.33-.35-.21,0-.33,.12-.33,.35,0,.73,0,1.45,0,2.18,0,.24,.14,.38,.34,.38,.19,0,.31-.15,.32-.37,0-.36,0-.72,0-1.08Z"/><path class="cls-1" d="M8.51,14.96c-.37,0-.74,0-1.1,0-.29,0-.42-.13-.43-.42,0-.74,0-1.49,0-2.23,0-.27,.14-.42,.41-.42,.75,0,1.5,0,2.26,0,.26,0,.4,.14,.41,.4,0,.76,0,1.52,0,2.28,0,.26-.15,.39-.41,.39-.38,0-.75,0-1.13,0Zm-.79-2.34v1.61h1.59v-1.61h-1.59Z"/><path class="cls-1" d="M6.98,18.01c0-.37,0-.74,0-1.1,0-.3,.12-.42,.42-.43,.74,0,1.49,0,2.23,0,.29,0,.42,.13,.42,.42,0,.74,0,1.47,0,2.21,0,.29-.13,.43-.42,.43-.74,0-1.49,0-2.23,0-.29,0-.42-.13-.42-.42,0-.37,0-.74,0-1.1Zm.74-.81v1.62h1.59v-1.62h-1.59Z"/><path class="cls-1" d="M13.54,13.08c.64,0,1.29,0,1.93,0,.28,0,.44,.13,.44,.35,0,.22-.15,.35-.42,.35-1.31,0-2.62,0-3.93,0-.31,0-.49-.24-.37-.5,.07-.16,.21-.21,.38-.21,.66,0,1.32,0,1.98,0Z"/><path class="cls-1" d="M8.49,9.13c.37-.38,.71-.71,1.04-1.05,.05-.05,.11-.11,.17-.16,.16-.13,.36-.13,.49,.02,.14,.15,.15,.33,0,.47-.48,.49-.96,.97-1.44,1.45-.14,.14-.33,.14-.48,0-.3-.28-.58-.57-.86-.86-.15-.16-.14-.35,0-.49,.14-.14,.34-.15,.49,0,.19,.19,.37,.39,.58,.61Z"/><path class="cls-1" d="M12.81,18.37c-.41,0-.81,0-1.22,0-.29,0-.43-.13-.43-.36,0-.24,.14-.36,.43-.36,.82,0,1.64,0,2.46,0,.29,0,.43,.13,.43,.36,0,.24-.14,.36-.43,.36-.41,0-.83,0-1.24,0Z"/><path class="cls-1" d="M12.8,9.25c-.41,0-.81,0-1.22,0-.28,0-.43-.13-.42-.37,0-.23,.14-.35,.42-.35,.83,0,1.65,0,2.48,0,.28,0,.43,.13,.42,.37,0,.23-.14,.35-.42,.35-.42,0-.84,0-1.26,0Z"/><path class="cls-1" d="M15.97,18.37c-.18,0-.37,0-.55,0-.23,0-.37-.15-.38-.35,0-.2,.14-.36,.36-.36,.38,0,.77-.01,1.15,0,.21,0,.35,.16,.35,.35,0,.2-.14,.35-.36,.37-.19,.01-.38,0-.57,0Z"/></svg>