<svg width="16" height="16" viewBox="0 0 16 16" fill="none" xmlns="http://www.w3.org/2000/svg">
<path fill-rule="evenodd" clip-rule="evenodd" d="M7.99992 14.6666C11.6818 14.6666 14.6666 11.6819 14.6666 7.99998C14.6666 4.31808 11.6818 1.33331 7.99992 1.33331C4.31802 1.33331 1.33325 4.31808 1.33325 7.99998C1.33325 11.6819 4.31802 14.6666 7.99992 14.6666Z" stroke="#444"/>
<path d="M7.99992 3.33331V4.66665" stroke="#444" stroke-linecap="round"/>
<path d="M7.99992 11.3333V12.6666" stroke="#444" stroke-linecap="round"/>
<path d="M10 5.77774C10 5.77774 9.71429 4.66663 8 4.66663C6.28571 4.66663 6 5.75358 6 6.33329C6 8.63347 10 7.42493 10 9.66663C10 10.2463 9.71429 11.3333 8 11.3333C6.28571 11.3333 6 10.2222 6 10.2222" stroke="#444" stroke-linecap="round"/>
</svg>
