<?xml version="1.0" encoding="UTF-8"?><svg id="Layer_1" xmlns="http://www.w3.org/2000/svg" viewBox="0 0 24 24"><defs><style>.cls-1{fill:#737373;}</style></defs><path class="cls-1" d="M12.83,.81c.07,.03,.13,.06,.2,.09,.25,.12,.39,.3,.4,.58,0,.26,.01,.52,0,.77,0,.19,.05,.26,.25,.26,.6-.01,1.19,0,1.79,0,.56,0,.88,.32,.88,.87,0,.28,.01,.56,0,.84,0,.2,.05,.29,.27,.28,.31-.02,.62,0,.93,0,.64,0,1.15,.39,1.25,1.02,.09,.57,.14,1.15,.2,1.73,.03,.27-.07,.39-.27,.39-.19,0-.29-.12-.32-.37-.06-.53-.12-1.07-.18-1.6-.05-.35-.28-.56-.64-.59-.07,0-.15,0-.22,0-3.56,0-7.12,0-10.68,0-.63,0-.8,.16-.88,.79-.17,1.45-.35,2.9-.52,4.35-.03,.24-.04,.48-.07,.76,.12-.04,.21-.06,.29-.1,2.04-.84,4.08-1.67,6.12-2.52,.28-.12,.51-.11,.79,0,2.03,.85,4.07,1.68,6.1,2.52,.08,.03,.17,.06,.3,.1-.05-.43-.09-.82-.14-1.22-.03-.28-.08-.57-.1-.85-.01-.18,.09-.3,.26-.33,.16-.03,.28,.07,.31,.22,.06,.33,.09,.67,.13,1,.05,.42,.1,.85,.14,1.27,.02,.15,.11,.22,.24,.28,.71,.29,1.42,.58,2.12,.87,.65,.27,.83,.69,.55,1.34-1.04,2.45-2.07,4.91-3.11,7.36-.08,.2-.04,.27,.15,.33,.65,.19,1.29,.17,1.92-.07,.4-.15,.82-.27,1.23-.4,.1-.03,.21-.03,.31-.02,.17,.02,.28,.12,.28,.29,0,.16-.1,.28-.28,.29-.43,.03-.82,.16-1.2,.33-.92,.41-1.86,.42-2.78,0-.91-.42-1.79-.43-2.7,0-.91,.42-1.86,.43-2.78,0-.92-.43-1.82-.43-2.74,0-.92,.43-1.88,.41-2.8-.02-.89-.41-1.75-.41-2.64,0-.96,.44-1.92,.41-2.89,0-.35-.15-.74-.22-1.12-.31-.18-.04-.28-.12-.3-.3-.01-.15,.15-.32,.32-.28,.4,.07,.81,.14,1.19,.29,.49,.19,.97,.36,1.49,.32,.25-.02,.51-.08,.76-.13,.17-.04,.21-.12,.14-.3-.71-1.67-1.42-3.35-2.12-5.02-.34-.81-.69-1.63-1.03-2.44-.23-.55-.05-.99,.5-1.22,.73-.31,1.47-.61,2.2-.91,.16-.06,.23-.16,.25-.32,.16-1.45,.33-2.9,.49-4.36,.04-.36,.09-.73,.13-1.09,.07-.62,.6-1.08,1.22-1.09,.32,0,.65-.01,.97,0,.22,.01,.28-.08,.27-.28-.01-.3,0-.6,0-.91,0-.47,.35-.8,.82-.8,.62,0,1.24,0,1.86,0,.2,0,.26-.07,.25-.26-.01-.23,0-.46,0-.69,0-.38,.14-.57,.51-.71,.03-.01,.06-.04,.09-.06h1.59ZM2.68,14.34c.06,.15,.11,.28,.16,.4,.44,1.05,.89,2.1,1.33,3.15,.4,.94,.8,1.88,1.19,2.83,.05,.11,.08,.22,.25,.17,.87-.23,1.7-.14,2.51,.25,.4,.19,.82,.26,1.26,.25,.47-.01,.91-.17,1.33-.36,.59-.27,1.21-.32,1.83-.22,.29,.05,.58,.12,.84,.24,.93,.44,1.84,.44,2.76,0,.7-.33,1.43-.37,2.18-.19,.23,.05,.32,0,.41-.21,.68-1.63,1.37-3.25,2.06-4.88,.2-.47,.39-.93,.59-1.42-.11-.05-.2-.1-.3-.13-2.94-1.16-5.89-2.31-8.84-3.46-.13-.05-.31-.05-.44,0-1.39,.53-2.78,1.08-4.17,1.63-.73,.29-1.46,.58-2.2,.86-.22,.09-.41,0-.45-.2-.03-.21,.11-.3,.28-.36,2.17-.85,4.34-1.71,6.51-2.55,.15-.06,.36-.05,.5,0,2.96,1.15,5.92,2.31,8.88,3.47,.45,.18,.45,.17,.64-.27,.15-.35,.12-.42-.24-.56-3.09-1.27-6.18-2.54-9.26-3.82-.2-.08-.36-.09-.56,0-2.46,1.02-4.92,2.03-7.39,3.04-.66,.27-1.32,.54-1.98,.82-.23,.1-.27,.21-.18,.44,.05,.12,.1,.23,.15,.35,.05,.15,.13,.18,.28,.12,.37-.15,.74-.29,1.11-.43,.17-.07,.29,.01,.36,.16,.08,.15,0,.27-.12,.36-.06,.04-.13,.07-.2,.09-.36,.14-.72,.29-1.12,.44ZM12.04,4.5c1.16,0,2.33,0,3.49,0,.2,0,.26-.06,.25-.25-.01-.24,0-.49,0-.73,0-.38-.05-.43-.43-.43-1.7,0-3.4,0-5.1,0-.53,0-1.06,0-1.59,0-.27,0-.34,.08-.34,.34,0,.26,.01,.53,0,.79-.01,.21,.06,.28,.27,.27,1.16,0,2.31,0,3.47,0Zm-.02-1.99c.21,0,.43,0,.64,0,.13,0,.19-.04,.19-.18,0-.24,0-.47,0-.71,0-.14-.06-.18-.19-.18-.42,0-.84,0-1.26,0-.14,0-.18,.06-.18,.18,0,.23,0,.46,0,.69,0,.15,.06,.2,.2,.19,.2,0,.4,0,.6,0Z"/><path class="cls-1" d="M1.41,22.18c.32,.09,.65,.14,.94,.28,.96,.47,1.89,.46,2.87,.01,.88-.4,1.79-.39,2.67,0,.71,.33,1.43,.42,2.19,.23,.16-.04,.31-.11,.45-.17,1-.46,2-.46,3.01,0,.82,.37,1.64,.39,2.45,.01,1.03-.47,2.05-.47,3.09,0,.78,.36,1.58,.35,2.37,0,.43-.19,.86-.35,1.33-.35,.23,0,.35,.08,.37,.26,.02,.18-.12,.33-.33,.33-.4,0-.76,.14-1.12,.3-.93,.41-1.87,.44-2.8,.02-.92-.41-1.8-.43-2.72,0-.92,.42-1.87,.42-2.8,0-.89-.41-1.77-.42-2.66,0-.96,.44-1.93,.42-2.88-.01-.85-.38-1.69-.4-2.54-.02-1.02,.46-2.03,.44-3.05-.02-.29-.13-.63-.19-.95-.24-.24-.04-.4-.15-.38-.34,.01-.18,.14-.26,.39-.25,.03,0,.06,0,.09,0v-.05Z"/><path class="cls-1" d="M8.13,5.78c.34,0,.68,0,1.02,0,.34,0,.55,.2,.56,.55,.01,.31,.01,.62,0,.93-.01,.36-.23,.56-.6,.57-.66,0-1.33,0-1.99,0-.37,0-.59-.22-.59-.59,0-.29,0-.59,0-.88,0-.35,.21-.56,.56-.56h.04c.33,0,.66,0,.99,0Zm0,.58c-.14,0-.28,0-.42,0-.68,.02-.58-.15-.59,.63,0,.17,.06,.24,.23,.24,.38,0,.76,0,1.15,0,.71-.01,.62,.15,.62-.68,0-.14-.05-.2-.2-.19-.26,0-.53,0-.79,0Z"/><path class="cls-1" d="M15.96,5.78c.35,0,.69,0,1.04,0,.31,0,.53,.21,.53,.53,0,.32,0,.63,0,.95,0,.34-.22,.56-.55,.56-.69,0-1.39,0-2.08,0-.33,0-.54-.23-.55-.57-.01-.31-.01-.62,0-.93,.01-.34,.23-.54,.57-.54,.35,0,.69,0,1.04,0Zm0,.58h-.42c-.64,0-.64,0-.6,.65,0,.16,.07,.22,.23,.22,.38,0,.76,0,1.15,0,.72,0,.62,.11,.63-.65,0-.16-.05-.23-.22-.22-.26,.01-.51,0-.77,0Z"/><path class="cls-1" d="M12.03,5.78c.35,0,.71,0,1.06,0,.33,0,.52,.2,.52,.53,0,.32,0,.65,0,.97,0,.31-.2,.53-.52,.54-.7,.01-1.4,0-2.1,0-.32,0-.53-.23-.53-.55,0-.32,0-.65,0-.97,0-.32,.19-.51,.51-.52,.35,0,.71,0,1.06,0Zm.01,1.45h0c.11,0,.22,0,.33,0,.79-.02,.64,.13,.66-.68,0-.15-.06-.19-.2-.19-.54,0-1.07,0-1.61,0-.13,0-.19,.05-.18,.18,0,.16,0,.32,0,.48,0,.15,.06,.21,.21,.21,.26,0,.53,0,.79,0Z"/></svg>