<svg width="16" height="16" viewBox="0 0 16 16" fill="none" xmlns="http://www.w3.org/2000/svg">
<circle cx="8" cy="8" r="7.5" stroke="#8A8A8A"/>
<path d="M7.53271 9.13281C7.53271 8.78646 7.57568 8.51042 7.66162 8.30469C7.74756 8.09896 7.91683 7.8737 8.16943 7.62891C8.42464 7.38151 8.5861 7.20573 8.65381 7.10156C8.75797 6.94271 8.81006 6.77083 8.81006 6.58594C8.81006 6.34115 8.74886 6.15495 8.62646 6.02734C8.50667 5.89714 8.32959 5.83203 8.09521 5.83203C7.87126 5.83203 7.69027 5.89583 7.55225 6.02344C7.41683 6.14844 7.34912 6.31901 7.34912 6.53516H6.3999C6.40511 6.07422 6.56136 5.70964 6.86865 5.44141C7.17855 5.17318 7.5874 5.03906 8.09521 5.03906C8.61865 5.03906 9.0262 5.17188 9.31787 5.4375C9.61214 5.70312 9.75928 6.07422 9.75928 6.55078C9.75928 6.97526 9.56136 7.39323 9.16553 7.80469L8.68506 8.27734C8.51318 8.47266 8.42464 8.75781 8.41943 9.13281H7.53271ZM7.46631 10.3477C7.46631 10.194 7.51449 10.0703 7.61084 9.97656C7.70719 9.88021 7.8374 9.83203 8.00146 9.83203C8.16813 9.83203 8.29964 9.88151 8.396 9.98047C8.49235 10.0768 8.54053 10.1992 8.54053 10.3477C8.54053 10.4909 8.49365 10.6107 8.3999 10.707C8.30615 10.8034 8.17334 10.8516 8.00146 10.8516C7.82959 10.8516 7.69678 10.8034 7.60303 10.707C7.51188 10.6107 7.46631 10.4909 7.46631 10.3477Z" fill="#8A8A8A"/>
</svg>
