<svg width="16" height="16" viewBox="0 0 16 16" fill="none" xmlns="http://www.w3.org/2000/svg">
<path d="M8.8 2H5.10307C4.67791 2 4.27016 2.18061 3.96953 2.5021C3.66889 2.82359 3.5 3.25963 3.5 3.71429V12.2857C3.5 12.7404 3.66889 13.1764 3.96953 13.4979C4.27016 13.8194 4.67791 14 5.10307 14H10.7138C11.139 14 11.5467 13.8194 11.8473 13.4979C12.148 13.1764 12.3169 12.7404 12.3169 12.2857V10.6881" stroke="#444" stroke-linecap="round" stroke-linejoin="round"/>
<line x1="6.20435" y1="5.34955" x2="8.96765" y2="5.34955" stroke="#444" stroke-linecap="round"/>
<line x1="6.20435" y1="7.69" x2="7.99994" y2="7.69" stroke="#444" stroke-linecap="round"/>
<path d="M12.2621 6.34779C12.2621 5.28584 13.0989 5.10812 13.3871 4.82068C13.6761 4.5323 13.855 4.13349 13.855 3.69291C13.855 2.81316 13.1418 2.09998 12.2621 2.09998C11.7864 2.09998 11.3594 2.3085 11.0675 2.63914C10.9325 2.79202 10.8264 2.97101 10.7578 3.16756" stroke="#444" stroke-linecap="round"/>
<path fill-rule="evenodd" clip-rule="evenodd" d="M12.2523 8.69982C12.6086 8.69982 12.8975 8.41098 12.8975 8.05468C12.8975 7.69838 12.6086 7.40955 12.2523 7.40955C11.896 7.40955 11.6072 7.69838 11.6072 8.05468C11.6072 8.41098 11.896 8.69982 12.2523 8.69982Z" fill="#444"/>
</svg>
