<!DOCTYPE svg PUBLIC "-//W3C//DTD SVG 1.1//EN" "http://www.w3.org/Graphics/SVG/1.1/DTD/svg11.dtd">

<!-- fill="#007BFF"VG Repo, www.svgrepo.com, Transformed by: SVG Repo Mixer Tools -->
<svg fill="#007BFF" height="800px" width="800px" version="1.1" id="Layer_1" xmlns="http://www.w3.org/2000/svg" xmlns:xlink="http://www.w3.org/1999/xlink" viewBox="0 0 512 512" xml:space="preserve">

<g id="SVGRepo_bgCarrier" stroke-width="0"/>

<g id="SVGRepo_tracerCarrier" stroke-linecap="round" stroke-linejoin="round"/>

<g id="SVGRepo_iconCarrier"> <g> <g> <path d="M490.75,469.3h-448v-448c0-11.7-9.6-21.3-21.4-21.3S0.05,9.6,0.05,21.3v469.3c0,11.8,9.5,21.4,21.3,21.4h469.3 c11.8,0,21.3-9.6,21.3-21.3C511.95,479,502.55,469.3,490.75,469.3z"/> </g> </g> <g> <g> <path d="M448.05,0h-85.3c-11.8,0-21.3,9.5-21.3,21.3V128h-42.7v-21.3c0-11.8-9.5-21.3-21.3-21.3h-85.4c-11.8,0-21.3,9.5-21.3,21.3 v106.7h-64c-11.8,0-21.3,9.5-21.3,21.3v170.7c-0.1,11.7,9.5,21.3,21.3,21.3h85.3h85.3h85.3h85.4c11.8,0,21.3-9.6,21.3-21.3v-384 C469.35,9.5,459.85,0,448.05,0z M170.75,384h-42.7V256h42.7V384z M341.45,384h-42.7V170.7h42.7V384z"/> </g> </g> </g>

</svg>