<svg width="15" height="14" viewBox="0 0 15 14" fill="none" xmlns="http://www.w3.org/2000/svg">
<path fill-rule="evenodd" clip-rule="evenodd" d="M1.625 0.875C0.796573 0.875 0.125 1.54657 0.125 2.375V8.5C0.125 9.32843 0.796573 10 1.625 10H1.66942C1.48255 10.3103 1.37506 10.6738 1.37506 11.0625C1.37506 12.2016 2.29847 13.125 3.43756 13.125C4.57665 13.125 5.50006 12.2016 5.50006 11.0625C5.50006 10.6738 5.39257 10.3103 5.2057 10H9.79436C9.60749 10.3103 9.5 10.6738 9.5 11.0625C9.5 12.2016 10.4234 13.125 11.5625 13.125C12.7016 13.125 13.625 12.2016 13.625 11.0625C13.625 10.6739 13.5175 10.3103 13.3306 10H13.375C14.2034 10 14.875 9.32844 14.875 8.50002V7.20344C14.875 6.5404 14.6116 5.90452 14.1428 5.43568L13.4393 4.73225C12.9705 4.26341 12.3346 4.00002 11.6716 4.00002H11.25H10.5V2.375C10.5 1.54657 9.82843 0.875 9 0.875H1.625ZM11.5541 10H11.5709C12.1538 10.0045 12.625 10.4785 12.625 11.0625C12.625 11.6493 12.1493 12.125 11.5625 12.125C10.9757 12.125 10.5 11.6493 10.5 11.0625C10.5 10.4785 10.9712 10.0045 11.5541 10ZM11.5742 9.00002H13.375C13.6511 9.00002 13.875 8.77616 13.875 8.50002V7.20344C13.875 6.80562 13.717 6.42409 13.4357 6.14278L12.7322 5.43936C12.4509 5.15805 12.0694 5.00002 11.6716 5.00002H11.25H10.5V8.50002C10.5 8.77616 10.7239 9.00002 11 9.00002H11.5508C11.5547 9 11.5586 8.99998 11.5625 8.99998C11.5664 8.99998 11.5703 9 11.5742 9.00002ZM3.43756 8.99998L3.44558 9H9.5V8.50002V4.50002V2.375C9.5 2.09886 9.27614 1.875 9 1.875H1.625C1.34886 1.875 1.125 2.09886 1.125 2.375V8.5C1.125 8.77614 1.34886 9 1.625 9H3.42954L3.43756 8.99998ZM2.37506 11.0625C2.37506 10.4776 2.84765 10.0031 3.43181 10H3.44332C4.02747 10.0031 4.50006 10.4776 4.50006 11.0625C4.50006 11.6493 4.02436 12.125 3.43756 12.125C2.85076 12.125 2.37506 11.6493 2.37506 11.0625Z" fill="#fff"/>
</svg>
