<?xml version="1.0" encoding="UTF-8"?><svg id="Layer_1" xmlns="http://www.w3.org/2000/svg" viewBox="0 0 24 24"><defs><style>.cls-1{fill:#737373;}</style></defs><g id="Group_1059" transform="translate(5927 699.225)"><g id="Group_1058" transform="translate(-5927 -699.224)"><path id="Path_868" class="cls-1" d="M8.38,15.63c-.46,0-.9-.13-1.29-.37-.73-.44-1.17-1.24-1.14-2.09,0-1.6-.02-3.19,0-4.79,.02-1.43,1.04-2.44,2.47-2.44,2.39,0,4.78,0,7.17,0,1.43,0,2.46,1,2.48,2.44,.02,1.6,.02,3.21,0,4.81-.02,1.44-1.06,2.43-2.5,2.44-.95,0-1.9,0-2.85,0-.14,0-.28,.05-.37,.15-.65,.66-1.31,1.31-1.97,1.96-.3,.32-.77,.42-1.18,.26-.42-.13-.72-.49-.78-.92-.02-.17-.03-.34-.03-.52,0-.31,0-.61,0-.93Zm1.13,1.26l.06,.03c.06-.06,.12-.11,.18-.17,.66-.66,1.33-1.31,1.99-1.98,.18-.19,.43-.29,.69-.28,1.02,.01,2.04,0,3.06,0,.94,0,1.44-.51,1.44-1.44,0-1.52,0-3.03,0-4.55,0-.94-.5-1.43-1.45-1.43h-6.97c-.94,0-1.44,.5-1.44,1.44,0,1.52,0,3.03,0,4.55,0,.1,0,.2,.01,.31,.05,.56,.48,1.01,1.03,1.1,.23,.03,.45,.04,.68,.03,.52,0,.71,.19,.71,.71,0,.56,0,1.13,0,1.69h0Z"/><path id="Path_869" class="cls-1" d="M23.83,12.71c.02-.91-.48-1.76-1.29-2.17-.1-.05-.17-.16-.17-.27-.05-.59-.13-1.17-.24-1.75C20.78,2.48,14.35-1.05,8.52,1.05,4.58,2.46,1.87,6.08,1.64,10.25c0,.12-.07,.24-.18,.29-.71,.39-1.2,.99-1.24,1.8-.07,1.11-.08,2.23,0,3.34,.08,1.13,.91,1.94,2,2.14,1.11,.2,1.97-.51,1.98-1.63,0-1.43,0-2.86,0-4.29,.05-.79-.5-1.49-1.28-1.63-.04-.01-.09-.03-.13-.04C3.09,5.19,7.41,1.33,12.46,1.59c5.12,.24,8.61,4.47,8.75,8.66-.02,0-.04,.02-.06,.02-.93,.25-1.33,.77-1.33,1.73,0,1.38,0,2.75,0,4.13,0,.17,0,.35,.04,.51,.18,.71,.67,1.09,1.39,1.22,0,.42,0,.82,0,1.22-.03,1.1-.85,2.01-1.94,2.16-.65,.05-1.3,.06-1.95,.04-.06,0-.13-.09-.16-.16-.25-.58-.82-.96-1.45-.97-.65-.03-1.31-.03-1.96,0-.92,.04-1.64,.81-1.61,1.73,.01,.94,.77,1.69,1.71,1.68,.58,0,1.16,0,1.74,0,.66,.01,1.27-.37,1.55-.97,.04-.11,.15-.18,.26-.17,.52,0,1.04,.01,1.56,0,1.67-.01,3.09-1.24,3.34-2.89,.05-.55,.07-1.11,.05-1.67-.01-.12,.06-.24,.17-.29,.8-.42,1.3-1.26,1.28-2.16,.01-.9,.01-1.79,0-2.69Zm-20.77-.85v2.19c0,.71,0,1.41,0,2.12,0,.42-.18,.58-.61,.54-.64-.07-1.12-.6-1.14-1.24-.02-.95-.02-1.9,0-2.85,.02-.68,.57-1.22,1.24-1.24,.24-.04,.47,.13,.5,.37,0,.04,0,.07,0,.11Zm12.57,10.56c-.29,0-.58,0-.87,0-.28,0-.57,0-.85,0-.31,.02-.58-.23-.6-.54v-.03c-.01-.31,.22-.57,.53-.58,.01,0,.03,0,.04,0,.59-.01,1.18-.01,1.77,0,.3,0,.56,.24,.56,.54,0,.01,0,.02,0,.03,0,.31-.24,.57-.56,.57-.01,0-.02,0-.03,0h0Zm7.07-6.94c-.02,.66-.54,1.19-1.2,1.24-.37,.02-.54-.14-.55-.51v-2.17c0-.71,0-1.41,0-2.12,0-.42,.19-.58,.61-.54,.64,.08,1.12,.61,1.14,1.25,.02,.95,.02,1.9,0,2.85h0Z"/><path id="Path_870" class="cls-1" d="M12,10.03c.46,0,.83,.38,.83,.84-.01,.46-.39,.83-.85,.83-.45-.01-.81-.38-.82-.83,0-.46,.38-.84,.84-.84Z"/><path id="Path_871" class="cls-1" d="M10.08,10.87c0,.46-.37,.84-.84,.84h0c-.46,0-.83-.39-.83-.85,0-.45,.38-.82,.83-.82,.46,0,.84,.37,.84,.83h0Z"/><path id="Path_872" class="cls-1" d="M15.58,10.87c0,.46-.38,.83-.84,.83-.46,0-.83-.39-.82-.85h0c0-.45,.37-.82,.83-.82,.46,0,.84,.38,.84,.84Z"/></g></g></svg>