<svg width="15" height="15" viewBox="0 0 15 15" fill="none" xmlns="http://www.w3.org/2000/svg">
<circle cx="7.5" cy="7.5" r="7.5" fill="#007BFF"/>
<path d="M7.06201 8.56287C7.06201 8.23816 7.10229 7.97937 7.18286 7.7865C7.26343 7.59363 7.42212 7.38245 7.65894 7.15295C7.89819 6.92102 8.04956 6.75623 8.11304 6.65857C8.21069 6.50964 8.25952 6.34851 8.25952 6.17517C8.25952 5.94568 8.20215 5.77112 8.0874 5.65149C7.9751 5.52942 7.80908 5.46838 7.58936 5.46838C7.37939 5.46838 7.20972 5.5282 7.08032 5.64783C6.95337 5.76501 6.88989 5.92493 6.88989 6.12756H6C6.00488 5.69543 6.15137 5.35364 6.43945 5.10217C6.72998 4.85071 7.11328 4.72498 7.58936 4.72498C8.08008 4.72498 8.46216 4.84949 8.7356 5.09851C9.01147 5.34753 9.14941 5.69543 9.14941 6.14221C9.14941 6.54016 8.96387 6.93201 8.59277 7.31775L8.14233 7.76086C7.9812 7.94397 7.89819 8.2113 7.89331 8.56287H7.06201ZM6.99976 9.70178C6.99976 9.55774 7.04492 9.44177 7.13525 9.35388C7.22559 9.26355 7.34766 9.21838 7.50146 9.21838C7.65771 9.21838 7.78101 9.26477 7.87134 9.35754C7.96167 9.44788 8.00684 9.56262 8.00684 9.70178C8.00684 9.83606 7.96289 9.94836 7.875 10.0387C7.78711 10.129 7.6626 10.1742 7.50146 10.1742C7.34033 10.1742 7.21582 10.129 7.12793 10.0387C7.04248 9.94836 6.99976 9.83606 6.99976 9.70178Z" fill="#fff"/>
</svg>