<?xml version="1.0" encoding="UTF-8"?><svg id="Layer_1" xmlns="http://www.w3.org/2000/svg" viewBox="0 0 24 24"><defs><style>.cls-1{fill:#737373;}</style></defs><path class="cls-1" d="M3.8,23.48c-.19-.04-.39-.08-.58-.13-1.48-.41-2.47-1.77-2.39-3.29,.07-1.5,1.2-2.77,2.68-3.04,1.63-.29,3.25,.73,3.68,2.33,.05,.17,.11,.22,.29,.22,1.97,0,3.95,0,5.92,0,.17,0,.24-.05,.31-.2,.38-.78,1.01-1.21,1.88-1.21,.87,0,1.5,.42,1.88,1.2,.08,.16,.16,.21,.33,.21,.68-.01,1.36,0,2.03,0,1.33-.02,2.47-1.11,2.52-2.41,.05-1.43-.95-2.6-2.35-2.71-.61-.04-1.22-.02-1.83-.03-1.08,0-2.16,0-3.24,0-.17,0-.26,.04-.34,.21-.38,.79-1.02,1.22-1.9,1.21-.87,0-1.5-.44-1.87-1.22-.08-.16-.16-.2-.32-.2-1.18,0-2.35,.01-3.53,0-1.33-.02-2.4-.91-2.7-2.21-.37-1.63,.85-3.27,2.52-3.37,.13,0,.27,0,.4,0,3.4,0,6.81,0,10.21,0h.37c-.1-.13-.16-.21-.22-.28-.57-.69-1.08-1.42-1.51-2.21-1.19-2.17,.08-4.46,1.78-5.29,2.44-1.19,5.36,.32,5.78,3,.02,.11,.04,.22,.06,.33v.54s-.03,.05-.04,.08c-.09,.62-.34,1.17-.65,1.7-.59,1.03-1.34,1.92-2.12,2.81-.39,.45-.85,.66-1.45,.65-1.21-.02-2.41,0-3.62,0-2.9,0-5.79,0-8.69,0-.51,0-.94,.16-1.26,.56-.37,.47-.45,1-.19,1.55,.27,.59,.77,.87,1.41,.88,1.15,0,2.31,0,3.46,0,.17,0,.22-.07,.29-.21,.38-.77,.99-1.2,1.85-1.21,.87-.01,1.51,.4,1.89,1.18,.1,.2,.21,.24,.41,.24,1.6,0,3.2,0,4.8,0,1.83,0,3.35,1.22,3.78,2.99,.05,.19,.08,.39,.12,.59v.63c-.02,.06-.04,.11-.05,.17-.24,1.91-1.87,3.38-3.8,3.39-.68,0-1.37,0-2.05,0-.16,0-.25,.04-.32,.2-.37,.79-1.01,1.21-1.87,1.22-.87,0-1.52-.43-1.89-1.22-.07-.14-.14-.2-.29-.2-1.98,0-3.96,0-5.94,0-.16,0-.23,.04-.28,.2-.33,1.14-1.07,1.88-2.19,2.25-.2,.07-.41,.1-.62,.15h-.58ZM19.62,1.93c-1.83-.05-3.45,2.04-2.37,3.86,.63,1.06,1.38,2.01,2.2,2.91,.13,.14,.24,.12,.35-.01,.3-.34,.6-.68,.89-1.03,.56-.68,1.09-1.38,1.43-2.2,.11-.25,.2-.54,.21-.81,.04-1.48-1.21-2.72-2.72-2.72ZM4.05,22.15c1.07,0,1.94-.86,1.94-1.92,0-1.07-.85-1.94-1.91-1.95-1.08,0-1.95,.86-1.95,1.93,0,1.07,.86,1.93,1.92,1.94Zm10.77-1.93c0,.42,.35,.77,.77,.76,.41,0,.75-.35,.76-.76,0-.41-.35-.77-.76-.77-.42,0-.76,.35-.76,.77Zm-2.09-7.21c-.43,0-.76,.31-.77,.73,0,.44,.31,.78,.74,.78,.43,0,.77-.32,.77-.75,0-.42-.32-.75-.74-.76Z"/><path class="cls-1" d="M19.63,4.05c.36,0,.65,.3,.65,.68,0,.33-.3,.62-.66,.62-.36,0-.66-.31-.66-.68,0-.33,.32-.62,.66-.62Z"/></svg>