<svg width="17" height="14" viewBox="0 0 17 14" fill="#444" xmlns="http://www.w3.org/2000/svg">
<path fill-rule="evenodd" clip-rule="evenodd" d="M8.47302 0.3125C8.74917 0.3125 8.97302 0.536358 8.97302 0.8125V1.34066H9.89516C10.9997 1.34066 11.8952 2.23609 11.8952 3.34066V5.28334L12.8809 5.64273C13.6033 5.90612 14.0096 6.67312 13.8216 7.41871L12.6965 11.881C13.1176 12.0786 13.6255 12.0406 14.0185 11.7539L14.2563 11.5804C14.5986 11.3306 15.0114 11.196 15.4352 11.196H15.5051C15.7813 11.196 16.0051 11.4198 16.0051 11.696C16.0051 11.9721 15.7813 12.196 15.5051 12.196H15.4352C15.2233 12.196 15.0169 12.2633 14.8458 12.3882L14.608 12.5617C13.7079 13.2184 12.4668 13.1368 11.6605 12.3677L11.5338 12.2469C11.0939 11.8272 10.3999 11.8338 9.96804 12.2617C9.1353 13.0868 7.79082 13.0766 6.96615 12.2485C6.54026 11.8208 5.85299 11.8006 5.40589 12.201L5.23545 12.3537C4.36755 13.1311 3.06369 13.1634 2.15832 12.43L2.12791 12.4054C1.96065 12.2699 1.75192 12.196 1.53666 12.196H1.48755C1.21141 12.196 0.987549 11.9721 0.987549 11.696C0.987549 11.4198 1.21141 11.196 1.48755 11.196H1.53666C1.98108 11.196 2.41201 11.3486 2.75735 11.6283L2.78776 11.653C3.22286 12.0054 3.81702 12.0522 4.29361 11.8003L3.17564 7.42225C2.98495 6.6755 3.3912 5.90576 4.11532 5.64182L5.06016 5.29743V3.34066C5.06016 2.23609 5.95559 1.34066 7.06016 1.34066H7.97302V0.8125C7.97302 0.536358 8.19688 0.3125 8.47302 0.3125ZM5.16232 11.1605C5.97439 10.7302 7.00025 10.8656 7.67472 11.5428C7.76425 11.6327 7.86525 11.7044 7.97302 11.7578V5.32544C7.86086 5.3495 7.74995 5.38136 7.64111 5.42103L4.45777 6.58135C4.2164 6.66933 4.08099 6.92591 4.14455 7.17483L5.16232 11.1605ZM8.97302 11.7593C9.07811 11.7074 9.17664 11.6381 9.26423 11.5513C9.96091 10.8611 11.0184 10.7508 11.8303 11.2263L12.8519 7.17423C12.9146 6.9257 12.7792 6.67003 12.5384 6.58224L9.35359 5.4211C9.22904 5.37569 9.10178 5.34051 8.97302 5.31555V11.7593ZM10.8952 4.91876V3.34066C10.8952 2.78837 10.4474 2.34066 9.89516 2.34066H7.06016C6.50788 2.34066 6.06016 2.78837 6.06016 3.34066V4.93293L7.29865 4.4815C8.0729 4.19929 8.9219 4.19932 9.69613 4.4816L10.8952 4.91876Z" fill="#444"/>
</svg>
