<svg xmlns="http://www.w3.org/2000/svg" width="20" height="20" viewBox="0 0 20 20">
  <path id="dashboard" d="M-2479.85-6a2.383,2.383,0,0,1-2.35-2.35v-4.5a2.383,2.383,0,0,1,2.35-2.35h4.5a2.383,2.383,0,0,1,2.35,2.35v4.5A2.383,2.383,0,0,1-2475.35-6Zm-.35-6.85v4.5a.389.389,0,0,0,.35.35h4.5a.39.39,0,0,0,.35-.35v-4.5a.39.39,0,0,0-.35-.35h-4.5A.389.389,0,0,0-2480.2-12.85ZM-2490.65-6A2.383,2.383,0,0,1-2493-8.35v-4.5a2.383,2.383,0,0,1,2.35-2.35h4.5a2.383,2.383,0,0,1,2.35,2.35v4.5A2.383,2.383,0,0,1-2486.15-6Zm-.35-6.85v4.5a.389.389,0,0,0,.35.35h4.5a.389.389,0,0,0,.35-.35v-4.5a.389.389,0,0,0-.35-.35h-4.5A.389.389,0,0,0-2491-12.85Zm11.15-3.95a2.383,2.383,0,0,1-2.35-2.35v-4.5a2.383,2.383,0,0,1,2.35-2.35h4.5a2.384,2.384,0,0,1,2.35,2.35v4.5a2.383,2.383,0,0,1-2.35,2.35Zm-.35-6.85v4.5a.389.389,0,0,0,.35.35h4.5a.389.389,0,0,0,.35-.35v-4.5a.39.39,0,0,0-.35-.35h-4.5A.389.389,0,0,0-2480.2-23.65Zm-10.45,6.85a2.383,2.383,0,0,1-2.35-2.35v-4.5a2.383,2.383,0,0,1,2.35-2.35h4.5a2.383,2.383,0,0,1,2.35,2.35v4.5a2.383,2.383,0,0,1-2.35,2.35Zm-.35-6.85v4.5a.389.389,0,0,0,.35.35h4.5a.389.389,0,0,0,.35-.35v-4.5a.389.389,0,0,0-.35-.35h-4.5A.389.389,0,0,0-2491-23.65Z" transform="translate(2493 26)" fill="#77797a"/>
</svg>
