<svg width="22" height="16" viewBox="0 0 22 16" fill="none" xmlns="http://www.w3.org/2000/svg">
<path d="M2.75 0.5C1.51625 0.5 0.5 1.51625 0.5 2.75V13.25C0.5 14.4838 1.51625 15.5 2.75 15.5H19.25C20.4837 15.5 21.5 14.4838 21.5 13.25V2.75C21.5 1.51625 20.4837 0.5 19.25 0.5H2.75ZM2.75 2H19.25C19.6745 2 20 2.3255 20 2.75V13.25C20 13.6745 19.6745 14 19.25 14H2.75C2.3255 14 2 13.6745 2 13.25V2.75C2 2.3255 2.3255 2 2.75 2ZM7.25 3.5C5.6 3.5 4.25 4.85 4.25 6.5C4.25 7.33475 4.60775 8.08775 5.16425 8.633C4.65374 8.9775 4.23522 9.4416 3.94515 9.98488C3.65508 10.5282 3.50226 11.1341 3.5 11.75H5C5 10.499 5.999 9.5 7.25 9.5C8.501 9.5 9.5 10.499 9.5 11.75H11C10.9977 11.1341 10.8449 10.5282 10.5549 9.98488C10.2648 9.4416 9.84626 8.9775 9.33575 8.633C9.89225 8.08775 10.25 7.3355 10.25 6.5C10.25 4.85 8.9 3.5 7.25 3.5ZM12.5 4.25V5.75H18.5V4.25H12.5ZM7.25 5C8.08775 5 8.75 5.66225 8.75 6.5C8.75 7.33775 8.08775 8 7.25 8C6.41225 8 5.75 7.33775 5.75 6.5C5.75 5.66225 6.41225 5 7.25 5ZM12.5 7.25V8.75H18.5V7.25H12.5ZM12.5 10.25V11.75H16.25V10.25H12.5Z" fill="#0d2130"/>
</svg>
