<svg width="20" height="20" viewBox="0 0 20 20" fill="none" xmlns="http://www.w3.org/2000/svg">
<path d="M18.582 0.0410825L10.3283 2.27681C10.1185 2.333 9.66306 2.33238 9.45393 2.27369L1.41286 0.0454528C0.695173 -0.152148 0 0.365422 0 1.10432V16.2855C0 16.9117 0.474784 17.5105 1.07914 17.6788L9.12052 19.9073C9.33562 19.9669 9.61251 20 9.8997 20C10.0967 20 10.3876 19.9847 10.6551 19.9117L18.9085 17.6759C19.5144 17.512 19.9914 16.9146 19.9914 16.2859V1.10432C19.9917 0.366047 19.2965 -0.153397 18.5819 0.0410825H18.582ZM9.3715 18.6811L1.39317 16.4753C1.33293 16.4588 1.24864 16.3486 1.24864 16.2858V1.30127L9.12052 3.4774C9.19668 3.49863 9.28222 3.51517 9.3715 3.52922V18.6811ZM18.743 16.2859C18.743 16.3474 18.6419 16.4547 18.5819 16.4713L10.6202 18.6277V3.48924C10.6317 3.48643 10.6436 3.48487 10.6551 3.48175L18.7427 1.29409V16.2858H18.743L18.743 16.2859ZM12.5322 7.1575C12.5884 7.1575 12.6455 7.15034 12.7017 7.1344L17.0708 5.90478C17.4029 5.81082 17.5965 5.46648 17.5031 5.13465C17.4098 4.80281 17.063 4.61021 16.733 4.7023L12.3639 5.93194C12.0318 6.0259 11.8382 6.37022 11.9316 6.70205C12.009 6.97769 12.2597 7.1575 12.5322 7.1575ZM12.5322 10.9035C12.5884 10.9035 12.6456 10.8963 12.7018 10.8804L17.0708 9.65076C17.403 9.5568 17.5965 9.21246 17.5032 8.88063C17.4098 8.5488 17.063 8.35619 16.733 8.44828L12.364 9.67792C12.0318 9.77188 11.8383 10.1162 11.9316 10.4477C12.009 10.7234 12.2597 10.9035 12.5322 10.9035ZM12.5322 14.6495C12.5884 14.6495 12.6456 14.6423 12.7018 14.6264L17.0708 13.3967C17.403 13.3028 17.5965 12.9584 17.5032 12.6266C17.4098 12.2948 17.063 12.1022 16.7331 12.1943L12.364 13.4239C12.0319 13.5179 11.8383 13.8622 11.9317 14.194C12.0091 14.4694 12.2597 14.6495 12.5322 14.6495ZM7.7059 5.93194L3.33687 4.7023C3.00691 4.61021 2.6601 4.80281 2.56674 5.13465C2.47338 5.46648 2.66663 5.8108 2.99909 5.90478L7.36818 7.1344C7.42334 7.14988 7.48037 7.15765 7.53766 7.1575C7.81018 7.1575 8.06083 6.97771 8.13825 6.70207C8.23159 6.37053 8.03836 6.0259 7.7059 5.93194ZM7.70594 9.6779L3.33691 8.44826C3.00695 8.35617 2.66012 8.54878 2.56678 8.88061C2.47344 9.21244 2.66667 9.55676 2.99913 9.65074L7.3682 10.8804C7.42336 10.8958 7.4804 10.9036 7.5377 10.9035C7.81022 10.9035 8.06087 10.7237 8.13829 10.448C8.23163 10.1165 8.03839 9.77186 7.70594 9.6779ZM7.70598 13.4239L3.33695 12.1942C3.00699 12.1021 2.66016 12.2947 2.56682 12.6266C2.47348 12.9584 2.66671 13.3027 2.99917 13.3967L7.36823 14.6263C7.4234 14.6418 7.48044 14.6496 7.53774 14.6494C7.81026 14.6494 8.06091 14.4696 8.13833 14.194C8.23166 13.8622 8.03843 13.5178 7.70598 13.4239Z" fill="#0d2130"/>
</svg>
