<svg width="24" height="24" viewBox="0 0 24 24" fill="none" xmlns="http://www.w3.org/2000/svg">
<path d="M21.621 3.75C21.2082 3.74991 20.8048 3.87374 20.4632 4.10547C20.1215 4.3372 19.8573 4.66616 19.7048 5.04975L18.75 7.5H18V7.3515C18.0002 7.27271 17.9849 7.19465 17.9549 7.12178C17.9249 7.04891 17.8809 6.98265 17.8253 6.9268C17.7698 6.87094 17.7037 6.82658 17.631 6.79625C17.5583 6.76591 17.4803 6.7502 17.4015 6.75H15.75V5.85525C15.8348 5.77936 15.8945 5.67953 15.9212 5.56896C15.948 5.45839 15.9406 5.34229 15.8999 5.23604C15.8593 5.12978 15.7873 5.03837 15.6936 4.9739C15.5999 4.90944 15.4888 4.87495 15.375 4.875C15.2612 4.87495 15.1501 4.90944 15.0564 4.9739C14.9627 5.03837 14.8907 5.12978 14.8501 5.23604C14.8094 5.34229 14.802 5.45839 14.8288 5.56896C14.8555 5.67953 14.9152 5.77936 15 5.85525V6.75H13.356C13.2772 6.7502 13.1992 6.76591 13.1265 6.79625C13.0538 6.82658 12.9878 6.87094 12.9322 6.9268C12.8766 6.98265 12.8326 7.04891 12.8026 7.12178C12.7726 7.19465 12.7573 7.27271 12.7575 7.3515V7.5H11.4983C11.343 7.50442 11.1951 7.56738 11.0843 7.67625L10.5082 8.25H22.5V4.2255C22.5001 4.16297 22.4878 4.10103 22.4639 4.04325C22.44 3.98546 22.4049 3.93297 22.3607 3.88879C22.3164 3.8446 22.2639 3.8096 22.2061 3.78578C22.1482 3.76196 22.0863 3.7498 22.0238 3.75H21.621ZM9 9.75L9.75375 9H22.5V10.5H7.52775L7.93275 10.1025C8.16525 9.8775 8.48175 9.75 8.805 9.75H9ZM22.5 11.25H6.76425L6 12H3.44025C2.71875 12 2.157 12.636 2.26275 13.3395L2.703 16.4228C2.82675 17.8613 3.462 19.1565 4.419 20.1773C4.43502 20.1855 4.45155 20.1928 4.4685 20.199C4.53896 20.2201 4.61257 20.2287 4.686 20.2245C4.821 20.2245 4.8735 20.2088 4.89825 20.1998C4.93875 20.1848 4.98075 20.163 5.12175 20.0798L5.13075 20.0738C5.51775 19.8428 6.10425 19.5 7.116 19.5C8.1285 19.5 8.715 19.8428 9.10125 20.073L9.1095 20.0775C9.2505 20.1615 9.29325 20.184 9.3345 20.199C9.4052 20.2202 9.47907 20.2288 9.55275 20.2245C9.62618 20.2287 9.69979 20.2201 9.77025 20.199C9.813 20.184 9.85575 20.1615 9.996 20.0775L10.005 20.073C10.3912 19.8435 10.9777 19.5 11.9895 19.5C13.002 19.5 13.5878 19.8428 13.974 20.073L13.983 20.0775C14.0505 20.118 14.133 20.172 14.208 20.199C14.2785 20.2201 14.3521 20.2287 14.4255 20.2245C14.4992 20.2288 14.573 20.2202 14.6437 20.199C14.6858 20.184 14.7285 20.1615 14.8688 20.0775L14.8778 20.073C15.264 19.8435 15.8505 19.5 16.863 19.5C17.8755 19.5 18.4635 19.8413 18.852 20.0715L18.861 20.0775C19.0028 20.1608 19.0455 20.184 19.0882 20.199C19.1587 20.2201 19.2323 20.2287 19.3057 20.2245C19.3805 20.2288 19.4554 20.2199 19.527 20.1983C19.6074 20.1645 19.6845 20.1233 19.7572 20.0753L19.7648 20.0708C20.1525 19.842 20.7397 19.5 21.75 19.5H22.5V18H6.3375C6.15 18 6 17.835 6 17.625C6 17.415 6.14925 17.25 6.3375 17.25H22.5V11.25ZM4.875 14.25C4.665 14.25 4.5 14.085 4.5 13.875C4.5 13.6725 4.665 13.5 4.875 13.5C5.085 13.5 5.25 13.665 5.25 13.875C5.25 14.085 5.085 14.25 4.875 14.25ZM7.755 13.5H8.0025C8.145 13.5 8.2575 13.6125 8.2575 13.755V14.745C8.2575 14.8875 8.145 15 8.0025 15H7.755C7.6125 15 7.5 14.8875 7.5 14.745V13.755C7.5 13.6125 7.6125 13.5 7.755 13.5ZM9 13.755C9 13.6125 9.1125 13.5 9.255 13.5H9.5025C9.645 13.5 9.7575 13.6125 9.7575 13.755V14.745C9.7575 14.8875 9.645 15 9.5025 15H9.255C9.1125 15 9 14.8875 9 14.745V13.755ZM10.7625 13.5H11.01C11.1525 13.5 11.265 13.6125 11.265 13.755V14.745C11.265 14.8875 11.1525 15 11.01 15H10.7625C10.62 15 10.5075 14.8875 10.5075 14.745V13.755C10.5075 13.6125 10.62 13.5 10.7625 13.5ZM12 13.755C12 13.6125 12.1125 13.5 12.255 13.5H12.5025C12.645 13.5 12.7575 13.6125 12.7575 13.755V14.745C12.7575 14.8875 12.645 15 12.5025 15H12.255C12.1125 15 12 14.8875 12 14.745V13.755ZM16.005 13.5H16.2525C16.395 13.5 16.5075 13.6125 16.5075 13.755V14.745C16.5075 14.8875 16.395 15 16.2525 15H16.005C15.8625 15 15.75 14.8875 15.75 14.745V13.755C15.75 13.6125 15.8625 13.5 16.005 13.5ZM17.25 13.755C17.25 13.6125 17.3625 13.5 17.505 13.5H17.7525C17.895 13.5 18.0075 13.6125 18.0075 13.755V14.745C18.0075 14.8875 17.895 15 17.7525 15H17.505C17.3625 15 17.25 14.8875 17.25 14.745V13.755ZM19.005 13.5H19.2525C19.395 13.5 19.5075 13.6125 19.5075 13.755V14.745C19.5075 14.8875 19.395 15 19.2525 15H19.005C18.8625 15 18.75 14.8875 18.75 14.745V13.755C18.75 13.6125 18.8625 13.5 19.005 13.5ZM20.505 13.5H20.7525C20.895 13.5 21.0075 13.6125 21.0075 13.755V14.745C21.0075 14.8875 20.895 15 20.7525 15H20.505C20.3625 15 20.25 14.8875 20.25 14.745V13.755C20.25 13.6125 20.3625 13.5 20.505 13.5ZM5.19375 20.8898C5.03213 20.9516 4.85968 20.9802 4.68675 20.9738C4.28325 20.9738 4.119 20.8763 3.86025 20.7225L3.85125 20.7173C3.50625 20.5125 3.06075 20.25 2.25 20.25H1.5V23.25H22.5V20.25H21.75C20.94 20.25 20.493 20.5118 20.1465 20.7165L20.139 20.721C19.8765 20.8755 19.7108 20.9738 19.3065 20.9738C18.9038 20.9738 18.7388 20.8763 18.4792 20.7225L18.4695 20.7165C18.1222 20.511 17.676 20.25 16.863 20.25C16.0522 20.25 15.6067 20.5125 15.261 20.7173L15.2528 20.7225C14.994 20.8763 14.8298 20.9738 14.4263 20.9738C14.0228 20.9738 13.8585 20.8763 13.5997 20.7225L13.5907 20.7173C13.2458 20.5118 12.8003 20.25 11.9895 20.25C11.1795 20.25 10.7332 20.5125 10.3883 20.7173L10.3792 20.7225C10.1205 20.8763 9.95625 20.9738 9.55275 20.9738C9.15 20.9738 8.985 20.8763 8.72625 20.7225L8.718 20.7173C8.373 20.5118 7.92675 20.25 7.116 20.25C6.306 20.25 5.85975 20.5125 5.51475 20.718L5.50575 20.7233C5.3925 20.7908 5.298 20.847 5.19375 20.8898Z" fill="#0d2130"/>
</svg>
