<svg width="22" height="18" viewBox="0 0 22 18" fill="none" xmlns="http://www.w3.org/2000/svg">
<path d="M20 0.75H2C1.6023 0.750397 1.221 0.90856 0.939778 1.18978C0.65856 1.471 0.500397 1.8523 0.5 2.25V15.75C0.500397 16.1477 0.65856 16.529 0.939778 16.8102C1.221 17.0914 1.6023 17.2496 2 17.25H20C20.3977 17.2496 20.779 17.0914 21.0602 16.8102C21.3414 16.529 21.4996 16.1477 21.5 15.75V2.25C21.4996 1.8523 21.3414 1.471 21.0602 1.18978C20.779 0.90856 20.3977 0.750397 20 0.75ZM2 2.25H10.25V15.75H2V2.25ZM11.75 15.75V2.25H20V15.75H11.75Z" fill="#0d2130"/>
</svg>
