<?xml version="1.0" encoding="utf-8"?>
<!-- Generator: Adobe Illustrator 26.0.2, SVG Export Plug-In . SVG Version: 6.00 Build 0)  -->
<svg version="1.0" id="Layer_1" xmlns="http://www.w3.org/2000/svg" xmlns:xlink="http://www.w3.org/1999/xlink" x="0px" y="0px"
	 viewBox="0 0 720.39 224" style="enable-background:new 0 0 720.39 224;" xml:space="preserve">
<style type="text/css">
	.st0{fill:url(#SVGID_1_);}
	.st1{fill:url(#SVGID_00000064332106471955056570000009959585249772184201_);}
	.st2{fill:url(#SVGID_00000141433143332019011970000011334667294531470230_);}
	.st3{fill:url(#SVGID_00000168075504346460405400000004518668692227614605_);}
	.st4{fill:url(#SVGID_00000109718428551189665970000002672121724314794642_);}
	.st5{fill:url(#SVGID_00000065049918030021781340000002119313149799160464_);}
	.st6{fill:#005CAB;}
</style>
<g>
	<g>
		<linearGradient id="SVGID_1_" gradientUnits="userSpaceOnUse" x1="110.9404" y1="97.4226" x2="164.7726" y2="97.4226">
			<stop  offset="0" style="stop-color:#FEC00F"/>
			<stop  offset="0.1867" style="stop-color:#FEBB12"/>
			<stop  offset="0.4679" style="stop-color:#FBAB18"/>
			<stop  offset="0.8071" style="stop-color:#F7931E"/>
			<stop  offset="1" style="stop-color:#F5841F"/>
		</linearGradient>
		<path class="st0" d="M144.72,127.88l0.89-0.22c21.58-5.55,23.78-32.52,12.35-58.08c-1.76-4.19-2.49-2.69-2.49-2.69
			s1.95,18.21-7.84,25.13c-9.77,6.92-20.49-2.21-31.63-0.65c-6.8,1.42-6.32,10.72-1.12,20
			C114.88,111.36,127.22,131.05,144.72,127.88L144.72,127.88z"/>
		
			<linearGradient id="SVGID_00000176761598264494549240000015784057571493507989_" gradientUnits="userSpaceOnUse" x1="66.9924" y1="202.1159" x2="66.9924" y2="82.4084">
			<stop  offset="0" style="stop-color:#F5841F"/>
			<stop  offset="0.1929" style="stop-color:#F7931E"/>
			<stop  offset="0.5321" style="stop-color:#FBAB18"/>
			<stop  offset="0.8133" style="stop-color:#FEBB12"/>
			<stop  offset="1" style="stop-color:#FEC00F"/>
		</linearGradient>
		<path style="fill:url(#SVGID_00000176761598264494549240000015784057571493507989_);" d="M97.64,89.66
			c-6.6-10.35-39.93-13.84-59.14,18.86c-19.23,32.69-3.83,71.6,18.34,85.56c18.32,11.56,38.29,8.43,45.41,4.25
			c-0.07,0.04-0.14,0.08-0.23,0.12c0.08-0.04,0.16-0.08,0.23-0.12c0.61-0.36,1.12-0.71,1.52-1.08c1.01-1.11,0.11-1.97-0.41-2.34
			c-2.15-1.18-6.51-4.07-13.33-10.85c-4.6-3.66-19.27-29.51-2.68-60.18C89.28,119.72,104.48,100.84,97.64,89.66L97.64,89.66z"/>
		
			<linearGradient id="SVGID_00000045618635045317589770000009176748897903070908_" gradientUnits="userSpaceOnUse" x1="33.947" y1="48.9033" x2="121.0613" y2="48.9033">
			<stop  offset="0" style="stop-color:#F5841F"/>
			<stop  offset="0.1929" style="stop-color:#F7931E"/>
			<stop  offset="0.5321" style="stop-color:#FBAB18"/>
			<stop  offset="0.8133" style="stop-color:#FEBB12"/>
			<stop  offset="1" style="stop-color:#FEC00F"/>
		</linearGradient>
		<path style="fill:url(#SVGID_00000045618635045317589770000009176748897903070908_);" d="M41.14,32.7
			c-1.33-0.04-12.22,2.36-4.38-4.54C52.35,15.38,71,14.3,89.75,21.47c18.75,7.15,39.26,30.6,28.19,51.95
			c-3.3,6.37-14.98,14.88-22.31-5.36C88.3,47.81,72.98,30.91,41.14,32.7L41.14,32.7L41.14,32.7z"/>
		
			<linearGradient id="SVGID_00000178188661793164063240000009130332859391262098_" gradientUnits="userSpaceOnUse" x1="138.0283" y1="132.0938" x2="138.0283" y2="76.1282">
			<stop  offset="0" style="stop-color:#001140"/>
			<stop  offset="0.1038" style="stop-color:#001947"/>
			<stop  offset="0.2763" style="stop-color:#002A58"/>
			<stop  offset="0.4962" style="stop-color:#004374"/>
			<stop  offset="0.7394" style="stop-color:#00649D"/>
		</linearGradient>
		<path style="fill:url(#SVGID_00000178188661793164063240000009130332859391262098_);" d="M136.72,132.08l0.92,0.01
			c22.05,0,30.83-25.29,26.19-52.6c-0.66-4.46-1.72-3.2-1.72-3.2s-2.64,17.93-13.71,22.15c-11.08,4.22-19.09-7.16-30.15-8.43
			c-6.88-0.32-8.7,8.71-6.02,18.88C112.22,108.89,119.18,130.8,136.72,132.08L136.72,132.08z"/>
		
			<linearGradient id="SVGID_00000101800171412699054420000011182414619707663803_" gradientUnits="userSpaceOnUse" x1="65.1702" y1="201.4553" x2="65.1702" y2="81.4975">
			<stop  offset="0" style="stop-color:#001140"/>
			<stop  offset="0.0796" style="stop-color:#001947"/>
			<stop  offset="0.212" style="stop-color:#002A58"/>
			<stop  offset="0.3808" style="stop-color:#004374"/>
			<stop  offset="0.5674" style="stop-color:#00649D"/>
			<stop  offset="1" style="stop-color:#042B65"/>
		</linearGradient>
		<path style="fill:url(#SVGID_00000101800171412699054420000011182414619707663803_);" d="M105.59,94.76
			c-3.63-11.73-34.83-23.89-62.01,2.54c-27.17,26.46-22.6,68.05-4.92,87.38c14.62,15.97,34.7,18.24,42.69,16.09
			c-0.1,0.02-0.18,0.04-0.28,0.05c0.1-0.01,0.18-0.03,0.28-0.05c0.67-0.19,1.25-0.4,1.74-0.65c1.27-0.79,0.63-1.87,0.22-2.35
			c-1.76-1.7-5.21-5.67-10-14.01c-3.45-4.74-10.79-33.54,13.32-58.74C89.59,121.53,109.24,107.34,105.59,94.76L105.59,94.76z"/>
		
			<linearGradient id="SVGID_00000096031513040783632740000012697207764471175326_" gradientUnits="userSpaceOnUse" x1="84.8895" y1="85.264" x2="84.8895" y2="12.7431">
			<stop  offset="0" style="stop-color:#001140"/>
			<stop  offset="0.0796" style="stop-color:#001947"/>
			<stop  offset="0.212" style="stop-color:#002A58"/>
			<stop  offset="0.3808" style="stop-color:#004374"/>
			<stop  offset="0.5674" style="stop-color:#00649D"/>
			<stop  offset="1" style="stop-color:#042B65"/>
		</linearGradient>
		<path style="fill:url(#SVGID_00000096031513040783632740000012697207764471175326_);" d="M52.16,23.37
			c-1.3-0.35-12.45-0.43-3.27-5.41c18.07-8.96,36.47-5.83,53.15,5.32c16.67,11.17,31.42,38.6,15.85,56.94
			c-4.63,5.48-17.92,11.17-20.55-10.2C94.73,48.64,83.59,28.74,52.16,23.37L52.16,23.37L52.16,23.37z"/>
	</g>
	<g>
		<g>
			<path class="st6" d="M231.55,50.95c18.15,0.1,32.27,5.22,42.36,15.35c10.79,10.89,16.19,23.9,16.19,39.03
				c0,15.28-5.5,28.44-16.49,39.48c-9.88,9.88-23.9,14.88-42.05,14.98h-22.99V50.95H231.55z M222.24,63.05v84.71h9.23
				c13.51,0,24.13-3.73,31.84-11.19c8.52-8.52,12.78-18.93,12.78-31.24c0-12.2-4.26-22.61-12.78-31.24
				c-7.71-7.36-18.33-11.04-31.84-11.04H222.24z"/>
			<path class="st6" d="M317.7,50.95v108.84h-13.69V50.95H317.7z"/>
			<path class="st6" d="M378.66,50.95l39.41,108.84h-14.22l-16.41-45.23h-29.57l-16.71,45.23h-14.29l39.94-108.84H378.66z
				 M383.12,102.76l-10.44-28.89l-10.51,28.89H383.12z"/>
			<path class="st6" d="M487.12,97.69c7.06,7.06,10.59,15.58,10.59,25.56c0,9.88-3.66,18.48-10.97,25.79
				c-5.9,5.95-13.36,9.53-22.39,10.74h-37.59V50.95h34.57c7.11,0,13.06,2.4,17.85,7.19c4.79,4.79,7.19,10.41,7.19,16.87
				c0,6.5-2.34,12.08-7.03,16.71C480.99,92.12,483.59,94.11,487.12,97.69z M440.45,62.74v23.9h21.93c2.97-0.3,5.27-1.29,6.88-2.95
				c2.22-2.17,3.33-5.07,3.33-8.7c0-3.53-1.16-6.45-3.48-8.77c-2.32-2.32-4.94-3.48-7.87-3.48H440.45z M460.27,147.91
				c6.3,0,11.81-2.36,16.53-7.07c4.71-4.71,7.07-10.58,7.07-17.59c0-7.01-2.36-12.88-7.07-17.62c-4.71-4.74-10.22-7.11-16.53-7.11
				h-19.82v49.39H460.27z"/>
			<path class="st6" d="M603.11,65.92c10.97,10.99,16.45,24.08,16.45,39.25c0,15.28-5.48,28.4-16.45,39.37
				c-10.97,10.97-24.37,16.45-40.2,16.45c-15.78,0-29.16-5.48-40.12-16.45c-10.97-10.97-16.45-24.09-16.45-39.37
				c0-15.18,5.48-28.26,16.45-39.25c10.97-10.99,24.34-16.49,40.12-16.49C578.74,49.43,592.14,54.93,603.11,65.92z M562.91,61.38
				c-11.6,0-21.63,4.25-30.1,12.75c-8.47,8.5-12.71,18.85-12.71,31.05c0,12.3,4.24,22.69,12.71,31.16
				c8.47,8.47,18.5,12.71,30.1,12.71c11.65,0,21.71-4.24,30.18-12.71c8.47-8.47,12.71-18.86,12.71-31.16
				c0-12.2-4.24-22.55-12.71-31.05C584.62,65.63,574.56,61.38,562.91,61.38z"/>
			<path class="st6" d="M662.9,102.53c-7.82-2.57-14.09-6.23-18.83-10.97c-4.74-4.74-7.11-10.46-7.11-17.17
				c0-6.55,2.46-12.32,7.37-17.28c4.92-4.97,11.03-7.45,18.34-7.45c7.21,0,13.39,2.55,18.53,7.64c2.67,2.62,4.76,6.3,6.28,11.04
				l-12.25,4.76c-1.51-4.08-2.87-6.73-4.08-7.94c-2.47-2.52-5.29-3.78-8.47-3.78c-3.13,0-5.91,1.22-8.36,3.67
				c-2.45,2.45-3.67,5.56-3.67,9.34c0,3.73,1.26,6.91,3.78,9.53c2.62,2.52,6.2,4.84,10.74,6.96c8.67,2.83,15.93,7.16,21.78,13.01
				c6.71,6.66,10.06,14.52,10.06,23.6c0,9.08-3.32,16.93-9.95,23.56c-6.63,6.63-14.76,9.95-24.39,9.95
				c-9.68,0-17.88-3.4-24.58-10.21c-5.25-5.19-8.47-11.92-9.68-20.19l13.16-4.76c0.81,7.92,3.05,13.69,6.73,17.32
				c4.03,4.03,8.82,6.05,14.37,6.05c5.6,0,10.48-2.08,14.64-6.24c4.16-4.16,6.24-9.31,6.24-15.47c0-6.15-2.04-11.27-6.13-15.35
				C673.29,108.05,668.44,104.85,662.9,102.53z"/>
		</g>
	</g>
</g>
</svg>
