<?xml version="1.0" encoding="UTF-8"?>
<svg id="Layer_1" xmlns="http://www.w3.org/2000/svg" viewBox="0 0 24 24">
  <defs>
    <style>.cls-1{fill:#000000;}</style>
  </defs>
  <path id="Path_846" class="cls-1" d="M7.46,22.34c.49,0,.97,0,1.45,0,.41,0,.74,.35,.73,.76,0,.08-.02,.16-.04,.23-.1,.29-.38,.48-.68,.47-1.49,0-2.97,0-4.46,0-.38,.01-.69-.28-.7-.66,0-.02,0-.04,0-.06,0-.4,.31-.73,.71-.74h0c.49,0,.97,0,1.5,0V1.17c0-.18,.02-.36,.08-.52,.25-.53,.7-.58,1.24-.27,1.45,.84,2.9,1.7,4.35,2.55,1.81,1.07,3.63,2.13,5.44,3.2,.39,.17,.57,.63,.4,1.03h0c-.11,.18-.26,.33-.44,.44-2.61,1.53-5.22,3.06-7.84,4.58-.53,.31-1.05,.62-1.59,.92-.11,.05-.18,.17-.16,.29v8.74c0,.06,.02,.12,.02,.21Z"/>
</svg>
