<svg xmlns="http://www.w3.org/2000/svg" xmlns:xlink="http://www.w3.org/1999/xlink" width="150.515" height="42.371" viewBox="0 0 150.515 42.371">
  <defs>
    <linearGradient id="linear-gradient" x1="0.029" y1="-0.03" x2="0.923" y2="-0.03" gradientUnits="objectBoundingBox">
      <stop offset="0" stop-color="#ffbc31"/>
      <stop offset="1" stop-color="#ff7f24"/>
    </linearGradient>
    <linearGradient id="linear-gradient-2" x1="-0.023" y1="0.973" x2="-0.023" y2="0.051" gradientUnits="objectBoundingBox">
      <stop offset="0" stop-color="#ff7f24"/>
      <stop offset="1" stop-color="#ffbc31"/>
    </linearGradient>
    <linearGradient id="linear-gradient-3" x1="0.05" y1="-0.027" x2="0.92" y2="-0.027" xlink:href="#linear-gradient-2"/>
    <linearGradient id="linear-gradient-4" x1="-0.034" y1="1" x2="-0.034" y2="0.019" gradientUnits="objectBoundingBox">
      <stop offset="0" stop-color="#001831"/>
      <stop offset="0.74" stop-color="#00679f"/>
    </linearGradient>
    <linearGradient id="linear-gradient-5" x1="-0.021" y1="0.989" x2="-0.021" y2="0.081" gradientUnits="objectBoundingBox">
      <stop offset="0" stop-color="#001831"/>
      <stop offset="0.567" stop-color="#00679f"/>
      <stop offset="1" stop-color="#092b5f"/>
    </linearGradient>
    <linearGradient id="linear-gradient-6" x1="-0.021" y1="0.926" x2="-0.021" y2="0.046" xlink:href="#linear-gradient-5"/>
  </defs>
  <g id="logo" transform="translate(-887.952 -147)">
    <g id="_Group_" data-name="&lt;Group&gt;" transform="translate(887.952 147)">
      <path id="_Path_" data-name="&lt;Path&gt;" d="M222.762,143.018c-1.165-2.076-1.271-4.156.251-4.475,2.492-.347,4.891,1.695,7.077.147q2.19-1.549,1.754-5.623.161-.336.556.6c2.557,5.72,2.066,11.754-2.763,13l-.2.05Q225.522,147.425,222.762,143.018Z" transform="translate(-202.494 -120.953)" fill="url(#linear-gradient)"/>
      <path id="_Path_2" data-name="&lt;Path&gt;" d="M72.406,174.094c-3.713,6.862-.431,12.647.6,13.465a14.363,14.363,0,0,0,2.983,2.428.324.324,0,0,1,.093.525,2.071,2.071,0,0,1-.341.241l-.05.028.05-.028c-1.592.936-6.06,1.638-10.159-.95-4.96-3.123-8.4-11.83-4.1-19.144s11.756-6.537,13.233-4.22C76.241,168.941,72.839,173.166,72.406,174.094Z" transform="translate(-58.301 -149.229)" fill="url(#linear-gradient-2)"/>
      <path id="_Path_3" data-name="&lt;Path&gt;" d="M69.507,37.6c-.3-.01-2.734.527-.979-1.017,3.488-2.859,7.66-3.1,11.855-1.5s8.784,6.845,6.307,11.625c-.738,1.425-3.353,3.33-4.992-1.2S76.632,37.2,69.507,37.6Z" transform="translate(-65.739 -33.135)" fill="url(#linear-gradient-3)"/>
      <path id="_Path_4" data-name="&lt;Path&gt;" d="M222.325,159.385c-.6-2.275-.192-4.3,1.346-4.224,2.476.284,4.269,2.833,6.747,1.887q2.479-.943,3.069-4.955c.159-.189.287.05.385.715,1.038,6.112-.925,11.77-5.859,11.77l-.2,0Q223.883,164.288,222.325,159.385Z" transform="translate(-202.654 -137.874)" fill="url(#linear-gradient-4)"/>
      <path id="_Path_5" data-name="&lt;Path&gt;" d="M62.542,172.733c-5.394,5.637-3.752,12.082-2.98,13.143A14.5,14.5,0,0,0,61.8,189.01a.319.319,0,0,1-.049.526,2.263,2.263,0,0,1-.388.144c-.024,0-.041.009-.064.011.022,0,.04-.008.064-.011-1.788.481-6.281-.027-9.552-3.6-3.957-4.325-4.978-13.632,1.1-19.551s13.062-3.193,13.874-.569C67.6,168.775,63.208,171.95,62.542,172.733Z" transform="translate(-48.598 -147.611)" fill="url(#linear-gradient-5)"/>
      <path id="_Path_6" data-name="&lt;Path&gt;" d="M92.124,27.864c-.291-.077-2.787-.1-.732-1.21,4.043-2,8.16-1.306,11.892,1.19s7.031,8.638,3.546,12.741c-1.036,1.227-4.011,2.5-4.6-2.281S99.157,29.067,92.124,27.864Z" transform="translate(-85.891 -25.488)" fill="url(#linear-gradient-6)"/>
    </g>
    <path id="_Compound_Path_" data-name="&lt;Compound Path&gt;" d="M422.254,101.89q6.093.034,9.477,3.436a12.379,12.379,0,0,1-.067,17.566q-3.318,3.316-9.41,3.351H417.11V101.89Zm-2.081,2.707v18.954h2.064a9.815,9.815,0,0,0,7.125-2.5,9.971,9.971,0,0,0,0-13.978,9.9,9.9,0,0,0-7.125-2.471Z" transform="translate(512.068 53.657)" fill="#0057af"/>
    <path id="_Compound_Path_2" data-name="&lt;Compound Path&gt;" d="M611.073,101.89v24.352H608.01V101.89Z" transform="translate(342.524 53.657)" fill="#0057af"/>
    <path id="_Compound_Path_3" data-name="&lt;Compound Path&gt;" d="M665.292,101.89l8.817,24.352h-3.182l-3.672-10.12h-6.617l-3.74,10.12h-3.2l8.935-24.352Zm1,11.592-2.335-6.464-2.353,6.464Z" transform="translate(301.946 53.657)" fill="#0057af"/>
    <path id="_Compound_Path_4" data-name="&lt;Compound Path&gt;" d="M867.034,112.349a7.794,7.794,0,0,1,2.369,5.72,7.894,7.894,0,0,1-2.455,5.77,8.4,8.4,0,0,1-5.009,2.4h-8.41V101.89h7.734a5.422,5.422,0,0,1,3.994,1.608,5.167,5.167,0,0,1,1.608,3.775,5.074,5.074,0,0,1-1.574,3.74A4.891,4.891,0,0,1,867.034,112.349Zm-10.441-7.819v5.347H861.5a2.4,2.4,0,0,0,1.539-.66,2.593,2.593,0,0,0,.745-1.945,2.662,2.662,0,0,0-.779-1.963,2.43,2.43,0,0,0-1.76-.779Zm4.433,19.055a5.066,5.066,0,0,0,3.7-1.582,5.692,5.692,0,0,0,0-7.878,5.054,5.054,0,0,0-3.7-1.591h-4.433v11.051Z" transform="translate(124.471 53.657)" fill="#0057af"/>
    <path id="_Compound_Path_5" data-name="&lt;Compound Path&gt;" d="M1034.313,102.558a12.348,12.348,0,0,1,0,17.592,12.809,12.809,0,0,1-17.971,0,12.348,12.348,0,0,1,0-17.592,12.79,12.79,0,0,1,17.971,0Zm-8.995-1.015a9.188,9.188,0,0,0-6.735,2.852,9.941,9.941,0,0,0,0,13.919,9.42,9.42,0,0,0,13.487,0,9.938,9.938,0,0,0,0-13.919A9.208,9.208,0,0,0,1025.318,101.544Z" transform="translate(-16.856 56.339)" fill="#0057af"/>
    <path id="_Compound_Path_6" data-name="&lt;Compound Path&gt;" d="M1264.536,111.149a10.475,10.475,0,0,1-4.213-2.454,5.233,5.233,0,0,1-1.591-3.841,5.333,5.333,0,0,1,1.65-3.867,5.542,5.542,0,0,1,4.1-1.667,5.679,5.679,0,0,1,4.146,1.709,5.9,5.9,0,0,1,1.405,2.47l-2.742,1.066a5.464,5.464,0,0,0-.913-1.777,2.545,2.545,0,0,0-3.766-.026,2.829,2.829,0,0,0-.821,2.091,2.965,2.965,0,0,0,.846,2.132,8.861,8.861,0,0,0,2.4,1.556,12.032,12.032,0,0,1,4.874,2.911,7.338,7.338,0,0,1,.026,10.552,7.784,7.784,0,0,1-10.958-.059,7.729,7.729,0,0,1-2.166-4.519l2.945-1.066a6.182,6.182,0,0,0,1.506,3.875,4.393,4.393,0,0,0,3.215,1.354,4.482,4.482,0,0,0,3.274-1.4,4.989,4.989,0,0,0,.026-6.9A10.133,10.133,0,0,0,1264.536,111.149Z" transform="translate(-233.702 55.94)" fill="#0057af"/>
  </g>
</svg>
