<svg width="109" height="82" viewBox="0 0 109 82" fill="none" xmlns="http://www.w3.org/2000/svg">
<path d="M72.5681 2.02856C73.8706 3.26249 77.6272 5.77149 82.2339 5.93601C87.9922 6.14166 92.1053 6.14166 93.5449 8.19822C94.6966 9.84346 94.8474 12.3113 94.7789 13.3396" stroke="#15354E" stroke-width="0.5" stroke-linecap="round" stroke-linejoin="round"/>
<path d="M28.1465 81.0001L1 59.2006V11.6943L28.1465 20.5375V81.0001Z" fill="#ECF5FC" stroke="#15354E" stroke-width="0.5" stroke-linecap="round" stroke-linejoin="round"/>
<path d="M26.0899 22.7995L2.64526 14.9846V57.3496L26.0899 75.4472V22.7995Z" fill="#ECF5FC" stroke="#15354E" stroke-width="0.5" stroke-linecap="round" stroke-linejoin="round"/>
<path d="M107.941 44.3932L28.1465 80.9998V20.9485L1 11.6941L79.9715 1L107.941 5.1131V44.3932Z" fill="#ECF5FC"/>
<path d="M107.941 5.1131V44.3932L28.1465 80.9998V20.9485M107.941 5.1131L79.9715 1L1 11.6941L28.1465 20.9485M107.941 5.1131L106.09 5.52441V11.0771L31.0256 27.3238V20.5372L28.1465 20.9485" stroke="#15354E" stroke-width="0.5" stroke-linecap="round" stroke-linejoin="round"/>
<path d="M31.2312 75.8587V31.0259L106.09 12.9282V42.9539L31.2312 75.8587Z" fill="#ECF5FC" stroke="#15354E" stroke-width="0.5" stroke-linecap="round" stroke-linejoin="round"/>
<path d="M17.4524 9.43213C19.2347 11.2145 25.0616 14.6969 34.1105 14.3678C43.3649 14.3678 45.2158 16.4244 45.2158 20.3318C45.2158 22.9642 45.2158 24.0336 45.2158 24.2393" stroke="#15354E" stroke-width="0.5" stroke-linecap="round" stroke-linejoin="round"/>
<path d="M35.3447 7.16968C37.0082 8.853 42.4467 12.142 50.8922 11.8312C59.5298 11.8312 61.1848 13.2553 62.0799 16.8355C62.6968 19.3033 62.4912 20.343 62.4912 20.5373" stroke="#15354E" stroke-width="0.5" stroke-linecap="round" stroke-linejoin="round"/>
<path d="M54.8818 4.29077C55.0189 5.5247 57.4483 8.81518 66.1929 8.81518C71.7455 8.81518 72.7944 9.09282 73.5964 9.22649C74.8304 9.43215 78.5322 10.7895 78.5322 13.7509C78.5322 15.5607 78.5322 16.6986 78.5322 17.0414" stroke="#15354E" stroke-width="0.5" stroke-linecap="round" stroke-linejoin="round"/>
<path d="M34.9331 30.2031V74.2133" stroke="#15354E" stroke-width="0.5" stroke-linecap="round" stroke-linejoin="round"/>
<path d="M38.4292 29.3804V72.5679" stroke="#15354E" stroke-width="0.5" stroke-linecap="round" stroke-linejoin="round"/>
<path d="M42.1311 28.5579L42.1311 70.9228" stroke="#15354E" stroke-width="0.5" stroke-linecap="round" stroke-linejoin="round"/>
<path d="M45.4214 27.7354V69.689" stroke="#15354E" stroke-width="0.5" stroke-linecap="round" stroke-linejoin="round"/>
<path d="M49.1235 26.9124L49.1235 68.0434" stroke="#15354E" stroke-width="0.5" stroke-linecap="round" stroke-linejoin="round"/>
<path d="M52.4141 25.6785V66.3982" stroke="#15354E" stroke-width="0.5" stroke-linecap="round" stroke-linejoin="round"/>
<path d="M56.1157 24.856L56.1157 65.1643" stroke="#15354E" stroke-width="0.5" stroke-linecap="round" stroke-linejoin="round"/>
<path d="M59.406 24.0332V63.519" stroke="#15354E" stroke-width="0.5" stroke-linecap="round" stroke-linejoin="round"/>
<path d="M63.1079 23.2107L63.1079 61.8738" stroke="#15354E" stroke-width="0.5" stroke-linecap="round" stroke-linejoin="round"/>
<path d="M66.3982 22.3882V60.64" stroke="#15354E" stroke-width="0.5" stroke-linecap="round" stroke-linejoin="round"/>
<path d="M70.1003 21.5654L70.1003 58.9946" stroke="#15354E" stroke-width="0.5" stroke-linecap="round" stroke-linejoin="round"/>
<path d="M73.3909 20.7429V57.3495" stroke="#15354E" stroke-width="0.5" stroke-linecap="round" stroke-linejoin="round"/>
<path d="M77.0925 19.9202L77.0925 55.7041" stroke="#15354E" stroke-width="0.5" stroke-linecap="round" stroke-linejoin="round"/>
<path d="M80.3828 19.0974V54.4701" stroke="#15354E" stroke-width="0.5" stroke-linecap="round" stroke-linejoin="round"/>
<path d="M84.0842 18.2749L84.0842 52.825" stroke="#15354E" stroke-width="0.5" stroke-linecap="round" stroke-linejoin="round"/>
<path d="M87.375 17.4524V51.1798" stroke="#15354E" stroke-width="0.5" stroke-linecap="round" stroke-linejoin="round"/>
<path d="M90.6655 16.6296V49.9458" stroke="#15354E" stroke-width="0.5" stroke-linecap="round" stroke-linejoin="round"/>
<path d="M94.3677 15.8071V48.3006" stroke="#15354E" stroke-width="0.5" stroke-linecap="round" stroke-linejoin="round"/>
<path d="M97.658 14.9844V46.6553" stroke="#15354E" stroke-width="0.5" stroke-linecap="round" stroke-linejoin="round"/>
<path d="M101.36 14.1621V45.0104" stroke="#15354E" stroke-width="0.5" stroke-linecap="round" stroke-linejoin="round"/>
<path d="M103.828 13.3394V44.1876" stroke="#15354E" stroke-width="0.5" stroke-linecap="round" stroke-linejoin="round"/>
</svg>
