<svg width="108" height="82" viewBox="0 0 108 82" fill="none" xmlns="http://www.w3.org/2000/svg">
<path d="M1.26611 12.1628L28.3962 20.6269L107.313 5.29339L80.3258 1L1.26611 12.1628Z" fill="#ECF5FC" stroke="#15354E" stroke-width="0.5"/>
<path d="M28.6419 81L28.3965 20.6266L107.313 5.29309V44.3425L28.6419 81Z" fill="#ECF5FC" stroke="#15354E" stroke-width="0.5"/>
<path d="M1 58.8586L1.40889 12.2446L28.3959 20.627V80.7344L1 58.8586Z" fill="#ECF5FC" stroke="#15354E" stroke-width="0.5"/>
<path d="M105.677 8.15564L31.6675 23.2847V75.4188L105.677 42.7072V8.15564Z" fill="#ECF5FC" stroke="#15354E" stroke-width="0.5"/>
<path d="M26.5558 22.8755L2.59448 14.4932L2.22656 57.0182L26.5558 75.4184V22.8755Z" fill="#ECF5FC" stroke="#15354E" stroke-width="0.5"/>
<path d="M11.6313 17.7646V63.9697" stroke="#15354E" stroke-width="0.5"/>
<path d="M14.4937 18.7869V66.0142" stroke="#15354E" stroke-width="0.5"/>
<path d="M17.3555 19.6046V68.263" stroke="#15354E" stroke-width="0.5"/>
<path d="M36.3691 22.4667V73.374" stroke="#15354E" stroke-width="0.5"/>
<path d="M41.0713 21.4445V71.1251" stroke="#15354E" stroke-width="0.5"/>
<path d="M45.1606 20.6272V69.2856" stroke="#15354E" stroke-width="0.5"/>
<path d="M49.2495 19.6046V67.6497" stroke="#15354E" stroke-width="0.5"/>
<path d="M53.3389 18.9913V65.8097" stroke="#15354E" stroke-width="0.5"/>
<path d="M57.4268 17.9694V63.97" stroke="#15354E" stroke-width="0.5"/>
<path d="M61.5161 17.1514V62.1297" stroke="#15354E" stroke-width="0.5"/>
<path d="M65.6055 16.3334V60.494" stroke="#15354E" stroke-width="0.5"/>
<path d="M69.6943 15.5159V58.4498" stroke="#15354E" stroke-width="0.5"/>
<path d="M73.7837 14.6978V56.8139" stroke="#15354E" stroke-width="0.5"/>
<path d="M77.8721 13.6755V54.9739" stroke="#15354E" stroke-width="0.5"/>
<path d="M81.9614 13.0619V53.1335" stroke="#15354E" stroke-width="0.5"/>
<path d="M86.0498 12.2446V51.294" stroke="#15354E" stroke-width="0.5"/>
<path d="M90.1392 11.4271V49.4543" stroke="#15354E" stroke-width="0.5"/>
<path d="M94.228 10.6091V47.6141" stroke="#15354E" stroke-width="0.5"/>
<path d="M98.3169 9.79114V45.9783" stroke="#15354E" stroke-width="0.5"/>
<path d="M102.406 8.7688V44.1382" stroke="#15354E" stroke-width="0.5"/>
<g opacity="0.67">
<path d="M78.8207 41.8855L77.6725 41.2231L78.2025 40.9139C78.3791 40.7815 78.4674 40.5606 78.3349 40.384C78.2025 40.2073 77.9816 40.119 77.805 40.2515L76.8775 40.7815L75.9501 40.2515L77.6725 39.2799C77.8491 39.1474 77.9375 38.9266 77.805 38.7499C77.6725 38.5733 77.4517 38.4849 77.275 38.6174L75.1993 39.8098L74.2719 39.2799L77.0984 37.6458C77.2309 37.5575 77.3192 37.425 77.3192 37.2925C77.3192 37.16 77.2309 37.0275 77.0984 36.9392L74.2277 35.3051L75.1551 34.7752L77.2308 35.9676C77.275 36.0118 77.3633 36.0118 77.4517 36.0118C77.5842 36.0118 77.7166 35.9234 77.805 35.7909C77.9375 35.6143 77.8491 35.3493 77.6725 35.261L75.9943 34.2894L76.9217 33.7594L77.8491 34.2894C77.8933 34.3335 77.9816 34.3335 78.07 34.3335C78.2024 34.3335 78.3349 34.2452 78.4233 34.1127C78.5116 33.9361 78.4674 33.6711 78.2908 33.5828L77.7608 33.2736L78.9091 32.6111C79.0857 32.4787 79.1741 32.2578 79.0416 32.0812C78.9532 31.9045 78.6883 31.8162 78.5116 31.9487L77.3633 32.6111V31.9929C77.3633 31.772 77.1867 31.5954 76.9659 31.5954C76.745 31.5954 76.5684 31.772 76.5684 31.9929V33.097L75.6409 33.6269V31.6837C75.6409 31.4629 75.4643 31.2862 75.2435 31.2862C75.0227 31.2862 74.846 31.4629 74.846 31.6837V34.1127L73.9186 34.6427V31.3746C73.9186 31.2421 73.8302 31.1096 73.6977 31.0213C73.5653 30.9329 73.4328 30.9329 73.3003 31.0213L70.4738 32.6553V31.5954L72.5495 30.403C72.7261 30.3146 72.8145 30.0496 72.682 29.873C72.5937 29.6963 72.3287 29.608 72.152 29.7405L70.4738 30.7121V29.6522L71.4012 29.1222C71.5779 29.0339 71.6662 28.7689 71.5337 28.5922C71.4012 28.4156 71.1804 28.3273 71.0037 28.4598L70.4738 28.7689V27.444C70.4738 27.2232 70.2971 27.0465 70.0763 27.0465C69.8555 27.0465 69.6788 27.2232 69.6788 27.444V28.7689L69.1489 28.4598C68.9722 28.3273 68.7072 28.4156 68.6189 28.5922C68.5306 28.7689 68.5747 29.0339 68.7514 29.1222L69.6788 29.6522V30.7121L68.0006 29.7405C67.824 29.6522 67.559 29.6963 67.4706 29.873C67.3382 30.0496 67.4265 30.3146 67.6031 30.403L69.6788 31.5954V32.6553L66.8524 31.0213C66.7199 30.9329 66.5874 30.9329 66.4549 31.0213C66.3224 31.1096 66.2341 31.2421 66.2341 31.3746V34.6427L65.3066 34.1127V31.6837C65.3066 31.4629 65.13 31.2862 64.9091 31.2862C64.6883 31.2862 64.5117 31.4629 64.5117 31.6837V33.6269L63.5842 33.097V31.9929C63.5842 31.772 63.4076 31.5954 63.1868 31.5954C62.9659 31.5954 62.7893 31.772 62.7893 31.9929V32.6111L61.641 31.9487C61.4644 31.8162 61.1994 31.9045 61.1111 32.0812C61.0227 32.2578 61.0669 32.5228 61.2435 32.6111L62.3918 33.2736L61.8618 33.5828C61.6852 33.7152 61.5969 33.9361 61.7294 34.1127C61.8177 34.2452 61.9502 34.3335 62.0827 34.3335C62.171 34.3335 62.2152 34.3335 62.3035 34.2894L63.2309 33.7594L64.1584 34.2894L62.4801 35.261C62.3035 35.3935 62.2151 35.6143 62.3476 35.7909C62.436 35.9234 62.5685 36.0118 62.701 36.0118C62.7893 36.0118 62.8335 36.0118 62.9218 35.9676L64.9975 34.7752L65.9249 35.3051L63.0543 36.9392C62.9218 37.0275 62.8334 37.16 62.8334 37.2925C62.8334 37.425 62.9218 37.5575 63.0543 37.6458L65.8807 39.2799L64.9533 39.8098L62.8776 38.6174C62.701 38.4849 62.436 38.5733 62.3476 38.7499C62.2593 38.9266 62.3035 39.1916 62.4801 39.2799L64.1584 40.2515L63.2309 40.7815L62.3035 40.2515C62.1268 40.119 61.8618 40.2073 61.7735 40.384C61.641 40.5606 61.7293 40.8256 61.906 40.9139L62.436 41.2231L61.2877 41.8855C61.1111 42.018 61.0227 42.2389 61.1552 42.4155C61.2436 42.548 61.376 42.6363 61.5085 42.6363C61.5969 42.6363 61.641 42.6363 61.7294 42.5922L62.6568 41.9297V42.548C62.6568 42.7688 62.8334 42.9455 63.0543 42.9455C63.2751 42.9455 63.4517 42.7688 63.4517 42.548V41.4439L64.3792 40.9139V42.8572C64.3792 43.078 64.5558 43.2546 64.7767 43.2546C64.9975 43.2546 65.1741 43.078 65.1741 42.8572V40.4281L66.1016 39.8982V43.2546C66.1016 43.3871 66.1899 43.5196 66.3224 43.6079C66.4549 43.6963 66.5874 43.6963 66.7199 43.6079L69.5463 41.9739V43.0338L67.4706 44.2262C67.294 44.3146 67.2057 44.5795 67.3382 44.7562C67.4265 44.8887 67.559 44.977 67.6915 44.977C67.7798 44.977 67.824 44.977 67.9123 44.9328L69.5905 43.9612V45.0212L68.6631 45.5511C68.4864 45.6395 68.3981 45.9045 68.5306 46.0811C68.6189 46.2136 68.7514 46.3019 68.8839 46.3019C68.9722 46.3019 69.0164 46.3019 69.1047 46.2578L69.6347 45.9486V47.2735C69.6347 47.4943 69.8113 47.671 70.0322 47.671C70.253 47.671 70.4296 47.4943 70.4296 47.2735V45.9486L70.9596 46.2578C71.0037 46.3019 71.0921 46.3019 71.1804 46.3019C71.3129 46.3019 71.4454 46.2136 71.5337 46.0811C71.622 45.9045 71.5779 45.6395 71.4012 45.5511L70.4738 45.0212V43.9612L72.152 44.9328C72.1962 44.977 72.2845 44.977 72.3728 44.977C72.5053 44.977 72.6378 44.8887 72.7261 44.7562C72.8145 44.5795 72.7703 44.3146 72.5936 44.2262L70.5179 43.0338V41.9297L73.3444 43.5638C73.3886 43.6079 73.4769 43.6079 73.5653 43.6079C73.6536 43.6079 73.6977 43.6079 73.7861 43.5638C73.9186 43.4754 74.0069 43.343 74.0069 43.2105V39.8982L74.9343 40.4281V42.8572C74.9343 43.078 75.111 43.2546 75.3318 43.2546C75.5526 43.2546 75.7293 43.078 75.7293 42.8572V40.9139L76.6567 41.4439V42.548C76.6567 42.7688 76.8334 42.9455 77.0542 42.9455C77.275 42.9455 77.4517 42.7688 77.4517 42.548V41.9297L78.5999 42.5922C78.6441 42.6363 78.7324 42.6363 78.8207 42.6363C78.9532 42.6363 79.0857 42.548 79.1741 42.4155C79.0857 42.283 78.9974 42.018 78.8207 41.8855ZM73.0353 42.548L70.253 40.9581C70.1646 40.9139 70.0763 40.8698 69.988 40.8698C69.8997 40.8698 69.8113 40.9139 69.723 40.9581L66.9407 42.548V39.2799C66.9407 39.2357 66.9407 39.1474 66.8965 39.1032C66.8524 39.0149 66.764 38.9707 66.6757 38.9266L63.8934 37.3367L66.764 35.7026C66.764 35.7026 66.764 35.7026 66.8082 35.7026L66.8524 35.6585C66.8965 35.6143 66.8965 35.6143 66.9407 35.5701C66.9407 35.526 66.9848 35.526 66.9848 35.4818C66.9848 35.4818 66.9848 35.4818 66.9848 35.4376C66.9848 35.3935 66.9848 35.3935 66.9848 35.3493V32.0812L69.8113 33.7152C69.8113 33.7152 69.8555 33.7152 69.8997 33.7594C69.8997 33.7594 69.8997 33.7594 69.9438 33.7594C69.988 33.7594 69.988 33.7594 70.0322 33.7594C70.0763 33.7594 70.0763 33.7594 70.1205 33.7594C70.1205 33.7594 70.1205 33.7594 70.1646 33.7594C70.2088 33.7594 70.2088 33.7594 70.253 33.7152L73.0795 32.0812V35.3493C73.0795 35.3493 73.0795 35.3935 73.0795 35.4376C73.0795 35.4376 73.0795 35.4376 73.0795 35.4818C73.0795 35.526 73.0795 35.526 73.1236 35.5701C73.1236 35.6143 73.1678 35.6143 73.2119 35.6585L73.2561 35.7026C73.2561 35.7026 73.2561 35.7026 73.3003 35.7468L76.1709 37.3808L73.3886 38.9707C73.3003 39.0149 73.2119 39.0591 73.1678 39.1474C73.1236 39.1916 73.1236 39.2799 73.1236 39.324V42.548H73.0353Z" fill="#0088FF"/>
<path d="M73.8735 36.9367L72.2395 35.9651V34.066C72.2395 33.9335 72.1512 33.8011 72.0187 33.7127C71.8862 33.6244 71.7537 33.6244 71.6212 33.7127L69.9871 34.6402L68.3531 33.7127C68.2206 33.6244 68.0881 33.6244 67.9556 33.7127C67.8231 33.8011 67.7348 33.9335 67.7348 34.066V35.9651L66.1007 36.9367C65.9682 37.025 65.8799 37.1575 65.8799 37.29C65.8799 37.4225 65.9682 37.555 66.1007 37.6433L67.7348 38.6149V40.514C67.7348 40.6464 67.8231 40.7789 67.9556 40.8673C68.0881 40.9556 68.2206 40.9556 68.3531 40.8673L69.9871 39.9398L71.6212 40.8673C71.6653 40.9114 71.7537 40.9114 71.842 40.9114C71.9303 40.9114 71.9745 40.9114 72.0628 40.8673C72.1953 40.7789 72.2836 40.6464 72.2836 40.514V38.6149L73.9177 37.6433C74.0502 37.555 74.1385 37.4225 74.1385 37.29C74.0944 37.1133 74.006 36.9809 73.8735 36.9367ZM71.6212 37.9966C71.4887 38.0849 71.4004 38.2174 71.4004 38.3499V39.7632L70.1638 39.0565C70.1196 39.0124 70.0313 39.0124 69.943 39.0124C69.8546 39.0124 69.8105 39.0124 69.7221 39.0565L68.4856 39.7632V38.3499C68.4856 38.2174 68.3972 38.0849 68.2647 37.9966L67.0281 37.29L68.2647 36.5834C68.3972 36.495 68.4856 36.3626 68.4856 36.2301V34.7727L69.7221 35.4793C69.8546 35.5676 69.9871 35.5676 70.1196 35.4793L71.3562 34.7727V36.1859C71.3562 36.3184 71.4445 36.4509 71.577 36.5392L72.8136 37.2458L71.6212 37.9966Z" fill="#0088FF"/>
</g>
</svg>
