<svg width="135" height="103" viewBox="0 0 135 103" fill="none" xmlns="http://www.w3.org/2000/svg">
<path d="M1.33105 15.013L35.2717 25.6383L133.999 6.38963L100.237 1L1.33105 15.013Z" fill="#ECF5FC" stroke="#7D95AA"/>
<path d="M35.58 101.426L35.2729 25.6376L134 6.38892V55.4088L35.58 101.426Z" fill="#ECF5FC" stroke="#7D95AA"/>
<path d="M1 73.6314L1.51154 15.1155L35.2732 25.6381V101.093L1 73.6314Z" fill="#ECF5FC" stroke="#7D95AA"/>
<path d="M131.954 9.98242L39.3647 28.9744V94.4199L131.954 53.3561V9.98242Z" fill="#ECF5FC" stroke="#7D95AA"/>
<path d="M32.9708 28.4611L2.99445 17.9385L2.53418 71.3214L32.9708 94.4198V28.4611Z" fill="#ECF5FC" stroke="#7D95AA"/>
<path d="M14.2988 22.0452V80.0478" stroke="#7D95AA"/>
<path d="M17.8813 23.3276V82.6135" stroke="#7D95AA"/>
<path d="M21.4614 24.3552V85.4376" stroke="#7D95AA"/>
<path d="M45.2476 27.9475V91.8531" stroke="#7D95AA"/>
<path d="M51.1299 26.6643V89.03" stroke="#7D95AA"/>
<path d="M56.2461 25.6382V86.7206" stroke="#7D95AA"/>
<path d="M61.3608 24.3552V84.6677" stroke="#7D95AA"/>
<path d="M66.4771 23.585V82.3576" stroke="#7D95AA"/>
<path d="M71.5928 22.3015V80.0475" stroke="#7D95AA"/>
<path d="M76.7065 21.2749V77.7377" stroke="#7D95AA"/>
<path d="M81.8218 20.2483V75.6844" stroke="#7D95AA"/>
<path d="M86.9385 19.2222V73.1184" stroke="#7D95AA"/>
<path d="M92.0527 18.1948V71.0645" stroke="#7D95AA"/>
<path d="M97.1699 16.9116V68.7547" stroke="#7D95AA"/>
<path d="M102.285 16.1416V66.4448" stroke="#7D95AA"/>
<path d="M107.399 15.1155V64.1354" stroke="#7D95AA"/>
<path d="M112.516 14.0886V61.8253" stroke="#7D95AA"/>
<path d="M117.631 13.062V59.5155" stroke="#7D95AA"/>
<path d="M122.747 12.0359V57.4627" stroke="#7D95AA"/>
<path d="M127.861 10.752V55.1522" stroke="#7D95AA"/>
</svg>
