<svg width="147" height="82" viewBox="0 0 147 82" fill="none" xmlns="http://www.w3.org/2000/svg">
<path d="M31.4048 26.1712L1 16.9501L113.897 1L145.548 4.48908L31.4048 26.1712Z" fill="#ECF5FC" stroke="#15354E" stroke-width="0.5" stroke-linecap="round" stroke-linejoin="round"/>
<path d="M31.9038 81V26.1716L146.047 4.4895V35.3928L31.9038 81Z" fill="#ECF5FC" stroke="#15354E" stroke-width="0.5" stroke-linecap="round" stroke-linejoin="round"/>
<path d="M1 58.8191V16.9502L31.6541 26.4206L31.9033 80.9997L1 58.8191Z" fill="#ECF5FC" stroke="#15354E" stroke-width="0.5" stroke-linecap="round" stroke-linejoin="round"/>
<path d="M142.806 8.22778L35.8906 30.4084V74.2711L142.806 32.9006V8.22778Z" fill="#ECF5FC" stroke="#15354E" stroke-width="0.5" stroke-linecap="round" stroke-linejoin="round"/>
<path d="M28.6636 73.2741V29.4114L3.24316 21.6855V57.0748L28.6636 73.2741Z" fill="#ECF5FC" stroke="#15354E" stroke-width="0.5" stroke-linecap="round" stroke-linejoin="round"/>
<path d="M12.4639 24.427V62.8069" stroke="#15354E" stroke-width="0.5" stroke-linecap="round" stroke-linejoin="round"/>
<path d="M18.6943 26.4207V66.7943" stroke="#15354E" stroke-width="0.5" stroke-linecap="round" stroke-linejoin="round"/>
<path d="M39.1309 29.6606V72.7757" stroke="#15354E" stroke-width="0.5" stroke-linecap="round" stroke-linejoin="round"/>
<path d="M42.6201 28.9131V71.7789" stroke="#15354E" stroke-width="0.5" stroke-linecap="round" stroke-linejoin="round"/>
<path d="M46.1089 28.1655V70.5329" stroke="#15354E" stroke-width="0.5" stroke-linecap="round" stroke-linejoin="round"/>
<path d="M49.5977 27.667L49.5977 69.0375" stroke="#15354E" stroke-width="0.5" stroke-linecap="round" stroke-linejoin="round"/>
<path d="M53.0874 26.6702V67.5422" stroke="#15354E" stroke-width="0.5" stroke-linecap="round" stroke-linejoin="round"/>
<path d="M56.5757 26.1716L56.5757 66.5453" stroke="#15354E" stroke-width="0.5" stroke-linecap="round" stroke-linejoin="round"/>
<path d="M60.0654 25.1748V65.05" stroke="#15354E" stroke-width="0.5" stroke-linecap="round" stroke-linejoin="round"/>
<path d="M63.5542 24.6765V63.5548" stroke="#15354E" stroke-width="0.5" stroke-linecap="round" stroke-linejoin="round"/>
<path d="M67.0435 23.6794V62.0593" stroke="#15354E" stroke-width="0.5" stroke-linecap="round" stroke-linejoin="round"/>
<path d="M70.5322 23.1812L70.5322 61.0626" stroke="#15354E" stroke-width="0.5" stroke-linecap="round" stroke-linejoin="round"/>
<path d="M74.022 22.1841V59.5671" stroke="#15354E" stroke-width="0.5" stroke-linecap="round" stroke-linejoin="round"/>
<path d="M77.5103 21.6855L77.5103 58.0717" stroke="#15354E" stroke-width="0.5" stroke-linecap="round" stroke-linejoin="round"/>
<path d="M81 21.1873L81 57.0749" stroke="#15354E" stroke-width="0.5" stroke-linecap="round" stroke-linejoin="round"/>
<path d="M84.4888 20.1902L84.4888 55.5794" stroke="#15354E" stroke-width="0.5" stroke-linecap="round" stroke-linejoin="round"/>
<path d="M87.9775 19.6919V54.0842" stroke="#15354E" stroke-width="0.5" stroke-linecap="round" stroke-linejoin="round"/>
<path d="M91.4668 18.6951L91.4668 52.589" stroke="#15354E" stroke-width="0.5" stroke-linecap="round" stroke-linejoin="round"/>
<path d="M94.9561 18.1965L94.9561 51.592" stroke="#15354E" stroke-width="0.5" stroke-linecap="round" stroke-linejoin="round"/>
<path d="M98.4453 17.1997L98.4453 50.0967" stroke="#15354E" stroke-width="0.5" stroke-linecap="round" stroke-linejoin="round"/>
<path d="M101.934 16.7012V48.6013" stroke="#15354E" stroke-width="0.5" stroke-linecap="round" stroke-linejoin="round"/>
<path d="M105.423 16.2029L105.423 47.1062" stroke="#15354E" stroke-width="0.5" stroke-linecap="round" stroke-linejoin="round"/>
<path d="M108.912 15.2061L108.912 46.1093" stroke="#15354E" stroke-width="0.5" stroke-linecap="round" stroke-linejoin="round"/>
<path d="M112.402 14.7075L112.402 44.6139" stroke="#15354E" stroke-width="0.5" stroke-linecap="round" stroke-linejoin="round"/>
<path d="M115.89 13.7104L115.89 43.1184" stroke="#15354E" stroke-width="0.5" stroke-linecap="round" stroke-linejoin="round"/>
<path d="M119.379 13.2119L119.379 42.1214" stroke="#15354E" stroke-width="0.5" stroke-linecap="round" stroke-linejoin="round"/>
<path d="M122.869 12.2151L122.869 40.6262" stroke="#15354E" stroke-width="0.5" stroke-linecap="round" stroke-linejoin="round"/>
<path d="M126.357 11.7168L126.357 39.131" stroke="#15354E" stroke-width="0.5" stroke-linecap="round" stroke-linejoin="round"/>
<path d="M129.847 10.72V38.1342" stroke="#15354E" stroke-width="0.5" stroke-linecap="round" stroke-linejoin="round"/>
<path d="M133.335 10.2214L133.335 36.6387" stroke="#15354E" stroke-width="0.5" stroke-linecap="round" stroke-linejoin="round"/>
<path d="M136.825 9.22461L136.825 35.1435" stroke="#15354E" stroke-width="0.5" stroke-linecap="round" stroke-linejoin="round"/>
<path d="M140.314 8.72607L140.314 34.1465" stroke="#15354E" stroke-width="0.5" stroke-linecap="round" stroke-linejoin="round"/>
</svg>
