<svg width="189" height="105" viewBox="0 0 189 105" fill="none" xmlns="http://www.w3.org/2000/svg">
    <path d="M40.1895 33.4437L1 21.5584L146.515 1L187.311 5.49715L40.1895 33.4437Z" fill="#ECF5FC" stroke="#15354E" stroke-width="0.5" stroke-linecap="round" stroke-linejoin="round"/>
    <path d="M40.833 104.114V33.4441L187.954 5.49756V45.3295L40.833 104.114Z" fill="#ECF5FC" stroke="#15354E" stroke-width="0.5" stroke-linecap="round" stroke-linejoin="round"/>
    <path d="M1 75.5244V21.5586L40.5107 33.7652L40.8319 104.113L1 75.5244Z" fill="#ECF5FC" stroke="#15354E" stroke-width="0.5" stroke-linecap="round" stroke-linejoin="round"/>
    <path d="M183.777 10.3157L45.9717 38.9047V95.4404L183.777 42.117V10.3157Z" fill="#ECF5FC" stroke="#15354E" stroke-width="0.5" stroke-linecap="round" stroke-linejoin="round"/>
    <path d="M36.6566 94.1557V37.6201L3.8916 27.6621V73.2761L36.6566 94.1557Z" fill="#ECF5FC" stroke="#15354E" stroke-width="0.5" stroke-linecap="round" stroke-linejoin="round"/>
    <path d="M15.7764 31.1956V80.6642" stroke="#15354E" stroke-width="0.5" stroke-linecap="round" stroke-linejoin="round"/>
    <path d="M23.8066 33.7654V85.8039" stroke="#15354E" stroke-width="0.5" stroke-linecap="round" stroke-linejoin="round"/>
    <path d="M50.1475 37.9412V93.5131" stroke="#15354E" stroke-width="0.5" stroke-linecap="round" stroke-linejoin="round"/>
    <path d="M54.6455 36.9775V92.2283" stroke="#15354E" stroke-width="0.5" stroke-linecap="round" stroke-linejoin="round"/>
    <path d="M59.1416 36.0144V90.6227" stroke="#15354E" stroke-width="0.5" stroke-linecap="round" stroke-linejoin="round"/>
    <path d="M63.6396 35.3716L63.6397 88.695" stroke="#15354E" stroke-width="0.5" stroke-linecap="round" stroke-linejoin="round"/>
    <path d="M68.1367 34.0864V86.7674" stroke="#15354E" stroke-width="0.5" stroke-linecap="round" stroke-linejoin="round"/>
    <path d="M72.6328 33.4443L72.6328 85.4828" stroke="#15354E" stroke-width="0.5" stroke-linecap="round" stroke-linejoin="round"/>
    <path d="M77.1309 32.1594V83.5555" stroke="#15354E" stroke-width="0.5" stroke-linecap="round" stroke-linejoin="round"/>
    <path d="M81.6279 31.5168V81.628" stroke="#15354E" stroke-width="0.5" stroke-linecap="round" stroke-linejoin="round"/>
    <path d="M86.125 30.2322V79.7009" stroke="#15354E" stroke-width="0.5" stroke-linecap="round" stroke-linejoin="round"/>
    <path d="M90.6221 29.5894L90.6221 78.4156" stroke="#15354E" stroke-width="0.5" stroke-linecap="round" stroke-linejoin="round"/>
    <path d="M95.1191 28.3047V76.4885" stroke="#15354E" stroke-width="0.5" stroke-linecap="round" stroke-linejoin="round"/>
    <path d="M99.6162 27.6621L99.6162 74.561" stroke="#15354E" stroke-width="0.5" stroke-linecap="round" stroke-linejoin="round"/>
    <path d="M104.113 27.0198L104.113 73.2762" stroke="#15354E" stroke-width="0.5" stroke-linecap="round" stroke-linejoin="round"/>
    <path d="M108.61 25.7349L108.61 71.3488" stroke="#15354E" stroke-width="0.5" stroke-linecap="round" stroke-linejoin="round"/>
    <path d="M113.107 25.0925V69.4216" stroke="#15354E" stroke-width="0.5" stroke-linecap="round" stroke-linejoin="round"/>
    <path d="M117.604 23.8076L117.604 67.4942" stroke="#15354E" stroke-width="0.5" stroke-linecap="round" stroke-linejoin="round"/>
    <path d="M122.102 23.165L122.102 66.2092" stroke="#15354E" stroke-width="0.5" stroke-linecap="round" stroke-linejoin="round"/>
    <path d="M126.6 21.8801L126.6 64.2819" stroke="#15354E" stroke-width="0.5" stroke-linecap="round" stroke-linejoin="round"/>
    <path d="M131.096 21.2375V62.3544" stroke="#15354E" stroke-width="0.5" stroke-linecap="round" stroke-linejoin="round"/>
    <path d="M135.594 20.5952L135.594 60.4271" stroke="#15354E" stroke-width="0.5" stroke-linecap="round" stroke-linejoin="round"/>
    <path d="M140.091 19.3103L140.091 59.1422" stroke="#15354E" stroke-width="0.5" stroke-linecap="round" stroke-linejoin="round"/>
    <path d="M144.589 18.668L144.589 57.215" stroke="#15354E" stroke-width="0.5" stroke-linecap="round" stroke-linejoin="round"/>
    <path d="M149.085 17.3828L149.085 55.2874" stroke="#15354E" stroke-width="0.5" stroke-linecap="round" stroke-linejoin="round"/>
    <path d="M153.582 16.7402L153.582 54.0024" stroke="#15354E" stroke-width="0.5" stroke-linecap="round" stroke-linejoin="round"/>
    <path d="M158.08 15.4553L158.08 52.075" stroke="#15354E" stroke-width="0.5" stroke-linecap="round" stroke-linejoin="round"/>
    <path d="M162.576 14.8132L162.576 50.148" stroke="#15354E" stroke-width="0.5" stroke-linecap="round" stroke-linejoin="round"/>
    <path d="M167.074 13.5283V48.8631" stroke="#15354E" stroke-width="0.5" stroke-linecap="round" stroke-linejoin="round"/>
    <path d="M171.57 12.8855L171.57 46.9354" stroke="#15354E" stroke-width="0.5" stroke-linecap="round" stroke-linejoin="round"/>
    <path d="M176.067 11.6006L176.067 45.008" stroke="#15354E" stroke-width="0.5" stroke-linecap="round" stroke-linejoin="round"/>
    <path d="M180.564 10.9583L180.564 43.7232" stroke="#15354E" stroke-width="0.5" stroke-linecap="round" stroke-linejoin="round"/>
    <g opacity="0.67">
        <path d="M133.559 50.7358L132.172 49.9352L132.812 49.5615C133.025 49.4014 133.132 49.1345 132.972 48.921C132.812 48.7075 132.545 48.6008 132.332 48.7609L131.211 49.4014L130.091 48.7609L132.172 47.5866C132.385 47.4265 132.492 47.1596 132.332 46.9461C132.172 46.7326 131.905 46.6258 131.691 46.786L129.183 48.2271L128.063 47.5866L131.478 45.6117C131.638 45.5049 131.745 45.3448 131.745 45.1847C131.745 45.0245 131.638 44.8644 131.478 44.7576L128.01 42.7827L129.13 42.1422L131.638 43.5834C131.691 43.6367 131.798 43.6367 131.905 43.6367C132.065 43.6367 132.225 43.53 132.332 43.3699C132.492 43.1563 132.385 42.8361 132.172 42.7293L130.144 41.555L131.264 40.9145L132.385 41.555C132.438 41.6084 132.545 41.6084 132.652 41.6084C132.812 41.6084 132.972 41.5017 133.079 41.3415C133.185 41.128 133.132 40.8078 132.919 40.701L132.278 40.3274L133.666 39.5267C133.879 39.3666 133.986 39.0997 133.826 38.8862C133.719 38.6727 133.399 38.566 133.185 38.7261L131.798 39.5267V38.7795C131.798 38.5126 131.585 38.2991 131.318 38.2991C131.051 38.2991 130.838 38.5126 130.838 38.7795V40.1139L129.717 40.7544V38.4058C129.717 38.1389 129.504 37.9254 129.237 37.9254C128.97 37.9254 128.757 38.1389 128.757 38.4058V41.3415L127.636 41.9821V38.0322C127.636 37.8721 127.529 37.7119 127.369 37.6052C127.209 37.4984 127.049 37.4984 126.889 37.6052L123.474 39.5801V38.2991L125.982 36.8579C126.195 36.7511 126.302 36.4309 126.142 36.2174C126.035 36.0039 125.715 35.8971 125.502 36.0572L123.474 37.2315V35.9505L124.595 35.31C124.808 35.2032 124.915 34.883 124.755 34.6695C124.595 34.4559 124.328 34.3492 124.114 34.5093L123.474 34.883V33.2817C123.474 33.0148 123.261 32.8013 122.994 32.8013C122.727 32.8013 122.514 33.0148 122.514 33.2817V34.883L121.873 34.5093C121.66 34.3492 121.34 34.4559 121.233 34.6695C121.126 34.883 121.18 35.2032 121.393 35.31L122.514 35.9505V37.2315L120.486 36.0572C120.272 35.9505 119.952 36.0039 119.846 36.2174C119.685 36.4309 119.792 36.7511 120.006 36.8579L122.514 38.2991V39.5801L119.099 37.6052C118.938 37.4984 118.778 37.4984 118.618 37.6052C118.458 37.7119 118.351 37.8721 118.351 38.0322V41.9821L117.231 41.3415V38.4058C117.231 38.1389 117.017 37.9254 116.751 37.9254C116.484 37.9254 116.27 38.1389 116.27 38.4058V40.7544L115.15 40.1139V38.7795C115.15 38.5126 114.936 38.2991 114.67 38.2991C114.403 38.2991 114.189 38.5126 114.189 38.7795V39.5267L112.802 38.7261C112.589 38.566 112.268 38.6727 112.162 38.8862C112.055 39.0997 112.108 39.42 112.322 39.5267L113.709 40.3274L113.069 40.701C112.855 40.8611 112.749 41.128 112.909 41.3415C113.016 41.5017 113.176 41.6084 113.336 41.6084C113.442 41.6084 113.496 41.6084 113.602 41.555L114.723 40.9145L115.844 41.555L113.816 42.7293C113.602 42.8895 113.496 43.1563 113.656 43.3699C113.763 43.53 113.923 43.6367 114.083 43.6367C114.189 43.6367 114.243 43.6367 114.35 43.5834L116.857 42.1422L117.978 42.7827L114.51 44.7576C114.35 44.8644 114.243 45.0245 114.243 45.1847C114.243 45.3448 114.35 45.5049 114.51 45.6117L117.925 47.5866L116.804 48.2271L114.296 46.786C114.083 46.6258 113.763 46.7326 113.656 46.9461C113.549 47.1596 113.602 47.4799 113.816 47.5866L115.844 48.7609L114.723 49.4014L113.602 48.7609C113.389 48.6008 113.069 48.7075 112.962 48.921C112.802 49.1345 112.909 49.4548 113.122 49.5615L113.763 49.9352L112.375 50.7358C112.162 50.896 112.055 51.1628 112.215 51.3764C112.322 51.5365 112.482 51.6432 112.642 51.6432C112.749 51.6432 112.802 51.6432 112.909 51.5899L114.029 50.7892V51.5365C114.029 51.8034 114.243 52.0169 114.51 52.0169C114.776 52.0169 114.99 51.8034 114.99 51.5365V50.2021L116.11 49.5615V51.9101C116.11 52.177 116.324 52.3905 116.591 52.3905C116.857 52.3905 117.071 52.177 117.071 51.9101V48.9744L118.191 48.3339V52.3905C118.191 52.5506 118.298 52.7108 118.458 52.8175C118.618 52.9243 118.778 52.9243 118.938 52.8175L122.353 50.8426V52.1236L119.846 53.5648C119.632 53.6716 119.525 53.9918 119.685 54.2053C119.792 54.3654 119.952 54.4722 120.112 54.4722C120.219 54.4722 120.272 54.4722 120.379 54.4188L122.407 53.2445V54.5256L121.286 55.1661C121.073 55.2729 120.966 55.5931 121.126 55.8066C121.233 55.9667 121.393 56.0735 121.553 56.0735C121.66 56.0735 121.713 56.0735 121.82 56.0201L122.46 55.6465V57.2478C122.46 57.5147 122.674 57.7282 122.94 57.7282C123.207 57.7282 123.421 57.5147 123.421 57.2478V55.6465L124.061 56.0201C124.114 56.0735 124.221 56.0735 124.328 56.0735C124.488 56.0735 124.648 55.9667 124.755 55.8066C124.861 55.5931 124.808 55.2729 124.595 55.1661L123.474 54.5256V53.2445L125.502 54.4188C125.555 54.4722 125.662 54.4722 125.768 54.4722C125.929 54.4722 126.089 54.3654 126.195 54.2053C126.302 53.9918 126.249 53.6716 126.035 53.5648L123.527 52.1236V50.7892L126.942 52.7641C126.996 52.8175 127.102 52.8175 127.209 52.8175C127.316 52.8175 127.369 52.8175 127.476 52.7641C127.636 52.6574 127.743 52.4973 127.743 52.3371V48.3339L128.863 48.9744V51.9101C128.863 52.177 129.077 52.3905 129.344 52.3905C129.61 52.3905 129.824 52.177 129.824 51.9101V49.5615L130.944 50.2021V51.5365C130.944 51.8034 131.158 52.0169 131.425 52.0169C131.691 52.0169 131.905 51.8034 131.905 51.5365V50.7892L133.292 51.5899C133.346 51.6432 133.452 51.6432 133.559 51.6432C133.719 51.6432 133.879 51.5365 133.986 51.3764C133.879 51.2162 133.772 50.896 133.559 50.7358ZM126.569 51.5365L123.207 49.6149C123.1 49.5615 122.994 49.5082 122.887 49.5082C122.78 49.5082 122.674 49.5615 122.567 49.6149L119.205 51.5365V47.5866C119.205 47.5332 119.205 47.4265 119.152 47.3731C119.099 47.2663 118.992 47.213 118.885 47.1596L115.523 45.238L118.992 43.2631C118.992 43.2631 118.992 43.2631 119.045 43.2631L119.099 43.2097C119.152 43.1563 119.152 43.1563 119.205 43.103C119.205 43.0496 119.259 43.0496 119.259 42.9962C119.259 42.9962 119.259 42.9962 119.259 42.9428C119.259 42.8895 119.259 42.8895 119.259 42.8361V38.8862L122.674 40.8611C122.674 40.8611 122.727 40.8611 122.78 40.9145C122.78 40.9145 122.78 40.9145 122.834 40.9145C122.887 40.9145 122.887 40.9145 122.94 40.9145C122.994 40.9145 122.994 40.9145 123.047 40.9145C123.047 40.9145 123.047 40.9145 123.1 40.9145C123.154 40.9145 123.154 40.9145 123.207 40.8611L126.622 38.8862V42.8361C126.622 42.8361 126.622 42.8895 126.622 42.9428C126.622 42.9428 126.622 42.9428 126.622 42.9962C126.622 43.0496 126.622 43.0496 126.676 43.103C126.676 43.1563 126.729 43.1563 126.782 43.2097L126.836 43.2631C126.836 43.2631 126.836 43.2631 126.889 43.3165L130.357 45.2914L126.996 47.213C126.889 47.2663 126.782 47.3197 126.729 47.4265C126.676 47.4799 126.676 47.5866 126.676 47.64V51.5365H126.569Z" fill="#0088FF"/>
        <path d="M127.582 44.7551L125.608 43.5808V41.2856C125.608 41.1255 125.501 40.9654 125.341 40.8586C125.181 40.7519 125.021 40.7519 124.861 40.8586L122.886 41.9795L120.912 40.8586C120.752 40.7519 120.592 40.7519 120.432 40.8586C120.272 40.9654 120.165 41.1255 120.165 41.2856V43.5808L118.191 44.7551C118.031 44.8619 117.924 45.022 117.924 45.1821C117.924 45.3423 118.031 45.5024 118.191 45.6092L120.165 46.7834V49.0786C120.165 49.2388 120.272 49.3989 120.432 49.5056C120.592 49.6124 120.752 49.6124 120.912 49.5056L122.886 48.3847L124.861 49.5056C124.914 49.559 125.021 49.559 125.127 49.559C125.234 49.559 125.287 49.559 125.394 49.5056C125.554 49.3989 125.661 49.2388 125.661 49.0786V46.7834L127.635 45.6092C127.795 45.5024 127.902 45.3423 127.902 45.1821C127.849 44.9686 127.742 44.8085 127.582 44.7551ZM124.861 46.0362C124.7 46.1429 124.594 46.303 124.594 46.4632V48.1712L123.1 47.3172C123.046 47.2638 122.94 47.2638 122.833 47.2638C122.726 47.2638 122.673 47.2638 122.566 47.3172L121.072 48.1712V46.4632C121.072 46.303 120.965 46.1429 120.805 46.0362L119.311 45.1821L120.805 44.3281C120.965 44.2214 121.072 44.0612 121.072 43.9011V42.1397L122.566 42.9937C122.726 43.1004 122.886 43.1004 123.046 42.9937L124.54 42.1397V43.8477C124.54 44.0079 124.647 44.168 124.807 44.2747L126.301 45.1288L124.861 46.0362Z" fill="#0088FF"/>
    </g>
</svg>
