<svg width="136" height="86" viewBox="0 0 136 86" fill="none" xmlns="http://www.w3.org/2000/svg">
<path d="M29.1251 27.4299L1.00049 17.7477L105.43 1L134.708 4.66355L29.1251 27.4299Z" fill="#ECF5FC" stroke="#7D95AA" stroke-width="0.6" stroke-linecap="round" stroke-linejoin="round"/>
<path d="M29.5859 84.9998V27.4297L135.168 4.66333V37.1119L29.5859 84.9998Z" fill="#ECF5FC" stroke="#7D95AA" stroke-width="0.6" stroke-linecap="round" stroke-linejoin="round"/>
<path d="M1 61.7102V17.7476L29.3551 27.6915L29.5857 84.9999L1 61.7102Z" fill="#ECF5FC" stroke="#7D95AA" stroke-width="0.6" stroke-linecap="round" stroke-linejoin="round"/>
<path d="M132.172 8.58862L33.2744 31.8783V77.9344L132.172 34.4952V8.58862Z" fill="#ECF5FC" stroke="#7D95AA" stroke-width="0.6" stroke-linecap="round" stroke-linejoin="round"/>
<path d="M26.5892 76.888V30.8319L3.0752 22.7197V59.8786L26.5892 76.888Z" fill="#ECF5FC" stroke="#7D95AA" stroke-width="0.6" stroke-linecap="round" stroke-linejoin="round"/>
<path d="M11.6045 25.5979V65.897" stroke="#7D95AA" stroke-width="0.6" stroke-linecap="round" stroke-linejoin="round"/>
<path d="M17.3672 27.6914V70.0839" stroke="#7D95AA" stroke-width="0.6" stroke-linecap="round" stroke-linejoin="round"/>
<path d="M36.2715 31.0935V76.3645" stroke="#7D95AA" stroke-width="0.6" stroke-linecap="round" stroke-linejoin="round"/>
<path d="M39.498 30.3083V75.3177" stroke="#7D95AA" stroke-width="0.6" stroke-linecap="round" stroke-linejoin="round"/>
<path d="M42.7256 29.5234V74.0094" stroke="#7D95AA" stroke-width="0.6" stroke-linecap="round" stroke-linejoin="round"/>
<path d="M45.9531 29L45.9531 72.4393" stroke="#7D95AA" stroke-width="0.6" stroke-linecap="round" stroke-linejoin="round"/>
<path d="M49.1807 27.9534V70.8693" stroke="#7D95AA" stroke-width="0.6" stroke-linecap="round" stroke-linejoin="round"/>
<path d="M52.4082 27.4299L52.4082 69.8225" stroke="#7D95AA" stroke-width="0.6" stroke-linecap="round" stroke-linejoin="round"/>
<path d="M55.6357 26.3831V68.2522" stroke="#7D95AA" stroke-width="0.6" stroke-linecap="round" stroke-linejoin="round"/>
<path d="M58.8633 25.8599V66.6823" stroke="#7D95AA" stroke-width="0.6" stroke-linecap="round" stroke-linejoin="round"/>
<path d="M62.0908 24.8132V65.1123" stroke="#7D95AA" stroke-width="0.6" stroke-linecap="round" stroke-linejoin="round"/>
<path d="M65.3174 24.2896L65.3174 64.0653" stroke="#7D95AA" stroke-width="0.6" stroke-linecap="round" stroke-linejoin="round"/>
<path d="M68.5449 23.2429V62.4953" stroke="#7D95AA" stroke-width="0.6" stroke-linecap="round" stroke-linejoin="round"/>
<path d="M71.7725 22.7197L71.7725 60.9253" stroke="#7D95AA" stroke-width="0.6" stroke-linecap="round" stroke-linejoin="round"/>
<path d="M75 22.1963L75 59.8785" stroke="#7D95AA" stroke-width="0.6" stroke-linecap="round" stroke-linejoin="round"/>
<path d="M78.2275 21.1494L78.2275 58.3083" stroke="#7D95AA" stroke-width="0.6" stroke-linecap="round" stroke-linejoin="round"/>
<path d="M81.4551 20.6262V56.7384" stroke="#7D95AA" stroke-width="0.6" stroke-linecap="round" stroke-linejoin="round"/>
<path d="M84.6826 19.5796L84.6826 55.1684" stroke="#7D95AA" stroke-width="0.6" stroke-linecap="round" stroke-linejoin="round"/>
<path d="M87.9092 19.0559L87.9092 54.1213" stroke="#7D95AA" stroke-width="0.6" stroke-linecap="round" stroke-linejoin="round"/>
<path d="M91.1367 18.0093L91.1367 52.5513" stroke="#7D95AA" stroke-width="0.6" stroke-linecap="round" stroke-linejoin="round"/>
<path d="M94.3643 17.4861V50.9814" stroke="#7D95AA" stroke-width="0.6" stroke-linecap="round" stroke-linejoin="round"/>
<path d="M97.5918 16.9626L97.5918 49.4112" stroke="#7D95AA" stroke-width="0.6" stroke-linecap="round" stroke-linejoin="round"/>
<path d="M100.819 15.9158L100.819 48.3644" stroke="#7D95AA" stroke-width="0.6" stroke-linecap="round" stroke-linejoin="round"/>
<path d="M104.047 15.3926L104.047 46.7944" stroke="#7D95AA" stroke-width="0.6" stroke-linecap="round" stroke-linejoin="round"/>
<path d="M107.274 14.3459L107.274 45.2245" stroke="#7D95AA" stroke-width="0.6" stroke-linecap="round" stroke-linejoin="round"/>
<path d="M110.502 13.8223L110.502 44.1774" stroke="#7D95AA" stroke-width="0.6" stroke-linecap="round" stroke-linejoin="round"/>
<path d="M113.729 12.7756L113.729 42.6074" stroke="#7D95AA" stroke-width="0.6" stroke-linecap="round" stroke-linejoin="round"/>
<path d="M116.956 12.2524L116.956 41.0375" stroke="#7D95AA" stroke-width="0.6" stroke-linecap="round" stroke-linejoin="round"/>
<path d="M120.184 11.2056V39.9906" stroke="#7D95AA" stroke-width="0.6" stroke-linecap="round" stroke-linejoin="round"/>
<path d="M123.411 10.6821L123.411 38.4204" stroke="#7D95AA" stroke-width="0.6" stroke-linecap="round" stroke-linejoin="round"/>
<path d="M126.639 9.6355L126.639 36.8505" stroke="#7D95AA" stroke-width="0.6" stroke-linecap="round" stroke-linejoin="round"/>
<path d="M129.866 9.1123L129.866 35.8039" stroke="#7D95AA" stroke-width="0.6" stroke-linecap="round" stroke-linejoin="round"/>
</svg>
