<svg width="189" height="112" viewBox="0 0 189 112" fill="none" xmlns="http://www.w3.org/2000/svg">
    <path d="M40.1992 35.4594L1 22.6864L146.551 0.592651L187.357 5.42567L40.1992 35.4594Z" fill="#ECF5FC" stroke="#15354E" stroke-width="0.5" stroke-linecap="round" stroke-linejoin="round"/>
    <path d="M40.8418 111.407V35.46L187.999 5.42627V48.233L40.8418 111.407Z" fill="#ECF5FC" stroke="#15354E" stroke-width="0.5" stroke-linecap="round" stroke-linejoin="round"/>
    <path d="M1 80.6831V22.6869L40.5205 35.8051L40.8418 111.407L1 80.6831Z" fill="#ECF5FC" stroke="#15354E" stroke-width="0.5" stroke-linecap="round" stroke-linejoin="round"/>
    <path d="M183.822 10.6045L45.9824 41.3287V102.087L183.822 44.7808V10.6045Z" fill="#ECF5FC" stroke="#15354E" stroke-width="0.5" stroke-linecap="round" stroke-linejoin="round"/>
    <path d="M36.6647 100.706V39.9476L3.8916 29.246V78.2666L36.6647 100.706Z" fill="#ECF5FC" stroke="#15354E" stroke-width="0.5" stroke-linecap="round" stroke-linejoin="round"/>
    <path d="M15.7793 33.0435V86.2066" stroke="#15354E" stroke-width="0.5" stroke-linecap="round" stroke-linejoin="round"/>
    <path d="M23.8125 35.8048V91.7297" stroke="#15354E" stroke-width="0.5" stroke-linecap="round" stroke-linejoin="round"/>
    <path d="M50.1592 40.2928V100.015" stroke="#15354E" stroke-width="0.5" stroke-linecap="round" stroke-linejoin="round"/>
    <path d="M54.6582 39.2572V98.6343" stroke="#15354E" stroke-width="0.5" stroke-linecap="round" stroke-linejoin="round"/>
    <path d="M59.1562 38.2218V96.9084" stroke="#15354E" stroke-width="0.5" stroke-linecap="round" stroke-linejoin="round"/>
    <path d="M63.6543 37.5311L63.6543 94.8369" stroke="#15354E" stroke-width="0.5" stroke-linecap="round" stroke-linejoin="round"/>
    <path d="M68.1533 36.1504V92.7657" stroke="#15354E" stroke-width="0.5" stroke-linecap="round" stroke-linejoin="round"/>
    <path d="M72.6504 35.4601L72.6504 91.385" stroke="#15354E" stroke-width="0.5" stroke-linecap="round" stroke-linejoin="round"/>
    <path d="M77.1494 34.0793V89.3138" stroke="#15354E" stroke-width="0.5" stroke-linecap="round" stroke-linejoin="round"/>
    <path d="M81.6475 33.3887V87.2423" stroke="#15354E" stroke-width="0.5" stroke-linecap="round" stroke-linejoin="round"/>
    <path d="M86.1455 32.0081V85.1712" stroke="#15354E" stroke-width="0.5" stroke-linecap="round" stroke-linejoin="round"/>
    <path d="M90.6436 31.3176L90.6436 83.7904" stroke="#15354E" stroke-width="0.5" stroke-linecap="round" stroke-linejoin="round"/>
    <path d="M95.1426 29.9364V81.7187" stroke="#15354E" stroke-width="0.5" stroke-linecap="round" stroke-linejoin="round"/>
    <path d="M99.6406 29.246L99.6406 79.6474" stroke="#15354E" stroke-width="0.5" stroke-linecap="round" stroke-linejoin="round"/>
    <path d="M104.139 28.5557L104.139 78.2667" stroke="#15354E" stroke-width="0.5" stroke-linecap="round" stroke-linejoin="round"/>
    <path d="M108.638 27.1746L108.638 76.1951" stroke="#15354E" stroke-width="0.5" stroke-linecap="round" stroke-linejoin="round"/>
    <path d="M113.135 26.4843V74.124" stroke="#15354E" stroke-width="0.5" stroke-linecap="round" stroke-linejoin="round"/>
    <path d="M117.634 25.1035L117.634 72.0528" stroke="#15354E" stroke-width="0.5" stroke-linecap="round" stroke-linejoin="round"/>
    <path d="M122.132 24.4132L122.132 70.6721" stroke="#15354E" stroke-width="0.5" stroke-linecap="round" stroke-linejoin="round"/>
    <path d="M126.631 23.0321L126.631 68.6005" stroke="#15354E" stroke-width="0.5" stroke-linecap="round" stroke-linejoin="round"/>
    <path d="M131.128 22.3418V66.5294" stroke="#15354E" stroke-width="0.5" stroke-linecap="round" stroke-linejoin="round"/>
    <path d="M135.627 21.6514L135.627 64.4581" stroke="#15354E" stroke-width="0.5" stroke-linecap="round" stroke-linejoin="round"/>
    <path d="M140.125 20.2704L140.125 63.0771" stroke="#15354E" stroke-width="0.5" stroke-linecap="round" stroke-linejoin="round"/>
    <path d="M144.624 19.5801L144.624 61.0059" stroke="#15354E" stroke-width="0.5" stroke-linecap="round" stroke-linejoin="round"/>
    <path d="M149.121 18.199L149.121 58.9344" stroke="#15354E" stroke-width="0.5" stroke-linecap="round" stroke-linejoin="round"/>
    <path d="M153.619 17.5087L153.619 57.5536" stroke="#15354E" stroke-width="0.5" stroke-linecap="round" stroke-linejoin="round"/>
    <path d="M158.118 16.1277L158.118 55.4822" stroke="#15354E" stroke-width="0.5" stroke-linecap="round" stroke-linejoin="round"/>
    <path d="M162.616 15.4374L162.616 53.4111" stroke="#15354E" stroke-width="0.5" stroke-linecap="round" stroke-linejoin="round"/>
    <path d="M167.114 14.0566V52.0303" stroke="#15354E" stroke-width="0.5" stroke-linecap="round" stroke-linejoin="round"/>
    <path d="M171.612 13.366L171.612 49.9588" stroke="#15354E" stroke-width="0.5" stroke-linecap="round" stroke-linejoin="round"/>
    <path d="M176.111 11.9852L176.111 47.8876" stroke="#15354E" stroke-width="0.5" stroke-linecap="round" stroke-linejoin="round"/>
    <path d="M180.609 11.2948L180.609 46.5068" stroke="#15354E" stroke-width="0.5" stroke-linecap="round" stroke-linejoin="round"/>
</svg>
