<svg xmlns="http://www.w3.org/2000/svg" width="147" height="72" viewBox="0 0 147 72" fill="none">
    <path d="M48.1084 49.896L24.5527 52.5558V65.004L54.0639 60.5642V57.0776H66.4531L100.351 49.3473V43.0698L48.4806 45.587L48.1084 49.896Z" fill="#6E7E92" stroke="#6E7E92" stroke-width="0.931754" stroke-linecap="round" stroke-linejoin="round"/>
    <path d="M101.418 46.7892L110.839 49.2714L143.923 44.5592V38.2817L101.418 40.7989L101.418 46.7892Z" fill="#6E7E92" stroke="#6E7E92" stroke-width="0.931754" stroke-linecap="round" stroke-linejoin="round"/>
    <ellipse cx="44.2323" cy="62.9152" rx="7.96184" ry="8.08464" fill="#E0E4EC" stroke="#6E7E92" stroke-width="0.931754" stroke-linecap="round" stroke-linejoin="round"/>
    <ellipse cx="43.9344" cy="62.9167" rx="4.61217" ry="4.6833" fill="#E0E4EC" stroke="#6E7E92" stroke-width="0.931754" stroke-linecap="round" stroke-linejoin="round"/>
    <path d="M111.956 13.687L145.573 21.4884V38.9042V41.8456L111.956 45.6016V41.2618V13.687Z" fill="#E0E4EC"/>
    <path d="M111.956 41.2618V45.6016L145.573 41.8456V38.9042M111.956 41.2618V13.687L145.573 21.4884V38.9042M111.956 41.2618L145.573 38.9042" stroke="#6E7E92" stroke-width="0.931754" stroke-linecap="round" stroke-linejoin="round"/>
    <path d="M145.573 21.4884L111.956 13.687V41.2618L145.573 38.9042V21.4884Z" fill="#F5F6FF" stroke="#6E7E92" stroke-width="0.931754" stroke-linecap="round" stroke-linejoin="round"/>
    <path d="M111.956 13.687L95.7514 17.2168L94.9814 44.1167L111.956 45.6016V13.687Z" fill="#E0E4EC" stroke="#6E7E92" stroke-width="0.931754" stroke-linecap="round" stroke-linejoin="round"/>
    <path d="M55.9854 1L109.377 13.3905V45.7225L55.9854 51.6879V1Z" fill="#E0E4EC" stroke="#6E7E92" stroke-width="0.931754" stroke-linecap="round" stroke-linejoin="round"/>
    <path d="M55.9854 1L109.377 13.3905V41.4471V45.7225L55.9854 51.6879V45.7225V1Z" fill="#E0E4EC"/>
    <path d="M55.9854 45.7225V51.6879L109.377 45.7225V41.4471M55.9854 45.7225V1L109.377 13.3905V41.4471M55.9854 45.7225L109.377 41.4471" stroke="#6E7E92" stroke-width="0.931754" stroke-linecap="round" stroke-linejoin="round"/>
    <path d="M109.377 13.3905L55.9854 1V45.7225L109.377 41.4471V13.3905Z" fill="#F5F6FF" stroke="#6E7E92" stroke-width="0.931754" stroke-linecap="round" stroke-linejoin="round"/>
    <path d="M55.9853 1L30.2482 6.60615L29.0254 49.3295L55.9853 51.6879V45.7506V1Z" fill="#F5F6FF"/>
    <path d="M55.9853 45.7506V51.6879L29.0254 49.3295L30.2482 6.60615L55.9853 1V45.7506ZM55.9853 45.7506L29.0254 44.3408" stroke="#6E7E92" stroke-width="0.931754" stroke-linecap="round" stroke-linejoin="round"/>
    <path d="M55.9853 51.6879L29.0254 49.3295V44.3408L55.9853 45.7507V51.6879Z" fill="#E0E4EC" stroke="#6E7E92" stroke-width="0.931754" stroke-linecap="round" stroke-linejoin="round"/>
    <path d="M28.7481 55.8581L29.1104 66.0071C25.7728 66.2602 23.367 66.13 17.1609 64.91L1.84587 60.5972L1.58923 57.5679L3.2177 57.9862L3.43777 54.8819L1.36914 53.5829C1.41087 52.6368 1.50164 52.1563 2.33739 51.7995C2.04197 51.306 1.36914 39.7556 2.33739 38.7684L6.50386 23.369C6.90978 22.5416 7.04326 22.0444 8.22395 21.4902C12.4639 19.5002 31.2095 15.8296 46.677 18.4913C49.5948 20.1198 49.9153 42.7705 49.3524 45.4722L37.1216 54.3494L28.7481 55.8581Z" fill="#E0E4EC"/>
    <path d="M28.7481 55.8581H27.7315L26.9665 55.1452L26.8227 53.4266L21.1014 53.8354L9.88515 54.2402L2.33739 51.7995M28.7481 55.8581L29.1104 66.0071C25.7728 66.2602 23.367 66.13 17.1609 64.91L1.84587 60.5972L1.58923 57.5679L3.2177 57.9862L3.43777 54.8819L1.36914 53.5829C1.41087 52.6368 1.50164 52.1563 2.33739 51.7995M28.7481 55.8581L37.1216 54.3494L49.3524 45.4722C49.9153 42.7705 49.5948 20.1198 46.677 18.4913C31.2095 15.8296 12.4639 19.5002 8.22395 21.4902C7.04326 22.0444 6.90978 22.5416 6.50386 23.369L2.33739 38.7684C1.36914 39.7556 2.04197 51.306 2.33739 51.7995" stroke="#6E7E92" stroke-width="0.931754" stroke-linecap="round" stroke-linejoin="round"/>
    <path d="M26.8227 53.4269L21.1014 53.8357L9.88515 54.2404L2.33739 51.7998C1.50164 52.1566 1.41087 52.637 1.36914 53.5832L3.43777 54.8821L3.2177 57.9865L1.58923 57.5682L1.84587 60.5974L17.1609 64.9103C23.367 66.1302 25.7728 66.2605 29.1104 66.0074L28.7481 55.8584H27.7315L26.9665 55.1454L26.8227 53.4269Z" fill="#9EA9B9"/>
    <path d="M28.7481 55.8584H27.7315L26.9665 55.1454L26.8227 53.4269L21.1014 53.8357L9.88515 54.2404L2.33739 51.7998C1.50164 52.1566 1.41087 52.637 1.36914 53.5832L3.43777 54.8821L3.2177 57.9865L1.58923 57.5682L1.84587 60.5974L17.1609 64.9103C23.367 66.1302 25.7728 66.2605 29.1104 66.0074L28.7481 55.8584ZM28.7481 55.8584L37.1217 54.3497" stroke="#6E7E92" stroke-width="0.931754" stroke-linecap="round" stroke-linejoin="round"/>
    <path d="M6.50339 23.3692L2.33691 38.7686C11.86 39.2162 19.766 39.4334 26.5526 38.3513C26.8578 31.4309 26.9198 27.5338 28.7648 20.8627C25.9549 19.7572 8.22348 22.4636 6.50339 23.3692Z" fill="#C9CFDB" stroke="#6E7E92" stroke-width="0.931754" stroke-linecap="round" stroke-linejoin="round"/>
    <path d="M43.7539 34.5036V22.4257L30.4194 22.1787L29.4316 37.5231L43.7539 34.5036Z" fill="#C9CFDB" stroke="#6E7E92" stroke-width="0.931754" stroke-linecap="round" stroke-linejoin="round"/>
    <path d="M53.9044 60.5884C53.9044 60.5884 51.4932 50.0225 45.7158 51.5981C40.5063 53.0189 39.2894 56.4002 38.3493 64.4091C37.7642 65.403 36.8019 65.7384 33.7679 65.8758L27.0332 66.0363V64.157H35.9669C35.8982 52.8357 39.0727 44.7589 50.4442 45.4334V47.1981L49.2301 50.1774L53.697 54.3484H56.3199V55.534L90.8196 50.4591V50.1115L100.339 48.7355L102.598 49.3237V51.9552L104.795 52.2029V53.3793L102.165 53.1936L96.3781 53.7508L93.7788 52.4506L55.9782 59.4181V60.5884H53.9044Z" fill="#9EA9B9" stroke="#6E7E92" stroke-width="0.931754" stroke-linecap="round" stroke-linejoin="round"/>
    <path d="M84.7607 53.2634C84.7607 56.3861 86.1172 58.9175 87.7904 58.9175H92.9543C94.615 58.8902 95.9567 56.3693 95.9567 53.2636C95.9567 50.141 94.6003 47.6096 92.927 47.6096H87.8176L87.7904 47.6094C86.1172 47.6094 84.7607 50.1408 84.7607 53.2634Z" fill="#E0E4EC"/>
    <path d="M92.927 58.9177C92.9361 58.9177 92.9452 58.9176 92.9543 58.9175M92.9543 58.9175C94.615 58.8902 95.9567 56.3693 95.9567 53.2636C95.9567 50.141 94.6003 47.6096 92.927 47.6096H87.8176C87.8086 47.6094 87.7995 47.6094 87.7904 47.6094C86.1172 47.6094 84.7607 50.1408 84.7607 53.2634C84.7607 56.3861 86.1172 58.9175 87.7904 58.9175H92.9543Z" stroke="#6E7E92" stroke-width="0.931754" stroke-linecap="round" stroke-linejoin="round"/>
    <ellipse cx="92.8146" cy="53.6626" rx="1.75502" ry="3.47559" fill="#E0E4EC" stroke="#6E7E92" stroke-width="0.931754" stroke-linecap="round" stroke-linejoin="round"/>
    <path d="M93.4519 48.8127C91.0968 49.4138 90.5916 54.3428 90.5916 54.3428H83.7464C83.7464 54.3428 83.434 51.2738 84.2724 49.6172C85.9737 46.2556 89.3746 46.7465 93.4519 46.6586C97.4173 46.573 97.0191 53.0568 97.0191 53.0568L96.2478 53.3139C96.2478 53.3139 96.6013 48.0089 93.4519 48.8127Z" fill="#9EA9B9" stroke="#6E7E92" stroke-width="0.931754" stroke-linecap="round" stroke-linejoin="round"/>
    <path d="M118.485 49.249C118.485 50.9843 119.239 52.391 120.169 52.391H123.039C123.961 52.3758 124.707 50.9749 124.707 49.2491C124.707 47.5138 123.953 46.1071 123.023 46.1071H120.184L120.169 46.1069C119.239 46.1069 118.485 47.5137 118.485 49.249Z" fill="#E0E4EC"/>
    <path d="M123.023 52.3911C123.029 52.3911 123.034 52.3911 123.039 52.391M123.039 52.391C123.961 52.3758 124.707 50.9749 124.707 49.2491C124.707 47.5138 123.953 46.1071 123.023 46.1071H120.184C120.179 46.107 120.174 46.1069 120.169 46.1069C119.239 46.1069 118.485 47.5137 118.485 49.249C118.485 50.9843 119.239 52.391 120.169 52.391H123.039Z" stroke="#6E7E92" stroke-width="0.931754" stroke-linecap="round" stroke-linejoin="round"/>
    <ellipse cx="122.961" cy="49.4705" rx="0.975285" ry="1.93143" fill="#E0E4EC" stroke="#6E7E92" stroke-width="0.931754" stroke-linecap="round" stroke-linejoin="round"/>
    <path d="M123.315 46.7757C122.006 47.1097 121.725 49.8488 121.725 49.8488H117.921C117.921 49.8488 117.748 48.1434 118.214 47.2228C119.159 45.3547 121.049 45.6275 123.315 45.5786C125.518 45.5311 125.297 49.1342 125.297 49.1342L124.868 49.2771C124.868 49.2771 125.065 46.329 123.315 46.7757Z" fill="#9EA9B9" stroke="#6E7E92" stroke-width="0.931754" stroke-linecap="round" stroke-linejoin="round"/>
    <path d="M141.084 46.5548C141.084 47.6555 141.562 48.5477 142.152 48.5477H143.972C144.557 48.5381 145.03 47.6496 145.03 46.5549C145.03 45.4543 144.552 44.5621 143.962 44.5621H142.161L142.152 44.562C141.562 44.562 141.084 45.4542 141.084 46.5548Z" fill="#E0E4EC"/>
    <path d="M143.962 48.5478C143.965 48.5478 143.969 48.5477 143.972 48.5477M143.972 48.5477C144.557 48.5381 145.03 47.6496 145.03 46.5549C145.03 45.4543 144.552 44.5621 143.962 44.5621H142.161C142.158 44.562 142.155 44.562 142.152 44.562C141.562 44.562 141.084 45.4542 141.084 46.5548C141.084 47.6555 141.562 48.5477 142.152 48.5477H143.972Z" stroke="#6E7E92" stroke-width="0.931754" stroke-linecap="round" stroke-linejoin="round"/>
    <ellipse cx="143.922" cy="46.6957" rx="0.618575" ry="1.22501" fill="#E0E4EC" stroke="#6E7E92" stroke-width="0.931754" stroke-linecap="round" stroke-linejoin="round"/>
    <path d="M144.147 44.9856C143.317 45.1975 143.139 46.9348 143.139 46.9348H140.726C140.726 46.9348 140.616 45.8531 140.912 45.2692C141.511 44.0843 142.71 44.2574 144.147 44.2264C145.545 44.1962 145.404 46.4815 145.404 46.4815L145.132 46.5721C145.132 46.5721 145.257 44.7023 144.147 44.9856Z" fill="#9EA9B9" stroke="#6E7E92" stroke-width="0.931754" stroke-linecap="round" stroke-linejoin="round"/>
    <path d="M137.482 46.9513C137.482 48.2013 138.025 49.2146 138.695 49.2146H140.762C141.427 49.2037 141.964 48.1946 141.964 46.9514C141.964 45.7014 141.421 44.6881 140.751 44.6881H138.706L138.695 44.688C138.025 44.688 137.482 45.7013 137.482 46.9513Z" fill="#E0E4EC"/>
    <path d="M140.751 49.2147C140.755 49.2147 140.759 49.2147 140.762 49.2146M140.762 49.2146C141.427 49.2037 141.964 48.1946 141.964 46.9514C141.964 45.7014 141.421 44.6881 140.751 44.6881H138.706C138.702 44.688 138.699 44.688 138.695 44.688C138.025 44.688 137.482 45.7013 137.482 46.9513C137.482 48.2013 138.025 49.2146 138.695 49.2146H140.762Z" stroke="#6E7E92" stroke-width="0.931754" stroke-linecap="round" stroke-linejoin="round"/>
    <ellipse cx="140.705" cy="47.1095" rx="0.702531" ry="1.39127" fill="#E0E4EC" stroke="#6E7E92" stroke-width="0.931754" stroke-linecap="round" stroke-linejoin="round"/>
    <path d="M140.962 45.1698C140.019 45.4104 139.817 47.3834 139.817 47.3834H137.077C137.077 47.3834 136.951 46.155 137.287 45.4918C137.968 44.1462 139.329 44.3427 140.962 44.3075C142.549 44.2732 142.39 46.8687 142.39 46.8687L142.081 46.9716C142.081 46.9716 142.222 44.848 140.962 45.1698Z" fill="#9EA9B9" stroke="#6E7E92" stroke-width="0.931754" stroke-linecap="round" stroke-linejoin="round"/>
    <path d="M112.502 49.8675C112.502 51.7743 113.33 53.32 114.352 53.32H117.505C118.519 53.3034 119.338 51.7641 119.338 49.8677C119.338 47.9609 118.51 46.4152 117.488 46.4152H114.369L114.352 46.415C113.33 46.415 112.502 47.9608 112.502 49.8675Z" fill="#E0E4EC"/>
    <path d="M117.488 53.3202C117.494 53.3202 117.5 53.3201 117.505 53.32M117.505 53.32C118.519 53.3034 119.338 51.7641 119.338 49.8677C119.338 47.9609 118.51 46.4152 117.488 46.4152H114.369C114.363 46.4151 114.357 46.415 114.352 46.415C113.33 46.415 112.502 47.9608 112.502 49.8675C112.502 51.7743 113.33 53.32 114.352 53.32H117.505Z" stroke="#6E7E92" stroke-width="0.931754" stroke-linecap="round" stroke-linejoin="round"/>
    <ellipse cx="117.419" cy="50.111" rx="1.07166" ry="2.12228" fill="#E0E4EC" stroke="#6E7E92" stroke-width="0.931754" stroke-linecap="round" stroke-linejoin="round"/>
    <path d="M117.809 47.1494C116.371 47.5164 116.062 50.5262 116.062 50.5262H111.882C111.882 50.5262 111.692 48.6522 112.204 47.6407C113.242 45.588 115.319 45.8877 117.809 45.834C120.23 45.7818 119.987 49.7409 119.987 49.7409L119.516 49.898C119.516 49.898 119.732 46.6586 117.809 47.1494Z" fill="#9EA9B9" stroke="#6E7E92" stroke-width="0.931754" stroke-linecap="round" stroke-linejoin="round"/>
    <path d="M133.174 47.3966C133.174 48.7701 133.77 49.8836 134.506 49.8836H136.778C137.508 49.8716 138.098 48.7628 138.098 47.3967C138.098 46.0232 137.502 44.9098 136.766 44.9098H134.518L134.506 44.9097C133.77 44.9097 133.174 46.0231 133.174 47.3966Z" fill="#E0E4EC"/>
    <path d="M136.766 49.8837C136.77 49.8837 136.774 49.8836 136.778 49.8836M136.778 49.8836C137.508 49.8716 138.098 48.7628 138.098 47.3967C138.098 46.0232 137.502 44.9098 136.766 44.9098H134.518C134.514 44.9097 134.51 44.9097 134.506 44.9097C133.77 44.9097 133.174 46.0231 133.174 47.3966C133.174 48.7701 133.77 49.8836 134.506 49.8836H136.778Z" stroke="#6E7E92" stroke-width="0.931754" stroke-linecap="round" stroke-linejoin="round"/>
    <ellipse cx="136.716" cy="47.5712" rx="0.771949" ry="1.52875" fill="#E0E4EC" stroke="#6E7E92" stroke-width="0.931754" stroke-linecap="round" stroke-linejoin="round"/>
    <path d="M136.996 45.4386C135.96 45.703 135.738 47.871 135.738 47.871H132.727C132.727 47.871 132.59 46.5211 132.959 45.7925C133.707 44.3139 135.203 44.5298 136.996 44.4911C138.74 44.4535 138.565 47.3054 138.565 47.3054L138.226 47.4185C138.226 47.4185 138.381 45.0851 136.996 45.4386Z" fill="#9EA9B9" stroke="#6E7E92" stroke-width="0.931754" stroke-linecap="round" stroke-linejoin="round"/>
    <path d="M46.9425 14.0889L47.0608 18.5738L10.8164 20.5371C13.2732 13.831 17.2675 11.1804 27.3743 7.90268C37.4811 4.625 44.6908 3.79053 44.6908 3.79053L46.9425 14.0889Z" fill="#E0E4EC"/>
    <path d="M46.9425 14.0889L47.0608 18.5738L10.8164 20.5371M46.9425 14.0889L10.8164 20.5371M46.9425 14.0889L44.6908 3.79053C44.6908 3.79053 37.4811 4.625 27.3743 7.90268C17.2675 11.1804 13.2732 13.831 10.8164 20.5371" stroke="#6E7E92" stroke-width="0.931754" stroke-linecap="round" stroke-linejoin="round"/>
    <path d="M21.1778 46.1789L2.35059 44.9053L2.96782 52.8179L9.91234 55.3654H20.5606L21.1778 46.1789Z" fill="#C9CFDB" stroke="#6E7E92" stroke-width="0.931754" stroke-linecap="round" stroke-linejoin="round"/>
    <path d="M131.56 45.3096L125.494 46.0258V45.2069L131.56 44.4907V45.3096Z" fill="#9EA9B9"/>
</svg>
