<svg xmlns="http://www.w3.org/2000/svg" width="142" height="74" viewBox="0 0 142 74" fill="none">
    <path d="M42.0897 69.157C41.6644 69.2664 41.2044 69.309 40.7344 69.309L42.0897 69.157C43.4766 68.8004 44.494 67.7339 44.2849 65.1211C44.2849 65.1211 44.2849 51.9885 50.4301 51.6927C54.5909 51.4925 55.7105 54.8336 55.7105 54.8336H64.0862L137.966 54.1708V56.8868L116.044 58.8268V60.8638L42.0897 69.157Z" fill="#6E7E92"/>
    <path d="M40.7344 69.309C42.7373 69.309 44.5581 68.5352 44.2849 65.1211C44.2849 65.1211 44.2849 51.9885 50.4301 51.6927C54.5909 51.4925 55.7105 54.8336 55.7105 54.8336H64.0862L137.966 54.1708V56.8868L116.044 58.8268V60.8638L40.7344 69.309Z" stroke="#6E7E92" stroke-width="0.931754" stroke-linecap="round" stroke-linejoin="round"/>
    <path d="M116.044 58.8269V60.8639L82.5 64.6255L83 54.664L137.966 54.1709V56.8869L116.044 58.8269Z" fill="#9EA9B9" stroke="#6E7E92" stroke-width="0.931754" stroke-linecap="round" stroke-linejoin="round"/>
    <path d="M65.1338 1L140.665 24.6059V54.206L65.1338 54.8562V1Z" fill="#E0E4EC" stroke="#6E7E92" stroke-width="0.931754" stroke-linecap="round" stroke-linejoin="round"/>
    <path d="M65.1333 1.09229L25.5981 4.15129L25.5982 54.0398L65.1333 54.8565V1.09229Z" fill="#E0E4EC" stroke="#6E7E92" stroke-width="0.931754" stroke-linecap="round" stroke-linejoin="round"/>
    <path d="M47.1043 55.9326C43.9714 55.9326 41.4316 59.7414 41.4316 64.4398C41.4316 69.1328 43.9655 72.9382 47.0934 72.947H50.509C53.6419 72.947 56.1817 69.1382 56.1817 64.4398C56.1817 59.7414 53.6419 55.9326 50.509 55.9326L47.1043 55.9326Z" fill="#E0E4EC"/>
    <path d="M47.1043 72.9471C47.1007 72.9471 47.097 72.9471 47.0934 72.947M47.0934 72.947C43.9655 72.9382 41.4316 69.1328 41.4316 64.4398C41.4316 59.7414 43.9714 55.9326 47.1043 55.9326L50.509 55.9326C53.6419 55.9326 56.1817 59.7414 56.1817 64.4398C56.1817 69.1382 53.6419 72.947 50.509 72.947H47.0934Z" stroke="#6E7E92" stroke-width="0.931754" stroke-linecap="round" stroke-linejoin="round"/>
    <path d="M77.6559 54.9087C75.0748 54.9087 72.9824 58.0466 72.9824 61.9174C72.9824 65.7838 75.0699 68.9189 77.6469 68.9262L82.7467 68.9262C85.3278 68.9262 87.4202 65.7882 87.4202 61.9174C87.4202 58.0466 85.3278 54.9087 82.7467 54.9087L77.6559 54.9087Z" fill="#E0E4EC"/>
    <path d="M77.6559 68.9262C77.6529 68.9262 77.6499 68.9262 77.6469 68.9262M77.6469 68.9262C75.0699 68.9189 72.9824 65.7838 72.9824 61.9174C72.9824 58.0466 75.0748 54.9087 77.6559 54.9087L82.7467 54.9087C85.3278 54.9087 87.4202 58.0466 87.4202 61.9174C87.4202 65.7882 85.3278 68.9262 82.7467 68.9262L77.6469 68.9262Z" stroke="#6E7E92" stroke-width="0.931754" stroke-linecap="round" stroke-linejoin="round"/>
    <path d="M16.8154 55.3579C13.9367 55.3579 11.603 58.8577 11.603 63.1748C11.603 67.4869 13.9313 70.9836 16.8054 70.9917H19.9438C22.8225 70.9917 25.1561 67.4919 25.1561 63.1748C25.1561 58.8577 22.8225 55.3579 19.9438 55.3579L16.8154 55.3579Z" fill="#E0E4EC"/>
    <path d="M16.8154 70.9917C16.8121 70.9917 16.8087 70.9917 16.8054 70.9917M16.8054 70.9917C13.9313 70.9836 11.603 67.4869 11.603 63.1748C11.603 58.8577 13.9367 55.3579 16.8154 55.3579L19.9438 55.3579C22.8225 55.3579 25.1561 58.8577 25.1561 63.1748C25.1561 67.4919 22.8225 70.9917 19.9438 70.9917H16.8054Z" stroke="#6E7E92" stroke-width="0.931754" stroke-linecap="round" stroke-linejoin="round"/>
    <ellipse cx="50.5086" cy="64.4396" rx="3.96712" ry="5.9494" fill="#E0E4EC" stroke="#6E7E92" stroke-width="0.931754" stroke-linecap="round" stroke-linejoin="round"/>
    <ellipse cx="83.7039" cy="61.9172" rx="3.26834" ry="5.48356" fill="#E0E4EC" stroke="#6E7E92" stroke-width="0.931754" stroke-linecap="round" stroke-linejoin="round"/>
    <path d="M127.109 54.9087C125.808 54.9087 124.753 56.4907 124.753 58.4423C124.753 60.3915 125.805 61.9721 127.105 61.9758L129.676 61.9758C130.977 61.9758 132.032 60.3938 132.032 58.4423C132.032 56.4907 130.977 54.9087 129.676 54.9087L127.109 54.9087Z" fill="#E0E4EC"/>
    <path d="M127.109 61.9758C127.108 61.9758 127.106 61.9758 127.105 61.9758M127.105 61.9758C125.805 61.9721 124.753 60.3915 124.753 58.4423C124.753 56.4907 125.808 54.9087 127.109 54.9087L129.676 54.9087C130.977 54.9087 132.032 56.4907 132.032 58.4423C132.032 60.3938 130.977 61.9758 129.676 61.9758L127.105 61.9758Z" stroke="#6E7E92" stroke-width="0.931754" stroke-linecap="round" stroke-linejoin="round"/>
    <ellipse cx="130.159" cy="58.4419" rx="1.64778" ry="2.76462" fill="#E0E4EC" stroke="#6E7E92" stroke-width="0.931754" stroke-linecap="round" stroke-linejoin="round"/>
    <path d="M121.776 54.9087C120.318 54.9087 119.137 56.6806 119.137 58.8663C119.137 61.0494 120.315 62.8197 121.771 62.8238L124.65 62.8238C126.108 62.8238 127.289 61.0519 127.289 58.8662C127.289 56.6805 126.108 54.9087 124.65 54.9087L121.776 54.9087Z" fill="#E0E4EC"/>
    <path d="M121.776 62.8238C121.774 62.8238 121.772 62.8238 121.771 62.8238M121.771 62.8238C120.315 62.8197 119.137 61.0494 119.137 58.8663C119.137 56.6806 120.318 54.9087 121.776 54.9087L124.65 54.9087C126.108 54.9087 127.289 56.6805 127.289 58.8662C127.289 61.0519 126.108 62.8238 124.65 62.8238L121.771 62.8238Z" stroke="#6E7E92" stroke-width="0.931754" stroke-linecap="round" stroke-linejoin="round"/>
    <ellipse cx="125.191" cy="58.8664" rx="1.8455" ry="3.09635" fill="#E0E4EC" stroke="#6E7E92" stroke-width="0.931754" stroke-linecap="round" stroke-linejoin="round"/>
    <path d="M115.32 54.9087C113.684 54.9087 112.358 56.8969 112.358 59.3494C112.358 61.7991 113.681 63.7855 115.314 63.7901L118.545 63.7901C120.18 63.7901 121.506 61.8019 121.506 59.3494C121.506 56.8969 120.18 54.9087 118.545 54.9087L115.32 54.9087Z" fill="#E0E4EC"/>
    <path d="M115.32 63.7901C115.318 63.7901 115.316 63.7901 115.314 63.7901M115.314 63.7901C113.681 63.7855 112.358 61.7991 112.358 59.3494C112.358 56.8969 113.684 54.9087 115.32 54.9087L118.545 54.9087C120.18 54.9087 121.506 56.8969 121.506 59.3494C121.506 61.8019 120.18 63.7901 118.545 63.7901L115.314 63.7901Z" stroke="#6E7E92" stroke-width="0.931754" stroke-linecap="round" stroke-linejoin="round"/>
    <ellipse cx="119.152" cy="59.3494" rx="2.07081" ry="3.47436" fill="#E0E4EC" stroke="#6E7E92" stroke-width="0.931754" stroke-linecap="round" stroke-linejoin="round"/>
    <ellipse cx="50.7632" cy="64.4394" rx="1.42771" ry="2.52245" fill="#E0E4EC" stroke="#6E7E92" stroke-width="0.931754" stroke-linecap="round" stroke-linejoin="round"/>
    <path d="M110.256 55.1719H105.845V57.7249V58.8474V59.9699L110.256 59.8028V58.6427V57.6187V55.1719Z" fill="#E0E4EC"/>
    <path d="M97.4346 57.9274V59.2448L105.845 58.8474V57.7249L97.4346 57.9274Z" fill="#E0E4EC"/>
    <path d="M116.297 58.359V57.4733L110.256 57.6187V58.6427L116.297 58.359Z" fill="#E0E4EC"/>
    <path d="M105.845 57.7249V55.1719H110.256V57.6187M105.845 57.7249V58.8474M105.845 57.7249L97.4346 57.9274V59.2448L105.845 58.8474M105.845 58.8474V59.9699L110.256 59.8028V58.6427M110.256 57.6187V58.6427M110.256 57.6187L116.297 57.4733V58.359L110.256 58.6427" stroke="#6E7E92" stroke-width="0.931754" stroke-linecap="round" stroke-linejoin="round"/>
    <path d="M77.3284 66.3502C79.6975 66.3502 79.3658 56.3998 77.3284 56.3998L59.5547 56.147V67.368L77.3284 66.3502Z" fill="#9EA9B9" stroke="#6E7E92" stroke-width="0.931754" stroke-linecap="round" stroke-linejoin="round"/>
    <path d="M74.2285 56.3994C76.2659 56.3994 76.5976 66.3498 74.2285 66.3498" stroke="#6E7E92" stroke-width="0.931754" stroke-linecap="round" stroke-linejoin="round"/>
    <path d="M70.1846 56.3994C72.222 56.3994 72.5537 66.3498 70.1846 66.3498" stroke="#6E7E92" stroke-width="0.931754" stroke-linecap="round" stroke-linejoin="round"/>
    <path d="M59.5547 57.4497L69.1911 57.4497V66.8406L59.5547 67.3678V57.4497Z" fill="#9EA9B9" stroke="#6E7E92" stroke-width="0.931754" stroke-linecap="round" stroke-linejoin="round"/>
    <path d="M33.3484 10.5977C22.2112 12.6865 16.0157 13.6607 5.02089 15.1783L2.47505 34.4264L1.54382 51.4123L1.91632 61.1718C0.61256 62.0286 0.389029 66.3496 1.91632 66.7593C15.1609 68.5159 23.8592 68.9965 40.7341 69.3091C42.737 69.3091 44.5578 68.5353 44.2846 65.1213C44.2846 65.1213 44.2846 51.9886 50.4298 51.6928C54.5906 51.4926 55.7102 54.8337 55.7102 54.8337H64.0859V21.1034C64.0859 21.1034 63.4094 4.62832 61.4457 3.39605C57.6168 0.993336 49.8836 2.84983 49.8836 2.84983L33.3484 10.5977Z" fill="#9EA9B9"/>
    <path d="M33.3484 10.5977C22.2112 12.6865 16.0157 13.6607 5.02089 15.1783L2.47505 34.4264L1.54382 51.4123L1.91632 61.1718C0.61256 62.0286 0.389029 66.3496 1.91632 66.7593C15.1609 68.5159 23.8592 68.9965 40.7341 69.3091C42.737 69.3091 44.5578 68.5353 44.2846 65.1212C44.2846 65.1212 44.2846 51.9886 50.4298 51.6928C54.5906 51.4926 55.7102 54.8337 55.7102 54.8337H64.0859V21.1034C64.0859 21.1034 63.4094 4.62832 61.4457 3.39605C57.6168 0.993336 49.8836 2.84983 49.8836 2.84983L33.3484 10.5977ZM33.3484 10.5977C42.1232 10.4368 48.4259 12.2512 59.603 15.3972" stroke="#6E7E92" stroke-width="0.931754" stroke-linecap="round" stroke-linejoin="round"/>
    <path d="M29.1362 35.6143C18.2851 36.8066 12.6929 37.1269 3.53027 37.1316C4.47403 56.0718 3.37908 60.6816 14.6789 61.6489C28.2059 62.8068 24.6285 54.7794 29.1362 35.6143Z" fill="#E0E4EC" stroke="#6E7E92" stroke-width="0.931754" stroke-linecap="round" stroke-linejoin="round"/>
    <path d="M35.1843 29.6864C31.0299 33.5214 4.24838 35.3101 2.6543 33.0711L4.56117 18.654L36.1337 14.6538L35.1843 29.6864Z" fill="#C9CFDB"/>
    <path d="M37.9535 15.9988L37.4788 29.9632L48.5949 30.4379L48.3576 18.0559L37.9535 15.9988Z" fill="#C9CFDB"/>
    <path d="M35.1843 29.6864C31.0299 33.5214 4.24838 35.3101 2.6543 33.0711L4.56117 18.654L36.1337 14.6538L35.1843 29.6864Z" stroke="#6E7E92" stroke-width="0.931754" stroke-linecap="round" stroke-linejoin="round"/>
    <path d="M37.9535 15.9988L37.4788 29.9632L48.5949 30.4379L48.3576 18.0559L37.9535 15.9988Z" stroke="#6E7E92" stroke-width="0.931754" stroke-linecap="round" stroke-linejoin="round"/>
    <path d="M33.3485 10.598C22.2113 12.6868 16.0158 13.661 5.021 15.1785C7.76976 3.82235 11.5515 5.7435 23.0412 3.01008C33.6712 0.481205 41.2323 -0.0349393 52.7022 3.65307C59.04 5.14176 59.2818 9.54525 59.5959 15.2652L59.6031 15.3974L59.1035 15.2568C48.2364 12.1974 41.9917 10.4394 33.3485 10.598Z" fill="#9EA9B9" stroke="#6E7E92" stroke-width="0.931754" stroke-linecap="round" stroke-linejoin="round"/>
</svg>
