<svg width="225" height="93" viewBox="0 0 225 93" fill="none" xmlns="http://www.w3.org/2000/svg">
<mask id="mask0" mask-type="alpha" maskUnits="userSpaceOnUse" x="0" y="0" width="225" height="93">
<rect width="225" height="93" fill="#C4C4C4"/>
</mask>
<g mask="url(#mask0)">
<path d="M93.8667 39.8273L104.544 39.8273L102.179 37.2655C102.017 37.0897 101.926 36.8513 101.926 36.6027C101.926 36.354 102.017 36.1156 102.179 35.9398L102.792 35.2757C102.873 35.1883 102.968 35.119 103.074 35.0716C103.179 35.0243 103.292 35 103.405 35C103.519 35 103.632 35.0243 103.737 35.0716C103.843 35.119 103.938 35.1883 104.018 35.2757L108.903 40.5706C109.065 40.7464 109.156 40.9849 109.156 41.2335C109.156 41.4821 109.065 41.7206 108.903 41.8964L104.016 47.1909C103.935 47.2783 103.84 47.3477 103.734 47.395C103.629 47.4423 103.516 47.4667 103.403 47.4667C103.289 47.4667 103.176 47.4423 103.071 47.395C102.966 47.3477 102.87 47.2783 102.79 47.1909L102.177 46.5269C102.014 46.3511 101.923 46.1126 101.923 45.864C101.923 45.6154 102.014 45.3769 102.177 45.2011L104.541 42.6398L93.8667 42.6398C93.6372 42.6398 93.4171 42.541 93.2548 42.3652C93.0925 42.1894 93.0014 41.9509 93.0014 41.7023L93.0014 40.7648C93.0014 40.5161 93.0925 40.2777 93.2548 40.1018C93.4171 39.926 93.6372 39.8273 93.8667 39.8273Z" fill="#E3EEFF"/>
<path d="M46.4999 29.4876C37.2084 29.4876 29.6269 25.892 29.057 21.3158H29V62.2562C29 67.0775 36.8095 71 46.5 71C56.1905 71 64 67.0775 64 62.2562V21.3158H63.943C63.3728 25.892 55.7914 29.4876 46.4999 29.4876Z" fill="#E3EEFF" stroke="#8FADC8"/>
<path d="M46.5 29.4875C55.7915 29.4875 63.373 25.8919 63.9429 21.3158C63.9999 21.1523 63.9999 20.9072 63.9999 20.7438C64 15.9225 56.1905 12 46.5 12C36.8095 12 29 15.9225 29 20.7438C29 20.9072 29 21.1523 29.057 21.3158C29.627 25.8919 37.2085 29.4875 46.5 29.4875Z" fill="#BBD6FF" stroke="#8FADC8"/>
<path d="M174.513 40.4999C174.513 31.2084 178.108 23.6269 182.685 23.057L182.685 23L141.744 23C136.923 23 133 30.8095 133 40.5C133 50.1905 136.923 58 141.744 58L182.685 58L182.685 57.943C178.108 57.3728 174.513 49.7914 174.513 40.4999Z" fill="#E3EEFF" stroke="#8FADC8"/>
<path d="M174.512 40.5C174.512 49.7915 178.108 57.373 182.684 57.9429C182.848 57.9999 183.093 57.9999 183.256 57.9999C188.077 58 192 50.1905 192 40.5C192 30.8095 188.077 23 183.256 23C183.093 23 182.848 23 182.684 23.057C178.108 23.627 174.512 31.2085 174.512 40.5Z" fill="#BBD6FF" stroke="#8FADC8"/>
</g>
</svg>
