<svg width="105" height="105" viewBox="0 0 105 105" fill="none" xmlns="http://www.w3.org/2000/svg">
<mask id="mask0" mask-type="alpha" maskUnits="userSpaceOnUse" x="0" y="0" width="105" height="105">
<rect width="105" height="105" fill="#C4C4C4"/>
</mask>
<g mask="url(#mask0)">
<path d="M54.6027 74.9032C42.6019 74.9032 32.8097 71.6636 32.0736 67.5406H32V82.1221C32 86.4659 42.0867 90 54.6029 90C67.1191 90 77.2057 86.4659 77.2057 82.1221V67.5406H77.1322C76.3957 71.6636 66.6036 74.9032 54.6027 74.9032Z" fill="#E3EEFF" stroke="#8FADC8"/>
<path d="M54.6029 74.9032C66.6037 74.9032 76.3959 71.6636 77.132 67.5407C77.2056 67.3934 77.2056 67.1726 77.2056 67.0253C77.2057 62.6815 67.1191 59.1475 54.6029 59.1475C42.0867 59.1475 32 62.6815 32 67.0253C32 67.1726 32 67.3934 32.0736 67.5407C32.8099 71.6636 42.602 74.9032 54.6029 74.9032Z" fill="#E3EEFF" stroke="#8FADC8"/>
<path d="M54.6027 59.5866C42.6019 59.5866 32.8097 56.3471 32.0736 52.2241H32V66.8056C32 71.1494 42.0867 74.6834 54.6029 74.6834C67.1191 74.6834 77.2057 71.1494 77.2057 66.8056V52.2241H77.1322C76.3957 56.3471 66.6036 59.5866 54.6027 59.5866Z" fill="#E3EEFF" stroke="#8FADC8"/>
<path d="M54.6029 59.5868C66.6037 59.5868 76.3959 56.3472 77.132 52.2243C77.2056 52.077 77.2056 51.8562 77.2056 51.7089C77.2057 47.3651 67.1191 43.8311 54.6029 43.8311C42.0867 43.8311 32 47.3651 32 51.7089C32 51.8562 32 52.077 32.0736 52.2243C32.8099 56.3472 42.602 59.5868 54.6029 59.5868Z" fill="#E3EEFF" stroke="#8FADC8"/>
<path d="M54.6027 45.1711C42.6019 45.1711 32.8097 41.9316 32.0736 37.8086H32V52.3901C32 56.7339 42.0867 60.2679 54.6029 60.2679C67.1191 60.2679 77.2057 56.7339 77.2057 52.3901V37.8086H77.1322C76.3957 41.9316 66.6036 45.1711 54.6027 45.1711Z" fill="#E3EEFF" stroke="#8FADC8"/>
<path d="M54.6029 45.1712C66.6037 45.1712 76.3959 41.9317 77.132 37.8087C77.2056 37.6615 77.2056 37.4406 77.2056 37.2934C77.2057 32.9496 67.1191 29.4155 54.6029 29.4155C42.0867 29.4155 32 32.9496 32 37.2934C32 37.4406 32 37.6615 32.0736 37.8087C32.8099 41.9317 42.602 45.1712 54.6029 45.1712Z" fill="#E3EEFF" stroke="#8FADC8"/>
<path d="M54.6027 30.7557C42.6019 30.7557 32.8097 27.5162 32.0736 23.3932H32V37.9747C32 42.3185 42.0867 45.8525 54.6029 45.8525C67.1191 45.8525 77.2057 42.3185 77.2057 37.9747V23.3932H77.1322C76.3957 27.5162 66.6036 30.7557 54.6027 30.7557Z" fill="#BBD6FF" stroke="#8FADC8"/>
<path d="M54.6029 30.7557C66.6037 30.7557 76.3959 27.5162 77.132 23.3932C77.2056 23.2459 77.2056 23.0251 77.2056 22.8779C77.2057 18.5341 67.1191 15 54.6029 15C42.0867 15 32 18.5341 32 22.8779C32 23.0251 32 23.2459 32.0736 23.3932C32.8099 27.5162 42.602 30.7557 54.6029 30.7557Z" fill="#BBD6FF" stroke="#8FADC8"/>
<path d="M54.288 77.8973V83.4973H53.248V78.7693H52.064V77.8973H54.288Z" fill="#8FADC8"/>
<path d="M56.408 68.9388V69.8188H52.28V69.1228L54.504 67.0108C54.7547 66.7708 54.9227 66.5628 55.008 66.3868C55.0987 66.2055 55.144 66.0268 55.144 65.8508C55.144 65.5895 55.056 65.3895 54.88 65.2508C54.704 65.1122 54.4453 65.0428 54.104 65.0428C53.5333 65.0428 53.096 65.2375 52.792 65.6268L52.064 65.0668C52.2827 64.7735 52.576 64.5468 52.944 64.3868C53.3173 64.2215 53.7333 64.1388 54.192 64.1388C54.8 64.1388 55.2853 64.2828 55.648 64.5708C56.0107 64.8588 56.192 65.2508 56.192 65.7468C56.192 66.0508 56.128 66.3362 56 66.6028C55.872 66.8695 55.6267 67.1735 55.264 67.5148L53.768 68.9388H56.408Z" fill="#8FADC8"/>
<path d="M54.736 51.7999C55.2533 51.8639 55.648 52.0399 55.92 52.3279C56.192 52.6159 56.328 52.9759 56.328 53.4079C56.328 53.7332 56.2453 54.0292 56.08 54.2959C55.9147 54.5626 55.664 54.7759 55.328 54.9359C54.9973 55.0906 54.592 55.1679 54.112 55.1679C53.712 55.1679 53.3253 55.1119 52.952 54.9999C52.584 54.8826 52.2693 54.7226 52.008 54.5199L52.456 53.7119C52.6587 53.8826 52.904 54.0186 53.192 54.1199C53.4853 54.2159 53.7867 54.2639 54.096 54.2639C54.464 54.2639 54.752 54.1892 54.96 54.0399C55.1733 53.8852 55.28 53.6772 55.28 53.4159C55.28 53.1546 55.1787 52.9519 54.976 52.8079C54.7787 52.6586 54.4747 52.5839 54.064 52.5839H53.552V51.8719L54.824 50.3599H52.28V49.4879H56.096V50.1839L54.736 51.7999Z" fill="#8FADC8"/>
<path d="M56.344 40.1377H55.352V41.4097H54.344V40.1377H51.272V39.4177L54.032 35.8097H55.144L52.544 39.2577H54.376V38.1297H55.352V39.2577H56.344V40.1377Z" fill="#8FADC8"/>
</g>
</svg>
