<svg width="22" height="31" viewBox="0 0 22 31" fill="none" xmlns="http://www.w3.org/2000/svg">
<path d="M20.7552 19.4146V10.2917C21.0554 10.1172 21.3657 9.84552 21.3657 9.44961C21.3657 9.03156 21.0255 8.76134 20.7552 8.60678V2.32398V2.32392V2.32387C20.7552 0.373538 12.6853 0.211426 10.7375 0.211426C9.55436 0.211426 8.39737 0.248498 7.29884 0.321648C7.05678 0.337754 6.87359 0.547071 6.88975 0.789069C6.9058 1.03118 7.11699 1.21438 7.35717 1.19816C8.43644 1.12635 9.57374 1.08993 10.7375 1.08993C13.107 1.08993 15.3727 1.24278 17.1172 1.52051C19.1186 1.83899 19.6911 2.1952 19.8394 2.32392C19.6911 2.45265 19.1185 2.8088 17.1172 3.12734C15.3727 3.40501 13.107 3.55792 10.7375 3.55792C8.36809 3.55792 6.10238 3.40506 4.35786 3.12734C2.34475 2.80692 1.77729 2.44844 1.6331 2.3217C1.85976 2.11584 2.85914 1.66118 5.61581 1.35172C5.85687 1.32466 6.03034 1.10726 6.00329 0.866201C5.97629 0.625141 5.7593 0.451725 5.51777 0.478724C4.16523 0.630529 3.03103 0.841954 2.23763 1.09016C1.58607 1.29397 0.719932 1.64361 0.719932 2.32387V2.32398V2.32404V8.60678C0.449647 8.76134 0.109375 9.03156 0.109375 9.44961C0.109375 9.84552 0.419602 10.1173 0.719932 10.2917V19.4145C0.449588 19.569 0.109375 19.8392 0.109375 20.2574C0.109375 20.6533 0.419602 20.925 0.719932 21.0995V28.099C0.719932 30.0494 8.77156 30.2114 10.7375 30.2114C12.7035 30.2114 20.7552 30.0493 20.7552 28.099V21.0996C21.0554 20.925 21.3657 20.6534 21.3657 20.2574C21.3657 19.8393 21.0255 19.5692 20.7552 19.4146ZM1.59843 10.6513C3.95158 11.3811 8.21751 11.5621 10.7375 11.5621C13.2884 11.5621 17.543 11.3751 19.8767 10.6513V20.5328C17.7531 21.3075 13.1177 21.4914 10.7375 21.4914C8.36077 21.4914 3.72282 21.3078 1.59843 20.5328V10.6513ZM10.7375 4.43636C13.0665 4.43636 17.9133 4.22828 19.8767 3.31973V9.72499C17.7532 10.4997 13.117 10.6836 10.7375 10.6836C8.35573 10.6836 3.71878 10.4985 1.59843 9.72499V3.31973C3.57892 4.23624 8.41863 4.43636 10.7375 4.43636ZM17.1172 28.9025C15.3727 29.1801 13.1069 29.333 10.7375 29.333C8.36803 29.333 6.10232 29.1801 4.35774 28.9025C2.11107 28.5449 1.6649 28.1399 1.59837 28.0624V21.4591C3.93946 22.1853 8.18519 22.3699 10.7375 22.3699C13.2883 22.3699 17.543 22.1829 19.8766 21.4591V28.0624C19.8101 28.1399 19.364 28.5449 17.1172 28.9025Z" fill="#9FB1C1"/>
</svg>
