<svg width="105" height="105" viewBox="0 0 105 105" fill="none" xmlns="http://www.w3.org/2000/svg">
<mask id="mask0" mask-type="alpha" maskUnits="userSpaceOnUse" x="0" y="0" width="105" height="105">
<rect width="105" height="105" fill="#C4C4C4"/>
</mask>
<g mask="url(#mask0)">
<path opacity="0.4" d="M18.1499 89.6123L18.5329 14.7692C18.5389 13.6673 18.8399 12.6127 19.3717 11.831C19.9035 11.0492 20.6237 10.6025 21.3782 10.5864L35.4892 10.4396C35.8597 10.4383 36.2266 10.5448 36.5686 10.7527C36.9105 10.9606 37.2207 11.2659 37.4811 11.6507C37.7414 12.0356 37.9467 12.4922 38.0849 12.9941C38.2231 13.496 38.2915 14.033 38.2862 14.5739L38.2289 24.9653L27.6706 25.0965C27.481 25.0979 27.2995 25.2087 27.1656 25.4049C27.0318 25.601 26.9565 25.8665 26.9563 26.1434L26.9432 28.2204C26.9423 28.3556 26.9597 28.4897 26.9946 28.6149C27.0294 28.7401 27.081 28.854 27.1463 28.9498C27.2115 29.0457 27.2892 29.1216 27.3748 29.1733C27.4603 29.2249 27.5521 29.2511 27.6446 29.2505L38.2077 29.1384L38.1654 37.453L33.2389 37.5073C33.0493 37.5086 32.8677 37.6195 32.7339 37.8156C32.6 38.0118 32.5248 38.2773 32.5245 38.5542L32.5115 40.6312C32.5103 40.7664 32.5276 40.9007 32.5624 41.0261C32.5971 41.1515 32.6487 41.2655 32.714 41.3614C32.7793 41.4573 32.8571 41.5333 32.9428 41.5848C33.0284 41.6363 33.1203 41.6623 33.2129 41.6613L38.1494 41.5973L38.1064 49.9113L27.5264 50.0242C27.3368 50.0255 27.1552 50.1364 27.0214 50.3325C26.8875 50.5286 26.8123 50.7942 26.812 51.0711L26.799 53.148C26.798 53.2832 26.8155 53.4173 26.8503 53.5425C26.8852 53.6678 26.9367 53.7816 27.002 53.8775C27.0673 53.9733 27.145 54.0493 27.2305 54.1009C27.3161 54.1525 27.4078 54.1788 27.5004 54.1781L38.0848 54.0539L38.0398 62.3677L33.1124 62.4348C32.9228 62.4361 32.7412 62.5469 32.6073 62.7431C32.4735 62.9392 32.3982 63.2047 32.398 63.4816L32.385 65.5586C32.3838 65.6939 32.401 65.8281 32.4358 65.9535C32.4706 66.0789 32.5221 66.1929 32.5875 66.2889C32.6528 66.3848 32.7305 66.4607 32.8162 66.5122C32.9019 66.5637 32.9937 66.5897 33.0864 66.5887L38.0195 66.528L37.9773 74.8426L27.4043 74.9614C27.2147 74.9627 27.0331 75.0736 26.8992 75.2697C26.7654 75.4659 26.6901 75.7314 26.6899 76.0083L26.6769 78.0853C26.6757 78.2205 26.6929 78.3548 26.7277 78.4802C26.7625 78.6056 26.814 78.7196 26.8793 78.8155C26.9447 78.9114 27.0224 78.9874 27.1081 79.0389C27.1938 79.0903 27.2856 79.1163 27.3783 79.1153L37.9573 79.0047L37.9032 89.3987C37.8972 90.5006 37.5961 91.5552 37.0643 92.337C36.5325 93.1187 35.8123 93.5654 35.0578 93.5815L20.9569 93.7368C20.5858 93.7418 20.2179 93.6384 19.8746 93.4325C19.5313 93.2267 19.2198 92.9227 18.9582 92.5383C18.6966 92.154 18.4904 91.6971 18.3516 91.1946C18.2128 90.692 18.1442 90.154 18.1499 89.6123Z" fill="#BBD6FF"/>
<path d="M38.0427 29.1358L38.0621 24.9672L27.5039 25.0985C27.3143 25.0998 27.1327 25.2106 26.9989 25.4068C26.865 25.6029 26.7898 25.8684 26.7895 26.1453L26.7765 28.2223C26.7755 28.3575 26.793 28.4916 26.8278 28.6168C26.8627 28.742 26.9143 28.8559 26.9795 28.9518C27.0448 29.0476 27.1225 29.1236 27.208 29.1752C27.2936 29.2268 27.3853 29.253 27.4779 29.2524L38.0427 29.1358ZM37.9173 54.0551L37.9381 49.9119L27.3573 50.0241C27.1677 50.0255 26.9862 50.1363 26.8523 50.3325C26.7185 50.5286 26.6432 50.7941 26.643 51.071L26.6299 53.148C26.629 53.2832 26.6464 53.4173 26.6813 53.5425C26.7161 53.6677 26.7677 53.7816 26.833 53.8774C26.8982 53.9733 26.9759 54.0492 27.0615 54.1009C27.147 54.1525 27.2388 54.1787 27.3313 54.1781L37.9173 54.0551ZM37.9804 41.5973L38.0005 37.4504L33.074 37.5047C32.8844 37.506 32.7028 37.6169 32.569 37.813C32.4351 38.0092 32.3598 38.2747 32.3596 38.5516L32.3466 40.6286C32.3454 40.7638 32.3627 40.8981 32.3974 41.0235C32.4322 41.1489 32.4837 41.2629 32.5491 41.3588C32.6144 41.4547 32.6922 41.5307 32.7778 41.5821C32.8635 41.6336 32.9553 41.6596 33.048 41.6586L37.9804 41.5973ZM27.2103 79.1177L37.7918 79.0061L37.8082 74.8425L27.2344 74.9607C27.0448 74.962 26.8633 75.0729 26.7294 75.269C26.5956 75.4652 26.5203 75.7307 26.5201 76.0076L26.507 78.0846C26.5058 78.2198 26.5231 78.3541 26.5579 78.4795C26.5926 78.6049 26.6442 78.7189 26.7095 78.8148C26.7748 78.9107 26.8526 78.9867 26.9383 79.0381C27.0239 79.0896 27.1158 79.1156 27.2084 79.1146L27.2103 79.1177ZM37.8544 66.5312L37.8707 62.3676L32.9433 62.4347C32.7537 62.436 32.5721 62.5469 32.4383 62.743C32.3044 62.9392 32.2292 63.2047 32.2289 63.4816L32.2159 65.5586C32.2147 65.6938 32.232 65.8281 32.2668 65.9535C32.3015 66.0789 32.3531 66.1929 32.4184 66.2888C32.4837 66.3847 32.5615 66.4607 32.6472 66.5122C32.7328 66.5636 32.8247 66.5897 32.9173 66.5887L37.8544 66.5312Z" fill="#BBD6FF"/>
<g clip-path="url(#clip0)">
<path d="M48.8419 28.3206L42.717 28.3206L44.0734 29.8042C44.1665 29.9061 44.2188 30.0442 44.2188 30.1882C44.2188 30.3321 44.1665 30.4702 44.0734 30.5721L43.7218 30.9567C43.6757 31.0073 43.6209 31.0474 43.5605 31.0748C43.5002 31.1022 43.4355 31.1164 43.3702 31.1164C43.3048 31.1164 43.2401 31.1022 43.1798 31.0748C43.1194 31.0474 43.0646 31.0073 43.0185 30.9567L40.2167 27.8901C40.1236 27.7883 40.0713 27.6502 40.0713 27.5062C40.0713 27.3622 40.1236 27.2241 40.2167 27.1223L43.0202 24.0559C43.0663 24.0053 43.1211 23.9652 43.1814 23.9378C43.2418 23.9103 43.3065 23.8962 43.3718 23.8962C43.4371 23.8962 43.5018 23.9103 43.5622 23.9378C43.6225 23.9652 43.6773 24.0053 43.7234 24.0559L44.0751 24.4405C44.1682 24.5424 44.2204 24.6804 44.2204 24.8244C44.2204 24.9684 44.1682 25.1065 44.0751 25.2084L42.7186 26.6918L48.8419 26.6918C48.9735 26.6918 49.0998 26.749 49.1929 26.8508C49.286 26.9526 49.3383 27.0907 49.3383 27.2347L49.3383 27.7777C49.3383 27.9217 49.286 28.0598 49.1929 28.1616C49.0998 28.2634 48.9735 28.3206 48.8419 28.3206Z" fill="#8FADC8"/>
</g>
<path d="M66.4162 73.9032C54.4154 73.9032 44.6232 70.6636 43.887 66.5406H43.8135V81.1221C43.8135 85.4659 53.9002 89 66.4163 89C78.9325 89 89.0192 85.4659 89.0192 81.1221V66.5406H88.9456C88.2092 70.6636 78.417 73.9032 66.4162 73.9032Z" fill="#E3EEFF" stroke="#8FADC8"/>
<path d="M66.4163 73.9032C78.4172 73.9032 88.2093 70.6636 88.9455 66.5407C89.0191 66.3934 89.0191 66.1726 89.0191 66.0253C89.0192 61.6815 78.9325 58.1475 66.4163 58.1475C53.9002 58.1475 43.8135 61.6815 43.8135 66.0253C43.8135 66.1726 43.8135 66.3934 43.887 66.5407C44.6234 70.6636 54.4155 73.9032 66.4163 73.9032Z" fill="#E3EEFF" stroke="#8FADC8"/>
<path d="M66.4162 58.5866C54.4154 58.5866 44.6232 55.3471 43.887 51.2241H43.8135V65.8056C43.8135 70.1494 53.9002 73.6834 66.4163 73.6834C78.9325 73.6834 89.0192 70.1494 89.0192 65.8056V51.2241H88.9456C88.2092 55.3471 78.417 58.5866 66.4162 58.5866Z" fill="#E3EEFF" stroke="#8FADC8"/>
<path d="M66.4163 58.5868C78.4172 58.5868 88.2093 55.3472 88.9455 51.2243C89.0191 51.077 89.0191 50.8562 89.0191 50.7089C89.0192 46.3651 78.9325 42.8311 66.4163 42.8311C53.9002 42.8311 43.8135 46.3651 43.8135 50.7089C43.8135 50.8562 43.8135 51.077 43.887 51.2243C44.6234 55.3472 54.4155 58.5868 66.4163 58.5868Z" fill="#E3EEFF" stroke="#8FADC8"/>
<path d="M66.4162 43.7557C54.4154 43.7557 44.6232 40.5162 43.887 36.3932H43.8135V50.9747C43.8135 55.3185 53.9002 58.8525 66.4163 58.8525C78.9325 58.8525 89.0192 55.3185 89.0192 50.9747V36.3932H88.9456C88.2092 40.5162 78.417 43.7557 66.4162 43.7557Z" fill="#BBD6FF" stroke="#8FADC8"/>
<path d="M66.4163 43.7557C78.4172 43.7557 88.2093 40.5162 88.9455 36.3932C89.0191 36.2459 89.0191 36.0251 89.0191 35.8779C89.0192 31.5341 78.9325 28 66.4163 28C53.9002 28 43.8135 31.5341 43.8135 35.8779C43.8135 36.0251 43.8135 36.2459 43.887 36.3932C44.6234 40.5162 54.4155 43.7557 66.4163 43.7557Z" fill="#BBD6FF" stroke="#8FADC8"/>
</g>
<defs>
<clipPath id="clip0">
<rect width="9.26642" height="11.583" fill="white" transform="translate(40.0723 21.7257)"/>
</clipPath>
</defs>
</svg>
