<svg width="173" height="135" viewBox="0 0 173 135" fill="none" xmlns="http://www.w3.org/2000/svg">
<path d="M139.184 12L137.192 9.18C138.368 8.76 139.04 7.824 139.04 6.528C139.04 4.704 137.72 3.6 135.536 3.6L132.26 3.6L132.26 12H133.46L133.46 9.444H135.536C135.716 9.444 135.896 9.432 136.064 9.42L137.876 12H139.184ZM135.5 8.424H133.46L133.46 4.644L135.5 4.644C137.036 4.644 137.84 5.328 137.84 6.528C137.84 7.728 137.036 8.424 135.5 8.424ZM143.068 5.58C142.048 5.58 141.1 5.868 140.44 6.396L140.92 7.26C141.412 6.84 142.18 6.576 142.936 6.576C144.076 6.576 144.64 7.14 144.64 8.112L144.64 8.34H142.816C140.92 8.34 140.26 9.18 140.26 10.2C140.26 11.304 141.172 12.072 142.612 12.072C143.608 12.072 144.316 11.736 144.7 11.16L144.7 12H145.792L145.792 8.16C145.792 6.42 144.808 5.58 143.068 5.58ZM142.804 11.184C141.928 11.184 141.4 10.788 141.4 10.152C141.4 9.612 141.724 9.168 142.864 9.168H144.64L144.64 10.056C144.352 10.788 143.668 11.184 142.804 11.184ZM152.807 3.096L152.807 6.6C152.279 5.916 151.487 5.58 150.587 5.58C148.727 5.58 147.371 6.876 147.371 8.82C147.371 10.764 148.727 12.072 150.587 12.072C151.523 12.072 152.339 11.712 152.855 10.992L152.855 12H153.959L153.959 3.096H152.807ZM150.683 11.064C149.459 11.064 148.535 10.176 148.535 8.82C148.535 7.464 149.459 6.588 150.683 6.588C151.895 6.588 152.819 7.464 152.819 8.82C152.819 10.176 151.895 11.064 150.683 11.064ZM156.715 4.416C157.171 4.416 157.495 4.08 157.495 3.648C157.495 3.24 157.159 2.916 156.715 2.916C156.271 2.916 155.935 3.252 155.935 3.672C155.935 4.092 156.271 4.416 156.715 4.416ZM156.139 12H157.291L157.291 5.64H156.139L156.139 12ZM164.266 5.64L164.266 8.928C164.266 10.296 163.498 11.04 162.298 11.04C161.206 11.04 160.582 10.416 160.582 9.168L160.582 5.64H159.43L159.43 9.3C159.43 11.172 160.522 12.072 162.166 12.072C163.066 12.072 163.858 11.7 164.326 11.04L164.326 12H165.418L165.418 5.64H164.266ZM169.436 12.072C171.128 12.072 172.184 11.34 172.184 10.188C172.184 7.716 168.152 8.94 168.152 7.44C168.152 6.936 168.644 6.564 169.652 6.564C170.276 6.564 170.912 6.696 171.488 7.068L171.98 6.156C171.428 5.796 170.492 5.58 169.664 5.58C168.032 5.58 167.012 6.348 167.012 7.488C167.012 10.02 171.032 8.784 171.032 10.212C171.032 10.752 170.588 11.076 169.52 11.076C168.692 11.076 167.828 10.8 167.288 10.416L166.808 11.328C167.336 11.748 168.38 12.072 169.436 12.072Z" fill="#ADADAD"/>
<path d="M54 32.1364L54 114.864" stroke="#ADADAD"/>
<path d="M65 28H52" stroke="#ADADAD" stroke-linecap="round" stroke-linejoin="round"/>
<path d="M65 119H52" stroke="#ADADAD" stroke-linecap="round" stroke-linejoin="round"/>
<path d="M54 28L55.7321 33.1705H52.2679L54 28Z" fill="#ADADAD"/>
<path d="M54 119L52.2679 113.83L55.7321 113.83L54 119Z" fill="#ADADAD"/>
<path d="M102.076 46.0496C82.3907 46.0496 66.3282 38.4318 65.1207 28.7366H65V115.475C65 125.689 81.5455 134 102.076 134C122.607 134 139.153 125.689 139.153 115.475V28.7366H139.032C137.824 38.4318 121.761 46.0496 102.076 46.0496Z" fill="#E3EEFF" stroke="#8FADC8"/>
<path d="M102.076 46.0498C121.762 46.0498 137.824 38.432 139.032 28.7368C139.152 28.3905 139.152 27.8712 139.152 27.5249C139.153 17.3104 122.607 9 102.076 9C81.5455 9 65 17.3104 65 27.5249C65 27.8712 65 28.3905 65.1207 28.7368C66.3285 38.432 82.3909 46.0498 102.076 46.0498Z" fill="#BBD6FF" stroke="#8FADC8"/>
<path d="M105 23L119 15" stroke="#ADADAD"/>
<path d="M104 22L101 26L106.5 24.5L104 22Z" fill="#ADADAD"/>
<path d="M119.485 16.2494L122.904 12.6014L117.273 13.491L119.485 16.2494Z" fill="#ADADAD"/>
<path d="M7.284 68.6V72.212H2.46L2.46 68.6H1.26L1.26 77H2.46L2.46 73.256H7.284L7.284 77H8.484L8.484 68.6H7.284ZM16.5783 73.856C16.5783 71.9 15.2703 70.58 13.4343 70.58C11.5983 70.58 10.2423 71.936 10.2423 73.82C10.2423 75.716 11.6103 77.072 13.6623 77.072C14.7183 77.072 15.5943 76.712 16.1703 76.04L15.5343 75.296C15.0663 75.812 14.4423 76.064 13.6983 76.064C12.4383 76.064 11.5383 75.32 11.3943 74.204H16.5543C16.5663 74.096 16.5783 73.952 16.5783 73.856ZM13.4343 71.552C14.5503 71.552 15.3543 72.308 15.4743 73.376H11.3943C11.5143 72.296 12.3303 71.552 13.4343 71.552ZM18.7539 69.416C19.2099 69.416 19.5339 69.08 19.5339 68.648C19.5339 68.24 19.1979 67.916 18.7539 67.916C18.3099 67.916 17.9739 68.252 17.9739 68.672C17.9739 69.092 18.3099 69.416 18.7539 69.416ZM18.1779 77H19.3299L19.3299 70.64H18.1779L18.1779 77ZM26.5215 70.64V71.624C25.9815 70.928 25.1175 70.58 24.1695 70.58C22.3335 70.58 20.9415 71.816 20.9415 73.652C20.9415 75.488 22.3335 76.736 24.1695 76.736C25.0815 76.736 25.9095 76.412 26.4615 75.752L26.4615 76.256C26.4615 77.696 25.7775 78.392 24.2775 78.392C23.3415 78.392 22.4175 78.068 21.8295 77.564L21.2775 78.452C21.9735 79.076 23.1495 79.4 24.3135 79.4C26.4735 79.4 27.6135 78.38 27.6135 76.136L27.6135 70.64H26.5215ZM24.3015 75.728C23.0175 75.728 22.1055 74.876 22.1055 73.652C22.1055 72.416 23.0175 71.588 24.3015 71.588C25.5735 71.588 26.4855 72.416 26.4855 73.652C26.4855 74.876 25.5735 75.728 24.3015 75.728ZM33.2107 70.58C32.2387 70.58 31.4467 70.928 30.9667 71.54V68.096H29.8147L29.8147 77H30.9667L30.9667 73.724C30.9667 72.344 31.7587 71.612 32.9827 71.612C34.0747 71.612 34.6987 72.224 34.6987 73.472V77H35.8507V73.34C35.8507 71.468 34.7587 70.58 33.2107 70.58ZM41.1986 75.8C40.9586 75.992 40.6346 76.1 40.2986 76.1C39.6626 76.1 39.3026 75.716 39.3026 75.032V71.588H41.1266V70.64H39.3026V69.248H38.1506V70.64H37.0706V71.588H38.1506V75.08C38.1506 76.364 38.8826 77.072 40.1666 77.072C40.6826 77.072 41.2106 76.928 41.5586 76.628L41.1986 75.8Z" fill="#ADADAD"/>
</svg>
