<svg width="105" height="105" viewBox="0 0 105 105" fill="none" xmlns="http://www.w3.org/2000/svg">
<mask id="mask0" mask-type="alpha" maskUnits="userSpaceOnUse" x="0" y="0" width="105" height="105">
<rect width="105" height="105" fill="#C4C4C4"/>
</mask>
<g mask="url(#mask0)">
<path d="M52.6027 69.1711C40.6019 69.1711 30.8097 65.9316 30.0736 61.8086H30V76.3901C30 80.7339 40.0867 84.2679 52.6029 84.2679C65.1191 84.2679 75.2057 80.7339 75.2057 76.3901V61.8086H75.1322C74.3957 65.9316 64.6036 69.1711 52.6027 69.1711Z" fill="#E3EEFF" stroke="#8FADC8"/>
<path d="M52.6029 69.1712C64.6037 69.1712 74.3959 65.9317 75.132 61.8087C75.2056 61.6615 75.2056 61.4406 75.2056 61.2934C75.2057 56.9496 65.1191 53.4155 52.6029 53.4155C40.0867 53.4155 30 56.9496 30 61.2934C30 61.4406 30 61.6615 30.0736 61.8087C30.8099 65.9317 40.602 69.1712 52.6029 69.1712Z" fill="#E3EEFF" stroke="#8FADC8"/>
<path d="M52.6027 54.7557C40.6019 54.7557 30.8097 51.5162 30.0736 47.3932H30V61.9747C30 66.3185 40.0867 69.8525 52.6029 69.8525C65.1191 69.8525 75.2057 66.3185 75.2057 61.9747V47.3932H75.1322C74.3957 51.5162 64.6036 54.7557 52.6027 54.7557Z" fill="#BBD6FF" stroke="#8FADC8"/>
<path d="M52.6029 54.7557C64.6037 54.7557 74.3959 51.5162 75.132 47.3932C75.2056 47.2459 75.2056 47.0251 75.2056 46.8779C75.2057 42.5341 65.1191 39 52.6029 39C40.0867 39 30 42.5341 30 46.8779C30 47.0251 30 47.2459 30.0736 47.3932C30.8099 51.5162 40.602 54.7557 52.6029 54.7557Z" fill="#BBD6FF" stroke="#8FADC8"/>
<path d="M58.5574 20.4688H54.0998C54.3224 20.2194 54.5029 19.9332 54.6322 19.621C54.8587 19.074 54.918 18.4722 54.8025 17.8915C54.687 17.3109 54.4019 16.7775 53.9833 16.3589C53.5647 15.9403 53.0313 15.6552 52.4507 15.5397C51.87 15.4242 51.2682 15.4835 50.7212 15.71C50.1743 15.9366 49.7068 16.3202 49.3778 16.8125C49.0489 17.3047 48.8734 17.8835 48.8734 18.4755C48.8734 19.2127 49.1453 19.9218 49.6336 20.4688H45.1761C44.8921 19.5137 44.8156 18.5074 44.9534 17.5177C45.1073 16.4121 45.5241 15.3595 46.1689 14.4483C46.8136 13.537 47.6676 12.7937 48.659 12.2807C49.6504 11.7677 50.7504 11.5 51.8667 11.5C52.983 11.5 54.083 11.7677 55.0744 12.2807C56.0659 12.7937 56.9198 13.537 57.5646 14.4483C58.2093 15.3595 58.6262 16.4121 58.7801 17.5177C58.9178 18.5074 58.8413 19.5137 58.5574 20.4688Z" fill="#E3EEFF" stroke="#8FADC8"/>
<path d="M71.2717 44.3783L71.2717 44.3784C71.8558 46.7143 70.2337 48.9113 68.1508 48.9113H35.7375C33.6545 48.9113 32.0328 46.7145 32.6203 44.3791L32.6205 44.3783L38.3084 21.6166L38.3084 21.6165C38.5547 20.6299 39.3599 19.9913 40.2286 19.9913H63.6636C64.5321 19.9913 65.3367 20.6291 65.5838 21.6167L71.2717 44.3783Z" fill="#E3EEFF" stroke="#8FADC8"/>
<path d="M48.7964 34.1219L47.6717 35.277V37.0906H46.3545V29.998H47.6717V33.6355L51.1774 29.998H52.6568L49.6779 33.1694L52.8391 37.0906H51.299L48.7964 34.1219Z" fill="#9FB1C1"/>
<path d="M58.747 31.68V36.2699C58.747 38.1748 57.7743 39.1272 55.8289 39.1272C55.3088 39.1272 54.8157 39.0597 54.3496 38.9246C53.8836 38.7962 53.4985 38.6071 53.1946 38.3572L53.762 37.4047C53.9984 37.6006 54.2956 37.756 54.6536 37.8708C55.0184 37.9924 55.3865 38.0532 55.758 38.0532C56.3524 38.0532 56.7881 37.9181 57.0651 37.6479C57.342 37.3777 57.4805 36.9657 57.4805 36.4118V36.1281C57.2644 36.3645 57.0009 36.5435 56.6902 36.6651C56.3795 36.7867 56.0383 36.8475 55.6668 36.8475C55.1535 36.8475 54.6874 36.7394 54.2686 36.5232C53.8565 36.3003 53.5289 35.9896 53.2858 35.5911C53.0493 35.1925 52.9311 34.7366 52.9311 34.2232C52.9311 33.7098 53.0493 33.2573 53.2858 32.8655C53.5289 32.4669 53.8565 32.1596 54.2686 31.9434C54.6874 31.7273 55.1535 31.6192 55.6668 31.6192C56.0586 31.6192 56.4132 31.6834 56.7307 31.8117C57.055 31.9401 57.3251 32.136 57.5413 32.3994V31.68H58.747ZM55.8593 35.7734C56.3389 35.7734 56.7307 35.6316 57.0347 35.3479C57.3454 35.0574 57.5008 34.6825 57.5008 34.2232C57.5008 33.7706 57.3454 33.4025 57.0347 33.1188C56.7307 32.8351 56.3389 32.6932 55.8593 32.6932C55.373 32.6932 54.9745 32.8351 54.6637 33.1188C54.3598 33.4025 54.2078 33.7706 54.2078 34.2232C54.2078 34.6825 54.3598 35.0574 54.6637 35.3479C54.9745 35.6316 55.373 35.7734 55.8593 35.7734Z" fill="#9FB1C1"/>
</g>
</svg>
