<svg width="105" height="105" viewBox="0 0 105 105" fill="none" xmlns="http://www.w3.org/2000/svg">
<mask id="mask0" mask-type="alpha" maskUnits="userSpaceOnUse" x="0" y="0" width="105" height="105">
<rect width="105" height="105" fill="#C4C4C4"/>
</mask>
<g mask="url(#mask0)">
<path opacity="0.4" d="M10.3367 84.6122L10.7197 9.76912C10.7256 8.66729 11.0267 7.61264 11.5585 6.8309C12.0903 6.04917 12.8105 5.60245 13.565 5.58637L27.676 5.43953C28.0464 5.43826 28.4133 5.54469 28.7553 5.75263C29.0973 5.96057 29.4075 6.26586 29.6678 6.65068C29.9282 7.0355 30.1334 7.49216 30.2717 7.99403C30.4099 8.49589 30.4783 9.03292 30.4729 9.5738L30.4156 19.9652L19.8574 20.0965C19.6678 20.0978 19.4862 20.2086 19.3524 20.4048C19.2185 20.6009 19.1433 20.8665 19.143 21.1434L19.13 23.2203C19.129 23.3555 19.1465 23.4896 19.1813 23.6148C19.2162 23.7401 19.2678 23.8539 19.333 23.9498C19.3983 24.0456 19.476 24.1216 19.5615 24.1732C19.6471 24.2248 19.7388 24.2511 19.8314 24.2504L30.3944 24.1384L30.3522 32.453L25.4257 32.5073C25.2361 32.5086 25.0545 32.6194 24.9207 32.8156C24.7868 33.0117 24.7115 33.2772 24.7113 33.5541L24.6983 35.6311C24.6971 35.7664 24.7144 35.9006 24.7491 36.026C24.7839 36.1514 24.8354 36.2654 24.9008 36.3614C24.9661 36.4573 25.0439 36.5332 25.1295 36.5847C25.2152 36.6362 25.307 36.6622 25.3997 36.6612L30.3362 36.5972L30.2932 44.9112L19.7132 45.0241C19.5235 45.0255 19.342 45.1363 19.2081 45.3324C19.0743 45.5286 18.999 45.7941 18.9988 46.071L18.9858 48.148C18.9848 48.2831 19.0022 48.4173 19.0371 48.5425C19.072 48.6677 19.1235 48.7816 19.1888 48.8774C19.2541 48.9733 19.3317 49.0492 19.4173 49.1008C19.5028 49.1525 19.5946 49.1787 19.6871 49.1781L30.2716 49.0538L30.2266 57.3676L25.2992 57.4347C25.1095 57.436 24.928 57.5469 24.7941 57.743C24.6603 57.9392 24.585 58.2047 24.5848 58.4816L24.5717 60.5586C24.5705 60.6938 24.5878 60.8281 24.6226 60.9535C24.6573 61.0789 24.7089 61.1929 24.7742 61.2888C24.8395 61.3847 24.9173 61.4607 25.003 61.5121C25.0886 61.5636 25.1805 61.5896 25.2731 61.5886L30.2063 61.5279L30.164 69.8425L19.591 69.9613C19.4014 69.9627 19.2199 70.0735 19.086 70.2697C18.9522 70.4658 18.8769 70.7313 18.8767 71.0082L18.8636 73.0852C18.8624 73.2205 18.8797 73.3547 18.9145 73.4801C18.9492 73.6055 19.0008 73.7195 19.0661 73.8154C19.1314 73.9114 19.2092 73.9873 19.2949 74.0388C19.3805 74.0903 19.4724 74.1163 19.565 74.1153L30.1441 74.0046L30.0899 84.3987C30.084 85.5005 29.7829 86.5552 29.2511 87.3369C28.7193 88.1186 27.9991 88.5653 27.2446 88.5814L13.1437 88.7368C12.7726 88.7418 12.4046 88.6383 12.0614 88.4325C11.7181 88.2266 11.4065 87.9226 11.145 87.5382C10.8834 87.1539 10.6771 86.697 10.5383 86.1945C10.3995 85.692 10.331 85.154 10.3367 84.6122Z" fill="#BBD6FF"/>
<path d="M30.2288 24.1359L30.2482 19.9673L19.69 20.0985C19.5003 20.0999 19.3188 20.2107 19.1849 20.4068C19.0511 20.603 18.9758 20.8685 18.9756 21.1454L18.9625 23.2224C18.9616 23.3575 18.979 23.4916 19.0139 23.6169C19.0487 23.7421 19.1003 23.856 19.1656 23.9518C19.2308 24.0477 19.3085 24.1236 19.3941 24.1752C19.4796 24.2269 19.5714 24.2531 19.6639 24.2525L30.2288 24.1359ZM30.1034 49.0552L30.1241 44.9119L19.5434 45.0242C19.3538 45.0255 19.1722 45.1364 19.0383 45.3325C18.9045 45.5287 18.8292 45.7942 18.829 46.0711L18.816 48.1481C18.815 48.2832 18.8325 48.4173 18.8673 48.5426C18.9022 48.6678 18.9537 48.7816 19.019 48.8775C19.0843 48.9734 19.1619 49.0493 19.2475 49.1009C19.3331 49.1525 19.4248 49.1788 19.5174 49.1781L30.1034 49.0552ZM30.1664 36.5973L30.1865 32.4505L25.26 32.5048C25.0704 32.5061 24.8888 32.6169 24.755 32.8131C24.6211 33.0092 24.5459 33.2747 24.5456 33.5516L24.5326 35.6286C24.5314 35.7639 24.5487 35.8981 24.5835 36.0235C24.6182 36.1489 24.6698 36.2629 24.7351 36.3589C24.8004 36.4548 24.8782 36.5307 24.9639 36.5822C25.0495 36.6337 25.1414 36.6597 25.234 36.6587L30.1664 36.5973ZM19.3963 74.1178L29.9779 74.0062L29.9942 69.8426L19.4205 69.9608C19.2309 69.9621 19.0493 70.0729 18.9154 70.2691C18.7816 70.4652 18.7063 70.7307 18.7061 71.0076L18.6931 73.0846C18.6919 73.2199 18.7091 73.3541 18.7439 73.4795C18.7787 73.6049 18.8302 73.7189 18.8956 73.8148C18.9609 73.9108 19.0386 73.9867 19.1243 74.0382C19.21 74.0897 19.3018 74.1157 19.3945 74.1147L19.3963 74.1178ZM30.0404 61.5313L30.0568 57.3677L25.1294 57.4348C24.9397 57.4361 24.7582 57.5469 24.6243 57.7431C24.4905 57.9392 24.4152 58.2048 24.415 58.4817L24.402 60.5586C24.4007 60.6939 24.418 60.8282 24.4528 60.9535C24.4876 61.0789 24.5391 61.1929 24.6044 61.2889C24.6697 61.3848 24.7475 61.4607 24.8332 61.5122C24.9189 61.5637 25.0107 61.5897 25.1033 61.5887L30.0404 61.5313Z" fill="#BBD6FF"/>
<g clip-path="url(#clip0)">
<path d="M41.0287 23.3206L34.9037 23.3206L36.2602 24.8042C36.3533 24.906 36.4056 25.0441 36.4056 25.1881C36.4056 25.3321 36.3533 25.4702 36.2602 25.572L35.9085 25.9566C35.8624 26.0072 35.8076 26.0474 35.7473 26.0748C35.6869 26.1022 35.6223 26.1163 35.5569 26.1163C35.4916 26.1163 35.4269 26.1022 35.3666 26.0748C35.3062 26.0474 35.2514 26.0072 35.2053 25.9566L32.4034 22.89C32.3104 22.7882 32.2581 22.6501 32.2581 22.5061C32.2581 22.3621 32.3104 22.224 32.4034 22.1222L35.2069 19.0559C35.2531 19.0053 35.3079 18.9651 35.3682 18.9377C35.4285 18.9103 35.4932 18.8962 35.5586 18.8962C35.6239 18.8962 35.6886 18.9103 35.7489 18.9377C35.8093 18.9651 35.8641 19.0053 35.9102 19.0559L36.2618 19.4405C36.3549 19.5423 36.4072 19.6804 36.4072 19.8244C36.4072 19.9684 36.3549 20.1065 36.2618 20.2083L34.9054 21.6917L41.0287 21.6917C41.1603 21.6917 41.2866 21.7489 41.3797 21.8507C41.4728 21.9525 41.5251 22.0906 41.5251 22.2346L41.5251 22.7776C41.5251 22.9216 41.4728 23.0597 41.3797 23.1615C41.2866 23.2634 41.1603 23.3206 41.0287 23.3206Z" fill="#8FADC8"/>
</g>
<path d="M67.7706 7.92259L70.5835 13.314C71.1304 12.1419 72.3181 9.46968 72.6931 8.157C73.1619 6.51613 75.2717 3 70.1147 3C65.9891 3 66.8329 6.28172 67.7706 7.92259Z" stroke="#8FADC8"/>
<path d="M67.6851 34.9226L70.498 40.314C71.045 39.1419 72.2326 36.4697 72.6077 35.157C73.0765 33.5161 75.1862 30 70.0292 30C65.9036 30 66.7475 33.2817 67.6851 34.9226Z" stroke="#8FADC8"/>
<path fill-rule="evenodd" clip-rule="evenodd" d="M45.5835 52.5C51.6781 50.234 65.227 44.6239 70.6652 40.3107V40.5C76.1036 44.8132 89.6523 50.4233 95.7469 52.6892V79.4151L70.6652 70.2732L45.5835 79.4151V52.5Z" fill="#E3EEFF"/>
<path d="M70.6652 40.3107H71.1652C71.1652 40.1189 71.0555 39.944 70.8828 39.8605C70.7101 39.7771 70.5048 39.7998 70.3545 39.919L70.6652 40.3107ZM45.5835 52.5L45.4093 52.0313C45.2134 52.1041 45.0835 52.2911 45.0835 52.5H45.5835ZM70.6652 40.5H70.1652C70.1652 40.6527 70.235 40.7969 70.3545 40.8918L70.6652 40.5ZM95.7469 52.6892H96.2469C96.2469 52.4803 96.117 52.2934 95.9211 52.2206L95.7469 52.6892ZM95.7469 79.4151L95.5757 79.8849C95.729 79.9408 95.8999 79.9183 96.0336 79.8248C96.1673 79.7312 96.2469 79.5783 96.2469 79.4151H95.7469ZM70.6652 70.2732L70.8365 69.8034C70.7259 69.7631 70.6046 69.7631 70.494 69.8034L70.6652 70.2732ZM45.5835 79.4151H45.0835C45.0835 79.5783 45.1631 79.7312 45.2968 79.8248C45.4305 79.9183 45.6014 79.9408 45.7547 79.8849L45.5835 79.4151ZM70.3545 39.919C67.6873 42.0344 62.9904 44.4938 58.1613 46.7189C53.3456 48.9378 48.4466 50.9021 45.4093 52.0313L45.7577 52.9686C48.8151 51.832 53.7378 49.8581 58.5797 47.6272C63.4082 45.4024 68.2049 42.9002 70.9759 40.7025L70.3545 39.919ZM71.1652 40.5V40.3107H70.1652V40.5H71.1652ZM70.3545 40.8918C73.1256 43.0895 77.9223 45.5917 82.7507 47.8164C87.5927 50.0474 92.5154 52.0212 95.5727 53.1579L95.9211 52.2206C92.8839 51.0913 87.9849 49.1271 83.1692 46.9082C78.3401 44.6831 73.6432 42.2237 70.9759 40.1083L70.3545 40.8918ZM95.2469 52.6892V79.4151H96.2469V52.6892H95.2469ZM95.9181 78.9454L70.8365 69.8034L70.494 70.743L95.5757 79.8849L95.9181 78.9454ZM45.7547 79.8849L70.8365 70.743L70.494 69.8034L45.4123 78.9454L45.7547 79.8849ZM45.0835 52.5V79.4151H46.0835V52.5H45.0835Z" fill="#8FADC8"/>
<path fill-rule="evenodd" clip-rule="evenodd" d="M45.5835 25.1893C51.6781 22.9233 65.227 17.3131 70.6652 13V13.1893C76.1036 17.5024 89.6523 23.1126 95.7469 25.3785V52.1044L70.6652 42.9625L45.5835 52.1044V25.1893Z" fill="#BBD6FF"/>
<path d="M70.6652 13H71.1652C71.1652 12.8082 71.0555 12.6333 70.8828 12.5498C70.7101 12.4663 70.5048 12.4891 70.3545 12.6083L70.6652 13ZM45.5835 25.1893L45.4093 24.7206C45.2134 24.7934 45.0835 24.9803 45.0835 25.1893H45.5835ZM70.6652 13.1893H70.1652C70.1652 13.3419 70.235 13.4862 70.3545 13.5811L70.6652 13.1893ZM95.7469 25.3785H96.2469C96.2469 25.1696 96.117 24.9827 95.9211 24.9098L95.7469 25.3785ZM95.7469 52.1044L95.5757 52.5742C95.729 52.63 95.8999 52.6076 96.0336 52.514C96.1673 52.4205 96.2469 52.2676 96.2469 52.1044H95.7469ZM70.6652 42.9625L70.8365 42.4927C70.7259 42.4524 70.6046 42.4524 70.494 42.4927L70.6652 42.9625ZM45.5835 52.1044H45.0835C45.0835 52.2676 45.1631 52.4205 45.2968 52.5141C45.4305 52.6076 45.6014 52.6301 45.7547 52.5742L45.5835 52.1044ZM70.3545 12.6083C67.6873 14.7236 62.9904 17.1831 58.1613 19.4082C53.3456 21.6271 48.4466 23.5913 45.4093 24.7206L45.7577 25.6579C48.8151 24.5212 53.7378 22.5474 58.5797 20.3164C63.4082 18.0917 68.2049 15.5895 70.9759 13.3917L70.3545 12.6083ZM71.1652 13.1893V13H70.1652V13.1893H71.1652ZM70.3545 13.5811C73.1256 15.7788 77.9223 18.2809 82.7507 20.5057C87.5927 22.7367 92.5154 24.7105 95.5727 25.8472L95.9211 24.9098C92.8839 23.7806 87.9849 21.8163 83.1692 19.5975C78.3401 17.3724 73.6432 14.9129 70.9759 12.7976L70.3545 13.5811ZM95.2469 25.3785V52.1044H96.2469V25.3785H95.2469ZM95.9181 51.6346L70.8365 42.4927L70.494 43.4322L95.5757 52.5742L95.9181 51.6346ZM45.7547 52.5742L70.8365 43.4322L70.494 42.4927L45.4123 51.6346L45.7547 52.5742ZM45.0835 25.1893V52.1044H46.0835V25.1893H45.0835Z" fill="#8FADC8"/>
<path d="M45.5832 79.6496C42.7703 66.7102 44.4111 59.9682 45.5832 52.3108L70.665 64.5001V91.6045C56.8348 87.3851 50.2714 82.4625 45.5832 79.6496Z" fill="#E3EEFF" stroke="#8FADC8" stroke-linecap="round" stroke-linejoin="round"/>
<path d="M45.5832 52.3389C42.7703 39.3995 44.4111 32.6574 45.5832 25.0001L70.665 37.1893V64.2937C56.8348 60.0744 50.2714 55.1518 45.5832 52.3389Z" fill="#BBD6FF" stroke="#8FADC8" stroke-linecap="round" stroke-linejoin="round"/>
<path d="M95.7469 79.6496C98.5598 66.7102 96.9189 60.1574 95.7469 52.5L70.6651 64.6893V91.6044C84.4952 87.3851 91.0587 82.4625 95.7469 79.6496Z" fill="#E3EEFF" stroke="#8FADC8" stroke-linecap="round" stroke-linejoin="round"/>
<path d="M86.288 69.4V75H85.248V70.272H84.064V69.4H86.288Z" fill="#8FADC8"/>
<path d="M95.7469 52.3389C98.5598 39.3995 96.9189 32.8466 95.7469 25.1893L70.6651 37.3785V64.2937C84.4952 60.0743 91.0587 55.1518 95.7469 52.3389Z" fill="#BBD6FF" stroke="#8FADC8" stroke-linecap="round" stroke-linejoin="round"/>
<path d="M68.1539 30.9226L70.9668 36.314C71.5137 35.1419 72.7014 32.4697 73.0764 31.157C73.5452 29.5161 75.655 26 70.498 26C66.3724 26 67.2162 29.2817 68.1539 30.9226Z" stroke="#8FADC8"/>
<path d="M93.0015 19.9226L95.8144 25.314C96.3614 24.1419 97.549 21.4697 97.9241 20.157C98.3929 18.5161 100.503 15 95.3456 15C91.22 15 92.0639 18.2817 93.0015 19.9226Z" stroke="#8FADC8"/>
<path d="M42.7706 18.9226L45.5835 24.314C46.1304 23.1419 47.3181 20.4697 47.6931 19.157C48.1619 17.5161 50.2717 14 45.1147 14C40.9891 14 41.8329 17.2817 42.7706 18.9226Z" stroke="#8FADC8"/>
<path d="M86.408 47.12V48H82.28V47.304L84.504 45.192C84.7547 44.952 84.9227 44.744 85.008 44.568C85.0987 44.3867 85.144 44.208 85.144 44.032C85.144 43.7707 85.056 43.5707 84.88 43.432C84.704 43.2933 84.4453 43.224 84.104 43.224C83.5333 43.224 83.096 43.4187 82.792 43.808L82.064 43.248C82.2827 42.9547 82.576 42.728 82.944 42.568C83.3173 42.4027 83.7333 42.32 84.192 42.32C84.8 42.32 85.2853 42.464 85.648 42.752C86.0107 43.04 86.192 43.432 86.192 43.928C86.192 44.232 86.128 44.5173 86 44.784C85.872 45.0507 85.6267 45.3547 85.264 45.696L83.768 47.12H86.408Z" fill="#8FADC8"/>
</g>
<defs>
<clipPath id="clip0">
<rect width="9.26642" height="11.583" fill="white" transform="translate(32.2588 16.7257)"/>
</clipPath>
</defs>
</svg>
