<svg width="225" height="92" viewBox="0 0 225 92" fill="none" xmlns="http://www.w3.org/2000/svg">
<mask id="mask0" mask-type="alpha" maskUnits="userSpaceOnUse" x="0" y="0" width="225" height="92">
<rect width="225" height="92" fill="#C4C4C4"/>
</mask>
<g mask="url(#mask0)">
<path d="M107.867 37.6128L118.544 37.6128L116.179 35.0511C116.017 34.8753 115.926 34.6368 115.926 34.3882C115.926 34.1395 116.017 33.9011 116.179 33.7253L116.792 33.0612C116.873 32.9738 116.968 32.9045 117.074 32.8572C117.179 32.8098 117.292 32.7855 117.405 32.7855C117.519 32.7855 117.632 32.8098 117.737 32.8572C117.843 32.9045 117.938 32.9738 118.018 33.0612L122.903 38.3561C123.065 38.532 123.156 38.7704 123.156 39.019C123.156 39.2677 123.065 39.5061 122.903 39.6819L118.016 44.9765C117.935 45.0639 117.84 45.1332 117.734 45.1805C117.629 45.2278 117.516 45.2522 117.403 45.2522C117.289 45.2522 117.176 45.2278 117.071 45.1805C116.966 45.1332 116.87 45.0639 116.79 44.9765L116.177 44.3124C116.014 44.1366 115.923 43.8981 115.923 43.6495C115.923 43.4009 116.014 43.1624 116.177 42.9866L118.541 40.4253L107.867 40.4253C107.637 40.4253 107.417 40.3265 107.255 40.1507C107.093 39.9749 107.001 39.7364 107.001 39.4878L107.001 38.5503C107.001 38.3016 107.093 38.0632 107.255 37.8874C107.417 37.7116 107.637 37.6128 107.867 37.6128Z" fill="#E3EEFF"/>
<path d="M19.7706 23.1119L22.5835 28.5033C23.1304 27.3313 24.3181 24.659 24.6931 23.3463C25.1619 21.7055 27.2717 18.1893 22.1147 18.1893C17.9891 18.1893 18.8329 21.4711 19.7706 23.1119Z" stroke="#8FADC8"/>
<path d="M44.6851 10.9226L47.498 16.314C48.045 15.1419 49.2326 12.4697 49.6077 11.157C50.0765 9.51613 52.1862 6 47.0292 6C42.9036 6 43.7475 9.28172 44.6851 10.9226Z" stroke="#8FADC8"/>
<path fill-rule="evenodd" clip-rule="evenodd" d="M47.6652 16.3141C47.6652 16.3141 47.6652 16.314 47.6652 16.314V16.3141C42.2268 20.6272 28.6781 26.2374 22.5835 28.5033V67.4152L47.6652 58.2732L72.7469 67.4152V28.5033C66.6523 26.2373 53.1036 20.6272 47.6652 16.3141V16.314C47.6652 16.314 47.6652 16.3141 47.6652 16.3141Z" fill="#F3F8FF"/>
<path d="M47.6652 16.314L47.9858 15.9304C47.8369 15.8059 47.6293 15.7789 47.4534 15.8611C47.2775 15.9433 47.1652 16.1199 47.1652 16.314H47.6652ZM47.6652 16.3141L47.3445 16.6977C47.5213 16.8455 47.7763 16.8533 47.9618 16.7166L47.6652 16.3141ZM47.6652 16.3141L47.9758 16.7059C48.0954 16.611 48.1652 16.4667 48.1652 16.3141H47.6652ZM22.5835 28.5033L22.4093 28.0346C22.2134 28.1075 22.0835 28.2944 22.0835 28.5033H22.5835ZM22.5835 67.4152H22.0835C22.0835 67.5784 22.1631 67.7313 22.2968 67.8248C22.4305 67.9184 22.6014 67.9408 22.7547 67.8849L22.5835 67.4152ZM47.6652 58.2732L47.8365 57.8035C47.7259 57.7632 47.6046 57.7632 47.494 57.8035L47.6652 58.2732ZM72.7469 67.4152L72.5757 67.8849C72.729 67.9408 72.8999 67.9184 73.0336 67.8248C73.1673 67.7312 73.2469 67.5783 73.2469 67.4152H72.7469ZM72.7469 28.5033H73.2469C73.2469 28.2944 73.117 28.1074 72.9211 28.0346L72.7469 28.5033ZM47.6652 16.3141H47.1652C47.1652 16.4667 47.235 16.611 47.3545 16.7058L47.6652 16.3141ZM47.6652 16.314H48.1652C48.1652 16.1254 48.0591 15.9528 47.8907 15.8678C47.7224 15.7827 47.5205 15.7996 47.3686 15.9115L47.6652 16.314ZM47.3445 16.6976C47.3479 16.7005 47.3506 16.7027 47.3522 16.704C47.353 16.7047 47.3537 16.7052 47.3541 16.7055C47.3543 16.7057 47.3545 16.7058 47.3546 16.7059C47.3546 16.7059 47.3547 16.706 47.3547 16.706C47.3547 16.706 47.3547 16.706 47.3547 16.706C47.3547 16.706 47.3547 16.706 47.3547 16.706C47.3547 16.706 47.3548 16.706 47.3548 16.706C47.3548 16.706 47.3548 16.706 47.3548 16.706C47.355 16.7062 47.3537 16.7052 47.3522 16.704C47.3507 16.7027 47.3479 16.7005 47.3445 16.6977L47.9859 15.9305C47.9825 15.9276 47.9797 15.9254 47.9781 15.9241C47.9773 15.9234 47.9766 15.9229 47.9762 15.9226C47.976 15.9224 47.9759 15.9223 47.9758 15.9222C47.9757 15.9222 47.9757 15.9221 47.9756 15.9221C47.9756 15.9221 47.9756 15.9221 47.9756 15.9221C47.9756 15.9221 47.9756 15.9221 47.9756 15.9221C47.9756 15.9221 47.9756 15.9221 47.9756 15.9221C47.9756 15.9221 47.9756 15.9221 47.9756 15.9221C47.9754 15.9219 47.9767 15.9229 47.9781 15.9241C47.9797 15.9254 47.9825 15.9276 47.9858 15.9304L47.3445 16.6976ZM48.1652 16.3141V16.314H47.1652V16.3141H48.1652ZM47.3545 15.9224C44.6872 18.0377 39.9903 20.4972 35.1612 22.7223C30.3455 24.9411 25.4465 26.9054 22.4093 28.0346L22.7577 28.972C25.815 27.8353 30.7377 25.8615 35.5797 23.6305C40.4081 21.4058 45.2048 18.9036 47.9758 16.7059L47.3545 15.9224ZM22.0835 28.5033V67.4152H23.0835V28.5033H22.0835ZM22.7547 67.8849L47.8365 58.743L47.494 57.8035L22.4123 66.9454L22.7547 67.8849ZM72.9181 66.9454L47.8365 57.8035L47.494 58.743L72.5757 67.8849L72.9181 66.9454ZM72.2469 28.5033V67.4152H73.2469V28.5033H72.2469ZM47.3545 16.7058C50.1256 18.9036 54.9223 21.4057 59.7507 23.6305C64.5927 25.8615 69.5154 27.8353 72.5727 28.9719L72.9211 28.0346C69.8839 26.9054 64.9849 24.9411 60.1692 22.7223C55.3401 20.4972 50.6432 18.0377 47.9759 15.9223L47.3545 16.7058ZM48.1652 16.3141V16.314H47.1652V16.3141H48.1652ZM47.3686 15.9115C47.3641 15.9149 47.3604 15.9177 47.358 15.9196C47.3568 15.9205 47.3559 15.9213 47.3553 15.9217C47.355 15.922 47.3547 15.9222 47.3546 15.9223C47.3545 15.9223 47.3544 15.9224 47.3544 15.9224C47.3544 15.9224 47.3544 15.9224 47.3543 15.9224C47.3543 15.9225 47.3543 15.9225 47.3543 15.9225C47.3543 15.9225 47.3543 15.9225 47.3543 15.9225C47.3543 15.9225 47.3543 15.9225 47.3543 15.9225C47.3543 15.9225 47.3543 15.9225 47.3543 15.9225C47.354 15.9227 47.3558 15.9213 47.358 15.9196C47.3604 15.9177 47.364 15.9149 47.3686 15.9116L47.9618 16.7166C47.9664 16.7132 47.9701 16.7104 47.9725 16.7085C47.9736 16.7076 47.9746 16.7068 47.9752 16.7064C47.9755 16.7061 47.9757 16.7059 47.9759 16.7058C47.976 16.7058 47.976 16.7057 47.9761 16.7057C47.9761 16.7057 47.9761 16.7057 47.9761 16.7057C47.9761 16.7057 47.9761 16.7057 47.9761 16.7057C47.9761 16.7057 47.9761 16.7056 47.9761 16.7056C47.9761 16.7056 47.9761 16.7056 47.9761 16.7056C47.9761 16.7056 47.9761 16.7056 47.9761 16.7056C47.9764 16.7054 47.9746 16.7069 47.9725 16.7085C47.9701 16.7104 47.9664 16.7132 47.9619 16.7166L47.3686 15.9115Z" fill="#8FADC8"/>
<path d="M22.5832 67.6496C19.7703 54.7102 21.4111 36.1607 22.5832 28.5033L47.665 40.6926V79.6044C33.8348 75.3851 27.2714 70.4625 22.5832 67.6496Z" fill="#E3EEFF" stroke="#8FADC8" stroke-linecap="round" stroke-linejoin="round"/>
<path d="M72.7469 67.6496C75.5598 54.7102 73.9189 36.1607 72.7469 28.5033L47.6651 40.6926V79.6044C61.4952 75.3851 68.0587 70.4625 72.7469 67.6496Z" fill="#BBD6FF" stroke="#8FADC8" stroke-linecap="round" stroke-linejoin="round"/>
<path d="M45.1539 35.3011L47.9668 40.6925C48.5137 39.5204 49.7014 36.8482 50.0764 35.5355C50.5452 33.8946 52.655 30.3785 47.498 30.3785C43.3724 30.3785 44.2162 33.6602 45.1539 35.3011Z" stroke="#8FADC8"/>
<path d="M70.0015 23.1119L72.8144 28.5033C73.3614 27.3313 74.549 24.659 74.9241 23.3463C75.3929 21.7055 77.5026 18.1893 72.3456 18.1893C68.22 18.1893 69.0639 21.4711 70.0015 23.1119Z" stroke="#8FADC8"/>
<path fill-rule="evenodd" clip-rule="evenodd" d="M181.665 16.314C181.665 16.314 181.665 16.314 181.665 16.314V16.314C174 18.0001 161 25 156.583 28.5033V67.4152L181.665 58.2732L206.747 67.4151V28.5033C200.5 23 190 18 181.665 16.314Z" fill="#BBD6FF"/>
<path d="M181.665 16.314L181.764 15.8239C181.617 15.7943 181.464 15.8322 181.348 15.9271C181.232 16.0221 181.165 16.1641 181.165 16.314H181.665ZM181.665 16.314L181.764 15.824L181.764 15.8239L181.665 16.314ZM181.665 16.314L181.773 16.8024C182.002 16.7519 182.165 16.5488 182.165 16.314H181.665ZM156.583 28.5033L156.273 28.1116C156.153 28.2064 156.083 28.3507 156.083 28.5033H156.583ZM156.583 67.4152H156.083C156.083 67.5783 156.163 67.7312 156.297 67.8248C156.43 67.9184 156.601 67.9408 156.755 67.8849L156.583 67.4152ZM181.665 58.2732L181.836 57.8035C181.726 57.7631 181.605 57.7631 181.494 57.8035L181.665 58.2732ZM206.747 67.4151L206.576 67.8849C206.729 67.9408 206.9 67.9184 207.034 67.8248C207.167 67.7312 207.247 67.5783 207.247 67.4151H206.747ZM206.747 28.5033H207.247C207.247 28.3597 207.185 28.223 207.077 28.1281L206.747 28.5033ZM181.566 16.8042C181.574 16.8056 181.579 16.8066 181.584 16.8074C181.588 16.8081 181.592 16.8087 181.595 16.8091C181.598 16.8094 181.6 16.8097 181.601 16.8099C181.602 16.81 181.602 16.81 181.602 16.8101C181.603 16.8101 181.603 16.8101 181.603 16.8101C181.603 16.8101 181.603 16.8101 181.603 16.8101C181.603 16.8101 181.603 16.8101 181.603 16.8101C181.603 16.8101 181.603 16.8101 181.603 16.8101C181.603 16.8101 181.603 16.8101 181.603 16.8101C181.603 16.8101 181.603 16.8101 181.603 16.8101C181.603 16.8101 181.602 16.81 181.601 16.8099C181.6 16.8097 181.598 16.8094 181.595 16.8091C181.592 16.8087 181.589 16.8081 181.584 16.8074C181.58 16.8067 181.574 16.8056 181.567 16.8042L181.764 15.8239C181.757 15.8224 181.751 15.8214 181.746 15.8207C181.742 15.8199 181.738 15.8194 181.736 15.819C181.733 15.8186 181.731 15.8183 181.729 15.8182C181.729 15.8181 181.728 15.818 181.728 15.818C181.728 15.818 181.728 15.8179 181.728 15.8179C181.728 15.8179 181.728 15.8179 181.728 15.8179C181.728 15.8179 181.728 15.8179 181.728 15.8179C181.728 15.8179 181.728 15.8179 181.728 15.8179C181.728 15.8179 181.728 15.8179 181.728 15.8179C181.728 15.8179 181.728 15.8179 181.728 15.8179C181.727 15.8179 181.728 15.818 181.729 15.8182C181.731 15.8183 181.733 15.8186 181.735 15.819C181.738 15.8194 181.742 15.8199 181.746 15.8207C181.751 15.8214 181.757 15.8224 181.764 15.8239L181.566 16.8042ZM182.165 16.314V16.314H181.165V16.314H182.165ZM181.558 15.8257C177.662 16.6825 172.451 18.8771 167.681 21.2807C162.91 23.6849 158.521 26.3286 156.273 28.1116L156.894 28.895C159.063 27.1747 163.382 24.5668 168.131 22.1737C172.881 19.78 178.003 17.6316 181.773 16.8024L181.558 15.8257ZM156.083 28.5033V67.4152H157.083V28.5033H156.083ZM156.755 67.8849L181.836 58.743L181.494 57.8035L156.412 66.9454L156.755 67.8849ZM206.918 66.9454L181.836 57.8035L181.494 58.743L206.576 67.8849L206.918 66.9454ZM206.247 28.5033V67.4151H207.247V28.5033H206.247ZM181.566 16.8041C189.823 18.4742 200.241 23.4379 206.416 28.8785L207.077 28.1281C200.759 22.5621 190.178 17.5258 181.764 15.824L181.566 16.8041Z" fill="#8FADC8"/>
<path d="M156.583 67.6496C153.77 54.7102 155.411 36.1607 156.583 28.5033L181.665 40.6926V79.6044C167.835 75.3851 161.271 70.4625 156.583 67.6496Z" fill="#E3EEFF" stroke="#8FADC8" stroke-linecap="round" stroke-linejoin="round"/>
<path d="M206.747 67.6496C209.56 54.7102 207.919 36.1607 206.747 28.5033L181.665 40.6926V79.6044C195.495 75.3851 202.059 70.4625 206.747 67.6496Z" fill="#E3EEFF" stroke="#8FADC8" stroke-linecap="round" stroke-linejoin="round"/>
<path d="M175.923 82.7468L181.314 79.9339C180.142 79.3869 177.47 78.1993 176.157 77.8242C174.516 77.3554 171 75.2457 171 80.4027C171 84.5283 174.282 83.6844 175.923 82.7468Z" stroke="#8FADC8"/>
<path d="M150.923 69.7468L156.314 66.9339C155.142 66.3869 152.47 65.1993 151.157 64.8242C149.516 64.3554 146 62.2457 146 67.4027C146 71.5283 149.282 70.6844 150.923 69.7468Z" stroke="#8FADC8"/>
<path d="M151.923 31.7468L157.314 28.9339C156.142 28.3869 153.47 27.1993 152.157 26.8242C150.516 26.3554 147 24.2457 147 29.4027C147 33.5283 150.282 32.6844 151.923 31.7468Z" stroke="#8FADC8"/>
<path d="M175.923 43.7468L181.314 40.9339C180.142 40.3869 177.47 39.1993 176.157 38.8242C174.516 38.3554 171 36.2457 171 41.4027C171 45.5283 174.282 44.6844 175.923 43.7468Z" stroke="#8FADC8"/>
</g>
</svg>
