<svg width="25" height="31" viewBox="0 0 25 31" fill="none" xmlns="http://www.w3.org/2000/svg">
<path d="M22.8996 7.91829C22.8725 7.59348 22.6026 7.3446 22.281 7.34778H17.5791V5.54171C17.5791 2.59781 15.2246 0.211426 12.3205 0.211426C9.4162 0.211426 7.06191 2.59781 7.06191 5.54171V7.34778H2.36009C2.03989 7.34901 1.77261 7.59544 1.74143 7.91829L0.120592 26.8065C0.0468846 27.6822 0.338815 28.5494 0.925817 29.1968C1.51258 29.844 2.34028 30.2122 3.20761 30.2114H21.4395C22.3068 30.2122 23.1345 29.844 23.7213 29.1968C24.3083 28.5494 24.6004 27.6822 24.5267 26.8065L22.8996 7.91829ZM8.29923 5.54171C8.29923 3.29055 10.0996 1.46561 12.3205 1.46561C14.5414 1.46561 16.3418 3.29055 16.3418 5.54171V7.34778H8.29923V5.54171ZM22.8068 28.349C22.4569 28.7395 21.9598 28.9607 21.4395 28.9572H3.20133C2.68102 28.9575 2.18465 28.7363 1.83278 28.3478C1.48116 27.959 1.30644 27.4385 1.35163 26.9131L2.92293 8.60197H7.06191V12.5149C6.06698 12.8253 5.44566 13.8264 5.60057 14.87C5.75523 15.9132 6.63972 16.6848 7.68057 16.6848C8.72142 16.6848 9.60567 15.9132 9.76058 14.87C9.91524 13.8264 9.29392 12.8253 8.29923 12.5149V8.5956H16.3418V12.5149C15.3469 12.8253 14.7256 13.8264 14.8805 14.87C15.0351 15.9132 15.9196 16.6848 16.9605 16.6848C18.0013 16.6848 18.8856 15.9132 19.0405 14.87C19.1951 13.8264 18.5738 12.8253 17.5791 12.5149V8.5956H21.7118L23.2831 26.9067C23.3339 27.4343 23.1606 27.9588 22.8068 28.349ZM7.58777 13.6814C7.6494 13.6897 7.71175 13.6897 7.77337 13.6814C8.23084 13.7314 8.57014 14.1356 8.54549 14.6012C8.5206 15.0671 8.1407 15.4321 7.68057 15.4321C7.2202 15.4321 6.84031 15.0671 6.81566 14.6012C6.79101 14.1356 7.13006 13.7314 7.58777 13.6814ZM16.8677 13.6814C16.9293 13.6897 16.9916 13.6897 17.0533 13.6814C17.5107 13.7314 17.85 14.1356 17.8254 14.6012C17.8005 15.0671 17.4206 15.4321 16.9605 15.4321C16.5001 15.4321 16.1202 15.0671 16.0956 14.6012C16.0709 14.1356 16.41 13.7314 16.8677 13.6814Z" fill="#9FB1C1"/>
</svg>
