<svg width="225" height="92" viewBox="0 0 225 92" fill="none" xmlns="http://www.w3.org/2000/svg">
<mask id="mask0" mask-type="alpha" maskUnits="userSpaceOnUse" x="0" y="0" width="225" height="92">
<rect width="225" height="92" fill="#C4C4C4"/>
</mask>
<g mask="url(#mask0)">
<path d="M108.39 44.6114L119.068 44.6114L116.703 42.0497C116.541 41.8738 116.449 41.6354 116.449 41.3868C116.449 41.1381 116.541 40.8997 116.703 40.7239L117.316 40.0598C117.396 39.9724 117.492 39.9031 117.597 39.8558C117.702 39.8084 117.815 39.7841 117.929 39.7841C118.043 39.7841 118.156 39.8084 118.261 39.8558C118.366 39.9031 118.461 39.9724 118.542 40.0598L123.426 45.3547C123.589 45.5306 123.68 45.769 123.68 46.0176C123.68 46.2663 123.589 46.5047 123.426 46.6805L118.539 51.9751C118.459 52.0625 118.363 52.1318 118.258 52.1791C118.153 52.2264 118.04 52.2508 117.926 52.2508C117.812 52.2508 117.699 52.2264 117.594 52.1791C117.489 52.1318 117.393 52.0625 117.313 51.9751L116.7 51.311C116.538 51.1352 116.447 50.8967 116.447 50.6481C116.447 50.3995 116.538 50.161 116.7 49.9852L119.065 47.4239L108.39 47.4239C108.161 47.4239 107.941 47.3251 107.778 47.1493C107.616 46.9735 107.525 46.735 107.525 46.4864L107.525 45.5489C107.525 45.3002 107.616 45.0618 107.778 44.886C107.941 44.7102 108.161 44.6114 108.39 44.6114Z" fill="#E3EEFF"/>
<path fill-rule="evenodd" clip-rule="evenodd" d="M48.6652 21C48.6652 21 48.6652 21 48.6652 21V21C40.9999 22.686 28 29.686 23.5835 33.1893V72.1012L48.6652 62.9592L73.7469 72.1011V33.1893C67.5001 27.686 57.0002 22.686 48.6652 21Z" fill="#E3EEFF"/>
<path d="M48.6652 21L48.7639 20.5098C48.6169 20.4802 48.4644 20.5182 48.3484 20.6131C48.2324 20.7081 48.1652 20.8501 48.1652 21H48.6652ZM48.6652 21L48.7644 20.5099L48.7639 20.5099L48.6652 21ZM48.6652 21L48.7726 21.4884C49.0018 21.4379 49.1652 21.2348 49.1652 21H48.6652ZM23.5835 33.1893L23.2728 32.7976C23.1532 32.8924 23.0835 33.0367 23.0835 33.1893H23.5835ZM23.5835 72.1012H23.0835C23.0835 72.2643 23.1631 72.4172 23.2968 72.5108C23.4305 72.6044 23.6014 72.6268 23.7547 72.5709L23.5835 72.1012ZM48.6652 62.9592L48.8365 62.4894C48.7259 62.4491 48.6046 62.4491 48.494 62.4894L48.6652 62.9592ZM73.7469 72.1011L73.5757 72.5709C73.729 72.6268 73.8999 72.6043 74.0336 72.5108C74.1673 72.4172 74.2469 72.2643 74.2469 72.1011H73.7469ZM73.7469 33.1893H74.2469C74.2469 33.0457 74.1852 32.909 74.0774 32.8141L73.7469 33.1893ZM48.5665 21.4902C48.5735 21.4916 48.5795 21.4926 48.584 21.4934C48.5885 21.4941 48.5922 21.4947 48.5949 21.495C48.5976 21.4954 48.5997 21.4957 48.6009 21.4959C48.6015 21.4959 48.6021 21.496 48.6024 21.496C48.6025 21.4961 48.6026 21.4961 48.6027 21.4961C48.6028 21.4961 48.6028 21.4961 48.6028 21.4961C48.6028 21.4961 48.6028 21.4961 48.6028 21.4961C48.6028 21.4961 48.6028 21.4961 48.6028 21.4961C48.6028 21.4961 48.6028 21.4961 48.6028 21.4961C48.6028 21.4961 48.6028 21.4961 48.6028 21.4961C48.603 21.4961 48.6021 21.496 48.6009 21.4959C48.5997 21.4957 48.5976 21.4954 48.5949 21.495C48.5923 21.4947 48.5885 21.4941 48.584 21.4934C48.5796 21.4926 48.5736 21.4916 48.5665 21.4902L48.7639 20.5099C48.7569 20.5084 48.7509 20.5074 48.7464 20.5067C48.7419 20.5059 48.7382 20.5054 48.7355 20.505C48.7328 20.5046 48.7307 20.5043 48.7295 20.5042C48.7288 20.5041 48.7283 20.504 48.728 20.504C48.7279 20.504 48.7277 20.5039 48.7277 20.5039C48.7276 20.5039 48.7276 20.5039 48.7276 20.5039C48.7276 20.5039 48.7276 20.5039 48.7276 20.5039C48.7276 20.5039 48.7276 20.5039 48.7276 20.5039C48.7276 20.5039 48.7276 20.5039 48.7276 20.5039C48.7276 20.5039 48.7276 20.5039 48.7276 20.5039C48.7274 20.5039 48.7283 20.504 48.7295 20.5042C48.7307 20.5043 48.7328 20.5046 48.7355 20.505C48.7381 20.5053 48.7419 20.5059 48.7464 20.5066C48.7508 20.5074 48.7568 20.5084 48.7639 20.5098L48.5665 21.4902ZM49.1652 21V21H48.1652V21H49.1652ZM48.5577 20.5117C44.6625 21.3685 39.4511 23.563 34.681 25.9667C29.9099 28.3708 25.5205 31.0146 23.2728 32.7976L23.8942 33.581C26.063 31.8607 30.3818 29.2528 35.131 26.8597C39.8814 24.466 45.0026 22.3176 48.7726 21.4884L48.5577 20.5117ZM23.0835 33.1893V72.1012H24.0835V33.1893H23.0835ZM23.7547 72.5709L48.8365 63.429L48.494 62.4894L23.4123 71.6314L23.7547 72.5709ZM73.9181 71.6314L48.8365 62.4894L48.494 63.429L73.5757 72.5709L73.9181 71.6314ZM73.2469 33.1893V72.1011H74.2469V33.1893H73.2469ZM48.5661 21.4901C56.8227 23.1602 67.2408 28.1239 73.4164 33.5644L74.0774 32.8141C67.7594 27.2481 57.1777 22.2118 48.7644 20.5099L48.5661 21.4901Z" fill="#8FADC8"/>
<path d="M23.5832 72.3356C20.7703 59.3962 22.4111 40.8466 23.5832 33.1893L48.665 45.3785V84.2904C34.8348 80.071 28.2714 75.1485 23.5832 72.3356Z" fill="#BBD6FF" stroke="#8FADC8" stroke-linecap="round" stroke-linejoin="round"/>
<path d="M73.7469 72.3356C76.5598 59.3962 74.9189 40.8466 73.7469 33.1893L48.6651 45.3785V84.2904C62.4952 80.071 69.0587 75.1485 73.7469 72.3356Z" fill="#E3EEFF" stroke="#8FADC8" stroke-linecap="round" stroke-linejoin="round"/>
<path d="M42.9226 87.4327L48.314 84.6198C47.1419 84.0729 44.4697 82.8852 43.157 82.5102C41.5161 82.0414 38 79.9317 38 85.0886C38 89.2142 41.2817 88.3704 42.9226 87.4327Z" stroke="#8FADC8"/>
<path d="M17.9226 74.4327L23.314 71.6198C22.1419 71.0729 19.4697 69.8852 18.157 69.5102C16.5161 69.0414 13 66.9317 13 72.0886C13 76.2142 16.2817 75.3704 17.9226 74.4327Z" stroke="#8FADC8"/>
<path d="M18.9226 36.4327L24.314 33.6198C23.1419 33.0729 20.4697 31.8852 19.157 31.5102C17.5161 31.0414 14 28.9317 14 34.0886C14 38.2142 17.2817 37.3704 18.9226 36.4327Z" stroke="#8FADC8"/>
<path d="M42.9226 48.4327L48.314 45.6198C47.1419 45.0729 44.4697 43.8852 43.157 43.5102C41.5161 43.0414 38 40.9317 38 46.0886C38 50.2142 41.2817 49.3704 42.9226 48.4327Z" stroke="#8FADC8"/>
<path d="M150.771 30.1119L153.583 35.5033C154.13 34.3313 155.318 31.659 155.693 30.3463C156.162 28.7055 158.272 25.1893 153.115 25.1893C148.989 25.1893 149.833 28.4711 150.771 30.1119Z" stroke="#8FADC8"/>
<path d="M175.685 17.9226L178.498 23.314C179.045 22.1419 180.233 19.4697 180.608 18.157C181.076 16.5161 183.186 13 178.029 13C173.904 13 174.747 16.2817 175.685 17.9226Z" stroke="#8FADC8"/>
<path fill-rule="evenodd" clip-rule="evenodd" d="M178.665 23.3141C178.665 23.3141 178.665 23.314 178.665 23.314V23.3141C173.227 27.6272 159.678 33.2374 153.583 35.5033V74.4152L178.665 65.2732L203.747 74.4152V35.5033C197.652 33.2373 184.104 27.6272 178.665 23.3141V23.314C178.665 23.314 178.665 23.3141 178.665 23.3141Z" fill="#BBD6FF"/>
<path d="M178.665 23.314L178.986 22.9304C178.837 22.8059 178.629 22.7789 178.453 22.8611C178.278 22.9433 178.165 23.1199 178.165 23.314H178.665ZM178.665 23.3141L178.345 23.6977C178.521 23.8455 178.776 23.8533 178.962 23.7166L178.665 23.3141ZM178.665 23.3141L178.976 23.7059C179.095 23.611 179.165 23.4667 179.165 23.3141H178.665ZM153.583 35.5033L153.409 35.0346C153.213 35.1075 153.083 35.2944 153.083 35.5033H153.583ZM153.583 74.4152H153.083C153.083 74.5784 153.163 74.7313 153.297 74.8248C153.43 74.9184 153.601 74.9408 153.755 74.8849L153.583 74.4152ZM178.665 65.2732L178.836 64.8035C178.726 64.7632 178.605 64.7632 178.494 64.8035L178.665 65.2732ZM203.747 74.4152L203.576 74.8849C203.729 74.9408 203.9 74.9184 204.034 74.8248C204.167 74.7312 204.247 74.5783 204.247 74.4152H203.747ZM203.747 35.5033H204.247C204.247 35.2944 204.117 35.1074 203.921 35.0346L203.747 35.5033ZM178.665 23.3141H178.165C178.165 23.4667 178.235 23.611 178.355 23.7058L178.665 23.3141ZM178.665 23.314H179.165C179.165 23.1254 179.059 22.9528 178.891 22.8678C178.722 22.7827 178.52 22.7996 178.369 22.9115L178.665 23.314ZM178.344 23.6976C178.348 23.7005 178.351 23.7027 178.352 23.704C178.353 23.7047 178.354 23.7052 178.354 23.7055C178.354 23.7057 178.354 23.7058 178.355 23.7059C178.355 23.7059 178.355 23.706 178.355 23.706C178.355 23.706 178.355 23.706 178.355 23.706C178.355 23.706 178.355 23.706 178.355 23.706C178.355 23.706 178.355 23.706 178.355 23.706C178.355 23.706 178.355 23.706 178.355 23.706C178.355 23.7062 178.354 23.7052 178.352 23.704C178.351 23.7027 178.348 23.7005 178.345 23.6977L178.986 22.9305C178.983 22.9276 178.98 22.9254 178.978 22.9241C178.977 22.9234 178.977 22.9229 178.976 22.9226C178.976 22.9224 178.976 22.9223 178.976 22.9222C178.976 22.9222 178.976 22.9221 178.976 22.9221C178.976 22.9221 178.976 22.9221 178.976 22.9221C178.976 22.9221 178.976 22.9221 178.976 22.9221C178.976 22.9221 178.976 22.9221 178.976 22.9221C178.976 22.9221 178.976 22.9221 178.976 22.9221C178.975 22.9219 178.977 22.9229 178.978 22.9241C178.98 22.9254 178.982 22.9276 178.986 22.9304L178.344 23.6976ZM179.165 23.3141V23.314H178.165V23.3141H179.165ZM178.354 22.9224C175.687 25.0377 170.99 27.4972 166.161 29.7223C161.346 31.9411 156.447 33.9054 153.409 35.0346L153.758 35.972C156.815 34.8353 161.738 32.8615 166.58 30.6305C171.408 28.4058 176.205 25.9036 178.976 23.7059L178.354 22.9224ZM153.083 35.5033V74.4152H154.083V35.5033H153.083ZM153.755 74.8849L178.836 65.743L178.494 64.8035L153.412 73.9454L153.755 74.8849ZM203.918 73.9454L178.836 64.8035L178.494 65.743L203.576 74.8849L203.918 73.9454ZM203.247 35.5033V74.4152H204.247V35.5033H203.247ZM178.355 23.7058C181.126 25.9036 185.922 28.4057 190.751 30.6305C195.593 32.8615 200.515 34.8353 203.573 35.9719L203.921 35.0346C200.884 33.9054 195.985 31.9411 191.169 29.7223C186.34 27.4972 181.643 25.0377 178.976 22.9223L178.355 23.7058ZM179.165 23.3141V23.314H178.165V23.3141H179.165ZM178.369 22.9115C178.364 22.9149 178.36 22.9177 178.358 22.9196C178.357 22.9205 178.356 22.9213 178.355 22.9217C178.355 22.922 178.355 22.9222 178.355 22.9223C178.354 22.9223 178.354 22.9224 178.354 22.9224C178.354 22.9224 178.354 22.9224 178.354 22.9224C178.354 22.9225 178.354 22.9225 178.354 22.9225C178.354 22.9225 178.354 22.9225 178.354 22.9225C178.354 22.9225 178.354 22.9225 178.354 22.9225C178.354 22.9225 178.354 22.9225 178.354 22.9225C178.354 22.9227 178.356 22.9213 178.358 22.9196C178.36 22.9177 178.364 22.9149 178.369 22.9116L178.962 23.7166C178.966 23.7132 178.97 23.7104 178.972 23.7085C178.974 23.7076 178.975 23.7068 178.975 23.7064C178.975 23.7061 178.976 23.7059 178.976 23.7058C178.976 23.7058 178.976 23.7057 178.976 23.7057C178.976 23.7057 178.976 23.7057 178.976 23.7057C178.976 23.7057 178.976 23.7057 178.976 23.7057C178.976 23.7057 178.976 23.7056 178.976 23.7056C178.976 23.7056 178.976 23.7056 178.976 23.7056C178.976 23.7056 178.976 23.7056 178.976 23.7056C178.976 23.7054 178.975 23.7069 178.972 23.7085C178.97 23.7104 178.966 23.7132 178.962 23.7166L178.369 22.9115Z" fill="#8FADC8"/>
<path d="M153.583 74.6496C150.77 61.7102 152.411 43.1607 153.583 35.5033L178.665 47.6926V86.6044C164.835 82.3851 158.271 77.4625 153.583 74.6496Z" fill="#E3EEFF" stroke="#8FADC8" stroke-linecap="round" stroke-linejoin="round"/>
<path d="M203.747 74.6496C206.56 61.7102 204.919 43.1607 203.747 35.5033L178.665 47.6926V86.6044C192.495 82.3851 199.059 77.4625 203.747 74.6496Z" fill="#E3EEFF" stroke="#8FADC8" stroke-linecap="round" stroke-linejoin="round"/>
<path d="M176.154 42.3011L178.967 47.6925C179.514 46.5204 180.701 43.8482 181.076 42.5355C181.545 40.8946 183.655 37.3785 178.498 37.3785C174.372 37.3785 175.216 40.6602 176.154 42.3011Z" stroke="#8FADC8"/>
<path d="M201.002 30.1119L203.814 35.5033C204.361 34.3313 205.549 31.659 205.924 30.3463C206.393 28.7055 208.503 25.1893 203.346 25.1893C199.22 25.1893 200.064 28.4711 201.002 30.1119Z" stroke="#8FADC8"/>
</g>
</svg>
