<svg width="227" height="195" viewBox="0 0 227 195" fill="none" xmlns="http://www.w3.org/2000/svg">
<path d="M62.9437 44.1636L70.0391 57.7631C71.4187 54.8067 74.4145 48.0661 75.3605 44.7549C76.5431 40.6159 81.8647 31.7467 68.8565 31.7467C58.45 31.7467 60.5786 40.0246 62.9437 44.1636Z" stroke="#8FADC8" stroke-width="2"/>
<path d="M125.789 13.4169L132.885 27.0164C134.264 24.06 137.26 17.3194 138.206 14.0082C139.389 9.86922 144.71 1 131.702 1C121.296 1 123.424 9.27794 125.789 13.4169Z" stroke="#8FADC8" stroke-width="2"/>
<path d="M133.306 27.0164C119.588 37.8959 85.4124 52.0473 70.0391 57.763V155.916L133.306 132.856V27.0164Z" fill="#D0E3FF" stroke="#8FADC8" stroke-width="2" stroke-linecap="round" stroke-linejoin="round"/>
<path d="M133.306 27.0164C147.024 37.8959 181.2 52.0473 196.573 57.763V155.916L133.306 132.856V27.0164Z" fill="#D0E3FF" stroke="#8FADC8" stroke-width="2" stroke-linecap="round" stroke-linejoin="round"/>
<path d="M70.0388 156.507C62.9434 123.868 67.0824 77.0783 70.0388 57.7631L133.306 88.5097V186.662C98.4204 176.019 81.8645 163.602 70.0388 156.507Z" fill="#E3EEFF" stroke="#8FADC8" stroke-width="2" stroke-linecap="round" stroke-linejoin="round"/>
<path d="M196.573 156.507C203.669 123.868 199.53 77.0783 196.573 57.7631L133.306 88.5097V186.662C168.192 176.019 184.748 163.602 196.573 156.507Z" fill="#E3EEFF" stroke="#8FADC8" stroke-width="2" stroke-linecap="round" stroke-linejoin="round"/>
<path d="M126.972 74.9102L134.067 88.5097C135.447 85.5533 138.443 78.8127 139.389 75.5015C140.571 71.3625 145.893 62.4933 132.885 62.4933C122.478 62.4933 124.607 70.7712 126.972 74.9102Z" stroke="#8FADC8" stroke-width="2"/>
<path d="M189.648 44.1636L196.743 57.7631C198.123 54.8067 201.119 48.0661 202.065 44.7549C203.247 40.6159 208.569 31.7467 195.561 31.7467C185.154 31.7467 187.283 40.0246 189.648 44.1636Z" stroke="#8FADC8" stroke-width="2"/>
<path d="M202 166L198 163L204.5 162L202 166Z" fill="#ADADAD"/>
<path d="M63.6667 165L62 162L67 162.75L63.6667 165Z" fill="#ADADAD"/>
<path d="M146.705 188.13L150.543 191.335L144 191.995L146.705 188.13Z" fill="#ADADAD"/>
<path d="M63.5 163L119.5 191" stroke="#ADADAD"/>
<path d="M147.5 190.5L203 163" stroke="#ADADAD"/>
<path d="M121 192.976L132.545 187" stroke="#ADADAD" stroke-linecap="round" stroke-linejoin="round"/>
<path d="M144.258 193.5L133 187" stroke="#ADADAD" stroke-linecap="round" stroke-linejoin="round"/>
<path d="M208.258 163.5L197 157" stroke="#ADADAD" stroke-linecap="round" stroke-linejoin="round"/>
<path d="M57.9999 162.976L69.5449 157" stroke="#ADADAD" stroke-linecap="round" stroke-linejoin="round"/>
<path d="M121.5 192.5L117 191.5L119.5 189L121.5 192.5Z" fill="#ADADAD"/>
<path d="M56 61.5L56 154" stroke="#ADADAD"/>
<path d="M69 58H56" stroke="#ADADAD" stroke-linecap="round" stroke-linejoin="round"/>
<path d="M67 157H54" stroke="#ADADAD" stroke-linecap="round" stroke-linejoin="round"/>
<path d="M56 58L57.7321 61.75H54.2679L56 58Z" fill="#ADADAD"/>
<path d="M56 157L54.2679 153.25L57.7321 153.25L56 157Z" fill="#ADADAD"/>
<path d="M52.988 182.6L50.672 189.464L48.356 182.6H47.252L44.888 189.428L42.62 182.6H41.384L44.192 191H45.476L47.768 184.292L50.06 191H51.32L54.128 182.6H52.988ZM56.0157 183.416C56.4717 183.416 56.7957 183.08 56.7957 182.648C56.7957 182.24 56.4597 181.916 56.0157 181.916C55.5717 181.916 55.2357 182.252 55.2357 182.672C55.2357 183.092 55.5717 183.416 56.0157 183.416ZM55.4397 191H56.5917V184.64H55.4397V191ZM63.6392 182.096V185.6C63.1112 184.916 62.3192 184.58 61.4192 184.58C59.5592 184.58 58.2032 185.876 58.2032 187.82C58.2032 189.764 59.5592 191.072 61.4192 191.072C62.3552 191.072 63.1712 190.712 63.6872 189.992V191H64.7912V182.096H63.6392ZM61.5152 190.064C60.2912 190.064 59.3672 189.176 59.3672 187.82C59.3672 186.464 60.2912 185.588 61.5152 185.588C62.7272 185.588 63.6512 186.464 63.6512 187.82C63.6512 189.176 62.7272 190.064 61.5152 190.064ZM70.3393 189.8C70.0993 189.992 69.7753 190.1 69.4393 190.1C68.8033 190.1 68.4433 189.716 68.4433 189.032V185.588H70.2673V184.64H68.4433V183.248H67.2913V184.64H66.2113V185.588H67.2913V189.08C67.2913 190.364 68.0233 191.072 69.3073 191.072C69.8233 191.072 70.3513 190.928 70.6993 190.628L70.3393 189.8ZM75.488 184.58C74.516 184.58 73.724 184.928 73.244 185.54V182.096H72.092V191H73.244V187.724C73.244 186.344 74.036 185.612 75.26 185.612C76.352 185.612 76.976 186.224 76.976 187.472V191H78.128V187.34C78.128 185.468 77.036 184.58 75.488 184.58Z" fill="#ADADAD"/>
<path d="M183.26 187H189.008V185.956H184.46V178.6H183.26V187ZM195.883 183.856C195.883 181.9 194.575 180.58 192.739 180.58C190.903 180.58 189.547 181.936 189.547 183.82C189.547 185.716 190.915 187.072 192.967 187.072C194.023 187.072 194.899 186.712 195.475 186.04L194.839 185.296C194.371 185.812 193.747 186.064 193.003 186.064C191.743 186.064 190.843 185.32 190.699 184.204H195.859C195.871 184.096 195.883 183.952 195.883 183.856ZM192.739 181.552C193.855 181.552 194.659 182.308 194.779 183.376H190.699C190.819 182.296 191.635 181.552 192.739 181.552ZM200.879 180.58C199.871 180.58 199.055 180.952 198.587 181.6V180.64H197.483V187H198.635V183.724C198.635 182.344 199.427 181.612 200.651 181.612C201.743 181.612 202.367 182.224 202.367 183.472V187H203.519V183.34C203.519 181.468 202.427 180.58 200.879 180.58ZM210.678 180.64V181.624C210.138 180.928 209.274 180.58 208.326 180.58C206.49 180.58 205.098 181.816 205.098 183.652C205.098 185.488 206.49 186.736 208.326 186.736C209.238 186.736 210.066 186.412 210.618 185.752V186.256C210.618 187.696 209.934 188.392 208.434 188.392C207.498 188.392 206.574 188.068 205.986 187.564L205.434 188.452C206.13 189.076 207.306 189.4 208.47 189.4C210.63 189.4 211.77 188.38 211.77 186.136V180.64H210.678ZM208.458 185.728C207.174 185.728 206.262 184.876 206.262 183.652C206.262 182.416 207.174 181.588 208.458 181.588C209.73 181.588 210.642 182.416 210.642 183.652C210.642 184.876 209.73 185.728 208.458 185.728ZM217.187 185.8C216.947 185.992 216.623 186.1 216.287 186.1C215.651 186.1 215.291 185.716 215.291 185.032V181.588H217.115V180.64H215.291V179.248H214.139V180.64H213.059V181.588H214.139V185.08C214.139 186.364 214.871 187.072 216.155 187.072C216.671 187.072 217.199 186.928 217.547 186.628L217.187 185.8ZM222.336 180.58C221.364 180.58 220.572 180.928 220.092 181.54V178.096H218.94V187H220.092V183.724C220.092 182.344 220.884 181.612 222.108 181.612C223.2 181.612 223.824 182.224 223.824 183.472V187H224.976V183.34C224.976 181.468 223.884 180.58 222.336 180.58Z" fill="#ADADAD"/>
<path d="M7.284 104.6V108.212H2.46L2.46 104.6H1.26L1.26 113H2.46L2.46 109.256H7.284L7.284 113H8.484L8.484 104.6H7.284ZM16.5783 109.856C16.5783 107.9 15.2703 106.58 13.4343 106.58C11.5983 106.58 10.2423 107.936 10.2423 109.82C10.2423 111.716 11.6103 113.072 13.6623 113.072C14.7183 113.072 15.5943 112.712 16.1703 112.04L15.5343 111.296C15.0663 111.812 14.4423 112.064 13.6983 112.064C12.4383 112.064 11.5383 111.32 11.3943 110.204H16.5543C16.5663 110.096 16.5783 109.952 16.5783 109.856ZM13.4343 107.552C14.5503 107.552 15.3543 108.308 15.4743 109.376H11.3943C11.5143 108.296 12.3303 107.552 13.4343 107.552ZM18.7539 105.416C19.2099 105.416 19.5339 105.08 19.5339 104.648C19.5339 104.24 19.1979 103.916 18.7539 103.916C18.3099 103.916 17.9739 104.252 17.9739 104.672C17.9739 105.092 18.3099 105.416 18.7539 105.416ZM18.1779 113H19.3299L19.3299 106.64H18.1779L18.1779 113ZM26.5215 106.64V107.624C25.9815 106.928 25.1175 106.58 24.1695 106.58C22.3335 106.58 20.9415 107.816 20.9415 109.652C20.9415 111.488 22.3335 112.736 24.1695 112.736C25.0815 112.736 25.9095 112.412 26.4615 111.752L26.4615 112.256C26.4615 113.696 25.7775 114.392 24.2775 114.392C23.3415 114.392 22.4175 114.068 21.8295 113.564L21.2775 114.452C21.9735 115.076 23.1495 115.4 24.3135 115.4C26.4735 115.4 27.6135 114.38 27.6135 112.136L27.6135 106.64H26.5215ZM24.3015 111.728C23.0175 111.728 22.1055 110.876 22.1055 109.652C22.1055 108.416 23.0175 107.588 24.3015 107.588C25.5735 107.588 26.4855 108.416 26.4855 109.652C26.4855 110.876 25.5735 111.728 24.3015 111.728ZM33.2107 106.58C32.2387 106.58 31.4467 106.928 30.9667 107.54V104.096H29.8147L29.8147 113H30.9667L30.9667 109.724C30.9667 108.344 31.7587 107.612 32.9827 107.612C34.0747 107.612 34.6987 108.224 34.6987 109.472V113H35.8507V109.34C35.8507 107.468 34.7587 106.58 33.2107 106.58ZM41.1986 111.8C40.9586 111.992 40.6346 112.1 40.2986 112.1C39.6626 112.1 39.3026 111.716 39.3026 111.032V107.588H41.1266V106.64H39.3026V105.248H38.1506V106.64H37.0706V107.588H38.1506V111.08C38.1506 112.364 38.8826 113.072 40.1666 113.072C40.6826 113.072 41.2106 112.928 41.5586 112.628L41.1986 111.8Z" fill="#ADADAD"/>
</svg>
