<svg width="105" height="105" viewBox="0 0 105 105" fill="none" xmlns="http://www.w3.org/2000/svg">
<mask id="mask0" mask-type="alpha" maskUnits="userSpaceOnUse" x="0" y="0" width="105" height="105">
<rect width="105" height="105" fill="#C4C4C4"/>
</mask>
<g mask="url(#mask0)">
<path d="M59.7706 15.9226L62.5835 21.314C63.1304 20.1419 64.3181 17.4697 64.6931 16.157C65.1619 14.5161 67.2717 11 62.1147 11C57.9891 11 58.8329 14.2817 59.7706 15.9226Z" stroke="#8FADC8"/>
<path d="M59.6851 42.9226L62.498 48.314C63.045 47.1419 64.2326 44.4697 64.6077 43.157C65.0765 41.5161 67.1862 38 62.0292 38C57.9036 38 58.7475 41.2817 59.6851 42.9226Z" stroke="#8FADC8"/>
<path fill-rule="evenodd" clip-rule="evenodd" d="M37.5835 60.5C43.6781 58.234 57.227 52.6239 62.6652 48.3107V48.5C68.1036 52.8132 81.6523 58.4233 87.7469 60.6892V87.4151L62.6652 78.2732L37.5835 87.4151V60.5Z" fill="#E3EEFF"/>
<path d="M62.6652 48.3107H63.1652C63.1652 48.1189 63.0555 47.944 62.8828 47.8605C62.7101 47.7771 62.5048 47.7998 62.3545 47.919L62.6652 48.3107ZM37.5835 60.5L37.4093 60.0313C37.2134 60.1041 37.0835 60.2911 37.0835 60.5H37.5835ZM62.6652 48.5H62.1652C62.1652 48.6527 62.235 48.7969 62.3545 48.8918L62.6652 48.5ZM87.7469 60.6892H88.2469C88.2469 60.4803 88.117 60.2934 87.9211 60.2206L87.7469 60.6892ZM87.7469 87.4151L87.5757 87.8849C87.729 87.9408 87.8999 87.9183 88.0336 87.8248C88.1673 87.7312 88.2469 87.5783 88.2469 87.4151H87.7469ZM62.6652 78.2732L62.8365 77.8034C62.7259 77.7631 62.6046 77.7631 62.494 77.8034L62.6652 78.2732ZM37.5835 87.4151H37.0835C37.0835 87.5783 37.1631 87.7312 37.2968 87.8248C37.4305 87.9183 37.6014 87.9408 37.7547 87.8849L37.5835 87.4151ZM62.3545 47.919C59.6873 50.0344 54.9904 52.4938 50.1613 54.7189C45.3456 56.9378 40.4466 58.9021 37.4093 60.0313L37.7577 60.9686C40.8151 59.832 45.7378 57.8581 50.5797 55.6272C55.4082 53.4024 60.2049 50.9002 62.9759 48.7025L62.3545 47.919ZM63.1652 48.5V48.3107H62.1652V48.5H63.1652ZM62.3545 48.8918C65.1256 51.0895 69.9223 53.5917 74.7507 55.8164C79.5927 58.0474 84.5154 60.0212 87.5727 61.1579L87.9211 60.2206C84.8839 59.0913 79.9849 57.1271 75.1692 54.9082C70.3401 52.6831 65.6432 50.2237 62.9759 48.1083L62.3545 48.8918ZM87.2469 60.6892V87.4151H88.2469V60.6892H87.2469ZM87.9181 86.9454L62.8365 77.8034L62.494 78.743L87.5757 87.8849L87.9181 86.9454ZM37.7547 87.8849L62.8365 78.743L62.494 77.8034L37.4123 86.9454L37.7547 87.8849ZM37.0835 60.5V87.4151H38.0835V60.5H37.0835Z" fill="#8FADC8"/>
<path fill-rule="evenodd" clip-rule="evenodd" d="M37.5835 33.1893C43.6781 30.9233 57.227 25.3131 62.6652 21V21.1893C68.1036 25.5024 81.6523 31.1126 87.7469 33.3785V60.1044L62.6652 50.9625L37.5835 60.1044V33.1893Z" fill="#BBD6FF"/>
<path d="M62.6652 21H63.1652C63.1652 20.8082 63.0555 20.6333 62.8828 20.5498C62.7101 20.4663 62.5048 20.4891 62.3545 20.6083L62.6652 21ZM37.5835 33.1893L37.4093 32.7206C37.2134 32.7934 37.0835 32.9803 37.0835 33.1893H37.5835ZM62.6652 21.1893H62.1652C62.1652 21.3419 62.235 21.4862 62.3545 21.5811L62.6652 21.1893ZM87.7469 33.3785H88.2469C88.2469 33.1696 88.117 32.9827 87.9211 32.9098L87.7469 33.3785ZM87.7469 60.1044L87.5757 60.5742C87.729 60.63 87.8999 60.6076 88.0336 60.514C88.1673 60.4205 88.2469 60.2676 88.2469 60.1044H87.7469ZM62.6652 50.9625L62.8365 50.4927C62.7259 50.4524 62.6046 50.4524 62.494 50.4927L62.6652 50.9625ZM37.5835 60.1044H37.0835C37.0835 60.2676 37.1631 60.4205 37.2968 60.5141C37.4305 60.6076 37.6014 60.6301 37.7547 60.5742L37.5835 60.1044ZM62.3545 20.6083C59.6873 22.7236 54.9904 25.1831 50.1613 27.4082C45.3456 29.6271 40.4466 31.5913 37.4093 32.7206L37.7577 33.6579C40.8151 32.5212 45.7378 30.5474 50.5797 28.3164C55.4082 26.0917 60.2049 23.5895 62.9759 21.3917L62.3545 20.6083ZM63.1652 21.1893V21H62.1652V21.1893H63.1652ZM62.3545 21.5811C65.1256 23.7788 69.9223 26.2809 74.7507 28.5057C79.5927 30.7367 84.5154 32.7105 87.5727 33.8472L87.9211 32.9098C84.8839 31.7806 79.9849 29.8163 75.1692 27.5975C70.3401 25.3724 65.6432 22.9129 62.9759 20.7976L62.3545 21.5811ZM87.2469 33.3785V60.1044H88.2469V33.3785H87.2469ZM87.9181 59.6346L62.8365 50.4927L62.494 51.4322L87.5757 60.5742L87.9181 59.6346ZM37.7547 60.5742L62.8365 51.4322L62.494 50.4927L37.4123 59.6346L37.7547 60.5742ZM37.0835 33.1893V60.1044H38.0835V33.1893H37.0835Z" fill="#8FADC8"/>
<path d="M37.5832 87.6496C34.7703 74.7102 36.4111 67.9682 37.5832 60.3108L62.665 72.5001V99.6045C48.8348 95.3851 42.2714 90.4625 37.5832 87.6496Z" fill="#E3EEFF" stroke="#8FADC8" stroke-linecap="round" stroke-linejoin="round"/>
<path d="M37.5832 60.3389C34.7703 47.3995 36.4111 40.6574 37.5832 33.0001L62.665 45.1893V72.2937C48.8348 68.0744 42.2714 63.1518 37.5832 60.3389Z" fill="#BBD6FF" stroke="#8FADC8" stroke-linecap="round" stroke-linejoin="round"/>
<path d="M87.7469 87.6496C90.5598 74.7102 88.9189 68.1574 87.7469 60.5L62.6651 72.6893V99.6044C76.4952 95.3851 83.0587 90.4625 87.7469 87.6496Z" fill="#E3EEFF" stroke="#8FADC8" stroke-linecap="round" stroke-linejoin="round"/>
<path d="M78.288 77.4V83H77.248V78.272H76.064V77.4H78.288Z" fill="#8FADC8"/>
<path d="M87.7469 60.3389C90.5598 47.3995 88.9189 40.8466 87.7469 33.1893L62.6651 45.3785V72.2937C76.4952 68.0743 83.0587 63.1518 87.7469 60.3389Z" fill="#BBD6FF" stroke="#8FADC8" stroke-linecap="round" stroke-linejoin="round"/>
<path d="M60.1539 38.9226L62.9668 44.314C63.5137 43.1419 64.7014 40.4697 65.0764 39.157C65.5452 37.5161 67.655 34 62.498 34C58.3724 34 59.2162 37.2817 60.1539 38.9226Z" stroke="#8FADC8"/>
<path d="M85.0015 27.9226L87.8144 33.314C88.3614 32.1419 89.549 29.4697 89.9241 28.157C90.3929 26.5161 92.5026 23 87.3456 23C83.22 23 84.0639 26.2817 85.0015 27.9226Z" stroke="#8FADC8"/>
<path d="M34.7706 26.9226L37.5835 32.314C38.1304 31.1419 39.3181 28.4697 39.6931 27.157C40.1619 25.5161 42.2717 22 37.1147 22C32.9891 22 33.8329 25.2817 34.7706 26.9226Z" stroke="#8FADC8"/>
<path d="M78.408 55.12V56H74.28V55.304L76.504 53.192C76.7547 52.952 76.9227 52.744 77.008 52.568C77.0987 52.3867 77.144 52.208 77.144 52.032C77.144 51.7707 77.056 51.5707 76.88 51.432C76.704 51.2933 76.4453 51.224 76.104 51.224C75.5333 51.224 75.096 51.4187 74.792 51.808L74.064 51.248C74.2827 50.9547 74.576 50.728 74.944 50.568C75.3173 50.4027 75.7333 50.32 76.192 50.32C76.8 50.32 77.2853 50.464 77.648 50.752C78.0107 51.04 78.192 51.432 78.192 51.928C78.192 52.232 78.128 52.5173 78 52.784C77.872 53.0507 77.6267 53.3547 77.264 53.696L75.768 55.12H78.408Z" fill="#8FADC8"/>
<path d="M39.5576 51.4688H35.1C35.3227 51.2194 35.5031 50.9332 35.6324 50.621C35.859 50.074 35.9183 49.4722 35.8028 48.8915C35.6873 48.3109 35.4022 47.7775 34.9836 47.3589C34.5649 46.9403 34.0316 46.6552 33.4509 46.5397C32.8703 46.4242 32.2684 46.4835 31.7215 46.71C31.1745 46.9366 30.707 47.3202 30.3781 47.8125C30.0492 48.3047 29.8736 48.8835 29.8736 49.4755C29.8736 50.2127 30.1456 50.9218 30.6339 51.4688H26.1763C25.8924 50.5137 25.8159 49.5074 25.9536 48.5177C26.1075 47.4121 26.5243 46.3595 27.1691 45.4483C27.8139 44.537 28.6678 43.7937 29.6592 43.2807C30.6507 42.7677 31.7507 42.5 32.867 42.5C33.9832 42.5 35.0832 42.7677 36.0747 43.2807C37.0661 43.7937 37.92 44.537 38.5648 45.4483C39.2096 46.3595 39.6264 47.4121 39.7803 48.5177C39.918 49.5074 39.8415 50.5137 39.5576 51.4688Z" fill="#E3EEFF" stroke="#8FADC8"/>
<path d="M52.2717 75.3784L52.2717 75.3785C52.8558 77.7144 51.2337 79.9114 49.1508 79.9114H16.7375C14.6545 79.9114 13.0328 77.7145 13.6203 75.3792L13.6205 75.3784L19.3084 52.6166L19.3084 52.6165C19.5547 51.63 20.3599 50.9914 21.2286 50.9914H44.6636C45.5321 50.9914 46.3367 51.6291 46.5838 52.6168L52.2717 75.3784Z" fill="#E3EEFF" stroke="#8FADC8"/>
<path d="M29.7964 65.1219L28.6717 66.277V68.0906H27.3545V60.998H28.6717V64.6355L32.1774 60.998H33.6568L30.6779 64.1694L33.8391 68.0906H32.299L29.7964 65.1219Z" fill="#9FB1C1"/>
<path d="M39.747 62.68V67.2699C39.747 69.1748 38.7743 70.1272 36.8289 70.1272C36.3088 70.1272 35.8157 70.0597 35.3496 69.9246C34.8836 69.7962 34.4985 69.6071 34.1946 69.3572L34.762 68.4047C34.9984 68.6006 35.2956 68.756 35.6536 68.8708C36.0184 68.9924 36.3865 69.0532 36.758 69.0532C37.3524 69.0532 37.7881 68.9181 38.0651 68.6479C38.342 68.3777 38.4805 67.9657 38.4805 67.4118V67.1281C38.2644 67.3645 38.0009 67.5435 37.6902 67.6651C37.3795 67.7867 37.0383 67.8475 36.6668 67.8475C36.1535 67.8475 35.6874 67.7394 35.2686 67.5232C34.8565 67.3003 34.5289 66.9896 34.2858 66.5911C34.0493 66.1925 33.9311 65.7366 33.9311 65.2232C33.9311 64.7098 34.0493 64.2573 34.2858 63.8655C34.5289 63.4669 34.8565 63.1596 35.2686 62.9434C35.6874 62.7273 36.1535 62.6192 36.6668 62.6192C37.0586 62.6192 37.4132 62.6834 37.7307 62.8117C38.055 62.9401 38.3251 63.136 38.5413 63.3994V62.68H39.747ZM36.8593 66.7734C37.3389 66.7734 37.7307 66.6316 38.0347 66.3479C38.3454 66.0574 38.5008 65.6825 38.5008 65.2232C38.5008 64.7706 38.3454 64.4025 38.0347 64.1188C37.7307 63.8351 37.3389 63.6932 36.8593 63.6932C36.373 63.6932 35.9745 63.8351 35.6637 64.1188C35.3598 64.4025 35.2078 64.7706 35.2078 65.2232C35.2078 65.6825 35.3598 66.0574 35.6637 66.3479C35.9745 66.6316 36.373 66.7734 36.8593 66.7734Z" fill="#9FB1C1"/>
</g>
</svg>
