<svg width="105" height="105" viewBox="0 0 105 105" fill="none" xmlns="http://www.w3.org/2000/svg">
<mask id="mask0" mask-type="alpha" maskUnits="userSpaceOnUse" x="0" y="0" width="105" height="105">
<rect width="105" height="105" fill="#C4C4C4"/>
</mask>
<g mask="url(#mask0)">
<path d="M49.7706 13.9226L52.5835 19.314C53.1304 18.1419 54.3181 15.4697 54.6931 14.157C55.1619 12.5161 57.2717 9 52.1147 9C47.9891 9 48.8329 12.2817 49.7706 13.9226Z" stroke="#8FADC8"/>
<path d="M49.6851 40.9226L52.498 46.314C53.045 45.1419 54.2326 42.4697 54.6077 41.157C55.0765 39.5161 57.1862 36 52.0292 36C47.9036 36 48.7475 39.2817 49.6851 40.9226Z" stroke="#8FADC8"/>
<path fill-rule="evenodd" clip-rule="evenodd" d="M27.5835 58.5C33.6781 56.234 47.227 50.6239 52.6652 46.3107V46.5C58.1036 50.8132 71.6523 56.4233 77.7469 58.6892V85.4151L52.6652 76.2732L27.5835 85.4151V58.5Z" fill="#E3EEFF"/>
<path d="M52.6652 46.3107H53.1652C53.1652 46.1189 53.0555 45.944 52.8828 45.8605C52.7101 45.7771 52.5048 45.7998 52.3545 45.919L52.6652 46.3107ZM27.5835 58.5L27.4093 58.0313C27.2134 58.1041 27.0835 58.2911 27.0835 58.5H27.5835ZM52.6652 46.5H52.1652C52.1652 46.6527 52.235 46.7969 52.3545 46.8918L52.6652 46.5ZM77.7469 58.6892H78.2469C78.2469 58.4803 78.117 58.2934 77.9211 58.2206L77.7469 58.6892ZM77.7469 85.4151L77.5757 85.8849C77.729 85.9408 77.8999 85.9183 78.0336 85.8248C78.1673 85.7312 78.2469 85.5783 78.2469 85.4151H77.7469ZM52.6652 76.2732L52.8365 75.8034C52.7259 75.7631 52.6046 75.7631 52.494 75.8034L52.6652 76.2732ZM27.5835 85.4151H27.0835C27.0835 85.5783 27.1631 85.7312 27.2968 85.8248C27.4305 85.9183 27.6014 85.9408 27.7547 85.8849L27.5835 85.4151ZM52.3545 45.919C49.6873 48.0344 44.9904 50.4938 40.1613 52.7189C35.3456 54.9378 30.4466 56.9021 27.4093 58.0313L27.7577 58.9686C30.8151 57.832 35.7378 55.8581 40.5797 53.6272C45.4082 51.4024 50.2049 48.9002 52.9759 46.7025L52.3545 45.919ZM53.1652 46.5V46.3107H52.1652V46.5H53.1652ZM52.3545 46.8918C55.1256 49.0895 59.9223 51.5917 64.7507 53.8164C69.5927 56.0474 74.5154 58.0212 77.5727 59.1579L77.9211 58.2206C74.8839 57.0913 69.9849 55.1271 65.1692 52.9082C60.3401 50.6831 55.6432 48.2237 52.9759 46.1083L52.3545 46.8918ZM77.2469 58.6892V85.4151H78.2469V58.6892H77.2469ZM77.9181 84.9454L52.8365 75.8034L52.494 76.743L77.5757 85.8849L77.9181 84.9454ZM27.7547 85.8849L52.8365 76.743L52.494 75.8034L27.4123 84.9454L27.7547 85.8849ZM27.0835 58.5V85.4151H28.0835V58.5H27.0835Z" fill="#8FADC8"/>
<path fill-rule="evenodd" clip-rule="evenodd" d="M27.5835 31.1893C33.6781 28.9233 47.227 23.3131 52.6652 19V19.1893C58.1036 23.5024 71.6523 29.1126 77.7469 31.3785V58.1044L52.6652 48.9625L27.5835 58.1044V31.1893Z" fill="#BBD6FF"/>
<path d="M52.6652 19H53.1652C53.1652 18.8082 53.0555 18.6333 52.8828 18.5498C52.7101 18.4663 52.5048 18.4891 52.3545 18.6083L52.6652 19ZM27.5835 31.1893L27.4093 30.7206C27.2134 30.7934 27.0835 30.9803 27.0835 31.1893H27.5835ZM52.6652 19.1893H52.1652C52.1652 19.3419 52.235 19.4862 52.3545 19.5811L52.6652 19.1893ZM77.7469 31.3785H78.2469C78.2469 31.1696 78.117 30.9827 77.9211 30.9098L77.7469 31.3785ZM77.7469 58.1044L77.5757 58.5742C77.729 58.63 77.8999 58.6076 78.0336 58.514C78.1673 58.4205 78.2469 58.2676 78.2469 58.1044H77.7469ZM52.6652 48.9625L52.8365 48.4927C52.7259 48.4524 52.6046 48.4524 52.494 48.4927L52.6652 48.9625ZM27.5835 58.1044H27.0835C27.0835 58.2676 27.1631 58.4205 27.2968 58.5141C27.4305 58.6076 27.6014 58.6301 27.7547 58.5742L27.5835 58.1044ZM52.3545 18.6083C49.6873 20.7236 44.9904 23.1831 40.1613 25.4082C35.3456 27.6271 30.4466 29.5913 27.4093 30.7206L27.7577 31.6579C30.8151 30.5212 35.7378 28.5474 40.5797 26.3164C45.4082 24.0917 50.2049 21.5895 52.9759 19.3917L52.3545 18.6083ZM53.1652 19.1893V19H52.1652V19.1893H53.1652ZM52.3545 19.5811C55.1256 21.7788 59.9223 24.2809 64.7507 26.5057C69.5927 28.7367 74.5154 30.7105 77.5727 31.8472L77.9211 30.9098C74.8839 29.7806 69.9849 27.8163 65.1692 25.5975C60.3401 23.3724 55.6432 20.9129 52.9759 18.7976L52.3545 19.5811ZM77.2469 31.3785V58.1044H78.2469V31.3785H77.2469ZM77.9181 57.6346L52.8365 48.4927L52.494 49.4322L77.5757 58.5742L77.9181 57.6346ZM27.7547 58.5742L52.8365 49.4322L52.494 48.4927L27.4123 57.6346L27.7547 58.5742ZM27.0835 31.1893V58.1044H28.0835V31.1893H27.0835Z" fill="#8FADC8"/>
<path d="M27.5832 85.6496C24.7703 72.7102 26.4111 65.9682 27.5832 58.3108L52.665 70.5001V97.6045C38.8348 93.3851 32.2714 88.4625 27.5832 85.6496Z" fill="#E3EEFF" stroke="#8FADC8" stroke-linecap="round" stroke-linejoin="round"/>
<path d="M27.5832 58.3389C24.7703 45.3995 26.4111 38.6574 27.5832 31.0001L52.665 43.1893V70.2937C38.8348 66.0744 32.2714 61.1518 27.5832 58.3389Z" fill="#BBD6FF" stroke="#8FADC8" stroke-linecap="round" stroke-linejoin="round"/>
<path d="M77.7469 85.6496C80.5598 72.7102 78.9189 66.1574 77.7469 58.5L52.6651 70.6893V97.6044C66.4952 93.3851 73.0587 88.4625 77.7469 85.6496Z" fill="#E3EEFF" stroke="#8FADC8" stroke-linecap="round" stroke-linejoin="round"/>
<path d="M68.288 75.4V81H67.248V76.272H66.064V75.4H68.288Z" fill="#8FADC8"/>
<path d="M77.7469 58.3389C80.5598 45.3995 78.9189 38.8466 77.7469 31.1893L52.6651 43.3785V70.2937C66.4952 66.0743 73.0587 61.1518 77.7469 58.3389Z" fill="#BBD6FF" stroke="#8FADC8" stroke-linecap="round" stroke-linejoin="round"/>
<path d="M50.1539 36.9226L52.9668 42.314C53.5137 41.1419 54.7014 38.4697 55.0764 37.157C55.5452 35.5161 57.655 32 52.498 32C48.3724 32 49.2162 35.2817 50.1539 36.9226Z" stroke="#8FADC8"/>
<path d="M75.0015 25.9226L77.8144 31.314C78.3614 30.1419 79.549 27.4697 79.9241 26.157C80.3929 24.5161 82.5026 21 77.3456 21C73.22 21 74.0639 24.2817 75.0015 25.9226Z" stroke="#8FADC8"/>
<path d="M24.7706 24.9226L27.5835 30.314C28.1304 29.1419 29.3181 26.4697 29.6931 25.157C30.1619 23.5161 32.2717 20 27.1147 20C22.9891 20 23.8329 23.2817 24.7706 24.9226Z" stroke="#8FADC8"/>
<path d="M68.408 53.12V54H64.28V53.304L66.504 51.192C66.7547 50.952 66.9227 50.744 67.008 50.568C67.0987 50.3867 67.144 50.208 67.144 50.032C67.144 49.7707 67.056 49.5707 66.88 49.432C66.704 49.2933 66.4453 49.224 66.104 49.224C65.5333 49.224 65.096 49.4187 64.792 49.808L64.064 49.248C64.2827 48.9547 64.576 48.728 64.944 48.568C65.3173 48.4027 65.7333 48.32 66.192 48.32C66.8 48.32 67.2853 48.464 67.648 48.752C68.0107 49.04 68.192 49.432 68.192 49.928C68.192 50.232 68.128 50.5173 68 50.784C67.872 51.0507 67.6267 51.3547 67.264 51.696L65.768 53.12H68.408Z" fill="#8FADC8"/>
</g>
</svg>
