<svg width="214" height="167" viewBox="0 0 214 167" fill="none" xmlns="http://www.w3.org/2000/svg">
<path d="M53.6667 125L52 122L57 122.75L53.6667 125Z" fill="#ADADAD"/>
<path d="M130.705 151.13L134.543 154.335L128 154.994L130.705 151.13Z" fill="#ADADAD"/>
<path d="M54 123L107 152" stroke="#ADADAD"/>
<path d="M130 154L189 122" stroke="#ADADAD"/>
<path d="M109 154.976L120.545 149" stroke="#ADADAD" stroke-linecap="round" stroke-linejoin="round"/>
<path d="M129.258 155.5L118 149" stroke="#ADADAD" stroke-linecap="round" stroke-linejoin="round"/>
<path d="M193.258 121.5L182 115" stroke="#ADADAD" stroke-linecap="round" stroke-linejoin="round"/>
<path d="M49.9999 122.976L61.5449 117" stroke="#ADADAD" stroke-linecap="round" stroke-linejoin="round"/>
<path d="M60.3015 117.141L60.3001 51.5242L119.413 83.527L119.414 149.144L60.3015 117.141Z" fill="#E3EEFF" stroke="#8FADC8" stroke-width="2" stroke-linecap="round" stroke-linejoin="round"/>
<path d="M119.415 83.5252L182.7 49.2649L182.7 114.88L119.415 149.141L119.415 83.5252Z" fill="#E3EEFF" stroke="#8FADC8" stroke-width="2" stroke-linecap="round" stroke-linejoin="round"/>
<path d="M60.2983 51.5215L123.518 17.0525L182.695 49.0898L119.475 83.5587L60.2983 51.5215Z" fill="#E3EEFF" stroke="#8FADC8" stroke-width="2" stroke-linecap="round" stroke-linejoin="round"/>
<path d="M44.988 143.6L42.672 150.464L40.356 143.6H39.252L36.888 150.428L34.62 143.6H33.384L36.192 152H37.476L39.768 145.292L42.06 152H43.32L46.128 143.6H44.988ZM48.0157 144.416C48.4717 144.416 48.7957 144.08 48.7957 143.648C48.7957 143.24 48.4597 142.916 48.0157 142.916C47.5717 142.916 47.2357 143.252 47.2357 143.672C47.2357 144.092 47.5717 144.416 48.0157 144.416ZM47.4397 152H48.5917V145.64H47.4397V152ZM55.6392 143.096V146.6C55.1112 145.916 54.3192 145.58 53.4192 145.58C51.5592 145.58 50.2032 146.876 50.2032 148.82C50.2032 150.764 51.5592 152.072 53.4192 152.072C54.3552 152.072 55.1712 151.712 55.6872 150.992V152H56.7912V143.096H55.6392ZM53.5152 151.064C52.2912 151.064 51.3672 150.176 51.3672 148.82C51.3672 147.464 52.2912 146.588 53.5152 146.588C54.7272 146.588 55.6512 147.464 55.6512 148.82C55.6512 150.176 54.7272 151.064 53.5152 151.064ZM62.3393 150.8C62.0993 150.992 61.7753 151.1 61.4393 151.1C60.8033 151.1 60.4433 150.716 60.4433 150.032V146.588H62.2673V145.64H60.4433V144.248H59.2913V145.64H58.2113V146.588H59.2913V150.08C59.2913 151.364 60.0233 152.072 61.3073 152.072C61.8233 152.072 62.3513 151.928 62.6993 151.628L62.3393 150.8ZM67.488 145.58C66.516 145.58 65.724 145.928 65.244 146.54V143.096H64.092V152H65.244V148.724C65.244 147.344 66.036 146.612 67.26 146.612C68.352 146.612 68.976 147.224 68.976 148.472V152H70.128V148.34C70.128 146.468 69.036 145.58 67.488 145.58Z" fill="#ADADAD"/>
<path d="M170.26 152H176.008V150.956H171.46V143.6H170.26V152ZM182.883 148.856C182.883 146.9 181.575 145.58 179.739 145.58C177.903 145.58 176.547 146.936 176.547 148.82C176.547 150.716 177.915 152.072 179.967 152.072C181.023 152.072 181.899 151.712 182.475 151.04L181.839 150.296C181.371 150.812 180.747 151.064 180.003 151.064C178.743 151.064 177.843 150.32 177.699 149.204H182.859C182.871 149.096 182.883 148.952 182.883 148.856ZM179.739 146.552C180.855 146.552 181.659 147.308 181.779 148.376H177.699C177.819 147.296 178.635 146.552 179.739 146.552ZM187.879 145.58C186.871 145.58 186.055 145.952 185.587 146.6V145.64H184.483V152H185.635V148.724C185.635 147.344 186.427 146.612 187.651 146.612C188.743 146.612 189.367 147.224 189.367 148.472V152H190.519V148.34C190.519 146.468 189.427 145.58 187.879 145.58ZM197.678 145.64V146.624C197.138 145.928 196.274 145.58 195.326 145.58C193.49 145.58 192.098 146.816 192.098 148.652C192.098 150.488 193.49 151.736 195.326 151.736C196.238 151.736 197.066 151.412 197.618 150.752V151.256C197.618 152.696 196.934 153.392 195.434 153.392C194.498 153.392 193.574 153.068 192.986 152.564L192.434 153.452C193.13 154.076 194.306 154.4 195.47 154.4C197.63 154.4 198.77 153.38 198.77 151.136V145.64H197.678ZM195.458 150.728C194.174 150.728 193.262 149.876 193.262 148.652C193.262 147.416 194.174 146.588 195.458 146.588C196.73 146.588 197.642 147.416 197.642 148.652C197.642 149.876 196.73 150.728 195.458 150.728ZM204.187 150.8C203.947 150.992 203.623 151.1 203.287 151.1C202.651 151.1 202.291 150.716 202.291 150.032V146.588H204.115V145.64H202.291V144.248H201.139V145.64H200.059V146.588H201.139V150.08C201.139 151.364 201.871 152.072 203.155 152.072C203.671 152.072 204.199 151.928 204.547 151.628L204.187 150.8ZM209.336 145.58C208.364 145.58 207.572 145.928 207.092 146.54V143.096H205.94V152H207.092V148.724C207.092 147.344 207.884 146.612 209.108 146.612C210.2 146.612 210.824 147.224 210.824 148.472V152H211.976V148.34C211.976 146.468 210.884 145.58 209.336 145.58Z" fill="#ADADAD"/>
<path d="M7.284 79.6V83.212H2.46L2.46 79.6H1.26L1.26 88H2.46L2.46 84.256H7.284L7.284 88H8.484L8.484 79.6H7.284ZM16.5783 84.856C16.5783 82.9 15.2703 81.58 13.4343 81.58C11.5983 81.58 10.2423 82.936 10.2423 84.82C10.2423 86.716 11.6103 88.072 13.6623 88.072C14.7183 88.072 15.5943 87.712 16.1703 87.04L15.5343 86.296C15.0663 86.812 14.4423 87.064 13.6983 87.064C12.4383 87.064 11.5383 86.32 11.3943 85.204H16.5543C16.5663 85.096 16.5783 84.952 16.5783 84.856ZM13.4343 82.552C14.5503 82.552 15.3543 83.308 15.4743 84.376H11.3943C11.5143 83.296 12.3303 82.552 13.4343 82.552ZM18.7539 80.416C19.2099 80.416 19.5339 80.08 19.5339 79.648C19.5339 79.24 19.1979 78.916 18.7539 78.916C18.3099 78.916 17.9739 79.252 17.9739 79.672C17.9739 80.092 18.3099 80.416 18.7539 80.416ZM18.1779 88H19.3299L19.3299 81.64H18.1779L18.1779 88ZM26.5215 81.64V82.624C25.9815 81.928 25.1175 81.58 24.1695 81.58C22.3335 81.58 20.9415 82.816 20.9415 84.652C20.9415 86.488 22.3335 87.736 24.1695 87.736C25.0815 87.736 25.9095 87.412 26.4615 86.752L26.4615 87.256C26.4615 88.696 25.7775 89.392 24.2775 89.392C23.3415 89.392 22.4175 89.068 21.8295 88.564L21.2775 89.452C21.9735 90.076 23.1495 90.4 24.3135 90.4C26.4735 90.4 27.6135 89.38 27.6135 87.136L27.6135 81.64H26.5215ZM24.3015 86.728C23.0175 86.728 22.1055 85.876 22.1055 84.652C22.1055 83.416 23.0175 82.588 24.3015 82.588C25.5735 82.588 26.4855 83.416 26.4855 84.652C26.4855 85.876 25.5735 86.728 24.3015 86.728ZM33.2107 81.58C32.2387 81.58 31.4467 81.928 30.9667 82.54V79.096H29.8147L29.8147 88H30.9667L30.9667 84.724C30.9667 83.344 31.7587 82.612 32.9827 82.612C34.0747 82.612 34.6987 83.224 34.6987 84.472V88H35.8507V84.34C35.8507 82.468 34.7587 81.58 33.2107 81.58ZM41.1986 86.8C40.9586 86.992 40.6346 87.1 40.2986 87.1C39.6626 87.1 39.3026 86.716 39.3026 86.032V82.588H41.1266V81.64H39.3026V80.248H38.1506V81.64H37.0706V82.588H38.1506V86.08C38.1506 87.364 38.8826 88.072 40.1666 88.072C40.6826 88.072 41.2106 87.928 41.5586 87.628L41.1986 86.8Z" fill="#ADADAD"/>
<path d="M110 154L105.5 153L108 150.5L110 154Z" fill="#ADADAD"/>
<path d="M49 54L49 114" stroke="#ADADAD"/>
<path d="M60 51H47" stroke="#ADADAD" stroke-linecap="round" stroke-linejoin="round"/>
<path d="M60 117H47" stroke="#ADADAD" stroke-linecap="round" stroke-linejoin="round"/>
<path d="M49 51L50.7321 54.75H47.2679L49 51Z" fill="#ADADAD"/>
<path d="M49 117L47.2679 113.25L50.7321 113.25L49 117Z" fill="#ADADAD"/>
</svg>
