<svg width="105" height="105" viewBox="0 0 105 105" fill="none" xmlns="http://www.w3.org/2000/svg">
<mask id="mask0" mask-type="alpha" maskUnits="userSpaceOnUse" x="0" y="0" width="105" height="105">
<rect width="105" height="105" fill="#C4C4C4"/>
</mask>
<g mask="url(#mask0)">
<path d="M82.9958 75.9267L82.9961 61.6925L43.5842 83.8737L43.5838 98.1079L82.9958 75.9267Z" fill="#E3EEFF" stroke="#8FADC8" stroke-linecap="round" stroke-linejoin="round"/>
<path d="M43.5851 83.8736L22.7702 72.6051L22.7696 86.8968L43.5845 98.1653L43.5851 83.8736Z" fill="#E3EEFF" stroke="#8FADC8" stroke-linecap="round" stroke-linejoin="round"/>
<path d="M82.9958 62.0154L82.9961 47.7811L43.5842 69.9623L43.5838 84.1966L82.9958 62.0154Z" fill="#E3EEFF" stroke="#8FADC8" stroke-linecap="round" stroke-linejoin="round"/>
<path d="M43.5851 69.9621L22.7702 58.6936L22.7696 72.9853L43.5845 84.2538L43.5851 69.9621Z" fill="#E3EEFF" stroke="#8FADC8" stroke-linecap="round" stroke-linejoin="round"/>
<path d="M82.9958 48.104L82.9961 33.8697L43.5842 56.0509L43.5838 70.2852L82.9958 48.104Z" fill="#E3EEFF" stroke="#8FADC8" stroke-linecap="round" stroke-linejoin="round"/>
<path d="M43.5851 56.051L22.7702 44.7825L22.7696 59.0742L43.5845 70.3427L43.5851 56.051Z" fill="#E3EEFF" stroke="#8FADC8" stroke-linecap="round" stroke-linejoin="round"/>
<path d="M82.9948 34.1921L82.9951 19.9579L43.5832 42.139L43.5829 56.3733L82.9948 34.1921Z" fill="#BBD6FF" stroke="#8FADC8" stroke-linecap="round" stroke-linejoin="round"/>
<path d="M43.5841 42.1391L22.7692 30.8706L22.7686 45.1623L43.5835 56.4308L43.5841 42.1391Z" fill="#BBD6FF" stroke="#8FADC8" stroke-linecap="round" stroke-linejoin="round"/>
<path d="M83.167 19.8071L62.4698 8.60246L22.8886 30.9341L43.5858 42.1388L83.167 19.8071Z" fill="#BBD6FF" stroke="#8FADC8" stroke-linecap="round" stroke-linejoin="round"/>
<path d="M65.8066 75.8973V81.4973H64.7666V76.7693H63.5826V75.8973H65.8066Z" fill="#8FADC8"/>
<path d="M66.8748 66.9388V67.8188H62.7468V67.1228L64.9708 65.0108C65.2215 64.7708 65.3895 64.5628 65.4748 64.3868C65.5655 64.2055 65.6108 64.0268 65.6108 63.8508C65.6108 63.5895 65.5228 63.3895 65.3468 63.2508C65.1708 63.1122 64.9121 63.0428 64.5708 63.0428C64.0001 63.0428 63.5628 63.2375 63.2588 63.6268L62.5308 63.0668C62.7495 62.7735 63.0428 62.5468 63.4108 62.3868C63.7841 62.2215 64.2001 62.1388 64.6588 62.1388C65.2668 62.1388 65.7521 62.2828 66.1148 62.5708C66.4775 62.8588 66.6588 63.2508 66.6588 63.7468C66.6588 64.0508 66.5948 64.3362 66.4668 64.6028C66.3388 64.8695 66.0935 65.1735 65.7308 65.5148L64.2348 66.9388H66.8748Z" fill="#8FADC8"/>
<path d="M65.2028 49.7999C65.7201 49.8639 66.1148 50.0399 66.3868 50.3279C66.6588 50.6159 66.7948 50.9759 66.7948 51.4079C66.7948 51.7332 66.7121 52.0292 66.5468 52.2959C66.3815 52.5626 66.1308 52.7759 65.7948 52.9359C65.4641 53.0906 65.0588 53.1679 64.5788 53.1679C64.1788 53.1679 63.7921 53.1119 63.4188 52.9999C63.0508 52.8826 62.7361 52.7226 62.4748 52.5199L62.9228 51.7119C63.1255 51.8826 63.3708 52.0186 63.6588 52.1199C63.9521 52.2159 64.2535 52.2639 64.5628 52.2639C64.9308 52.2639 65.2188 52.1892 65.4268 52.0399C65.6401 51.8852 65.7468 51.6772 65.7468 51.4159C65.7468 51.1546 65.6455 50.9519 65.4428 50.8079C65.2455 50.6586 64.9415 50.5839 64.5308 50.5839H64.0188V49.8719L65.2908 48.3599H62.7468V47.4879H66.5628V48.1839L65.2028 49.7999Z" fill="#8FADC8"/>
<path d="M66.7581 38.1377H65.7661V39.4097H64.7581V38.1377H61.6861V37.4177L64.4461 33.8097H65.5581L62.9581 37.2577H64.7901V36.1297H65.7661V37.2577H66.7581V38.1377Z" fill="#8FADC8"/>
</g>
</svg>
