<svg width="105" height="105" viewBox="0 0 105 105" fill="none" xmlns="http://www.w3.org/2000/svg">
<mask id="mask0" mask-type="alpha" maskUnits="userSpaceOnUse" x="0" y="0" width="105" height="105">
<rect width="105" height="105" fill="#C4C4C4"/>
</mask>
<g mask="url(#mask0)">
<path d="M102.183 77.316L102.184 61.6463L58.7971 86.0644L58.7967 101.734L102.183 77.316Z" fill="#E3EEFF" stroke="#8FADC8" stroke-linecap="round" stroke-linejoin="round"/>
<path d="M58.7975 86.0643L35.8835 73.6594L35.8828 89.3924L58.7969 101.797L58.7975 86.0643Z" fill="#E3EEFF" stroke="#8FADC8" stroke-linecap="round" stroke-linejoin="round"/>
<path d="M102.373 61.4805L79.5886 49.1459L36.0157 73.7296L58.8001 86.0642L102.373 61.4805Z" fill="#E3EEFF" stroke="#8FADC8" stroke-linecap="round" stroke-linejoin="round"/>
<path d="M102.183 62.0012L102.184 46.3314L58.7971 70.7495L58.7967 86.4193L102.183 62.0012Z" fill="#E3EEFF" stroke="#8FADC8" stroke-linecap="round" stroke-linejoin="round"/>
<path d="M58.7975 70.7496L35.8835 58.3447L35.8828 74.0777L58.7969 86.4826L58.7975 70.7496Z" fill="#E3EEFF" stroke="#8FADC8" stroke-linecap="round" stroke-linejoin="round"/>
<path d="M102.373 46.1658L79.5886 33.8312L36.0157 58.4149L58.8001 70.7495L102.373 46.1658Z" fill="#E3EEFF" stroke="#8FADC8" stroke-linecap="round" stroke-linejoin="round"/>
<path d="M102.183 46.6867L102.184 31.017L58.7971 55.4351L58.7967 71.1048L102.183 46.6867Z" fill="#E3EEFF" stroke="#8FADC8" stroke-linecap="round" stroke-linejoin="round"/>
<path d="M58.7975 55.4351L35.8835 43.0302L35.8828 58.7632L58.7969 71.1681L58.7975 55.4351Z" fill="#E3EEFF" stroke="#8FADC8" stroke-linecap="round" stroke-linejoin="round"/>
<path d="M102.373 30.8514L79.5886 18.5168L36.0157 43.1005L58.8001 55.4351L102.373 30.8514Z" fill="#E3EEFF" stroke="#8FADC8" stroke-linecap="round" stroke-linejoin="round"/>
<path d="M102.183 31.3722L102.184 15.7024L58.7971 40.1205L58.7967 55.7903L102.183 31.3722Z" fill="#BBD6FF" stroke="#8FADC8" stroke-linecap="round" stroke-linejoin="round"/>
<path d="M58.7975 40.1206L35.8835 27.7156L35.8828 43.4486L58.7969 55.8535L58.7975 40.1206Z" fill="#BBD6FF" stroke="#8FADC8" stroke-linecap="round" stroke-linejoin="round"/>
<path d="M102.373 15.5368L79.5886 3.20218L36.0157 27.7859L58.8001 40.1205L102.373 15.5368Z" fill="#BBD6FF" stroke="#8FADC8" stroke-linecap="round" stroke-linejoin="round"/>
<path opacity="0.4" d="M10.3365 84.6123L10.7194 9.76918C10.7254 8.66735 11.0265 7.6127 11.5582 6.83097C12.09 6.04923 12.8102 5.60251 13.5647 5.58643L27.6758 5.43959C28.0462 5.43832 28.4131 5.54475 28.7551 5.75269C29.0971 5.96064 29.4073 6.26592 29.6676 6.65074C29.9279 7.03556 30.1332 7.49222 30.2714 7.99409C30.4097 8.49595 30.4781 9.03298 30.4727 9.57386L30.4154 19.9653L19.8572 20.0965C19.6675 20.0979 19.486 20.2087 19.3521 20.4049C19.2183 20.601 19.143 20.8665 19.1428 21.1434L19.1298 23.2204C19.1288 23.3556 19.1462 23.4897 19.1811 23.6149C19.216 23.7401 19.2675 23.854 19.3328 23.9498C19.3981 24.0457 19.4757 24.1216 19.5613 24.1733C19.6468 24.2249 19.7386 24.2511 19.8311 24.2505L30.3942 24.1384L30.3519 32.453L25.4255 32.5073C25.2358 32.5086 25.0543 32.6195 24.9204 32.8156C24.7866 33.0118 24.7113 33.2773 24.7111 33.5542L24.698 35.6312C24.6968 35.7664 24.7141 35.9007 24.7489 36.0261C24.7837 36.1515 24.8352 36.2655 24.9005 36.3614C24.9658 36.4573 25.0436 36.5333 25.1293 36.5848C25.2149 36.6363 25.3068 36.6623 25.3994 36.6613L30.336 36.5973L30.2929 44.9113L19.7129 45.0242C19.5233 45.0255 19.3417 45.1364 19.2079 45.3325C19.074 45.5286 18.9988 45.7942 18.9985 46.0711L18.9855 48.148C18.9846 48.2832 19.002 48.4173 19.0369 48.5425C19.0717 48.6678 19.1233 48.7816 19.1885 48.8775C19.2538 48.9733 19.3315 49.0493 19.417 49.1009C19.5026 49.1525 19.5943 49.1788 19.6869 49.1781L30.2714 49.0539L30.2263 57.3677L25.2989 57.4348C25.1093 57.4361 24.9277 57.5469 24.7939 57.7431C24.66 57.9392 24.5848 58.2047 24.5845 58.4816L24.5715 60.5586C24.5703 60.6939 24.5876 60.8281 24.6223 60.9535C24.6571 61.0789 24.7087 61.1929 24.774 61.2889C24.8393 61.3848 24.9171 61.4607 25.0027 61.5122C25.0884 61.5637 25.1802 61.5897 25.2729 61.5887L30.2061 61.528L30.1638 69.8426L19.5908 69.9614C19.4012 69.9627 19.2196 70.0736 19.0858 70.2697C18.9519 70.4659 18.8767 70.7314 18.8764 71.0083L18.8634 73.0853C18.8622 73.2205 18.8795 73.3548 18.9142 73.4802C18.949 73.6056 19.0006 73.7196 19.0659 73.8155C19.1312 73.9114 19.209 73.9874 19.2946 74.0389C19.3803 74.0903 19.4721 74.1163 19.5648 74.1153L30.1439 74.0047L30.0897 84.3987C30.0837 85.5006 29.7826 86.5552 29.2508 87.337C28.7191 88.1187 27.9989 88.5654 27.2444 88.5815L13.1434 88.7368C12.7724 88.7418 12.4044 88.6384 12.0611 88.4325C11.7179 88.2267 11.4063 87.9227 11.1447 87.5383C10.8832 87.154 10.6769 86.6971 10.5381 86.1946C10.3993 85.692 10.3307 85.154 10.3365 84.6123Z" fill="#BBD6FF"/>
<path d="M30.2293 24.1358L30.2487 19.9672L19.6904 20.0985C19.5008 20.0998 19.3193 20.2106 19.1854 20.4068C19.0516 20.6029 18.9763 20.8684 18.976 21.1453L18.963 23.2223C18.9621 23.3575 18.9795 23.4916 19.0144 23.6168C19.0492 23.742 19.1008 23.8559 19.1661 23.9518C19.2313 24.0476 19.309 24.1236 19.3946 24.1752C19.4801 24.2268 19.5718 24.253 19.6644 24.2524L30.2293 24.1358ZM30.1039 49.0551L30.1246 44.9119L19.5439 45.0241C19.3542 45.0255 19.1727 45.1363 19.0388 45.3325C18.905 45.5286 18.8297 45.7941 18.8295 46.071L18.8165 48.148C18.8155 48.2832 18.8329 48.4173 18.8678 48.5425C18.9027 48.6677 18.9542 48.7816 19.0195 48.8774C19.0848 48.9733 19.1624 49.0492 19.248 49.1009C19.3335 49.1525 19.4253 49.1787 19.5178 49.1781L30.1039 49.0551ZM30.1669 36.5973L30.187 32.4504L25.2605 32.5047C25.0709 32.506 24.8893 32.6169 24.7555 32.813C24.6216 33.0092 24.5464 33.2747 24.5461 33.5516L24.5331 35.6286C24.5319 35.7638 24.5492 35.8981 24.5839 36.0235C24.6187 36.1489 24.6703 36.2629 24.7356 36.3588C24.8009 36.4547 24.8787 36.5307 24.9643 36.5821C25.05 36.6336 25.1419 36.6596 25.2345 36.6586L30.1669 36.5973ZM19.3968 74.1177L29.9784 74.0061L29.9947 69.8425L19.421 69.9607C19.2313 69.962 19.0498 70.0729 18.9159 70.269C18.7821 70.4652 18.7068 70.7307 18.7066 71.0076L18.6936 73.0846C18.6924 73.2198 18.7096 73.3541 18.7444 73.4795C18.7792 73.6049 18.8307 73.7189 18.896 73.8148C18.9614 73.9107 19.0391 73.9867 19.1248 74.0381C19.2105 74.0896 19.3023 74.1156 19.3949 74.1146L19.3968 74.1177ZM30.0409 61.5312L30.0573 57.3676L25.1298 57.4347C24.9402 57.436 24.7587 57.5469 24.6248 57.743C24.491 57.9392 24.4157 58.2047 24.4155 58.4816L24.4024 60.5586C24.4012 60.6938 24.4185 60.8281 24.4533 60.9535C24.488 61.0789 24.5396 61.1929 24.6049 61.2888C24.6702 61.3847 24.748 61.4607 24.8337 61.5122C24.9193 61.5636 25.0112 61.5897 25.1038 61.5887L30.0409 61.5312Z" fill="#BBD6FF"/>
<g clip-path="url(#clip0)">
<path d="M41.0284 23.3206L34.9035 23.3206L36.2599 24.8042C36.353 24.9061 36.4053 25.0442 36.4053 25.1882C36.4053 25.3321 36.353 25.4702 36.2599 25.5721L35.9083 25.9567C35.8622 26.0073 35.8074 26.0474 35.747 26.0748C35.6867 26.1022 35.622 26.1164 35.5567 26.1164C35.4913 26.1164 35.4266 26.1022 35.3663 26.0748C35.306 26.0474 35.2512 26.0073 35.205 25.9567L32.4032 22.8901C32.3101 22.7883 32.2578 22.6502 32.2578 22.5062C32.2578 22.3622 32.3101 22.2241 32.4032 22.1223L35.2067 19.0559C35.2528 19.0053 35.3076 18.9652 35.368 18.9378C35.4283 18.9103 35.493 18.8962 35.5583 18.8962C35.6237 18.8962 35.6884 18.9103 35.7487 18.9378C35.809 18.9652 35.8638 19.0053 35.91 19.0559L36.2616 19.4405C36.3547 19.5424 36.407 19.6804 36.407 19.8244C36.407 19.9684 36.3547 20.1065 36.2616 20.2084L34.9051 21.6918L41.0284 21.6918C41.1601 21.6918 41.2863 21.749 41.3794 21.8508C41.4725 21.9526 41.5248 22.0907 41.5248 22.2347L41.5248 22.7777C41.5248 22.9217 41.4725 23.0598 41.3794 23.1616C41.2863 23.2634 41.1601 23.3206 41.0284 23.3206Z" fill="#8FADC8"/>
</g>
</g>
<defs>
<clipPath id="clip0">
<rect width="9.26642" height="11.583" fill="white" transform="translate(32.2588 16.7257)"/>
</clipPath>
</defs>
</svg>
