<svg width="225" height="92" viewBox="0 0 225 92" fill="none" xmlns="http://www.w3.org/2000/svg">
<mask id="mask0" mask-type="alpha" maskUnits="userSpaceOnUse" x="0" y="0" width="225" height="92">
<rect width="225" height="92" fill="#C4C4C4"/>
</mask>
<g mask="url(#mask0)">
<path d="M108.39 44.6113L119.068 44.6113L116.703 42.0496C116.541 41.8738 116.449 41.6353 116.449 41.3867C116.449 41.1381 116.541 40.8996 116.703 40.7238L117.316 40.0598C117.396 39.9724 117.492 39.903 117.597 39.8557C117.702 39.8084 117.815 39.784 117.929 39.784C118.043 39.784 118.156 39.8084 118.261 39.8557C118.366 39.903 118.461 39.9724 118.542 40.0598L123.426 45.3547C123.589 45.5305 123.68 45.7689 123.68 46.0176C123.68 46.2662 123.589 46.5046 123.426 46.6805L118.539 51.975C118.459 52.0624 118.363 52.1317 118.258 52.1791C118.153 52.2264 118.04 52.2507 117.926 52.2507C117.812 52.2507 117.699 52.2264 117.594 52.1791C117.489 52.1317 117.393 52.0624 117.313 51.975L116.7 51.3109C116.538 51.1351 116.447 50.8967 116.447 50.648C116.447 50.3994 116.538 50.161 116.7 49.9851L119.065 47.4238L108.39 47.4238C108.161 47.4238 107.941 47.325 107.778 47.1492C107.616 46.9734 107.525 46.735 107.525 46.4863L107.525 45.5488C107.525 45.3002 107.616 45.0617 107.778 44.8859C107.941 44.7101 108.161 44.6113 108.39 44.6113Z" fill="#E3EEFF"/>
<path d="M89.8547 51.6065L89.8552 33.5325L39.8117 61.6972L39.8112 79.7712L89.8547 51.6065Z" fill="#E3EEFF" stroke="#8FADC8" stroke-linecap="round" stroke-linejoin="round"/>
<path d="M39.8107 61.697L13.3809 47.3887L13.3802 65.5357L39.81 79.8439L39.8107 61.697Z" fill="#BBD6FF" stroke="#8FADC8" stroke-linecap="round" stroke-linejoin="round"/>
<path d="M90.074 33.3412L63.7937 19.1141L13.5353 47.4697L39.8156 61.6969L90.074 33.3412Z" fill="#E3EEFF" stroke="#8FADC8" stroke-linecap="round" stroke-linejoin="round"/>
<path d="M194.727 78.1818L179.075 87.2192L178.444 29.7979L194.096 20.7605L194.727 78.1818Z" fill="#E3EEFF" stroke="#8FADC8" stroke-linecap="round" stroke-linejoin="round"/>
<path d="M178.444 29.7973L152.837 14.0626L168.553 4.98841L194.159 20.7232L178.444 29.7973Z" fill="#BBD6FF" stroke="#8FADC8" stroke-linecap="round" stroke-linejoin="round"/>
<path d="M179.019 87.5044L153.558 71.8585L152.985 14.1556L178.446 29.8015L179.019 87.5044Z" fill="#E3EEFF" stroke="#8FADC8" stroke-linecap="round" stroke-linejoin="round"/>
</g>
</svg>
