<svg width="225" height="92" viewBox="0 0 225 92" fill="none" xmlns="http://www.w3.org/2000/svg">
<mask id="mask0" mask-type="alpha" maskUnits="userSpaceOnUse" x="0" y="0" width="225" height="92">
<rect width="225" height="92" fill="#C4C4C4"/>
</mask>
<g mask="url(#mask0)">
<path d="M107.867 37.6128L118.544 37.6128L116.179 35.0511C116.017 34.8753 115.926 34.6368 115.926 34.3882C115.926 34.1395 116.017 33.9011 116.179 33.7253L116.792 33.0612C116.873 32.9738 116.968 32.9045 117.074 32.8572C117.179 32.8098 117.292 32.7855 117.405 32.7855C117.519 32.7855 117.632 32.8098 117.737 32.8572C117.843 32.9045 117.938 32.9738 118.018 33.0612L122.903 38.3561C123.065 38.532 123.156 38.7704 123.156 39.019C123.156 39.2677 123.065 39.5061 122.903 39.6819L118.016 44.9765C117.935 45.0639 117.84 45.1332 117.734 45.1805C117.629 45.2278 117.516 45.2522 117.403 45.2522C117.289 45.2522 117.176 45.2278 117.071 45.1805C116.966 45.1332 116.87 45.0639 116.79 44.9765L116.177 44.3124C116.014 44.1366 115.923 43.8981 115.923 43.6495C115.923 43.4009 116.014 43.1624 116.177 42.9866L118.541 40.4253L107.867 40.4253C107.637 40.4253 107.417 40.3265 107.255 40.1507C107.093 39.9749 107.001 39.7364 107.001 39.4878L107.001 38.5503C107.001 38.3016 107.093 38.0632 107.255 37.8874C107.417 37.7116 107.637 37.6128 107.867 37.6128Z" fill="#E3EEFF"/>
<path d="M91.7243 44.0791L91.7248 26.2456L42.3473 54.0354L42.3468 71.8689L91.7243 44.0791Z" fill="#BBD6FF" stroke="#8FADC8" stroke-linecap="round" stroke-linejoin="round"/>
<path d="M42.3461 54.0352L16.268 39.9173L16.2672 57.8228L42.3453 71.9406L42.3461 54.0352Z" fill="#E3EEFF" stroke="#8FADC8" stroke-linecap="round" stroke-linejoin="round"/>
<path d="M91.9405 26.0568L66.0099 12.0189L16.4203 39.9973L42.3509 54.0351L91.9405 26.0568Z" fill="#E3EEFF" stroke="#8FADC8" stroke-linecap="round" stroke-linejoin="round"/>
<path d="M201.27 63.7918L201.271 33.7087L185.94 41.8877L185.939 71.9709L201.27 63.7918Z" fill="#E3EEFF" stroke="#8FADC8" stroke-linecap="round" stroke-linejoin="round"/>
<path d="M185.939 41.8871L141.948 18.0719L141.947 48.2765L185.938 72.0917L185.939 41.8871Z" fill="#E3EEFF" stroke="#8FADC8" stroke-linecap="round" stroke-linejoin="round"/>
<path d="M201.269 33.5212L157.527 9.84088L142.204 18.207L185.947 41.8873L201.269 33.5212Z" fill="#BBD6FF" stroke="#8FADC8" stroke-linecap="round" stroke-linejoin="round"/>
</g>
</svg>
