<svg width="105" height="105" viewBox="0 0 105 105" fill="none" xmlns="http://www.w3.org/2000/svg">
<mask id="mask0" mask-type="alpha" maskUnits="userSpaceOnUse" x="0" y="0" width="105" height="105">
<rect width="105" height="105" fill="#C4C4C4"/>
</mask>
<g mask="url(#mask0)">
<path d="M92.462 73.4791L92.4624 56.3769L45.1098 83.0271L45.1093 100.129L92.462 73.4791Z" fill="#E3EEFF" stroke="#8FADC8" stroke-linecap="round" stroke-linejoin="round"/>
<path d="M45.1099 83.0272L20.1013 69.4883L20.1005 86.6595L45.1092 100.198L45.1099 83.0272Z" fill="#E3EEFF" stroke="#8FADC8" stroke-linecap="round" stroke-linejoin="round"/>
<path d="M92.6699 56.1961L67.8027 42.7339L20.2466 69.5649L45.1139 83.0271L92.6699 56.1961Z" fill="#E3EEFF" stroke="#8FADC8" stroke-linecap="round" stroke-linejoin="round"/>
<path d="M92.461 56.7645L92.4614 39.6623L45.1088 66.3125L45.1084 83.4147L92.461 56.7645Z" fill="#BBD6FF" stroke="#8FADC8" stroke-linecap="round" stroke-linejoin="round"/>
<path d="M45.109 66.3126L20.1003 52.7737L20.0996 69.9449L45.1083 83.4838L45.109 66.3126Z" fill="#BBD6FF" stroke="#8FADC8" stroke-linecap="round" stroke-linejoin="round"/>
<path d="M92.6689 39.4815L67.8017 26.0193L20.2457 52.8503L45.1129 66.3125L92.6689 39.4815Z" fill="#BBD6FF" stroke="#8FADC8" stroke-linecap="round" stroke-linejoin="round"/>
<path d="M46.3279 19.4688H41.8703C42.0929 19.2194 42.2734 18.9332 42.4027 18.621C42.6292 18.074 42.6885 17.4722 42.573 16.8915C42.4575 16.3109 42.1724 15.7775 41.7538 15.3589C41.3352 14.9403 40.8018 14.6552 40.2212 14.5397C39.6405 14.4242 39.0387 14.4835 38.4917 14.71C37.9448 14.9366 37.4773 15.3202 37.1484 15.8125C36.8194 16.3047 36.6439 16.8835 36.6439 17.4755C36.6439 18.2127 36.9158 18.9218 37.4041 19.4688H32.9466C32.6626 18.5137 32.5861 17.5074 32.7239 16.5177C32.8778 15.4121 33.2946 14.3595 33.9394 13.4483C34.5841 12.537 35.4381 11.7937 36.4295 11.2807C37.4209 10.7677 38.5209 10.5 39.6372 10.5C40.7535 10.5 41.8535 10.7677 42.8449 11.2807C43.8364 11.7937 44.6903 12.537 45.3351 13.4483C45.9798 14.3595 46.3967 15.4121 46.5506 16.5177C46.6883 17.5074 46.6118 18.5137 46.3279 19.4688Z" fill="#E3EEFF" stroke="#8FADC8"/>
<path d="M59.0422 43.3785L59.0422 43.3785C59.6263 45.7144 58.0042 47.9114 55.9213 47.9114H23.508C21.425 47.9114 19.8033 45.7146 20.3908 43.3792L20.391 43.3785L26.0789 20.6167L26.0789 20.6166C26.3252 19.63 27.1304 18.9915 27.9991 18.9915H51.4341C52.3027 18.9915 53.1072 19.6292 53.3543 20.6168L59.0422 43.3785Z" fill="#E3EEFF" stroke="#8FADC8"/>
<path d="M36.5669 33.1219L35.4422 34.277V36.0906H34.125V28.998H35.4422V32.6355L38.948 28.998H40.4273L37.4484 32.1694L40.6096 36.0906H39.0695L36.5669 33.1219Z" fill="#9FB1C1"/>
<path d="M46.5175 30.68V35.2699C46.5175 37.1748 45.5449 38.1272 43.5995 38.1272C43.0793 38.1272 42.5862 38.0597 42.1201 37.9246C41.6541 37.7962 41.269 37.6071 40.9651 37.3572L41.5325 36.4047C41.7689 36.6006 42.0661 36.756 42.4241 36.8708C42.7889 36.9924 43.157 37.0532 43.5285 37.0532C44.123 37.0532 44.5586 36.9181 44.8356 36.6479C45.1125 36.3777 45.251 35.9657 45.251 35.4118V35.1281C45.0349 35.3645 44.7714 35.5435 44.4607 35.6651C44.15 35.7867 43.8089 35.8475 43.4373 35.8475C42.924 35.8475 42.4579 35.7394 42.0391 35.5232C41.627 35.3003 41.2994 34.9896 41.0563 34.5911C40.8198 34.1925 40.7016 33.7366 40.7016 33.2232C40.7016 32.7098 40.8198 32.2573 41.0563 31.8655C41.2994 31.4669 41.627 31.1596 42.0391 30.9434C42.4579 30.7273 42.924 30.6192 43.4373 30.6192C43.8291 30.6192 44.1838 30.6834 44.5012 30.8117C44.8255 30.9401 45.0957 31.136 45.3118 31.3994V30.68H46.5175ZM43.6299 34.7734C44.1094 34.7734 44.5012 34.6316 44.8052 34.3479C45.1159 34.0574 45.2713 33.6825 45.2713 33.2232C45.2713 32.7706 45.1159 32.4025 44.8052 32.1188C44.5012 31.8351 44.1094 31.6932 43.6299 31.6932C43.1435 31.6932 42.745 31.8351 42.4342 32.1188C42.1303 32.4025 41.9783 32.7706 41.9783 33.2232C41.9783 33.6825 42.1303 34.0574 42.4342 34.3479C42.745 34.6316 43.1435 34.7734 43.6299 34.7734Z" fill="#9FB1C1"/>
</g>
</svg>
