<svg width="100" height="100" viewBox="0 0 100 100" fill="none" xmlns="http://www.w3.org/2000/svg">
<mask id="mask0" mask-type="alpha" maskUnits="userSpaceOnUse" x="0" y="0" width="100" height="100">
<rect width="100" height="100" fill="#C4C4C4"/>
</mask>
<g mask="url(#mask0)">
<path d="M19.8055 29.7969C13.5374 29.7969 8.42293 27.3713 8.03842 24.2842H8V51.9027C8 55.1552 13.2683 57.8013 19.8056 57.8013C26.3428 57.8013 31.6111 55.1552 31.6111 51.9027V24.2842H31.5727C31.188 27.3713 26.0736 29.7969 19.8055 29.7969Z" fill="#E3EEFF" stroke="#8FADC8"/>
<path d="M19.8056 29.7971C26.0736 29.7971 31.1881 27.3715 31.5726 24.2844C31.611 24.1742 31.611 24.0088 31.611 23.8986C31.6111 20.6461 26.3428 18 19.8056 18C13.2683 18 8 20.6461 8 23.8986C8 24.0088 8 24.1742 8.03842 24.2844C8.423 27.3715 13.5375 29.7971 19.8056 29.7971Z" fill="#BBD6FF" stroke="#8FADC8"/>
<path d="M44.7659 29.7969C38.4979 29.7969 33.3834 27.3713 32.9989 24.2842H32.9604V51.9027C32.9604 55.1552 38.2288 57.8013 44.766 57.8013C51.3033 57.8013 56.5716 55.1552 56.5716 51.9027V24.2842H56.5331C56.1485 27.3713 51.034 29.7969 44.7659 29.7969Z" fill="#E3EEFF" stroke="#8FADC8"/>
<path d="M44.766 29.7971C51.0341 29.7971 56.1486 27.3715 56.5331 24.2844C56.5715 24.1742 56.5715 24.0088 56.5715 23.8986C56.5716 20.6461 51.3033 18 44.766 18C38.2288 18 32.9604 20.6461 32.9604 23.8986C32.9604 24.0088 32.9604 24.1742 32.9989 24.2844C33.3835 27.3715 38.4979 29.7971 44.766 29.7971Z" fill="#BBD6FF" stroke="#8FADC8"/>
<path d="M69.7259 29.7969C63.4578 29.7969 58.3433 27.3713 57.9588 24.2842H57.9204V51.9027C57.9204 55.1552 63.1887 57.8013 69.726 57.8013C76.2632 57.8013 81.5315 55.1552 81.5315 51.9027V24.2842H81.4931C81.1084 27.3713 75.994 29.7969 69.7259 29.7969Z" fill="#E3EEFF" stroke="#8FADC8"/>
<path d="M69.726 29.7971C75.994 29.7971 81.1085 27.3715 81.493 24.2844C81.5314 24.1742 81.5314 24.0088 81.5314 23.8986C81.5315 20.6461 76.2632 18 69.726 18C63.1887 18 57.9204 20.6461 57.9204 23.8986C57.9204 24.0088 57.9204 24.1742 57.9588 24.2844C58.3434 27.3715 63.4579 29.7971 69.726 29.7971Z" fill="#BBD6FF" stroke="#8FADC8"/>
<path d="M56.2339 41.2654C49.9659 41.2654 44.8514 38.8398 44.4669 35.7527H44.4285V63.3712C44.4285 66.6237 49.6968 69.2698 56.234 69.2698C62.7713 69.2698 68.0396 66.6237 68.0396 63.3712V35.7527H68.0012C67.6165 38.8398 62.502 41.2654 56.2339 41.2654Z" fill="#E3EEFF" stroke="#8FADC8"/>
<path d="M56.2338 41.2654C62.5019 41.2654 67.6163 38.8398 68.0008 35.7527C68.0393 35.6424 68.0393 35.4771 68.0393 35.3668C68.0393 32.1144 62.771 29.4683 56.2338 29.4683C49.6965 29.4683 44.4282 32.1144 44.4282 35.3668C44.4282 35.4771 44.4282 35.6424 44.4666 35.7527C44.8512 38.8398 49.9657 41.2654 56.2338 41.2654Z" fill="#BBD6FF" stroke="#8FADC8"/>
<path d="M81.1942 41.2654C74.9261 41.2654 69.8116 38.8398 69.4271 35.7527H69.3887V63.3712C69.3887 66.6237 74.657 69.2698 81.1942 69.2698C87.7315 69.2698 92.9998 66.6237 92.9998 63.3712V35.7527H92.9614C92.5767 38.8398 87.4622 41.2654 81.1942 41.2654Z" fill="#E3EEFF" stroke="#8FADC8"/>
<path d="M81.1942 41.2654C87.4623 41.2654 92.5768 38.8398 92.9613 35.7527C92.9997 35.6424 92.9997 35.4771 92.9997 35.3668C92.9998 32.1144 87.7315 29.4683 81.1942 29.4683C74.657 29.4683 69.3887 32.1144 69.3887 35.3668C69.3887 35.4771 69.3887 35.6424 69.4271 35.7527C69.8117 38.8398 74.9262 41.2654 81.1942 41.2654Z" fill="#BBD6FF" stroke="#8FADC8"/>
<path d="M31.2737 41.2654C25.0057 41.2654 19.8912 38.8398 19.5067 35.7527H19.4683V63.3712C19.4683 66.6237 24.7366 69.2698 31.2738 69.2698C37.8111 69.2698 43.0794 66.6237 43.0794 63.3712V35.7527H43.041C42.6563 38.8398 37.5418 41.2654 31.2737 41.2654Z" fill="#E3EEFF" stroke="#8FADC8"/>
<path d="M31.2738 41.2654C37.5419 41.2654 42.6564 38.8398 43.0409 35.7527C43.0793 35.6424 43.0793 35.4771 43.0793 35.3668C43.0794 32.1144 37.8111 29.4683 31.2738 29.4683C24.7366 29.4683 19.4683 32.1144 19.4683 35.3668C19.4683 35.4771 19.4683 35.6424 19.5067 35.7527C19.8913 38.8398 25.0057 41.2654 31.2738 41.2654Z" fill="#BBD6FF" stroke="#8FADC8"/>
<path d="M44.7654 52.7971C38.4974 52.7971 33.3829 50.3715 32.9984 47.2844H32.96V74.903C32.96 78.1554 38.2283 80.8016 44.7655 80.8016C51.3028 80.8016 56.5711 78.1554 56.5711 74.903V47.2844H56.5326C56.148 50.3715 51.0335 52.7971 44.7654 52.7971Z" fill="#E3EEFF" stroke="#8FADC8"/>
<path d="M44.7655 52.7971C51.0336 52.7971 56.1481 50.3715 56.5326 47.2844C56.571 47.1742 56.571 47.0088 56.571 46.8986C56.5711 43.6461 51.3028 41 44.7655 41C38.2283 41 32.96 43.6461 32.96 46.8986C32.96 47.0088 32.96 47.1742 32.9984 47.2844C33.383 50.3715 38.4974 52.7971 44.7655 52.7971Z" fill="#BBD6FF" stroke="#8FADC8"/>
<path d="M69.7259 52.7971C63.4578 52.7971 58.3433 50.3715 57.9588 47.2844H57.9204V74.903C57.9204 78.1554 63.1887 80.8016 69.726 80.8016C76.2632 80.8016 81.5315 78.1554 81.5315 74.903V47.2844H81.4931C81.1084 50.3715 75.994 52.7971 69.7259 52.7971Z" fill="#E3EEFF" stroke="#8FADC8"/>
<path d="M69.726 52.7971C75.994 52.7971 81.1085 50.3715 81.493 47.2844C81.5314 47.1742 81.5314 47.0088 81.5314 46.8986C81.5315 43.6461 76.2632 41 69.726 41C63.1887 41 57.9204 43.6461 57.9204 46.8986C57.9204 47.0088 57.9204 47.1742 57.9588 47.2844C58.3434 50.3715 63.4579 52.7971 69.726 52.7971Z" fill="#BBD6FF" stroke="#8FADC8"/>
<path d="M19.8055 52.7971C13.5374 52.7971 8.42293 50.3715 8.03842 47.2844H8V74.903C8 78.1554 13.2683 80.8016 19.8056 80.8016C26.3428 80.8016 31.6111 78.1554 31.6111 74.903V47.2844H31.5727C31.188 50.3715 26.0736 52.7971 19.8055 52.7971Z" fill="#E3EEFF" stroke="#8FADC8"/>
<path d="M19.8056 52.7971C26.0736 52.7971 31.1881 50.3715 31.5726 47.2844C31.611 47.1742 31.611 47.0088 31.611 46.8986C31.6111 43.6461 26.3428 41 19.8056 41C13.2683 41 8 43.6461 8 46.8986C8 47.0088 8 47.1742 8.03842 47.2844C8.423 50.3715 13.5375 52.7971 19.8056 52.7971Z" fill="#BBD6FF" stroke="#8FADC8"/>
</g>
</svg>
