<svg width="100" height="100" viewBox="0 0 100 100" fill="none" xmlns="http://www.w3.org/2000/svg">
<mask id="mask0" mask-type="alpha" maskUnits="userSpaceOnUse" x="0" y="0" width="100" height="100">
<rect width="100" height="100" fill="#C4C4C4"/>
</mask>
<g mask="url(#mask0)">
<path d="M23.2972 27.2885C16.7681 27.2885 11.4405 24.7618 11.04 21.5461H11V50.3151C11 53.703 16.4878 56.4594 23.2973 56.4594C30.1068 56.4594 35.5946 53.703 35.5946 50.3151V21.5461H35.5546C35.1539 24.7618 29.8264 27.2885 23.2972 27.2885Z" fill="#E3EEFF" stroke="#8FADC8"/>
<path d="M23.2973 27.2885C29.8265 27.2885 35.154 24.7619 35.5545 21.5462C35.5945 21.4314 35.5945 21.2591 35.5945 21.1443C35.5946 17.7564 30.1068 15 23.2973 15C16.4878 15 11 17.7564 11 21.1443C11 21.2591 11 21.4314 11.04 21.5462C11.4406 24.7619 16.7681 27.2885 23.2973 27.2885Z" fill="#BBD6FF" stroke="#8FADC8"/>
<path d="M23.2972 40.6398C16.7681 40.6398 11.4405 38.1131 11.04 34.8975H11V63.6664C11 67.0543 16.4878 69.8107 23.2973 69.8107C30.1068 69.8107 35.5946 67.0543 35.5946 63.6664V34.8975H35.5546C35.1539 38.1131 29.8264 40.6398 23.2972 40.6398Z" fill="#E3EEFF" stroke="#8FADC8"/>
<path d="M23.2973 40.6398C29.8265 40.6398 35.154 38.1132 35.5545 34.8975C35.5945 34.7827 35.5945 34.6104 35.5945 34.4956C35.5946 31.1077 30.1068 28.3513 23.2973 28.3513C16.4878 28.3513 11 31.1077 11 34.4956C11 34.6104 11 34.7827 11.04 34.8975C11.4406 38.1132 16.7681 40.6398 23.2973 40.6398Z" fill="#BBD6FF" stroke="#8FADC8"/>
<path d="M23.2972 54.2885C16.7681 54.2885 11.4405 51.7618 11.04 48.5461H11V77.3151C11 80.703 16.4878 83.4594 23.2973 83.4594C30.1068 83.4594 35.5946 80.703 35.5946 77.3151V48.5461H35.5546C35.1539 51.7618 29.8264 54.2885 23.2972 54.2885Z" fill="#E3EEFF" stroke="#8FADC8"/>
<path d="M23.2973 54.2885C29.8265 54.2885 35.154 51.7619 35.5545 48.5462C35.5945 48.4314 35.5945 48.2591 35.5945 48.1443C35.5946 44.7564 30.1068 42 23.2973 42C16.4878 42 11 44.7564 11 48.1443C11 48.2591 11 48.4314 11.04 48.5462C11.4406 51.7619 16.7681 54.2885 23.2973 54.2885Z" fill="#BBD6FF" stroke="#8FADC8"/>
<path d="M49.9999 27.2885C43.4707 27.2885 38.1432 24.7618 37.7427 21.5461H37.7026V50.3151C37.7026 53.703 43.1904 56.4594 49.9999 56.4594C56.8095 56.4594 62.2972 53.703 62.2972 50.3151V21.5461H62.2572C61.8565 24.7618 56.529 27.2885 49.9999 27.2885Z" fill="#E3EEFF" stroke="#8FADC8"/>
<path d="M50.0002 27.2885C56.5293 27.2885 61.8568 24.7619 62.2574 21.5462C62.2974 21.4314 62.2974 21.2591 62.2974 21.1443C62.2975 17.7564 56.8097 15 50.0002 15C43.1906 15 37.7029 17.7564 37.7029 21.1443C37.7029 21.2591 37.7029 21.4314 37.7429 21.5462C38.1435 24.7619 43.471 27.2885 50.0002 27.2885Z" fill="#BBD6FF" stroke="#8FADC8"/>
<path d="M49.9999 40.6398C43.4707 40.6398 38.1432 38.1131 37.7427 34.8975H37.7026V63.6664C37.7026 67.0543 43.1904 69.8107 49.9999 69.8107C56.8095 69.8107 62.2972 67.0543 62.2972 63.6664V34.8975H62.2572C61.8565 38.1131 56.529 40.6398 49.9999 40.6398Z" fill="#E3EEFF" stroke="#8FADC8"/>
<path d="M50.0002 40.6398C56.5293 40.6398 61.8568 38.1132 62.2574 34.8975C62.2974 34.7827 62.2974 34.6104 62.2974 34.4956C62.2975 31.1077 56.8097 28.3513 50.0002 28.3513C43.1906 28.3513 37.7029 31.1077 37.7029 34.4956C37.7029 34.6104 37.7029 34.7827 37.7429 34.8975C38.1435 38.1132 43.471 40.6398 50.0002 40.6398Z" fill="#BBD6FF" stroke="#8FADC8"/>
<path d="M49.9999 54.2885C43.4707 54.2885 38.1432 51.7618 37.7427 48.5461H37.7026V77.3151C37.7026 80.703 43.1904 83.4594 49.9999 83.4594C56.8095 83.4594 62.2972 80.703 62.2972 77.3151V48.5461H62.2572C61.8565 51.7618 56.529 54.2885 49.9999 54.2885Z" fill="#E3EEFF" stroke="#8FADC8"/>
<path d="M50.0002 54.2885C56.5293 54.2885 61.8568 51.7619 62.2574 48.5462C62.2974 48.4314 62.2974 48.2591 62.2974 48.1443C62.2975 44.7564 56.8097 42 50.0002 42C43.1906 42 37.7029 44.7564 37.7029 48.1443C37.7029 48.2591 37.7029 48.4314 37.7429 48.5462C38.1435 51.7619 43.471 54.2885 50.0002 54.2885Z" fill="#BBD6FF" stroke="#8FADC8"/>
<path d="M76.703 27.2885C70.1738 27.2885 64.8463 24.7618 64.4458 21.5461H64.4058V50.3151C64.4058 53.703 69.8935 56.4594 76.7031 56.4594C83.5126 56.4594 89.0004 53.703 89.0004 50.3151V21.5461H88.9603C88.5597 24.7618 83.2321 27.2885 76.703 27.2885Z" fill="#E3EEFF" stroke="#8FADC8"/>
<path d="M76.7028 27.2885C83.232 27.2885 88.5595 24.7619 88.96 21.5462C89 21.4314 89 21.2591 89 21.1443C89.0001 17.7564 83.5124 15 76.7028 15C69.8933 15 64.4055 17.7564 64.4055 21.1443C64.4055 21.2591 64.4055 21.4314 64.4455 21.5462C64.8461 24.7619 70.1737 27.2885 76.7028 27.2885Z" fill="#BBD6FF" stroke="#8FADC8"/>
<path d="M76.7027 40.6398C70.1736 40.6398 64.8461 38.1131 64.4455 34.8975H64.4055V63.6664C64.4055 67.0543 69.8933 69.8107 76.7028 69.8107C83.5124 69.8107 89.0001 67.0543 89.0001 63.6664V34.8975H88.9601C88.5594 38.1131 83.2319 40.6398 76.7027 40.6398Z" fill="#E3EEFF" stroke="#8FADC8"/>
<path d="M76.7026 40.6398C83.2317 40.6398 88.5592 38.1132 88.9598 34.8975C88.9998 34.7827 88.9998 34.6104 88.9998 34.4956C88.9999 31.1077 83.5121 28.3513 76.7026 28.3513C69.893 28.3513 64.4053 31.1077 64.4053 34.4956C64.4053 34.6104 64.4053 34.7827 64.4453 34.8975C64.8459 38.1132 70.1734 40.6398 76.7026 40.6398Z" fill="#BBD6FF" stroke="#8FADC8"/>
<path d="M76.7027 54.2885C70.1736 54.2885 64.8461 51.7618 64.4455 48.5461H64.4055V77.3151C64.4055 80.703 69.8933 83.4594 76.7028 83.4594C83.5124 83.4594 89.0001 80.703 89.0001 77.3151V48.5461H88.9601C88.5594 51.7618 83.2319 54.2885 76.7027 54.2885Z" fill="#E3EEFF" stroke="#8FADC8"/>
<path d="M76.7026 54.2885C83.2317 54.2885 88.5592 51.7619 88.9598 48.5462C88.9998 48.4314 88.9998 48.2591 88.9998 48.1443C88.9999 44.7564 83.5121 42 76.7026 42C69.893 42 64.4053 44.7564 64.4053 48.1443C64.4053 48.2591 64.4053 48.4314 64.4453 48.5462C64.8459 51.7619 70.1734 54.2885 76.7026 54.2885Z" fill="#BBD6FF" stroke="#8FADC8"/>
</g>
</svg>
