<svg width="44" height="22" viewBox="0 0 44 22" fill="none" xmlns="http://www.w3.org/2000/svg">
<path d="M19.2032 0.610553L10.0803 0.610553C9.90579 0.310283 9.6341 -4.23582e-06 9.23818 -4.21851e-06C8.82014 -4.20024e-06 8.54991 0.34021 8.39535 0.610553L2.11256 0.610554L2.1125 0.610554L2.11244 0.610554C0.162112 0.610554 -5.4971e-07 8.68045 -4.64571e-07 10.6282C-4.12853e-07 11.8114 0.0370723 12.9683 0.110222 14.0669C0.126328 14.3089 0.335645 14.4921 0.577643 14.476C0.819757 14.4599 1.00295 14.2487 0.98673 14.0086C0.914928 12.9293 0.878499 11.792 0.878499 10.6282C0.878499 8.25877 1.03136 5.993 1.30908 4.24848C1.62757 2.24714 1.98377 1.67459 2.1125 1.5263C2.24123 1.67459 2.59737 2.2472 2.91591 4.24848C3.19358 5.993 3.3465 8.25877 3.3465 10.6282C3.3465 12.9976 3.19364 15.2633 2.91592 17.0079C2.5955 19.021 2.23701 19.5884 2.11027 19.7326C1.90441 19.506 1.44976 18.5066 1.14029 15.7499C1.11323 15.5089 0.895835 15.3354 0.654775 15.3624C0.413715 15.3894 0.240299 15.6064 0.267298 15.848C0.419103 17.2005 0.630528 18.3347 0.878734 19.1281C1.08255 19.7796 1.43219 20.6458 2.11244 20.6458L2.11256 20.6458L2.11262 20.6458L8.39535 20.6458C8.54991 20.9161 8.82014 21.2563 9.23818 21.2563C9.6341 21.2563 9.90584 20.9461 10.0803 20.6458L19.2031 20.6458C19.3576 20.9161 19.6278 21.2563 20.046 21.2563C20.4419 21.2563 20.7136 20.9461 20.8881 20.6458L27.8876 20.6458C29.8379 20.6458 30 12.5942 30 10.6282C30 8.66218 29.8379 0.610552 27.8876 0.610553L20.8881 0.610553C20.7136 0.310283 20.4419 -4.70824e-06 20.046 -4.69094e-06C19.6278 5.25478e-05 19.3577 0.340268 19.2032 0.610553ZM10.4399 19.7673C11.1697 17.4141 11.3507 13.1482 11.3507 10.6282C11.3507 8.07733 11.1637 3.82276 10.4399 1.48905L20.3214 1.48905C21.0961 3.61262 21.28 8.24799 21.28 10.6282C21.28 13.005 21.0963 17.6429 20.3214 19.7673L10.4399 19.7673ZM4.22494 10.6282C4.22494 8.29918 4.01685 3.45238 3.10831 1.48905L9.51356 1.48905C10.2882 3.61256 10.4721 8.24876 10.4721 10.6282C10.4721 13.01 10.2871 17.6469 9.51356 19.7673L3.10831 19.7673C4.02482 17.7868 4.22494 12.9471 4.22494 10.6282ZM28.691 4.24854C28.9686 5.99306 29.1216 8.25883 29.1216 10.6283C29.1216 12.9977 28.9687 15.2634 28.691 17.008C28.3335 19.2547 27.9284 19.7008 27.851 19.7673L21.2476 19.7673C21.9739 17.4263 22.1585 13.1805 22.1585 10.6283C22.1585 8.07739 21.9715 3.82276 21.2476 1.48911L27.851 1.48911C27.9284 1.55564 28.3334 2.00174 28.691 4.24854Z" fill="#9FB1C1"/>
<path fill-rule="evenodd" clip-rule="evenodd" d="M33.1229 0.610553L24 0.610554L24.3595 1.48905L34.2411 1.48905C35.0157 3.61262 35.1997 8.24799 35.1997 10.6282C35.1997 13.005 35.016 17.6429 34.2411 19.7673L24.3595 19.7673L24 20.6458L33.1228 20.6458C33.2773 20.9161 33.5475 21.2563 33.9656 21.2563C34.3616 21.2563 34.6332 20.9461 34.8078 20.6458L41.8072 20.6458C43.7576 20.6458 43.9197 12.5942 43.9197 10.6282C43.9197 8.66218 43.7576 0.610553 41.8072 0.610553L34.8078 0.610553C34.6333 0.310281 34.3616 -4.26762e-06 33.9657 -4.25031e-06C33.5475 5.48958e-05 33.2774 0.340269 33.1229 0.610553ZM43.0413 10.6283C43.0413 8.25883 42.8883 5.99306 42.6107 4.24854C42.2531 2.00174 41.8481 1.55564 41.7707 1.48911L35.1673 1.48911C35.8912 3.82276 36.0781 8.07739 36.0781 10.6283C36.0781 13.1805 35.8935 17.4263 35.1673 19.7673L41.7707 19.7673C41.8481 19.7008 42.2532 19.2547 42.6107 17.008C42.8884 15.2634 43.0413 12.9977 43.0413 10.6283Z" fill="#9FB1C1"/>
</svg>
