<svg width="225" height="93" viewBox="0 0 225 93" fill="none" xmlns="http://www.w3.org/2000/svg">
<mask id="mask0" mask-type="alpha" maskUnits="userSpaceOnUse" x="0" y="0" width="225" height="93">
<rect width="225" height="93" fill="#C4C4C4"/>
</mask>
<g mask="url(#mask0)">
<path d="M93.8664 39.8273L104.544 39.8273L102.179 37.2656C102.017 37.0898 101.926 36.8513 101.926 36.6027C101.926 36.3541 102.017 36.1156 102.179 35.9398L102.792 35.2758C102.872 35.1884 102.968 35.119 103.073 35.0717C103.178 35.0244 103.291 35 103.405 35C103.519 35 103.632 35.0244 103.737 35.0717C103.842 35.119 103.938 35.1884 104.018 35.2758L108.902 40.5707C109.065 40.7465 109.156 40.9849 109.156 41.2336C109.156 41.4822 109.065 41.7207 108.902 41.8965L104.015 47.191C103.935 47.2784 103.839 47.3477 103.734 47.3951C103.629 47.4424 103.516 47.4667 103.402 47.4667C103.288 47.4667 103.176 47.4424 103.07 47.3951C102.965 47.3477 102.87 47.2784 102.789 47.191L102.176 46.5269C102.014 46.3511 101.923 46.1127 101.923 45.864C101.923 45.6154 102.014 45.377 102.176 45.2012L104.541 42.6398L93.8664 42.6398C93.6369 42.6398 93.4168 42.5411 93.2545 42.3652C93.0922 42.1894 93.001 41.951 93.001 41.7023L93.001 40.7648C93.001 40.5162 93.0922 40.2777 93.2545 40.1019C93.4168 39.9261 93.6369 39.8273 93.8664 39.8273Z" fill="#E3EEFF"/>
<path d="M160.5 29.4875C151.208 29.4875 143.627 25.8919 143.057 21.3157H143V62.2562C143 67.0774 150.809 70.9999 160.5 70.9999C170.191 70.9999 178 67.0774 178 62.2562V21.3157H177.943C177.373 25.8919 169.791 29.4875 160.5 29.4875Z" fill="#E3EEFF" stroke="#8FADC8"/>
<path d="M160.5 29.4875C169.792 29.4875 177.373 25.8919 177.943 21.3158C178 21.1523 178 20.9072 178 20.7438C178 15.9225 170.191 12 160.5 12C150.809 12 143 15.9225 143 20.7438C143 20.9072 143 21.1523 143.057 21.3158C143.627 25.8919 151.208 29.4875 160.5 29.4875Z" fill="#BBD6FF" stroke="#8FADC8"/>
<path d="M57.5124 40.4999C57.5124 31.2084 61.108 23.6269 65.6842 23.057L65.6842 23L24.7438 23C19.9225 23 16 30.8095 16 40.5C16 50.1905 19.9225 58 24.7438 58L65.6842 58L65.6842 57.943C61.108 57.3728 57.5124 49.7914 57.5124 40.4999Z" fill="#E3EEFF" stroke="#8FADC8"/>
<path d="M57.5125 40.5C57.5125 49.7915 61.1081 57.373 65.6842 57.9429C65.8477 57.9999 66.0928 57.9999 66.2562 57.9999C71.0775 58 75 50.1905 75 40.5C75 30.8095 71.0775 23 66.2562 23C66.0928 23 65.8477 23 65.6842 23.057C61.1081 23.627 57.5125 31.2085 57.5125 40.5Z" fill="#BBD6FF" stroke="#8FADC8"/>
</g>
</svg>
