<svg width="207" height="111" viewBox="0 0 207 111" fill="none" xmlns="http://www.w3.org/2000/svg">
<path d="M173.184 65L171.192 62.18C172.368 61.76 173.04 60.824 173.04 59.528C173.04 57.704 171.72 56.6 169.536 56.6H166.26L166.26 65H167.46L167.46 62.444H169.536C169.716 62.444 169.896 62.432 170.064 62.42L171.876 65H173.184ZM169.5 61.424H167.46L167.46 57.644H169.5C171.036 57.644 171.84 58.328 171.84 59.528C171.84 60.728 171.036 61.424 169.5 61.424ZM177.068 58.58C176.048 58.58 175.1 58.868 174.44 59.396L174.92 60.26C175.412 59.84 176.18 59.576 176.936 59.576C178.076 59.576 178.64 60.14 178.64 61.112L178.64 61.34H176.816C174.92 61.34 174.26 62.18 174.26 63.2C174.26 64.304 175.172 65.072 176.612 65.072C177.608 65.072 178.316 64.736 178.7 64.16L178.7 65H179.792L179.792 61.16C179.792 59.42 178.808 58.58 177.068 58.58ZM176.804 64.184C175.928 64.184 175.4 63.788 175.4 63.152C175.4 62.612 175.724 62.168 176.864 62.168H178.64L178.64 63.056C178.352 63.788 177.668 64.184 176.804 64.184ZM186.807 56.096L186.807 59.6C186.279 58.916 185.487 58.58 184.587 58.58C182.727 58.58 181.371 59.876 181.371 61.82C181.371 63.764 182.727 65.072 184.587 65.072C185.523 65.072 186.339 64.712 186.855 63.992L186.855 65H187.959L187.959 56.096H186.807ZM184.683 64.064C183.459 64.064 182.535 63.176 182.535 61.82C182.535 60.464 183.459 59.588 184.683 59.588C185.895 59.588 186.819 60.464 186.819 61.82C186.819 63.176 185.895 64.064 184.683 64.064ZM190.715 57.416C191.171 57.416 191.495 57.08 191.495 56.648C191.495 56.24 191.159 55.916 190.715 55.916C190.271 55.916 189.935 56.252 189.935 56.672C189.935 57.092 190.271 57.416 190.715 57.416ZM190.139 65H191.291L191.291 58.64H190.139L190.139 65ZM198.266 58.64L198.266 61.928C198.266 63.296 197.498 64.04 196.298 64.04C195.206 64.04 194.582 63.416 194.582 62.168L194.582 58.64H193.43L193.43 62.3C193.43 64.172 194.522 65.072 196.166 65.072C197.066 65.072 197.858 64.7 198.326 64.04L198.326 65H199.418L199.418 58.64H198.266ZM203.436 65.072C205.128 65.072 206.184 64.34 206.184 63.188C206.184 60.716 202.152 61.94 202.152 60.44C202.152 59.936 202.644 59.564 203.652 59.564C204.276 59.564 204.912 59.696 205.488 60.068L205.98 59.156C205.428 58.796 204.492 58.58 203.664 58.58C202.032 58.58 201.012 59.348 201.012 60.488C201.012 63.02 205.032 61.784 205.032 63.212C205.032 63.752 204.588 64.076 203.52 64.076C202.692 64.076 201.828 63.8 201.288 63.416L200.808 64.328C201.336 64.748 202.38 65.072 203.436 65.072Z" fill="#ADADAD"/>
<path d="M130 25H26" stroke="#ADADAD"/>
<path d="M135 36L135 23" stroke="#ADADAD" stroke-linecap="round" stroke-linejoin="round"/>
<path d="M22 36L22 23" stroke="#ADADAD" stroke-linecap="round" stroke-linejoin="round"/>
<path d="M134.894 25L129.723 26.7321L129.723 23.2679L134.894 25Z" fill="#ADADAD"/>
<path d="M22 25L27.1705 23.2679L27.1705 26.7321L22 25Z" fill="#ADADAD"/>
<path d="M111.764 73.076C111.764 53.3907 121.357 37.3282 133.568 36.1207L133.568 36L24.3301 36C11.4661 36 1.00001 52.5455 1.00001 73.0763C1.00001 93.607 11.4661 110.153 24.3301 110.153L133.568 110.153L133.568 110.032C121.357 108.824 111.764 92.7614 111.764 73.076Z" fill="#E3EEFF" stroke="#8FADC8"/>
<path d="M111.763 73.0763C111.763 92.7617 121.357 108.824 133.567 110.032C134.003 110.152 134.657 110.152 135.093 110.152C147.958 110.153 158.424 93.607 158.424 73.0763C158.424 52.5455 147.958 36 135.093 36C134.657 36 134.003 36 133.567 36.1207C121.357 37.3285 111.763 53.3909 111.763 73.0763Z" fill="#BBD6FF" stroke="#8FADC8"/>
<path d="M61.284 3.6V7.212L56.46 7.212V3.6L55.26 3.6V12H56.46V8.256L61.284 8.256V12H62.484V3.6H61.284ZM70.5783 8.856C70.5783 6.9 69.2703 5.58 67.4343 5.58C65.5983 5.58 64.2423 6.936 64.2423 8.82C64.2423 10.716 65.6103 12.072 67.6623 12.072C68.7183 12.072 69.5943 11.712 70.1703 11.04L69.5343 10.296C69.0663 10.812 68.4423 11.064 67.6983 11.064C66.4383 11.064 65.5383 10.32 65.3943 9.204H70.5543C70.5663 9.096 70.5783 8.952 70.5783 8.856ZM67.4343 6.552C68.5503 6.552 69.3543 7.308 69.4743 8.376H65.3943C65.5143 7.296 66.3303 6.552 67.4343 6.552ZM72.7539 4.416C73.2099 4.416 73.5339 4.08 73.5339 3.648C73.5339 3.24 73.1979 2.916 72.7539 2.916C72.3099 2.916 71.9739 3.252 71.9739 3.672C71.9739 4.092 72.3099 4.416 72.7539 4.416ZM72.1779 12H73.3299V5.64H72.1779V12ZM80.5215 5.64V6.624C79.9815 5.928 79.1175 5.58 78.1695 5.58C76.3335 5.58 74.9415 6.816 74.9415 8.652C74.9415 10.488 76.3335 11.736 78.1695 11.736C79.0815 11.736 79.9095 11.412 80.4615 10.752V11.256C80.4615 12.696 79.7775 13.392 78.2775 13.392C77.3415 13.392 76.4175 13.068 75.8295 12.564L75.2775 13.452C75.9735 14.076 77.1495 14.4 78.3135 14.4C80.4735 14.4 81.6135 13.38 81.6135 11.136V5.64H80.5215ZM78.3015 10.728C77.0175 10.728 76.1055 9.876 76.1055 8.652C76.1055 7.416 77.0175 6.588 78.3015 6.588C79.5735 6.588 80.4855 7.416 80.4855 8.652C80.4855 9.876 79.5735 10.728 78.3015 10.728ZM87.2107 5.58C86.2387 5.58 85.4467 5.928 84.9667 6.54V3.096H83.8147V12H84.9667V8.724C84.9667 7.344 85.7587 6.612 86.9827 6.612C88.0747 6.612 88.6987 7.224 88.6987 8.472V12H89.8507V8.34C89.8507 6.468 88.7587 5.58 87.2107 5.58ZM95.1986 10.8C94.9586 10.992 94.6346 11.1 94.2986 11.1C93.6626 11.1 93.3026 10.716 93.3026 10.032V6.588H95.1266V5.64H93.3026V4.248H92.1506V5.64H91.0706V6.588H92.1506V10.08C92.1506 11.364 92.8826 12.072 94.1666 12.072C94.6826 12.072 95.2106 11.928 95.5586 11.628L95.1986 10.8Z" fill="#ADADAD"/>
</svg>
