<svg width="105" height="105" viewBox="0 0 105 105" fill="none" xmlns="http://www.w3.org/2000/svg">
<path d="M80.4045 51.6016C80.4045 47.0346 82.1718 43.3082 84.4211 43.028L84.4211 43L37.2978 43C34.928 43 33 46.8386 33 51.6017C33 56.3648 34.928 60.2034 37.2978 60.2034L84.4211 60.2034L84.4211 60.1754C82.1718 59.8951 80.4045 56.1687 80.4045 51.6016Z" fill="#E3EEFF" stroke="#8FADC8"/>
<path d="M80.4044 51.6017C80.4044 56.1687 82.1718 59.8952 84.4211 60.1753C84.5014 60.2033 84.6219 60.2033 84.7022 60.2033C87.072 60.2034 89 56.3648 89 51.6017C89 46.8386 87.072 43 84.7022 43C84.6219 43 84.5014 43 84.4211 43.028C82.1718 43.3082 80.4044 47.0347 80.4044 51.6017Z" fill="#BBD6FF" stroke="#8FADC8"/>
<path d="M79.4045 34.6016C79.4045 30.0346 81.1718 26.3082 83.4211 26.028L83.4211 26L36.2978 26C33.928 26 32 29.8386 32 34.6017C32 39.3648 33.928 43.2034 36.2978 43.2034L83.4211 43.2034L83.4211 43.1754C81.1718 42.8951 79.4045 39.1687 79.4045 34.6016Z" fill="#BBD6FF" stroke="#8FADC8"/>
<path d="M79.4044 34.6017C79.4044 39.1687 81.1718 42.8952 83.4211 43.1753C83.5014 43.2033 83.6219 43.2033 83.7022 43.2033C86.072 43.2034 88 39.3648 88 34.6017C88 29.8386 86.072 26 83.7022 26C83.6219 26 83.5014 26 83.4211 26.028C81.1718 26.3082 79.4044 30.0347 79.4044 34.6017Z" fill="#BBD6FF" stroke="#8FADC8"/>
<path d="M72.4045 60.6016C72.4045 56.0346 74.1718 52.3082 76.4211 52.028L76.4211 52L29.2978 52C26.928 52 25 55.8386 25 60.6017C25 65.3648 26.928 69.2034 29.2978 69.2034L76.4211 69.2034L76.4211 69.1754C74.1718 68.8951 72.4045 65.1687 72.4045 60.6016Z" fill="#E3EEFF" stroke="#8FADC8"/>
<path d="M72.4044 60.6017C72.4044 65.1687 74.1718 68.8952 76.4211 69.1753C76.5014 69.2033 76.6219 69.2033 76.7022 69.2033C79.072 69.2034 81 65.3648 81 60.6017C81 55.8386 79.072 52 76.7022 52C76.6219 52 76.5014 52 76.4211 52.028C74.1718 52.3082 72.4044 56.0347 72.4044 60.6017Z" fill="#BBD6FF" stroke="#8FADC8"/>
<path d="M71.4045 43.6016C71.4045 39.0346 73.1718 35.3082 75.4211 35.028L75.4211 35L28.2978 35C25.928 35 24 38.8386 24 43.6017C24 48.3648 25.928 52.2034 28.2978 52.2034L75.4211 52.2034L75.4211 52.1754C73.1718 51.8951 71.4045 48.1687 71.4045 43.6016Z" fill="#BBD6FF" stroke="#8FADC8"/>
<path d="M71.4044 43.6017C71.4044 48.1687 73.1718 51.8952 75.4211 52.1753C75.5014 52.2033 75.6219 52.2033 75.7022 52.2033C78.072 52.2034 80 48.3648 80 43.6017C80 38.8386 78.072 35 75.7022 35C75.6219 35 75.5014 35 75.4211 35.028C73.1718 35.3082 71.4044 39.0347 71.4044 43.6017Z" fill="#BBD6FF" stroke="#8FADC8"/>
<path d="M64.4045 69.6016C64.4045 65.0346 66.1718 61.3082 68.4211 61.028L68.4211 61L21.2978 61C18.928 61 17 64.8386 17 69.6017C17 74.3648 18.928 78.2034 21.2978 78.2034L68.4211 78.2034L68.4211 78.1754C66.1718 77.8951 64.4045 74.1687 64.4045 69.6016Z" fill="#E3EEFF" stroke="#8FADC8"/>
<path d="M64.4044 69.6017C64.4044 74.1687 66.1718 77.8952 68.4211 78.1753C68.5014 78.2033 68.6219 78.2033 68.7022 78.2033C71.072 78.2034 73 74.3648 73 69.6017C73 64.8386 71.072 61 68.7022 61C68.6219 61 68.5014 61 68.4211 61.028C66.1718 61.3082 64.4044 65.0347 64.4044 69.6017Z" fill="#BBD6FF" stroke="#8FADC8"/>
<path d="M63.4045 52.6016C63.4045 48.0346 65.1718 44.3082 67.4211 44.028L67.4211 44L20.2978 44C17.928 44 16 47.8386 16 52.6017C16 57.3648 17.928 61.2034 20.2978 61.2034L67.4211 61.2034L67.4211 61.1754C65.1718 60.8951 63.4045 57.1687 63.4045 52.6016Z" fill="#BBD6FF" stroke="#8FADC8"/>
<path d="M63.4044 52.6017C63.4044 57.1687 65.1718 60.8952 67.4211 61.1753C67.5014 61.2033 67.6219 61.2033 67.7022 61.2033C70.072 61.2034 72 57.3648 72 52.6017C72 47.8386 70.072 44 67.7022 44C67.6219 44 67.5014 44 67.4211 44.028C65.1718 44.3082 63.4044 48.0347 63.4044 52.6017Z" fill="#BBD6FF" stroke="#8FADC8"/>
</svg>
