<svg width="105" height="105" viewBox="0 0 105 105" fill="none" xmlns="http://www.w3.org/2000/svg">
<mask id="mask0" mask-type="alpha" maskUnits="userSpaceOnUse" x="0" y="0" width="105" height="105">
<rect width="105" height="105" fill="#C4C4C4"/>
</mask>
<g mask="url(#mask0)">
<path opacity="0.4" d="M3.15044 89.6122L3.53337 14.7691C3.53934 13.6673 3.84043 12.6126 4.37221 11.8309C4.90399 11.0492 5.62419 10.6025 6.37869 10.5864L20.4897 10.4395C20.8602 10.4383 21.2271 10.5447 21.569 10.7526C21.911 10.9606 22.2212 11.2659 22.4816 11.6507C22.7419 12.0355 22.9472 12.4922 23.0854 12.994C23.2236 13.4959 23.292 14.0329 23.2866 14.5738L23.2294 24.9652L12.6711 25.0965C12.4815 25.0978 12.2999 25.2086 12.1661 25.4048C12.0322 25.6009 11.957 25.8665 11.9567 26.1434L11.9437 28.2203C11.9428 28.3555 11.9602 28.4896 11.9951 28.6148C12.0299 28.7401 12.0815 28.8539 12.1467 28.9498C12.212 29.0456 12.2897 29.1216 12.3753 29.1732C12.4608 29.2248 12.5525 29.2511 12.6451 29.2504L23.2082 29.1384L23.1659 37.453L18.2394 37.5073C18.0498 37.5086 17.8682 37.6194 17.7344 37.8156C17.6005 38.0117 17.5253 38.2772 17.525 38.5541L17.512 40.6311C17.5108 40.7664 17.5281 40.9006 17.5628 41.026C17.5976 41.1514 17.6492 41.2654 17.7145 41.3614C17.7798 41.4573 17.8576 41.5332 17.9432 41.5847C18.0289 41.6362 18.1208 41.6622 18.2134 41.6612L23.1499 41.5972L23.1069 49.9112L12.5269 50.0241C12.3373 50.0255 12.1557 50.1363 12.0219 50.3324C11.888 50.5286 11.8127 50.7941 11.8125 51.071L11.7995 53.148C11.7985 53.2831 11.816 53.4173 11.8508 53.5425C11.8857 53.6677 11.9372 53.7816 12.0025 53.8774C12.0678 53.9733 12.1454 54.0492 12.231 54.1008C12.3166 54.1525 12.4083 54.1787 12.5009 54.1781L23.0853 54.0538L23.0403 62.3676L18.1129 62.4347C17.9232 62.436 17.7417 62.5469 17.6078 62.743C17.474 62.9392 17.3987 63.2047 17.3985 63.4816L17.3855 65.5586C17.3843 65.6938 17.4015 65.8281 17.4363 65.9535C17.4711 66.0789 17.5226 66.1929 17.5879 66.2888C17.6533 66.3847 17.731 66.4607 17.8167 66.5121C17.9024 66.5636 17.9942 66.5896 18.0868 66.5886L23.02 66.5279L22.9778 74.8425L12.4048 74.9613C12.2151 74.9627 12.0336 75.0735 11.8997 75.2697C11.7659 75.4658 11.6906 75.7313 11.6904 76.0082L11.6774 78.0852C11.6761 78.2205 11.6934 78.3547 11.7282 78.4801C11.763 78.6055 11.8145 78.7195 11.8798 78.8154C11.9452 78.9114 12.0229 78.9873 12.1086 79.0388C12.1943 79.0903 12.2861 79.1163 12.3787 79.1153L22.9578 79.0046L22.9036 89.3987C22.8977 90.5005 22.5966 91.5552 22.0648 92.3369C21.533 93.1186 20.8128 93.5653 20.0583 93.5814L5.95739 93.7368C5.58634 93.7418 5.21835 93.6383 4.87509 93.4325C4.53184 93.2266 4.22025 92.9226 3.95869 92.5382C3.69712 92.1539 3.49086 91.697 3.35206 91.1945C3.21325 90.692 3.1447 90.154 3.15044 89.6122Z" fill="#BBD6FF"/>
<path d="M23.0424 29.1359L23.0618 24.9673L12.5035 25.0985C12.3139 25.0999 12.1324 25.2107 11.9985 25.4068C11.8647 25.603 11.7894 25.8685 11.7892 26.1454L11.7761 28.2224C11.7752 28.3575 11.7926 28.4916 11.8275 28.6169C11.8623 28.7421 11.9139 28.856 11.9792 28.9518C12.0444 29.0477 12.1221 29.1236 12.2077 29.1752C12.2932 29.2269 12.385 29.2531 12.4775 29.2525L23.0424 29.1359ZM22.917 54.0552L22.9377 49.9119L12.357 50.0242C12.1674 50.0255 11.9858 50.1364 11.8519 50.3325C11.7181 50.5287 11.6428 50.7942 11.6426 51.0711L11.6296 53.1481C11.6286 53.2832 11.6461 53.4173 11.6809 53.5426C11.7158 53.6678 11.7673 53.7816 11.8326 53.8775C11.8979 53.9734 11.9755 54.0493 12.0611 54.1009C12.1467 54.1525 12.2384 54.1788 12.331 54.1781L22.917 54.0552ZM22.98 41.5973L23.0001 37.4505L18.0736 37.5048C17.884 37.5061 17.7024 37.6169 17.5686 37.8131C17.4347 38.0092 17.3595 38.2747 17.3592 38.5516L17.3462 40.6286C17.345 40.7639 17.3623 40.8981 17.3971 41.0235C17.4318 41.1489 17.4834 41.2629 17.5487 41.3589C17.614 41.4548 17.6918 41.5307 17.7775 41.5822C17.8631 41.6337 17.955 41.6597 18.0476 41.6587L22.98 41.5973ZM12.2099 79.1178L22.7915 79.0062L22.8078 74.8426L12.2341 74.9608C12.0445 74.9621 11.8629 75.0729 11.729 75.2691C11.5952 75.4652 11.5199 75.7307 11.5197 76.0076L11.5067 78.0846C11.5055 78.2199 11.5227 78.3541 11.5575 78.4795C11.5923 78.6049 11.6438 78.7189 11.7092 78.8148C11.7745 78.9108 11.8522 78.9867 11.9379 79.0382C12.0236 79.0897 12.1154 79.1157 12.2081 79.1147L12.2099 79.1178ZM22.854 66.5313L22.8704 62.3677L17.943 62.4348C17.7533 62.4361 17.5718 62.5469 17.4379 62.7431C17.3041 62.9392 17.2288 63.2048 17.2286 63.4817L17.2156 65.5586C17.2143 65.6939 17.2316 65.8282 17.2664 65.9535C17.3012 66.0789 17.3527 66.1929 17.418 66.2889C17.4833 66.3848 17.5611 66.4607 17.6468 66.5122C17.7325 66.5637 17.8243 66.5897 17.9169 66.5887L22.854 66.5313Z" fill="#BBD6FF"/>
<g clip-path="url(#clip0)">
<path d="M31.5713 35.6935L26.2835 35.6935L27.4545 36.9744C27.5349 37.0623 27.5801 37.1815 27.5801 37.3059C27.5801 37.4302 27.5349 37.5494 27.4545 37.6373L27.151 37.9693C27.1112 38.013 27.0638 38.0477 27.0118 38.0714C26.9597 38.095 26.9038 38.1072 26.8474 38.1072C26.791 38.1072 26.7351 38.095 26.6831 38.0714C26.631 38.0477 26.5836 38.013 26.5438 37.9693L24.1249 35.3219C24.0445 35.234 23.9994 35.1147 23.9994 34.9904C23.9994 34.8661 24.0445 34.7469 24.1249 34.659L26.5453 32.0117C26.5851 31.968 26.6324 31.9333 26.6845 31.9097C26.7366 31.886 26.7924 31.8738 26.8488 31.8738C26.9052 31.8738 26.9611 31.886 27.0132 31.9097C27.0653 31.9333 27.1126 31.968 27.1524 32.0117L27.456 32.3437C27.5363 32.4316 27.5815 32.5509 27.5815 32.6752C27.5815 32.7995 27.5363 32.9187 27.456 33.0066L26.2849 34.2873L31.5713 34.2873C31.685 34.2873 31.794 34.3367 31.8744 34.4246C31.9548 34.5125 31.9999 34.6317 31.9999 34.756L31.9999 35.2248C31.9999 35.3491 31.9548 35.4683 31.8744 35.5563C31.794 35.6442 31.685 35.6935 31.5713 35.6935Z" fill="#8FADC8"/>
</g>
<path d="M94.4045 59.6016C94.4045 55.0346 96.1718 51.3082 98.4211 51.028L98.4211 51L51.2978 51C48.928 51 47 54.8386 47 59.6017C47 64.3648 48.928 68.2034 51.2978 68.2034L98.4211 68.2034L98.4211 68.1754C96.1718 67.8951 94.4045 64.1687 94.4045 59.6016Z" fill="#E3EEFF" stroke="#8FADC8"/>
<path d="M94.4044 59.6017C94.4044 64.1687 96.1718 67.8952 98.4211 68.1753C98.5014 68.2033 98.6219 68.2033 98.7022 68.2033C101.072 68.2034 103 64.3648 103 59.6017C103 54.8386 101.072 51 98.7022 51C98.6219 51 98.5014 51 98.4211 51.028C96.1718 51.3082 94.4044 55.0347 94.4044 59.6017Z" fill="#BBD6FF" stroke="#8FADC8"/>
<path d="M94.4045 42.6016C94.4045 38.0346 96.1718 34.3082 98.4211 34.028L98.4211 34L51.2978 34C48.928 34 47 37.8386 47 42.6017C47 47.3648 48.928 51.2034 51.2978 51.2034L98.4211 51.2034L98.4211 51.1754C96.1718 50.8951 94.4045 47.1687 94.4045 42.6016Z" fill="#E3EEFF" stroke="#8FADC8"/>
<path d="M94.4044 42.6017C94.4044 47.1687 96.1718 50.8952 98.4211 51.1753C98.5014 51.2033 98.6219 51.2033 98.7022 51.2033C101.072 51.2034 103 47.3648 103 42.6017C103 37.8386 101.072 34 98.7022 34C98.6219 34 98.5014 34 98.4211 34.028C96.1718 34.3082 94.4044 38.0347 94.4044 42.6017Z" fill="#BBD6FF" stroke="#8FADC8"/>
<path d="M94.4045 25.6016C94.4045 21.0346 96.1718 17.3082 98.4211 17.028L98.4211 17L51.2978 17C48.928 17 47 20.8386 47 25.6017C47 30.3648 48.928 34.2034 51.2978 34.2034L98.4211 34.2034L98.4211 34.1754C96.1718 33.8951 94.4045 30.1687 94.4045 25.6016Z" fill="#E3EEFF" stroke="#8FADC8"/>
<path d="M94.4044 25.6017C94.4044 30.1687 96.1718 33.8952 98.4211 34.1753C98.5014 34.2033 98.6219 34.2033 98.7022 34.2033C101.072 34.2034 103 30.3648 103 25.6017C103 20.8386 101.072 17 98.7022 17C98.6219 17 98.5014 17 98.4211 17.028C96.1718 17.3082 94.4044 21.0347 94.4044 25.6017Z" fill="#BBD6FF" stroke="#8FADC8"/>
<path d="M86.4045 68.6016C86.4045 64.0346 88.1718 60.3082 90.4211 60.028L90.4211 60L43.2978 60C40.928 60 39 63.8386 39 68.6017C39 73.3648 40.928 77.2034 43.2978 77.2034L90.4211 77.2034L90.4211 77.1754C88.1718 76.8951 86.4045 73.1687 86.4045 68.6016Z" fill="#E3EEFF" stroke="#8FADC8"/>
<path d="M86.4044 68.6017C86.4044 73.1687 88.1718 76.8952 90.4211 77.1753C90.5014 77.2033 90.6219 77.2033 90.7022 77.2033C93.072 77.2034 95 73.3648 95 68.6017C95 63.8386 93.072 60 90.7022 60C90.6219 60 90.5014 60 90.4211 60.028C88.1718 60.3082 86.4044 64.0347 86.4044 68.6017Z" fill="#BBD6FF" stroke="#8FADC8"/>
<path d="M86.4045 51.6016C86.4045 47.0346 88.1718 43.3082 90.4211 43.028L90.4211 43L43.2978 43C40.928 43 39 46.8386 39 51.6017C39 56.3648 40.928 60.2034 43.2978 60.2034L90.4211 60.2034L90.4211 60.1754C88.1718 59.8951 86.4045 56.1687 86.4045 51.6016Z" fill="#E3EEFF" stroke="#8FADC8"/>
<path d="M86.4044 51.6017C86.4044 56.1687 88.1718 59.8952 90.4211 60.1753C90.5014 60.2033 90.6219 60.2033 90.7022 60.2033C93.072 60.2034 95 56.3648 95 51.6017C95 46.8386 93.072 43 90.7022 43C90.6219 43 90.5014 43 90.4211 43.028C88.1718 43.3082 86.4044 47.0347 86.4044 51.6017Z" fill="#BBD6FF" stroke="#8FADC8"/>
<path d="M86.4045 34.6016C86.4045 30.0346 88.1718 26.3082 90.4211 26.028L90.4211 26L43.2978 26C40.928 26 39 29.8386 39 34.6017C39 39.3648 40.928 43.2034 43.2978 43.2034L90.4211 43.2034L90.4211 43.1754C88.1718 42.8951 86.4045 39.1687 86.4045 34.6016Z" fill="#E3EEFF" stroke="#8FADC8"/>
<path d="M86.4044 34.6017C86.4044 39.1687 88.1718 42.8952 90.4211 43.1753C90.5014 43.2033 90.6219 43.2033 90.7022 43.2033C93.072 43.2034 95 39.3648 95 34.6017C95 29.8386 93.072 26 90.7022 26C90.6219 26 90.5014 26 90.4211 26.028C88.1718 26.3082 86.4044 30.0347 86.4044 34.6017Z" fill="#BBD6FF" stroke="#8FADC8"/>
<path d="M78.4045 77.6016C78.4045 73.0346 80.1718 69.3082 82.4211 69.028L82.4211 69L35.2978 69C32.928 69 31 72.8386 31 77.6017C31 82.3648 32.928 86.2034 35.2978 86.2034L82.4211 86.2034L82.4211 86.1754C80.1718 85.8951 78.4045 82.1687 78.4045 77.6016Z" fill="#E3EEFF" stroke="#8FADC8"/>
<path d="M78.4044 77.6017C78.4044 82.1687 80.1718 85.8952 82.4211 86.1753C82.5014 86.2033 82.6219 86.2033 82.7022 86.2033C85.072 86.2034 87 82.3648 87 77.6017C87 72.8386 85.072 69 82.7022 69C82.6219 69 82.5014 69 82.4211 69.028C80.1718 69.3082 78.4044 73.0347 78.4044 77.6017Z" fill="#BBD6FF" stroke="#8FADC8"/>
<path d="M78.4045 60.6016C78.4045 56.0346 80.1718 52.3082 82.4211 52.028L82.4211 52L35.2978 52C32.928 52 31 55.8386 31 60.6017C31 65.3648 32.928 69.2034 35.2978 69.2034L82.4211 69.2034L82.4211 69.1754C80.1718 68.8951 78.4045 65.1687 78.4045 60.6016Z" fill="#E3EEFF" stroke="#8FADC8"/>
<path d="M78.4044 60.6017C78.4044 65.1687 80.1718 68.8952 82.4211 69.1753C82.5014 69.2033 82.6219 69.2033 82.7022 69.2033C85.072 69.2034 87 65.3648 87 60.6017C87 55.8386 85.072 52 82.7022 52C82.6219 52 82.5014 52 82.4211 52.028C80.1718 52.3082 78.4044 56.0347 78.4044 60.6017Z" fill="#BBD6FF" stroke="#8FADC8"/>
<path d="M78.4045 43.6016C78.4045 39.0346 80.1718 35.3082 82.4211 35.028L82.4211 35L35.2978 35C32.928 35 31 38.8386 31 43.6017C31 48.3648 32.928 52.2034 35.2978 52.2034L82.4211 52.2034L82.4211 52.1754C80.1718 51.8951 78.4045 48.1687 78.4045 43.6016Z" fill="#E3EEFF" stroke="#8FADC8"/>
<path d="M78.4044 43.6017C78.4044 48.1687 80.1718 51.8952 82.4211 52.1753C82.5014 52.2033 82.6219 52.2033 82.7022 52.2033C85.072 52.2034 87 48.3648 87 43.6017C87 38.8386 85.072 35 82.7022 35C82.6219 35 82.5014 35 82.4211 35.028C80.1718 35.3082 78.4044 39.0347 78.4044 43.6017Z" fill="#BBD6FF" stroke="#8FADC8"/>
</g>
<defs>
<clipPath id="clip0">
<rect width="8" height="10" fill="white" transform="translate(24 30)"/>
</clipPath>
</defs>
</svg>
