<svg width="105" height="105" viewBox="0 0 105 105" fill="none" xmlns="http://www.w3.org/2000/svg">
<path d="M80.4045 61.6016C80.4045 57.0346 82.1718 53.3082 84.4211 53.028L84.4211 53L37.2978 53C34.928 53 33 56.8386 33 61.6017C33 66.3648 34.928 70.2034 37.2978 70.2034L84.4211 70.2034L84.4211 70.1754C82.1718 69.8951 80.4045 66.1687 80.4045 61.6016Z" fill="#E3EEFF" stroke="#8FADC8"/>
<path d="M80.4044 61.6017C80.4044 66.1687 82.1718 69.8952 84.4211 70.1753C84.5014 70.2033 84.6219 70.2033 84.7022 70.2033C87.072 70.2034 89 66.3648 89 61.6017C89 56.8386 87.072 53 84.7022 53C84.6219 53 84.5014 53 84.4211 53.028C82.1718 53.3082 80.4044 57.0347 80.4044 61.6017Z" fill="#BBD6FF" stroke="#8FADC8"/>
<path d="M79.4045 44.6016C79.4045 40.0346 81.1718 36.3082 83.4211 36.028L83.4211 36L36.2978 36C33.928 36 32 39.8386 32 44.6017C32 49.3648 33.928 53.2034 36.2978 53.2034L83.4211 53.2034L83.4211 53.1754C81.1718 52.8951 79.4045 49.1687 79.4045 44.6016Z" fill="#BBD6FF" stroke="#8FADC8"/>
<path d="M79.4044 44.6017C79.4044 49.1687 81.1718 52.8952 83.4211 53.1753C83.5014 53.2033 83.6219 53.2033 83.7022 53.2033C86.072 53.2034 88 49.3648 88 44.6017C88 39.8386 86.072 36 83.7022 36C83.6219 36 83.5014 36 83.4211 36.028C81.1718 36.3082 79.4044 40.0347 79.4044 44.6017Z" fill="#BBD6FF" stroke="#8FADC8"/>
<path d="M72.4045 70.6016C72.4045 66.0346 74.1718 62.3082 76.4211 62.028L76.4211 62L29.2978 62C26.928 62 25 65.8386 25 70.6017C25 75.3648 26.928 79.2034 29.2978 79.2034L76.4211 79.2034L76.4211 79.1754C74.1718 78.8951 72.4045 75.1687 72.4045 70.6016Z" fill="#E3EEFF" stroke="#8FADC8"/>
<path d="M72.4044 70.6017C72.4044 75.1687 74.1718 78.8952 76.4211 79.1753C76.5014 79.2033 76.6219 79.2033 76.7022 79.2033C79.072 79.2034 81 75.3648 81 70.6017C81 65.8386 79.072 62 76.7022 62C76.6219 62 76.5014 62 76.4211 62.028C74.1718 62.3082 72.4044 66.0347 72.4044 70.6017Z" fill="#BBD6FF" stroke="#8FADC8"/>
<path d="M71.4045 53.6016C71.4045 49.0346 73.1718 45.3082 75.4211 45.028L75.4211 45L28.2978 45C25.928 45 24 48.8386 24 53.6017C24 58.3648 25.928 62.2034 28.2978 62.2034L75.4211 62.2034L75.4211 62.1754C73.1718 61.8951 71.4045 58.1687 71.4045 53.6016Z" fill="#BBD6FF" stroke="#8FADC8"/>
<path d="M71.4044 53.6017C71.4044 58.1687 73.1718 61.8952 75.4211 62.1753C75.5014 62.2033 75.6219 62.2033 75.7022 62.2033C78.072 62.2034 80 58.3648 80 53.6017C80 48.8386 78.072 45 75.7022 45C75.6219 45 75.5014 45 75.4211 45.028C73.1718 45.3082 71.4044 49.0347 71.4044 53.6017Z" fill="#BBD6FF" stroke="#8FADC8"/>
<path d="M64.4045 79.6016C64.4045 75.0346 66.1718 71.3082 68.4211 71.028L68.4211 71L21.2978 71C18.928 71 17 74.8386 17 79.6017C17 84.3648 18.928 88.2034 21.2978 88.2034L68.4211 88.2034L68.4211 88.1754C66.1718 87.8951 64.4045 84.1687 64.4045 79.6016Z" fill="#E3EEFF" stroke="#8FADC8"/>
<path d="M64.4044 79.6017C64.4044 84.1687 66.1718 87.8952 68.4211 88.1753C68.5014 88.2033 68.6219 88.2033 68.7022 88.2033C71.072 88.2034 73 84.3648 73 79.6017C73 74.8386 71.072 71 68.7022 71C68.6219 71 68.5014 71 68.4211 71.028C66.1718 71.3082 64.4044 75.0347 64.4044 79.6017Z" fill="#BBD6FF" stroke="#8FADC8"/>
<path d="M63.4045 62.6016C63.4045 58.0346 65.1718 54.3082 67.4211 54.028L67.4211 54L20.2978 54C17.928 54 16 57.8386 16 62.6017C16 67.3648 17.928 71.2034 20.2978 71.2034L67.4211 71.2034L67.4211 71.1754C65.1718 70.8951 63.4045 67.1687 63.4045 62.6016Z" fill="#BBD6FF" stroke="#8FADC8"/>
<path d="M63.4044 62.6017C63.4044 67.1687 65.1718 70.8952 67.4211 71.1753C67.5014 71.2033 67.6219 71.2033 67.7022 71.2033C70.072 71.2034 72 67.3648 72 62.6017C72 57.8386 70.072 54 67.7022 54C67.6219 54 67.5014 54 67.4211 54.028C65.1718 54.3082 63.4044 58.0347 63.4044 62.6017Z" fill="#BBD6FF" stroke="#8FADC8"/>
<mask id="mask0" mask-type="alpha" maskUnits="userSpaceOnUse" x="0" y="0" width="105" height="105">
<rect width="105" height="105" fill="#C4C4C4"/>
</mask>
<g mask="url(#mask0)">
<path d="M58.5576 20.4688H54.1C54.3227 20.2194 54.5031 19.9332 54.6324 19.621C54.859 19.074 54.9183 18.4722 54.8028 17.8915C54.6873 17.3109 54.4022 16.7775 53.9836 16.3589C53.5649 15.9403 53.0316 15.6552 52.4509 15.5397C51.8703 15.4242 51.2684 15.4835 50.7215 15.71C50.1745 15.9366 49.707 16.3202 49.3781 16.8125C49.0492 17.3047 48.8736 17.8835 48.8736 18.4755C48.8736 19.2127 49.1456 19.9218 49.6339 20.4688H45.1763C44.8924 19.5137 44.8159 18.5074 44.9536 17.5177C45.1075 16.4121 45.5243 15.3595 46.1691 14.4483C46.8139 13.537 47.6678 12.7937 48.6592 12.2807C49.6507 11.7677 50.7507 11.5 51.867 11.5C52.9832 11.5 54.0832 11.7677 55.0747 12.2807C56.0661 12.7937 56.92 13.537 57.5648 14.4483C58.2096 15.3595 58.6264 16.4121 58.7803 17.5177C58.918 18.5074 58.8415 19.5137 58.5576 20.4688Z" fill="#E3EEFF" stroke="#8FADC8"/>
<path d="M71.2717 44.3784L71.2717 44.3785C71.8558 46.7144 70.2337 48.9114 68.1508 48.9114H35.7375C33.6545 48.9114 32.0328 46.7145 32.6203 44.3792L32.6205 44.3784L38.3084 21.6166L38.3084 21.6165C38.5547 20.63 39.3599 19.9914 40.2286 19.9914H63.6636C64.5321 19.9914 65.3367 20.6291 65.5838 21.6168L71.2717 44.3784Z" fill="#E3EEFF" stroke="#8FADC8"/>
<path d="M48.7964 34.1219L47.6717 35.277V37.0906H46.3545V29.998H47.6717V33.6355L51.1774 29.998H52.6568L49.6779 33.1694L52.8391 37.0906H51.299L48.7964 34.1219Z" fill="#9FB1C1"/>
<path d="M58.747 31.68V36.2699C58.747 38.1748 57.7743 39.1272 55.8289 39.1272C55.3088 39.1272 54.8157 39.0597 54.3496 38.9246C53.8836 38.7962 53.4985 38.6071 53.1946 38.3572L53.762 37.4047C53.9984 37.6006 54.2956 37.756 54.6536 37.8708C55.0184 37.9924 55.3865 38.0532 55.758 38.0532C56.3524 38.0532 56.7881 37.9181 57.0651 37.6479C57.342 37.3777 57.4805 36.9657 57.4805 36.4118V36.1281C57.2644 36.3645 57.0009 36.5435 56.6902 36.6651C56.3795 36.7867 56.0383 36.8475 55.6668 36.8475C55.1535 36.8475 54.6874 36.7394 54.2686 36.5232C53.8565 36.3003 53.5289 35.9896 53.2858 35.5911C53.0493 35.1925 52.9311 34.7366 52.9311 34.2232C52.9311 33.7098 53.0493 33.2573 53.2858 32.8655C53.5289 32.4669 53.8565 32.1596 54.2686 31.9434C54.6874 31.7273 55.1535 31.6192 55.6668 31.6192C56.0586 31.6192 56.4132 31.6834 56.7307 31.8117C57.055 31.9401 57.3251 32.136 57.5413 32.3994V31.68H58.747ZM55.8593 35.7734C56.3389 35.7734 56.7307 35.6316 57.0347 35.3479C57.3454 35.0574 57.5008 34.6825 57.5008 34.2232C57.5008 33.7706 57.3454 33.4025 57.0347 33.1188C56.7307 32.8351 56.3389 32.6932 55.8593 32.6932C55.373 32.6932 54.9745 32.8351 54.6637 33.1188C54.3598 33.4025 54.2078 33.7706 54.2078 34.2232C54.2078 34.6825 54.3598 35.0574 54.6637 35.3479C54.9745 35.6316 55.373 35.7734 55.8593 35.7734Z" fill="#9FB1C1"/>
</g>
</svg>
