<svg xmlns="http://www.w3.org/2000/svg" xmlns:xlink="http://www.w3.org/1999/xlink" viewBox="0 0 105 105" xmlns:v="https://vecta.io/nano"><style><![CDATA[.O{clip-path:url(#D)}.P{opacity:.4}.Q{fill:#bbd6ff}.R{fill:#e3eeff}.S{fill:#8fadc8}]]></style><defs><filter id="A" filterUnits="userSpaceOnUse" x="0" y="0" width="105" height="105"><feColorMatrix values="1 0 0 0 0  0 1 0 0 0  0 0 1 0 0  0 0 0 1 0"/></filter></defs><mask maskUnits="userSpaceOnUse" x="0" y="0" width="105" height="105" id="B"><g filter="url(#A)"><path d="M0 0h105v105H0z" fill="#c4c4c4"/></g></mask><g mask="url(#B)"><defs><path id="C" d="M0 0h105v105H0z"/></defs><clipPath id="D"><use xlink:href="#C"/></clipPath><path d="M7.15 89.61l.38-74.84c.01-1.1.31-2.16.84-2.94s1.25-1.23 2.01-1.24l14.11-.15c.37 0 .74.11 1.08.31s.65.51.91.9c.26.38.47.84.6 1.34.14.5.21 1.04.2 1.58l-.06 10.39-10.55.14c-.19 0-.37.11-.51.31-.13.2-.21.46-.21.74l-.01 2.08a1.6 1.6 0 0 0 .05.39c.03.13.09.24.15.33.07.1.14.17.23.22a.56.56 0 0 0 .27.08l10.56-.11-.04 8.31-4.93.05c-.19 0-.37.11-.51.31-.13.2-.21.46-.21.74l-.01 2.08a1.6 1.6 0 0 0 .05.39 1.17 1.17 0 0 0 .15.34c.07.1.14.17.23.22a.56.56 0 0 0 .27.08l4.94-.06-.04 8.31-10.58.11c-.19 0-.37.11-.51.31s-.21.46-.21.74l-.01 2.08a1.6 1.6 0 0 0 .05.39c.03.13.09.24.15.33.07.1.14.17.23.22a.56.56 0 0 0 .27.08l10.58-.12-.05 8.31-4.93.07c-.19 0-.37.11-.51.31-.13.2-.21.46-.21.74l-.01 2.08a1.6 1.6 0 0 0 .05.39 1.17 1.17 0 0 0 .15.34c.07.1.14.17.23.22a.56.56 0 0 0 .27.08l4.93-.06-.04 8.31-10.55.12c-.19 0-.37.11-.51.31-.13.2-.21.46-.21.74l-.01 2.08a1.6 1.6 0 0 0 .05.39 1.17 1.17 0 0 0 .15.34c.06.1.14.17.23.22a.56.56 0 0 0 .27.08L26.96 79l-.06 10.4c-.01 1.1-.31 2.16-.84 2.94s-1.25 1.23-2.01 1.24l-14.1.16c-.37 0-.74-.1-1.08-.3-.34-.21-.65-.51-.92-.89-.26-.38-.47-.84-.61-1.34-.13-.52-.2-1.06-.19-1.6z" class="O P Q"/><path d="M26.85 66.53l.02-4.16-4.93.07c-.19 0-.37.11-.51.31-.13.2-.21.46-.21.74l-.01 2.08a1.6 1.6 0 0 0 .05.39c.03.12.09.24.15.34.07.1.14.17.23.22a.56.56 0 0 0 .27.08l4.94-.07zM16.21 79.12l10.58-.11.02-4.16-10.57.12c-.19 0-.37.11-.51.31-.13.2-.21.46-.21.74l-.01 2.08a1.6 1.6 0 0 0 .05.39 1.17 1.17 0 0 0 .15.34c.06.1.14.17.23.22.08.04.18.07.27.07h0zM26.98 41.6l.02-4.15-4.93.05c-.19 0-.37.11-.51.31-.13.2-.21.46-.21.74l-.01 2.08a1.6 1.6 0 0 0 .05.39 1.17 1.17 0 0 0 .15.34c.07.1.14.17.23.22a.56.56 0 0 0 .27.08l4.94-.06zm-.06 12.46l.02-4.14-10.58.11c-.19 0-.37.11-.51.31-.13.2-.21.46-.21.74l-.01 2.08a1.6 1.6 0 0 0 .05.39c.03.13.09.24.15.33a.69.69 0 0 0 .23.22.56.56 0 0 0 .27.08l10.59-.12zm.12-24.92l.02-4.17-10.56.13c-.19 0-.37.11-.51.31s-.21.46-.21.74l-.01 2.08a1.6 1.6 0 0 0 .05.39 1.11 1.11 0 0 0 .15.33c.07.1.14.17.23.22a.56.56 0 0 0 .27.08l10.57-.11z" class="O Q"/><path d="M39.77 21.59h-6.12L35 23.08c.09.1.15.24.15.38s-.05.28-.15.38l-.35.38a.61.61 0 0 1-.16.12c-.06.03-.13.04-.19.04s-.13-.01-.19-.04a.48.48 0 0 1-.16-.12l-2.8-3.07c-.09-.1-.15-.24-.15-.38s.05-.28.15-.38l2.8-3.07a.61.61 0 0 1 .16-.12c.06-.03.13-.04.19-.04.07 0 .13.01.19.04a.48.48 0 0 1 .16.12l.35.39c.09.1.15.24.15.38s-.05.28-.15.38l-1.36 1.48h6.12a.48.48 0 0 1 .35.16c.09.1.15.24.15.38v.54c0 .14-.05.28-.15.38-.08.13-.21.18-.34.18z" class="O S"/><path d="M102.13 59.36c-.58-.09-1.12-.14-1.71-.09l-.9.08c-1.7-2.14-3.54-4.23-5.76-5.85-2.14-1.56-4.76-2.67-7.21-3.61-2.82-1.09-5.76-1.56-8.75-1.87l-4.34-.44c-.36-.03-1.46-.16-2.22-.06l-.08-.22a1.97 1.97 0 0 0-.42-.54c-.3-.29-.58-.56-.98-.32-.33.21-.35.97-.39 1.28l-.17 1.32c0 .01-.02.08-.04.16-3.88 1.17-7.55 3.54-11.01 5.51a114.56 114.56 0 0 0-11.63 7.62c-3.55 2.64-6.86 5.44-9.89 8.66-.64.68-2.54 2.32-3.09 3.06-.63.86-2.87.55-3.36 1.49-.41.79 2.7.84 3.52 1.25.83.4 2.37 3.2 3.02 3.86 3.29 3.34 6.77 6.11 10.94 8.31 3.79 1.99 8.02 3.47 12.32 3.72 1.58.09 3.29.09 4.83-.33.53-.15.63-.19 1 .36.4.59 1.13 1 1.79 1.25 1.5.56 1.2-1.92.97-2.83 1.11-.61 2.18-1.3 3.29-1.88 1.81-.93 3.48-2.14 5.17-3.27 3.52-2.34 6.89-4.71 10.18-7.36 3.07-2.47 5.85-5.79 8.19-8.95 1.11-1.5 2.25-3 3.19-4.62.65-1.13 1.34-2.13 1.82-3.29.33-.09.69-.12.98-.2.53-.15 1.03-.33 1.52-.56.29-.13.95-.42.95-.84.01-.69-1.32-.75-1.73-.8z" class="O R"/><g class="O"><defs><path id="E" d="M102.13 59.36c-.58-.09-1.12-.14-1.71-.09l-.9.08c-1.7-2.14-3.54-4.23-5.76-5.85-2.14-1.56-4.76-2.67-7.21-3.61-2.82-1.09-5.76-1.56-8.75-1.87l-4.34-.44c-.36-.03-1.46-.16-2.22-.06l-.08-.22a1.97 1.97 0 0 0-.42-.54c-.3-.29-.58-.56-.98-.32-.33.21-.35.97-.39 1.28l-.17 1.32c0 .01-.02.08-.04.16-3.88 1.17-7.55 3.54-11.01 5.51a114.56 114.56 0 0 0-11.63 7.62c-3.55 2.64-6.86 5.44-9.89 8.66-.64.68-2.54 2.32-3.09 3.06-.63.86-2.87.55-3.36 1.49-.41.79 2.7.84 3.52 1.25.83.4 2.37 3.2 3.02 3.86 3.29 3.34 6.77 6.11 10.94 8.31 3.79 1.99 8.02 3.47 12.32 3.72 1.58.09 3.29.09 4.83-.33.53-.15.63-.19 1 .36.4.59 1.13 1 1.79 1.25 1.5.56 1.2-1.92.97-2.83 1.11-.61 2.18-1.3 3.29-1.88 1.81-.93 3.48-2.14 5.17-3.27 3.52-2.34 6.89-4.71 10.18-7.36 3.07-2.47 5.85-5.79 8.19-8.95 1.11-1.5 2.25-3 3.19-4.62.65-1.13 1.34-2.13 1.82-3.29.33-.09.69-.12.98-.2.53-.15 1.03-.33 1.52-.56.29-.13.95-.42.95-.84.01-.69-1.32-.75-1.73-.8z"/></defs><clipPath id="F"><use xlink:href="#E"/></clipPath><path d="M104.86 60.16c.01-.56-.28-.97-.6-1.21-.28-.22-.61-.33-.85-.4-.47-.13-1.05-.17-1.15-.19l-.26 1.99.22.03.23.03a3.91 3.91 0 0 1 .44.08c.14.04.17.07.15.05-.02-.01-.07-.06-.11-.14a.58.58 0 0 1-.07-.28l2 .04zm-1.53 1.72c.12-.06.45-.2.74-.4.23-.16.8-.6.8-1.35h-2c0-.18.07-.29.1-.32.02-.02.02-.01-.04.03l-.2.11-.23.11.83 1.82zm-1.68.62c.58-.16 1.13-.36 1.68-.61l-.84-1.81c-.44.2-.89.37-1.37.5l.53 1.92zm-1.01.2c.12-.03.25-.05.43-.08l.58-.12-.54-1.93c-.09.03-.21.05-.38.08l-.56.11.47 1.94zm.75-.96a.98.98 0 0 1-.18.57c-.11.15-.23.24-.26.26-.02.01-.03.02-.03.02s.01-.01.03-.02c.04-.02.1-.07.16-.13l-1.41-1.41c.06-.06.11-.1.15-.12.01-.01.01-.01.02-.01s0 .01-.02.02c-.03.02-.16.1-.27.26a.99.99 0 0 0-.18.58h1.99zm-1.95 3.79c.61-1.05 1.36-2.17 1.88-3.4l-1.85-.77c-.45 1.07-1.06 1.96-1.76 3.17l1.73 1zm-3.25 4.72l3.25-4.72-1.73-1c-.91 1.56-2 3.01-3.13 4.53l1.61 1.19zm-8.36 9.13c3.17-2.55 6.01-5.94 8.36-9.13l-1.61-1.19c-2.32 3.14-5.04 6.37-8.01 8.76l1.26 1.56zm-10.25 7.41c3.53-2.35 6.93-4.74 10.25-7.41l-1.25-1.56c-3.26 2.62-6.6 4.98-10.11 7.31l1.11 1.66zm-5.27 3.33c1.88-.97 3.62-2.23 5.27-3.33l-1.11-1.66c-1.74 1.16-3.33 2.32-5.08 3.22l.92 1.77zm-3.27 1.87c.57-.31 1.13-.65 1.67-.97.55-.32 1.07-.63 1.6-.9l-.92-1.78a31.09 31.09 0 0 0-1.7.96c-.55.33-1.08.64-1.62.93l.97 1.76zm-1.81 2.89c.61.23 1.31.22 1.85-.29.44-.41.57-.99.62-1.39.11-.84-.05-1.82-.18-2.33l-1.94.47c.1.4.2 1.12.14 1.6-.03.27-.09.26-.01.18.06-.06.15-.1.23-.11.07-.01.07.01-.01-.02l-.7 1.89zm-2.26-1.62c.58.85 1.55 1.34 2.26 1.62l.72-1.87c-.6-.23-1.09-.54-1.32-.88l-1.66 1.13zm.09.05c.07-.02.12-.03.16-.04s.06-.02.07-.02c.02 0-.08.02-.22-.02a.54.54 0 0 1-.17-.08c-.04-.03-.06-.05-.07-.05 0 0 .01 0 .03.03s.05.07.09.13l1.66-1.11c-.16-.23-.45-.69-.99-.84-.28-.08-.52-.05-.68-.02-.15.03-.31.07-.42.1l.54 1.92zm-5.15.36c1.6.09 3.45.1 5.16-.37l-.53-1.93c-1.37.38-2.95.39-4.51.3l-.12 2zm-12.73-3.83c3.88 2.03 8.24 3.58 12.72 3.84l.12-2c-4.11-.24-8.2-1.66-11.91-3.61l-.93 1.77zM36 81.35c3.35 3.4 6.9 6.24 11.18 8.49l.93-1.77c-4.06-2.14-7.45-4.84-10.69-8.12L36 81.35zm-2.75-3.67c-.01 0 .12.08.4.42.24.29.51.67.79 1.08l.82 1.2c.24.35.51.72.74.96l1.43-1.4c-.09-.1-.26-.32-.52-.7-.28-.4-.49-.72-.81-1.2-.29-.42-.6-.86-.9-1.22-.27-.32-.64-.74-1.06-.94l-.89 1.8zm-3.97-2.61c-.2.38-.22.84.03 1.25.19.32.49.49.67.58.38.19.88.3 1.29.38.4.08.95.17 1.28.23l.48.1c.06.02.12.03.15.04.02.01.03.01.04.02l.89-1.78c-.35-.17-.84-.27-1.21-.34-.47-.09-.83-.14-1.26-.22-.42-.08-.67-.16-.79-.21-.07-.03.05 0 .15.17.15.25.13.54.03.72l-1.75-.94zm3.44-1.62c.02-.03-.01.03-.25.11-.23.08-.51.14-.89.22-.34.07-.77.16-1.15.32-.38.15-.87.43-1.16.97l1.78.93c-.04.07-.06.03.13-.05s.45-.14.82-.22c.32-.07.75-.15 1.13-.29.37-.13.86-.36 1.2-.81l-1.61-1.18zm3.17-3.15c-.29.31-.88.85-1.54 1.46-.6.56-1.29 1.23-1.63 1.69l1.61 1.19c.21-.28.74-.81 1.39-1.42l1.62-1.55-1.45-1.37zm10.03-8.78c-3.58 2.66-6.95 5.51-10.02 8.78l1.46 1.37c2.98-3.16 6.24-5.93 9.76-8.54l-1.2-1.61zm11.72-7.68c-4.07 2.32-7.98 4.9-11.73 7.68l1.19 1.61c3.69-2.74 7.53-5.27 11.53-7.55l-.99-1.74zm11.22-5.61c-4.02 1.21-7.83 3.67-11.21 5.6l.99 1.74c3.53-2.02 7.06-4.3 10.8-5.42l-.58-1.92zm-.67.8v-.12c0-.03.01-.04.01-.06s.01-.04.01-.04c-.01.02-.02.08-.04.13l1.94.49c.01-.02.01-.05.02-.08 0-.01.01-.04.02-.06 0-.01.01-.04.01-.07 0-.02.01-.04.01-.07 0-.02.01-.07.01-.13h-1.99zm.18-1.44c-.06.5-.09.86-.16 1.25l1.96.37c.09-.48.14-1 .18-1.38l-1.98-.24zm.84-2c-.31.2-.47.47-.56.67a2.54 2.54 0 0 0-.18.58c-.06.28-.09.71-.1.74l1.98.27c.01-.06.01-.12.02-.17.01-.06.01-.1.02-.16.01-.11.02-.2.04-.29.01-.04.02-.07.02-.1 0-.01.01-.02.01-.03l-.04.04a.52.52 0 0 1-.15.13l-1.06-1.68zm2.22.45c-.12-.12-.39-.39-.73-.55-.2-.09-.44-.16-.72-.15s-.53.11-.75.24l1.05 1.7c-.02.01-.09.05-.2.05-.11.01-.19-.02-.22-.04-.03-.01-.03-.02.01.01s.09.08.17.16l1.39-1.42zm.61.79c-.17-.33-.4-.59-.61-.8l-1.38 1.44c.12.11.18.2.22.27l1.77-.91zm.14.33c0-.01-.01-.02-.01-.04-.01-.02-.01-.04-.02-.07-.02-.05-.05-.15-.11-.25l-1.75.97c-.01-.02-.02-.04-.02-.05 0 .01.01.02.01.04.01.02.02.05.03.08l1.87-.68zm1.37-.59c-.3-.03-1.55-.17-2.45-.06l.25 1.98c.62-.08 1.59.03 2 .07l.2-1.99zm4.35.44l-4.34-.44-.2 1.99 4.34.44.2-1.99zm9.01 1.94c-2.94-1.13-5.99-1.62-9.01-1.93L77.7 49c2.96.31 5.8.77 8.5 1.81l.71-1.86zm7.44 3.74c-2.25-1.64-4.98-2.79-7.44-3.74l-.72 1.87c2.45.95 4.96 2.01 6.98 3.49l1.18-1.62zm5.96 6.03c-1.71-2.16-3.63-4.34-5.95-6.03l-1.18 1.62c2.1 1.53 3.88 3.54 5.56 5.66l1.57-1.25zm.04-.45c-.15.01-.57.03-.97.08l.28 1.98c.3-.04.59-.05.83-.07l-.14-1.99zm1.94.1c-.62-.1-1.25-.16-1.95-.1l.16 1.99c.48-.04.93 0 1.48.08l.31-1.97zm1.57 1.77l-1-.02v.02h1zm-.95.84l-.42-.91.42.91zm-1.53.55l-.27-.96.27.96zm-.97.2l-.23-.97-.27.07-.2.2.7.7zm-.02.01l.92.38.08-.18v-.2h-1zm-1.81 3.29l-.86-.5.86.5zm-3.19 4.62l-.8-.6.8.6zM87.2 78.6l.63.78-.63-.78zm-10.18 7.36l-.55-.83.55.83zm-5.17 3.27l-.46-.89.46.89zm-3.29 1.88l-.48-.88-.68.37.18.75.98-.24zm-.98 2.83l-.36.93h.01l.35-.93zm-1.79-1.24l-.83.55.01.01.82-.56zm-.99-.36l.27.96-.27-.96zm-4.84.34l-.06 1 .06-1zm-12.31-3.73l-.47.89.47-.89zm-10.94-8.3l-.71.7.71-.7zm-3.02-3.87l-.44.9.44-.9zm-3.52-1.24l-.89-.47.89.47zm3.36-1.49l.8.59-.8-.59zm3.09-3.07l-.73-.69.73.69zm9.89-8.66l.6.8-.6-.8zm11.63-7.62l.5.87-.5-.87zm11.01-5.51l.29.96.54-.16.14-.55-.97-.25zm.04-.16l-.98-.19-.02.09v.09h1zm.17-1.32l-.99-.14v.01l.99.13zm.39-1.28l-.52-.85h-.02l.54.85zm.98.32l-.7.72.01.01.69-.73zm.42.54l-.89.46.02.02.87-.48zm.09.22l-.94.34.27.75.79-.1-.12-.99zm2.22.06l.1-.99-.1.99zm4.34.44l.1-.99-.1.99zm8.75 1.87l.36-.93-.36.93zm7.22 3.61l-.59.81.59-.81zm5.75 5.85l-.78.62.36.45.57-.08-.15-.99zm.9-.08l.07 1h.01l-.08-1zm1.71.1l-.15.99h.02l.13-.99z" clip-path="url(#F)" class="S"/><path d="M65.26 92.11c.26 0 .43.17.65.51.44.64 1.27 1.02 1.73 1.19.13.05.24.07.35.07.16 0 .29-.06.39-.19.38-.49.24-1.83.06-2.56l-.02-.1.09-.05 1.43-.82 1.87-1.06c1.43-.74 2.78-1.66 4.11-2.56l1.05-.71c4.11-2.74 7.25-5.01 10.16-7.35 2.59-2.08 5.26-5 8.17-8.92l.32-.43c1-1.34 2.02-2.72 2.86-4.18l.52-.86c.49-.8.94-1.56 1.29-2.41l.06-.08.05-.01.47-.09c.18-.03.35-.06.5-.1.54-.15 1.03-.33 1.5-.55l.03-.02c.25-.12.84-.39.84-.7.01-.46-.95-.57-1.41-.62a5.28 5.28 0 0 1-.21-.03c-.68-.1-1.14-.13-1.68-.09l-.15.01c-.2.01-.47.03-.74.07l-.08.01-.05-.06c-1.54-1.94-3.43-4.14-5.73-5.82-2.13-1.55-4.71-2.65-7.19-3.6-3.01-1.16-6.1-1.59-8.72-1.87l-3.4-.34-1.04-.1c-.42-.04-1.52-.13-2.1-.06l-.11.01-.03-.1a.84.84 0 0 0-.07-.19 2.13 2.13 0 0 0-.39-.5c-.19-.19-.38-.38-.58-.38-.08 0-.15.02-.24.08-.22.14-.28.71-.31 1.02-.01.06-.01.12-.02.17-.01.13-.03.26-.04.38-.03.31-.07.63-.13.94 0 .01-.01.03-.01.07l-.04.17-.07.02c-3.2.97-6.24 2.74-9.18 4.46l-1.8 1.04c-3.94 2.25-7.85 4.81-11.61 7.61-3.88 2.89-7.12 5.72-9.88 8.64-.24.26-.67.65-1.11 1.07-.77.72-1.64 1.52-1.97 1.98-.33.45-1.05.6-1.74.74-.68.15-1.39.29-1.62.72-.03.06-.02.1-.01.13.14.28 1.18.45 1.95.58.63.1 1.22.21 1.52.36.54.26 1.34 1.44 2.03 2.47.4.6.79 1.17 1.02 1.41 3.56 3.61 7.03 6.25 10.91 8.28 4.26 2.23 8.39 3.49 12.27 3.71a25.7 25.7 0 0 0 1.43.05c1.32.01 2.41-.12 3.36-.38.21-.05.36-.08.49-.08zm2.72 2.03c-.13 0-.28-.03-.44-.09-.49-.18-1.37-.59-1.85-1.29-.23-.33-.32-.39-.44-.39-.09 0-.22.03-.39.08-.99.27-2.11.4-3.45.39-.45 0-.92-.02-1.45-.05-3.91-.23-8.08-1.49-12.37-3.75-3.91-2.05-7.39-4.69-10.97-8.33-.26-.26-.63-.81-1.06-1.45-.65-.96-1.45-2.15-1.93-2.39-.28-.13-.85-.24-1.46-.33-1.18-.2-1.96-.36-2.14-.73a.38.38 0 0 1 .01-.36c.29-.54 1.05-.7 1.79-.86.64-.13 1.3-.27 1.58-.65.36-.48 1.23-1.29 2.01-2.02.45-.41.86-.81 1.1-1.06 2.78-2.94 6.02-5.78 9.91-8.67 3.77-2.81 7.69-5.37 11.64-7.63l1.8-1.04c2.93-1.71 5.96-3.48 9.16-4.46l.02-.08c.06-.3.1-.62.13-.92.01-.13.03-.26.05-.38-.01-.03-.01-.08 0-.15.04-.4.1-1 .43-1.21.13-.08.25-.12.38-.12.31 0 .54.23.77.45a2.19 2.19 0 0 1 .44.57c.02.04.04.09.06.13.17-.01.38-.03.6-.03.57 0 1.17.06 1.46.09l1.04.1 3.4.34c2.64.27 5.74.71 8.79 1.88 2.49.95 5.09 2.06 7.25 3.63 2.3 1.68 4.19 3.88 5.73 5.81.25-.03.5-.05.68-.06l.15-.01c.56-.04 1.04-.01 1.75.09.06.01.12.01.2.03.58.06 1.65.19 1.65.88-.01.49-.65.78-1 .94l-.03.02c-.49.22-.99.41-1.55.56a3.1 3.1 0 0 1-.53.1c-.13.02-.26.04-.39.07-.36.84-.81 1.59-1.29 2.4l-.52.86c-.85 1.47-1.89 2.86-2.88 4.21l-.32.43c-2.92 3.94-5.6 6.87-8.21 8.97-2.93 2.35-6.07 4.62-10.19 7.37l-1.05.71c-1.32.9-2.69 1.82-4.14 2.57-.63.33-1.25.7-1.86 1.05l-1.34.78c.17.73.33 2.1-.14 2.69-.14.22-.34.31-.59.31z" class="Q"/><path d="M90.76 58.45c-.86 2.86-2.97 5.12-5.05 7.18-2.41 2.38-4.76 4.82-7.39 6.96-5.72 4.61-12.61 8.06-19.95 9.04-6.47.86-14.42-1.04-18.95-6.05-.77-.85-1.87-2.02-1.5-3.29.38-1.31 1.2-2.26 2.19-3.15a95.61 95.61 0 0 1 8.85-7.08c1.46-1.04 2.96-2.01 4.48-2.94 2.35-1.75 4.8-3.37 7.34-4.81 2.92-1.65 5.96-3.12 9.11-4.3 3.2-1.2 6.25-1.36 9.56-.45 3.06.84 5.84 2.27 8.49 4 1.67 1.07 3.5 2.66 2.82 4.89zm11.37.91c-.58-.09-1.12-.14-1.71-.09a10.41 10.41 0 0 0-.9.08c-1.7-2.14-3.54-4.23-5.76-5.85-2.14-1.56-4.76-2.67-7.21-3.61-2.82-1.09-5.76-1.56-8.75-1.87l-4.34-.44c-.36-.03-1.46-.16-2.22-.06-.03-.08-.05-.15-.08-.22a1.97 1.97 0 0 0-.42-.54c-.3-.29-.58-.56-.98-.32-.33.21-.35.97-.39 1.28-.06.44-.09.88-.17 1.32 0 .01-.02.08-.04.16-3.88 1.17-7.55 3.54-11.01 5.51a114.56 114.56 0 0 0-11.63 7.62c-3.55 2.64-6.86 5.44-9.89 8.66-.64.68-2.54 2.32-3.09 3.06-.63.86-2.87.55-3.36 1.49-.41.79 2.7.84 3.52 1.25.83.4 2.37 3.2 3.02 3.86 3.29 3.34 6.77 6.11 10.94 8.31 3.79 1.99 8.02 3.47 12.32 3.72 1.58.09 3.29.09 4.83-.33.53-.15.63-.19 1 .36.4.59 1.13 1 1.79 1.25 1.5.56 1.2-1.92.97-2.83 1.11-.61 2.18-1.3 3.29-1.88 1.81-.93 3.48-2.14 5.17-3.27 3.52-2.34 6.89-4.71 10.18-7.36 3.07-2.47 5.85-5.79 8.19-8.95 1.11-1.5 2.25-3 3.19-4.62.65-1.13 1.34-2.13 1.82-3.29.33-.09.69-.12.98-.2.53-.15 1.03-.33 1.52-.56.29-.13.95-.42.95-.84.01-.69-1.32-.75-1.73-.8z" class="P R"/><path d="M102.13 59.36c-.58-.09-1.12-.14-1.71-.09l-.9.08c-1.7-2.14-3.54-4.23-5.76-5.85-.42-.31-.86-.58-1.31-.86 1.41 1.78 2.47 3.77 2.83 6.14.17 1.16.88 3.16-.61 3.79-.71.31-1.46.44-2.23.52 1.13.17 2.22.48 3.08 1.3.11.1.09.26 0 .38C88 73.76 78.71 80.94 68.64 86.85c-.19.11-.38-.03-.4-.23-.08-.74.06-3.24-.38-4.78-.07.63-.13 1.27-.24 1.89-.15.86-.31 2.23-1 2.87-1.37 1.25-3.71-.17-5.49-.71 1.58 1.22 3.18 2.4 4.54 3.88.13.15.08.38-.12.44-3.29.95-6.96.29-10.15-.76-3.46-1.14-7.04-2.56-10.19-4.39-3.18-1.85-6.33-4.39-8.53-7.37-.85-1.16-1.63-2.4-1.39-3.9.13-.81.42-1.57.78-2.3-.84.79-2.12 1.95-2.56 2.54-.63.86-2.87.55-3.36 1.49-.41.79 2.7.84 3.52 1.25.83.4 2.37 3.2 3.02 3.86 3.29 3.34 6.77 6.11 10.94 8.31 3.79 1.99 8.02 3.47 12.32 3.72 1.58.09 3.29.09 4.83-.33.53-.15.63-.19 1 .36.4.59 1.13 1 1.79 1.25 1.5.56 1.2-1.92.97-2.83 1.11-.61 2.18-1.3 3.29-1.88 1.81-.93 3.48-2.14 5.17-3.27 3.52-2.34 6.89-4.71 10.18-7.36 3.07-2.47 5.85-5.79 8.19-8.95 1.11-1.5 2.25-3 3.19-4.62.65-1.13 1.34-2.13 1.82-3.29.33-.09.69-.12.98-.2.53-.15 1.03-.33 1.52-.56.29-.13.95-.42.95-.84.04-.67-1.29-.73-1.7-.78z" class="P Q"/><path d="M66.04 91.28c-6.97 1.34-14.79-1.78-20.64-5.45-2.6-1.64-4.9-3.33-7.09-5.52-1.96-1.96-3.2-4.6-6.21-4.8-.05 0-.14.12-.08.13 3.19.61 5.05 4 7.3 6.12 2.39 2.26 5.2 4.11 8.13 5.58 5.55 2.76 12.16 5.77 18.47 4.21.09-.02.26-.29.12-.27zm32.65-28.2c-1.72 3.31-4.33 6.2-6.88 8.89-2.34 2.47-4.7 4.66-7.36 6.79-4.87 3.91-10.05 7.4-15.14 11.01-.1.08-.2.39 0 .24 5.8-4.1 11.82-7.99 17.28-12.56 2.51-2.1 4.94-4.43 6.96-7.02 1.9-2.43 3.98-4.5 5.24-7.38.04-.09-.07-.02-.1.03zm-27.5-12.57S59.33 54.7 46.84 64.32s-7.25 9.17-3.63 12.82c0 0-2.31-2.33-1.57-4.77s4.66-6.01 9.71-9.56 14.2-10.07 19.84-12.3z" class="P R"/><path d="M102.13 48.91c-.58-.09-1.12-.14-1.71-.09l-.9.08c-1.7-2.14-3.54-4.23-5.76-5.85-2.14-1.56-4.76-2.67-7.21-3.61-2.82-1.09-5.76-1.56-8.75-1.87l-4.34-.44c-.36-.03-1.46-.16-2.22-.06l-.08-.22a1.97 1.97 0 0 0-.42-.54c-.3-.29-.58-.56-.98-.32-.33.21-.35.97-.39 1.28l-.17 1.32c0 .01-.02.08-.04.16-3.88 1.17-7.55 3.54-11.01 5.51a114.56 114.56 0 0 0-11.63 7.62c-3.55 2.64-6.86 5.44-9.89 8.66-.64.68-2.54 2.32-3.09 3.06-.63.86-2.87.55-3.36 1.49-.41.79 2.7.84 3.52 1.25.83.4 2.37 3.2 3.02 3.86 3.29 3.34 6.77 6.11 10.94 8.31 3.79 1.99 8.02 3.47 12.32 3.72 1.58.09 3.29.09 4.83-.33.53-.15.63-.19 1 .36.4.59 1.13 1 1.79 1.25 1.5.56 1.2-1.92.97-2.83 1.11-.61 2.18-1.3 3.29-1.88 1.81-.93 3.48-2.14 5.17-3.27 3.52-2.34 6.89-4.71 10.18-7.36 3.07-2.47 5.85-5.79 8.19-8.95 1.11-1.5 2.25-3 3.19-4.62.65-1.13 1.34-2.13 1.82-3.29.33-.09.69-.12.98-.2.53-.15 1.03-.33 1.52-.56.29-.13.95-.42.95-.84.01-.69-1.32-.74-1.73-.8z" class="R"/><defs><path id="G" d="M102.13 48.91c-.58-.09-1.12-.14-1.71-.09l-.9.08c-1.7-2.14-3.54-4.23-5.76-5.85-2.14-1.56-4.76-2.67-7.21-3.61-2.82-1.09-5.76-1.56-8.75-1.87l-4.34-.44c-.36-.03-1.46-.16-2.22-.06l-.08-.22a1.97 1.97 0 0 0-.42-.54c-.3-.29-.58-.56-.98-.32-.33.21-.35.97-.39 1.28l-.17 1.32c0 .01-.02.08-.04.16-3.88 1.17-7.55 3.54-11.01 5.51a114.56 114.56 0 0 0-11.63 7.62c-3.55 2.64-6.86 5.44-9.89 8.66-.64.68-2.54 2.32-3.09 3.06-.63.86-2.87.55-3.36 1.49-.41.79 2.7.84 3.52 1.25.83.4 2.37 3.2 3.02 3.86 3.29 3.34 6.77 6.11 10.94 8.31 3.79 1.99 8.02 3.47 12.32 3.72 1.58.09 3.29.09 4.83-.33.53-.15.63-.19 1 .36.4.59 1.13 1 1.79 1.25 1.5.56 1.2-1.92.97-2.83 1.11-.61 2.18-1.3 3.29-1.88 1.81-.93 3.48-2.14 5.17-3.27 3.52-2.34 6.89-4.71 10.18-7.36 3.07-2.47 5.85-5.79 8.19-8.95 1.11-1.5 2.25-3 3.19-4.62.65-1.13 1.34-2.13 1.82-3.29.33-.09.69-.12.98-.2.53-.15 1.03-.33 1.52-.56.29-.13.95-.42.95-.84.01-.69-1.32-.74-1.73-.8z"/></defs><clipPath id="H"><use xlink:href="#G"/></clipPath><path d="M104.86 49.71c.01-.56-.28-.97-.6-1.21-.28-.22-.61-.33-.85-.4-.47-.13-1.05-.17-1.15-.19L102 49.9l.22.03.23.03a3.91 3.91 0 0 1 .44.08c.14.04.17.07.15.05-.02-.01-.07-.06-.11-.14a.58.58 0 0 1-.07-.28l2 .04zm-1.53 1.73c.12-.06.45-.2.74-.4.23-.16.8-.6.8-1.35h-2c0-.18.07-.29.1-.32.02-.02.02-.01-.04.03l-.2.11-.23.11.83 1.82zm-1.68.61c.58-.16 1.13-.36 1.68-.61l-.84-1.81c-.44.2-.89.37-1.37.5l.53 1.92zm-1.01.21c.12-.03.25-.05.43-.08l.58-.12-.54-1.93c-.09.03-.21.05-.38.08l-.56.11.47 1.94zm.75-.96a.98.98 0 0 1-.18.57c-.11.15-.23.24-.26.26-.02.01-.03.02-.03.02s.01-.01.03-.02c.04-.02.1-.07.16-.13l-1.41-1.41c.06-.06.11-.1.15-.12.01-.01.01-.01.02-.01s0 .01-.02.02c-.03.02-.16.1-.27.26a.99.99 0 0 0-.18.58h1.99zm-1.95 3.79c.61-1.05 1.36-2.17 1.88-3.4l-1.85-.77c-.45 1.07-1.06 1.96-1.76 3.17l1.73 1zm-3.25 4.71l3.25-4.72-1.73-1c-.91 1.56-2 3.01-3.13 4.53l1.61 1.19zm-8.36 9.13c3.17-2.55 6.01-5.94 8.36-9.13l-1.61-1.19c-2.32 3.14-5.04 6.37-8.01 8.76l1.26 1.56zm-10.25 7.42c3.53-2.35 6.93-4.74 10.25-7.41l-1.25-1.56c-3.26 2.62-6.6 4.98-10.11 7.31l1.11 1.66zm-5.27 3.33c1.88-.97 3.62-2.23 5.27-3.33l-1.11-1.66c-1.74 1.16-3.33 2.32-5.08 3.22l.92 1.77zm-3.27 1.86c.57-.31 1.13-.65 1.67-.97.55-.32 1.07-.63 1.6-.9l-.92-1.78a31.09 31.09 0 0 0-1.7.96c-.55.33-1.08.64-1.62.93l.97 1.76zm-1.81 2.9c.61.23 1.31.22 1.85-.29.44-.41.57-.99.62-1.39.11-.84-.05-1.82-.18-2.33l-1.94.47c.1.4.2 1.12.14 1.6-.03.27-.09.26-.01.18.06-.06.15-.1.23-.11.07-.01.07.01-.01-.02l-.7 1.89zm-2.26-1.62c.58.85 1.55 1.34 2.26 1.62l.72-1.87c-.6-.23-1.09-.54-1.32-.88l-1.66 1.13zm.09.04c.07-.02.12-.03.16-.04s.06-.02.07-.02c.02 0-.08.02-.22-.02a.54.54 0 0 1-.17-.08c-.04-.03-.06-.05-.07-.05 0 0 .01 0 .03.03s.05.07.09.13l1.66-1.11c-.16-.23-.45-.69-.99-.84-.28-.08-.52-.05-.68-.02-.15.03-.31.07-.42.1l.54 1.92zm-5.15.37c1.6.09 3.45.1 5.16-.37l-.53-1.93c-1.37.38-2.95.39-4.51.3l-.12 2zm-12.73-3.84c3.88 2.03 8.24 3.58 12.72 3.84l.12-2c-4.11-.24-8.2-1.66-11.91-3.61l-.93 1.77zM36 70.9c3.35 3.4 6.9 6.24 11.18 8.49l.93-1.77c-4.06-2.14-7.45-4.84-10.69-8.12L36 70.9zm-2.75-3.66c-.01 0 .12.08.4.42.24.29.51.67.79 1.08l.82 1.2c.24.35.51.72.74.96l1.43-1.4c-.09-.1-.26-.32-.52-.7-.28-.4-.49-.72-.81-1.2-.29-.42-.6-.86-.9-1.22-.27-.32-.64-.74-1.06-.94l-.89 1.8zm-3.97-2.61c-.2.38-.22.84.03 1.25.19.32.49.49.67.58.38.19.88.3 1.29.38.4.08.95.17 1.28.23l.48.1c.06.02.12.03.15.04.02.01.03.01.04.02l.89-1.78c-.35-.17-.84-.27-1.21-.34-.47-.09-.83-.14-1.26-.22-.42-.08-.67-.16-.79-.21-.07-.03.05 0 .15.17.15.25.13.54.03.72l-1.75-.94zm3.44-1.62c.02-.03-.01.03-.25.11-.23.08-.51.14-.89.22-.34.07-.77.16-1.15.32-.38.15-.87.43-1.16.97l1.77.93c-.04.07-.06.03.13-.05s.45-.14.82-.22c.32-.07.75-.15 1.13-.29.37-.13.86-.36 1.2-.81l-1.6-1.18zm3.17-3.16c-.29.31-.88.85-1.54 1.46-.6.56-1.29 1.23-1.63 1.69l1.61 1.19c.21-.28.74-.81 1.39-1.42l1.62-1.55-1.45-1.37zm10.03-8.77c-3.58 2.66-6.95 5.51-10.02 8.78l1.46 1.37c2.98-3.16 6.24-5.93 9.76-8.54l-1.2-1.61zm11.72-7.69c-4.07 2.32-7.98 4.9-11.73 7.68l1.19 1.61c3.69-2.74 7.53-5.27 11.53-7.55l-.99-1.74zm11.22-5.6c-4.02 1.21-7.83 3.67-11.21 5.6l.99 1.74c3.53-2.02 7.06-4.3 10.8-5.42l-.58-1.92zm-.67.8v-.12c0-.03.01-.04.01-.06s.01-.04.01-.04c-.01.02-.02.08-.04.13l1.94.49c.01-.02.01-.05.02-.08 0-.01.01-.04.02-.06 0-.01.01-.04.01-.07 0-.02.01-.04.01-.07 0-.02.01-.07.01-.13h-1.99zm.18-1.44c-.06.5-.09.86-.16 1.25l1.96.37c.09-.48.14-1 .18-1.38l-1.98-.24zm.84-2c-.31.2-.47.47-.56.67a2.54 2.54 0 0 0-.18.58c-.06.28-.09.71-.1.74l1.98.27c.01-.06.01-.12.02-.17.01-.06.01-.1.02-.16.01-.11.02-.2.04-.29.01-.04.02-.07.02-.1 0-.01.01-.02.01-.03l-.04.04a.52.52 0 0 1-.15.13l-1.06-1.68zm2.22.44c-.12-.12-.39-.39-.73-.55-.2-.09-.44-.16-.72-.15s-.53.11-.75.24l1.05 1.7c-.02.01-.09.05-.2.05-.11.01-.19-.02-.22-.04-.03-.01-.03-.02.01.01s.09.08.17.16l1.39-1.42zm.61.8c-.17-.33-.4-.59-.61-.8l-1.38 1.44c.12.11.18.2.22.27l1.77-.91zm.14.33c0-.01-.01-.02-.01-.04-.01-.02-.01-.04-.02-.07-.02-.05-.05-.15-.11-.25l-1.75.97c-.01-.02-.02-.04-.02-.05 0 .01.01.02.01.04.01.02.02.05.03.08l1.87-.68zm1.37-.59c-.3-.03-1.55-.17-2.45-.06l.25 1.98c.62-.08 1.59.03 2 .07l.2-1.99zm4.35.44l-4.34-.44-.2 1.99 4.34.44.2-1.99zm9.01 1.93c-2.94-1.13-5.99-1.62-9.01-1.93l-.21 1.99c2.96.31 5.8.77 8.5 1.81l.72-1.87zm7.44 3.74c-2.25-1.64-4.98-2.79-7.44-3.74l-.72 1.87c2.45.95 4.96 2.01 6.98 3.49l1.18-1.62zm5.96 6.04c-1.71-2.16-3.63-4.34-5.95-6.03l-1.18 1.62c2.1 1.53 3.88 3.54 5.56 5.66l1.57-1.25zm.04-.46c-.15.01-.57.03-.97.08l.28 1.98c.3-.04.59-.05.83-.07l-.14-1.99zm1.94.1c-.62-.1-1.25-.16-1.95-.1l.16 1.99c.48-.04.93 0 1.48.08l.31-1.97zm1.57 1.77l-1-.02v.02h1zm-.95.84l-.42-.91.42.91zm-1.53.56l-.27-.96.27.96zm-.97.2l-.23-.97-.27.07-.2.2.7.7zm-.02.01l.92.38.08-.18v-.2h-1zm-1.81 3.29l-.86-.5.86.5zm-3.19 4.62l-.8-.6.8.6zm-8.19 8.95l.63.78-.63-.78zm-10.18 7.35l-.55-.83.55.83zm-5.17 3.28l-.46-.89.46.89zm-3.29 1.88l-.48-.88-.67.37.18.75.97-.24zm-.98 2.83l-.36.93h.01l.35-.93zm-1.79-1.25l-.83.55.01.01.82-.56zm-.99-.35l.27.96-.27-.96zm-4.84.33l-.06 1 .06-1zm-12.31-3.72l-.47.89.47-.89zM36.71 70.2l-.71.7.71-.7zm-3.02-3.86l-.44.9.44-.9zm-3.52-1.25l-.89-.47.89.47zm3.36-1.49l.8.59-.8-.59zm3.09-3.06l-.73-.69.73.69zm9.89-8.66l.6.8-.6-.8zm11.63-7.62l.5.87-.5-.87zm11.01-5.51l.29.96.54-.16.14-.55-.97-.25zm.04-.16l-.98-.19-.02.09v.09h1zm.17-1.32l-.99-.14v.01l.99.13zm.39-1.28l-.52-.85h-.02l.54.85zm.98.32l-.7.72.01.01.69-.73zm.42.54l-.89.46.02.02.87-.48zm.09.21l-.94.34.27.75.79-.1-.12-.99zm2.22.06l.1-.99-.1.99zm4.34.44l.1-.99-.1.99zm8.75 1.88l.36-.93-.36.93zm7.22 3.61l-.59.81.59-.81zm5.75 5.85l-.78.62.36.45.57-.08-.15-.99zm.9-.08l.07 1h.01l-.08-1zm1.71.09l-.15.99h.02l.13-.99z" clip-path="url(#H)" class="S"/><path d="M65.26 81.66c.26 0 .43.17.65.51.44.64 1.27 1.02 1.73 1.19.13.05.24.07.35.07.16 0 .29-.06.39-.19.38-.49.24-1.83.06-2.56l-.02-.1.09-.05 1.43-.82 1.87-1.06c1.43-.74 2.78-1.66 4.11-2.56l1.05-.71c4.11-2.74 7.25-5.01 10.16-7.35 2.59-2.08 5.26-5 8.17-8.92l.32-.43c1-1.34 2.02-2.72 2.86-4.18l.52-.86c.49-.8.94-1.56 1.29-2.41l.06-.08.05-.01.47-.09c.18-.03.35-.06.5-.1.54-.15 1.03-.33 1.5-.55l.03-.02c.25-.12.84-.39.84-.7.01-.46-.95-.57-1.41-.62a5.28 5.28 0 0 1-.21-.03c-.68-.1-1.14-.13-1.68-.09l-.15.01c-.2.01-.47.03-.74.07l-.08.01-.05-.06c-1.54-1.94-3.43-4.14-5.73-5.82-2.13-1.55-4.71-2.65-7.19-3.6-3.01-1.16-6.1-1.59-8.72-1.87l-3.4-.34-1.04-.1c-.42-.04-1.52-.13-2.1-.06l-.11.01-.03-.1a.84.84 0 0 0-.07-.19 2.13 2.13 0 0 0-.39-.5c-.19-.19-.38-.38-.58-.38-.08 0-.15.02-.24.08-.22.14-.28.71-.31 1.02-.01.06-.01.12-.02.17-.01.13-.03.26-.04.38-.03.31-.07.63-.13.94 0 .01-.01.03-.01.07l-.04.17-.07.02c-3.2.97-6.24 2.74-9.18 4.46l-1.8 1.04c-3.94 2.25-7.85 4.81-11.61 7.61-3.88 2.89-7.12 5.72-9.88 8.64-.24.26-.67.65-1.11 1.07-.77.72-1.64 1.52-1.97 1.98-.33.45-1.05.6-1.74.74-.68.15-1.39.29-1.62.72-.03.06-.02.1-.01.13.14.28 1.18.45 1.95.58.63.1 1.22.21 1.52.36.54.26 1.34 1.44 2.03 2.47.4.6.79 1.17 1.02 1.41 3.56 3.61 7.03 6.25 10.91 8.28 4.26 2.23 8.39 3.49 12.27 3.71a25.7 25.7 0 0 0 1.43.05c1.32.01 2.41-.12 3.36-.38.21-.04.36-.08.49-.08zm2.72 2.04c-.13 0-.28-.03-.44-.09-.49-.18-1.37-.59-1.85-1.29-.23-.33-.32-.39-.44-.39-.09 0-.22.03-.39.08-.99.27-2.11.4-3.45.39-.45 0-.92-.02-1.45-.05-3.91-.23-8.08-1.49-12.37-3.75-3.91-2.05-7.39-4.69-10.97-8.33-.26-.26-.63-.81-1.06-1.45-.65-.96-1.45-2.15-1.93-2.39-.28-.13-.85-.24-1.46-.33-1.18-.2-1.96-.36-2.14-.73a.38.38 0 0 1 .01-.36c.29-.54 1.05-.7 1.79-.86.64-.13 1.3-.27 1.58-.65.36-.48 1.23-1.29 2.01-2.02.45-.41.86-.81 1.1-1.06 2.78-2.94 6.02-5.78 9.91-8.67 3.77-2.81 7.69-5.37 11.64-7.63l1.8-1.04c2.93-1.71 5.96-3.48 9.16-4.46l.02-.08c.06-.3.1-.62.13-.92.01-.13.03-.26.05-.38-.01-.03-.01-.08 0-.15.04-.4.1-1 .43-1.21.13-.08.25-.12.38-.12.31 0 .54.23.77.45a2.19 2.19 0 0 1 .44.57c.02.04.04.09.06.13.17-.01.38-.03.6-.03.57 0 1.17.06 1.46.09l1.04.1 3.4.34c2.64.27 5.74.71 8.79 1.88 2.49.95 5.09 2.06 7.25 3.63 2.3 1.68 4.19 3.88 5.73 5.81.25-.03.5-.05.68-.06l.15-.01c.56-.04 1.04-.01 1.75.09.06.01.12.01.2.03.58.06 1.65.19 1.65.88-.01.49-.65.78-1 .94l-.03.02c-.49.22-.99.41-1.55.56a3.1 3.1 0 0 1-.53.1c-.13.02-.26.04-.39.07-.36.84-.81 1.59-1.29 2.4l-.52.86c-.85 1.47-1.89 2.86-2.88 4.21l-.32.43c-2.92 3.94-5.6 6.87-8.21 8.97-2.93 2.35-6.07 4.62-10.19 7.37l-1.05.71c-1.32.9-2.69 1.82-4.14 2.57-.63.33-1.25.7-1.86 1.05l-1.34.78c.17.73.33 2.1-.14 2.69-.14.21-.34.31-.59.31z" class="Q"/><path d="M90.76 48.01c-.86 2.86-2.97 5.12-5.05 7.18-2.41 2.38-4.76 4.82-7.39 6.96-5.72 4.61-12.61 8.06-19.95 9.04-6.47.86-14.42-1.04-18.95-6.05-.77-.85-1.87-2.02-1.5-3.29.38-1.31 1.2-2.26 2.19-3.15a95.61 95.61 0 0 1 8.85-7.08c1.46-1.04 2.96-2.01 4.48-2.94 2.35-1.75 4.8-3.37 7.34-4.81 2.92-1.65 5.96-3.12 9.11-4.3 3.2-1.2 6.25-1.36 9.56-.45 3.06.84 5.84 2.27 8.49 4 1.67 1.07 3.5 2.66 2.82 4.89zm11.37.9c-.58-.09-1.12-.14-1.71-.09a10.41 10.41 0 0 0-.9.08c-1.7-2.14-3.54-4.23-5.76-5.85-2.14-1.56-4.76-2.67-7.21-3.61-2.82-1.09-5.76-1.56-8.75-1.87l-4.34-.44c-.36-.03-1.46-.16-2.22-.06-.03-.08-.05-.15-.08-.22a1.97 1.97 0 0 0-.42-.54c-.3-.29-.58-.56-.98-.32-.33.21-.35.97-.39 1.28-.06.44-.09.88-.17 1.32 0 .01-.02.08-.04.16-3.88 1.17-7.55 3.54-11.01 5.51a114.56 114.56 0 0 0-11.63 7.62c-3.55 2.64-6.86 5.44-9.89 8.66-.64.68-2.54 2.32-3.09 3.06-.63.86-2.87.55-3.36 1.49-.41.79 2.7.84 3.52 1.25.83.4 2.37 3.2 3.02 3.86 3.29 3.34 6.77 6.11 10.94 8.31 3.79 1.99 8.02 3.47 12.32 3.72 1.58.09 3.29.09 4.83-.33.53-.15.63-.19 1 .36.4.59 1.13 1 1.79 1.25 1.5.56 1.2-1.92.97-2.83 1.11-.61 2.18-1.3 3.29-1.88 1.81-.93 3.48-2.14 5.17-3.27 3.52-2.34 6.89-4.71 10.18-7.36 3.07-2.47 5.85-5.79 8.19-8.95 1.11-1.5 2.25-3 3.19-4.62.65-1.13 1.34-2.13 1.82-3.29.33-.09.69-.12.98-.2.53-.15 1.03-.33 1.52-.56.29-.13.95-.42.95-.84.01-.69-1.32-.74-1.73-.8z" class="P R"/><path d="M102.13 48.91c-.58-.09-1.12-.14-1.71-.09l-.9.08c-1.7-2.14-3.54-4.23-5.76-5.85-.42-.31-.86-.58-1.31-.86 1.41 1.78 2.47 3.77 2.83 6.14.17 1.16.88 3.16-.61 3.79-.71.31-1.46.44-2.23.52 1.13.17 2.22.48 3.08 1.3.11.1.09.26 0 .38C88 63.31 78.71 70.49 68.64 76.4c-.19.11-.38-.03-.4-.23-.08-.74.06-3.24-.38-4.78-.07.63-.13 1.27-.24 1.89-.15.86-.31 2.23-1 2.87-1.37 1.25-3.71-.17-5.49-.71 1.58 1.22 3.18 2.4 4.54 3.88.13.15.08.38-.12.44-3.29.95-6.96.29-10.15-.76-3.46-1.14-7.04-2.56-10.19-4.39-3.18-1.85-6.33-4.39-8.53-7.37-.85-1.16-1.63-2.4-1.39-3.9.13-.81.42-1.57.78-2.3-.84.79-2.12 1.95-2.56 2.54-.63.86-2.87.55-3.36 1.49-.41.79 2.7.84 3.52 1.25.83.4 2.37 3.2 3.02 3.86 3.29 3.34 6.77 6.11 10.94 8.31 3.79 1.99 8.02 3.47 12.32 3.72 1.58.09 3.29.09 4.83-.33.53-.15.63-.19 1 .36.4.59 1.13 1 1.79 1.25 1.5.56 1.2-1.92.97-2.83 1.11-.61 2.18-1.3 3.29-1.88 1.81-.93 3.48-2.14 5.17-3.27 3.52-2.34 6.89-4.71 10.18-7.36 3.07-2.47 5.85-5.79 8.19-8.95 1.11-1.5 2.25-3 3.19-4.62.65-1.13 1.34-2.13 1.82-3.29.33-.09.69-.12.98-.2.53-.15 1.03-.33 1.52-.56.29-.13.95-.42.95-.84.04-.67-1.29-.72-1.7-.78z" class="P Q"/><path d="M66.04 80.84c-6.97 1.34-14.79-1.78-20.64-5.45-2.6-1.64-4.9-3.33-7.09-5.52-1.96-1.96-3.2-4.6-6.21-4.8-.05 0-.14.12-.08.13 3.19.61 5.05 4 7.3 6.12 2.39 2.26 5.2 4.11 8.13 5.58 5.55 2.76 12.16 5.77 18.47 4.21.09-.02.26-.3.12-.27zm32.65-28.2c-1.72 3.31-4.33 6.2-6.88 8.89-2.34 2.47-4.7 4.66-7.36 6.79-4.87 3.91-10.05 7.4-15.14 11.01-.1.08-.2.39 0 .24 5.8-4.1 11.82-7.99 17.28-12.56 2.51-2.1 4.94-4.43 6.96-7.02 1.9-2.43 3.98-4.5 5.24-7.38.04-.09-.07-.02-.1.03zm-27.5-12.57s-11.86 4.19-24.35 13.81-7.25 9.17-3.63 12.82c0 0-2.31-2.33-1.57-4.77s4.66-6.01 9.71-9.56c5.05-3.56 14.2-10.07 19.84-12.3z" class="P R"/><path d="M102.13 37.08c-.58-.09-1.12-.14-1.71-.09l-.9.08c-1.7-2.14-3.54-4.23-5.76-5.85-2.14-1.56-4.76-2.67-7.21-3.61-2.82-1.09-5.76-1.56-8.75-1.87l-4.34-.44c-.36-.03-1.46-.16-2.22-.06l-.08-.22a1.97 1.97 0 0 0-.42-.54c-.3-.29-.58-.56-.98-.32-.33.21-.35.97-.39 1.28l-.17 1.32c0 .01-.02.08-.04.16-3.88 1.17-7.55 3.54-11.01 5.51a114.56 114.56 0 0 0-11.63 7.62c-3.55 2.64-6.86 5.44-9.89 8.66-.64.68-2.54 2.32-3.09 3.06-.63.86-2.87.55-3.36 1.49-.41.79 2.7.84 3.52 1.25.83.4 2.37 3.2 3.02 3.86 3.29 3.34 6.77 6.11 10.94 8.31 3.79 1.99 8.02 3.47 12.32 3.72 1.58.09 3.29.09 4.83-.33.53-.15.63-.19 1 .36.4.59 1.13 1 1.79 1.25 1.5.56 1.2-1.92.97-2.83 1.11-.61 2.18-1.3 3.29-1.88 1.81-.93 3.48-2.14 5.17-3.27 3.52-2.34 6.89-4.71 10.18-7.36 3.07-2.47 5.85-5.79 8.19-8.95 1.11-1.5 2.25-3 3.19-4.62.65-1.13 1.34-2.13 1.82-3.29.33-.09.69-.12.98-.2.53-.15 1.03-.33 1.52-.56.29-.13.95-.42.95-.84.01-.69-1.32-.75-1.73-.8z" class="R"/><defs><path id="I" d="M102.13 37.08c-.58-.09-1.12-.14-1.71-.09l-.9.08c-1.7-2.14-3.54-4.23-5.76-5.85-2.14-1.56-4.76-2.67-7.21-3.61-2.82-1.09-5.76-1.56-8.75-1.87l-4.34-.44c-.36-.03-1.46-.16-2.22-.06l-.08-.22a1.97 1.97 0 0 0-.42-.54c-.3-.29-.58-.56-.98-.32-.33.21-.35.97-.39 1.28l-.17 1.32c0 .01-.02.08-.04.16-3.88 1.17-7.55 3.54-11.01 5.51a114.56 114.56 0 0 0-11.63 7.62c-3.55 2.64-6.86 5.44-9.89 8.66-.64.68-2.54 2.32-3.09 3.06-.63.86-2.87.55-3.36 1.49-.41.79 2.7.84 3.52 1.25.83.4 2.37 3.2 3.02 3.86 3.29 3.34 6.77 6.11 10.94 8.31 3.79 1.99 8.02 3.47 12.32 3.72 1.58.09 3.29.09 4.83-.33.53-.15.63-.19 1 .36.4.59 1.13 1 1.79 1.25 1.5.56 1.2-1.92.97-2.83 1.11-.61 2.18-1.3 3.29-1.88 1.81-.93 3.48-2.14 5.17-3.27 3.52-2.34 6.89-4.71 10.18-7.36 3.07-2.47 5.85-5.79 8.19-8.95 1.11-1.5 2.25-3 3.19-4.62.65-1.13 1.34-2.13 1.82-3.29.33-.09.69-.12.98-.2.53-.15 1.03-.33 1.52-.56.29-.13.95-.42.95-.84.01-.69-1.32-.75-1.73-.8z"/></defs><clipPath id="J"><use xlink:href="#I"/></clipPath><path d="M104.86 37.88c.01-.56-.28-.97-.6-1.21-.28-.22-.61-.33-.85-.4-.47-.13-1.05-.17-1.15-.19l-.26 1.99.22.03.23.03a3.91 3.91 0 0 1 .44.08c.14.04.17.07.15.05-.02-.01-.07-.06-.11-.14a.58.58 0 0 1-.07-.28l2 .04zm-1.53 1.73c.12-.06.45-.2.74-.4.23-.16.8-.6.8-1.35h-2c0-.18.07-.29.1-.32.02-.02.02-.01-.04.03l-.2.11-.23.11.83 1.82zm-1.68.61c.58-.16 1.13-.36 1.68-.61l-.84-1.81c-.44.2-.89.37-1.37.5l.53 1.92zm-1.01.2c.12-.03.25-.05.43-.08l.58-.12-.54-1.93c-.09.03-.21.05-.38.08l-.56.11.47 1.94zm.75-.96a.98.98 0 0 1-.18.57c-.11.15-.23.24-.26.26-.02.01-.03.02-.03.02s.01-.01.03-.02c.04-.02.1-.07.16-.13l-1.41-1.41c.06-.06.11-.1.15-.12.01-.01.01-.01.02-.01s0 .01-.02.02c-.03.02-.16.1-.27.26a.99.99 0 0 0-.18.58h1.99zm-1.95 3.79c.61-1.05 1.36-2.17 1.88-3.4l-1.85-.77c-.45 1.07-1.06 1.96-1.76 3.17l1.73 1zm-3.25 4.72l3.25-4.72-1.73-1c-.91 1.56-2 3.01-3.13 4.53l1.61 1.19zm-8.36 9.13c3.17-2.55 6.01-5.94 8.36-9.13l-1.61-1.19c-2.32 3.14-5.04 6.37-8.01 8.76l1.26 1.56zm-10.25 7.41c3.53-2.35 6.93-4.74 10.25-7.41l-1.25-1.56c-3.26 2.62-6.6 4.98-10.11 7.31l1.11 1.66zm-5.27 3.33c1.88-.97 3.62-2.23 5.27-3.33l-1.11-1.66c-1.74 1.16-3.33 2.32-5.08 3.22l.92 1.77zm-3.27 1.87c.57-.31 1.13-.65 1.67-.97.55-.32 1.07-.63 1.6-.9l-.92-1.78a31.09 31.09 0 0 0-1.7.96c-.55.33-1.08.64-1.62.93l.97 1.76zm-1.81 2.89c.61.23 1.31.22 1.85-.29.44-.41.57-.99.62-1.39.11-.84-.05-1.82-.18-2.33l-1.94.47c.1.4.2 1.12.14 1.6-.03.27-.09.26-.01.18.06-.06.15-.1.23-.11.07-.01.07.01-.01-.02l-.7 1.89zm-2.26-1.62c.58.85 1.55 1.34 2.26 1.62l.72-1.87c-.6-.23-1.09-.54-1.32-.88l-1.66 1.13zm.09.05c.07-.02.12-.03.16-.04s.06-.02.07-.02c.02 0-.08.02-.22-.02a.54.54 0 0 1-.17-.08c-.04-.03-.06-.05-.07-.05 0 0 .01 0 .03.03s.05.07.09.13l1.66-1.11c-.16-.23-.45-.69-.99-.84-.28-.08-.52-.05-.68-.02-.15.03-.31.07-.42.1l.54 1.92zm-5.15.37c1.6.09 3.45.1 5.16-.37l-.53-1.93c-1.37.38-2.95.39-4.51.3l-.12 2zm-12.73-3.84c3.88 2.03 8.24 3.58 12.72 3.84l.12-2c-4.11-.24-8.2-1.66-11.91-3.61l-.93 1.77zM36 59.07c3.35 3.4 6.9 6.24 11.18 8.49l.93-1.77c-4.06-2.14-7.45-4.84-10.69-8.12L36 59.07zm-2.75-3.67c-.01 0 .12.08.4.42.24.29.51.67.79 1.08l.82 1.2c.24.35.51.72.74.96l1.43-1.4c-.09-.1-.26-.32-.52-.7-.28-.4-.49-.72-.81-1.2-.29-.42-.6-.86-.9-1.22-.27-.32-.64-.74-1.06-.94l-.89 1.8zm-3.97-2.61c-.2.38-.22.84.03 1.25.19.32.49.49.67.58.38.19.88.3 1.29.38.4.08.95.17 1.28.23l.48.1c.06.02.12.03.15.04.02.01.03.01.04.02l.89-1.78c-.35-.17-.84-.27-1.21-.34-.47-.09-.83-.14-1.26-.22-.42-.08-.67-.16-.79-.21-.07-.03.05 0 .15.17.15.25.13.54.03.72l-1.75-.94zm3.44-1.62c.02-.03-.01.03-.25.11-.23.08-.51.14-.89.22-.34.07-.77.16-1.15.32-.38.15-.87.43-1.16.97l1.77.93c-.04.07-.06.03.13-.05s.45-.14.82-.22c.32-.07.75-.15 1.13-.29.37-.13.86-.36 1.2-.81l-1.6-1.18zm3.17-3.15c-.29.31-.88.85-1.54 1.46-.6.56-1.29 1.23-1.63 1.69l1.61 1.19c.21-.28.74-.81 1.39-1.42l1.62-1.55-1.45-1.37zm10.03-8.78c-3.58 2.66-6.95 5.51-10.02 8.78l1.46 1.37c2.98-3.16 6.24-5.93 9.76-8.54l-1.2-1.61zm11.72-7.68c-4.07 2.32-7.98 4.9-11.73 7.68l1.19 1.61c3.69-2.74 7.53-5.27 11.53-7.55l-.99-1.74zm11.22-5.61c-4.02 1.21-7.83 3.67-11.21 5.6l.99 1.74c3.53-2.02 7.06-4.3 10.8-5.42l-.58-1.92zm-.67.8v-.12c0-.03.01-.04.01-.06s.01-.04.01-.04c-.01.02-.02.08-.04.13l1.94.49c.01-.02.01-.05.02-.08 0-.01.01-.04.02-.06 0-.01.01-.04.01-.07 0-.02.01-.04.01-.07 0-.02.01-.07.01-.13h-1.99zm.18-1.44c-.06.5-.09.86-.16 1.25l1.96.37c.09-.48.14-1 .18-1.38l-1.98-.24zm.84-2c-.31.2-.47.47-.56.67a2.54 2.54 0 0 0-.18.58c-.06.28-.09.71-.1.74l1.98.27c.01-.06.01-.12.02-.17.01-.06.01-.1.02-.16.01-.11.02-.2.04-.29.01-.04.02-.07.02-.1 0-.01.01-.02.01-.03l-.04.04a.52.52 0 0 1-.15.13l-1.06-1.68zm2.22.45c-.12-.12-.39-.39-.73-.55-.2-.09-.44-.16-.72-.15s-.53.11-.75.24l1.05 1.7c-.02.01-.09.05-.2.05-.11.01-.19-.02-.22-.04-.03-.01-.03-.02.01.01s.09.08.17.16l1.39-1.42zm.61.79c-.17-.33-.4-.59-.61-.8l-1.38 1.44c.12.11.18.2.22.27l1.77-.91zm.14.33c0-.01-.01-.02-.01-.04-.01-.02-.01-.04-.02-.07-.02-.05-.05-.15-.11-.25l-1.75.97c-.01-.02-.02-.04-.02-.05 0 .01.01.02.01.04.01.02.02.05.03.08l1.87-.68zm1.37-.59c-.3-.03-1.55-.17-2.45-.06l.25 1.98c.62-.08 1.59.03 2 .07l.2-1.99zm4.35.44l-4.34-.44-.2 1.99 4.34.44.2-1.99zm9.01 1.94c-2.94-1.13-5.99-1.62-9.01-1.93l-.21 1.99c2.96.31 5.8.77 8.5 1.81l.72-1.87zm7.44 3.74c-2.25-1.64-4.98-2.79-7.44-3.74l-.72 1.87c2.45.95 4.96 2.01 6.98 3.49l1.18-1.62zm5.96 6.03c-1.71-2.16-3.63-4.34-5.95-6.03l-1.18 1.62c2.1 1.53 3.88 3.54 5.56 5.66l1.57-1.25zm.04-.45c-.15.01-.57.03-.97.08l.28 1.98c.3-.04.59-.05.83-.07l-.14-1.99zm1.94.1c-.62-.1-1.25-.16-1.95-.1l.16 1.99c.48-.04.93 0 1.48.08l.31-1.97zm1.57 1.77l-1-.02v.02h1zm-.95.84l-.42-.91.42.91zm-1.53.56l-.27-.96.27.96zm-.97.19l-.23-.97-.27.07-.2.2.7.7zm-.02.01l.92.38.08-.18v-.2h-1zm-1.81 3.29l-.86-.5.86.5zm-3.19 4.62l-.8-.6.8.6zm-8.19 8.95l.63.78-.63-.78zm-10.18 7.36l-.55-.83.55.83zm-5.17 3.27l-.46-.89.46.89zm-3.29 1.88l-.48-.88-.67.37.18.75.97-.24zm-.98 2.83l-.36.93h.01l.35-.93zm-1.79-1.24l-.83.55.01.01.82-.56zm-.99-.36l.27.96-.27-.96zm-4.84.34l-.06 1 .06-1zm-12.31-3.73l-.47.89.47-.89zm-10.94-8.3l-.71.7.71-.7zm-3.02-3.87l-.44.9.44-.9zm-3.52-1.24l-.89-.47.89.47zm3.36-1.49l.8.59-.8-.59zm3.09-3.07l-.73-.69.73.69zm9.89-8.66l.6.8-.6-.8zm11.63-7.61l.5.87-.5-.87zm11.01-5.52l.29.96.54-.16.14-.55-.97-.25zm.04-.16l-.98-.19-.02.09v.09h1zm.17-1.31l-.99-.14v.01l.99.13zm.39-1.29l-.52-.85h-.02l.54.85zm.98.32l-.7.72.01.01.69-.73zm.42.54l-.89.46.02.02.87-.48zm.09.22l-.94.34.27.75.79-.1-.12-.99zm2.22.06l.1-.99-.1.99zm4.34.44l.1-.99-.1.99zm8.75 1.87l.36-.93-.36.93zm7.22 3.61l-.59.81.59-.81zm5.75 5.85l-.78.62.36.45.57-.08-.15-.99zm.9-.07l.07 1h.01l-.08-1zm1.71.09l-.15.99h.02l.13-.99z" clip-path="url(#J)" class="S"/><path d="M65.26 69.83c.26 0 .43.17.65.51.44.64 1.27 1.02 1.73 1.19.13.05.24.07.35.07.16 0 .29-.06.39-.19.38-.49.24-1.83.06-2.56l-.02-.1.09-.05 1.43-.82 1.87-1.06c1.43-.74 2.78-1.66 4.11-2.56l1.05-.71c4.11-2.74 7.25-5.01 10.16-7.35 2.59-2.08 5.26-5 8.17-8.92l.32-.43c1-1.34 2.02-2.72 2.86-4.18l.52-.86c.49-.8.94-1.56 1.29-2.41l.06-.08.05-.01.47-.09c.18-.03.35-.06.5-.1.54-.15 1.03-.33 1.5-.55l.03-.02c.25-.12.84-.39.84-.7.01-.46-.95-.57-1.41-.62a5.28 5.28 0 0 1-.21-.03c-.68-.1-1.14-.13-1.68-.09l-.15.01c-.2.01-.47.03-.74.07l-.08.01-.05-.06c-1.54-1.94-3.43-4.14-5.73-5.82-2.13-1.55-4.71-2.65-7.19-3.6-3.01-1.16-6.1-1.59-8.72-1.87l-3.4-.34-1.04-.1c-.42-.04-1.52-.13-2.1-.06l-.11.01-.03-.1a.84.84 0 0 0-.07-.19 2.13 2.13 0 0 0-.39-.5c-.19-.19-.38-.38-.58-.38-.08 0-.15.02-.24.08-.22.14-.28.71-.31 1.02-.01.06-.01.12-.02.17-.01.13-.03.26-.04.38-.03.31-.07.63-.13.94 0 .01-.01.03-.01.07l-.04.17-.07.02c-3.2.97-6.24 2.74-9.18 4.46l-1.8 1.04c-3.94 2.25-7.85 4.81-11.61 7.61-3.88 2.89-7.12 5.72-9.88 8.64-.24.26-.67.65-1.11 1.07-.77.72-1.64 1.52-1.97 1.98-.33.45-1.05.6-1.74.74-.68.15-1.39.29-1.62.72-.03.06-.02.1-.01.13.14.28 1.18.45 1.95.58.63.1 1.22.21 1.52.36.54.26 1.34 1.44 2.03 2.47.4.6.79 1.17 1.02 1.41 3.56 3.61 7.03 6.25 10.91 8.28 4.26 2.23 8.39 3.49 12.27 3.71a25.7 25.7 0 0 0 1.43.05c1.32.01 2.41-.12 3.36-.38.21-.05.36-.08.49-.08zm2.72 2.03c-.13 0-.28-.03-.44-.09-.49-.18-1.37-.59-1.85-1.29-.23-.33-.32-.39-.44-.39-.09 0-.22.03-.39.08-.99.27-2.11.4-3.45.39-.45 0-.92-.02-1.45-.05-3.91-.23-8.08-1.49-12.37-3.75-3.91-2.05-7.39-4.69-10.97-8.33-.25-.25-.62-.8-1.05-1.43-.65-.96-1.45-2.15-1.93-2.39-.28-.13-.85-.24-1.46-.33-1.18-.2-1.96-.36-2.14-.73a.38.38 0 0 1 .01-.36c.29-.54 1.05-.7 1.79-.86.64-.13 1.3-.27 1.58-.65.36-.48 1.23-1.29 2.01-2.02.45-.41.86-.81 1.1-1.06 2.78-2.94 6.02-5.78 9.91-8.67 3.77-2.81 7.69-5.37 11.64-7.63l1.8-1.04c2.93-1.71 5.96-3.48 9.16-4.46l.02-.08c.06-.3.1-.62.13-.92.01-.13.03-.26.05-.38-.01-.03-.01-.08 0-.15.04-.4.1-1 .43-1.21.13-.08.25-.12.38-.12.31 0 .54.23.77.45a2.19 2.19 0 0 1 .44.57c.02.04.04.09.06.13.17-.01.38-.03.6-.03.57 0 1.17.06 1.46.09l1.04.1 3.4.34c2.64.27 5.74.71 8.79 1.88 2.49.95 5.09 2.06 7.25 3.63 2.3 1.68 4.19 3.88 5.73 5.81.25-.03.5-.05.68-.06l.15-.01c.56-.04 1.04-.01 1.75.09.06.01.12.01.2.03.58.06 1.65.19 1.65.88-.01.49-.65.78-1 .94l-.03.02c-.49.22-.99.41-1.55.56a3.1 3.1 0 0 1-.53.1c-.13.02-.26.04-.39.07-.36.84-.81 1.59-1.29 2.4l-.52.86c-.85 1.47-1.89 2.86-2.88 4.21l-.32.43c-2.92 3.94-5.6 6.87-8.21 8.97-2.93 2.35-6.07 4.62-10.19 7.37l-1.05.71c-1.32.9-2.69 1.82-4.14 2.57-.63.33-1.25.7-1.86 1.05l-1.34.78c.17.73.33 2.1-.14 2.69-.15.2-.35.29-.6.29z" class="Q"/><path d="M90.76 36.17c-.86 2.86-2.97 5.12-5.05 7.18-2.41 2.38-4.76 4.82-7.39 6.96-5.72 4.61-12.61 8.06-19.95 9.04-6.47.86-14.42-1.04-18.95-6.05-.77-.85-1.87-2.02-1.5-3.29.38-1.31 1.2-2.26 2.19-3.15a95.61 95.61 0 0 1 8.85-7.08c1.46-1.04 2.96-2.01 4.48-2.94 2.35-1.75 4.8-3.37 7.34-4.81 2.92-1.65 5.96-3.12 9.11-4.3 3.2-1.2 6.25-1.36 9.56-.45 3.06.84 5.84 2.27 8.49 4 1.67 1.08 3.5 2.66 2.82 4.89zm11.37.91c-.58-.09-1.12-.14-1.71-.09a10.41 10.41 0 0 0-.9.08c-1.7-2.14-3.54-4.23-5.76-5.85-2.14-1.56-4.76-2.67-7.21-3.61-2.82-1.09-5.76-1.56-8.75-1.87l-4.34-.44c-.36-.03-1.46-.16-2.22-.06-.03-.08-.05-.15-.08-.22a1.97 1.97 0 0 0-.42-.54c-.3-.29-.58-.56-.98-.32-.33.21-.35.97-.39 1.28-.06.44-.09.88-.17 1.32 0 .01-.02.08-.04.16-3.88 1.17-7.55 3.54-11.01 5.51a114.56 114.56 0 0 0-11.63 7.62c-3.55 2.64-6.86 5.44-9.89 8.66-.64.68-2.54 2.32-3.09 3.06-.63.86-2.87.55-3.36 1.49-.41.79 2.7.84 3.52 1.25.83.4 2.37 3.2 3.02 3.86 3.29 3.34 6.77 6.11 10.94 8.31 3.79 1.99 8.02 3.47 12.32 3.72 1.58.09 3.29.09 4.83-.33.53-.15.63-.19 1 .36.4.59 1.13 1 1.79 1.25 1.5.56 1.2-1.92.97-2.83 1.11-.61 2.18-1.3 3.29-1.88 1.81-.93 3.48-2.14 5.17-3.27 3.52-2.34 6.89-4.71 10.18-7.36 3.07-2.47 5.85-5.79 8.19-8.95 1.11-1.5 2.25-3 3.19-4.62.65-1.13 1.34-2.13 1.82-3.29.33-.09.69-.12.98-.2.53-.15 1.03-.33 1.52-.56.29-.13.95-.42.95-.84.01-.69-1.32-.75-1.73-.8z" class="P R"/><path d="M102.13 37.08c-.58-.09-1.12-.14-1.71-.09l-.9.08c-1.7-2.14-3.54-4.23-5.76-5.85-.42-.31-.86-.58-1.31-.86 1.41 1.78 2.47 3.77 2.83 6.14.17 1.16.88 3.16-.61 3.79-.71.31-1.46.44-2.23.52 1.13.17 2.22.48 3.08 1.3.11.1.09.26 0 .38C88 51.48 78.71 58.66 68.64 64.57c-.19.11-.38-.03-.4-.23-.08-.74.06-3.24-.38-4.78-.07.63-.13 1.27-.24 1.89-.15.86-.31 2.23-1 2.87-1.37 1.25-3.71-.17-5.49-.71 1.58 1.22 3.18 2.4 4.54 3.88.13.15.08.38-.12.44-3.29.95-6.96.29-10.15-.76-3.46-1.14-7.04-2.56-10.19-4.39-3.18-1.85-6.33-4.39-8.53-7.37-.85-1.16-1.63-2.4-1.39-3.9.13-.81.42-1.57.78-2.3-.84.79-2.12 1.95-2.56 2.54-.63.86-2.87.55-3.36 1.49-.41.79 2.7.84 3.52 1.25.83.4 2.37 3.2 3.02 3.86 3.29 3.34 6.77 6.11 10.94 8.31 3.79 1.99 8.02 3.47 12.32 3.72 1.58.09 3.29.09 4.83-.33.53-.15.63-.19 1 .36.4.59 1.13 1 1.79 1.25 1.5.56 1.2-1.92.97-2.83 1.11-.61 2.18-1.3 3.29-1.88 1.81-.93 3.48-2.14 5.17-3.27 3.52-2.34 6.89-4.71 10.18-7.36 3.07-2.47 5.85-5.79 8.19-8.95 1.11-1.5 2.25-3 3.19-4.62.65-1.13 1.34-2.13 1.82-3.29.33-.09.69-.12.98-.2.53-.15 1.03-.33 1.52-.56.29-.13.95-.42.95-.84.04-.67-1.29-.73-1.7-.78z" class="P Q"/><path d="M66.04 69c-6.97 1.34-14.79-1.78-20.64-5.45-2.6-1.64-4.9-3.33-7.09-5.52-1.96-1.96-3.2-4.6-6.21-4.8-.05 0-.14.12-.08.13 3.19.61 5.05 4 7.3 6.12 2.39 2.26 5.2 4.11 8.13 5.58 5.55 2.76 12.16 5.77 18.47 4.21.09-.01.26-.29.12-.27zm32.65-28.2c-1.72 3.31-4.33 6.2-6.88 8.89-2.34 2.47-4.7 4.66-7.36 6.79-4.87 3.91-10.05 7.4-15.14 11.01-.1.08-.2.39 0 .24 5.8-4.1 11.82-7.99 17.28-12.56 2.51-2.1 4.94-4.43 6.96-7.02 1.9-2.43 3.98-4.5 5.24-7.38.04-.09-.07-.02-.1.03zm-27.5-12.57s-11.86 4.19-24.35 13.81-7.25 9.17-3.63 12.82c0 0-2.31-2.33-1.57-4.77s4.66-6.01 9.71-9.56 14.2-10.07 19.84-12.3z" class="P R"/><path d="M102.13 23.15c-.58-.09-1.12-.14-1.71-.09l-.9.08c-1.7-2.14-3.54-4.23-5.76-5.85-2.14-1.56-4.76-2.67-7.21-3.61-2.82-1.09-5.76-1.56-8.75-1.87l-4.34-.44c-.36-.03-1.46-.16-2.22-.06l-.08-.22a1.97 1.97 0 0 0-.42-.54c-.3-.29-.58-.56-.98-.32-.33.21-.35.97-.39 1.28l-.17 1.32c0 .01-.02.08-.04.16-3.88 1.17-7.55 3.54-11.01 5.51a114.56 114.56 0 0 0-11.63 7.62c-3.55 2.64-6.86 5.44-9.89 8.66-.64.68-2.54 2.32-3.09 3.06-.63.86-2.87.55-3.36 1.49-.41.79 2.7.84 3.52 1.25.83.4 2.37 3.2 3.02 3.86 3.29 3.34 6.77 6.11 10.94 8.31 3.79 1.99 8.02 3.47 12.32 3.72 1.58.09 3.29.09 4.83-.33.53-.15.63-.19 1 .36.4.59 1.13 1 1.79 1.25 1.5.56 1.2-1.92.97-2.83 1.11-.61 2.18-1.3 3.29-1.88 1.81-.93 3.48-2.14 5.17-3.27 3.52-2.34 6.89-4.71 10.18-7.36 3.07-2.47 5.85-5.79 8.19-8.95 1.11-1.5 2.25-3 3.19-4.62.65-1.13 1.34-2.13 1.82-3.29.33-.09.69-.12.98-.2.53-.15 1.03-.33 1.52-.56.29-.13.95-.42.95-.84.01-.69-1.32-.74-1.73-.8z" class="Q"/><defs><path id="K" d="M102.13 23.15c-.58-.09-1.12-.14-1.71-.09l-.9.08c-1.7-2.14-3.54-4.23-5.76-5.85-2.14-1.56-4.76-2.67-7.21-3.61-2.82-1.09-5.76-1.56-8.75-1.87l-4.34-.44c-.36-.03-1.46-.16-2.22-.06l-.08-.22a1.97 1.97 0 0 0-.42-.54c-.3-.29-.58-.56-.98-.32-.33.21-.35.97-.39 1.28l-.17 1.32c0 .01-.02.08-.04.16-3.88 1.17-7.55 3.54-11.01 5.51a114.56 114.56 0 0 0-11.63 7.62c-3.55 2.64-6.86 5.44-9.89 8.66-.64.68-2.54 2.32-3.09 3.06-.63.86-2.87.55-3.36 1.49-.41.79 2.7.84 3.52 1.25.83.4 2.37 3.2 3.02 3.86 3.29 3.34 6.77 6.11 10.94 8.31 3.79 1.99 8.02 3.47 12.32 3.72 1.58.09 3.29.09 4.83-.33.53-.15.63-.19 1 .36.4.59 1.13 1 1.79 1.25 1.5.56 1.2-1.92.97-2.83 1.11-.61 2.18-1.3 3.29-1.88 1.81-.93 3.48-2.14 5.17-3.27 3.52-2.34 6.89-4.71 10.18-7.36 3.07-2.47 5.85-5.79 8.19-8.95 1.11-1.5 2.25-3 3.19-4.62.65-1.13 1.34-2.13 1.82-3.29.33-.09.69-.12.98-.2.53-.15 1.03-.33 1.52-.56.29-.13.95-.42.95-.84.01-.69-1.32-.74-1.73-.8z"/></defs><clipPath id="L"><use xlink:href="#K"/></clipPath><path d="M104.86 23.95c.01-.56-.28-.97-.6-1.21-.28-.22-.61-.33-.85-.4-.47-.13-1.05-.17-1.15-.19l-.26 1.99.22.03.23.03a3.91 3.91 0 0 1 .44.08c.14.04.17.07.15.05-.02-.01-.07-.06-.11-.14a.58.58 0 0 1-.07-.28l2 .04zm-1.53 1.73c.12-.06.45-.2.74-.4.23-.16.8-.6.8-1.35h-2c0-.18.07-.29.1-.32.02-.02.02-.01-.04.03l-.2.11-.23.11.83 1.82zm-1.68.61c.58-.16 1.13-.36 1.68-.61l-.84-1.81c-.44.2-.89.37-1.37.5l.53 1.92zm-1.01.21c.12-.03.25-.05.43-.08l.58-.12-.54-1.93c-.09.03-.21.05-.38.08l-.56.11.47 1.94zm.75-.96a.98.98 0 0 1-.18.57c-.11.15-.23.24-.26.26-.02.01-.03.02-.03.02s.01-.01.03-.02c.04-.02.1-.07.16-.13l-1.41-1.41c.06-.06.11-.1.15-.12.01-.01.01-.01.02-.01s0 .01-.02.02c-.03.02-.16.1-.27.26a.99.99 0 0 0-.18.58h1.99zm-1.95 3.79c.61-1.05 1.36-2.17 1.88-3.4l-1.85-.77c-.45 1.07-1.06 1.96-1.76 3.17l1.73 1zm-3.25 4.71l3.25-4.72-1.73-1c-.91 1.56-2 3.01-3.13 4.53l1.61 1.19zm-8.36 9.13c3.17-2.55 6.01-5.94 8.36-9.13l-1.61-1.19c-2.32 3.14-5.04 6.37-8.01 8.76l1.26 1.56zm-10.25 7.42c3.53-2.35 6.93-4.74 10.25-7.41l-1.25-1.56c-3.26 2.62-6.6 4.98-10.11 7.31l1.11 1.66zm-5.27 3.33c1.88-.97 3.62-2.23 5.27-3.33l-1.11-1.66c-1.74 1.16-3.33 2.32-5.08 3.22l.92 1.77zm-3.27 1.86c.57-.31 1.13-.65 1.67-.97.55-.32 1.07-.63 1.6-.9l-.92-1.78a31.09 31.09 0 0 0-1.7.96c-.55.33-1.08.64-1.62.93l.97 1.76zm-1.81 2.9c.61.23 1.31.22 1.85-.29.44-.41.57-.99.62-1.39.11-.84-.05-1.82-.18-2.33l-1.94.47c.1.4.2 1.12.14 1.6-.03.27-.09.26-.01.18.06-.06.15-.1.23-.11.07-.01.07.01-.01-.02l-.7 1.89zm-2.26-1.62c.58.85 1.55 1.34 2.26 1.62l.72-1.87c-.6-.23-1.09-.54-1.32-.88l-1.66 1.13zm.09.04c.07-.02.12-.03.16-.04s.06-.02.07-.02c.02 0-.08.02-.22-.02a.54.54 0 0 1-.17-.08c-.04-.03-.06-.05-.07-.05 0 0 .01 0 .03.03s.05.07.09.13l1.66-1.11c-.16-.23-.45-.69-.99-.84-.28-.08-.52-.05-.68-.02-.15.03-.31.07-.42.1l.54 1.92zm-5.15.37c1.6.09 3.45.1 5.16-.37l-.53-1.93c-1.37.38-2.95.39-4.51.3l-.12 2zm-12.73-3.84c3.88 2.03 8.24 3.58 12.72 3.84l.12-2c-4.11-.24-8.2-1.66-11.91-3.61l-.93 1.77zM36 45.14c3.35 3.4 6.9 6.24 11.18 8.49l.93-1.77c-4.06-2.14-7.45-4.84-10.69-8.12L36 45.14zm-2.75-3.66c-.01 0 .12.08.4.42.24.29.51.67.79 1.08l.82 1.2c.24.35.51.72.74.96l1.43-1.4c-.09-.1-.26-.32-.52-.7-.28-.4-.49-.72-.81-1.2-.29-.42-.6-.86-.9-1.22-.27-.32-.64-.74-1.06-.94l-.89 1.8zm-3.97-2.61c-.2.38-.22.84.03 1.25.19.32.49.49.67.58.38.19.88.3 1.29.38.4.08.95.17 1.28.23l.48.1c.06.02.12.03.15.04.02.01.03.01.04.02l.89-1.78c-.35-.17-.84-.27-1.21-.34-.47-.09-.83-.14-1.26-.22-.42-.08-.67-.16-.79-.21-.07-.03.05 0 .15.17.15.25.13.54.03.72l-1.75-.94zm3.44-1.62c.02-.03-.01.03-.25.11-.23.08-.51.14-.89.22-.34.07-.77.16-1.15.32-.38.15-.87.43-1.16.97l1.77.93c-.04.07-.06.03.13-.05s.45-.14.82-.22c.32-.07.75-.15 1.13-.29.37-.13.86-.36 1.2-.81l-1.6-1.18zm3.17-3.16c-.29.31-.88.85-1.54 1.46-.6.56-1.29 1.23-1.63 1.69l1.61 1.19c.21-.28.74-.81 1.39-1.42l1.62-1.55-1.45-1.37zm10.03-8.78c-3.58 2.66-6.95 5.51-10.02 8.78l1.46 1.37c2.98-3.16 6.24-5.93 9.76-8.54l-1.2-1.61zm11.72-7.68c-4.07 2.32-7.98 4.9-11.73 7.68l1.19 1.61c3.69-2.74 7.53-5.27 11.53-7.55l-.99-1.74zm11.22-5.6c-4.02 1.21-7.83 3.67-11.21 5.6l.99 1.74c3.53-2.02 7.06-4.3 10.8-5.42l-.58-1.92zm-.67.8v-.12c0-.03.01-.04.01-.06s.01-.04.01-.04c-.01.02-.02.08-.04.13l1.94.49c.01-.02.01-.05.02-.08 0-.01.01-.04.02-.06 0-.01.01-.04.01-.07 0-.02.01-.04.01-.07 0-.02.01-.07.01-.13h-1.99zm.18-1.45c-.06.5-.09.86-.16 1.25l1.96.37c.09-.48.14-1 .18-1.38l-1.98-.24zm.84-1.99c-.31.2-.47.47-.56.67a2.54 2.54 0 0 0-.18.58c-.06.28-.09.71-.1.74l1.98.27c.01-.06.01-.12.02-.17.01-.06.01-.1.02-.16.01-.11.02-.2.04-.29.01-.04.02-.07.02-.1 0-.01.01-.02.01-.03l-.04.04a.52.52 0 0 1-.15.13l-1.06-1.68zm2.22.44c-.12-.12-.39-.39-.73-.55-.2-.09-.44-.16-.72-.15s-.53.11-.75.24l1.05 1.7c-.02.01-.09.05-.2.05-.11.01-.19-.02-.22-.04-.03-.01-.03-.02.01.01s.09.08.17.16l1.39-1.42zm.61.8c-.17-.33-.4-.59-.61-.8l-1.38 1.44c.12.11.18.2.22.27l1.77-.91zm.14.33c0-.01-.01-.02-.01-.04-.01-.02-.01-.04-.02-.07-.02-.05-.05-.15-.11-.25l-1.75.97c-.01-.02-.02-.04-.02-.05 0 .01.01.02.01.04.01.02.02.05.03.08l1.87-.68zm1.37-.59c-.3-.03-1.55-.17-2.45-.06l.25 1.98c.62-.08 1.59.03 2 .07l.2-1.99zm4.35.44l-4.34-.44-.2 1.99 4.34.44.2-1.99zm9.01 1.93c-2.94-1.13-5.99-1.62-9.01-1.93l-.2 1.99c2.96.31 5.8.77 8.5 1.81l.71-1.87zm7.44 3.74c-2.25-1.64-4.98-2.79-7.44-3.74l-.72 1.87c2.45.95 4.96 2.01 6.98 3.49l1.18-1.62zm5.96 6.04c-1.71-2.16-3.63-4.34-5.95-6.03l-1.18 1.62c2.1 1.53 3.88 3.54 5.56 5.66l1.57-1.25zm.04-.46c-.15.01-.57.03-.97.08l.28 1.98c.3-.04.59-.05.83-.07l-.14-1.99zm1.94.1c-.62-.1-1.25-.16-1.95-.1l.16 1.99c.48-.04.93 0 1.48.08l.31-1.97zm1.57 1.77l-1-.02v.02h1zm-.95.84l-.42-.91.42.91zm-1.53.56l-.27-.96.27.96zm-.97.2l-.23-.97-.27.07-.2.2.7.7zm-.02.01l.92.38.08-.18v-.2h-1zm-1.81 3.29l-.86-.5.86.5zm-3.19 4.62l-.8-.6.8.6zM87.2 42.4l.63.78-.63-.78zm-10.18 7.35l-.55-.83.55.83zm-5.17 3.28l-.46-.89.46.89zm-3.29 1.88l-.48-.88-.68.37.18.75.98-.24zm-.98 2.83l-.36.93h.01l.35-.93zm-1.79-1.25l-.83.55.01.01.82-.56zm-.99-.35l.27.96-.27-.96zm-4.84.33l-.06 1 .06-1zm-12.31-3.72l-.47.89.47-.89zm-10.94-8.31l-.71.7.71-.7zm-3.02-3.86l-.44.9.44-.9zm-3.52-1.25l-.89-.47.89.47zm3.36-1.49l.8.59-.8-.59zm3.09-3.06l-.73-.69.73.69zm9.89-8.66l.6.8-.6-.8zm11.63-7.62l.5.87-.5-.87zm11.01-5.51l.29.96.54-.16.14-.55-.97-.25zm.04-.16l-.98-.19-.02.09v.09h1zm.17-1.32l-.99-.14v.01l.99.13zm.39-1.28l-.52-.85h-.02l.54.85zm.98.32l-.7.72.01.01.69-.73zm.42.54l-.89.46.02.02.87-.48zm.09.21l-.94.34.27.75.79-.1-.12-.99zm2.22.06l.1-.99-.1.99zm4.34.44l.1-.99-.1.99zm8.75 1.88l.36-.93-.36.93zm7.22 3.61l-.59.81.59-.81zm5.75 5.85l-.78.62.36.45.57-.08-.15-.99zm.9-.08l.07 1h.01l-.08-1zm1.71.09l-.15.99h.02l.13-.99z" clip-path="url(#L)" class="S"/><path d="M65.26 55.9c.26 0 .43.17.65.51.44.64 1.27 1.02 1.73 1.19.13.05.24.07.35.07.16 0 .29-.06.39-.19.38-.49.24-1.83.06-2.56l-.02-.1.09-.05 1.43-.82 1.87-1.06c1.43-.74 2.78-1.66 4.11-2.56l1.05-.71c4.11-2.74 7.25-5.01 10.16-7.35 2.59-2.08 5.26-5 8.17-8.92l.32-.43c1-1.34 2.02-2.72 2.86-4.18l.52-.86c.49-.8.94-1.56 1.29-2.41l.06-.08.05-.01.47-.09c.18-.03.35-.06.5-.1.54-.15 1.03-.33 1.5-.55l.03-.02c.25-.12.84-.39.84-.7.01-.46-.95-.57-1.41-.62a5.28 5.28 0 0 1-.21-.03c-.68-.1-1.14-.13-1.68-.09l-.15.01c-.2.01-.47.03-.74.07l-.08.01-.05-.06c-1.54-1.94-3.43-4.14-5.73-5.82-2.13-1.55-4.71-2.65-7.19-3.6-3.01-1.16-6.1-1.59-8.72-1.87l-3.4-.34-1.04-.1c-.42-.04-1.52-.13-2.1-.06l-.11.01-.03-.1a.84.84 0 0 0-.07-.19 2.13 2.13 0 0 0-.39-.5c-.19-.19-.38-.38-.58-.38-.08 0-.15.02-.24.08-.22.14-.28.71-.31 1.02-.01.06-.01.12-.02.17-.01.13-.03.26-.04.38-.03.31-.07.63-.13.94 0 .01-.01.03-.01.07l-.04.17-.07.02c-3.2.97-6.24 2.74-9.18 4.46l-1.8 1.04c-3.94 2.25-7.85 4.81-11.61 7.61-3.88 2.89-7.12 5.72-9.88 8.64-.24.26-.67.65-1.11 1.07-.77.72-1.64 1.52-1.97 1.98-.33.45-1.05.6-1.74.74-.68.15-1.39.29-1.62.72-.03.06-.02.1-.01.13.14.28 1.18.45 1.95.58.63.1 1.22.21 1.52.36.54.26 1.34 1.44 2.03 2.47.4.6.79 1.17 1.02 1.41 3.56 3.61 7.03 6.25 10.91 8.28 4.26 2.23 8.39 3.49 12.27 3.71a25.7 25.7 0 0 0 1.43.05c1.32.01 2.41-.12 3.36-.38.21-.04.36-.08.49-.08zm2.72 2.03c-.13 0-.28-.03-.44-.09-.49-.18-1.37-.59-1.85-1.29-.23-.33-.32-.39-.44-.39-.09 0-.22.03-.39.08-.99.27-2.11.4-3.45.39-.45 0-.92-.02-1.45-.05-3.91-.23-8.08-1.49-12.37-3.75-3.91-2.05-7.39-4.69-10.97-8.33-.26-.26-.63-.81-1.06-1.45-.65-.96-1.45-2.15-1.93-2.39-.28-.13-.85-.24-1.46-.33-1.18-.2-1.96-.36-2.14-.73a.38.38 0 0 1 .01-.36c.29-.54 1.05-.7 1.79-.86.64-.13 1.3-.27 1.58-.65.36-.48 1.23-1.29 2.01-2.02.45-.41.86-.81 1.1-1.06 2.78-2.94 6.02-5.78 9.91-8.67 3.77-2.81 7.69-5.37 11.64-7.63l1.8-1.04c2.93-1.71 5.96-3.48 9.16-4.46l.02-.08c.06-.3.1-.62.13-.92.01-.13.03-.26.05-.38-.01-.03-.01-.08 0-.15.04-.4.1-1 .43-1.21.13-.08.25-.12.38-.12.31 0 .54.23.77.45a2.19 2.19 0 0 1 .44.57c.02.04.04.09.06.13.17-.01.38-.03.6-.03.57 0 1.17.06 1.46.09l1.04.1 3.4.34c2.64.27 5.74.71 8.79 1.88 2.49.95 5.09 2.06 7.25 3.63 2.3 1.68 4.19 3.88 5.73 5.81.25-.03.5-.05.68-.06l.15-.01c.56-.04 1.04-.01 1.75.09.06.01.12.01.2.03.58.06 1.65.19 1.65.88-.01.49-.65.78-1 .94l-.03.02c-.49.22-.99.41-1.55.56a3.1 3.1 0 0 1-.53.1c-.13.02-.26.04-.39.07-.36.84-.81 1.59-1.29 2.4l-.52.86c-.85 1.47-1.89 2.86-2.88 4.21l-.32.43c-2.92 3.94-5.6 6.87-8.21 8.97-2.93 2.35-6.07 4.62-10.19 7.37l-1.05.71c-1.32.9-2.69 1.82-4.14 2.57-.63.33-1.25.7-1.86 1.05l-1.34.78c.17.73.33 2.1-.14 2.69-.14.22-.34.31-.59.31z" class="Q"/><path d="M90.76 22.25c-.86 2.86-2.97 5.12-5.05 7.18-2.41 2.38-4.76 4.82-7.39 6.96-5.72 4.61-12.61 8.06-19.95 9.04-6.47.86-14.42-1.04-18.95-6.05-.77-.85-1.87-2.02-1.5-3.29.38-1.31 1.2-2.26 2.19-3.15a95.61 95.61 0 0 1 8.85-7.08c1.46-1.04 2.96-2.01 4.48-2.94 2.35-1.75 4.8-3.37 7.34-4.81 2.92-1.65 5.96-3.12 9.11-4.3 3.2-1.2 6.25-1.36 9.56-.45 3.06.84 5.84 2.27 8.49 4 1.67 1.07 3.5 2.66 2.82 4.89zm11.37.9c-.58-.09-1.12-.14-1.71-.09a10.41 10.41 0 0 0-.9.08c-1.7-2.14-3.54-4.23-5.76-5.85-2.14-1.56-4.76-2.67-7.21-3.61-2.82-1.09-5.76-1.56-8.75-1.87l-4.34-.44c-.36-.03-1.46-.16-2.22-.06-.03-.08-.05-.15-.08-.22a1.97 1.97 0 0 0-.42-.54c-.3-.29-.58-.56-.98-.32-.33.21-.35.97-.39 1.28-.06.44-.09.88-.17 1.32 0 .01-.02.08-.04.16-3.88 1.17-7.55 3.54-11.01 5.51a114.56 114.56 0 0 0-11.63 7.62c-3.55 2.64-6.86 5.44-9.89 8.66-.64.68-2.54 2.32-3.09 3.06-.63.86-2.87.55-3.36 1.49-.41.79 2.7.84 3.52 1.25.83.4 2.37 3.2 3.02 3.86 3.29 3.34 6.77 6.11 10.94 8.31 3.79 1.99 8.02 3.47 12.32 3.72 1.58.09 3.29.09 4.83-.33.53-.15.63-.19 1 .36.4.59 1.13 1 1.79 1.25 1.5.56 1.2-1.92.97-2.83 1.11-.61 2.18-1.3 3.29-1.88 1.81-.93 3.48-2.14 5.17-3.27 3.52-2.34 6.89-4.71 10.18-7.36 3.07-2.47 5.85-5.79 8.19-8.95 1.11-1.5 2.25-3 3.19-4.62.65-1.13 1.34-2.13 1.82-3.29.33-.09.69-.12.98-.2.53-.15 1.03-.33 1.52-.56.29-.13.95-.42.95-.84.01-.69-1.32-.74-1.73-.8z" class="P Q"/><path d="M102.13 23.15c-.58-.09-1.12-.14-1.71-.09l-.9.08c-1.7-2.14-3.54-4.23-5.76-5.85-.42-.31-.86-.58-1.31-.86 1.41 1.78 2.47 3.77 2.83 6.14.17 1.16.88 3.16-.61 3.79-.71.31-1.46.44-2.23.52 1.13.17 2.22.48 3.08 1.3.11.1.09.26 0 .38C88 37.55 78.71 44.73 68.64 50.64c-.19.11-.38-.03-.4-.23-.08-.74.06-3.24-.38-4.78-.07.63-.13 1.27-.24 1.89-.15.86-.31 2.23-1 2.87-1.37 1.25-3.71-.17-5.49-.71 1.58 1.22 3.18 2.4 4.54 3.88.13.15.08.38-.12.44-3.29.95-6.96.29-10.15-.76-3.46-1.14-7.04-2.56-10.19-4.39-3.18-1.85-6.33-4.39-8.53-7.37-.85-1.16-1.63-2.4-1.39-3.9.13-.81.42-1.57.78-2.3-.84.79-2.12 1.95-2.56 2.54-.63.86-2.87.55-3.36 1.49-.41.79 2.7.84 3.52 1.25.83.4 2.37 3.2 3.02 3.86 3.29 3.34 6.77 6.11 10.94 8.31 3.79 1.99 8.02 3.47 12.32 3.72 1.58.09 3.29.09 4.83-.33.53-.15.63-.19 1 .36.4.59 1.13 1 1.79 1.25 1.5.56 1.2-1.92.97-2.83 1.11-.61 2.18-1.3 3.29-1.88 1.81-.93 3.48-2.14 5.17-3.27 3.52-2.34 6.89-4.71 10.18-7.36 3.07-2.47 5.85-5.79 8.19-8.95 1.11-1.5 2.25-3 3.19-4.62.65-1.13 1.34-2.13 1.82-3.29.33-.09.69-.12.98-.2.53-.15 1.03-.33 1.52-.56.29-.13.95-.42.95-.84.04-.67-1.29-.72-1.7-.78z" fill="#8cb9ff" class="P"/><path d="M66.04 55.08c-6.97 1.34-14.79-1.78-20.64-5.45-2.6-1.64-4.9-3.33-7.09-5.52-1.96-1.96-3.2-4.6-6.21-4.8-.05 0-.14.12-.08.13 3.19.61 5.05 4 7.3 6.12 2.39 2.26 5.2 4.11 8.13 5.58 5.55 2.76 12.16 5.77 18.47 4.21.09-.02.26-.3.12-.27zm32.65-28.2c-1.72 3.31-4.33 6.2-6.88 8.89-2.34 2.47-4.7 4.66-7.36 6.79-4.87 3.91-10.05 7.4-15.14 11.01-.1.08-.2.39 0 .24 5.8-4.1 11.82-7.99 17.28-12.56 2.51-2.1 4.94-4.43 6.96-7.02 1.9-2.43 3.98-4.5 5.24-7.38.04-.09-.07-.02-.1.03zm-27.5-12.57S59.33 18.5 46.84 28.12s-7.25 9.17-3.63 12.82c0 0-2.31-2.33-1.57-4.77s4.66-6.01 9.71-9.56c5.05-3.56 14.2-10.07 19.84-12.3z" class="P Q"/></g></g></svg>