<svg xmlns="http://www.w3.org/2000/svg" xmlns:xlink="http://www.w3.org/1999/xlink" viewBox="0 0 225 92" xmlns:v="https://vecta.io/nano"><style><![CDATA[.K{fill:#e3eeff}.L{fill:#8fadc8}.M{opacity:.4}.N{fill:#bbd6ff}]]></style><path d="M108.39 44.61h10.68l-2.36-2.56c-.16-.18-.25-.41-.25-.66s.09-.49.25-.66l.61-.66c.08-.09.18-.16.28-.2.11-.05.22-.07.33-.07s.23.02.33.07a.95.95 0 0 1 .28.2l4.88 5.29c.16.18.25.41.25.66s-.09.49-.25.66l-4.89 5.29c-.08.09-.18.16-.28.2-.11.05-.22.07-.33.07s-.23-.02-.33-.07a.95.95 0 0 1-.28-.2l-.61-.66c-.16-.18-.25-.41-.25-.66s.09-.49.25-.66l2.36-2.56h-10.67a.84.84 0 0 1-.61-.27c-.16-.17-.25-.41-.25-.66v-.94c0-.25.09-.49.25-.66s.38-.29.61-.29z" class="K"/><g class="L"><path d="M57.86 31.89v2.4l-1.02-.03v-2.4l1.02.03zm0-9.61v4.81l-1.02-.03v-4.81l1.02.03zm0-7.21v2.4l-1.02-.03v-2.4l1.02.03zm-3.52 1.12l2.73-1.56.54.84-2.73 1.56-.54-.84zm-10.93 6.23l5.47-3.11.54.84-5.47 3.11-.54-.84zm-10.94 6.23l5.47-3.11.54.84-5.47 3.11-.54-.84zm-10.93 6.22L27 31.76l.54.84-5.47 3.11-.53-.84zm-8.2 4.68l2.73-1.56.54.84-2.73 1.56-.54-.84zm-.24 2.85v-2.45l1.02.03v2.45l-1.02-.03zm0 9.78v-4.89l1.02.03v4.89l-1.02-.03zm0 7.34v-2.45l1.02.03v2.45l-1.02-.03zm3.51-1.14l-2.73 1.58-.55-.84 2.73-1.58.55.84zm10.94-6.32l-5.47 3.16-.55-.84L27 51.22l.55.84zm10.93-6.31l-5.47 3.16-.55-.84 5.47-3.16.55.84zm10.94-6.32l-5.47 3.16-.55-.84 5.47-3.16.55.84zm8.2-4.73l-2.73 1.58-.55-.84 2.73-1.58.55.84zm-.79-2.84c0-.27.23-.48.51-.47s.51.23.51.5l-1.02-.03zm1.03-4.78c0 .27-.23.48-.51.47s-.51-.23-.51-.5l1.02.03zm-1.03-4.83c0-.27.23-.48.51-.47s.51.23.51.5l-1.02-.03zm1.03-4.78c0 .27-.23.48-.51.47s-.51-.23-.51-.5l1.02.03zm-2.98-.44a.54.54 0 0 1-.71-.17.47.47 0 0 1 .16-.67l.55.84zm-6.01 2.27a.54.54 0 0 1 .71.17.47.47 0 0 1-.16.67l-.55-.84zm-4.92 3.96a.54.54 0 0 1-.71-.17.47.47 0 0 1 .16-.67l.55.84zm-6.01 2.27a.54.54 0 0 1 .71.17.47.47 0 0 1-.16.67l-.55-.84zm-4.93 3.96a.54.54 0 0 1-.71-.17.47.47 0 0 1 .16-.67l.55.84zM27 31.76a.54.54 0 0 1 .71.17.47.47 0 0 1-.16.67l-.55-.84zm-4.92 3.96a.54.54 0 0 1-.71-.17.47.47 0 0 1 .16-.67l.55.84zm-6.01 2.27a.54.54 0 0 1 .71.17.47.47 0 0 1-.16.67l-.55-.84zm-1.95 4.44c0 .27-.23.48-.51.47s-.51-.23-.51-.5l1.02.03zm-1.02 4.86c0-.27.23-.48.51-.47s.51.23.51.5l-1.02-.03zm1.02 4.92c0 .27-.23.48-.51.47s-.51-.23-.51-.5l1.02.03zm-1.02 4.87c0-.27.23-.48.51-.47s.51.23.51.5l-1.02-.03zm2.97.46a.54.54 0 0 1 .71.17.47.47 0 0 1-.16.67l-.55-.84zm6.01-2.32a.54.54 0 0 1-.71-.17.47.47 0 0 1 .16-.67l.55.84zm4.92-4a.54.54 0 0 1 .71.17.47.47 0 0 1-.16.67l-.55-.84zm6.02-2.32a.54.54 0 0 1-.71-.17.47.47 0 0 1 .16-.67l.55.84zm4.92-3.99a.54.54 0 0 1 .71.17.47.47 0 0 1-.16.67l-.55-.84zm6.01-2.32a.54.54 0 0 1-.71-.17.47.47 0 0 1 .16-.67l.55.84zm4.92-3.99a.54.54 0 0 1 .71.17.47.47 0 0 1-.16.67l-.55-.84zm6.01-2.32a.54.54 0 0 1-.71-.17.47.47 0 0 1 .16-.67l.55.84zM13.61 59.54l.27.42c-.16.09-.36.09-.52 0s-.27-.26-.27-.43l.52.01zm0-19.57l-.51-.01c0-.17.09-.32.24-.41l.27.42zm43.73-24.92l-.27-.42c.16-.09.36-.09.52 0s.26.26.26.43l-.51-.01zm0 19.23l.51.01c0 .17-.09.32-.24.41l-.27-.42z"/><path d="M90.72 31.45l3 1.53-.46.86-3-1.53.46-.86zM78.7 25.33l6.01 3.06-.46.86-6.01-3.06.46-.86zm-12.02-6.12l6.01 3.06-.46.86-6.01-3.06.46-.86zm-9.01-4.59l3 1.53-.46.86-3-1.53.46-.86zm-.73 2.86l-.01-2.44 1.02.02.01 2.44-1.02-.02zm.05 9.74l-.03-4.87 1.02.02.03 4.87-1.02-.02zm.05 7.31l-.01-2.44 1.02.02.01 2.44-1.02-.02zm3.27 1.96l-3-1.52.46-.86 3 1.52-.46.86zm11.99 6.07l-5.99-3.04.46-.86 5.99 3.03-.46.87zm11.98 6.07l-5.99-3.04.46-.86 5.99 3.04-.46.86zm8.98 4.55l-3-1.52.46-.86 3 1.52-.46.86zm.75-2.83v2.42l-1.02-.03v-2.42l1.02.03zm0-9.67v4.84l-1.02-.03v-4.84l1.02.03zm0-7.26v2.42l-1.02-.03V33.4l1.02.02zm-3.75-1.11c-.25-.13-.35-.42-.23-.66.13-.24.44-.32.69-.2l-.46.86zm-5.55-3.92c.25.13.35.42.23.66-.13.24-.44.32-.69.2l.46-.86zm-6.47-2.2c-.25-.13-.35-.42-.23-.66s.44-.32.69-.2l-.46.86zm-5.55-3.92c.25.13.35.42.23.66-.13.24-.44.32-.69.2l.46-.86zm-6.47-2.2c-.25-.13-.35-.42-.23-.66s.44-.32.69-.2l-.46.86zm-5.55-3.92c.25.13.35.42.23.66-.13.24-.44.32-.69.2l.46-.86zm-2.71 1.35c0 .27-.23.48-.51.48a.51.51 0 0 1-.51-.5l1.02.02zm-1 4.85c0-.27.23-.48.51-.48.28.01.51.23.51.5l-1.02-.02zm1.06 4.89c0 .27-.23.48-.51.48-.28-.01-.51-.23-.51-.5l1.02.02zm-1 4.85c0-.27.23-.48.51-.48.28.01.51.23.51.5l-1.02-.02zm3.75 3.54c.25.13.35.42.23.66-.13.24-.44.33-.69.2l.46-.86zm5.53 3.89c-.25-.13-.35-.42-.23-.66.13-.24.44-.33.69-.2l-.46.86zm6.46 2.18c.25.13.35.42.23.66-.13.24-.44.33-.69.2l.46-.86zm5.53 3.89c-.25-.13-.35-.42-.23-.66.13-.24.44-.33.69-.2l-.46.86zm6.45 2.18c.25.13.35.42.23.66-.13.24-.44.33-.69.2l.46-.86zm5.53 3.89c-.25-.13-.35-.42-.23-.66.13-.24.44-.33.69-.2l-.46.86zm2.71-1.34c0-.27.23-.48.51-.47s.51.23.51.5l-1.02-.03zm1.03-4.81c0 .27-.23.48-.51.47s-.51-.23-.51-.5l1.02.03zm-1.03-4.86c0-.27.23-.48.51-.47s.51.23.51.5l-1.02-.03zm1.03-4.81c0 .27-.23.48-.51.47s-.51-.23-.51-.5l1.02.03zm-.52 16.91l.51.01c0 .17-.09.32-.24.41a.55.55 0 0 1-.5.01l.23-.43zM57.55 34.54l-.23.43c-.17-.09-.28-.26-.28-.44l.51.01zm-.12-19.49l-.51-.01c0-.17.09-.33.24-.41.15-.09.34-.09.5-.01l-.23.43zm36.06 18.36l.23-.43c.17.09.28.26.28.44l-.51-.01z"/></g><path d="M49.84 69.57c.26.03.4.22.58.57.35.67 1.11 1.14 1.54 1.35.12.06.23.1.33.11.16.02.29-.03.4-.14.43-.43.44-1.75.35-2.48l-.01-.1.09-.04 1.48-.63 1.94-.81c1.47-.55 2.89-1.29 4.27-2.01l1.1-.57c4.3-2.18 7.59-4.03 10.69-5.97 2.75-1.72 5.66-4.25 8.93-7.72l.36-.38c1.12-1.18 2.27-2.41 3.25-3.72l.6-.78c.56-.72 1.09-1.4 1.53-2.19l.06-.07h.05c.15-.02.31-.03.46-.03.18-.01.34-.01.5-.04.54-.08 1.04-.2 1.52-.36l.04-.02c.26-.09.86-.28.9-.59.06-.44-.86-.66-1.3-.76-.08-.02-.15-.04-.2-.05-.64-.18-1.09-.26-1.62-.28h-.14c-.2-.01-.46-.03-.72-.02h-.08l-.04-.06c-1.27-2.05-2.86-4.4-4.89-6.29-1.89-1.75-4.27-3.1-6.55-4.3-2.79-1.46-5.73-2.24-8.24-2.8l-3.25-.72-.99-.22c-.4-.09-1.46-.3-2.03-.29h-.11l-.02-.11c-.01-.07-.02-.14-.05-.2-.07-.17-.17-.34-.32-.53-.16-.2-.33-.41-.52-.43-.07-.01-.15 0-.24.05-.23.11-.35.66-.41.95-.01.06-.03.11-.04.16a4.89 4.89 0 0 0-.08.37c-.07.29-.14.6-.23.9 0 .01-.01.03-.02.07l-.06.16-.07.01c-3.21.57-6.36 1.95-9.4 3.28l-1.87.81c-4.07 1.73-8.15 3.77-12.12 6.06-4.09 2.36-7.54 4.73-10.56 7.25-.27.22-.72.55-1.2.91-.82.61-1.76 1.29-2.13 1.7-.38.4-1.09.46-1.77.52s-1.38.13-1.65.52c-.04.06-.03.09-.02.12.1.29 1.1.57 1.82.79.6.17 1.16.34 1.44.52.5.32 1.13 1.55 1.69 2.63.32.63.63 1.22.83 1.49 3.04 3.91 6.11 6.85 9.63 9.26 3.88 2.65 7.73 4.33 11.47 4.99.51.09.96.16 1.38.21 1.27.16 2.35.16 3.29.02.17-.07.31-.08.43-.07zm2.42 2.28c-.13-.02-.27-.06-.41-.14-.45-.23-1.26-.73-1.65-1.46-.18-.35-.27-.41-.38-.43-.09-.01-.21.01-.39.04-.99.15-2.09.14-3.38-.01a24.08 24.08 0 0 1-1.4-.21c-3.77-.67-7.66-2.36-11.56-5.04-3.55-2.43-6.63-5.39-9.69-9.32-.22-.29-.51-.86-.86-1.52-.52-1-1.16-2.25-1.6-2.53-.25-.16-.8-.33-1.37-.49-1.12-.33-1.85-.57-2-.95a.39.39 0 0 1 .05-.35c.34-.49 1.1-.56 1.83-.63.64-.06 1.29-.12 1.61-.45.4-.43 1.34-1.11 2.17-1.73.48-.35.93-.68 1.19-.9 3.03-2.53 6.49-4.92 10.59-7.28a114.66 114.66 0 0 1 12.15-6.07l1.87-.81c3.04-1.33 6.17-2.7 9.39-3.28l.03-.08c.09-.28.16-.59.23-.88l.09-.37c-.01-.03 0-.08.02-.14.09-.38.21-.96.56-1.12a.66.66 0 0 1 .38-.07c.3.03.5.28.69.53.17.21.29.4.36.6.02.04.03.09.04.13.17.01.37.02.58.04.55.06 1.13.19 1.4.25l.99.22 3.25.72c2.53.56 5.49 1.34 8.3 2.82 2.31 1.21 4.7 2.58 6.61 4.35 2.04 1.89 3.62 4.23 4.89 6.28.25-.01.49.01.67.02l.14.01c.54.02 1.01.11 1.68.29.05.01.11.03.19.05.55.13 1.58.37 1.5 1.04-.06.47-.72.68-1.07.8l-.04.02a9.36 9.36 0 0 1-1.56.37c-.17.03-.35.03-.52.04-.13.01-.26.01-.39.02-.44.78-.96 1.45-1.53 2.17l-.6.77c-.99 1.33-2.15 2.56-3.27 3.75l-.36.38c-3.27 3.49-6.21 6.02-8.97 7.76-3.11 1.95-6.41 3.79-10.71 5.98l-1.1.57c-1.38.72-2.82 1.46-4.3 2.02-.64.25-1.29.53-1.92.81l-1.39.6c.08.73.08 2.07-.44 2.6-.15.17-.36.24-.59.21z" class="N"/><path d="M89.3 42.02c-.56-.15-1.07-.26-1.65-.28l-.88-.03c-1.4-2.26-2.95-4.5-4.92-6.32-1.89-1.75-4.31-3.12-6.58-4.32-2.61-1.37-5.41-2.17-8.27-2.81l-4.16-.92c-.34-.07-1.4-.32-2.15-.31-.02-.08-.03-.15-.06-.22-.08-.21-.2-.39-.34-.57-.26-.32-.5-.61-.91-.42-.34.17-.45.91-.52 1.2l-.32 1.26c0 .01-.03.07-.06.15-3.89.69-7.72 2.57-11.29 4.09-4.17 1.77-8.22 3.8-12.13 6.06-3.74 2.15-7.27 4.5-10.57 7.27-.7.59-2.73 1.96-3.34 2.62-.71.76-2.84.21-3.43 1.06-.49.72 2.52 1.12 3.27 1.61.76.49 1.93 3.37 2.49 4.09 2.81 3.61 5.86 6.69 9.66 9.29 3.45 2.36 7.38 4.28 11.51 5.01 1.52.27 3.18.46 4.72.23.53-.08.64-.11.92.46.32.62.99 1.09 1.59 1.41 1.39.71 1.38-1.73 1.27-2.64 1.14-.46 2.26-1.01 3.4-1.45 1.86-.7 3.62-1.68 5.38-2.58 3.67-1.87 7.21-3.79 10.7-5.98 3.26-2.05 6.32-4.94 8.95-7.74 1.25-1.33 2.52-2.65 3.62-4.12.76-1.02 1.54-1.91 2.13-2.98 0-.01.01-.01.02-.01.32-.04.67-.03.97-.08.53-.08 1.04-.2 1.54-.37.29-.1.97-.3 1.02-.71.1-.64-1.19-.85-1.58-.95z" class="K"/><defs><path id="A" d="M89.3 42.02c-.56-.15-1.07-.26-1.65-.28l-.88-.03c-1.4-2.26-2.95-4.5-4.92-6.32-1.89-1.75-4.31-3.12-6.58-4.32-2.61-1.37-5.41-2.17-8.27-2.81l-4.16-.92c-.34-.07-1.4-.32-2.15-.31-.02-.08-.03-.15-.06-.22-.08-.21-.2-.39-.34-.57-.26-.32-.5-.61-.91-.42-.34.17-.45.91-.52 1.2l-.32 1.26c0 .01-.03.07-.06.15-3.89.69-7.72 2.57-11.29 4.09-4.17 1.77-8.22 3.8-12.13 6.06-3.74 2.15-7.27 4.5-10.57 7.27-.7.59-2.73 1.96-3.34 2.62-.71.76-2.84.21-3.43 1.06-.49.72 2.52 1.12 3.27 1.61.76.49 1.93 3.37 2.49 4.09 2.81 3.61 5.86 6.69 9.66 9.29 3.45 2.36 7.38 4.28 11.51 5.01 1.52.27 3.18.46 4.72.23.53-.08.64-.11.92.46.32.62.99 1.09 1.59 1.41 1.39.71 1.38-1.73 1.27-2.64 1.14-.46 2.26-1.01 3.4-1.45 1.86-.7 3.62-1.68 5.38-2.58 3.67-1.87 7.21-3.79 10.7-5.98 3.26-2.05 6.32-4.94 8.95-7.74 1.25-1.33 2.52-2.65 3.62-4.12.76-1.02 1.54-1.91 2.13-2.98 0-.01.01-.01.02-.01.32-.04.67-.03.97-.08.53-.08 1.04-.2 1.54-.37.29-.1.97-.3 1.02-.71.1-.64-1.19-.85-1.58-.95z"/></defs><clipPath id="B"><use xlink:href="#A"/></clipPath><path d="M91.88 43.11c.08-.55-.17-.99-.45-1.26-.25-.25-.56-.39-.78-.49-.44-.18-1.01-.29-1.09-.31l-.5 1.94.21.05c.07.02.14.03.22.05.16.04.3.08.42.13.13.05.16.08.13.06-.02-.02-.06-.07-.1-.15-.04-.09-.05-.2-.04-.29l1.98.27zm-1.7 1.52c.12-.04.46-.14.76-.31.24-.13.85-.5.94-1.23l-1.99-.23c.02-.18.11-.28.13-.31.02-.02.02-.01-.03.02s-.12.06-.2.09l-.24.08.63 1.89zm-1.7.4c.58-.09 1.14-.22 1.7-.41l-.63-1.9c-.45.15-.9.25-1.38.33l.31 1.98zm-1 .09l.43-.03.58-.05-.31-1.98-.38.03-.55.04.23 1.99zm.86-.87a1.01 1.01 0 0 1-.24.54c-.13.14-.26.21-.29.22-.02.01-.03.02-.03.01 0 0 .02-.01.03-.02.04-.02.1-.06.17-.11l-1.24-1.57a1.21 1.21 0 0 1 .16-.1c.01 0 .02-.01.02-.01.01 0 0 .01-.02.02-.03.02-.17.09-.3.23-.15.17-.23.37-.25.55l1.99.24zm-2.33 3.46c.71-.94 1.57-1.95 2.21-3.09l-1.74-.98c-.55.99-1.24 1.77-2.06 2.87l1.59 1.2zm-3.68 4.21l3.69-4.2-1.6-1.2c-1.05 1.41-2.28 2.69-3.54 4.03l1.45 1.37zm-9.15 7.9c3.36-2.11 6.5-5.08 9.15-7.9l-1.46-1.37c-2.6 2.77-5.6 5.6-8.75 7.58l1.06 1.69zM62.4 65.84c3.69-1.88 7.25-3.81 10.78-6.02l-1.06-1.69c-3.46 2.17-6.96 4.07-10.62 5.93l.9 1.78zm-5.49 2.63c1.93-.72 3.77-1.75 5.49-2.63l-.91-1.78c-1.82.93-3.49 1.87-5.28 2.54l.7 1.87zm-3.38 1.44c.59-.24 1.17-.5 1.73-.75s1.11-.49 1.65-.69l-.71-1.87a35.4 35.4 0 0 0-1.75.73l-1.67.72.75 1.86zm-2.1 2.59c.57.29 1.26.37 1.85-.07.48-.36.68-.91.77-1.29.2-.81.16-1.78.09-2.29l-1.98.25c.05.4.07 1.1-.05 1.56-.06.25-.12.23-.02.16.07-.05.16-.08.25-.08.07 0 .08.02 0-.02l-.91 1.78zm-2.02-1.83c.47.89 1.35 1.49 2.01 1.83l.93-1.77c-.55-.29-.99-.64-1.17-.99l-1.77.93zm.11.06c.07-.01.12-.02.16-.02.04-.01.06-.01.07-.01.02 0-.08.01-.22-.05-.07-.03-.12-.06-.16-.1-.04-.03-.06-.06-.06-.06l.02.03c.02.03.04.07.07.13l1.78-.91c-.12-.24-.36-.73-.88-.94-.26-.11-.51-.11-.67-.1-.15.01-.31.04-.42.05l.31 1.98zm-5.04-.22c1.54.27 3.34.49 5.05.23l-.3-1.98c-1.37.21-2.9.04-4.4-.22l-.35 1.97zm-11.91-5.17c3.53 2.41 7.59 4.41 11.9 5.17l.35-1.97c-3.95-.7-7.75-2.54-11.12-4.85l-1.13 1.65zm-9.88-9.51c2.86 3.68 5.98 6.83 9.88 9.5l1.13-1.65c-3.69-2.53-6.67-5.53-9.43-9.08l-1.58 1.23zm-2.24-3.86c-.01-.01.1.09.33.44.2.31.42.71.64 1.14.2.37.47.92.65 1.26.19.37.41.76.61 1.02l1.58-1.22c-.08-.1-.22-.34-.43-.73l-.65-1.26c-.23-.44-.48-.9-.73-1.29-.22-.34-.54-.79-.93-1.04l-1.07 1.68zm-3.56-3.01a1.24 1.24 0 0 0-.11 1.24c.16.34.43.54.59.65.35.23.82.39 1.21.52l1.21.37.46.15c.06.02.11.04.14.06.04.02.05.03.05.03l1.09-1.68c-.32-.21-.79-.36-1.14-.47l-1.19-.36c-.4-.13-.63-.23-.73-.29-.06-.04.05.01.13.19.12.27.06.56-.05.73l-1.66-1.14zm3.53-1.18c.03-.03 0 .02-.24.07-.23.05-.51.08-.88.11-.33.03-.77.07-1.16.18s-.9.32-1.24.82l1.65 1.13c-.05.07-.07.03.12-.02s.45-.08.81-.12c.32-.03.75-.06 1.13-.15.38-.08.88-.25 1.27-.66l-1.46-1.36zm3.43-2.7c-.32.27-.95.72-1.65 1.24-.64.48-1.39 1.04-1.78 1.45l1.46 1.37c.23-.25.81-.7 1.51-1.22.64-.47 1.37-1 1.75-1.32l-1.29-1.52zm10.72-7.37c-3.78 2.17-7.36 4.55-10.72 7.37l1.29 1.53c3.24-2.73 6.72-5.04 10.43-7.17l-1-1.73zm12.24-6.12c-4.21 1.79-8.29 3.84-12.24 6.11l1 1.73c3.88-2.24 7.9-4.25 12.02-6.01l-.78-1.83zm11.51-4.15c-4.04.72-8.01 2.67-11.51 4.16l.78 1.84c3.66-1.56 7.33-3.36 11.08-4.03l-.35-1.97zm-.76.71c0-.03.01-.05.01-.07s.01-.04.01-.05c.01-.02.01-.04.02-.06s.01-.04.01-.04c-.01.02-.03.07-.05.13l1.87.71c.01-.02.02-.04.03-.07 0-.01.01-.04.02-.06 0-.01.01-.04.02-.06 0-.01.01-.04.02-.06s.02-.07.02-.13l-1.98-.24zm.34-1.37c-.12.48-.18.82-.3 1.2l1.91.6c.14-.45.25-.96.33-1.32l-1.94-.48zm1.06-1.86c-.33.16-.52.41-.63.6a2.3 2.3 0 0 0-.24.55c-.09.27-.17.68-.18.71l1.94.5c.01-.05.03-.11.04-.16l.03-.15c.02-.1.05-.19.07-.27.01-.04.02-.07.03-.09s.02-.03.02-.03c-.02.02-.03.03-.04.05-.03.03-.08.08-.16.11l-.88-1.82zm2.12.69c-.1-.12-.33-.43-.65-.62-.18-.11-.41-.21-.69-.23a1.52 1.52 0 0 0-.77.15l.84 1.81c-.02.01-.1.04-.21.03s-.19-.04-.22-.07c-.03-.02-.03-.02.01.01.04.04.08.09.14.17l1.55-1.25zm.51.84c-.13-.34-.32-.62-.51-.85l-1.54 1.27a1.13 1.13 0 0 1 .18.28l1.87-.7zm.09.35c0-.01 0-.02-.01-.04 0-.02-.01-.04-.02-.07-.01-.05-.04-.15-.08-.26l-1.85.76c-.01-.02-.02-.04-.02-.05 0 .01 0 .02.01.04a.31.31 0 0 0 .02.08l1.95-.46zm1.38-.44c-.29-.06-1.48-.35-2.37-.34l.02 2c.61-.01 1.53.21 1.92.29l.43-1.95zm4.17.92l-4.16-.92-.43 1.95 4.16.92.43-1.95zm8.52 2.9c-2.73-1.43-5.63-2.25-8.51-2.9l-.44 1.95c2.83.64 5.53 1.41 8.02 2.72l.93-1.77zm6.79 4.47c-2-1.85-4.51-3.27-6.79-4.47l-.93 1.77c2.27 1.19 4.58 2.51 6.37 4.17l1.35-1.47zm5.09 6.53c-1.42-2.28-3.02-4.62-5.09-6.53l-1.36 1.47c1.86 1.72 3.35 3.87 4.74 6.11l1.71-1.05zm.07-.44c-.15-.01-.56-.04-.95-.03l.04 2c.3-.01.58.02.81.03l.1-2zm1.87.32c-.59-.16-1.19-.29-1.88-.32l-.07 2a5.82 5.82 0 0 1 1.42.25l.53-1.93zm1.32 1.91l-.99-.14v.02l.99.12zm-1.02.71l-.31-.95.31.95zm-1.54.37l-.15-.99.15.99zm-.97.07l-.12-.99-.28.03-.22.18.62.78zm-.01.02l.87.49.1-.17.02-.2-.99-.12zm-2.14 2.97l-.8-.6.8.6zm-3.61 4.12l-.73-.68.73.68zm-8.95 7.74l.53.85-.53-.85zm-10.7 5.98l-.45-.89.45.89zm-5.39 2.58l-.35-.94.35.94zm-3.4 1.45l-.37-.93-.71.29.09.76.99-.12zm-1.27 2.63l-.46.89h.01l.45-.89zM50.3 70.2l-.89.45v.01l.89-.46zm-.93-.45l.15.99-.15-.99zm-4.72-.23l-.17.98.17-.98zm-11.51-5.01l-.57.82.57-.82zm-9.66-9.29l-.79.61.79-.61zm-2.49-4.09l-.54.84.54-.84zm-3.27-1.61l-.82-.57.82.57zm3.43-1.06l.73.68-.73-.68zm3.34-2.62l-.64-.77.64.77zm10.57-7.26l.5.87-.5-.87zm12.14-6.07l.39.92-.39-.92zm11.29-4.09l.18.98.56-.1.2-.53-.94-.35zm.06-.15l-.95-.3-.03.09-.01.09.99.12zm.32-1.25l-.97-.25v.01l.97.24zm.52-1.2l-.42-.91h-.02l.44.91zm.92.42l-.78.63.01.01.77-.64zm.34.57l-.94.35.02.02.92-.37zm.06.22l-.97.23.18.78.8-.01-.01-1zm2.14.31l.22-.98-.22.98zm4.16.92l.22-.98-.22.98zm8.27 2.81l.47-.88-.47.88zm6.58 4.32l-.68.73.68-.73zm4.92 6.32l-.85.53.3.49.57-.01-.02-1.01zm.87.03l-.05 1h.01l.04-1zm1.65.28l-.27.96h.02l.25-.96z" clip-path="url(#B)" class="L"/><path d="M78.39 39.85c-1.16 2.68-3.46 4.62-5.71 6.38l-7.96 5.9c-6.07 3.82-13.14 6.38-20.36 6.5-6.37.1-13.86-2.64-17.68-8.02-.65-.91-1.58-2.17-1.08-3.36.52-1.22 1.42-2.05 2.48-2.81 3.03-2.15 6.12-4.08 9.38-5.86 1.53-.84 3.1-1.61 4.68-2.34 2.47-1.43 5.03-2.72 7.66-3.83 3.01-1.27 6.13-2.35 9.31-3.13 3.24-.8 6.21-.61 9.31.65 2.87 1.16 5.4 2.86 7.78 4.84 1.5 1.25 3.1 3 2.19 5.08zm10.91 2.17c-.56-.15-1.07-.26-1.65-.28-.19-.01-.54-.04-.88-.03-1.4-2.26-2.95-4.5-4.92-6.32-1.89-1.75-4.31-3.12-6.58-4.32-2.61-1.37-5.41-2.17-8.27-2.81l-4.16-.92c-.34-.07-1.4-.32-2.15-.31-.02-.08-.03-.15-.06-.22-.08-.21-.2-.39-.34-.57-.26-.32-.5-.61-.91-.42-.34.17-.45.91-.52 1.2-.1.42-.19.84-.32 1.26 0 .01-.03.07-.06.15-3.89.69-7.72 2.57-11.29 4.09-4.17 1.77-8.22 3.8-12.13 6.06-3.74 2.15-7.27 4.5-10.57 7.27-.7.59-2.73 1.96-3.34 2.62-.71.76-2.84.21-3.43 1.06-.49.72 2.52 1.12 3.27 1.61.76.49 1.93 3.37 2.49 4.09 2.81 3.61 5.86 6.69 9.66 9.29 3.45 2.36 7.38 4.28 11.51 5.01 1.52.27 3.18.46 4.72.23.53-.08.64-.11.92.46.32.62.99 1.09 1.59 1.41 1.39.71 1.38-1.73 1.27-2.64 1.14-.46 2.26-1.01 3.4-1.45 1.86-.7 3.62-1.68 5.38-2.58 3.67-1.87 7.21-3.79 10.7-5.98 3.26-2.05 6.32-4.94 8.95-7.74 1.25-1.33 2.52-2.65 3.62-4.12.76-1.02 1.54-1.91 2.13-2.98 0-.01.01-.01.02-.01.32-.04.67-.03.97-.08.53-.08 1.04-.2 1.54-.37.29-.1.97-.3 1.02-.71.1-.64-1.19-.85-1.58-.95z" class="K M"/><path d="M89.31 42.02c-.56-.15-1.07-.26-1.65-.28l-.88-.03c-1.4-2.26-2.95-4.5-4.92-6.32l-1.17-.98c1.16 1.88 1.97 3.93 2.04 6.27.04 1.15.49 3.16-1.02 3.61-.72.22-1.47.26-2.22.25 1.08.3 2.1.72 2.84 1.61.1.11.06.27-.04.36-8.31 7.86-18.13 13.76-28.56 18.35-.19.09-.36-.08-.36-.27 0-.73.42-3.14.18-4.68-.14.61-.27 1.21-.45 1.81-.24.81-.55 2.13-1.3 2.67-1.47 1.06-3.58-.58-5.24-1.31 1.39 1.36 2.81 2.69 3.96 4.27.11.16.03.38-.16.41-3.3.54-6.78-.51-9.75-1.89-3.22-1.5-6.53-3.28-9.38-5.41-2.87-2.16-5.63-4.98-7.43-8.11-.69-1.22-1.31-2.51-.9-3.94.22-.77.59-1.48 1.02-2.14-.9.67-2.28 1.65-2.77 2.17-.71.76-2.84.21-3.43 1.06-.49.72 2.52 1.12 3.27 1.61.76.49 1.93 3.37 2.49 4.09 2.81 3.61 5.86 6.69 9.66 9.29 3.45 2.36 7.38 4.28 11.51 5.01 1.52.27 3.18.46 4.72.23.53-.08.64-.11.92.46.32.62.99 1.09 1.59 1.41 1.39.71 1.38-1.73 1.27-2.64 1.14-.46 2.26-1.01 3.4-1.45 1.86-.7 3.62-1.68 5.38-2.58 3.67-1.87 7.21-3.79 10.7-5.98 3.26-2.05 6.32-4.94 8.95-7.74 1.25-1.33 2.52-2.65 3.62-4.12.76-1.02 1.54-1.91 2.13-2.98 0-.01.01-.01.02-.01.32-.04.67-.03.97-.08.53-.08 1.04-.2 1.54-.37.29-.1.97-.3 1.02-.71.1-.61-1.19-.82-1.57-.92z" class="M N"/><path d="M50.69 68.86c-6.91.5-14.13-3.4-19.38-7.63-2.34-1.88-4.37-3.78-6.24-6.16-1.67-2.12-2.58-4.82-5.47-5.36-.05-.01-.15.1-.1.12 3.02.96 4.44 4.45 6.38 6.76 2.06 2.46 4.57 4.58 7.25 6.33 5.06 3.31 11.12 6.97 17.42 6.18.09 0 .29-.25.14-.24zm34.86-23.62c-2.04 3.01-4.9 5.51-7.68 7.83a69.48 69.48 0 0 1-7.9 5.74c-5.16 3.23-10.58 6.03-15.92 8.95-.11.06-.24.35-.03.24 6.09-3.32 12.36-6.4 18.17-10.21 2.67-1.75 5.29-3.74 7.54-6.01 2.12-2.14 4.36-3.91 5.91-6.56.06-.08-.07-.03-.09.02z" class="M K"/><defs><path id="C" d="M89.19 41.95c-.56-.15-1.07-.26-1.65-.28l-.88-.03c-1.4-2.26-2.95-4.5-4.92-6.32-1.89-1.75-4.31-3.12-6.58-4.32-2.61-1.37-5.41-2.17-8.27-2.81l-4.16-.92c-.34-.07-1.4-.32-2.15-.31-.02-.08-.03-.15-.06-.22-.08-.21-.2-.39-.34-.57-.26-.32-.5-.61-.91-.42-.34.17-.45.91-.52 1.2l-.32 1.26c0 .01-.03.07-.06.15-3.89.69-7.72 2.57-11.29 4.09-4.17 1.77-8.22 3.8-12.13 6.06-3.74 2.15-7.27 4.5-10.57 7.27-.7.59-2.73 1.96-3.34 2.62-.71.76-2.84.21-3.43 1.06-.49.72 2.52 1.12 3.27 1.61.76.49 1.93 3.37 2.49 4.09 2.81 3.61 5.86 6.69 9.66 9.29 3.45 2.36 7.38 4.28 11.51 5.01 1.52.27 3.18.46 4.72.23.53-.08.64-.11.92.46.32.62.99 1.09 1.59 1.41 1.39.71 1.38-1.73 1.27-2.64 1.14-.46 2.26-1.01 3.4-1.45 1.86-.7 3.62-1.68 5.38-2.58 3.67-1.87 7.21-3.79 10.7-5.98 3.26-2.05 6.32-4.94 8.95-7.74 1.25-1.33 2.52-2.65 3.62-4.12.76-1.02 1.54-1.91 2.13-2.98 0-.01.01-.01.02-.01.32-.04.67-.03.97-.08.53-.08 1.04-.2 1.54-.37.29-.1.97-.3 1.02-.71.09-.65-1.2-.85-1.58-.95z"/></defs><clipPath id="D"><use xlink:href="#C"/></clipPath><path d="M91.76 43.04c.08-.55-.17-.99-.45-1.26-.25-.25-.56-.39-.78-.49-.44-.18-1.01-.29-1.09-.31l-.5 1.94.21.05c.07.02.14.03.22.05.16.04.3.08.42.13.13.05.16.08.13.06-.02-.02-.06-.07-.1-.15-.04-.09-.05-.2-.04-.29l1.98.27zm-1.7 1.52c.12-.04.46-.14.76-.31.24-.13.85-.5.94-1.23l-1.99-.23c.02-.18.11-.28.13-.31.02-.02.02-.01-.03.02s-.12.06-.2.09l-.24.08.63 1.89zm-1.7.4c.58-.09 1.14-.22 1.7-.41l-.63-1.9c-.45.15-.9.25-1.38.33l.31 1.98zm-1 .09l.43-.03.58-.05-.31-1.98-.38.03-.55.04.23 1.99zm.86-.87a1.01 1.01 0 0 1-.24.54c-.13.14-.26.21-.29.22-.02.01-.03.02-.03.01 0 0 .02-.01.03-.02.04-.02.1-.06.17-.11l-1.24-1.57a1.21 1.21 0 0 1 .16-.1c.01 0 .02-.01.02-.01.01 0 0 .01-.02.02-.03.02-.17.09-.3.23-.15.17-.23.37-.25.55l1.99.24zm-2.32 3.46c.71-.94 1.57-1.95 2.21-3.09l-1.74-.98c-.55.99-1.24 1.77-2.06 2.87l1.59 1.2zm-3.69 4.21l3.69-4.2-1.6-1.2c-1.05 1.41-2.28 2.69-3.54 4.03l1.45 1.37zm-9.15 7.9c3.36-2.11 6.5-5.08 9.15-7.9l-1.46-1.37c-2.6 2.77-5.6 5.6-8.75 7.58l1.06 1.69zm-10.78 6.02c3.69-1.88 7.25-3.81 10.78-6.02L72 58.05c-3.46 2.17-6.96 4.07-10.62 5.93l.9 1.79zm-5.49 2.63c1.93-.72 3.77-1.75 5.49-2.63l-.91-1.78c-1.82.93-3.49 1.87-5.28 2.54l.7 1.87zm-3.38 1.43c.59-.24 1.17-.5 1.73-.75s1.11-.49 1.65-.69l-.71-1.87a35.4 35.4 0 0 0-1.75.73l-1.67.72.75 1.86zm-2.09 2.6c.57.29 1.26.37 1.85-.07.48-.36.68-.91.77-1.29.2-.81.16-1.78.09-2.29l-1.98.25c.05.4.07 1.1-.05 1.56-.06.25-.12.23-.02.16.07-.05.16-.08.25-.08.07 0 .08.02 0-.02l-.91 1.78zm-2.03-1.83c.47.89 1.35 1.49 2.01 1.83l.93-1.77c-.55-.29-.99-.64-1.17-.99l-1.77.93zm.12.06c.07-.01.12-.02.16-.02.04-.01.06-.01.07-.01.02 0-.08.01-.22-.05-.07-.03-.12-.06-.16-.1-.04-.03-.06-.06-.06-.06l.02.03a1.31 1.31 0 0 1 .07.13l1.78-.91c-.12-.24-.36-.73-.88-.94-.26-.11-.51-.11-.67-.1-.15.01-.31.04-.42.05l.31 1.98zm-5.05-.23c1.54.27 3.34.49 5.05.23l-.3-1.98c-1.37.21-2.9.04-4.4-.22l-.35 1.97zm-11.9-5.16c3.53 2.41 7.59 4.41 11.9 5.17l.35-1.97c-3.95-.7-7.75-2.54-11.12-4.85l-1.13 1.65zm-9.88-9.51c2.86 3.68 5.98 6.83 9.88 9.5l1.13-1.65c-3.69-2.53-6.67-5.53-9.43-9.08l-1.58 1.23zm-2.24-3.86c-.01-.01.1.09.33.44.2.31.42.71.64 1.14.2.37.47.92.65 1.26.19.37.41.76.61 1.02l1.58-1.22c-.08-.1-.22-.34-.43-.73l-.65-1.26c-.23-.44-.48-.9-.73-1.29-.22-.34-.54-.79-.93-1.04l-1.07 1.68zm-3.56-3.01a1.24 1.24 0 0 0-.11 1.24c.16.34.43.54.59.65.35.23.82.39 1.21.52l1.21.37.46.15c.06.02.11.04.14.06.04.02.05.03.05.03l1.09-1.68c-.32-.21-.79-.36-1.14-.47l-1.19-.36c-.4-.13-.63-.23-.73-.29-.06-.04.05.01.13.19.12.27.06.56-.05.73l-1.66-1.14zm3.52-1.18c.03-.03 0 .02-.24.07-.23.05-.51.08-.88.11-.33.03-.77.07-1.16.18s-.9.32-1.24.82l1.65 1.13c-.05.07-.07.03.12-.02s.45-.08.81-.12c.32-.03.75-.06 1.13-.15.38-.08.88-.25 1.27-.66l-1.46-1.36zm3.43-2.7c-.32.27-.95.72-1.65 1.24-.64.48-1.39 1.04-1.78 1.45l1.46 1.37c.23-.25.81-.7 1.51-1.22.64-.47 1.37-1 1.75-1.32l-1.29-1.52zm10.72-7.37c-3.78 2.17-7.36 4.55-10.72 7.37l1.29 1.53c3.24-2.73 6.72-5.04 10.43-7.17l-1-1.73zm12.24-6.12c-4.21 1.79-8.29 3.84-12.24 6.11l1 1.73c3.88-2.24 7.9-4.25 12.02-6.01l-.78-1.83zm11.51-4.15c-4.04.72-8.01 2.67-11.51 4.16l.78 1.84c3.66-1.56 7.33-3.36 11.08-4.03l-.35-1.97zm-.76.71c0-.03.01-.05.01-.07s.01-.04.01-.05c.01-.02.01-.04.02-.06s.01-.04.01-.04c-.01.02-.03.07-.05.13l1.87.71c.01-.02.02-.04.03-.07 0-.01.01-.04.02-.06 0-.01.01-.04.02-.06 0-.01.01-.04.02-.06s.02-.07.02-.13l-1.98-.24zm.34-1.38c-.12.48-.18.82-.3 1.2l1.91.6c.14-.45.25-.96.33-1.32l-1.94-.48zm1.06-1.85c-.33.16-.52.41-.63.6a2.3 2.3 0 0 0-.24.55c-.09.27-.17.68-.18.71l1.94.5c.01-.05.03-.11.04-.16l.03-.15c.02-.1.05-.19.07-.27.01-.04.02-.07.03-.09s.02-.03.02-.03c-.02.02-.03.03-.04.05-.03.03-.08.08-.16.11l-.88-1.82zm2.13.69c-.1-.12-.33-.43-.65-.62-.18-.11-.41-.21-.69-.23a1.52 1.52 0 0 0-.77.15l.84 1.81c-.02.01-.1.04-.21.03s-.19-.04-.22-.07c-.03-.02-.03-.02.01.01.04.04.08.09.14.17l1.55-1.25zm.5.84c-.13-.34-.32-.62-.51-.85l-1.54 1.27a1.13 1.13 0 0 1 .18.28l1.87-.7zm.09.34c0-.01 0-.02-.01-.04 0-.02-.01-.04-.02-.07-.01-.05-.04-.15-.08-.26l-1.85.76c-.01-.02-.02-.04-.02-.05 0 .01 0 .02.01.04 0 .02.01.05.02.08l1.95-.46zm1.39-.43c-.29-.06-1.48-.35-2.37-.34l.02 2c.61-.01 1.53.21 1.92.29l.43-1.95zm4.16.92l-4.16-.92-.43 1.95 4.16.92.43-1.95zm8.52 2.9c-2.73-1.43-5.63-2.25-8.51-2.9l-.44 1.95c2.83.64 5.53 1.41 8.02 2.72l.93-1.77zm6.79 4.47c-2-1.85-4.51-3.27-6.79-4.47l-.93 1.77c2.27 1.19 4.58 2.51 6.37 4.17l1.35-1.47zm5.09 6.53c-1.42-2.28-3.02-4.62-5.09-6.53l-1.36 1.47c1.86 1.72 3.35 3.87 4.74 6.11l1.71-1.05zm.07-.44c-.15-.01-.56-.04-.95-.03l.04 2c.3-.01.58.02.81.03l.1-2zm1.87.31c-.59-.16-1.19-.29-1.88-.32l-.07 2a5.82 5.82 0 0 1 1.42.25l.53-1.93zm1.32 1.92l-.99-.14v.02l.99.12zm-1.02.71l-.31-.95.31.95zm-1.54.36l-.15-.99.15.99zm-.97.08l-.12-.99-.28.03-.22.18.62.78zm-.01.01l.87.49.1-.17.02-.2-.99-.12zm-2.13 2.98l-.8-.6.8.6zm-3.62 4.12l-.73-.68.73.68zm-8.95 7.74l.53.85-.53-.85zm-10.7 5.98l-.45-.89.45.89zm-5.39 2.58l-.35-.94.35.94zm-3.4 1.45l-.37-.93-.71.29.09.76.99-.12zm-1.27 2.63l-.46.89h.01l.45-.89zm-1.59-1.41l-.89.45v.01l.89-.46zm-.92-.46l.15.99-.15-.99zm-4.73-.22l-.17.98.17-.98zm-11.51-5.01l-.57.82.57-.82zm-9.65-9.29l-.79.61.79-.61zm-2.49-4.09l-.54.84.54-.84zm-3.28-1.61l-.82-.57.82.57zm3.43-1.06l.73.68-.73-.68zm3.35-2.62l-.64-.77.64.77zm10.57-7.27l.5.87-.5-.87zm12.13-6.06l.39.92-.39-.92zm11.29-4.09l.18.98.56-.1.2-.53-.94-.35zm.06-.15l-.95-.3-.03.09-.01.09.99.12zm.32-1.26l-.97-.25v.01l.97.24zm.52-1.19l-.42-.91h-.02l.44.91zm.92.42l-.78.63.01.01.77-.64zm.34.57l-.94.35.02.02.92-.37zm.06.21l-.97.23.18.78.8-.01-.01-1zm2.15.32l.22-.98-.22.98zm4.16.92l.22-.98-.22.98zM75.16 31l.47-.88-.47.88zm6.58 4.32l-.68.73.68-.73zm4.92 6.32l-.85.53.3.49.57-.01-.02-1.01zm.88.03l-.05 1h.01l.04-1zm1.65.28l-.27.96h.02l.25-.96z" clip-path="url(#D)" class="L"/><path d="M60.33 29.94s-11.97 2.71-25.16 10.61-8.07 8.06-4.97 12.02c0 0-1.98-2.52-.98-4.8.99-2.28 5.2-5.29 10.49-8.16 5.28-2.88 14.9-8.15 20.62-9.67z" class="K M"/><path d="M93.99 50.36l.01 2.41-1.02-.02-.01-2.41 1.02.02zm-.05-9.63l.03 4.81-1.02-.02-.03-4.81 1.02.02zm-.04-7.22l.01 2.41-1.02-.02-.01-2.41 1.02.02zm-2.97.84l2.19-1.27.55.84-2.19 1.27-.55-.84zm-8.75 5.07l4.37-2.54.55.84-4.37 2.54-.55-.84zm-8.74 5.08l4.37-2.54.55.84-4.37 2.54-.55-.84zm-8.75 5.07l4.37-2.54.55.84-4.37 2.54-.55-.84zm-8.75 5.08l4.37-2.54.55.84-4.37 2.54-.55-.84zm-6.56 3.81l2.19-1.27.55.84-2.19 1.27-.55-.84zm-.24 2.79v-2.39l1.02.03v2.39l-1.02-.03zm0 9.55v-4.78l1.02.03v4.78l-1.02-.03zm0 7.17v-2.39l1.02.03V78l-1.02-.03zm2.98-.83l-2.19 1.26-.55-.84 2.19-1.26.55.84zm8.77-5.05l-4.38 2.52-.55-.84 4.38-2.52.55.84zm8.77-5.04l-4.38 2.52-.55-.84 4.38-2.52.55.84zM78.42 62l-4.38 2.52-.55-.84 4.38-2.52.55.84zm8.77-5.05l-4.38 2.52-.55-.84 4.38-2.52.55.84zm6.58-3.78l-2.19 1.26-.55-.84 2.19-1.26.55.84zm-.8-2.84c0-.27.23-.48.51-.48.28.01.51.23.51.5l-1.02-.02zm1-4.79c0 .27-.23.48-.51.48-.28-.01-.51-.23-.51-.5l1.02.02zm-1.05-4.83c0-.27.23-.48.51-.48.28.01.51.23.51.5l-1.02-.02zm1-4.8c0 .27-.23.48-.51.48a.51.51 0 0 1-.51-.5l1.02.02zm-2.44-.73a.54.54 0 0 1-.71-.17.47.47 0 0 1 .16-.67l.55.84zm-4.92 1.7a.54.54 0 0 1 .71.17.47.47 0 0 1-.16.67l-.55-.84zm-3.83 3.38a.54.54 0 0 1-.71-.17.47.47 0 0 1 .16-.67l.55.84zm-4.92 1.7a.54.54 0 0 1 .71.17.47.47 0 0 1-.16.67l-.55-.84zm-3.82 3.38a.54.54 0 0 1-.71-.17.47.47 0 0 1 .16-.67l.55.84zm-4.93 1.7a.54.54 0 0 1 .71.17.47.47 0 0 1-.16.67l-.55-.84zm-3.82 3.37a.54.54 0 0 1-.71-.17c-.16-.23-.08-.53.16-.67l.55.84zm-4.93 1.7a.54.54 0 0 1 .71.17.47.47 0 0 1-.16.67l-.55-.84zm-3.82 3.38a.54.54 0 0 1-.71-.17.47.47 0 0 1 .16-.67l.55.84zm-4.92 1.7a.54.54 0 0 1 .71.17c.16.23.08.53-.16.67l-.55-.84zm-1.4 4.09c0 .27-.23.48-.51.47s-.51-.23-.51-.5l1.02.03zm-1.03 4.75c0-.27.23-.48.51-.47s.51.23.51.5l-1.02-.03zm1.03 4.8c0 .27-.23.48-.51.47s-.51-.23-.51-.5l1.02.03zm-1.03 4.75c0-.27.23-.48.51-.47s.51.23.51.5l-1.02-.03zm2.43.72a.54.54 0 0 1 .71.17.47.47 0 0 1-.16.67l-.55-.84zm4.93-1.69a.54.54 0 0 1-.71-.17.47.47 0 0 1 .16-.67l.55.84zm3.84-3.36a.54.54 0 0 1 .71.17.47.47 0 0 1-.16.67l-.55-.84zm4.93-1.68a.54.54 0 0 1-.71-.17.47.47 0 0 1 .16-.67l.55.84zm3.84-3.36a.54.54 0 0 1 .71.17.47.47 0 0 1-.16.67l-.55-.84zm4.93-1.69a.54.54 0 0 1-.71-.17.47.47 0 0 1 .16-.67l.55.84zm3.84-3.36a.54.54 0 0 1 .71.17.47.47 0 0 1-.16.67l-.55-.84zm4.93-1.68a.54.54 0 0 1-.71-.17.47.47 0 0 1 .16-.67l.55.84zm3.83-3.36a.54.54 0 0 1 .71.17.47.47 0 0 1-.16.67l-.55-.84zm4.93-1.69a.54.54 0 0 1-.71-.17.47.47 0 0 1 .16-.67l.55.84zM49.66 77.98l.27.42c-.16.09-.36.09-.52 0s-.26-.26-.26-.43l.51.01zm0-19.1l-.51-.01c0-.17.09-.32.24-.4l.27.41zM93.39 33.5l-.28-.42c.16-.09.36-.09.52 0s.27.26.27.43l-.51-.01zm.1 19.25l.51.01c0 .17-.09.32-.24.41l-.27-.42z" class="L"/><path d="M49.7 58.88L13.6 39.92l.02 19.4L49.7 77.98z" opacity=".5" class="N"/><g class="L"><path d="M47.68 57.27l2.26 1.19-.47.85-2.26-1.19.47-.85zm-9.02-4.74l4.51 2.37-.47.85-4.51-2.37.47-.85zm-9.03-4.74l4.51 2.37-.47.85-4.51-2.37.47-.85zm-9.02-4.74l4.51 2.37-.47.85-4.51-2.37.47-.85zm-6.77-3.56l2.26 1.19-.47.85-2.26-1.19.47-.85zm-.75 2.84V39.9l1.02.03v2.43l-1.02-.03zm.01 9.7v-4.85l1.02.03v4.85l-1.02-.03zm.01 7.28v-2.43l1.02.03v2.43l-1.02-.03zm2.53 1.61l-2.26-1.17.47-.85 2.26 1.17-.47.85zm9.02 4.66l-4.51-2.33.47-.85 4.51 2.33-.47.85zm9.02 4.66l-4.51-2.33.47-.85 4.51 2.33-.47.85zm9.02 4.67l-4.51-2.33.47-.85 4.51 2.33-.47.85zm6.77 3.5l-2.26-1.17.47-.85 2.26 1.17-.47.85zm.74-2.8V78l-1.02-.03v-2.39l1.02.03zm0-9.56v4.78l-1.02-.03v-4.78l1.02.03zm0-7.16v2.39l-1.02-.03v-2.39l1.02.03zm-3-.77c-.25-.13-.35-.43-.22-.66.13-.24.44-.32.69-.19l-.47.85zm-4.04-3.22c.25.13.35.43.22.66-.13.24-.44.32-.69.19l.47-.85zm-4.99-1.52c-.25-.13-.35-.43-.22-.66.13-.24.44-.32.69-.19l-.47.85zm-4.03-3.22c.25.13.35.43.22.66-.13.24-.44.32-.69.19l.47-.85zm-4.99-1.52c-.25-.13-.35-.43-.22-.66.13-.24.44-.32.69-.19l-.47.85zm-4.04-3.22c.25.13.35.43.22.66-.13.24-.44.32-.69.19l.47-.85zm-4.99-1.52c-.25-.13-.35-.43-.22-.66.13-.24.44-.32.69-.19l-.47.85zm-4.03-3.22c.25.13.35.43.22.66-.13.24-.44.32-.69.19l.47-.85zm-1.98 1.68c0 .27-.23.48-.51.47s-.51-.23-.51-.5l1.02.03zm-1.02 4.82c0-.27.23-.48.51-.47s.51.23.51.5l-1.02-.03zm1.03 4.88c0 .27-.23.48-.51.47s-.51-.23-.51-.5l1.02.03zm-1.02 4.82c0-.27.23-.48.51-.47s.51.23.51.5l-1.02-.03zm3 3.18c.25.13.35.43.22.66-.13.24-.44.32-.69.19l.47-.85zm4.04 3.19c-.25-.13-.35-.43-.22-.66.13-.24.44-.32.69-.19l-.47.85zm4.98 1.48c.25.13.35.43.22.66-.13.24-.44.32-.69.19l.47-.85zm4.04 3.18c-.25-.13-.35-.43-.22-.66.13-.24.44-.32.69-.19l-.47.85zm4.98 1.48c.25.13.35.43.22.66-.13.24-.44.32-.69.19l.47-.85zm4.04 3.19c-.25-.13-.35-.43-.22-.66.13-.24.44-.32.69-.19l-.47.85zm4.98 1.47c.25.13.35.43.22.66-.13.24-.44.32-.69.19l.47-.85zm4.04 3.19c-.25-.13-.35-.43-.22-.66.13-.24.44-.32.69-.19l-.47.85zm1.98-1.66c0-.27.23-.48.51-.47s.51.23.51.5l-1.02-.03zm1.02-4.75c0 .27-.23.48-.51.47s-.51-.23-.51-.5l1.02.03zm-1.02-4.8c0-.27.23-.48.51-.47s.51.23.51.5l-1.02-.03zm1.02-4.75c0 .27-.23.48-.51.47s-.51-.23-.51-.5l1.02.03zm-.51 16.7l.51.01c0 .17-.09.33-.25.41s-.34.09-.5 0l.24-.42zM13.62 59.32l-.23.43c-.17-.09-.28-.26-.28-.44l.51.01zm-.02-19.4l-.51-.01c0-.17.09-.33.25-.41a.55.55 0 0 1 .5 0l-.24.42zm36.1 18.96l.24-.43a.5.5 0 0 1 .27.44l-.51-.01zm131.06-3.63l-3.8-2.19.54-.87 3.8 2.19-.54.87zm11.39 6.58l-3.8-2.19.54-.87 3.8 2.19-.54.87zm.79-3.33l-.02 2.87-1 .05.02-2.87 1-.05zm.06-11.48l-.03 5.74-1 .05.03-5.74 1-.05zm.07-11.48l-.03 5.74-1 .05.03-5.74 1-.05zm.07-11.48l-.03 5.74-1 .05.03-5.74 1-.05zm.05-8.6l-.02 2.87-1 .05.02-2.87 1-.05zm-2.17-1.53l1.93 1.12-.54.87-1.93-1.12.54-.87zm-7.73-4.46l3.86 2.23-.54.87-3.86-2.23.54-.87zm-5.8-3.35l1.93 1.12-.54.87-1.93-1.12.54-.87zm-.76 3.34V6.58l1-.06V9.4l-1 .06zm0 11.52v-5.76l1-.06v5.76l-1 .06zm0 11.52v-5.76l1-.06v5.76l-1 .06zm0 11.51v-5.76l1-.06v5.76l-1 .06zm0 8.64v-2.88l1-.06v2.88l-1 .06zm4.57 1.73c.23.13.3.44.15.68s-.46.33-.69.19l.54-.87zm7.05 5.26c-.23-.13-.3-.44-.15-.68s.46-.33.69-.19l-.54.87zm3.59-1.09c0-.28.23-.51.5-.52a.47.47 0 0 1 .5.47l-1 .05zm1.03-5.79c0 .28-.23.51-.5.52a.47.47 0 0 1-.5-.47l1-.05zm-.97-5.69c0-.28.23-.51.5-.52a.47.47 0 0 1 .5.47l-1 .05zm1.04-5.79c0 .28-.23.51-.5.52a.47.47 0 0 1-.5-.47l1-.05zm-.97-5.69c0-.28.23-.51.5-.52a.47.47 0 0 1 .5.47l-1 .05zm1.03-5.79c0 .28-.23.51-.5.52a.47.47 0 0 1-.5-.47l1-.05zm-.96-5.69c0-.28.23-.51.5-.52a.47.47 0 0 1 .5.47l-1 .05zm1.03-5.79c0 .28-.23.51-.5.52a.47.47 0 0 1-.5-.47l1-.05zm-2.68-3.52c-.23-.13-.3-.44-.15-.68s.46-.33.69-.19l-.54.87zm-3.33-3.1c.23.13.3.44.15.68s-.46.33-.69.19l.54-.87zm-4.4-1.36c-.23-.13-.3-.44-.15-.68s.46-.33.69-.19l-.54.87zm-3.33-3.11c.23.13.3.44.15.68s-.46.33-.69.19l.54-.87zm-1.7 2.18c0 .28-.22.51-.5.53s-.5-.2-.5-.47l1-.06zm-1 5.81c0-.28.22-.51.5-.53s.5.2.5.47l-1 .06zm1 5.7c0 .28-.22.51-.5.53s-.5-.2-.5-.47l1-.06zm-1 5.82c0-.28.22-.51.5-.53s.5.2.5.47l-1 .06zm1 5.7c0 .28-.22.51-.5.53s-.5-.2-.5-.47l1-.06zm-1 5.81c0-.28.22-.51.5-.53s.5.2.5.47l-1 .06zm1 5.71c0 .28-.22.51-.5.53s-.5-.2-.5-.47l1-.06zm-1 5.81c0-.28.22-.51.5-.53s.5.2.5.47l-1 .06zm.5-43.22l-.5.03c0-.18.1-.36.26-.45s.35-.1.51-.01l-.27.43zm15.46 8.93l.27-.44c.15.08.23.24.23.41l-.5.03zm-.27 45.91l.5-.02c0 .18-.1.35-.26.45a.49.49 0 0 1-.51.01l.27-.44zm-15.19-8.77l-.27.44c-.14-.08-.23-.24-.23-.41l.5-.03z"/><path d="M164.27 80.31l-2.58 1.68-.51-.83 2.58-1.68.51.83zm10.31-6.7l-5.16 3.35-.51-.83 5.16-3.35.51.83zm10.32-6.7l-5.16 3.35-.51-.83 5.16-3.35.51.83zm7.73-5.03l-2.58 1.68-.51-.83 2.58-1.68.51.83zm-1.92-1.95l1.93 1.1-.53.88-1.93-1.1.53-.88zm-7.72-4.4l3.86 2.2-.53.88-3.86-2.2.53-.88zm-5.79-3.3l1.93 1.1-.53.88-1.93-1.1.53-.88zm-3.09 1.7l2.56-1.67.51.83-2.56 1.67-.51-.83zm-10.26 6.69l5.13-3.35.51.83-5.13 3.35-.51-.83zm-10.26 6.7l5.13-3.35.51.83-5.13 3.35-.51-.83zm-7.69 5.02l2.56-1.67.51.83-2.56 1.67-.51-.83zm1.89 1.95l-1.91-1.1.54-.87 1.91 1.1-.54.87zm7.64 4.41l-3.82-2.21.54-.87 3.82 2.21-.54.87zm5.73 3.31l-1.91-1.1.54-.87 1.91 1.1-.54.87zm2.59-2.53c.24-.15.54-.09.69.14.14.23.06.54-.17.69l-.52-.83zm5.67-2.52c-.24.15-.54.09-.69-.14-.14-.23-.06-.54.17-.69l.52.83zm4.65-4.18c.24-.15.54-.09.69.14s.06.54-.17.69l-.52-.83zm5.67-2.52c-.24.15-.54.09-.69-.14-.14-.23-.06-.54.17-.69l.52.83zm4.65-4.18c.24-.15.54-.09.69.14s.06.54-.17.69l-.52-.83zm5.66-2.53c-.24.15-.54.09-.69-.14s-.06-.54.17-.69l.52.83zm.13-2.75c-.23-.13-.3-.44-.16-.68.15-.24.46-.33.69-.2l-.53.88zm-3.33-3.07c.23.13.3.44.16.68s-.46.33-.69.2l.53-.88zm-4.39-1.33c-.23-.13-.3-.44-.16-.68.15-.24.46-.33.69-.2l-.53.88zm-3.33-3.07c.23.13.3.44.16.68-.15.24-.46.33-.69.2l.53-.88zm-4.51 1.42c-.24.15-.54.09-.69-.13s-.06-.54.17-.69l.52.82zm-5.64 2.52c.24-.15.54-.09.69.13.14.23.06.54-.17.69l-.52-.82zm-4.62 4.18c-.24.15-.54.09-.69-.13-.14-.23-.06-.54.17-.69l.52.82zm-5.64 2.52c.24-.15.54-.09.69.13.14.23.06.54-.17.69l-.52-.82zm-4.62 4.18c-.24.15-.54.09-.69-.13-.14-.23-.06-.54.17-.69l.52.82zm-5.64 2.52c.24-.15.54-.09.69.13.14.23.06.54-.17.69l-.52-.82zm-.13 2.75c.23.13.3.44.15.68s-.46.33-.69.19l.54-.87zm3.28 3.08c-.23-.13-.3-.44-.15-.68s.46-.33.69-.19l-.54.87zm4.36 1.33c.23.13.3.44.15.68s-.46.33-.69.19l.54-.87zm3.28 3.08c-.23-.13-.3-.44-.15-.68s.46-.33.69-.19l-.54.87zm-13.1-8.16l-.27.44c-.15-.08-.23-.24-.23-.42a.54.54 0 0 1 .24-.44l.26.42zm30.78-20.08l-.26-.41a.49.49 0 0 1 .52-.02l-.26.43zm15.45 8.79l.27-.44a.44.44 0 0 1 .23.42.54.54 0 0 1-.24.44l-.26-.42zm-30.95 20.12l.26.41a.49.49 0 0 1-.52.02l.26-.43z"/></g><path d="M154.77 31.13c-.14.19-.36.21-.71.19-.69-.03-1.41.35-1.77.59-.1.06-.18.14-.24.21a.43.43 0 0 0-.08.38c.14.53 1.17 1.15 1.79 1.42l.08.04-.01.09-.18 1.45-.25 1.9c-.24 1.41-.32 2.87-.39 4.29l-.06 1.13c-.26 4.39-.33 7.83-.22 11.16.09 2.96.74 6.41 1.96 10.58l.14.46c.42 1.42.85 2.89 1.43 4.27.12.28.23.56.34.83.31.78.6 1.5 1.02 2.21l.03.08-.02.04c-.05.12-.12.26-.19.38-.08.14-.15.28-.2.41a9.2 9.2 0 0 0-.42 1.36v.04c-.05.24-.17.81.05.98.32.25.92-.37 1.2-.67.05-.06.1-.1.13-.13.44-.42.71-.74.97-1.15l.07-.11a9.75 9.75 0 0 0 .35-.56l.03-.06h.07c2.2-.06 4.78-.22 7.21-.95 2.24-.68 4.41-1.93 6.41-3.18 2.44-1.52 4.4-3.48 6-5.19l2.69-2.91c.25-.27.91-1.01 1.17-1.46l.05-.09.27.09c.17.03.35.02.57-.01.23-.03.47-.07.58-.21a.33.33 0 0 0 .07-.21c.02-.23-.36-.58-.56-.76-.04-.04-.08-.07-.11-.1-.08-.08-.17-.16-.25-.23-.2-.19-.41-.39-.6-.6 0 0-.02-.02-.04-.05l-.1-.12.02-.06c1.02-2.79 1.39-5.9 1.75-8.91l.22-1.84c.51-4.01.79-8.15.82-12.33.03-4.31-.25-8.12-.85-11.65-.05-.31-.1-.82-.16-1.36-.1-.93-.21-1.98-.35-2.46s.14-1.07.4-1.64c.26-.56.53-1.14.35-1.54-.03-.06-.06-.07-.09-.07-.27-.05-.96.6-1.46 1.07-.41.39-.8.75-1.07.89-.48.24-1.74.18-2.85.12-.64-.03-1.25-.07-1.55-.03-4.48.6-8.21 1.65-11.73 3.32-3.87 1.83-6.97 4.09-9.21 6.73-.3.36-.57.68-.8.99-.71.93-1.21 1.78-1.53 2.59-.07.14-.12.26-.19.35zm-2.9.85c.07-.09.17-.18.3-.26.39-.25 1.16-.66 1.91-.63.36.02.45-.02.51-.1.05-.06.09-.17.15-.32.34-.85.85-1.71 1.57-2.66.24-.32.51-.64.81-1 2.26-2.66 5.39-4.94 9.29-6.78 3.55-1.68 7.3-2.74 11.8-3.33.33-.04.91-.01 1.6.02 1.03.05 2.3.12 2.73-.09.24-.13.62-.48 1.02-.85.77-.73 1.31-1.2 1.67-1.13.08.01.19.06.25.2.23.49-.06 1.12-.35 1.73-.25.53-.5 1.07-.39 1.47.15.51.26 1.57.36 2.51.05.54.11 1.05.16 1.35.6 3.55.88 7.37.85 11.69-.03 4.19-.3 8.35-.82 12.36l-.22 1.84c-.35 3-.72 6.1-1.74 8.9l.05.06c.18.2.39.4.58.59.08.08.17.16.25.24.03.01.06.04.1.08.26.24.66.61.63.96a.6.6 0 0 1-.12.33c-.16.22-.45.26-.73.3a1.98 1.98 0 0 1-.64.01c-.04-.01-.09-.02-.12-.03a5.83 5.83 0 0 1-.3.44c-.31.41-.67.8-.84.99l-.63.68-2.06 2.23c-1.61 1.73-3.58 3.7-6.04 5.24-2.01 1.26-4.19 2.51-6.47 3.2-2.43.74-5 .9-7.2.96-.11.2-.23.38-.32.52l-.07.11c-.27.42-.55.75-1 1.19a.79.79 0 0 1-.13.13c-.35.38-1.02 1.07-1.51.7-.34-.27-.21-.88-.13-1.21v-.04c.1-.47.24-.92.43-1.4.05-.14.13-.29.21-.43.06-.11.11-.21.16-.31-.41-.7-.7-1.43-1.01-2.2l-.33-.83c-.59-1.39-1.02-2.87-1.44-4.3l-.14-.46c-1.24-4.18-1.88-7.67-1.97-10.64-.1-3.34-.03-6.79.22-11.19l.06-1.13c.07-1.42.15-2.89.39-4.32.1-.62.18-1.26.25-1.88.05-.45.1-.92.17-1.37-.61-.27-1.67-.89-1.84-1.54-.1-.24-.05-.43.08-.6z" class="N"/><path d="M158.28 74.88c.38-.37.7-.72.98-1.17l.43-.68c2.43-.06 4.91-.25 7.24-.96 2.25-.68 4.44-1.95 6.43-3.19 2.28-1.42 4.2-3.26 6.02-5.22l2.64-2.85c.22-.23.9-.95 1.23-1.54.07.02.13.05.2.06.2.03.4.02.6-.01.37-.06.71-.11.75-.53.03-.34-.51-.77-.7-.96l-.84-.83c-.01-.01-.04-.06-.09-.12 1.25-3.38 1.53-7.26 1.98-10.78.53-4.1.79-8.22.82-12.34.03-3.94-.19-7.8-.85-11.67-.14-.82-.29-3.05-.52-3.84-.27-.91 1.15-2.33.74-3.19-.34-.71-2.05 1.47-2.77 1.84-.73.37-3.54-.03-4.37.08-4.14.55-7.97 1.53-11.76 3.32-3.45 1.63-6.77 3.84-9.25 6.76-.91 1.07-1.83 2.29-2.35 3.61-.18.45-.21.55-.79.52-.64-.03-1.32.27-1.84.6-1.2.77.72 1.88 1.49 2.21-.16 1.11-.24 2.25-.43 3.35-.31 1.79-.34 3.62-.45 5.43-.22 3.75-.34 7.42-.23 11.18.11 3.51.98 7.26 1.97 10.61.47 1.6.93 3.21 1.58 4.74.45 1.07.8 2.09 1.36 3.05-.12.29-.28.56-.38.82-.18.45-.32.91-.42 1.38-.06.27-.21.91.09 1.13.48.37 1.24-.55 1.49-.81z" class="K"/><defs><path id="E" d="M158.28 74.88c.38-.37.7-.72.98-1.17l.43-.68c2.43-.06 4.91-.25 7.24-.96 2.25-.68 4.44-1.95 6.43-3.19 2.28-1.42 4.2-3.26 6.02-5.22l2.64-2.85c.22-.23.9-.95 1.23-1.54.07.02.13.05.2.06.2.03.4.02.6-.01.37-.06.71-.11.75-.53.03-.34-.51-.77-.7-.96l-.84-.83c-.01-.01-.04-.06-.09-.12 1.25-3.38 1.53-7.26 1.98-10.78.53-4.1.79-8.22.82-12.34.03-3.94-.19-7.8-.85-11.67-.14-.82-.29-3.05-.52-3.84-.27-.91 1.15-2.33.74-3.19-.34-.71-2.05 1.47-2.77 1.84-.73.37-3.54-.03-4.37.08-4.14.55-7.97 1.53-11.76 3.32-3.45 1.63-6.77 3.84-9.25 6.76-.91 1.07-1.83 2.29-2.35 3.61-.18.45-.21.55-.79.52-.64-.03-1.32.27-1.84.6-1.2.77.72 1.88 1.49 2.21-.16 1.11-.24 2.25-.43 3.35-.31 1.79-.34 3.62-.45 5.43-.22 3.75-.34 7.42-.23 11.18.11 3.51.98 7.26 1.97 10.61.47 1.6.93 3.21 1.58 4.74.45 1.07.8 2.09 1.36 3.05-.12.29-.28.56-.38.82-.18.45-.32.91-.42 1.38-.06.27-.21.91.09 1.13.48.37 1.24-.55 1.49-.81z"/></defs><clipPath id="F"><use xlink:href="#E"/></clipPath><path d="M156.18 76.48c.43.34.91.34 1.28.24.33-.09.59-.27.77-.41.35-.27.71-.67.76-.72l-1.42-1.41-.14.14-.14.15-.28.26c-.1.08-.12.07-.08.06.03-.01.1-.02.2-.01.11.02.21.06.29.12l-1.24 1.58zm-.44-2.13c-.02.11-.1.43-.11.76-.01.25 0 .94.57 1.38l1.2-1.6c.15.11.2.25.21.3.01.04 0 .05.01-.01 0-.05.01-.11.02-.19s.03-.14.05-.22l-1.95-.42zm.47-1.54a9.13 9.13 0 0 0-.47 1.54l1.96.42c.09-.42.21-.82.37-1.22l-1.86-.74zm.39-.82c-.04.1-.1.2-.17.35-.07.13-.16.3-.23.49l1.86.73c.03-.08.07-.17.14-.3l.23-.46-1.83-.81zm.32 1.18a.96.96 0 0 1-.35-.49c-.06-.18-.05-.33-.05-.36v-.03.04c0 .04 0 .12.01.2l1.98-.28c.01.08.01.15.01.19v.03c0 .01 0-.01 0-.04 0-.04.01-.19-.05-.37-.07-.21-.2-.38-.35-.49l-1.2 1.6zm-1.68-3.47c.41.98.81 2.13 1.42 3.17l1.72-1.01c-.52-.88-.82-1.78-1.3-2.93l-1.84.77zm-1.62-4.84l1.61 4.85 1.84-.78c-.62-1.47-1.06-3.02-1.54-4.64l-1.91.57zm-2.01-10.87c.11 3.63 1.01 7.48 2.01 10.86l1.92-.57c-.98-3.33-1.82-6.98-1.93-10.36l-2 .07zm.23-11.27c-.22 3.77-.34 7.47-.23 11.27l2-.06c-.11-3.72 0-7.35.22-11.09l-1.99-.12zm.46-5.54c-.32 1.86-.36 3.79-.46 5.54l2 .12c.11-1.86.14-3.6.43-5.32l-1.97-.34zm.42-3.32l-.21 1.71a26.39 26.39 0 0 1-.22 1.62l1.97.33c.1-.58.17-1.16.23-1.72.06-.57.12-1.11.2-1.65l-1.97-.29zm-1.04-2.91c-.51.32-.91.86-.84 1.57.06.57.43 1 .68 1.25.55.54 1.35.96 1.79 1.14l.79-1.84c-.33-.14-.88-.45-1.18-.74-.17-.16-.11-.18-.09-.04.01.1-.01.21-.06.29-.04.07-.07.08-.02.04l-1.07-1.67zm2.43-.76c-.95-.04-1.84.39-2.42.75l1.06 1.7c.48-.3.94-.47 1.27-.45l.09-2zm-.19.12c-.02.06-.04.1-.06.14-.01.04-.02.05-.02.05 0 .01.04-.09.16-.18.06-.05.12-.08.17-.1s.09-.02.1-.03c.01 0 0 0-.02 0h-.13l-.12 2c.24.01.77.05 1.2-.28.22-.17.34-.37.41-.51.06-.12.12-.27.16-.36l-1.85-.73zm2.52-3.89c-.93 1.09-1.93 2.41-2.52 3.89l1.86.74c.46-1.16 1.29-2.28 2.18-3.33l-1.52-1.3zm9.58-7.02c-3.53 1.67-6.98 3.95-9.58 7.01l1.52 1.3c2.36-2.78 5.55-4.91 8.91-6.5l-.85-1.81zm12.06-3.41c-4.22.56-8.15 1.57-12.06 3.41l.85 1.81c3.68-1.73 7.41-2.7 11.47-3.23l-.26-1.99zm4.05.03c.03-.02-.08.03-.46.05-.33.01-.74 0-1.18-.02l-1.29-.07c-.38-.02-.79-.03-1.1.01l.26 1.98c.11-.01.35-.01.76 0l1.29.07c.45.02.94.03 1.36.02.37-.02.89-.06 1.29-.26l-.93-1.78zm4.13-1.38c-.18-.37-.53-.66-.99-.71-.36-.04-.67.09-.83.18-.35.18-.71.48-.99.73-.27.24-.63.59-.85.79a5.04 5.04 0 0 1-.33.28c-.1.08-.14.1-.14.1l.9 1.79c.33-.16.67-.47.92-.7l.83-.77c.28-.25.46-.39.55-.43.05-.03-.06.05-.26.03-.3-.03-.53-.23-.62-.43l1.81-.86zm-.69 3.34c.02.06-.01.04.05-.17.06-.2.17-.42.32-.74.13-.28.3-.64.4-1.01.1-.36.17-.89-.08-1.42l-1.81.85c-.05-.1 0-.13-.05.05-.05.17-.14.38-.28.68-.12.26-.3.62-.41.97-.11.34-.22.84-.07 1.35l1.93-.56zm.55 3.95c-.06-.37-.13-1.07-.22-1.87-.08-.73-.18-1.58-.33-2.08l-1.92.57c.09.29.17.94.26 1.73l.23 1.99 1.98-.34zm.86 11.85c.03-3.98-.19-7.9-.87-11.85l-1.97.34c.65 3.8.87 7.6.84 11.5l2 .01zm-.82 12.46c.53-4.14.8-8.3.83-12.46l-2-.01c-.03 4.09-.29 8.17-.81 12.22l1.98.25zm-2.04 11c1.3-3.52 1.6-7.56 2.03-11l-1.98-.25c-.46 3.6-.73 7.31-1.93 10.56l1.88.69zm-.24-1.03c.02.02.04.03.06.05.01.01.03.02.04.03l.07.07c-.02-.02-.05-.06-.09-.1l-1.56 1.26c.01.02.02.03.04.05.01.01.02.03.04.05.01.01.02.03.04.05l.05.05c.02.02.05.05.1.08l1.21-1.59zm.93.91c-.33-.32-.56-.52-.8-.78l-1.48 1.34c.29.32.65.64.88.87l1.4-1.43zm1.01 1.76c.03-.35-.09-.64-.19-.82-.1-.19-.23-.34-.33-.46-.17-.19-.47-.46-.48-.47l-1.41 1.42.11.11c.04.03.07.06.1.1.07.07.13.12.18.18s.07.08.06.08c0 0-.02-.03-.03-.07s-.03-.12-.02-.21l2.01.14zm-1.61 1.43c.14-.02.5-.07.82-.23.18-.1.38-.24.53-.47.15-.22.23-.47.25-.72l-1.99-.19c0-.04.02-.12.09-.22s.14-.15.19-.17c.04-.02.05-.02.01-.01a1.25 1.25 0 0 1-.19.03l.29 1.98zm-.92.01c.34.06.66.04.93-.01l-.32-1.97c-.14.02-.22.02-.28.01l-.33 1.97zm-.32-.08c.01 0 .01 0 .03.01.01 0 .04.01.07.02.05.02.14.04.26.06l.28-1.98c.03 0 .05.01.06.01-.01 0-.01 0-.02-.01-.02-.01-.04-.01-.07-.02l-.61 1.91zm-.21 1.26c.18-.2.96-1.01 1.37-1.73l-1.74-.99c-.27.47-.85 1.09-1.1 1.36l1.47 1.36zm-2.64 2.86l2.64-2.86-1.47-1.36-2.64 2.86 1.47 1.36zm-6.23 5.38c2.39-1.49 4.38-3.41 6.22-5.38L178.65 63c-1.8 1.93-3.65 3.7-5.82 5.05l1.06 1.69zm-6.67 3.3c2.39-.72 4.68-2.06 6.67-3.3l-1.06-1.7c-1.99 1.24-4.08 2.44-6.19 3.08l.58 1.92zm-7.5 1c2.45-.06 5.04-.25 7.51-1l-.58-1.91c-2.2.67-4.57.85-6.98.91l.05 2zm.38.22c.07-.11.29-.42.46-.74l-1.75-.97c-.13.23-.27.44-.39.62l1.68 1.09zm-1.12 1.34c.41-.39.79-.81 1.13-1.35l-1.69-1.07c-.22.35-.48.65-.83.99l1.39 1.43zm-2.18.09l.62-.79-.02-.02-.6.81zm-.08-1.13l.98.21-.98-.21zm.42-1.38l.93.37-.93-.37zm.38-.79l.92.4.11-.26-.04-.28-.99.14zm0-.02l-.86.51.1.17.16.12.6-.8zm-1.36-3.05l.92-.39-.92.39zm-1.58-4.75l.96-.28-.96.28zm-1.97-10.61l-1 .03 1-.03zm.23-11.18l1 .06-1-.06zm.44-5.43l.99.17-.99-.17zm.43-3.34l.99.14.11-.76-.71-.3-.39.92zm-1.49-2.21l-.53-.85-.01.01.54.84zm1.85-.61l.06-1h-.01l-.05 1zm.78-.52l-.93-.37.93.37zm2.35-3.61l-.76-.65.76.65zm9.25-6.75l-.43-.9.43.9zm11.77-3.32l-.13-.99.13.99zm4.36-.08l-.45-.89.45.89zm2.77-1.84l.9-.43-.9.43zm-.74 3.19l-.96.28.96-.28zm.52 3.84l.99-.17-.99.17zm.85 11.67l-1-.01 1 .01zm-.82 12.35l-.99-.13.99.13zm-1.98 10.77l-.94-.35-.2.53.36.44.78-.62zm.09.12l.74-.67-.06-.07-.08-.06-.6.8zm.85.83l.7-.71-.01-.01-.69.72zm.7.96l1 .1v-.02l-1-.08zm-.76.53l-.15-.99h-.01l.16.99zm-.6.01l.17-.99h-.02l-.15.99zm-.2-.06l.29-.96-.77-.23-.4.7.88.49zm-1.23 1.54l.73.68-.73-.68zm-2.64 2.86l.73.68-.73-.68zm-6.02 5.21l.53.85-.53-.85zm-6.44 3.19l-.29-.96.29.96zm-7.24.96l-.03-1-.57.01-.28.5.88.49zm-.43.68l-.84-.54-.01.01.85.53zm-.98 1.16l-.7-.72-.02.02.72.7z" clip-path="url(#F)" class="L"/><path d="M165.02 67.29c-1.57-2.15-2.04-4.85-2.39-7.44l-.98-8.98c-.21-6.54 1.03-13.28 4.26-19.02 2.86-5.06 8.46-9.69 14.46-10.22 1.01-.09 2.43-.24 3.14.7.72.97.96 2.06 1.07 3.25a84.79 84.79 0 0 1 .29 10.08c-.05 1.59-.16 3.18-.32 4.76a63.29 63.29 0 0 1-.51 7.79c-.39 2.96-.98 5.91-1.83 8.77-.86 2.92-2.38 5.17-4.81 7.03-2.24 1.72-4.74 2.93-7.39 3.89-1.66.61-3.77 1.06-4.99-.61zm-6.74 7.59c.38-.37.7-.72.98-1.17.09-.15.27-.41.43-.68 2.43-.06 4.91-.25 7.24-.96 2.25-.68 4.44-1.95 6.43-3.19 2.28-1.42 4.2-3.26 6.02-5.22l2.64-2.85c.22-.23.9-.95 1.23-1.54.07.02.13.05.2.06.2.03.4.02.6-.01.37-.06.71-.11.75-.53.03-.34-.51-.77-.7-.96-.28-.27-.57-.53-.84-.83-.01-.01-.04-.06-.09-.12 1.25-3.38 1.53-7.26 1.98-10.78.53-4.1.79-8.22.82-12.34.03-3.94-.19-7.8-.85-11.67-.14-.82-.29-3.05-.52-3.84-.27-.91 1.15-2.33.74-3.19-.34-.71-2.05 1.47-2.77 1.84-.73.37-3.54-.03-4.37.08-4.14.55-7.97 1.53-11.76 3.32-3.45 1.63-6.77 3.84-9.25 6.76-.91 1.07-1.83 2.29-2.35 3.61-.18.45-.21.55-.79.52-.64-.03-1.32.27-1.84.6-1.2.77.72 1.88 1.49 2.21-.16 1.11-.24 2.25-.43 3.35-.31 1.79-.34 3.62-.45 5.43-.22 3.75-.34 7.42-.23 11.18.11 3.51.98 7.26 1.97 10.61.47 1.6.93 3.21 1.58 4.74.45 1.07.8 2.09 1.36 3.05-.12.29-.28.56-.38.82-.18.45-.32.91-.42 1.38-.06.27-.21.91.09 1.13.48.37 1.24-.55 1.49-.81z" class="K M"/><path d="M158.28 74.88c.38-.37.7-.72.98-1.17l.43-.68c2.43-.06 4.91-.25 7.24-.96.44-.13.87-.3 1.31-.47-2.02.05-4-.26-5.88-1.28-.92-.5-2.72-1.07-2.37-2.47.16-.67.47-1.27.82-1.86-.73.71-1.53 1.32-2.58 1.49-.13.02-.24-.08-.27-.2-2.36-10.16-2.48-20.61-1.29-30.94.02-.19.23-.25.38-.16.57.34 2.28 1.78 3.6 2.3-.41-.39-.83-.77-1.22-1.19-.53-.56-1.42-1.42-1.5-2.25-.16-1.65 2.11-2.55 3.44-3.52-1.71.47-3.41.97-5.19 1.15a.24.24 0 0 1-.25-.32c1.09-2.85 3.52-5.1 5.98-6.81 2.67-1.85 5.59-3.63 8.58-4.89 3.02-1.27 6.51-2.14 9.81-2.11 1.28.02 2.57.13 3.51 1.1.51.53.89 1.15 1.22 1.79-.12-1.02-.25-2.55-.43-3.18-.27-.91 1.15-2.33.74-3.19-.34-.71-2.05 1.47-2.77 1.84-.73.37-3.54-.03-4.37.08-4.14.55-7.97 1.53-11.76 3.32-3.45 1.63-6.77 3.84-9.25 6.76-.91 1.07-1.83 2.29-2.35 3.61-.18.45-.21.55-.79.52-.64-.03-1.32.27-1.84.6-1.2.77.72 1.88 1.49 2.21-.16 1.11-.24 2.25-.43 3.35-.31 1.79-.34 3.62-.45 5.43-.22 3.75-.34 7.42-.23 11.18.11 3.51.98 7.26 1.97 10.61.47 1.6.93 3.21 1.58 4.74.45 1.07.8 2.09 1.36 3.05-.12.29-.28.56-.38.82-.18.45-.32.91-.42 1.38-.06.27-.21.91.09 1.13.48.37 1.24-.55 1.49-.81z" class="M N"/><path d="M154.94 32.12c2.78-5.67 9.19-9.56 14.93-11.74 2.56-.97 4.99-1.7 7.72-2.08 2.44-.34 4.98.19 6.74-1.84.03-.03-.01-.16-.05-.13-2.14 1.94-5.55 1.45-8.26 1.91-2.88.49-5.71 1.49-8.32 2.79-4.94 2.46-10.62 5.54-12.89 10.87-.03.07.07.34.13.22zm2.54 38.32c-1.43-2.99-2.08-6.4-2.63-9.65-.5-2.99-.79-5.84-.88-8.87-.17-5.55.13-11.11.29-16.65 0-.12-.17-.35-.17-.13-.19 6.32-.66 12.68-.34 19.01.15 2.91.5 5.89 1.26 8.71.71 2.65 1.07 5.24 2.44 7.68.04.07.05-.05.03-.1z" class="M K"/><defs><path id="G" d="M158.39 74.83c.38-.37.7-.72.98-1.17l.43-.68c2.43-.06 4.91-.25 7.24-.96 2.25-.68 4.44-1.95 6.43-3.19 2.28-1.42 4.2-3.26 6.02-5.22l2.64-2.85c.22-.23.9-.95 1.23-1.54.07.02.13.05.2.06.2.03.4.02.6-.01.37-.06.71-.11.75-.53.03-.34-.51-.77-.7-.96l-.84-.83c-.01-.01-.04-.06-.09-.12 1.25-3.38 1.53-7.26 1.98-10.78.53-4.1.79-8.22.82-12.34.03-3.94-.19-7.8-.85-11.67-.14-.82-.29-3.05-.52-3.84-.27-.91 1.15-2.33.74-3.19-.34-.71-2.05 1.47-2.77 1.84-.73.37-3.54-.03-4.37.08-4.14.55-7.97 1.53-11.76 3.32-3.45 1.63-6.77 3.84-9.25 6.76-.91 1.07-1.83 2.29-2.35 3.61-.18.45-.21.55-.79.52-.64-.03-1.32.27-1.84.6-1.2.77.72 1.88 1.49 2.21-.16 1.11-.24 2.25-.43 3.35-.31 1.79-.34 3.62-.45 5.43-.22 3.75-.34 7.42-.23 11.18.11 3.51.98 7.26 1.97 10.61.47 1.6.93 3.21 1.58 4.74.45 1.07.8 2.09 1.36 3.05-.12.29-.28.56-.38.82-.18.45-.32.91-.42 1.38-.06.27-.21.91.09 1.13.48.36 1.24-.56 1.49-.81z"/></defs><clipPath id="H"><use xlink:href="#G"/></clipPath><path d="M156.29 76.42c.43.34.91.34 1.28.24.33-.09.59-.27.77-.41.35-.27.71-.67.76-.72l-1.42-1.41-.14.14-.14.15-.28.26c-.1.08-.12.07-.08.06.03-.01.1-.02.2-.01.11.02.21.06.29.12l-1.24 1.58zm-.44-2.13c-.02.11-.1.43-.11.76-.01.25 0 .94.57 1.38l1.2-1.6c.15.11.2.25.21.3.01.04 0 .05.01-.01 0-.05.01-.11.02-.19s.03-.14.05-.22l-1.95-.42zm.47-1.53a9.13 9.13 0 0 0-.47 1.54l1.96.42c.09-.42.21-.82.37-1.22l-1.86-.74zm.39-.83c-.04.1-.1.2-.17.35-.07.13-.16.3-.23.49l1.86.73c.03-.08.07-.17.14-.3l.23-.46-1.83-.81zm.32 1.18a.96.96 0 0 1-.35-.49c-.06-.18-.05-.33-.05-.36v-.03.04c0 .04 0 .12.01.2l1.98-.28c.01.08.01.15.01.19v.03c0 .01 0-.01 0-.04 0-.04.01-.19-.05-.37-.07-.21-.2-.38-.35-.49l-1.2 1.6zm-1.68-3.47c.41.98.81 2.13 1.42 3.17l1.72-1.01c-.52-.88-.82-1.78-1.3-2.93l-1.84.77zm-1.62-4.84l1.61 4.85 1.84-.78c-.62-1.47-1.06-3.02-1.54-4.64l-1.91.57zm-2.01-10.87c.11 3.63 1.01 7.48 2.01 10.86l1.92-.57c-.98-3.33-1.82-6.98-1.93-10.36l-2 .07zm.23-11.26c-.22 3.77-.34 7.47-.23 11.27l2-.06c-.11-3.72 0-7.35.22-11.09l-1.99-.12zm.46-5.54c-.32 1.86-.36 3.79-.46 5.54l2 .12c.11-1.86.14-3.6.43-5.32l-1.97-.34zm.42-3.33l-.21 1.71a26.39 26.39 0 0 1-.22 1.62l1.97.33c.1-.58.17-1.16.23-1.72.06-.57.12-1.11.2-1.65l-1.97-.29zm-1.04-2.91c-.51.32-.91.86-.84 1.57.06.57.43 1 .68 1.25.55.54 1.35.96 1.79 1.14l.79-1.84c-.33-.14-.88-.45-1.18-.74-.17-.16-.11-.18-.09-.04.01.1-.01.21-.06.29-.04.07-.07.08-.02.04l-1.07-1.67zm2.43-.76c-.95-.04-1.84.39-2.42.75l1.06 1.7c.48-.3.94-.47 1.27-.45l.09-2zm-.19.12c-.02.06-.04.1-.06.14-.01.04-.02.05-.02.05 0 .01.04-.09.16-.18.06-.05.12-.08.17-.1s.09-.02.1-.03c.01 0 0 0-.02 0h-.13l-.12 2c.24.01.77.05 1.2-.28.22-.17.34-.37.41-.51.06-.12.12-.27.16-.36l-1.85-.73zm2.52-3.89c-.93 1.09-1.93 2.41-2.52 3.89l1.86.74c.46-1.16 1.29-2.28 2.18-3.33l-1.52-1.3zm9.58-7.02c-3.53 1.67-6.98 3.95-9.58 7.01l1.52 1.3c2.36-2.78 5.55-4.91 8.91-6.5l-.85-1.81zm12.06-3.4c-4.22.56-8.15 1.57-12.06 3.41l.85 1.81c3.68-1.73 7.41-2.7 11.47-3.23l-.26-1.99zm4.05.02c.03-.02-.08.03-.46.05-.33.01-.74 0-1.18-.02l-1.29-.07c-.38-.02-.79-.03-1.1.01l.26 1.98c.11-.01.35-.01.76 0l1.29.07c.45.02.94.03 1.36.02.37-.02.89-.06 1.29-.26l-.93-1.78zm4.13-1.37c-.18-.37-.53-.66-.99-.71-.36-.04-.67.09-.83.18-.35.18-.71.48-.99.73-.27.24-.63.59-.85.79a5.04 5.04 0 0 1-.33.28c-.1.08-.14.1-.14.1l.9 1.79c.33-.16.67-.47.92-.7l.83-.77c.28-.25.46-.39.55-.43.05-.03-.06.05-.26.03-.3-.03-.53-.23-.62-.43l1.81-.86zm-.69 3.33c.02.06-.01.04.05-.17.06-.2.17-.42.32-.74.13-.28.3-.64.4-1.01.1-.36.17-.89-.08-1.42l-1.81.85c-.05-.1 0-.13-.05.05-.05.17-.14.38-.28.68-.12.26-.3.62-.41.97-.11.34-.22.84-.07 1.35l1.93-.56zm.55 3.95c-.06-.37-.13-1.07-.22-1.87-.08-.73-.18-1.58-.33-2.08l-1.92.57c.09.29.17.94.26 1.73l.23 1.99 1.98-.34zm.86 11.85c.03-3.98-.19-7.9-.87-11.85l-1.97.34c.65 3.8.87 7.6.84 11.5l2 .01zm-.82 12.46c.53-4.14.8-8.3.83-12.46l-2-.01c-.03 4.09-.29 8.17-.81 12.22l1.98.25zm-2.04 11c1.3-3.52 1.6-7.56 2.03-11l-1.98-.25c-.46 3.6-.73 7.31-1.93 10.56l1.88.69zm-.24-1.03c.02.02.04.03.06.05.01.01.03.02.04.03l.07.07c-.02-.02-.05-.06-.09-.1l-1.56 1.26c.01.02.02.03.04.05.01.01.02.03.04.05.01.01.02.03.04.05l.05.05c.02.02.05.05.1.08l1.21-1.59zm.94.91c-.33-.32-.56-.52-.8-.78l-1.48 1.34c.29.32.65.64.88.87l1.4-1.43zm1 1.76c.03-.35-.09-.64-.19-.82-.1-.19-.23-.34-.33-.46-.17-.19-.47-.46-.48-.47l-1.41 1.42.11.11c.04.03.07.06.1.1.07.07.13.12.18.18s.07.08.06.08c0 0-.02-.03-.03-.07s-.03-.12-.02-.21l2.01.14zm-1.6 1.44c.14-.02.5-.07.82-.23.18-.1.38-.24.53-.47.15-.22.23-.47.25-.72l-1.99-.19c0-.04.02-.12.09-.22s.14-.15.19-.17c.04-.02.05-.02.01-.01a1.25 1.25 0 0 1-.19.03l.29 1.98zm-.93 0c.34.06.66.04.93-.01l-.32-1.97c-.14.02-.22.02-.28.01l-.33 1.97zm-.32-.08c.01 0 .01 0 .03.01.01 0 .04.01.07.02.05.02.14.04.26.06l.28-1.98c.03 0 .05.01.06.01-.01 0-.01 0-.02-.01-.02-.01-.04-.01-.07-.02l-.61 1.91zm-.21 1.26c.18-.2.96-1.01 1.37-1.73l-1.74-.99c-.27.47-.85 1.09-1.1 1.36l1.47 1.36zm-2.64 2.86l2.64-2.86-1.47-1.36-2.64 2.86 1.47 1.36zM174 69.68c2.39-1.49 4.38-3.41 6.22-5.38l-1.46-1.36c-1.8 1.93-3.65 3.7-5.82 5.05l1.06 1.69zm-6.67 3.3c2.39-.72 4.68-2.06 6.67-3.3l-1.06-1.7c-1.99 1.24-4.08 2.44-6.19 3.08l.58 1.92zm-7.5 1c2.45-.06 5.04-.25 7.51-1l-.58-1.91c-2.2.67-4.57.85-6.98.91l.05 2zm.38.22c.07-.11.29-.42.46-.74l-1.75-.97c-.13.23-.27.44-.39.62l1.68 1.09zm-1.12 1.34c.41-.39.79-.81 1.13-1.35l-1.69-1.07c-.22.35-.48.65-.83.99l1.39 1.43zm-2.18.09l.62-.79-.02-.02-.6.81zm-.08-1.12l.98.21-.98-.21zm.42-1.39l.93.37-.93-.37zm.38-.79l.92.4.11-.26-.04-.28-.99.14zm0-.02l-.86.51.1.17.16.12.6-.8zm-1.36-3.05l.92-.39-.92.39zm-1.58-4.75l.96-.28-.96.28zm-1.97-10.61l-1 .03 1-.03zm.23-11.18l1 .06-1-.06zm.44-5.43l.99.17-.99-.17zm.43-3.34l.99.14.11-.76-.71-.3-.39.92zm-1.49-2.21l-.53-.85-.01.01.54.84zm1.85-.61l.06-1h-.01l-.05 1zm.78-.51l-.93-.37.93.37zm2.35-3.62l-.76-.65.76.65zm9.25-6.75l-.43-.9.43.9zm11.77-3.32l-.13-.99.13.99zm4.36-.08l-.45-.89.45.89zm2.77-1.84l.9-.43-.9.43zm-.74 3.19l-.96.28.96-.28zm.52 3.84l.99-.17-.99.17zm.85 11.67l-1-.01 1 .01zm-.82 12.35l-.99-.13.99.13zm-1.98 10.77l-.94-.35-.2.53.36.44.78-.62zm.1.12l.74-.67-.06-.07-.08-.06-.6.8zm.84.83l.7-.71-.01-.01-.69.72zm.7.96l1 .1v-.02l-1-.08zm-.76.53l-.15-.99h-.01l.16.99zm-.6.01l.17-.99h-.02l-.15.99zm-.2-.06l.29-.96-.77-.23-.4.7.88.49zm-1.23 1.54l.73.68-.73-.68zm-2.64 2.86l.73.68-.73-.68zm-6.02 5.21l.53.85-.53-.85zm-6.44 3.19l-.29-.96.29.96zm-7.24.96l-.03-1-.57.01-.28.5.88.49zm-.42.68l-.84-.54-.01.01.85.53zm-.99 1.17l-.7-.72-.02.02.72.7z" clip-path="url(#H)" class="L"/><path d="M181.15 57.64s3.38-10.68 3.24-24.7-2.63-10.07-7.17-9.45c0 0 2.89-.4 4.23 1.44 1.34 1.83 1.77 6.53 1.59 12.02s-.46 15.49-1.89 20.69z" class="K M"/><path d="M147.79 74.28l-1.91-1.09.53-.88 1.91 1.09-.53.88zm7.63 4.35l-3.81-2.18.53-.88 3.81 2.18-.53.88zm5.72 3.26l-1.91-1.09.53-.88 1.91 1.09-.53.88zm.76-2.77l.01 2.31-1 .06-.01-2.31 1-.06zm-.02-9.22l.01 4.61-1 .06-.01-4.61 1-.06zm-.02-9.23l.01 4.61-1 .06-.01-4.61 1-.06zm-.02-9.22l.01 4.61-1 .06-.01-4.61 1-.06zm-.02-9.23l.01 4.61-1 .06-.01-4.61 1-.06zm-.01-6.92l.01 2.31-1 .06-.01-2.31 1-.06zm-2.12-1.49l1.89 1.09-.54.87-1.89-1.09.54-.87zm-7.55-4.36l3.77 2.18-.54.87-3.77-2.18.54-.87zm-5.66-3.27l1.89 1.09-.54.87-1.89-1.09.54-.87zm-.77 2.77v-2.31l1-.05v2.31l-1 .05zm-.01 9.23l.01-4.61 1-.05-.01 4.61-1 .05zm-.01 9.23l.01-4.61 1-.05-.01 4.61-1 .05zm-.01 9.22l.01-4.61 1-.05-.01 4.61-1 .05zm-.02 9.23l.01-4.61 1-.05-.01 4.61-1 .05zm-.01 6.92v-2.31l1-.05v2.31l-1 .05zm2.68.62c.23.13.3.44.16.68-.15.24-.46.33-.69.2l.53-.88zm3.28 3.06c-.23-.13-.3-.44-.16-.68.15-.24.46-.33.69-.2l-.53.88zm4.34 1.3c.23.13.3.44.16.68-.15.24-.46.33-.69.2l.53-.88zm3.29 3.05c-.23-.13-.3-.44-.16-.68.15-.24.46-.33.69-.2l-.53.88zm1.66-1.63c0-.28.22-.51.5-.53a.46.46 0 0 1 .5.47l-1 .06zm.99-4.67c0 .28-.22.51-.5.53a.46.46 0 0 1-.5-.47l1-.06zm-1.01-4.56c0-.28.22-.51.5-.53a.46.46 0 0 1 .5.47l-1 .06zm.99-4.67c0 .28-.22.51-.5.53a.46.46 0 0 1-.5-.47l1-.06zm-1.01-4.55c0-.28.22-.51.5-.53a.46.46 0 0 1 .5.47l-1 .06zm.99-4.67c0 .28-.22.51-.5.53a.46.46 0 0 1-.5-.47l1-.06zm-1.01-4.56c0-.28.22-.51.5-.53a.46.46 0 0 1 .5.47l-1 .06zm.99-4.67c0 .28-.22.51-.5.53a.46.46 0 0 1-.5-.47l1-.06zm-1.01-4.55c0-.28.22-.51.5-.53a.46.46 0 0 1 .5.47l-1 .06zm.99-4.67c0 .28-.22.51-.5.53a.46.46 0 0 1-.5-.47l1-.06zm-2.66-2.93c-.23-.13-.3-.44-.15-.68s.46-.33.69-.19l-.54.87zm-3.23-3.05c.23.13.3.44.15.68s-.46.33-.69.19l.54-.87zm-4.31-1.31c-.23-.13-.3-.44-.15-.68s.46-.33.69-.19l-.54.87zm-3.24-3.05c.23.13.3.44.15.68s-.46.33-.69.19l.54-.87zm-1.66 1.63c0 .28-.22.51-.5.53s-.5-.2-.5-.47l1-.06zm-1 4.67c0-.28.22-.51.5-.53a.47.47 0 0 1 .5.47l-1 .06zm.99 4.56c0 .28-.22.51-.5.53a.47.47 0 0 1-.5-.47l1-.06zm-1.01 4.66c0-.28.22-.51.5-.53a.47.47 0 0 1 .5.47l-1 .06zm1 4.56c0 .28-.22.51-.5.53a.47.47 0 0 1-.5-.47l1-.06zm-1.01 4.67c0-.28.22-.51.5-.53a.47.47 0 0 1 .5.47l-1 .06zm1 4.56c0 .28-.22.51-.5.53a.47.47 0 0 1-.5-.47l1-.06zm-1.01 4.67c0-.28.22-.51.5-.53s.5.2.5.47l-1 .06zm.99 4.56c0 .28-.22.51-.5.53s-.5-.2-.5-.47l1-.06zm-1 4.66c0-.28.22-.51.5-.53a.47.47 0 0 1 .5.47l-1 .06zm.56-43.85l-.5.03c0-.18.1-.35.26-.45a.49.49 0 0 1 .51-.01l-.27.43zm15.09 8.71l.27-.44c.14.08.23.24.23.41l-.5.03zm.1 46.13l.5-.03c0 .18-.1.35-.26.45a.49.49 0 0 1-.51.01l.27-.43zm-15.26-8.71l-.27.44c-.15-.08-.23-.24-.23-.41l.5-.03z" class="L"/><path d="M161.29 35.37l31.44-19.87-15.34-8.84-31.19 20z" opacity=".5" class="N"/><path d="M163.5 34.54l-1.97 1.24-.5-.84L163 33.7l.5.84zm7.86-4.96l-3.93 2.48-.5-.84 3.93-2.48.5.84zm7.86-4.97l-3.93 2.48-.5-.84 3.93-2.48.5.84zm7.86-4.97l-3.93 2.48-.5-.84 3.93-2.48.5.84zm5.9-3.72l-1.97 1.24-.5-.84 1.97-1.24.5.84zm-1.9-1.96l1.92 1.1-.53.87-1.92-1.1.53-.87zm-7.67-4.42l3.83 2.21-.53.87-3.83-2.21.53-.87zm-5.75-3.31l1.92 1.1-.53.87-1.92-1.1.53-.87zm-2.47 1.27l1.95-1.25.51.83-1.95 1.25-.51-.83zm-7.8 4.99l3.9-2.5.51.83-3.9 2.5-.51-.83zm-7.8 5l3.9-2.5.51.83-3.9 2.5-.51-.83zm-7.8 5l3.9-2.5.51.83-3.9 2.5-.51-.83zm-5.85 3.75l1.95-1.25.51.83-1.95 1.25-.51-.83zm1.87 1.94l-1.89-1.09.54-.87 1.89 1.09-.54.87zm7.55 4.36l-3.77-2.18.54-.87 3.77 2.18-.54.87zm5.66 3.26l-1.89-1.09.54-.87 1.89 1.09-.54.87zm1.98-2.09c.24-.15.54-.09.68.14a.51.51 0 0 1-.18.69l-.5-.83zm4.43-1.65c-.24.15-.54.09-.68-.14a.51.51 0 0 1 .18-.69l.5.83zm3.43-3.32c.24-.15.54-.09.68.14a.51.51 0 0 1-.18.69l-.5-.83zm4.43-1.65c-.24.15-.54.09-.68-.14a.51.51 0 0 1 .18-.69l.5.83zm3.43-3.32c.24-.15.54-.09.68.14a.51.51 0 0 1-.18.69l-.5-.83zm4.43-1.64c-.24.15-.54.09-.68-.14a.51.51 0 0 1 .18-.69l.5.83zm3.43-3.32c.24-.15.54-.09.68.14a.51.51 0 0 1-.18.69l-.5-.83zm4.43-1.65c-.24.15-.54.09-.68-.14a.51.51 0 0 1 .18-.69l.5.83zm-.47-2.33c-.23-.13-.3-.44-.16-.68.15-.24.46-.33.69-.19l-.53.87zm-3.3-3.08c.23.13.3.44.16.68-.15.24-.46.33-.69.19l.53-.87zm-4.37-1.34c-.23-.13-.3-.44-.16-.68.15-.24.46-.33.69-.19l-.53.87zm-3.3-3.08c.23.13.3.44.16.68-.15.24-.46.33-.69.19l.53-.87zm-3.88 1c-.24.15-.54.09-.68-.14a.51.51 0 0 1 .18-.69l.5.83zm-4.4 1.67c.24-.15.54-.09.68.14a.51.51 0 0 1-.18.69l-.5-.83zm-3.4 3.33c-.24.15-.54.09-.68-.14a.51.51 0 0 1 .18-.69l.5.83zm-4.4 1.66c.24-.15.54-.09.68.14a.51.51 0 0 1-.18.69l-.5-.83zm-3.39 3.34c-.24.15-.54.09-.68-.14a.51.51 0 0 1 .18-.69l.5.83zm-4.41 1.66c.24-.15.54-.09.68.14a.51.51 0 0 1-.18.69l-.5-.83zm-3.39 3.33c-.24.15-.54.09-.68-.14a.51.51 0 0 1 .18-.69l.5.83zm-4.41 1.67c.24-.15.54-.09.68.14a.51.51 0 0 1-.18.69l-.5-.83zm.46 2.32c.23.13.3.44.15.68s-.46.33-.69.19l.54-.87zm3.24 3.05c-.23-.13-.3-.44-.15-.68s.46-.33.69-.19l-.54.87zm4.3 1.3c.23.13.3.44.15.68s-.46.33-.69.19l.54-.87zm3.24 3.06c-.23-.13-.3-.44-.15-.68s.46-.33.69-.19l-.54.87zm-12.93-8.06l-.27.44a.45.45 0 0 1-.23-.42c0-.17.1-.34.25-.44l.25.42zm31.19-20l-.25-.42a.51.51 0 0 1 .52-.02l-.27.44zm15.34 8.84l.27-.44a.45.45 0 0 1 .23.42.56.56 0 0 1-.25.44l-.25-.42zm-31.44 19.87l.25.42a.51.51 0 0 1-.52.02l.27-.44z" class="L"/></svg>