<svg xmlns="http://www.w3.org/2000/svg" xmlns:xlink="http://www.w3.org/1999/xlink" viewBox="0 0 225 92" xmlns:v="https://vecta.io/nano"><style><![CDATA[.O{clip-path:url(#D)}.P{fill:#8fadc8}.Q{fill:#e3eeff}.R{opacity:.4}.S{fill:#bbd6ff}]]></style><defs><filter id="A" filterUnits="userSpaceOnUse" x="0" y="0" width="225" height="92"><feColorMatrix values="1 0 0 0 0  0 1 0 0 0  0 0 1 0 0  0 0 0 1 0"/></filter></defs><mask maskUnits="userSpaceOnUse" x="0" y="0" width="225" height="92" id="B"><g filter="url(#A)"><path d="M0 0h225v92H0z" fill="#c4c4c4"/></g></mask><g mask="url(#B)"><defs><path id="C" d="M0 0h225v92H0z"/></defs><clipPath id="D"><use xlink:href="#C"/></clipPath><path d="M107.87 37.61h10.68l-2.36-2.56c-.16-.18-.25-.41-.25-.66s.09-.49.25-.66l.61-.66c.08-.09.18-.16.28-.2.11-.05.22-.07.33-.07s.23.02.33.07a.95.95 0 0 1 .28.2l4.88 5.29c.16.18.25.41.25.66s-.09.49-.25.66l-4.89 5.29c-.08.09-.18.16-.28.2-.11.05-.22.07-.33.07s-.23-.02-.33-.07a.95.95 0 0 1-.28-.2l-.61-.66c-.16-.18-.25-.41-.25-.66s.09-.49.25-.66l2.36-2.56h-10.67a.84.84 0 0 1-.61-.27 1 1 0 0 1-.26-.67v-.94c0-.25.09-.49.25-.66s.39-.28.62-.28z" class="O Q"/><path d="M56.86 31.89v2.4l-1.02-.03v-2.4l1.02.03zm0-9.61v4.81l-1.02-.03v-4.81l1.02.03zm0-7.21v2.4l-1.02-.03v-2.4l1.02.03zm-3.52 1.12l2.73-1.56.54.84-2.73 1.56-.54-.84zm-10.93 6.23l5.47-3.11.54.84-5.47 3.11-.54-.84zm-10.94 6.23l5.47-3.11.54.84-5.47 3.11-.54-.84zm-10.93 6.22L26 31.76l.54.84-5.47 3.11-.53-.84zm-8.2 4.68l2.73-1.56.54.84-2.73 1.56-.54-.84zm-.24 2.85v-2.45l1.02.03v2.45l-1.02-.03zm0 9.78v-4.89l1.02.03v4.89l-1.02-.03zm0 7.34v-2.45l1.02.03v2.45l-1.02-.03zm3.51-1.14l-2.73 1.58-.55-.84 2.73-1.58.55.84zm10.94-6.32l-5.47 3.16-.55-.84L26 51.22l.55.84zm10.93-6.31l-5.47 3.16-.55-.84 5.47-3.16.55.84zm10.94-6.32l-5.47 3.16-.55-.84 5.47-3.16.55.84zm8.2-4.73l-2.73 1.58-.55-.84 2.73-1.58.55.84zm-.79-2.84c0-.27.23-.48.51-.47s.51.23.51.5l-1.02-.03zm1.03-4.78c0 .27-.23.48-.51.47s-.51-.23-.51-.5l1.02.03zm-1.03-4.83c0-.27.23-.48.51-.47s.51.23.51.5l-1.02-.03zm1.03-4.78c0 .27-.23.48-.51.47s-.51-.23-.51-.5l1.02.03zm-2.98-.44a.54.54 0 0 1-.71-.17.47.47 0 0 1 .16-.67l.55.84zm-6.01 2.27a.54.54 0 0 1 .71.17.47.47 0 0 1-.16.67l-.55-.84zm-4.92 3.96a.54.54 0 0 1-.71-.17.47.47 0 0 1 .16-.67l.55.84zm-6.01 2.27a.54.54 0 0 1 .71.17.47.47 0 0 1-.16.67l-.55-.84zm-4.93 3.96a.54.54 0 0 1-.71-.17.47.47 0 0 1 .16-.67l.55.84zM26 31.76a.54.54 0 0 1 .71.17.47.47 0 0 1-.16.67l-.55-.84zm-4.92 3.96a.54.54 0 0 1-.71-.17.47.47 0 0 1 .16-.67l.55.84zm-6.01 2.27a.54.54 0 0 1 .71.17.47.47 0 0 1-.16.67l-.55-.84zm-1.95 4.44c0 .27-.23.48-.51.47s-.51-.23-.51-.5l1.02.03zm-1.02 4.86c0-.27.23-.48.51-.47s.51.23.51.5l-1.02-.03zm1.02 4.92c0 .27-.23.48-.51.47s-.51-.23-.51-.5l1.02.03zm-1.02 4.87c0-.27.23-.48.51-.47s.51.23.51.5l-1.02-.03zm2.97.46a.54.54 0 0 1 .71.17.47.47 0 0 1-.16.67l-.55-.84zm6.01-2.32a.54.54 0 0 1-.71-.17.47.47 0 0 1 .16-.67l.55.84zm4.92-4a.54.54 0 0 1 .71.17.47.47 0 0 1-.16.67l-.55-.84zm6.02-2.32a.54.54 0 0 1-.71-.17.47.47 0 0 1 .16-.67l.55.84zm4.92-3.99a.54.54 0 0 1 .71.17.47.47 0 0 1-.16.67l-.55-.84zm6.01-2.32a.54.54 0 0 1-.71-.17.47.47 0 0 1 .16-.67l.55.84zm4.92-3.99a.54.54 0 0 1 .71.17.47.47 0 0 1-.16.67l-.55-.84zm6.01-2.32a.54.54 0 0 1-.71-.17.47.47 0 0 1 .16-.67l.55.84zM12.61 59.54l.27.42c-.16.09-.36.09-.52 0s-.27-.26-.27-.43l.52.01zm0-19.57l-.51-.01c0-.17.09-.32.24-.41l.27.42zm43.73-24.92l-.27-.42c.16-.09.36-.09.52 0s.26.26.26.43l-.51-.01zm0 19.23l.51.01c0 .17-.09.32-.24.41l-.27-.42z" class="O P"/><path d="M89.72 31.45l3 1.53-.46.86-3-1.53.46-.86zM77.7 25.33l6.01 3.06-.46.86-6.01-3.06.46-.86zm-12.02-6.12l6.01 3.06-.46.86-6.01-3.06.46-.86zm-9.01-4.59l3 1.53-.46.86-3-1.53.46-.86zm-.73 2.86l-.01-2.44 1.02.02.01 2.44-1.02-.02zm.05 9.74l-.03-4.87 1.02.02.03 4.87-1.02-.02zm.05 7.31l-.01-2.44 1.02.02.01 2.44-1.02-.02zm3.27 1.96l-3-1.52.46-.86 3 1.52-.46.86zm11.99 6.07l-5.99-3.04.46-.86 5.99 3.03-.46.87zm11.98 6.07l-5.99-3.04.46-.86 5.99 3.04-.46.86zm8.98 4.55l-3-1.52.46-.86 3 1.52-.46.86zm.75-2.83v2.42l-1.02-.03v-2.42l1.02.03zm0-9.67v4.84l-1.02-.03v-4.84l1.02.03zm0-7.26v2.42l-1.02-.03V33.4l1.02.02zm-3.75-1.11c-.25-.13-.35-.42-.23-.66.13-.24.44-.32.69-.2l-.46.86zm-5.55-3.92c.25.13.35.42.23.66-.13.24-.44.32-.69.2l.46-.86zm-6.47-2.2c-.25-.13-.35-.42-.23-.66s.44-.32.69-.2l-.46.86zm-5.55-3.92c.25.13.35.42.23.66-.13.24-.44.32-.69.2l.46-.86zm-6.47-2.2c-.25-.13-.35-.42-.23-.66s.44-.32.69-.2l-.46.86zm-5.55-3.92c.25.13.35.42.23.66-.13.24-.44.32-.69.2l.46-.86zm-2.71 1.35c0 .27-.23.48-.51.48a.51.51 0 0 1-.51-.5l1.02.02zm-1 4.85c0-.27.23-.48.51-.48.28.01.51.23.51.5l-1.02-.02zm1.06 4.89c0 .27-.23.48-.51.48-.28-.01-.51-.23-.51-.5l1.02.02zm-1 4.85c0-.27.23-.48.51-.48.28.01.51.23.51.5l-1.02-.02zm3.75 3.54c.25.13.35.42.23.66-.13.24-.44.33-.69.2l.46-.86zm5.53 3.89c-.25-.13-.35-.42-.23-.66.13-.24.44-.33.69-.2l-.46.86zm6.46 2.18c.25.13.35.42.23.66-.13.24-.44.33-.69.2l.46-.86zm5.53 3.89c-.25-.13-.35-.42-.23-.66.13-.24.44-.33.69-.2l-.46.86zm6.45 2.18c.25.13.35.42.23.66-.13.24-.44.33-.69.2l.46-.86zm5.53 3.89c-.25-.13-.35-.42-.23-.66.13-.24.44-.33.69-.2l-.46.86zm2.71-1.34c0-.27.23-.48.51-.47s.51.23.51.5l-1.02-.03zm1.03-4.81c0 .27-.23.48-.51.47s-.51-.23-.51-.5l1.02.03zm-1.03-4.86c0-.27.23-.48.51-.47s.51.23.51.5l-1.02-.03zm1.03-4.81c0 .27-.23.48-.51.47s-.51-.23-.51-.5l1.02.03zm-.52 16.91l.51.01c0 .17-.09.32-.24.41a.55.55 0 0 1-.5.01l.23-.43zM56.55 34.54l-.23.43c-.17-.09-.28-.26-.28-.44l.51.01zm-.12-19.49l-.51-.01c0-.17.09-.33.24-.41.15-.09.34-.09.5-.01l-.23.43zm36.06 18.36l.23-.43c.17.09.28.26.28.44l-.51-.01z" class="O P"/><path d="M48.84 69.57c.26.03.4.22.58.57.35.67 1.11 1.14 1.54 1.35.12.06.23.1.33.11.16.02.29-.03.4-.14.43-.43.44-1.75.35-2.48l-.01-.1.09-.04 1.48-.63 1.94-.81c1.47-.55 2.89-1.29 4.27-2.01l1.1-.57c4.3-2.18 7.59-4.03 10.69-5.97 2.75-1.72 5.66-4.25 8.93-7.72l.36-.38c1.12-1.18 2.27-2.41 3.25-3.72l.6-.78c.56-.72 1.09-1.4 1.53-2.19l.06-.07h.05c.15-.02.31-.03.46-.03.18-.01.34-.01.5-.04.54-.08 1.04-.2 1.52-.36l.04-.02c.26-.09.86-.28.9-.59.06-.44-.86-.66-1.3-.76-.08-.02-.15-.04-.2-.05-.64-.18-1.09-.26-1.62-.28h-.14c-.2-.01-.46-.03-.72-.02h-.08l-.04-.06c-1.27-2.05-2.86-4.4-4.89-6.29-1.89-1.75-4.27-3.1-6.55-4.3-2.79-1.46-5.73-2.24-8.24-2.8l-3.25-.72-.99-.22c-.4-.09-1.46-.3-2.03-.29h-.11l-.02-.11c-.01-.07-.02-.14-.05-.2-.07-.17-.17-.34-.32-.53-.16-.2-.33-.41-.52-.43-.07-.01-.15 0-.24.05-.23.11-.35.66-.41.95-.01.06-.03.11-.04.16a4.89 4.89 0 0 0-.08.37c-.07.29-.14.6-.23.9 0 .01-.01.03-.02.07l-.06.16-.07.01c-3.21.57-6.36 1.95-9.4 3.28l-1.87.81c-4.07 1.73-8.15 3.77-12.12 6.06-4.09 2.36-7.54 4.73-10.56 7.25-.27.22-.72.55-1.2.91-.82.61-1.76 1.29-2.13 1.7-.38.4-1.09.46-1.77.52s-1.38.13-1.65.52c-.04.06-.03.09-.02.12.1.29 1.1.57 1.82.79.6.17 1.16.34 1.44.52.5.32 1.13 1.55 1.69 2.63.32.63.63 1.22.83 1.49 3.04 3.91 6.11 6.85 9.63 9.26 3.88 2.65 7.73 4.33 11.47 4.99.51.09.96.16 1.38.21 1.27.16 2.35.16 3.29.02.17-.07.31-.08.43-.07zm2.42 2.28c-.13-.02-.27-.06-.41-.14-.45-.23-1.26-.73-1.65-1.46-.18-.35-.27-.41-.38-.43-.09-.01-.21.01-.39.04-.99.15-2.09.14-3.38-.01a24.08 24.08 0 0 1-1.4-.21c-3.77-.67-7.66-2.36-11.56-5.04-3.55-2.43-6.63-5.39-9.69-9.32-.22-.29-.51-.86-.86-1.52-.52-1-1.16-2.25-1.6-2.53-.25-.16-.8-.33-1.37-.49-1.12-.33-1.85-.57-2-.95a.39.39 0 0 1 .05-.35c.34-.49 1.1-.56 1.83-.63.64-.06 1.29-.12 1.61-.45.4-.43 1.34-1.11 2.17-1.73.48-.35.93-.68 1.19-.9 3.03-2.53 6.49-4.92 10.59-7.28a114.66 114.66 0 0 1 12.15-6.07l1.87-.81c3.04-1.33 6.17-2.7 9.39-3.28l.03-.08c.09-.28.16-.59.23-.88l.09-.37c-.01-.03 0-.08.02-.14.09-.38.21-.96.56-1.12a.66.66 0 0 1 .38-.07c.3.03.5.28.69.53.17.21.29.4.36.6.02.04.03.09.04.13.17.01.37.02.58.04.55.06 1.13.19 1.4.25l.99.22 3.25.72c2.53.56 5.49 1.34 8.3 2.82 2.31 1.21 4.7 2.58 6.61 4.35 2.04 1.89 3.62 4.23 4.89 6.28.25-.01.49.01.67.02l.14.01c.54.02 1.01.11 1.68.29.05.01.11.03.19.05.55.13 1.58.37 1.5 1.04-.06.47-.72.68-1.07.8l-.04.02a9.36 9.36 0 0 1-1.56.37c-.17.03-.35.03-.52.04-.13.01-.26.01-.39.02-.44.78-.96 1.45-1.53 2.17l-.6.77c-.99 1.33-2.15 2.56-3.27 3.75l-.36.38c-3.27 3.49-6.21 6.02-8.97 7.76-3.11 1.95-6.41 3.79-10.71 5.98l-1.1.57c-1.38.72-2.82 1.46-4.3 2.02-.64.25-1.29.53-1.92.81l-1.39.6c.08.73.08 2.07-.44 2.6-.15.17-.36.24-.59.21z" class="O S"/><path d="M88.3 42.02c-.56-.15-1.07-.26-1.65-.28l-.88-.03c-1.4-2.26-2.95-4.5-4.92-6.32-1.89-1.75-4.31-3.12-6.58-4.32-2.61-1.37-5.41-2.17-8.27-2.81l-4.16-.92c-.34-.07-1.4-.32-2.15-.31-.02-.08-.03-.15-.06-.22-.08-.21-.2-.39-.34-.57-.26-.32-.5-.61-.91-.42-.34.17-.45.91-.52 1.2l-.32 1.26c0 .01-.03.07-.06.15-3.89.69-7.72 2.57-11.29 4.09-4.17 1.77-8.22 3.8-12.13 6.06-3.74 2.15-7.27 4.5-10.57 7.27-.7.59-2.73 1.96-3.34 2.62-.71.76-2.84.21-3.43 1.06-.49.72 2.52 1.12 3.27 1.61.76.49 1.93 3.37 2.49 4.09 2.81 3.61 5.86 6.69 9.66 9.29 3.45 2.36 7.38 4.28 11.51 5.01 1.52.27 3.18.46 4.72.23.53-.08.64-.11.92.46.32.62.99 1.09 1.59 1.41 1.39.71 1.38-1.73 1.27-2.64 1.14-.46 2.26-1.01 3.4-1.45 1.86-.7 3.62-1.68 5.38-2.58 3.67-1.87 7.21-3.79 10.7-5.98 3.26-2.05 6.32-4.94 8.95-7.74 1.25-1.33 2.52-2.65 3.62-4.12.76-1.02 1.54-1.91 2.13-2.98 0-.01.01-.01.02-.01.32-.04.67-.03.97-.08.53-.08 1.04-.2 1.54-.37.29-.1.97-.3 1.02-.71.1-.64-1.19-.85-1.58-.95z" class="O Q"/><g class="O"><defs><path id="E" d="M88.3 42.02c-.56-.15-1.07-.26-1.65-.28l-.88-.03c-1.4-2.26-2.95-4.5-4.92-6.32-1.89-1.75-4.31-3.12-6.58-4.32-2.61-1.37-5.41-2.17-8.27-2.81l-4.16-.92c-.34-.07-1.4-.32-2.15-.31-.02-.08-.03-.15-.06-.22-.08-.21-.2-.39-.34-.57-.26-.32-.5-.61-.91-.42-.34.17-.45.91-.52 1.2l-.32 1.26c0 .01-.03.07-.06.15-3.89.69-7.72 2.57-11.29 4.09-4.17 1.77-8.22 3.8-12.13 6.06-3.74 2.15-7.27 4.5-10.57 7.27-.7.59-2.73 1.96-3.34 2.62-.71.76-2.84.21-3.43 1.06-.49.72 2.52 1.12 3.27 1.61.76.49 1.93 3.37 2.49 4.09 2.81 3.61 5.86 6.69 9.66 9.29 3.45 2.36 7.38 4.28 11.51 5.01 1.52.27 3.18.46 4.72.23.53-.08.64-.11.92.46.32.62.99 1.09 1.59 1.41 1.39.71 1.38-1.73 1.27-2.64 1.14-.46 2.26-1.01 3.4-1.45 1.86-.7 3.62-1.68 5.38-2.58 3.67-1.87 7.21-3.79 10.7-5.98 3.26-2.05 6.32-4.94 8.95-7.74 1.25-1.33 2.52-2.65 3.62-4.12.76-1.02 1.54-1.91 2.13-2.98 0-.01.01-.01.02-.01.32-.04.67-.03.97-.08.53-.08 1.04-.2 1.54-.37.29-.1.97-.3 1.02-.71.1-.64-1.19-.85-1.58-.95z"/></defs><clipPath id="F"><use xlink:href="#E"/></clipPath><path d="M90.88 43.11c.08-.55-.17-.99-.45-1.26-.25-.25-.56-.39-.78-.49-.44-.18-1.01-.29-1.09-.31l-.5 1.94.21.05c.07.02.14.03.22.05.16.04.3.08.42.13.13.05.16.08.13.06-.02-.02-.06-.07-.1-.15-.04-.09-.05-.2-.04-.29l1.98.27zm-1.7 1.52c.12-.04.46-.14.76-.31.24-.13.85-.5.94-1.23l-1.99-.23c.02-.18.11-.28.13-.31.02-.02.02-.01-.03.02s-.12.06-.2.09l-.24.08.63 1.89zm-1.7.4c.58-.09 1.14-.22 1.7-.41l-.63-1.9c-.45.15-.9.25-1.38.33l.31 1.98zm-1 .09l.43-.03.58-.05-.31-1.98-.38.03-.55.04.23 1.99zm.86-.87a1.01 1.01 0 0 1-.24.54c-.13.14-.26.21-.29.22-.02.01-.03.02-.03.01 0 0 .02-.01.03-.02.04-.02.1-.06.17-.11l-1.24-1.57a1.21 1.21 0 0 1 .16-.1c.01 0 .02-.01.02-.01.01 0 0 .01-.02.02-.03.02-.17.09-.3.23-.15.17-.23.37-.25.55l1.99.24zm-2.33 3.46c.71-.94 1.57-1.95 2.21-3.09l-1.74-.98c-.55.99-1.24 1.77-2.06 2.87l1.59 1.2zm-3.68 4.21l3.69-4.2-1.6-1.2c-1.05 1.41-2.28 2.69-3.54 4.03l1.45 1.37zm-9.15 7.9c3.36-2.11 6.5-5.08 9.15-7.9l-1.46-1.37c-2.6 2.77-5.6 5.6-8.75 7.58l1.06 1.69zM61.4 65.84c3.69-1.88 7.25-3.81 10.78-6.02l-1.06-1.69c-3.46 2.17-6.96 4.07-10.62 5.93l.9 1.78zm-5.49 2.63c1.93-.72 3.77-1.75 5.49-2.63l-.91-1.78c-1.82.93-3.49 1.87-5.28 2.54l.7 1.87zm-3.38 1.44c.59-.24 1.17-.5 1.73-.75s1.11-.49 1.65-.69l-.71-1.87a35.4 35.4 0 0 0-1.75.73l-1.67.72.75 1.86zm-2.1 2.59c.57.29 1.26.37 1.85-.07.48-.36.68-.91.77-1.29.2-.81.16-1.78.09-2.29l-1.98.25c.05.4.07 1.1-.05 1.56-.06.25-.12.23-.02.16.07-.05.16-.08.25-.08.07 0 .08.02 0-.02l-.91 1.78zm-2.02-1.83c.47.89 1.35 1.49 2.01 1.83l.93-1.77c-.55-.29-.99-.64-1.17-.99l-1.77.93zm.11.06c.07-.01.12-.02.16-.02.04-.01.06-.01.07-.01.02 0-.08.01-.22-.05-.07-.03-.12-.06-.16-.1-.04-.03-.06-.06-.06-.06l.02.03c.02.03.04.07.07.13l1.78-.91c-.12-.24-.36-.73-.88-.94-.26-.11-.51-.11-.67-.1-.15.01-.31.04-.42.05l.31 1.98zm-5.04-.22c1.54.27 3.34.49 5.05.23l-.3-1.98c-1.37.21-2.9.04-4.4-.22l-.35 1.97zm-11.91-5.17c3.53 2.41 7.59 4.41 11.9 5.17l.35-1.97c-3.95-.7-7.75-2.54-11.12-4.85l-1.13 1.65zm-9.88-9.51c2.86 3.68 5.98 6.83 9.88 9.5l1.13-1.65c-3.69-2.53-6.67-5.53-9.43-9.08l-1.58 1.23zm-2.24-3.86c-.01-.01.1.09.33.44.2.31.42.71.64 1.14.2.37.47.92.65 1.26.19.37.41.76.61 1.02l1.58-1.22c-.08-.1-.22-.34-.43-.73l-.65-1.26c-.23-.44-.48-.9-.73-1.29-.22-.34-.54-.79-.93-1.04l-1.07 1.68zm-3.56-3.01a1.24 1.24 0 0 0-.11 1.24c.16.34.43.54.59.65.35.23.82.39 1.21.52l1.21.37.46.15c.06.02.11.04.14.06.04.02.05.03.05.03l1.09-1.68c-.32-.21-.79-.36-1.14-.47l-1.19-.36c-.4-.13-.63-.23-.73-.29-.06-.04.05.01.13.19.12.27.06.56-.05.73l-1.66-1.14zm3.53-1.18c.03-.03 0 .02-.24.07-.23.05-.51.08-.88.11-.33.03-.77.07-1.16.18s-.9.32-1.24.82l1.65 1.13c-.05.07-.07.03.12-.02s.45-.08.81-.12c.32-.03.75-.06 1.13-.15.38-.08.88-.25 1.27-.66l-1.46-1.36zm3.43-2.7c-.32.27-.95.72-1.65 1.24-.64.48-1.39 1.04-1.78 1.45l1.46 1.37c.23-.25.81-.7 1.51-1.22.64-.47 1.37-1 1.75-1.32l-1.29-1.52zm10.72-7.37c-3.78 2.17-7.36 4.55-10.72 7.37l1.29 1.53c3.24-2.73 6.72-5.04 10.43-7.17l-1-1.73zm12.24-6.12c-4.21 1.79-8.29 3.84-12.24 6.11l1 1.73c3.88-2.24 7.9-4.25 12.02-6.01l-.78-1.83zm11.51-4.15c-4.04.72-8.01 2.67-11.51 4.16l.78 1.84c3.66-1.56 7.33-3.36 11.08-4.03l-.35-1.97zm-.76.71c0-.03.01-.05.01-.07s.01-.04.01-.05c.01-.02.01-.04.02-.06s.01-.04.01-.04c-.01.02-.03.07-.05.13l1.87.71c.01-.02.02-.04.03-.07 0-.01.01-.04.02-.06 0-.01.01-.04.02-.06 0-.01.01-.04.02-.06s.02-.07.02-.13l-1.98-.24zm.34-1.37c-.12.48-.18.82-.3 1.2l1.91.6c.14-.45.25-.96.33-1.32l-1.94-.48zm1.06-1.86c-.33.16-.52.41-.63.6a2.3 2.3 0 0 0-.24.55c-.09.27-.17.68-.18.71l1.94.5c.01-.05.03-.11.04-.16l.03-.15c.02-.1.05-.19.07-.27.01-.04.02-.07.03-.09s.02-.03.02-.03c-.02.02-.03.03-.04.05-.03.03-.08.08-.16.11l-.88-1.82zm2.12.69c-.1-.12-.33-.43-.65-.62-.18-.11-.41-.21-.69-.23a1.52 1.52 0 0 0-.77.15l.84 1.81c-.02.01-.1.04-.21.03s-.19-.04-.22-.07c-.03-.02-.03-.02.01.01.04.04.08.09.14.17l1.55-1.25zm.51.84c-.13-.34-.32-.62-.51-.85l-1.54 1.27a1.13 1.13 0 0 1 .18.28l1.87-.7zm.09.35c0-.01 0-.02-.01-.04 0-.02-.01-.04-.02-.07-.01-.05-.04-.15-.08-.26l-1.85.76c-.01-.02-.02-.04-.02-.05 0 .01 0 .02.01.04a.31.31 0 0 0 .02.08l1.95-.46zm1.38-.44c-.29-.06-1.48-.35-2.37-.34l.02 2c.61-.01 1.53.21 1.92.29l.43-1.95zm4.17.92l-4.16-.92-.43 1.95 4.16.92.43-1.95zm8.52 2.9c-2.73-1.43-5.63-2.25-8.51-2.9l-.44 1.95c2.83.64 5.53 1.41 8.02 2.72l.93-1.77zm6.79 4.47c-2-1.85-4.51-3.27-6.79-4.47l-.93 1.77c2.27 1.19 4.58 2.51 6.37 4.17l1.35-1.47zm5.09 6.53c-1.42-2.28-3.02-4.62-5.09-6.53l-1.36 1.47c1.86 1.72 3.35 3.87 4.74 6.11l1.71-1.05zm.07-.44c-.15-.01-.56-.04-.95-.03l.04 2c.3-.01.58.02.81.03l.1-2zm1.87.32c-.59-.16-1.19-.29-1.88-.32l-.07 2a5.82 5.82 0 0 1 1.42.25l.53-1.93zm1.32 1.91l-.99-.14v.02l.99.12zm-1.02.71l-.31-.95.31.95zm-1.54.37l-.15-.99.15.99zm-.97.07l-.12-.99-.28.03-.22.18.62.78zm-.01.02l.87.49.1-.17.02-.2-.99-.12zm-2.14 2.97l-.8-.6.8.6zm-3.61 4.12l-.73-.68.73.68zm-8.95 7.74l.53.85-.53-.85zm-10.7 5.98l-.45-.89.45.89zm-5.39 2.58l-.35-.94.35.94zm-3.4 1.45l-.37-.93-.71.29.09.76.99-.12zm-1.27 2.63l-.46.89h.01l.45-.89zM49.3 70.2l-.89.45v.01l.89-.46zm-.93-.45l.15.99-.15-.99zm-4.72-.23l-.17.98.17-.98zm-11.51-5.01l-.57.82.57-.82zm-9.66-9.29l-.79.61.79-.61zm-2.49-4.09l-.54.84.54-.84zm-3.27-1.61l-.82-.57.82.57zm3.43-1.06l.73.68-.73-.68zm3.34-2.62l-.64-.77.64.77zm10.57-7.26l.5.87-.5-.87zm12.14-6.07l.39.92-.39-.92zm11.29-4.09l.18.98.56-.1.2-.53-.94-.35zm.06-.15l-.95-.3-.03.09-.01.09.99.12zm.32-1.25l-.97-.25v.01l.97.24zm.52-1.2l-.42-.91h-.02l.44.91zm.92.42l-.78.63.01.01.77-.64zm.34.57l-.94.35.02.02.92-.37zm.06.22l-.97.23.18.78.8-.01-.01-1zm2.14.31l.22-.98-.22.98zm4.16.92l.22-.98-.22.98zm8.27 2.81l.47-.88-.47.88zm6.58 4.32l-.68.73.68-.73zm4.92 6.32l-.85.53.3.49.57-.01-.02-1.01zm.87.03l-.05 1h.01l.04-1zm1.65.28l-.27.96h.02l.25-.96z" clip-path="url(#F)" class="P"/><path d="M77.39 39.85c-1.16 2.68-3.46 4.62-5.71 6.38l-7.96 5.9c-6.07 3.82-13.14 6.38-20.36 6.5-6.37.1-13.86-2.64-17.68-8.02-.65-.91-1.58-2.17-1.08-3.36.52-1.22 1.42-2.05 2.48-2.81 3.03-2.15 6.12-4.08 9.38-5.86 1.53-.84 3.1-1.61 4.68-2.34 2.47-1.43 5.03-2.72 7.66-3.83 3.01-1.27 6.13-2.35 9.31-3.13 3.24-.8 6.21-.61 9.31.65 2.87 1.16 5.4 2.86 7.78 4.84 1.5 1.25 3.1 3 2.19 5.08zm10.91 2.17c-.56-.15-1.07-.26-1.65-.28-.19-.01-.54-.04-.88-.03-1.4-2.26-2.95-4.5-4.92-6.32-1.89-1.75-4.31-3.12-6.58-4.32-2.61-1.37-5.41-2.17-8.27-2.81l-4.16-.92c-.34-.07-1.4-.32-2.15-.31-.02-.08-.03-.15-.06-.22-.08-.21-.2-.39-.34-.57-.26-.32-.5-.61-.91-.42-.34.17-.45.91-.52 1.2-.1.42-.19.84-.32 1.26 0 .01-.03.07-.06.15-3.89.69-7.72 2.57-11.29 4.09-4.17 1.77-8.22 3.8-12.13 6.06-3.74 2.15-7.27 4.5-10.57 7.27-.7.59-2.73 1.96-3.34 2.62-.71.76-2.84.21-3.43 1.06-.49.72 2.52 1.12 3.27 1.61.76.49 1.93 3.37 2.49 4.09 2.81 3.61 5.86 6.69 9.66 9.29 3.45 2.36 7.38 4.28 11.51 5.01 1.52.27 3.18.46 4.72.23.53-.08.64-.11.92.46.32.62.99 1.09 1.59 1.41 1.39.71 1.38-1.73 1.27-2.64 1.14-.46 2.26-1.01 3.4-1.45 1.86-.7 3.62-1.68 5.38-2.58 3.67-1.87 7.21-3.79 10.7-5.98 3.26-2.05 6.32-4.94 8.95-7.74 1.25-1.33 2.52-2.65 3.62-4.12.76-1.02 1.54-1.91 2.13-2.98 0-.01.01-.01.02-.01.32-.04.67-.03.97-.08.53-.08 1.04-.2 1.54-.37.29-.1.97-.3 1.02-.71.1-.64-1.19-.85-1.58-.95z" class="Q R"/><path d="M88.31 42.02c-.56-.15-1.07-.26-1.65-.28l-.88-.03c-1.4-2.26-2.95-4.5-4.92-6.32l-1.17-.98c1.16 1.88 1.97 3.93 2.04 6.27.04 1.15.49 3.16-1.02 3.61-.72.22-1.47.26-2.22.25 1.08.3 2.1.72 2.84 1.61.1.11.06.27-.04.36-8.31 7.86-18.13 13.76-28.56 18.35-.19.09-.36-.08-.36-.27 0-.73.42-3.14.18-4.68-.14.61-.27 1.21-.45 1.81-.24.81-.55 2.13-1.3 2.67-1.47 1.06-3.58-.58-5.24-1.31 1.39 1.36 2.81 2.69 3.96 4.27.11.16.03.38-.16.41-3.3.54-6.78-.51-9.75-1.89-3.22-1.5-6.53-3.28-9.38-5.41-2.87-2.16-5.63-4.98-7.43-8.11-.69-1.22-1.31-2.51-.9-3.94.22-.77.59-1.48 1.02-2.14-.9.67-2.28 1.65-2.77 2.17-.71.76-2.84.21-3.43 1.06-.49.72 2.52 1.12 3.27 1.61.76.49 1.93 3.37 2.49 4.09 2.81 3.61 5.86 6.69 9.66 9.29 3.45 2.36 7.38 4.28 11.51 5.01 1.52.27 3.18.46 4.72.23.53-.08.64-.11.92.46.32.62.99 1.09 1.59 1.41 1.39.71 1.38-1.73 1.27-2.64 1.14-.46 2.26-1.01 3.4-1.45 1.86-.7 3.62-1.68 5.38-2.58 3.67-1.87 7.21-3.79 10.7-5.98 3.26-2.05 6.32-4.94 8.95-7.74 1.25-1.33 2.52-2.65 3.62-4.12.76-1.02 1.54-1.91 2.13-2.98 0-.01.01-.01.02-.01.32-.04.67-.03.97-.08.53-.08 1.04-.2 1.54-.37.29-.1.97-.3 1.02-.71.1-.61-1.19-.82-1.57-.92z" class="R S"/><path d="M49.69 68.86c-6.91.5-14.13-3.4-19.38-7.63-2.34-1.88-4.37-3.78-6.24-6.16-1.67-2.12-2.58-4.82-5.47-5.36-.05-.01-.15.1-.1.12 3.02.96 4.44 4.45 6.38 6.76 2.06 2.46 4.57 4.58 7.25 6.33 5.06 3.31 11.12 6.97 17.42 6.18.09 0 .29-.25.14-.24zm34.86-23.62c-2.04 3.01-4.9 5.51-7.68 7.83a69.48 69.48 0 0 1-7.9 5.74c-5.16 3.23-10.58 6.03-15.92 8.95-.11.06-.24.35-.03.24 6.09-3.32 12.36-6.4 18.17-10.21 2.67-1.75 5.29-3.74 7.54-6.01 2.12-2.14 4.36-3.91 5.91-6.56.06-.08-.07-.03-.09.02z" class="Q R"/><defs><path id="G" d="M88.19 41.95c-.56-.15-1.07-.26-1.65-.28l-.88-.03c-1.4-2.26-2.95-4.5-4.92-6.32-1.89-1.75-4.31-3.12-6.58-4.32-2.61-1.37-5.41-2.17-8.27-2.81l-4.16-.92c-.34-.07-1.4-.32-2.15-.31-.02-.08-.03-.15-.06-.22-.08-.21-.2-.39-.34-.57-.26-.32-.5-.61-.91-.42-.34.17-.45.91-.52 1.2l-.32 1.26c0 .01-.03.07-.06.15-3.89.69-7.72 2.57-11.29 4.09-4.17 1.77-8.22 3.8-12.13 6.06-3.74 2.15-7.27 4.5-10.57 7.27-.7.59-2.73 1.96-3.34 2.62-.71.76-2.84.21-3.43 1.06-.49.72 2.52 1.12 3.27 1.61.76.49 1.93 3.37 2.49 4.09 2.81 3.61 5.86 6.69 9.66 9.29 3.45 2.36 7.38 4.28 11.51 5.01 1.52.27 3.18.46 4.72.23.53-.08.64-.11.92.46.32.62.99 1.09 1.59 1.41 1.39.71 1.38-1.73 1.27-2.64 1.14-.46 2.26-1.01 3.4-1.45 1.86-.7 3.62-1.68 5.38-2.58 3.67-1.87 7.21-3.79 10.7-5.98 3.26-2.05 6.32-4.94 8.95-7.74 1.25-1.33 2.52-2.65 3.62-4.12.76-1.02 1.54-1.91 2.13-2.98 0-.01.01-.01.02-.01.32-.04.67-.03.97-.08.53-.08 1.04-.2 1.54-.37.29-.1.97-.3 1.02-.71.09-.65-1.2-.85-1.58-.95z"/></defs><clipPath id="H"><use xlink:href="#G"/></clipPath><path d="M90.76 43.04c.08-.55-.17-.99-.45-1.26-.25-.25-.56-.39-.78-.49-.44-.18-1.01-.29-1.09-.31l-.5 1.94.21.05c.07.02.14.03.22.05.16.04.3.08.42.13.13.05.16.08.13.06-.02-.02-.06-.07-.1-.15-.04-.09-.05-.2-.04-.29l1.98.27zm-1.7 1.52c.12-.04.46-.14.76-.31.24-.13.85-.5.94-1.23l-1.99-.23c.02-.18.11-.28.13-.31.02-.02.02-.01-.03.02s-.12.06-.2.09l-.24.08.63 1.89zm-1.7.4c.58-.09 1.14-.22 1.7-.41l-.63-1.9c-.45.15-.9.25-1.38.33l.31 1.98zm-1 .09l.43-.03.58-.05-.31-1.98-.38.03-.55.04.23 1.99zm.86-.87a1.01 1.01 0 0 1-.24.54c-.13.14-.26.21-.29.22-.02.01-.03.02-.03.01 0 0 .02-.01.03-.02.04-.02.1-.06.17-.11l-1.24-1.57a1.21 1.21 0 0 1 .16-.1c.01 0 .02-.01.02-.01.01 0 0 .01-.02.02-.03.02-.17.09-.3.23-.15.17-.23.37-.25.55l1.99.24zm-2.32 3.46c.71-.94 1.57-1.95 2.21-3.09l-1.74-.98c-.55.99-1.24 1.77-2.06 2.87l1.59 1.2zm-3.69 4.21l3.69-4.2-1.6-1.2c-1.05 1.41-2.28 2.69-3.54 4.03l1.45 1.37zm-9.15 7.9c3.36-2.11 6.5-5.08 9.15-7.9l-1.46-1.37c-2.6 2.77-5.6 5.6-8.75 7.58l1.06 1.69zm-10.78 6.02c3.69-1.88 7.25-3.81 10.78-6.02L71 58.05c-3.46 2.17-6.96 4.07-10.62 5.93l.9 1.79zm-5.49 2.63c1.93-.72 3.77-1.75 5.49-2.63l-.91-1.78c-1.82.93-3.49 1.87-5.28 2.54l.7 1.87zm-3.38 1.43c.59-.24 1.17-.5 1.73-.75s1.11-.49 1.65-.69l-.71-1.87a35.4 35.4 0 0 0-1.75.73l-1.67.72.75 1.86zm-2.09 2.6c.57.29 1.26.37 1.85-.07.48-.36.68-.91.77-1.29.2-.81.16-1.78.09-2.29l-1.98.25c.05.4.07 1.1-.05 1.56-.06.25-.12.23-.02.16.07-.05.16-.08.25-.08.07 0 .08.02 0-.02l-.91 1.78zm-2.03-1.83c.47.89 1.35 1.49 2.01 1.83l.93-1.77c-.55-.29-.99-.64-1.17-.99l-1.77.93zm.12.06c.07-.01.12-.02.16-.02.04-.01.06-.01.07-.01.02 0-.08.01-.22-.05-.07-.03-.12-.06-.16-.1-.04-.03-.06-.06-.06-.06l.02.03a1.31 1.31 0 0 1 .07.13l1.78-.91c-.12-.24-.36-.73-.88-.94-.26-.11-.51-.11-.67-.1-.15.01-.31.04-.42.05l.31 1.98zm-5.05-.23c1.54.27 3.34.49 5.05.23l-.3-1.98c-1.37.21-2.9.04-4.4-.22l-.35 1.97zm-11.9-5.16c3.53 2.41 7.59 4.41 11.9 5.17l.35-1.97c-3.95-.7-7.75-2.54-11.12-4.85l-1.13 1.65zm-9.88-9.51c2.86 3.68 5.98 6.83 9.88 9.5l1.13-1.65c-3.69-2.53-6.67-5.53-9.43-9.08l-1.58 1.23zm-2.24-3.86c-.01-.01.1.09.33.44.2.31.42.71.64 1.14.2.37.47.92.65 1.26.19.37.41.76.61 1.02l1.58-1.22c-.08-.1-.22-.34-.43-.73l-.65-1.26c-.23-.44-.48-.9-.73-1.29-.22-.34-.54-.79-.93-1.04l-1.07 1.68zm-3.56-3.01a1.24 1.24 0 0 0-.11 1.24c.16.34.43.54.59.65.35.23.82.39 1.21.52l1.21.37.46.15c.06.02.11.04.14.06.04.02.05.03.05.03l1.09-1.68c-.32-.21-.79-.36-1.14-.47l-1.19-.36c-.4-.13-.63-.23-.73-.29-.06-.04.05.01.13.19.12.27.06.56-.05.73l-1.66-1.14zm3.52-1.18c.03-.03 0 .02-.24.07-.23.05-.51.08-.88.11-.33.03-.77.07-1.16.18s-.9.32-1.24.82l1.65 1.13c-.05.07-.07.03.12-.02s.45-.08.81-.12c.32-.03.75-.06 1.13-.15.38-.08.88-.25 1.27-.66l-1.46-1.36zm3.43-2.7c-.32.27-.95.72-1.65 1.24-.64.48-1.39 1.04-1.78 1.45l1.46 1.37c.23-.25.81-.7 1.51-1.22.64-.47 1.37-1 1.75-1.32l-1.29-1.52zm10.72-7.37c-3.78 2.17-7.36 4.55-10.72 7.37l1.29 1.53c3.24-2.73 6.72-5.04 10.43-7.17l-1-1.73zm12.24-6.12c-4.21 1.79-8.29 3.84-12.24 6.11l1 1.73c3.88-2.24 7.9-4.25 12.02-6.01l-.78-1.83zm11.51-4.15c-4.04.72-8.01 2.67-11.51 4.16l.78 1.84c3.66-1.56 7.33-3.36 11.08-4.03l-.35-1.97zm-.76.71c0-.03.01-.05.01-.07s.01-.04.01-.05c.01-.02.01-.04.02-.06s.01-.04.01-.04c-.01.02-.03.07-.05.13l1.87.71c.01-.02.02-.04.03-.07 0-.01.01-.04.02-.06 0-.01.01-.04.02-.06 0-.01.01-.04.02-.06s.02-.07.02-.13l-1.98-.24zm.34-1.38c-.12.48-.18.82-.3 1.2l1.91.6c.14-.45.25-.96.33-1.32l-1.94-.48zm1.06-1.85c-.33.16-.52.41-.63.6a2.3 2.3 0 0 0-.24.55c-.09.27-.17.68-.18.71l1.94.5c.01-.05.03-.11.04-.16l.03-.15c.02-.1.05-.19.07-.27.01-.04.02-.07.03-.09s.02-.03.02-.03c-.02.02-.03.03-.04.05-.03.03-.08.08-.16.11l-.88-1.82zm2.13.69c-.1-.12-.33-.43-.65-.62-.18-.11-.41-.21-.69-.23a1.52 1.52 0 0 0-.77.15l.84 1.81c-.02.01-.1.04-.21.03s-.19-.04-.22-.07c-.03-.02-.03-.02.01.01.04.04.08.09.14.17l1.55-1.25zm.5.84c-.13-.34-.32-.62-.51-.85l-1.54 1.27a1.13 1.13 0 0 1 .18.28l1.87-.7zm.09.34c0-.01 0-.02-.01-.04 0-.02-.01-.04-.02-.07-.01-.05-.04-.15-.08-.26l-1.85.76c-.01-.02-.02-.04-.02-.05 0 .01 0 .02.01.04 0 .02.01.05.02.08l1.95-.46zm1.39-.43c-.29-.06-1.48-.35-2.37-.34l.02 2c.61-.01 1.53.21 1.92.29l.43-1.95zm4.16.92l-4.16-.92-.43 1.95 4.16.92.43-1.95zm8.52 2.9c-2.73-1.43-5.63-2.25-8.51-2.9l-.44 1.95c2.83.64 5.53 1.41 8.02 2.72l.93-1.77zm6.79 4.47c-2-1.85-4.51-3.27-6.79-4.47l-.93 1.77c2.27 1.19 4.58 2.51 6.37 4.17l1.35-1.47zm5.09 6.53c-1.42-2.28-3.02-4.62-5.09-6.53l-1.36 1.47c1.86 1.72 3.35 3.87 4.74 6.11l1.71-1.05zm.07-.44c-.15-.01-.56-.04-.95-.03l.04 2c.3-.01.58.02.81.03l.1-2zm1.87.31c-.59-.16-1.19-.29-1.88-.32l-.07 2a5.82 5.82 0 0 1 1.42.25l.53-1.93zm1.32 1.92l-.99-.14v.02l.99.12zm-1.02.71l-.31-.95.31.95zm-1.54.36l-.15-.99.15.99zm-.97.08l-.12-.99-.28.03-.22.18.62.78zm-.01.01l.87.49.1-.17.02-.2-.99-.12zm-2.13 2.98l-.8-.6.8.6zm-3.62 4.12l-.73-.68.73.68zm-8.95 7.74l.53.85-.53-.85zm-10.7 5.98l-.45-.89.45.89zm-5.39 2.58l-.35-.94.35.94zm-3.4 1.45l-.37-.93-.71.29.09.76.99-.12zm-1.27 2.63l-.46.89h.01l.45-.89zm-1.59-1.41l-.89.45v.01l.89-.46zm-.92-.46l.15.99-.15-.99zm-4.73-.22l-.17.98.17-.98zm-11.51-5.01l-.57.82.57-.82zm-9.65-9.29l-.79.61.79-.61zm-2.49-4.09l-.54.84.54-.84zm-3.28-1.61l-.82-.57.82.57zm3.43-1.06l.73.68-.73-.68zm3.35-2.62l-.64-.77.64.77zm10.57-7.27l.5.87-.5-.87zm12.13-6.06l.39.92-.39-.92zm11.29-4.09l.18.98.56-.1.2-.53-.94-.35zm.06-.15l-.95-.3-.03.09-.01.09.99.12zm.32-1.26l-.97-.25v.01l.97.24zm.52-1.19l-.42-.91h-.02l.44.91zm.92.42l-.78.63.01.01.77-.64zm.34.57l-.94.35.02.02.92-.37zm.06.21l-.97.23.18.78.8-.01-.01-1zm2.15.32l.22-.98-.22.98zm4.16.92l.22-.98-.22.98zM74.16 31l.47-.88-.47.88zm6.58 4.32l-.68.73.68-.73zm4.92 6.32l-.85.53.3.49.57-.01-.02-1.01zm.88.03l-.05 1h.01l.04-1zm1.65.28l-.27.96h.02l.25-.96z" clip-path="url(#H)" class="P"/><path d="M59.33 29.94s-11.97 2.71-25.16 10.61-8.07 8.06-4.97 12.02c0 0-1.98-2.52-.98-4.8.99-2.28 5.2-5.29 10.49-8.16 5.28-2.88 14.9-8.15 20.62-9.67z" class="Q R"/><path d="M92.49 52.75l-.1-19.25-43.73 25.38v19.1z" opacity=".5" class="S"/><path d="M92.99 50.36l.01 2.41-1.02-.02-.01-2.41 1.02.02zm-.05-9.63l.03 4.81-1.02-.02-.03-4.81 1.02.02zm-.04-7.22l.01 2.41-1.02-.02-.01-2.41 1.02.02zm-2.97.84l2.19-1.27.55.84-2.19 1.27-.55-.84zm-8.75 5.07l4.37-2.54.55.84-4.37 2.54-.55-.84zm-8.74 5.08l4.37-2.54.55.84-4.37 2.54-.55-.84zm-8.75 5.07l4.37-2.54.55.84-4.37 2.54-.55-.84zm-8.75 5.08l4.37-2.54.55.84-4.37 2.54-.55-.84zm-6.56 3.81l2.19-1.27.55.84-2.19 1.27-.55-.84zm-.24 2.79v-2.39l1.02.03v2.39l-1.02-.03zm0 9.55v-4.78l1.02.03v4.78l-1.02-.03zm0 7.17v-2.39l1.02.03V78l-1.02-.03zm2.98-.83l-2.19 1.26-.55-.84 2.19-1.26.55.84zm8.77-5.05l-4.38 2.52-.55-.84 4.38-2.52.55.84zm8.77-5.04l-4.38 2.52-.55-.84 4.38-2.52.55.84zM77.42 62l-4.38 2.52-.55-.84 4.38-2.52.55.84zm8.77-5.05l-4.38 2.52-.55-.84 4.38-2.52.55.84zm6.58-3.78l-2.19 1.26-.55-.84 2.19-1.26.55.84zm-.8-2.84c0-.27.23-.48.51-.48.28.01.51.23.51.5l-1.02-.02zm1-4.79c0 .27-.23.48-.51.48-.28-.01-.51-.23-.51-.5l1.02.02zm-1.05-4.83c0-.27.23-.48.51-.48.28.01.51.23.51.5l-1.02-.02zm1-4.8c0 .27-.23.48-.51.48a.51.51 0 0 1-.51-.5l1.02.02zm-2.44-.73a.54.54 0 0 1-.71-.17.47.47 0 0 1 .16-.67l.55.84zm-4.92 1.7a.54.54 0 0 1 .71.17.47.47 0 0 1-.16.67l-.55-.84zm-3.83 3.38a.54.54 0 0 1-.71-.17.47.47 0 0 1 .16-.67l.55.84zm-4.92 1.7a.54.54 0 0 1 .71.17.47.47 0 0 1-.16.67l-.55-.84zm-3.82 3.38a.54.54 0 0 1-.71-.17.47.47 0 0 1 .16-.67l.55.84zm-4.93 1.7a.54.54 0 0 1 .71.17.47.47 0 0 1-.16.67l-.55-.84zm-3.82 3.37a.54.54 0 0 1-.71-.17.47.47 0 0 1 .16-.67l.55.84zm-4.93 1.7a.54.54 0 0 1 .71.17.47.47 0 0 1-.16.67l-.55-.84zm-3.82 3.38a.54.54 0 0 1-.71-.17.47.47 0 0 1 .16-.67l.55.84zm-4.92 1.7a.54.54 0 0 1 .71.17c.16.23.08.53-.16.67l-.55-.84zm-1.4 4.09c0 .27-.23.48-.51.47s-.51-.23-.51-.5l1.02.03zm-1.03 4.75c0-.27.23-.48.51-.47s.51.23.51.5l-1.02-.03zm1.03 4.8c0 .27-.23.48-.51.47s-.51-.23-.51-.5l1.02.03zm-1.03 4.75c0-.27.23-.48.51-.47s.51.23.51.5l-1.02-.03zm2.43.72a.54.54 0 0 1 .71.17.47.47 0 0 1-.16.67l-.55-.84zm4.93-1.69a.54.54 0 0 1-.71-.17.47.47 0 0 1 .16-.67l.55.84zm3.84-3.36a.54.54 0 0 1 .71.17.47.47 0 0 1-.16.67l-.55-.84zm4.93-1.68a.54.54 0 0 1-.71-.17.47.47 0 0 1 .16-.67l.55.84zm3.84-3.36a.54.54 0 0 1 .71.17.47.47 0 0 1-.16.67l-.55-.84zm4.93-1.69a.54.54 0 0 1-.71-.17.47.47 0 0 1 .16-.67l.55.84zm3.84-3.36a.54.54 0 0 1 .71.17.47.47 0 0 1-.16.67l-.55-.84zm4.93-1.68a.54.54 0 0 1-.71-.17.47.47 0 0 1 .16-.67l.55.84zm3.83-3.36a.54.54 0 0 1 .71.17.47.47 0 0 1-.16.67l-.55-.84zm4.93-1.69a.54.54 0 0 1-.71-.17.47.47 0 0 1 .16-.67l.55.84zM48.66 77.98l.27.42c-.16.09-.36.09-.52 0s-.26-.26-.26-.43l.51.01zm0-19.1l-.51-.01c0-.17.09-.32.24-.4l.27.41zM92.39 33.5l-.28-.42c.16-.09.36-.09.52 0s.27.26.27.43l-.51-.01zm.1 19.25l.51.01c0 .17-.09.32-.24.41l-.27-.42z" class="P"/><path d="M46.68 57.27l2.26 1.19-.47.85-2.26-1.19.47-.85zm-9.02-4.74l4.51 2.37-.47.85-4.51-2.37.47-.85zm-9.03-4.74l4.51 2.37-.47.85-4.51-2.37.47-.85zm-9.02-4.74l4.51 2.37-.47.85-4.51-2.37.47-.85zm-6.77-3.56l2.26 1.19-.47.85-2.26-1.19.47-.85zm-.75 2.84V39.9l1.02.03v2.43l-1.02-.03zm.01 9.7v-4.85l1.02.03v4.85l-1.02-.03zm.01 7.28v-2.43l1.02.03v2.43l-1.02-.03zm2.53 1.61l-2.26-1.17.47-.85 2.26 1.17-.47.85zm9.02 4.66l-4.51-2.33.47-.85 4.51 2.33-.47.85zm9.02 4.66l-4.51-2.33.47-.85 4.51 2.33-.47.85zm9.02 4.67l-4.51-2.33.47-.85 4.51 2.33-.47.85zm6.77 3.5l-2.26-1.17.47-.85 2.26 1.17-.47.85zm.74-2.8V78l-1.02-.03v-2.39l1.02.03zm0-9.56v4.78l-1.02-.03v-4.78l1.02.03zm0-7.16v2.39l-1.02-.03v-2.39l1.02.03zm-3-.77c-.25-.13-.35-.43-.22-.66.13-.24.44-.32.69-.19l-.47.85zm-4.04-3.22c.25.13.35.43.22.66-.13.24-.44.32-.69.19l.47-.85zm-4.99-1.52c-.25-.13-.35-.43-.22-.66.13-.24.44-.32.69-.19l-.47.85zm-4.03-3.22c.25.13.35.43.22.66-.13.24-.44.32-.69.19l.47-.85zm-4.99-1.52c-.25-.13-.35-.43-.22-.66.13-.24.44-.32.69-.19l-.47.85zm-4.04-3.22c.25.13.35.43.22.66-.13.24-.44.32-.69.19l.47-.85zm-4.99-1.52c-.25-.13-.35-.43-.22-.66.13-.24.44-.32.69-.19l-.47.85zm-4.03-3.22c.25.13.35.43.22.66-.13.24-.44.32-.69.19l.47-.85zm-1.98 1.68c0 .27-.23.48-.51.47s-.51-.23-.51-.5l1.02.03zm-1.02 4.82c0-.27.23-.48.51-.47s.51.23.51.5l-1.02-.03zm1.03 4.88c0 .27-.23.48-.51.47s-.51-.23-.51-.5l1.02.03zm-1.02 4.82c0-.27.23-.48.51-.47s.51.23.51.5l-1.02-.03zm3 3.18c.25.13.35.43.22.66-.13.24-.44.32-.69.19l.47-.85zm4.04 3.19c-.25-.13-.35-.43-.22-.66.13-.24.44-.32.69-.19l-.47.85zm4.98 1.48c.25.13.35.43.22.66-.13.24-.44.32-.69.19l.47-.85zm4.04 3.18c-.25-.13-.35-.43-.22-.66.13-.24.44-.32.69-.19l-.47.85zm4.98 1.48c.25.13.35.43.22.66-.13.24-.44.32-.69.19l.47-.85zm4.04 3.19c-.25-.13-.35-.43-.22-.66.13-.24.44-.32.69-.19l-.47.85zm4.98 1.47c.25.13.35.43.22.66-.13.24-.44.32-.69.19l.47-.85zm4.04 3.19c-.25-.13-.35-.43-.22-.66.13-.24.44-.32.69-.19l-.47.85zm1.98-1.66c0-.27.23-.48.51-.47s.51.23.51.5l-1.02-.03zm1.02-4.75c0 .27-.23.48-.51.47s-.51-.23-.51-.5l1.02.03zm-1.02-4.8c0-.27.23-.48.51-.47s.51.23.51.5l-1.02-.03zm1.02-4.75c0 .27-.23.48-.51.47s-.51-.23-.51-.5l1.02.03zm-.51 16.7l.51.01c0 .17-.09.33-.25.41s-.34.09-.5 0l.24-.42zM12.62 59.32l-.23.43c-.17-.09-.28-.26-.28-.44l.51.01zm-.02-19.4l-.51-.01c0-.17.09-.33.25-.41a.55.55 0 0 1 .5 0l-.24.42zm36.1 18.96l.24-.43a.5.5 0 0 1 .27.44l-.51-.01zm104.42-10.06l2.17-1.03.42.94-2.17 1.03-.42-.94zm-8.67 4.14l4.34-2.07.42.94-4.34 2.07-.42-.94zm-6.51 3.1l2.17-1.03.42.94-2.17 1.03-.42-.94zm2.52 2.69l-2.58-1.8.53-.85 2.58 1.8-.53.85zm10.33 7.19l-5.16-3.6.53-.85 5.16 3.6-.53.85zm10.32 7.19l-5.16-3.6.53-.85 5.16 3.6-.53.85zm10.33 7.2l-5.16-3.6.53-.85 5.16 3.6-.53.85zm7.74 5.39l-2.58-1.8.53-.85 2.58 1.8-.53.85zm2.68-1.01l-2.21 1.05-.42-.94 2.21-1.05.42.94zm8.83-4.2l-4.42 2.1-.42-.94 4.42-2.1.42.94zm6.63-3.16l-2.21 1.05-.42-.94 2.21-1.05.42.94zm-2.55-2.69l2.6 1.79-.52.86-2.6-1.79.52-.86zm-10.4-7.15l5.2 3.58-.52.86-5.2-3.58.52-.86zm-10.4-7.16l5.2 3.58-.52.86-5.2-3.58.52-.86zm-10.41-7.15l5.2 3.58-.52.86-5.2-3.58.52-.86zm-7.8-5.37l2.6 1.79-.52.86-2.6-1.79.52-.86zm-2.22 1.93c-.24.12-.53 0-.65-.26-.11-.26-.01-.56.23-.68l.42.94zm-4.76 1.13c.24-.12.53 0 .65.26.11.26.01.56-.23.68l-.42-.94zm-3.92 3c-.24.12-.53 0-.65-.26s-.01-.56.23-.68l.42.94zm-4.75 1.13c.24-.12.53 0 .65.26.11.26.01.56-.23.68l-.42-.94zm.88 2.88c.23.16.29.48.15.71a.46.46 0 0 1-.67.14l.52-.85zm4.63 4.44c-.23-.16-.29-.48-.15-.71a.46.46 0 0 1 .67-.14l-.52.85zm5.69 2.75c.23.16.29.48.15.71a.46.46 0 0 1-.67.14l.52-.85zm4.64 4.45c-.23-.16-.29-.48-.15-.71s.45-.3.67-.14l-.52.85zm5.69 2.74c.23.16.29.48.15.71a.46.46 0 0 1-.67.14l.52-.85zm4.64 4.45c-.23-.16-.29-.48-.15-.71a.46.46 0 0 1 .67-.14l-.52.85zm5.68 2.75c.23.16.29.48.15.71a.46.46 0 0 1-.67.14l.52-.85zm4.64 4.44c-.23-.16-.29-.48-.15-.71a.46.46 0 0 1 .67-.14l-.52.85zm4.85-.14c.24-.12.53 0 .65.26.11.26.01.56-.23.68l-.42-.94zm4.83-1.17c-.24.12-.53 0-.65-.26-.11-.26-.01-.56.23-.68l.42.94zm4-3.04c.24-.12.53 0 .65.26s.01.56-.23.68l-.42-.94zm4.83-1.17c-.24.12-.53 0-.65-.26-.11-.26-.01-.56.23-.68l.42.94zm-.86-2.88c-.23-.16-.29-.47-.15-.71s.44-.3.67-.14l-.52.85zm-4.68-4.43c.23.16.29.47.15.71s-.44.3-.67.14l.52-.85zm-5.72-2.73c-.23-.16-.29-.47-.15-.71s.44-.3.67-.14l-.52.85zm-4.68-4.43c.23.16.29.47.15.71s-.44.3-.67.14l.52-.85zm-5.72-2.72c-.23-.16-.29-.47-.15-.71s.44-.3.67-.14l-.52.85zm-4.68-4.44c.23.16.29.47.15.71s-.44.3-.67.14l.52-.85zm-5.73-2.72c-.23-.16-.29-.47-.15-.71s.44-.3.67-.14l-.52.85zm-4.68-4.43c.23.16.29.47.15.71s-.44.3-.67.14l.52-.85zm38.75 27.26l.26-.43c.15.1.24.28.23.47s-.12.35-.28.43l-.21-.47zm-17.67 8.42l.21.47c-.15.07-.33.06-.47-.04l.26-.43zm-41.3-28.78l-.26.43c-.15-.1-.23-.28-.22-.47a.48.48 0 0 1 .28-.42l.2.46zm17.36-8.26l-.21-.47c.15-.07.33-.06.47.04l-.26.43z" class="P"/><path d="M138.6 19.34l.09-3.37.97.05-.09 3.37-.97-.05zm-.36 13.48l.18-6.74.97.05-.18 6.74-.97-.05zm-.35 13.49l.18-6.74.97.05-.18 6.74-.97-.05zm-.27 10.11l.09-3.37.97.05-.09 3.37-.97-.05zm2.89-.57l-2.19 1.06-.42-.93 2.19-1.06.42.93zm8.77-4.24l-4.39 2.12-.42-.93 4.39-2.12.42.93zm6.58-3.18l-2.19 1.06-.42-.93 2.19-1.06.42.93zm.36-3.8l-.08 3.36-.97-.05.08-3.36.97.05zm.33-13.43l-.16 6.71-.97-.05.16-6.71.97.05zm.32-13.43l-.16 6.71-.97-.05.16-6.71.97.05zm.25-10.07l-.08 3.36-.97-.05.08-3.36.97.05zm-2.88.55l2.18-1.04.42.94-2.18 1.04-.42-.94zm-8.73 4.16l4.37-2.08.42.94-4.37 2.08-.42-.94zm-6.55 3.12l2.18-1.04.42.94-2.18 1.04-.42-.94zm.61 3.86c-.01.28-.23.5-.5.49s-.48-.25-.47-.54l.97.05zm-1.15 6.69c.01-.28.23-.5.5-.49s.48.25.47.54l-.97-.05zm.79 6.79c-.01.28-.23.5-.5.49s-.48-.25-.47-.54l.97.05zm-1.15 6.7c.01-.28.23-.5.5-.49s.48.25.47.54l-.97-.05zm.8 6.79c-.01.28-.23.5-.5.49s-.48-.25-.47-.54l.97.05zm-1.15 6.69c.01-.28.23-.5.5-.49s.48.25.47.54l-.97-.05zm2.38 1.87c.24-.12.53 0 .65.25a.52.52 0 0 1-.23.68l-.42-.93zm4.81-1.19c-.24.12-.53 0-.65-.25-.12-.26-.01-.56.23-.68l.42.93zm3.96-3.06c.24-.12.53 0 .65.25.12.26.01.56-.23.68l-.42-.93zm4.81-1.18c-.24.12-.53 0-.65-.25-.12-.26-.01-.56.23-.68l.42.93zm1.58-4.91c.01-.28.23-.5.5-.49s.48.25.47.54l-.97-.05zm1.13-6.67c-.01.28-.23.5-.5.49s-.48-.25-.47-.54l.97.05zm-.81-6.76c.01-.28.23-.5.5-.49s.48.25.47.54l-.97-.05zm1.14-6.67c-.01.28-.23.5-.5.49s-.48-.25-.47-.54l.97.05zm-.81-6.76c.01-.28.23-.5.5-.49s.48.25.47.54l-.97-.05zm1.14-6.66c-.01.28-.23.5-.5.49s-.48-.25-.47-.54l.97.05zm-2.38-1.88c-.24.12-.53 0-.65-.26-.11-.26-.01-.56.23-.68l.42.94zm-4.78 1.15c.24-.12.53 0 .65.26.11.26.01.56-.23.68l-.42-.94zm-3.95 3.01c-.24.12-.53 0-.65-.26s-.01-.56.23-.68l.42.94zm-4.78 1.15c.24-.12.53 0 .65.26.11.26.01.56-.23.68l-.42-.94zm15.48-6.81l-.21-.47c.15-.07.33-.06.47.04s.23.27.22.45l-.48-.02zm-.98 40.28l.49.02c0 .19-.11.36-.28.44l-.21-.46zm-17.54 8.48l.21.47a.49.49 0 0 1-.48-.04c-.14-.1-.23-.27-.22-.45l.49.02zm1.06-40.45l-.49-.02c.01-.19.11-.36.28-.44l.21.46z" class="P"/><path d="M190.19 42.24c-.08-.24.03-.45.26-.76.45-.61.55-1.49.56-1.97a.72.72 0 0 0-.05-.34.45.45 0 0 0-.3-.3c-.57-.2-1.77.35-2.39.75l-.08.05-.07-.07-1.21-1.06-1.57-1.4c-1.13-1.09-2.41-2.05-3.65-2.99l-.99-.75c-3.82-2.94-6.9-5.12-9.99-7.08-2.74-1.74-6.27-3.29-10.8-4.74l-.5-.16c-1.55-.5-3.15-1.01-4.76-1.33a27.1 27.1 0 0 1-.96-.2c-.89-.2-1.74-.38-2.63-.44l-.09-.03-.02-.04c-.08-.12-.16-.27-.23-.4-.08-.16-.16-.3-.25-.43-.3-.45-.63-.85-.98-1.22l-.03-.03c-.19-.19-.62-.66-.91-.56-.43.14-.23 1.06-.13 1.5.02.08.03.15.04.2.12.66.24 1.1.45 1.58l.06.13c.08.18.17.43.3.66l.04.07-.04.06c-1.3 2.03-2.75 4.47-3.58 7.12-.76 2.46-.96 5.19-1.07 7.77-.12 3.15.44 6.13 1.01 8.64l.98 4.24c.09.4.35 1.44.61 1.96l.05.1-.09.06c-.06.04-.12.08-.16.13-.13.14-.23.3-.34.52-.11.23-.23.47-.16.66.02.07.07.13.15.19.2.16.74.03 1.04-.04.06-.01.11-.02.16-.03a4.89 4.89 0 0 1 .37-.08c.29-.06.6-.13.91-.17.01 0 .03 0 .07-.01l.17-.02.04.06c1.9 2.65 4.49 4.9 7 7.08l1.53 1.34a114.06 114.06 0 0 0 10.68 8.34c3.89 2.68 7.52 4.78 11.09 6.41.31.14.81.41 1.33.69.9.48 1.92 1.03 2.45 1.2.52.17.88.78 1.24 1.37.35.58.71 1.19 1.18 1.26.07.01.1-.01.12-.03.21-.22.05-1.24-.07-1.98-.1-.61-.19-1.19-.14-1.52.07-.58.91-1.69 1.64-2.65.43-.56.83-1.09.98-1.39 2.22-4.43 3.56-8.46 4.22-12.68.73-4.64.59-8.85-.43-12.5a22.32 22.32 0 0 0-.41-1.34c-.41-1.22-.87-2.19-1.4-2.98-.13-.18-.21-.3-.25-.42zm1.02-3.16c.04.12.06.27.05.43-.01.51-.12 1.45-.61 2.12-.24.32-.26.42-.22.53.03.08.1.19.2.33.56.83 1.03 1.82 1.44 3.06a28.5 28.5 0 0 1 .41 1.35c1.02 3.69 1.16 7.93.43 12.61-.66 4.25-2.01 8.3-4.24 12.75-.16.32-.56.83-1.01 1.43-.68.9-1.53 2.01-1.6 2.53-.03.3.05.86.15 1.45.18 1.15.28 1.92 0 2.21a.37.37 0 0 1-.34.1c-.59-.09-.98-.75-1.35-1.38-.32-.55-.66-1.12-1.09-1.26-.56-.18-1.58-.73-2.5-1.22-.52-.28-1.02-.54-1.32-.68-3.59-1.64-7.23-3.74-11.13-6.43-3.78-2.6-7.38-5.42-10.71-8.36l-1.53-1.34c-2.5-2.17-5.09-4.41-7-7.06l-.08.01c-.3.04-.6.1-.89.17a4.89 4.89 0 0 1-.37.08c-.02.02-.07.03-.14.05-.38.09-.96.22-1.25-.02-.11-.09-.19-.19-.23-.31-.1-.28.04-.57.18-.85.12-.25.24-.43.39-.58.03-.03.07-.07.1-.09-.07-.16-.14-.34-.21-.54-.18-.53-.31-1.1-.37-1.37l-.23-.99-.75-3.25c-.58-2.52-1.15-5.53-1.02-8.71.1-2.6.3-5.35 1.08-7.84.83-2.66 2.27-5.09 3.57-7.12-.11-.22-.2-.45-.27-.61l-.05-.13c-.21-.5-.34-.96-.47-1.64-.01-.05-.02-.11-.04-.2-.12-.55-.34-1.58.3-1.8.45-.15.92.35 1.18.62l.03.03a9.83 9.83 0 0 1 1.01 1.25 3.42 3.42 0 0 1 .26.46 3.72 3.72 0 0 0 .19.34c.89.06 1.73.25 2.62.44l.95.21c1.62.32 3.24.84 4.79 1.34l.5.16c4.56 1.46 8.11 3.02 10.86 4.77 3.09 1.97 6.18 4.16 10 7.1l.99.75c1.25.94 2.53 1.92 3.67 3.01.5.48 1.04.94 1.56 1.39.38.32.77.66 1.14 1 .62-.38 1.84-.96 2.53-.72.22.04.36.2.44.42z" class="S"/><path d="M148.35 18.46c.1.57.22 1.08.45 1.61l.35.81c-1.44 2.24-2.8 4.6-3.59 7.16-.77 2.46-.97 5.23-1.07 7.8-.12 2.95.37 5.82 1.02 8.67l.96 4.15c.08.34.31 1.4.64 2.07-.06.05-.13.09-.17.14a2.01 2.01 0 0 0-.36.55c-.18.37-.34.72.01 1.01.3.24 1.01.02 1.31-.04l1.27-.25c.01 0 .08 0 .16-.01 2.3 3.21 5.64 5.86 8.55 8.44 3.39 3 6.97 5.78 10.69 8.35 3.55 2.45 7.19 4.63 11.11 6.42.83.38 2.94 1.62 3.8 1.89.99.32 1.41 2.48 2.43 2.64.86.13-.07-2.76.04-3.65s2.21-3.19 2.62-4.01c2.05-4.09 3.52-8.17 4.24-12.71.65-4.13.69-8.5-.43-12.55-.41-1.49-.95-3.07-1.83-4.36-.3-.44-.37-.53.02-1.03.42-.56.56-1.36.59-2.04.04-1.56-2.15-.5-2.92-.01-.91-.83-1.89-1.6-2.77-2.45-1.43-1.38-3.07-2.54-4.65-3.75-3.27-2.51-6.52-4.88-10-7.09-3.25-2.06-7.18-3.58-10.84-4.75-1.74-.56-3.48-1.13-5.27-1.49-1.25-.25-2.39-.57-3.61-.65-.01 0-.01 0-.02-.01-.17-.27-.32-.59-.49-.84-.3-.44-.63-.85-.99-1.23-.21-.22-.69-.75-1.08-.62-.61.19-.25 1.44-.17 1.83z" class="Q"/><defs><path id="I" d="M148.35 18.46c.1.57.22 1.08.45 1.61l.35.81c-1.44 2.24-2.8 4.6-3.59 7.16-.77 2.46-.97 5.23-1.07 7.8-.12 2.95.37 5.82 1.02 8.67l.96 4.15c.08.34.31 1.4.64 2.07-.06.05-.13.09-.17.14a2.01 2.01 0 0 0-.36.55c-.18.37-.34.72.01 1.01.3.24 1.01.02 1.31-.04l1.27-.25c.01 0 .08 0 .16-.01 2.3 3.21 5.64 5.86 8.55 8.44 3.39 3 6.97 5.78 10.69 8.35 3.55 2.45 7.19 4.63 11.11 6.42.83.38 2.94 1.62 3.8 1.89.99.32 1.41 2.48 2.43 2.64.86.13-.07-2.76.04-3.65s2.21-3.19 2.62-4.01c2.05-4.09 3.52-8.17 4.24-12.71.65-4.13.69-8.5-.43-12.55-.41-1.49-.95-3.07-1.83-4.36-.3-.44-.37-.53.02-1.03.42-.56.56-1.36.59-2.04.04-1.56-2.15-.5-2.92-.01-.91-.83-1.89-1.6-2.77-2.45-1.43-1.38-3.07-2.54-4.65-3.75-3.27-2.51-6.52-4.88-10-7.09-3.25-2.06-7.18-3.58-10.84-4.75-1.74-.56-3.48-1.13-5.27-1.49-1.25-.25-2.39-.57-3.61-.65-.01 0-.01 0-.02-.01-.17-.27-.32-.59-.49-.84-.3-.44-.63-.85-.99-1.23-.21-.22-.69-.75-1.08-.62-.61.19-.25 1.44-.17 1.83z"/></defs><clipPath id="J"><use xlink:href="#I"/></clipPath><path d="M148.23 15.67a1.45 1.45 0 0 0-.94.95c-.11.33-.12.67-.1.92.03.47.17 1.03.19 1.12l1.96-.38a1.29 1.29 0 0 0-.05-.21c-.02-.07-.03-.14-.05-.22-.03-.16-.06-.3-.06-.43-.01-.14.01-.18 0-.15-.01.02-.03.09-.1.16-.07.08-.16.13-.25.16l-.6-1.92zm2.1.88c-.09-.09-.33-.35-.61-.56-.22-.16-.81-.56-1.52-.32l.64 1.89c-.17.06-.3.02-.34.01-.03-.01-.02-.01.03.02s.1.08.16.14l.18.18 1.46-1.36zm1.1 1.36c-.33-.49-.69-.93-1.1-1.36l-1.45 1.38c.33.34.62.7.89 1.11l1.66-1.13zm.5.87l-.21-.37-.3-.5-1.65 1.13.19.33.28.48 1.69-1.07zm-1.15-.4a.94.94 0 0 1 .6-.01.84.84 0 0 1 .33.17c.02.01.03.02.02.02 0 0-.01-.01-.03-.02-.04-.03-.09-.07-.17-.11l-.88 1.79-.16-.1c-.01-.01-.01-.01-.02-.01 0 0 .01.01.03.02.03.02.15.12.33.17a1.05 1.05 0 0 0 .61-.01l-.66-1.91zm4.13.61c-1.16-.23-2.43-.58-3.74-.66l-.13 2c1.13.07 2.14.36 3.48.63l.39-1.97zm5.38 1.52l-5.38-1.52-.39 1.96c1.73.35 3.4.9 5.16 1.47l.61-1.91zm11.06 4.86c-3.35-2.13-7.38-3.68-11.07-4.86l-.61 1.91c3.63 1.16 7.46 2.65 10.61 4.64l1.07-1.69zm10.07 7.14c-3.28-2.52-6.56-4.91-10.07-7.14l-1.07 1.69c3.44 2.19 6.67 4.54 9.92 7.04l1.22-1.59zm4.74 3.83c-1.48-1.43-3.2-2.65-4.73-3.82l-1.22 1.59c1.62 1.24 3.19 2.35 4.56 3.68l1.39-1.45zm2.75 2.43c-.47-.43-.96-.84-1.42-1.24-.47-.4-.92-.79-1.34-1.19l-1.38 1.44c.46.44.95.86 1.42 1.27l1.37 1.2 1.35-1.48zm3.25.78c.02-.64-.21-1.29-.86-1.64-.53-.28-1.11-.22-1.5-.14-.81.17-1.67.63-2.11.9l1.07 1.69c.34-.22.96-.53 1.43-.63.26-.05.26 0 .16-.05a.37.37 0 0 1-.18-.19c-.03-.06-.01-.08-.02.01l2.01.05zm-.79 2.61c.61-.81.76-1.86.79-2.61l-2-.08c-.02.62-.16 1.17-.39 1.48l1.6 1.21zm.01-.13c-.04-.06-.07-.1-.09-.14s-.03-.05-.04-.06.04.07.05.22c0 .07 0 .14-.02.19-.01.05-.03.08-.03.08 0 .01 0 0 .02-.03a1.84 1.84 0 0 1 .09-.12l-1.59-1.22c-.17.22-.5.64-.47 1.2a1.57 1.57 0 0 0 .19.65c.07.13.17.27.23.36l1.66-1.13zm1.96 4.65c-.42-1.51-.99-3.22-1.96-4.65l-1.65 1.12c.78 1.15 1.28 2.6 1.69 4.06l1.92-.53zm.46 12.97c.66-4.22.71-8.74-.45-12.97l-1.93.53c1.07 3.87 1.04 8.09.4 12.13l1.98.31zm-4.33 13.01c2.09-4.16 3.6-8.34 4.33-13.01l-1.98-.31c-.7 4.42-2.13 8.4-4.14 12.42l1.79.9zm-2.53 3.68c0 .02.03-.13.26-.49.19-.31.46-.68.75-1.07.25-.34.63-.82.86-1.13.25-.33.51-.7.66-.99l-1.78-.9c-.06.11-.21.34-.48.7l-.85 1.13c-.3.4-.61.82-.85 1.22-.22.35-.48.83-.54 1.29l1.97.24zm-1.18 4.51c.42.06.86-.07 1.16-.43a1.53 1.53 0 0 0 .33-.82c.05-.41 0-.91-.05-1.32-.05-.39-.14-.93-.19-1.25-.03-.19-.05-.35-.06-.48 0-.06-.01-.12-.01-.15v-.06l-1.98-.26c-.05.38.01.87.07 1.23l.19 1.23c.06.41.07.67.05.79-.01.07-.01-.05.11-.2a.76.76 0 0 1 .68-.27l-.3 1.99zm-2.59-2.67c-.04-.01.02-.01.17.19.15.19.29.43.48.75.17.29.39.66.66.97.26.31.68.68 1.27.77l.31-1.98c.08.01.06.05-.07-.1s-.27-.37-.45-.68c-.17-.28-.38-.65-.62-.96-.24-.3-.6-.69-1.14-.86l-.61 1.9zm-3.91-1.94c.38.17 1.06.55 1.83.96.71.38 1.54.81 2.08.98l.61-1.91c-.33-.1-.98-.43-1.75-.84-.7-.37-1.49-.81-1.94-1.01l-.83 1.82zM168 69.74c3.59 2.47 7.27 4.69 11.26 6.51l.83-1.82c-3.86-1.76-7.44-3.9-10.96-6.33L168 69.74zm-10.79-8.42c3.42 3.03 7.03 5.83 10.78 8.42l1.14-1.65c-3.69-2.54-7.24-5.3-10.59-8.27l-1.33 1.5zm-8.7-8.61c2.38 3.33 5.85 6.08 8.7 8.6l1.32-1.5c-2.98-2.63-6.19-5.17-8.4-8.27l-1.62 1.17zm.97.38c-.03.01-.05.02-.07.02s-.03.01-.05.01c-.02.01-.04.01-.06.01s-.04 0-.04.01c.02 0 .08 0 .14-.01l-.17-1.99h-.14c-.01 0-.04 0-.07.01-.02 0-.04.01-.07.01a.68.68 0 0 1-.12.03l.65 1.9zm-1.39.29c.48-.1.82-.19 1.21-.24l-.28-1.98c-.47.07-.97.19-1.33.26l.4 1.96zm-2.13-.16c.28.23.6.29.81.32.22.02.43.01.6-.02.28-.04.69-.14.71-.14l-.38-1.96c-.06.01-.11.02-.16.03l-.15.03a4.25 4.25 0 0 1-.28.05c-.04.01-.07.01-.1.01h-.02c.01 0 .03.01.05.01.04.01.1.04.17.1l-1.25 1.57zm-.29-2.22c-.07.14-.24.48-.28.86a1.57 1.57 0 0 0 .09.72c.1.26.27.47.47.63l1.28-1.54c.02.02.08.07.12.17s.04.19.03.23c0 .03-.01.04.01-.01s.04-.1.09-.2l-1.81-.86zm.55-.82a3.18 3.18 0 0 0-.55.82l1.81.85c.07-.14.13-.23.18-.28l-1.44-1.39zm.26-.23c-.01 0-.01.01-.03.02-.01.01-.04.03-.06.05-.04.03-.12.1-.2.19l1.48 1.34-.01.01c.02-.01.04-.03.06-.05l-1.24-1.56zm-.98-1.06c.07.29.33 1.49.72 2.28l1.8-.88c-.27-.54-.47-1.47-.56-1.86l-1.96.46zm-.96-4.16l.96 4.16 1.95-.45-.96-4.16-1.95.45zm-1.05-8.93c-.12 3.08.39 6.05 1.04 8.93l1.95-.44c-.64-2.83-1.11-5.6-1-8.41l-1.99-.08zm1.12-8.06c-.81 2.6-1.01 5.48-1.12 8.06l2 .08c.1-2.56.3-5.21 1.03-7.54l-1.91-.6zm3.71-7.4c-1.45 2.26-2.87 4.71-3.71 7.4l1.91.6c.76-2.42 2.05-4.69 3.48-6.91l-1.68-1.09zm-.44.12c.06.14.21.52.38.87l1.79-.9c-.13-.27-.23-.53-.32-.74l-1.85.77zm-.51-1.82c.11.61.25 1.2.52 1.84l1.83-.8c-.19-.43-.29-.86-.39-1.39l-1.96.35zm1.16-2.02l.3.95h.02l-.32-.95zm1.08.62l-.72.69.72-.69zm.99 1.23l-.83.56.83-.56zm.49.84l-.85.53.15.24.25.12.45-.89zm.01.01l.07-1-.2-.01-.19.06.32.95zm3.61.65l-.2.98.2-.98zm5.27 1.49l-.3.95.3-.95zm10.84 4.75l.54-.84-.54.84zm9.99 7.1l-.61.79.61-.79zm4.65 3.75l-.69.72.69-.72zm2.77 2.45l-.68.74.57.52.65-.41-.54-.85zm2.93.01l1 .04v-.01l-1-.03zm-.59 2.04l.79.61.01-.01-.8-.6zm-.02 1.03l.83-.56-.83.56zm1.83 4.36l.96-.27-.96.27zm.43 12.55l.99.16-.99-.16zm-4.24 12.71l.89.45-.89-.45zm-2.62 4.01l.99.13-.99-.13zm-.04 3.64l-.16.99.16-.99zm-2.44-2.63l.3-.95-.3.95zm-3.8-1.9l-.41.91.41-.91zm-11.11-6.42l.57-.82-.57.82zm-10.68-8.34l.66-.75-.66.75zm-8.56-8.44l.81-.58-.33-.46-.57.05.09.99zm-.16.01l.14.99.09-.01.09-.03-.32-.95zm-1.27.26l.19.98h.01l-.2-.98zm-1.3.04l-.64.77.02.02.62-.79zm-.02-1.01l.9.43v-.01l-.9-.42zm.37-.55l.72.69.02-.02-.74-.67zm.17-.15l.63.78.62-.5-.35-.72-.9.44zm-.64-2.07l-.97.23.97-.23zm-.96-4.15l-.98.22.98-.22zm-1.02-8.67l-1-.04 1 .04zm1.07-7.8l.95.3-.95-.3zm3.6-7.16l.84.54.31-.48-.26-.51-.89.45zm-.36-.8l.92-.39v-.01l-.92.4zm-.45-1.62l.98-.17v-.02l-.98.19z" clip-path="url(#J)" class="P"/><path d="M151.09 29.25c2.91-.1 5.66 1.14 8.22 2.41l8.75 4.65c6.06 3.84 11.41 9.11 14.62 15.59 2.83 5.71 3.57 13.65.36 19.41-.54.97-1.28 2.36-2.57 2.42-1.33.06-2.46-.4-3.6-1.04-3.24-1.81-6.31-3.77-9.32-5.95-1.42-1.02-2.78-2.1-4.12-3.22a67.55 67.55 0 0 1-6.75-5.27c-2.44-2.18-4.75-4.53-6.83-7.06-2.12-2.58-3.22-5.34-3.41-8.69-.18-3.09.26-6.11 1.02-9.1.46-1.88 1.36-4.07 3.63-4.15zm-2.74-10.79c.1.57.22 1.08.45 1.61.07.18.2.5.35.81-1.44 2.24-2.8 4.6-3.59 7.16-.77 2.46-.97 5.23-1.07 7.8-.12 2.95.37 5.82 1.02 8.67l.96 4.15c.08.34.31 1.4.64 2.07-.06.05-.13.09-.17.14a2.01 2.01 0 0 0-.36.55c-.18.37-.34.72.01 1.01.3.24 1.01.02 1.31-.04.42-.09.84-.19 1.27-.25.01 0 .08 0 .16-.01 2.3 3.21 5.64 5.86 8.55 8.44 3.39 3 6.97 5.78 10.69 8.35 3.55 2.45 7.19 4.63 11.11 6.42.83.38 2.94 1.62 3.8 1.89.99.32 1.41 2.48 2.43 2.64.86.13-.07-2.76.04-3.65s2.21-3.19 2.62-4.01c2.05-4.09 3.52-8.17 4.24-12.71.65-4.13.69-8.5-.43-12.55-.41-1.49-.95-3.07-1.83-4.36-.3-.44-.37-.53.02-1.03.42-.56.56-1.36.59-2.04.04-1.56-2.15-.5-2.92-.01-.91-.83-1.89-1.6-2.77-2.45-1.43-1.38-3.07-2.54-4.65-3.75-3.27-2.51-6.52-4.88-10-7.09-3.25-2.06-7.18-3.58-10.84-4.75-1.74-.56-3.48-1.13-5.27-1.49-1.25-.25-2.39-.57-3.61-.65-.01 0-.01 0-.02-.01-.17-.27-.32-.59-.49-.84-.3-.44-.63-.85-.99-1.23-.21-.22-.69-.75-1.08-.62-.61.19-.25 1.44-.17 1.83z" class="Q R"/><path d="M148.35 18.46c.1.57.22 1.08.45 1.61l.35.81c-1.44 2.24-2.8 4.6-3.59 7.16a16.85 16.85 0 0 0-.38 1.48c1.2-1.86 2.7-3.47 4.78-4.54 1.02-.53 2.64-1.8 3.7-.63.51.56.86 1.21 1.18 1.89-.2-1.1-.25-2.2.23-3.26.06-.14.22-.17.35-.12 10.67 4.12 20.22 10.45 28.85 17.89.16.14.09.36-.09.44-.66.31-3.01.97-4.3 1.85.61-.13 1.21-.28 1.83-.37.84-.13 2.16-.42 2.96.02 1.59.87 1.01 3.48 1.07 5.29.63-1.84 1.22-3.69 2.16-5.41.09-.17.33-.19.44-.03 1.91 2.74 2.46 6.34 2.49 9.62.03 3.56-.15 7.31-.85 10.79-.71 3.52-2.07 7.23-4.13 10.2-.8 1.15-1.7 2.26-3.17 2.5-.79.13-1.59.1-2.37 0 1 .52 2.47 1.35 3.15 1.57.99.32 1.41 2.48 2.43 2.64.86.13-.07-2.76.04-3.65s2.21-3.19 2.62-4.01c2.05-4.09 3.52-8.17 4.24-12.71.65-4.13.69-8.5-.43-12.55-.41-1.49-.95-3.07-1.83-4.36-.3-.44-.37-.53.02-1.03.42-.56.56-1.36.59-2.04.04-1.56-2.15-.5-2.92-.01-.91-.83-1.89-1.6-2.77-2.45-1.43-1.38-3.07-2.54-4.65-3.75-3.27-2.51-6.52-4.88-10-7.09-3.25-2.06-7.18-3.58-10.84-4.75-1.74-.56-3.48-1.13-5.27-1.49-1.25-.25-2.39-.57-3.61-.65-.01 0-.01 0-.02-.01-.17-.27-.32-.59-.49-.84-.3-.44-.63-.85-.99-1.23-.21-.22-.69-.75-1.08-.62-.59.2-.23 1.45-.15 1.84z" class="R S"/><path d="M189.19 41.78c3.42 6.02 3.01 14.22 1.45 20.78-.69 2.92-1.53 5.57-2.87 8.28-1.19 2.42-3.24 4.4-2.49 7.25.02.05.15.09.15.04-.44-3.14 2.11-5.93 3.36-8.66 1.33-2.91 2.17-6.1 2.6-9.26.81-5.99 1.51-13.04-1.91-18.39-.05-.09-.36-.17-.29-.04zm-36.32-21.31c3.6.55 7.08 2.05 10.37 3.56a68.45 68.45 0 0 1 8.58 4.67c5.14 3.27 10 6.96 14.92 10.52.1.07.42.06.23-.08-5.61-4.07-11.09-8.41-17.03-12.02-2.73-1.65-5.65-3.17-8.67-4.23-2.84-.99-5.41-2.26-8.46-2.52-.09.01.01.1.06.1z" class="Q R"/><defs><path id="K" d="M148.34 18.6c.1.57.22 1.08.45 1.61l.35.81c-1.44 2.24-2.8 4.6-3.59 7.16-.77 2.46-.97 5.23-1.07 7.8-.12 2.95.37 5.82 1.02 8.67l.96 4.15c.08.34.31 1.4.64 2.07-.06.05-.13.09-.17.14a2.01 2.01 0 0 0-.36.55c-.18.37-.34.72.01 1.01.3.24 1.01.02 1.31-.04l1.27-.25c.01 0 .08 0 .16-.01 2.3 3.21 5.64 5.86 8.55 8.44 3.39 3 6.97 5.78 10.69 8.35 3.55 2.45 7.19 4.63 11.11 6.42.83.38 2.94 1.62 3.8 1.89.99.32 1.41 2.48 2.43 2.64.86.13-.07-2.76.04-3.65s2.21-3.19 2.62-4.01c2.05-4.09 3.52-8.17 4.24-12.71.65-4.13.69-8.5-.43-12.55-.41-1.49-.95-3.07-1.83-4.36-.3-.44-.37-.53.02-1.03.42-.56.56-1.36.59-2.04.04-1.56-2.15-.5-2.92-.01-.91-.83-1.89-1.6-2.77-2.45-1.43-1.38-3.07-2.54-4.65-3.75-3.27-2.51-6.52-4.88-10-7.09-3.25-2.06-7.18-3.58-10.84-4.75-1.74-.56-3.48-1.13-5.27-1.49-1.25-.25-2.39-.57-3.61-.65-.01 0-.01 0-.02-.01-.17-.27-.32-.59-.49-.84-.3-.44-.63-.85-.99-1.23-.21-.22-.69-.75-1.08-.62-.62.19-.25 1.44-.17 1.83z"/></defs><clipPath id="L"><use xlink:href="#K"/></clipPath><path d="M148.21 15.81a1.45 1.45 0 0 0-.94.95c-.11.33-.12.67-.1.92.03.47.17 1.03.19 1.12l1.96-.38a1.29 1.29 0 0 0-.05-.21c-.02-.07-.03-.14-.05-.22-.03-.16-.06-.3-.06-.43-.01-.14.01-.18 0-.15-.01.02-.03.09-.1.16-.07.08-.16.13-.25.16l-.6-1.92zm2.1.88c-.09-.09-.33-.35-.61-.56-.22-.16-.81-.56-1.52-.32l.64 1.89c-.17.06-.3.02-.34.01-.03-.01-.02-.01.03.02s.1.08.16.14l.18.18 1.46-1.36zm1.1 1.36c-.33-.49-.69-.93-1.1-1.36l-1.45 1.38c.33.34.62.7.89 1.11l1.66-1.13zm.51.87l-.21-.37-.3-.5-1.65 1.13.19.33.28.48 1.69-1.07zm-1.15-.41a.94.94 0 0 1 .6-.01.84.84 0 0 1 .33.17c.02.01.03.02.02.02 0 0-.01-.01-.03-.02-.04-.03-.09-.07-.17-.11l-.88 1.79-.16-.1c-.01-.01-.01-.01-.02-.01 0 0 .01.01.03.02.03.02.15.12.33.17a1.05 1.05 0 0 0 .61-.01l-.66-1.91zm4.12.61c-1.16-.23-2.43-.58-3.74-.66l-.13 2c1.13.07 2.14.36 3.48.63l.39-1.97zm5.38 1.53l-5.38-1.52-.39 1.96c1.73.35 3.4.9 5.16 1.47l.61-1.91zm11.07 4.86c-3.35-2.13-7.38-3.68-11.07-4.86l-.61 1.91c3.63 1.16 7.46 2.65 10.61 4.64l1.07-1.69zm10.07 7.14c-3.28-2.52-6.56-4.91-10.07-7.14l-1.07 1.69c3.44 2.19 6.67 4.54 9.92 7.04l1.22-1.59zm4.73 3.82c-1.48-1.43-3.2-2.65-4.73-3.82l-1.22 1.59c1.62 1.24 3.19 2.35 4.56 3.68l1.39-1.45zm2.76 2.44c-.47-.43-.96-.84-1.42-1.24-.47-.4-.92-.79-1.34-1.19l-1.38 1.44c.46.44.95.86 1.42 1.27l1.37 1.2 1.35-1.48zm3.24.77c.02-.64-.21-1.29-.86-1.64-.53-.28-1.11-.22-1.5-.14-.81.17-1.67.63-2.11.9l1.07 1.69c.34-.22.96-.53 1.43-.63.26-.05.26 0 .16-.05a.37.37 0 0 1-.18-.19c-.03-.06-.01-.08-.02.01l2.01.05zm-.79 2.62c.61-.81.76-1.86.79-2.61l-2-.08c-.02.62-.16 1.17-.39 1.48l1.6 1.21zm.02-.13c-.04-.06-.07-.1-.09-.14s-.03-.05-.04-.06.04.07.05.22c0 .07 0 .14-.02.19-.01.05-.03.08-.03.08 0 .01 0 0 .02-.03a1.84 1.84 0 0 1 .09-.12l-1.59-1.22c-.17.22-.5.64-.47 1.2a1.57 1.57 0 0 0 .19.65c.07.13.17.27.23.36l1.66-1.13zm1.96 4.65c-.42-1.51-.99-3.22-1.96-4.65l-1.65 1.12c.78 1.15 1.28 2.6 1.69 4.06l1.92-.53zm.45 12.97c.66-4.22.71-8.74-.45-12.97l-1.93.53c1.07 3.87 1.04 8.09.4 12.13l1.98.31zm-4.33 13.01c2.09-4.16 3.6-8.34 4.33-13.01l-1.98-.31c-.7 4.42-2.13 8.4-4.14 12.42l1.79.9zm-2.52 3.68c0 .02.03-.13.26-.49.19-.31.46-.68.75-1.07.25-.34.63-.82.86-1.13.25-.33.51-.7.66-.99l-1.78-.9c-.06.11-.21.34-.48.7l-.85 1.13c-.3.4-.61.82-.85 1.22-.22.35-.48.83-.54 1.29l1.97.24zm-1.19 4.51c.42.06.86-.07 1.16-.43a1.53 1.53 0 0 0 .33-.82c.05-.41 0-.91-.05-1.32-.05-.39-.14-.93-.19-1.25-.03-.19-.05-.35-.06-.48 0-.06-.01-.12-.01-.15v-.06l-1.98-.26c-.05.38.01.87.07 1.23l.19 1.23c.06.41.07.67.05.79-.01.07-.01-.05.11-.2a.76.76 0 0 1 .68-.27l-.3 1.99zm-2.58-2.67c-.04-.01.02-.01.17.19.15.19.29.43.48.75.17.29.39.66.66.97.26.31.68.68 1.27.77l.31-1.98c.08.01.06.05-.07-.1s-.27-.37-.45-.68c-.17-.28-.38-.65-.62-.96-.24-.3-.6-.69-1.14-.86l-.61 1.9zm-3.91-1.94c.38.17 1.06.55 1.83.96.71.38 1.54.81 2.08.98l.61-1.91c-.33-.1-.98-.43-1.75-.84-.7-.37-1.49-.81-1.94-1.01l-.83 1.82zm-11.27-6.51c3.59 2.47 7.27 4.69 11.26 6.51l.83-1.82c-3.86-1.76-7.44-3.9-10.96-6.33l-1.13 1.64zm-10.78-8.42c3.42 3.03 7.03 5.83 10.78 8.42l1.14-1.65c-3.69-2.54-7.24-5.3-10.59-8.27l-1.33 1.5zm-8.7-8.6c2.38 3.33 5.85 6.08 8.7 8.6l1.32-1.5c-2.98-2.63-6.19-5.17-8.4-8.27l-1.62 1.17zm.97.38c-.03.01-.05.02-.07.02s-.03.01-.05.01c-.02.01-.04.01-.06.01s-.04 0-.04.01c.02 0 .08 0 .14-.01l-.17-1.99h-.14c-.01 0-.04 0-.07.01-.02 0-.04.01-.07.01a.68.68 0 0 1-.12.03l.65 1.9zm-1.39.28c.48-.1.82-.19 1.21-.24l-.28-1.98c-.47.07-.97.19-1.33.26l.4 1.96zm-2.13-.15c.28.23.6.29.81.32.22.02.43.01.6-.02.28-.04.69-.14.71-.14l-.38-1.96c-.06.01-.11.02-.16.03l-.15.03a4.25 4.25 0 0 1-.28.05c-.04.01-.07.01-.1.01h-.02c.01 0 .03.01.05.01.04.01.1.04.17.1l-1.25 1.57zm-.29-2.22c-.07.14-.24.48-.28.86a1.57 1.57 0 0 0 .09.72c.1.26.27.47.47.63l1.28-1.54c.02.02.08.07.12.17s.04.19.03.23c0 .03-.01.04.01-.01s.04-.1.09-.2l-1.81-.86zm.54-.82a3.18 3.18 0 0 0-.55.82l1.81.85c.07-.14.13-.23.18-.28l-1.44-1.39zm.27-.23c-.01 0-.01.01-.03.02-.01.01-.04.03-.06.05-.04.03-.12.1-.2.19l1.48 1.34-.01.01c.02-.01.04-.03.06-.05l-1.24-1.56zm-.99-1.07c.07.29.33 1.49.72 2.28l1.8-.88c-.27-.54-.47-1.47-.56-1.86l-1.96.46zm-.96-4.15l.96 4.16 1.95-.45-.96-4.16-1.95.45zm-1.04-8.94c-.12 3.08.39 6.05 1.04 8.93l1.95-.44c-.64-2.83-1.11-5.6-1-8.41l-1.99-.08zm1.11-8.05c-.81 2.6-1.01 5.48-1.12 8.06l2 .08c.1-2.56.3-5.21 1.03-7.54l-1.91-.6zm3.71-7.4c-1.45 2.26-2.87 4.71-3.71 7.4l1.91.6c.76-2.42 2.05-4.69 3.48-6.91l-1.68-1.09zm-.43.12c.06.14.21.52.38.87l1.79-.9c-.13-.27-.23-.53-.32-.74l-1.85.77zm-.52-1.83c.11.61.25 1.2.52 1.84l1.83-.8c-.19-.43-.29-.86-.39-1.39l-1.96.35zm1.16-2.01l.3.95h.02l-.32-.95zm1.08.62l-.72.69.72-.69zm.99 1.23l-.83.56.83-.56zm.49.84l-.85.53.15.24.25.12.45-.89zm.02.01l.07-1-.2-.01-.19.06.32.95zm3.6.65l-.2.98.2-.98zm5.28 1.49l-.3.95.3-.95zm10.83 4.75l.54-.84-.54.84zm10 7.09l-.61.79.61-.79zm4.65 3.75l-.69.72.69-.72zm2.77 2.45l-.68.74.57.52.65-.41-.54-.85zm2.92.01l1 .04v-.01l-1-.03zm-.59 2.05l.79.61.01-.01-.8-.6zm-.01 1.03l.83-.56-.83.56zm1.83 4.36l.96-.27-.96.27zm.42 12.55l.99.16-.99-.16zm-4.23 12.71l.89.45-.89-.45zm-2.62 4.01l.99.13-.99-.13zm-.05 3.64l-.16.99.16-.99zm-2.43-2.64l.3-.95-.3.95zm-3.8-1.89l-.41.91.41-.91zm-11.11-6.42l.57-.82-.57.82zm-10.69-8.35l.66-.75-.66.75zm-8.55-8.43l.81-.58-.33-.46-.57.05.09.99zm-.16.01l.14.99.09-.01.09-.03-.32-.95zm-1.27.25l.19.98h.01l-.2-.98zm-1.31.04l-.64.77.02.02.62-.79zm-.01-1l.9.43v-.01l-.9-.42zm.36-.56l.72.69.02-.02-.74-.67zm.18-.14l.63.78.62-.5-.35-.72-.9.44zm-.64-2.07l-.97.23.97-.23zm-.96-4.15l-.98.22.98-.22zm-1.02-8.68l-1-.04 1 .04zm1.07-7.8l.95.3-.95-.3zm3.59-7.15l.84.54.31-.48-.26-.51-.89.45zm-.35-.81l.92-.39v-.01l-.92.4zm-.45-1.61l.98-.17v-.02l-.98.19z" clip-path="url(#L)" class="P"/><path d="M149.9 49.82s7.6 9.64 20.4 18.15 10.75 3.82 12.99-.68c0 0-1.42 2.87-3.91 2.95-2.49.09-7.01-2.42-11.88-5.96s-13.77-9.95-17.6-14.46z" class="Q R"/><path d="M156.63 7.68l-17.34 8.37 41.73 28.57 17.24-8.21z" opacity=".5" class="S"/><path d="M154.26 8.26l2.17-1.05.42.93-2.17 1.05-.42-.93zm-8.67 4.18l4.34-2.09.42.93-4.33 2.09-.43-.93zm-6.51 3.14l2.17-1.05.42.93-2.17 1.05-.42-.93zm2.04 2.32l-2.09-1.43.52-.86 2.09 1.43-.52.86zm8.34 5.72l-4.17-2.86.52-.86 4.17 2.86-.52.86zm8.35 5.71l-4.17-2.86.52-.86 4.17 2.86-.52.86zm8.34 5.72l-4.17-2.86.52-.86 4.17 2.86-.52.86zm8.35 5.71l-4.17-2.86.52-.86 4.17 2.86-.52.86zm6.26 4.29l-2.09-1.43.52-.86 2.09 1.43-.52.86zm2.62-.99l-2.16 1.03-.42-.94 2.16-1.03.42.94zm8.62-4.11L187.69 42l-.42-.94 4.31-2.05.42.94zm6.47-3.08l-2.16 1.03-.42-.94 2.16-1.03.42.94zm-2.03-2.33l2.08 1.44-.52.85-2.08-1.44.52-.85zm-8.32-5.74l4.16 2.87-.52.85-4.16-2.87.52-.85zm-8.33-5.75l4.16 2.87-.52.85-4.16-2.87.52-.85zm-8.32-5.75l4.16 2.87-.52.85-4.16-2.87.52-.85zm-8.33-5.74l4.16 2.87-.52.85-4.16-2.87.52-.85zm-6.25-4.31l2.08 1.44-.52.85-2.08-1.44.52-.85zm-2.21 1.94c-.24.12-.53 0-.65-.25-.12-.26-.01-.56.23-.68l.42.93zm-4.76 1.16c.24-.12.53 0 .65.25.12.26.01.56-.23.68l-.42-.93zm-3.91 3.03c-.24.12-.53 0-.65-.25-.12-.26-.01-.56.23-.68l.42.93zm-4.76 1.15c.24-.12.53 0 .65.25.12.26.01.56-.23.68l-.42-.93zm.39 2.52c.23.16.3.47.15.71-.14.24-.44.3-.67.15l.52-.86zm3.65 3.71c-.23-.16-.3-.47-.15-.71.14-.24.44-.3.67-.15l-.52.86zm4.69 2c.23.16.3.47.15.71a.47.47 0 0 1-.67.15l.52-.86zm3.66 3.72c-.23-.16-.3-.47-.15-.71a.47.47 0 0 1 .67-.15l-.52.86zm4.69 2c.23.16.3.47.15.71-.14.24-.44.3-.67.15l.52-.86zm3.65 3.71c-.23-.16-.3-.47-.15-.71.14-.24.44-.3.67-.15l-.52.86zm4.69 2c.23.16.3.47.15.71a.47.47 0 0 1-.67.15l.52-.86zm3.66 3.72c-.23-.16-.3-.47-.15-.71.14-.24.44-.3.67-.15l-.52.86zm4.69 2c.23.16.3.47.15.71-.14.24-.44.3-.67.15l.52-.86zm3.65 3.71c-.23-.16-.3-.47-.15-.71.14-.24.44-.3.67-.15l-.52.86zm4.29-.49c.24-.12.53 0 .65.26.11.26.01.56-.23.68l-.42-.94zm4.73-1.12c-.24.12-.53 0-.65-.26-.11-.26-.01-.56.23-.68l.42.94zm3.9-2.99c.24-.12.53 0 .65.26.11.26.01.56-.23.68l-.42-.94zm4.72-1.12c-.24.12-.53 0-.65-.26s-.01-.56.23-.68l.42.94zm-.39-2.5c-.23-.16-.29-.47-.15-.71a.46.46 0 0 1 .67-.14l-.52.85zm-3.64-3.73c.23.16.29.47.15.71a.46.46 0 0 1-.67.14l.52-.85zm-4.69-2.02c-.23-.16-.29-.47-.15-.71a.46.46 0 0 1 .67-.14l-.52.85zm-3.64-3.73c.23.16.29.47.15.71a.46.46 0 0 1-.67.14l.52-.85zm-4.68-2.02c-.23-.16-.29-.47-.15-.71a.46.46 0 0 1 .67-.14l-.52.85zm-3.64-3.72c.23.16.29.47.15.71a.46.46 0 0 1-.67.14l.52-.85zm-4.69-2.02c-.23-.16-.29-.47-.15-.71a.46.46 0 0 1 .67-.14l-.52.85zm-3.64-3.73c.23.16.29.47.15.71a.46.46 0 0 1-.67.14l.52-.85zm-4.68-2.02c-.23-.16-.29-.47-.15-.71a.46.46 0 0 1 .67-.14l-.52.85zm-3.64-3.72c.23.16.29.47.15.71a.46.46 0 0 1-.67.14l.52-.85zm39.28 27.72l.26-.43c.15.1.24.28.22.47s-.12.35-.28.43l-.2-.47zm-17.24 8.21l.21.47c-.15.07-.33.06-.47-.04l.26-.43zm-41.73-28.57l-.26.43c-.15-.1-.24-.28-.23-.47s.12-.35.28-.43l.21.47zm17.34-8.37l-.21-.47c.15-.07.33-.06.47.04l-.26.43z" class="P"/><path d="M180.41 47.09l.1-2.55.97.06-.1 2.55-.97-.06zm-.4 10.19l.2-5.09.97.06-.2 5.09-.97-.06zm-.4 10.19l.2-5.09.97.06-.2 5.09-.97-.06zm-.4 10.18l.2-5.09.97.06-.2 5.09-.97-.06zm-.29 7.64l.1-2.55.97.06-.1 2.55-.97-.06zm2.88-.54l-2.19 1.05-.42-.94 2.19-1.05.42.94zm8.75-4.19l-4.38 2.09-.42-.94 4.38-2.09.42.94zm6.57-3.13l-2.19 1.05-.42-.94 2.19-1.05.42.94zm.36-2.98l-.08 2.54-.97-.06.08-2.54.97.06zm.34-10.15l-.17 5.07-.97-.06.17-5.07.97.06zm.33-10.15l-.17 5.07-.97-.06.17-5.07.97.06zm.33-10.15l-.17 5.07-.97-.06.17-5.07.97.06zm.25-7.61l-.08 2.54-.97-.06.08-2.54.97.06zm-2.85.53l2.16-1.03.42.94-2.16 1.03-.42-.94zm-8.62 4.11l4.31-2.05.42.94-4.31 2.05-.42-.94zm-6.47 3.08l2.16-1.03.42.94-2.16 1.03-.42-.94zm.59 3.05c-.01.28-.24.5-.51.48a.52.52 0 0 1-.47-.54l.98.06zm-1.17 5.03c.01-.28.24-.5.51-.48a.52.52 0 0 1 .47.54l-.98-.06zm.77 5.15c-.01.28-.24.5-.51.48a.52.52 0 0 1-.47-.54l.98.06zm-1.17 5.03c.01-.28.24-.5.51-.48a.52.52 0 0 1 .47.54l-.98-.06zm.78 5.16c-.01.28-.24.5-.51.48a.52.52 0 0 1-.47-.54l.98.06zm-1.18 5.03c.01-.28.24-.5.51-.48a.52.52 0 0 1 .47.54l-.98-.06zm.78 5.15c-.01.28-.24.5-.51.48a.52.52 0 0 1-.47-.54l.98.06zm-1.18 5.03c.01-.28.24-.5.51-.48a.52.52 0 0 1 .47.54l-.98-.06zm2.37 1.07c.24-.12.53 0 .65.26s.01.56-.23.68l-.42-.94zm4.8-1.16c-.24.12-.53 0-.65-.26s-.01-.56.23-.68l.42.94zm3.96-3.02c.24-.12.53 0 .65.26s.01.56-.23.68l-.42-.94zm4.79-1.16c-.24.12-.53 0-.65-.26s-.01-.56.23-.68l.42.94zm1.58-4.07c.01-.28.23-.5.5-.48a.52.52 0 0 1 .47.54l-.97-.06zm1.14-5.02c-.01.28-.23.5-.5.48a.52.52 0 0 1-.47-.54l.97.06zm-.81-5.13c.01-.28.23-.5.5-.48a.52.52 0 0 1 .47.54l-.97-.06zm1.14-5.02c-.01.28-.23.5-.5.48a.52.52 0 0 1-.47-.54l.97.06zm-.81-5.13c.01-.28.23-.5.5-.48a.52.52 0 0 1 .47.54l-.97-.06zm1.14-5.02c-.01.28-.23.5-.5.48a.52.52 0 0 1-.47-.54l.97.06zm-.8-5.13c.01-.28.23-.5.5-.48a.52.52 0 0 1 .47.54l-.97-.06zm1.14-5.02c-.01.28-.23.5-.5.48a.52.52 0 0 1-.47-.54l.97.06zm-2.36-1.07c-.24.12-.53 0-.65-.26-.11-.26-.01-.56.23-.68l.42.94zm-4.72 1.12c.24-.12.53 0 .65.26.11.26.01.56-.23.68l-.42-.94zm-3.9 2.99c-.24.12-.53 0-.65-.26s-.01-.56.23-.68l.42.94zm-4.73 1.11c.24-.12.53 0 .65.26.11.26.01.56-.23.68l-.42-.94zm15.3-6.72l-.21-.47c.15-.07.33-.06.48.05s.22.27.22.45l-.49-.03zm-1.33 40.6l.49.03c-.01.19-.11.36-.28.44l-.21-.47zm-17.51 8.36l.21.47c-.15.07-.33.06-.48-.05a.55.55 0 0 1-.22-.45l.49.03zm1.6-40.74l-.49-.03c.01-.19.11-.36.28-.44l.21.47z" class="P"/></g></g></svg>