<svg width="31" height="31" viewBox="0 0 31 31" fill="none" xmlns="http://www.w3.org/2000/svg">
<path d="M2.57797 4.34739C1.83349 5.78635 2.07298 7.3258 3.25095 8.68326C3.50551 9.00988 3.79506 9.30764 4.11442 9.57123C4.12042 9.64273 4.12692 9.72123 4.13592 9.80573C4.22145 10.6893 4.0992 11.5807 3.77893 12.4086C2.84373 14.7832 2.88163 17.4306 3.88443 19.7774C4.42942 20.9536 4.44869 22.3061 3.93743 23.4973C3.57445 24.283 3.02899 24.9706 2.34648 25.5028C2.15601 25.6391 1.95544 25.7608 1.74649 25.8667C1.465 26.0084 1.1972 26.1758 0.946519 26.3667C0.141741 26.9521 -0.120866 28.034 0.326038 28.9231C0.775024 29.7806 1.604 30.2111 2.79446 30.2111C3.11826 30.209 3.4414 30.1816 3.76093 30.1291C4.2745 30.0348 4.77864 29.8949 5.26739 29.7111C5.61008 29.5866 5.95904 29.4802 6.31286 29.3921C7.16845 29.1752 8.05946 29.136 8.93078 29.2771C9.27923 29.3512 9.62027 29.4566 9.94975 29.5921C10.0672 29.6361 10.1842 29.6796 10.3052 29.7226C11.7272 30.2146 13.3716 30.2141 14.8266 30.2101H15.3806C16.834 30.2136 18.4805 30.2146 19.9049 29.7216C20.0229 29.6796 20.1399 29.6361 20.2549 29.5921C20.5848 29.4564 20.9264 29.351 21.2754 29.2771C22.1469 29.1358 23.0382 29.1751 23.8938 29.3926C24.2478 29.4805 24.5969 29.5868 24.9398 29.7111C25.4282 29.8948 25.932 30.0346 26.4452 30.1291C28.1627 30.4021 29.3197 29.9951 29.8806 28.9226C30.3281 28.0335 30.0659 26.9511 29.2612 26.3652C29.0105 26.1742 28.7427 26.0068 28.4612 25.8652C28.2524 25.76 28.0518 25.6392 27.8612 25.5037C27.1776 24.9712 26.6312 24.283 26.2677 23.4963C25.7553 22.3055 25.7735 20.953 26.3177 19.7764C27.3211 17.4315 27.361 14.7858 26.4287 12.4116C26.1525 11.6911 26.0263 10.9218 26.0578 10.1507C27.0283 9.4399 27.5838 8.29456 27.5412 7.09231C27.3822 4.53289 24.2818 2.28796 20.9074 2.28796C17.6465 2.28796 16.8075 1.86197 15.8306 1.36898C14.5888 0.714681 13.2206 0.335753 11.8192 0.258018C8.2158 -0.114971 3.89643 1.79747 2.57797 4.34739ZM25.4978 12.7746C26.3366 14.905 26.3027 17.28 25.4033 19.3854C24.7451 20.8244 24.7317 22.4758 25.3663 23.9253C25.798 24.8561 26.446 25.6702 27.2562 26.2997C27.488 26.4677 27.7325 26.6171 27.9877 26.7467C28.2145 26.8605 28.4307 26.9944 28.6337 27.1467C29.0582 27.4383 29.2109 27.9934 28.9952 28.4612C28.8682 28.7037 28.4832 29.4416 26.6002 29.1441C26.1448 29.0583 25.6978 28.9326 25.2643 28.7687C24.8899 28.6326 24.5086 28.5168 24.1218 28.4217C23.1339 28.1734 22.1055 28.1307 21.1004 28.2962C20.692 28.3797 20.2923 28.5011 19.9064 28.6587C19.7954 28.7002 19.684 28.7422 19.5745 28.7807C18.313 29.2176 16.7585 29.2196 15.3821 29.2131H14.8251C13.4581 29.2171 11.8947 29.2176 10.6352 28.7817C10.5232 28.7422 10.4117 28.7002 10.3007 28.6587C9.91528 28.5013 9.51609 28.38 9.10827 28.2962C8.10337 28.1304 7.07513 28.173 6.08736 28.4212C5.69987 28.5172 5.31783 28.634 4.9429 28.7712C4.50833 28.9339 4.06028 29.058 3.60394 29.1421C1.722 29.4421 1.33701 28.7017 1.20951 28.4587C0.994314 27.9917 1.14649 27.4377 1.57 27.1462C1.77425 26.9937 1.99179 26.8598 2.21998 26.7462C2.47631 26.6159 2.72191 26.4654 2.95446 26.2962C3.7636 25.6671 4.41071 24.8537 4.8419 23.9238C5.47562 22.4745 5.4618 20.8239 4.8039 19.3854C3.90412 17.2791 3.87053 14.9031 4.7104 12.7721C5.00815 11.9955 5.1592 11.1704 5.15589 10.3387C6.89834 11.4547 9.97925 12.7116 15.0201 12.7116C16.5001 12.7066 17.9784 12.6096 19.4465 12.4211C22.0719 12.0932 23.8583 11.5037 25.0708 10.8212C25.1139 11.4901 25.2579 12.1487 25.4978 12.7746ZM11.7167 1.25249C12.9964 1.31859 14.2462 1.66309 15.3791 2.26196C16.4226 2.78994 17.4075 3.28893 20.9074 3.28893C23.9953 3.28893 26.4297 5.33036 26.5432 7.15581C26.5987 8.04528 26.1398 8.84376 25.2433 9.51424C25.2387 9.51746 25.2344 9.52097 25.2303 9.52474C24.0123 10.4297 21.9904 11.0992 19.322 11.4332C7.64482 12.8896 4.08792 8.13378 4.05392 8.08328C4.04397 8.06923 4.03329 8.05572 4.02193 8.04278C3.09095 6.98131 2.90396 5.89285 3.46644 4.80688C4.59791 2.61845 8.53029 0.928497 11.7167 1.25249Z" fill="#9FB1C1"/>
<path d="M4.87315 7.51176C4.89565 7.54376 7.34357 10.7117 15.0458 10.7117C16.4334 10.706 17.8194 10.6147 19.1957 10.4382C23.9921 9.83819 25.612 8.32723 25.5455 7.21527C25.463 5.88881 23.3761 4.28636 20.9077 4.28636C17.4378 4.28636 16.2403 3.81587 14.9263 3.15039C13.9022 2.60959 12.7714 2.30128 11.6144 2.24742C11.3794 2.22349 11.1432 2.21164 10.907 2.21192C7.86056 2.21192 4.98265 3.87587 4.30467 5.36882C4.09817 5.82281 3.96518 6.46179 4.77215 7.38426L4.87315 7.51176ZM5.21614 5.78131C5.75462 4.59385 8.35854 3.21189 10.907 3.21189C11.109 3.21151 11.3109 3.22152 11.5119 3.24189C12.5478 3.28214 13.5613 3.55559 14.4769 4.04186C15.9138 4.76934 17.2168 5.28433 20.9082 5.28433C23.0956 5.28433 24.5106 6.66728 24.5481 7.27576C24.5631 7.51776 23.6726 8.86922 19.0747 9.4437C17.7391 9.61594 16.394 9.70544 15.0473 9.71169C8.03605 9.71169 5.69762 6.94278 5.69262 6.93728L5.63063 6.84878C5.62013 6.83428 5.60913 6.81978 5.59713 6.80628L5.52663 6.72528C5.03914 6.1703 5.14114 5.94631 5.21614 5.78231V5.78131Z" fill="#9FB1C1"/>
</svg>
