<svg xmlns="http://www.w3.org/2000/svg" xmlns:xlink="http://www.w3.org/1999/xlink" viewBox="0 0 249 173.47" xmlns:v="https://vecta.io/nano"><g fill="#8fadc8"><path d="M154.05 57.88v3.35l-1.02-.03v-3.35l1.02.03zm0-13.4v6.7l-1.02-.03v-6.7l1.02.03zm0-13.4v6.7l-1.02-.03v-6.7l1.02.03zm0-10.05v3.35l-1.02-.03V21l1.02.03zm-3.32 1.01l2.54-1.45.54.84-2.54 1.45-.54-.84zm-10.16 5.79l5.08-2.89.54.84-5.08 2.89-.54-.84zm-10.17 5.79l5.08-2.89.54.84-5.08 2.89-.54-.84zm-10.16 5.79l5.08-2.89.54.84-5.08 2.89-.54-.84zm-10.16 5.79l5.08-2.89.54.84-5.08 2.89-.54-.84zm-10.16 5.79L105 48.1l.54.84-5.08 2.89-.54-.84zm-10.16 5.78l5.08-2.89.54.84-5.08 2.89-.54-.84zM79.6 62.56l5.08-2.89.54.84-5.08 2.89-.54-.84zm-10.16 5.79l5.08-2.89.54.84-5.08 2.89-.54-.84zm-7.62 4.34l2.54-1.45.54.84-2.54 1.45-.54-.84zm-.24 3.82V73.1l1.02.03v3.41l-1.02-.03zm0 13.64v-6.82l1.02.03v6.82l-1.02-.03zm0 13.64v-6.82l1.02.03v6.82l-1.02-.03zm0 10.23v-3.41l1.02.03v3.41l-1.02-.03zm3.32-1.04l-2.54 1.47-.55-.84 2.54-1.47.55.84zm10.16-5.87l-5.08 2.93-.55-.84 5.08-2.93.55.84zm10.16-5.86l-5.08 2.93-.55-.84 5.08-2.93.55.84zm10.17-5.87l-5.08 2.93-.55-.84 5.08-2.93.55.84zm10.16-5.87l-5.08 2.93-.55-.84 5.08-2.93.55.84zm10.16-5.87l-5.08 2.93-.55-.84 5.08-2.93.55.84zm10.16-5.86l-5.08 2.93-.55-.84 5.08-2.93.55.84zm10.16-5.87l-5.08 2.93-.55-.84 5.08-2.93.55.84zm10.16-5.87l-5.08 2.93-.55-.84 5.08-2.93.55.84zm7.62-4.4l-2.54 1.47-.55-.84 2.54-1.47.55.84zm-.78-3.78c0-.27.23-.48.51-.47s.51.23.51.5l-1.02-.03zm1.02-6.68c0 .27-.23.48-.51.47s-.51-.23-.51-.5l1.02.03zm-1.02-6.72c0-.27.23-.48.51-.47s.51.23.51.5l-1.02-.03zm1.02-6.68c0 .27-.23.48-.51.47s-.51-.23-.51-.5l1.02.03zm-1.02-6.72c0-.27.23-.48.51-.47s.51.23.51.5l-1.02-.03zm1.02-6.68c0 .27-.23.48-.51.47s-.51-.23-.51-.5l1.02.03zm-2.78-1.49a.54.54 0 0 1-.71-.17.47.47 0 0 1 .16-.67l.55.84zm-5.62 2.05a.54.54 0 0 1 .71.17.47.47 0 0 1-.16.67l-.55-.84zm-4.54 3.73a.54.54 0 0 1-.71-.17.47.47 0 0 1 .16-.67l.55.84zm-5.62 2.06a.54.54 0 0 1 .71.17.47.47 0 0 1-.16.67l-.55-.84zm-4.54 3.73a.54.54 0 0 1-.71-.17.47.47 0 0 1 .16-.67l.55.84zm-5.63 2.05a.54.54 0 0 1 .71.17.47.47 0 0 1-.16.67l-.55-.84zm-4.53 3.74a.54.54 0 0 1-.71-.17.47.47 0 0 1 .16-.67l.55.84zm-5.63 2.05a.54.54 0 0 1 .71.17.47.47 0 0 1-.16.67l-.55-.84zm-4.53 3.74a.54.54 0 0 1-.71-.17.47.47 0 0 1 .16-.67l.55.84zM105 48.09a.54.54 0 0 1 .71.17.47.47 0 0 1-.16.67l-.55-.84zm-4.54 3.74a.54.54 0 0 1-.71-.17.47.47 0 0 1 .16-.67l.55.84zm-5.62 2.05a.54.54 0 0 1 .71.17.47.47 0 0 1-.16.67l-.55-.84zm-4.54 3.73a.54.54 0 0 1-.71-.17.47.47 0 0 1 .16-.67l.55.84zm-5.62 2.06a.54.54 0 0 1 .71.17.47.47 0 0 1-.16.67l-.55-.84zm-4.54 3.73a.54.54 0 0 1-.71-.17.47.47 0 0 1 .16-.67l.55.84zm-5.62 2.06a.54.54 0 0 1 .71.17.47.47 0 0 1-.16.67l-.55-.84zm-4.54 3.73a.54.54 0 0 1-.71-.17.47.47 0 0 1 .16-.67l.55.84zm-5.62 2.05a.54.54 0 0 1 .71.17.47.47 0 0 1-.16.67l-.55-.84zm-1.76 5.29c0 .27-.23.48-.51.47s-.51-.23-.51-.5l1.02.03zm-1.02 6.8c0-.27.23-.48.51-.47s.51.23.51.5l-1.02-.03zm1.02 6.84c0 .27-.23.48-.51.47s-.51-.23-.51-.5l1.02.03zm-1.02 6.8c0-.27.23-.48.51-.47s.51.23.51.5l-1.02-.03zm1.02 6.84c0 .27-.23.48-.51.47s-.51-.23-.51-.5l1.02.03zm-1.02 6.8c0-.27.23-.48.51-.47s.51.23.51.5l-1.02-.03zm2.77 1.53a.54.54 0 0 1 .71.17.47.47 0 0 1-.16.67l-.55-.84zm5.63-2.09a.54.54 0 0 1-.71-.17.47.47 0 0 1 .16-.67l.55.84zm4.54-3.77a.54.54 0 0 1 .71.17.47.47 0 0 1-.16.67l-.55-.84zm5.62-2.1a.54.54 0 0 1-.71-.17.47.47 0 0 1 .16-.67l.55.84zm4.54-3.77a.54.54 0 0 1 .71.17.47.47 0 0 1-.16.67l-.55-.84zm5.62-2.1a.54.54 0 0 1-.71-.17.47.47 0 0 1 .16-.67l.55.84zm4.54-3.77a.54.54 0 0 1 .71.17.47.47 0 0 1-.16.67l-.55-.84zm5.63-2.1a.54.54 0 0 1-.71-.17.47.47 0 0 1 .16-.67l.55.84zm4.53-3.77a.54.54 0 0 1 .71.17.47.47 0 0 1-.16.67l-.55-.84zm5.63-2.09a.54.54 0 0 1-.71-.17.47.47 0 0 1 .16-.67l.55.84zm4.53-3.78a.54.54 0 0 1 .71.17.47.47 0 0 1-.16.67l-.55-.84zm5.63-2.09a.54.54 0 0 1-.71-.17.47.47 0 0 1 .16-.67l.55.84zm4.53-3.77a.54.54 0 0 1 .71.17.47.47 0 0 1-.16.67l-.55-.84zm5.63-2.1a.54.54 0 0 1-.71-.17.47.47 0 0 1 .16-.67l.55.84zm4.53-3.77a.54.54 0 0 1 .71.17.47.47 0 0 1-.16.67l-.55-.84zm5.63-2.1a.54.54 0 0 1-.71-.17.47.47 0 0 1 .16-.67l.55.84zm4.53-3.77a.54.54 0 0 1 .71.17.47.47 0 0 1-.16.67l-.55-.84zm5.63-2.09a.54.54 0 0 1-.71-.17.47.47 0 0 1 .16-.67l.55.84zm-89.18 50.92l.27.42c-.16.09-.36.09-.52 0s-.27-.26-.27-.43l.52.01zm0-40.92l-.51-.01c0-.17.09-.32.24-.41l.27.42zm91.45-52.09l-.27-.42c.16-.09.36-.09.52 0s.26.26.26.43l-.51-.01zm0 40.2l.51.01c0 .17-.09.32-.24.41l-.27-.42z"/><path d="M226.66 57.6l2.69 1.37-.46.86-2.69-1.37.46-.86zm-10.77-5.48l5.39 2.74-.46.86-5.39-2.74.46-.86zm-10.77-5.48l5.39 2.74-.46.86-5.39-2.74.46-.86zm-10.77-5.49l5.39 2.74-.46.86-5.39-2.74.46-.86zm-10.77-5.48l5.39 2.74-.46.86-5.39-2.74.46-.86zm-10.77-5.48l5.39 2.74-.46.86-5.39-2.74.46-.86zm-10.78-5.49l5.39 2.74-.46.86-5.39-2.74.46-.86zm-8.07-4.11l2.69 1.37-.46.86-2.69-1.37.46-.86zm-.73 3.81l-.02-3.4 1.02.02.02 3.4-1.02-.02zm.08 13.59l-.04-6.79 1.02.02.04 6.79-1.02-.02zm.08 13.58l-.04-6.79 1.02.02.04 6.79-1.02-.02zm.06 10.19l-.02-3.4 1.02.02.02 3.4-1.02-.02zm2.97 1.8l-2.68-1.36.46-.86 2.68 1.36-.46.86zM167.16 69l-5.37-2.72.46-.86 5.37 2.72-.46.86zm10.73 5.43l-5.37-2.72.46-.86 5.37 2.72-.46.86zm10.74 5.44l-5.37-2.72.46-.86 5.37 2.72-.46.86zm10.74 5.44L194 82.59l.46-.86 5.37 2.72-.46.86zm10.73 5.44l-5.37-2.72.46-.86 5.37 2.72-.46.86zm10.74 5.44l-5.37-2.72.46-.86 5.37 2.72-.46.86zm8.05 4.08l-2.68-1.36.46-.86 2.68 1.36-.46.86zm.74-3.78v3.37l-1.02-.03v-3.37l1.02.03zm0-13.48v6.74l-1.02-.03v-6.74l1.02.03zm0-13.48v6.74l-1.02-.03V69.5l1.02.03zm0-10.11v3.37l-1.02-.03v-3.37l1.02.03zm-3.43-.96c-.25-.13-.35-.42-.23-.66s.44-.32.69-.2l-.46.86zm-4.92-3.6c.25.13.35.42.23.66-.13.24-.44.32-.69.2l.46-.86zm-5.85-1.88c-.25-.13-.35-.42-.23-.66s.44-.32.69-.2l-.46.86zm-4.93-3.6c.25.13.35.42.23.66-.13.24-.44.32-.69.2l.46-.86zm-5.84-1.89c-.25-.13-.35-.42-.23-.66s.44-.32.69-.2l-.46.86zm-4.93-3.6c.25.13.35.42.23.66-.13.24-.44.32-.69.2l.46-.86zm-5.84-1.88c-.25-.13-.35-.42-.23-.66.13-.24.44-.32.69-.2l-.46.86zm-4.93-3.6c.25.13.35.42.23.66s-.44.32-.69.2l.46-.86zm-5.85-1.88c-.25-.13-.35-.42-.23-.66.13-.24.44-.32.69-.2l-.46.86zm-4.92-3.6c.25.13.35.42.23.66s-.44.32-.69.2l.46-.86zm-5.85-1.89c-.25-.13-.35-.42-.23-.66.13-.24.44-.32.69-.2l-.46.86zm-4.92-3.6c.25.13.35.42.23.66-.13.24-.44.32-.69.2l.46-.86zm-5.85-1.88c-.25-.13-.35-.42-.23-.66.13-.24.44-.32.69-.2l-.46.86zm-4.92-3.6c.25.13.35.42.23.66-.13.24-.44.32-.69.2l.46-.86zm-2.39 2.46c0 .27-.23.48-.51.48-.28-.01-.51-.23-.51-.5l1.02.02zm-.99 6.77c0-.27.23-.48.51-.48.28.01.51.23.51.5l-1.02-.02zm1.07 6.82c0 .27-.23.48-.51.48a.51.51 0 0 1-.51-.5l1.02.02zm-.99 6.77c0-.27.23-.48.51-.48a.51.51 0 0 1 .51.5l-1.02-.02zm1.07 6.81c0 .27-.23.48-.51.48-.28-.01-.51-.23-.51-.5l1.02.02zm-.99 6.77c0-.27.23-.48.51-.48a.51.51 0 0 1 .51.5l-1.02-.02zm3.45 4.34c.25.13.35.42.23.66-.13.24-.44.33-.69.2l.46-.86zm4.91 3.58c-.25-.13-.35-.42-.23-.66.13-.24.44-.33.69-.2l-.46.86zm5.83 1.86c.25.13.35.42.23.66-.13.24-.44.33-.69.2l.46-.86zm4.9 3.58c-.25-.13-.35-.42-.23-.66.13-.24.44-.33.69-.2l-.46.86zm5.83 1.86c.25.13.35.42.23.66-.13.24-.44.33-.69.2l.46-.86zm4.91 3.57c-.25-.13-.35-.42-.23-.66s.44-.33.69-.2l-.46.86zm5.83 1.87c.25.13.35.42.23.66-.13.24-.44.33-.69.2l.46-.86zm4.91 3.57c-.25-.13-.35-.42-.23-.66.13-.24.44-.33.69-.2l-.46.86zm5.83 1.86c.25.13.35.42.23.66-.13.24-.44.33-.69.2l.46-.86zm4.9 3.58c-.25-.13-.35-.42-.23-.66.13-.24.44-.33.69-.2l-.46.86zm5.83 1.86c.25.13.35.42.23.66-.13.24-.44.33-.69.2l.46-.86zm4.91 3.58c-.25-.13-.35-.42-.23-.66.13-.24.44-.33.69-.2l-.46.86zm5.83 1.86c.25.13.35.42.23.66-.13.24-.44.33-.69.2l.46-.86zm4.91 3.58c-.25-.13-.35-.42-.23-.66.13-.24.44-.33.69-.2l-.46.86zm2.4-2.45c0-.27.23-.48.51-.47s.51.23.51.5l-1.02-.03zm1.02-6.71c0 .27-.23.48-.51.47s-.51-.23-.51-.5l1.02.03zm-1.02-6.77c0-.27.23-.48.51-.47s.51.23.51.5l-1.02-.03zm1.02-6.71c0 .27-.23.48-.51.47s-.51-.23-.51-.5l1.02.03zm-1.02-6.77c0-.27.23-.48.51-.47s.51.23.51.5l-1.02-.03zm1.02-6.71c0 .27-.23.48-.51.47s-.51-.23-.51-.5l1.02.03zm-.51 37.05l.51.01c0 .17-.09.32-.24.41s-.34.09-.5.01l.23-.43zm-75.15-38.07l-.23.43c-.17-.09-.28-.26-.28-.44l.51.01zm-.24-40.75l-.51-.01c0-.17.09-.33.24-.41.15-.09.34-.09.5-.01l-.23.43zm75.39 38.38l.23-.43c.17.09.28.26.28.44l-.51-.01z"/></g><path d="M137.86 135.01c.54.06.83.46 1.21 1.19.74 1.4 2.32 2.37 3.22 2.82.24.13.48.2.69.22a.95.95 0 0 0 .83-.29c.89-.9.93-3.65.74-5.18l-.02-.2.19-.08 3.09-1.33 4.05-1.7c3.07-1.16 6.04-2.7 8.93-4.2l2.3-1.19c8.99-4.57 15.88-8.42 22.34-12.48 5.74-3.6 11.84-8.88 18.67-16.13l.75-.8c2.33-2.47 4.74-5.04 6.79-7.78l1.25-1.63c1.18-1.51 2.27-2.94 3.2-4.57l.13-.16h.1c.3-.04.65-.05.97-.07.37-.01.72-.03 1.04-.08 1.12-.17 2.17-.42 3.18-.76l.08-.03c.54-.18 1.8-.59 1.87-1.22.12-.93-1.8-1.38-2.72-1.59-.17-.03-.31-.08-.42-.11-1.34-.37-2.28-.54-3.39-.58l-.3-.01c-.41-.02-.97-.06-1.51-.03l-.16.01-.09-.12c-2.66-4.29-5.97-9.21-10.23-13.16-3.95-3.65-8.92-6.48-13.7-9-5.83-3.06-11.98-4.68-17.22-5.85l-8.88-1.96c-.84-.18-3.04-.63-4.25-.61h-.23l-.05-.22c-.03-.15-.05-.29-.09-.41-.14-.36-.36-.71-.67-1.11-.34-.43-.69-.85-1.1-.9a.85.85 0 0 0-.5.1c-.48.23-.73 1.37-.86 1.99l-.08.33-.18.77c-.14.61-.29 1.25-.49 1.87 0 .01-.02.05-.04.14l-.13.34-.15.03c-6.71 1.2-13.29 4.08-19.65 6.85l-3.9 1.69c-8.52 3.62-17.04 7.88-25.34 12.66-8.56 4.93-15.78 9.89-22.07 15.16-.55.46-1.51 1.15-2.51 1.89-1.72 1.27-3.68 2.7-4.46 3.55-.78.84-2.27.96-3.7 1.1-1.42.13-2.88.26-3.44 1.08-.09.12-.07.19-.04.25.22.6 2.29 1.2 3.81 1.65 1.24.36 2.42.71 3 1.1 1.04.67 2.37 3.24 3.53 5.49.68 1.31 1.32 2.56 1.74 3.11 6.36 8.17 12.77 14.32 20.14 19.37 8.1 5.54 16.17 9.06 23.98 10.43 1.07.18 2.01.34 2.89.44 2.66.33 4.91.33 6.89.04.41-.12.71-.16.97-.13zm5.05 4.77c-.27-.03-.56-.12-.87-.29-.94-.48-2.64-1.52-3.45-3.05-.39-.73-.56-.87-.8-.89-.18-.02-.45.02-.81.08-2.07.32-4.37.3-7.08-.03-.9-.11-1.86-.26-2.92-.44-7.87-1.39-16.01-4.94-24.18-10.53-7.43-5.08-13.87-11.26-20.26-19.48-.46-.6-1.08-1.8-1.8-3.19-1.08-2.1-2.42-4.7-3.34-5.3-.53-.33-1.66-.68-2.87-1.02-2.34-.69-3.88-1.2-4.17-1.99-.07-.17-.09-.44.11-.73.71-1.03 2.3-1.18 3.83-1.31 1.33-.12 2.7-.24 3.36-.94.83-.89 2.8-2.33 4.54-3.61 1-.73 1.94-1.43 2.48-1.88 6.33-5.29 13.56-10.28 22.15-15.22 8.31-4.79 16.87-9.06 25.4-12.7l3.9-1.69c6.35-2.77 12.9-5.64 19.63-6.87l.06-.16c.2-.59.34-1.23.49-1.83.06-.25.12-.52.19-.76-.02-.06.01-.17.03-.3.18-.79.44-2.01 1.16-2.35a1.43 1.43 0 0 1 .79-.15c.62.07 1.05.59 1.44 1.1.36.44.6.84.75 1.26a2.94 2.94 0 0 1 .08.28c.36.01.77.03 1.22.09 1.16.14 2.36.4 2.93.53l2.08.46 6.8 1.5c5.28 1.18 11.47 2.8 17.36 5.9 4.82 2.52 9.82 5.38 13.82 9.09 4.27 3.95 7.57 8.85 10.23 13.14.52-.01 1.03.02 1.4.04l.3.02c1.14.05 2.12.22 3.52.6.11.03.24.06.4.1 1.16.26 3.3.77 3.13 2.18-.13.99-1.5 1.43-2.24 1.67l-.08.03a20.3 20.3 0 0 1-3.27.78c-.35.06-.72.07-1.1.09-.27.01-.55.02-.81.05-.92 1.62-2.02 3.04-3.19 4.55L212 88.22c-2.07 2.77-4.5 5.35-6.84 7.84l-.75.8c-6.85 7.29-12.99 12.59-18.76 16.22-6.5 4.07-13.4 7.93-22.39 12.51l-2.3 1.19c-2.89 1.51-5.89 3.06-8.99 4.22-1.35.51-2.7 1.11-4.02 1.69l-2.91 1.26c.16 1.52.16 4.34-.92 5.43-.29.32-.72.45-1.21.4z" fill="#bbd6ff"/><path d="M220.36 77.41c-1.16-.32-2.24-.55-3.45-.59l-1.84-.06c-2.93-4.73-6.18-9.42-10.28-13.22-3.96-3.67-9-6.53-13.76-9.04-5.46-2.87-11.31-4.53-17.29-5.87l-8.7-1.92c-.71-.15-2.92-.67-4.49-.65-.04-.16-.06-.32-.12-.46-.16-.43-.42-.82-.72-1.19-.54-.66-1.05-1.28-1.91-.88-.71.35-.94 1.89-1.09 2.5-.22.88-.39 1.76-.67 2.63 0 .03-.06.15-.12.31-8.14 1.45-16.13 5.37-23.61 8.56-8.71 3.7-17.18 7.95-25.37 12.67-7.82 4.5-15.2 9.4-22.1 15.2-1.46 1.23-5.7 4.09-6.99 5.47-1.49 1.58-5.94.43-7.17 2.22-1.02 1.5 5.27 2.35 6.84 3.36 1.58 1.02 4.04 7.04 5.2 8.55 5.88 7.55 12.26 13.99 20.19 19.43 7.22 4.94 15.43 8.94 24.07 10.47 3.18.56 6.65.97 9.87.47 1.11-.17 1.33-.23 1.93.96.68 1.3 2.06 2.29 3.33 2.95 2.9 1.48 2.88-3.61 2.65-5.51 2.39-.96 4.72-2.12 7.12-3.03 3.89-1.46 7.56-3.52 11.26-5.4 7.68-3.91 15.07-7.92 22.37-12.49 6.81-4.28 13.22-10.33 18.72-16.18 2.61-2.78 5.27-5.55 7.56-8.61 1.59-2.13 3.21-4 4.46-6.23 0-.01.02-.01.03-.02.67-.08 1.39-.07 2.02-.16 1.11-.17 2.17-.42 3.22-.77.61-.2 2.03-.63 2.13-1.48.21-1.36-2.48-1.79-3.29-1.99z" fill="#e3eeff"/><defs><path id="A" d="M220.36 77.41c-1.16-.32-2.24-.55-3.45-.59l-1.84-.06c-2.93-4.73-6.18-9.42-10.28-13.22-3.96-3.67-9-6.53-13.76-9.04-5.46-2.87-11.31-4.53-17.29-5.87l-8.7-1.92c-.71-.15-2.92-.67-4.49-.65-.04-.16-.06-.32-.12-.46-.16-.43-.42-.82-.72-1.19-.54-.66-1.05-1.28-1.91-.88-.71.35-.94 1.89-1.09 2.5-.22.88-.39 1.76-.67 2.63 0 .03-.06.15-.12.31-8.14 1.45-16.13 5.37-23.61 8.56-8.71 3.7-17.18 7.95-25.37 12.67-7.82 4.5-15.2 9.4-22.1 15.2-1.46 1.23-5.7 4.09-6.99 5.47-1.49 1.58-5.94.43-7.17 2.22-1.02 1.5 5.27 2.35 6.84 3.36 1.58 1.02 4.04 7.04 5.2 8.55 5.88 7.55 12.26 13.99 20.19 19.43 7.22 4.94 15.43 8.94 24.07 10.47 3.18.56 6.65.97 9.87.47 1.11-.17 1.33-.23 1.93.96.68 1.3 2.06 2.29 3.33 2.95 2.9 1.48 2.88-3.61 2.65-5.51 2.39-.96 4.72-2.12 7.12-3.03 3.89-1.46 7.56-3.52 11.26-5.4 7.68-3.91 15.07-7.92 22.37-12.49 6.81-4.28 13.22-10.33 18.72-16.18 2.61-2.78 5.27-5.55 7.56-8.61 1.59-2.13 3.21-4 4.46-6.23 0-.01.02-.01.03-.02.67-.08 1.39-.07 2.02-.16 1.11-.17 2.17-.42 3.22-.77.61-.2 2.03-.63 2.13-1.48.21-1.36-2.48-1.79-3.29-1.99z"/><path id="B" d="M148.51 158.07l-11.26-6.5-.5.87 11.26 6.5.5-.87zm-11.26-6.5c-.24-.14-.54-.06-.68.18s-.06.54.18.68l.5-.86zm10.76 7.36c.24.14.54.06.68-.18s.06-.54-.18-.68l-.5.86z"/></defs><clipPath id="C"><use xlink:href="#A"/></clipPath><path d="M224.67 79.53c.1-.73-.21-1.31-.62-1.7-.38-.37-.86-.61-1.28-.78-.83-.33-1.86-.53-2.15-.61l-.5 1.94c.51.13 1.23.26 1.91.53.33.13.53.26.63.36.04.04.05.06.04.05 0-.01-.01-.02-.01-.03l1.98.24zm-2.81 2.3c.28-.09.88-.28 1.42-.57.47-.25 1.28-.79 1.39-1.75l-1.99-.23c.01-.07.04-.07-.02-.02-.06.06-.17.14-.34.24-.35.19-.77.32-1.1.43l.64 1.9zm-3.39.8c1.16-.18 2.27-.44 3.38-.81l-.63-1.9c-1 .33-2 .57-3.06.73l.31 1.98zm-2.05.17l.96-.07 1.1-.1-.31-1.98c-.26.04-.55.06-.89.08l-1.09.08.23 1.99zm.84-.85c-.02.18-.1.37-.24.54-.12.14-.26.21-.29.22-.02.01-.03.02-.03.01l.04-.02a1.46 1.46 0 0 0 .18-.11l-1.24-1.57c.06-.05.12-.08.15-.1.02-.01.03-.01.03-.01-.02 0-.02.01-.04.01-.03.02-.17.09-.3.23a1.01 1.01 0 0 0-.25.56l1.99.24zm-4.65 6.71c1.54-2.06 3.24-4.03 4.53-6.34l-1.74-.98c-1.2 2.15-2.74 3.91-4.39 6.12l1.6 1.2zm-7.63 8.69c2.6-2.77 5.3-5.58 7.63-8.7l-1.6-1.2c-2.25 3.01-4.86 5.73-7.49 8.52l1.46 1.38zm-18.92 16.35c6.92-4.35 13.4-10.47 18.91-16.35l-1.46-1.37c-5.47 5.83-11.82 11.81-18.52 16.02l1.07 1.7zm-22.45 12.54c7.69-3.91 15.12-7.94 22.45-12.54L185 112c-7.27 4.56-14.63 8.55-22.3 12.45l.91 1.79zm-11.36 5.44c3.96-1.49 7.71-3.59 11.36-5.45l-.91-1.78c-3.74 1.91-7.34 3.92-11.16 5.36l.71 1.87zm-7.1 3.02c1.21-.49 2.41-1.03 3.59-1.55s2.34-1.03 3.51-1.47l-.71-1.87c-1.23.46-2.43.99-3.61 1.51l-3.53 1.52.75 1.86zm-3.47 5.47c.95.48 1.92.54 2.72-.05.69-.51 1.02-1.36 1.2-2.08.37-1.5.29-3.38.17-4.39l-1.98.25c.11.9.16 2.51-.13 3.66-.15.6-.34.87-.45.96 0 0-.12.14-.62-.12l-.91 1.77zm-3.76-3.37c.82 1.57 2.43 2.68 3.75 3.37l.93-1.77c-1.21-.63-2.37-1.51-2.91-2.53l-1.77.93zm-.9-.43a6.7 6.7 0 0 1 .59-.08c.11-.01.09.01.03-.02-.07-.03-.08-.07-.03 0a3.34 3.34 0 0 1 .3.51l1.78-.91c-.28-.55-.63-1.18-1.29-1.46a1.93 1.93 0 0 0-.91-.13c-.24.01-.52.06-.78.1l.31 1.99zm-10.19-.48c3.2.56 6.81 1 10.2.47l-.3-1.98c-3.05.47-6.39.09-9.55-.47l-.35 1.98zm-24.47-10.63c7.29 4.99 15.64 9.07 24.46 10.63l.35-1.97c-8.46-1.5-16.54-5.43-23.68-10.31l-1.13 1.65zm-20.41-19.64c5.93 7.62 12.38 14.13 20.41 19.64l1.13-1.65c-7.83-5.36-14.14-11.73-19.97-19.22l-1.57 1.23zm-4.96-8.32c.19.12.54.51 1.02 1.25.45.69.92 1.55 1.4 2.46l1.36 2.63c.41.78.82 1.52 1.18 1.97l1.58-1.22c-.23-.3-.56-.88-.99-1.69l-1.36-2.63c-.48-.92-.99-1.84-1.49-2.61-.47-.73-1.02-1.47-1.62-1.85l-1.08 1.69zm-7.13-4.77c-.3.45-.38.99-.14 1.51.2.43.55.71.84.9.6.39 1.46.7 2.27.96.8.26 1.8.54 2.53.76.82.25 1.37.46 1.63.63l1.09-1.68c-.53-.34-1.35-.62-2.12-.86L73.45 94c-.83-.26-1.45-.51-1.79-.73-.18-.12-.16-.15-.12-.06.08.18.03.38-.02.45l-1.66-1.13zm7.27-2.34c-.17.18-.48.34-1.06.47-.57.13-1.23.18-1.98.25-.71.07-1.52.14-2.23.34-.71.19-1.49.55-1.99 1.28l1.65 1.13c.11-.16.35-.34.87-.48.51-.14 1.15-.21 1.89-.28.7-.06 1.51-.13 2.23-.29.71-.16 1.51-.44 2.09-1.06l-1.47-1.36zm7.07-5.55c-.7.59-2.07 1.58-3.51 2.64-1.38 1.02-2.85 2.14-3.57 2.91l1.46 1.37c.57-.61 1.87-1.61 3.3-2.67 1.37-1.02 2.85-2.08 3.61-2.72l-1.29-1.53zm22.25-15.3c-7.86 4.52-15.29 9.45-22.25 15.3l1.29 1.53c6.84-5.75 14.17-10.62 21.96-15.1l-1-1.73zm25.48-12.73c-8.75 3.71-17.25 7.99-25.48 12.73l1 1.73c8.16-4.7 16.59-8.94 25.26-12.62l-.78-1.84zm23.83-8.62c-8.28 1.47-16.43 5.47-23.83 8.62l.78 1.84c7.56-3.22 15.41-7.07 23.4-8.49l-.35-1.97zm-.69.55c0-.03.01-.05.01-.07s.01-.03.01-.05c.01-.02.01-.04.01-.05s.01-.02.01-.02c0 .01-.01.02-.01.03-.02.05-.06.14-.09.24l1.87.71c.02-.07.05-.12.07-.18.01-.03.03-.06.04-.1.01-.02.02-.04.03-.08.01-.02.03-.1.04-.2l-1.99-.23zm.68-2.75c-.23.94-.39 1.73-.65 2.57l1.91.6c.29-.91.48-1.87.68-2.68l-1.94-.49zm1.63-3.16c-.42.2-.69.54-.87.83-.18.3-.31.62-.4.91-.17.53-.31 1.23-.36 1.41l1.94.5c.11-.43.16-.81.32-1.29a2.15 2.15 0 0 1 .21-.49c.07-.12.09-.1.03-.07l-.87-1.8zm3.13 1.15c-.24-.3-.61-.77-1.09-1.06-.26-.16-.58-.29-.95-.31-.37-.03-.73.06-1.08.21l.84 1.81c.09-.04.11-.03.1-.03-.02 0-.01-.01.03.02.05.03.12.09.23.2a4.3 4.3 0 0 1 .35.42l1.57-1.26zm.88 1.46c-.22-.57-.54-1.05-.88-1.47l-1.54 1.27c.26.31.44.6.55.9l1.87-.7zm.15.58c-.01-.04-.07-.37-.17-.61l-1.85.76c0-.01 0 0 .02.06.01.03.01.06.02.1s.02.09.03.14l1.95-.45zm3.73-.09c-.66-.14-3.01-.7-4.71-.68l.02 2c1.42-.02 3.5.47 4.26.63l.43-1.95zm8.7 1.92l-8.7-1.92-.43 1.95 8.7 1.92.43-1.95zm17.54 5.97c-5.57-2.93-11.53-4.61-17.53-5.96l-.44 1.95c5.95 1.34 11.7 2.97 17.04 5.78l.93-1.77zm13.97 9.19c-4.07-3.77-9.21-6.68-13.97-9.19l-.93 1.77c4.75 2.5 9.69 5.31 13.54 8.88l1.36-1.46zm10.45 13.42c-2.95-4.75-6.24-9.53-10.45-13.43l-1.36 1.47c4 3.71 7.19 8.3 10.11 13.01l1.7-1.05zm1.03-.41c-.36-.02-1.14-.08-1.91-.06l.04 2c.67-.02 1.33.04 1.77.06l.1-2zm3.67.62c-1.2-.33-2.36-.58-3.68-.63l-.07 2c1.1.04 2.09.24 3.22.55l.53-1.92zm3.05 2.96l-.99-.14v.02l.99.12zm-2.14 1.48l-.31-.95.31.95zm-3.22.76l-.15-.99.15.99zm-2.02.17l-.12-.99-.28.03-.22.18.62.78zm-.03.02l.87.49.1-.17.02-.2-.99-.12zm-4.46 6.23l-.8-.6.8.6zm-7.56 8.61l-.73-.68.73.68zm-18.72 16.18l.53.85-.53-.85zm-22.37 12.5l-.45-.89.45.89zm-11.26 5.4l-.35-.94.35.94zm-7.12 3.02l-.37-.93-.71.29.09.76.99-.12zm-2.65 5.51l-.46.89h.01l.45-.89zm-3.33-2.95l-.89.45v.01l.89-.46zm-1.93-.95l.15.99-.15-.99zm-9.87-.47l-.17.98.17-.98zm-24.07-10.48l-.57.82.57-.82zm-20.19-19.42l-.79.61.79-.61zm-5.21-8.55l-.54.84.54-.84zm-6.84-3.36l-.82-.57.82.57zm7.17-2.22l.73.68-.73-.68zm6.99-5.48l-.64-.77.64.77zm22.1-15.2l.5.87-.5-.87zm25.37-12.67l.39.92-.39-.92zm23.62-8.56l.18.98.56-.1.2-.53-.94-.35zm.12-.31l-.95-.3-.03.09-.01.09.99.12zm.66-2.63l-.97-.25v.01l.97.24zm1.1-2.5l-.42-.91h-.02l.44.91zm1.91.88l-.78.63.01.01.77-.64zm.72 1.19l-.94.35.02.02.92-.37zm.12.45l-.97.23.18.78.8-.01-.01-1zm4.48.66l.22-.98-.22.98zm8.7 1.92l.22-.98-.22.98zm17.29 5.87l.47-.88-.47.88zm13.76 9.04l-.68.73.68-.73zm10.28 13.22l-.85.53.3.49.57-.01-.02-1.01zm1.83.06l-.05 1h.01l.04-1zm3.45.59l-.27.96h.02l.25-.96z" clip-path="url(#C)" fill="#8fadc8"/><path d="M197.54 72.87c-2.43 5.59-7.24 9.66-11.95 13.34-5.45 4.25-10.78 8.65-16.63 12.34-12.69 7.98-27.46 13.34-42.57 13.59-13.33.21-28.97-5.53-36.96-16.76-1.35-1.9-3.3-4.53-2.25-7.03 1.09-2.56 2.96-4.29 5.19-5.87a196.57 196.57 0 0 1 19.61-12.25c3.21-1.75 6.47-3.36 9.78-4.89 5.17-3 10.52-5.69 16.01-8.01 6.3-2.65 12.82-4.9 19.47-6.54 6.78-1.68 12.98-1.27 19.48 1.37 5.99 2.43 11.3 5.99 16.26 10.12 3.13 2.59 6.46 6.24 4.56 10.59zm22.82 4.54c-1.16-.32-2.24-.55-3.45-.59-.4-.02-1.12-.07-1.84-.06-2.93-4.73-6.18-9.42-10.28-13.22-3.96-3.67-9-6.53-13.76-9.04-5.46-2.87-11.31-4.53-17.29-5.87l-8.7-1.92c-.71-.15-2.92-.67-4.49-.65-.04-.16-.06-.32-.12-.46-.16-.43-.42-.82-.72-1.19-.54-.66-1.05-1.28-1.91-.88-.71.35-.94 1.89-1.09 2.5-.22.88-.39 1.76-.67 2.63 0 .03-.06.15-.12.31-8.14 1.45-16.13 5.37-23.61 8.56-8.71 3.7-17.18 7.95-25.37 12.67-7.82 4.5-15.2 9.4-22.1 15.2-1.46 1.23-5.7 4.09-6.99 5.47-1.49 1.58-5.94.43-7.17 2.22-1.02 1.5 5.27 2.35 6.84 3.36 1.58 1.02 4.04 7.04 5.2 8.55 5.88 7.55 12.26 13.99 20.19 19.43 7.22 4.94 15.43 8.94 24.07 10.47 3.18.56 6.65.97 9.87.47 1.11-.17 1.33-.23 1.93.96.68 1.3 2.06 2.29 3.33 2.95 2.9 1.48 2.88-3.61 2.65-5.51 2.39-.96 4.72-2.12 7.12-3.03 3.89-1.46 7.56-3.52 11.26-5.4 7.68-3.91 15.07-7.92 22.37-12.49 6.81-4.28 13.22-10.33 18.72-16.18 2.61-2.78 5.27-5.55 7.56-8.61 1.59-2.13 3.21-4 4.46-6.23 0-.01.02-.01.03-.02.67-.08 1.39-.07 2.02-.16 1.11-.17 2.17-.42 3.22-.77.61-.2 2.03-.63 2.13-1.48.21-1.36-2.48-1.79-3.29-1.99z" opacity=".4" fill="#e3eeff"/><path d="M220.37 77.41c-1.16-.32-2.24-.55-3.45-.59l-1.84-.06c-2.93-4.73-6.18-9.42-10.28-13.22-.77-.72-1.6-1.39-2.45-2.05 2.43 3.93 4.11 8.22 4.27 13.11.08 2.4 1.03 6.61-2.14 7.54-1.51.45-3.07.54-4.64.53 2.26.62 4.39 1.5 5.94 3.37.2.24.12.56-.09.76-17.37 16.43-37.91 28.76-59.72 38.36-.41.18-.75-.16-.75-.56.01-1.53.88-6.56.37-9.78-.29 1.27-.57 2.54-.94 3.78-.5 1.7-1.15 4.46-2.71 5.57-3.08 2.21-7.48-1.22-10.95-2.74 2.91 2.84 5.88 5.62 8.28 8.94.23.33.06.79-.34.86-6.9 1.14-14.18-1.06-20.39-3.95-6.74-3.14-13.66-6.85-19.61-11.31-6.01-4.51-11.78-10.41-15.53-16.97-1.45-2.54-2.73-5.24-1.88-8.23.46-1.62 1.23-3.09 2.13-4.48-1.88 1.41-4.77 3.45-5.8 4.54-1.49 1.58-5.94.43-7.17 2.22-1.02 1.5 5.27 2.35 6.84 3.36 1.58 1.02 4.04 7.04 5.2 8.55 5.88 7.55 12.26 13.99 20.19 19.43 7.22 4.94 15.43 8.94 24.07 10.47 3.18.56 6.65.97 9.87.47 1.11-.17 1.33-.23 1.93.96.68 1.3 2.06 2.29 3.33 2.95 2.9 1.48 2.88-3.61 2.65-5.51 2.39-.96 4.72-2.12 7.12-3.03 3.89-1.46 7.56-3.52 11.26-5.4 7.68-3.91 15.07-7.92 22.37-12.49 6.81-4.28 13.22-10.33 18.72-16.18 2.61-2.78 5.27-5.55 7.56-8.61 1.59-2.13 3.21-4 4.46-6.23 0-.01.02-.01.03-.02.67-.08 1.39-.07 2.02-.16 1.11-.17 2.17-.42 3.22-.77.61-.2 2.03-.63 2.13-1.48.22-1.31-2.48-1.74-3.28-1.95z" opacity=".4" fill="#bbd6ff"/><path d="M139.63 133.53c-14.44 1.05-29.54-7.11-40.52-15.95-4.89-3.93-9.14-7.91-13.05-12.87-3.5-4.43-5.4-10.07-11.44-11.21-.1-.01-.31.21-.2.25 6.32 2 9.29 9.31 13.33 14.13 4.3 5.14 9.56 9.57 15.15 13.23 10.59 6.92 23.26 14.58 36.43 12.92.19 0 .6-.52.3-.5zm72.88-49.39c-4.27 6.29-10.25 11.53-16.05 16.38-5.33 4.45-10.63 8.32-16.52 12.01-10.79 6.76-22.13 12.61-33.28 18.71-.23.13-.5.74-.06.49 12.73-6.93 25.85-13.37 38-21.35 5.58-3.67 11.07-7.81 15.77-12.57 4.43-4.47 9.13-8.18 12.36-13.71.09-.17-.17-.06-.22.04z" opacity=".4" fill="#e3eeff"/><defs><path id="D" d="M220.12 77.26c-1.16-.32-2.24-.55-3.45-.59l-1.84-.06c-2.93-4.73-6.18-9.42-10.28-13.22-3.96-3.67-9-6.53-13.76-9.04-5.46-2.87-11.31-4.53-17.29-5.87l-8.7-1.92c-.71-.15-2.92-.67-4.49-.65-.04-.16-.06-.32-.12-.46-.16-.43-.42-.82-.72-1.19-.54-.66-1.05-1.28-1.91-.88-.71.35-.94 1.89-1.09 2.5-.22.88-.39 1.76-.67 2.63 0 .03-.06.15-.12.31-8.14 1.45-16.13 5.37-23.61 8.56-8.71 3.7-17.18 7.95-25.37 12.67-7.82 4.5-15.2 9.4-22.1 15.2-1.46 1.23-5.7 4.09-6.99 5.47-1.49 1.58-5.94.43-7.17 2.22-1.02 1.5 5.27 2.35 6.84 3.36 1.58 1.02 4.04 7.04 5.2 8.55 5.88 7.55 12.26 13.99 20.19 19.43 7.22 4.94 15.43 8.94 24.07 10.47 3.18.56 6.65.97 9.87.47 1.11-.17 1.33-.23 1.93.96.68 1.3 2.06 2.29 3.33 2.95 2.9 1.48 2.88-3.61 2.65-5.51 2.39-.96 4.72-2.12 7.12-3.03 3.89-1.46 7.56-3.52 11.26-5.4 7.68-3.91 15.07-7.92 22.37-12.49 6.81-4.28 13.22-10.33 18.72-16.18 2.61-2.78 5.27-5.55 7.56-8.61 1.59-2.13 3.21-4 4.46-6.23 0-.01.02-.01.03-.02.67-.08 1.39-.07 2.02-.16 1.11-.17 2.17-.42 3.22-.77.61-.2 2.03-.63 2.13-1.48.21-1.36-2.49-1.79-3.29-1.99z"/></defs><clipPath id="E"><use xlink:href="#D"/></clipPath><path d="M224.42 79.38c.1-.73-.21-1.31-.62-1.7-.38-.37-.86-.61-1.28-.78-.83-.33-1.86-.53-2.15-.61l-.5 1.94c.51.13 1.23.26 1.91.53.33.13.53.26.63.36.04.04.05.06.04.05 0-.01-.01-.02-.01-.03l1.98.24zm-2.81 2.3c.28-.09.88-.28 1.42-.57.47-.25 1.28-.79 1.39-1.75l-1.99-.23c.01-.07.04-.07-.02-.02-.06.06-.17.14-.34.24-.35.19-.77.32-1.1.43l.64 1.9zm-3.38.8c1.16-.18 2.27-.44 3.38-.81l-.63-1.9c-1 .33-2 .57-3.06.73l.31 1.98zm-2.06.17l.96-.07 1.1-.1-.31-1.98c-.26.04-.55.06-.89.08l-1.09.08.23 1.99zm.85-.85c-.02.18-.1.37-.24.54-.12.14-.26.21-.29.22-.02.01-.03.02-.03.01l.04-.02a1.46 1.46 0 0 0 .18-.11l-1.24-1.57c.06-.05.12-.08.15-.1.02-.01.03-.01.03-.01-.02 0-.02.01-.04.01-.03.02-.17.09-.3.23a1.01 1.01 0 0 0-.25.56l1.99.24zm-4.66 6.71c1.54-2.06 3.24-4.03 4.53-6.34l-1.74-.98c-1.2 2.15-2.74 3.91-4.39 6.12l1.6 1.2zm-7.63 8.69c2.6-2.77 5.3-5.58 7.63-8.7l-1.6-1.2c-2.25 3.01-4.86 5.73-7.49 8.52l1.46 1.38zm-18.91 16.35c6.92-4.35 13.4-10.47 18.91-16.35l-1.46-1.37c-5.47 5.83-11.82 11.81-18.52 16.02l1.07 1.7zm-22.45 12.54c7.69-3.91 15.12-7.94 22.45-12.54l-1.06-1.69c-7.27 4.56-14.63 8.55-22.3 12.45l.91 1.78zm-11.36 5.44c3.96-1.49 7.71-3.59 11.36-5.45l-.91-1.78c-3.74 1.91-7.34 3.92-11.16 5.36l.71 1.87zm-7.1 3.02c1.21-.49 2.41-1.03 3.59-1.55s2.34-1.03 3.51-1.47l-.71-1.87c-1.23.46-2.43.99-3.61 1.51l-3.53 1.52.75 1.86zm-3.48 5.47c.95.48 1.92.54 2.72-.05.69-.51 1.02-1.36 1.2-2.08.37-1.5.29-3.38.17-4.39l-1.98.25c.11.9.16 2.51-.13 3.66-.15.6-.34.87-.45.96 0 0-.12.14-.62-.12l-.91 1.77zm-3.76-3.37c.82 1.57 2.43 2.68 3.75 3.37l.93-1.77c-1.21-.63-2.37-1.51-2.91-2.53l-1.77.93zm-.89-.43a6.7 6.7 0 0 1 .59-.08c.11-.01.09.01.03-.02-.07-.03-.08-.07-.03 0a3.34 3.34 0 0 1 .3.51l1.78-.91c-.28-.55-.63-1.18-1.29-1.46a1.93 1.93 0 0 0-.91-.13c-.24.01-.52.06-.78.1l.31 1.99zm-10.2-.48c3.2.56 6.81 1 10.2.47l-.3-1.98c-3.05.47-6.39.09-9.55-.47l-.35 1.98zm-24.46-10.63c7.29 4.99 15.64 9.07 24.46 10.63l.35-1.97c-8.46-1.5-16.54-5.43-23.68-10.31l-1.13 1.65zM81.7 105.47c5.93 7.62 12.38 14.13 20.41 19.64l1.13-1.65c-7.83-5.36-14.14-11.73-19.97-19.22l-1.57 1.23zm-4.95-8.32c.19.12.54.51 1.02 1.25.45.69.92 1.55 1.4 2.46l1.36 2.63c.41.78.82 1.52 1.18 1.97l1.58-1.22c-.23-.3-.56-.88-.99-1.69l-1.36-2.63c-.48-.92-.99-1.84-1.49-2.61-.47-.73-1.02-1.47-1.62-1.85l-1.08 1.69zm-7.13-4.77c-.3.45-.38.99-.14 1.51.2.43.55.71.84.9.6.39 1.46.7 2.27.96.8.26 1.8.54 2.53.76.82.25 1.37.46 1.63.63l1.09-1.68c-.53-.34-1.35-.62-2.12-.86l-2.51-.75c-.83-.26-1.45-.51-1.79-.73-.18-.12-.16-.15-.12-.06.08.18.03.38-.02.45l-1.66-1.13zm7.26-2.34c-.17.18-.48.34-1.06.47-.57.13-1.23.18-1.98.25-.71.07-1.52.14-2.23.34-.71.19-1.49.55-1.99 1.28l1.65 1.13c.11-.16.35-.34.87-.48.51-.14 1.15-.21 1.89-.28.7-.06 1.51-.13 2.23-.29.71-.16 1.51-.44 2.09-1.06l-1.47-1.36zm7.08-5.55c-.7.59-2.07 1.58-3.51 2.64-1.38 1.02-2.85 2.14-3.57 2.91l1.46 1.37c.57-.61 1.87-1.61 3.3-2.67 1.37-1.02 2.85-2.08 3.61-2.72l-1.29-1.53zm22.25-15.3c-7.86 4.52-15.29 9.45-22.25 15.3l1.29 1.53c6.84-5.75 14.17-10.62 21.96-15.1l-1-1.73zm25.48-12.73c-8.75 3.71-17.25 7.99-25.48 12.73l1 1.73c8.16-4.7 16.59-8.94 25.26-12.62l-.78-1.84zm23.83-8.62c-8.28 1.47-16.43 5.47-23.83 8.62l.78 1.84c7.56-3.22 15.41-7.07 23.4-8.49l-.35-1.97zm-.7.55c0-.03.01-.05.01-.07s.01-.03.01-.05c.01-.02.01-.04.01-.05s.01-.02.01-.02c0 .01-.01.02-.01.03-.02.05-.06.14-.09.24l1.87.71c.02-.07.05-.12.07-.18.01-.03.03-.06.04-.1.01-.02.02-.04.03-.08.01-.02.03-.1.04-.2l-1.99-.23zm.69-2.75c-.23.94-.39 1.73-.65 2.57l1.91.6c.29-.91.48-1.87.68-2.68l-1.94-.49zm1.63-3.16c-.42.2-.69.54-.87.83-.18.3-.31.62-.4.91-.17.53-.31 1.23-.36 1.41l1.94.5c.11-.43.16-.81.32-1.29a2.15 2.15 0 0 1 .21-.49c.07-.12.09-.1.03-.07l-.87-1.8zm3.12 1.15c-.24-.3-.61-.77-1.09-1.06-.26-.16-.58-.29-.95-.31-.37-.03-.73.06-1.08.21l.84 1.81c.09-.04.11-.03.1-.03-.02 0-.01-.01.03.02.05.03.12.09.23.2a4.3 4.3 0 0 1 .35.42l1.57-1.26zm.88 1.46c-.22-.57-.54-1.05-.88-1.47l-1.54 1.27c.26.31.44.6.55.9l1.87-.7zm.16.58c-.01-.04-.07-.37-.17-.61l-1.85.76c0-.01 0 0 .02.06.01.03.01.06.02.1s.02.09.03.14l1.95-.45zm3.72-.09c-.66-.14-3.01-.7-4.71-.68l.02 2c1.42-.02 3.5.47 4.26.63l.43-1.95zm8.7 1.92l-8.7-1.92-.43 1.95 8.7 1.92.43-1.95zm17.54 5.97c-5.57-2.93-11.53-4.61-17.53-5.96l-.44 1.95c5.95 1.34 11.7 2.97 17.04 5.78l.93-1.77zm13.97 9.19c-4.07-3.77-9.21-6.68-13.97-9.19l-.93 1.77c4.75 2.5 9.69 5.31 13.54 8.88l1.36-1.46zm10.45 13.42c-2.95-4.75-6.24-9.53-10.45-13.43l-1.36 1.47c4 3.71 7.19 8.3 10.11 13.01l1.7-1.05zm1.04-.41c-.36-.02-1.14-.08-1.91-.06l.04 2c.67-.02 1.33.04 1.77.06l.1-2zm3.67.62c-1.2-.33-2.36-.58-3.68-.63l-.07 2c1.1.04 2.09.24 3.22.55l.53-1.92zm3.04 2.96l-.99-.14v.02l.99.12zm-2.13 1.48l-.31-.95.31.95zm-3.22.76l-.15-.99.15.99zm-2.02.17l-.12-.99-.28.03-.22.18.62.78zm-.04.02l.87.49.1-.17.02-.2-.99-.12zm-4.46 6.23l-.8-.6.8.6zM204 96.52l-.73-.68.73.68zm-18.71 16.18l.53.85-.53-.85zm-22.38 12.5l-.45-.89.45.89zm-11.26 5.4l-.35-.94.35.94zm-7.12 3.02l-.37-.93-.71.29.09.76.99-.12zm-2.64 5.51l-.46.89h.01l.45-.89zm-3.33-2.95l-.89.45.01.01.88-.46zm-1.94-.95l.15.99-.15-.99zm-9.87-.47l-.17.98.17-.98zm-24.07-10.48l-.57.82.57-.82zm-20.19-19.42l-.79.61.79-.61zm-5.2-8.55l-.54.84.54-.84zm-6.85-3.36l-.82-.57.82.57zm7.17-2.22l.73.68-.73-.68zm6.99-5.48l-.64-.77.64.77zm22.11-15.2l.5.87-.5-.87zm25.37-12.67l.39.92-.39-.92zm23.61-8.56l.18.98.56-.1.2-.53-.94-.35zm.12-.31l-.95-.3-.03.09-.01.09.99.12zm.67-2.63l-.97-.25v.01l.97.24zm1.09-2.5l-.42-.91h-.02l.44.91zm1.92.88l-.78.63.01.01.77-.64zm.72 1.19l-.94.35.02.02.92-.37zm.11.45l-.97.23.18.78.8-.01-.01-1zm4.49.66l.22-.98-.22.98zm8.7 1.92l.22-.98-.22.98zm17.29 5.87l.47-.88-.47.88zm13.75 9.04l-.68.73.68-.73zm10.28 13.22l-.85.53.3.49.57-.01-.02-1.01zm1.84.06l-.05 1h.01l.04-1zm3.45.59l-.27.96h.02l.25-.96z" clip-path="url(#E)" fill="#8fadc8"/><path d="M159.77 52.14s-25.04 5.67-52.61 22.19-16.88 16.86-10.4 25.12c0 0-4.13-5.26-2.04-10.04 2.08-4.78 10.87-11.07 21.94-17.06 11.05-6 31.15-17.03 43.11-20.21z" opacity=".4" fill="#e3eeff"/><path d="M229.62 97.34l.01 2.52-1.02-.02-.01-2.52 1.02.02zm-.05-10.07l.03 5.03-1.02-.02-.03-5.03 1.02.02zm-.05-10.06l.03 5.03-1.02-.02-.03-5.03 1.02.02zm-.06-10.07l.03 5.03-1.02-.02-.03-5.03 1.02.02zm-.04-7.55l.01 2.52-1.02-.02-.01-2.52 1.02.02zm-2.86.78l2.08-1.21.55.84-2.08 1.21-.55-.84zm-8.32 4.83l4.16-2.41.55.84-4.16 2.41-.55-.84zm-8.31 4.82l4.16-2.41.55.84-4.16 2.41-.55-.84zm-8.31 4.82l4.16-2.41.55.84-4.16 2.41-.55-.84zm-8.32 4.83l4.16-2.41.55.84-4.16 2.41-.55-.84zm-8.31 4.82l4.16-2.41.55.84-4.16 2.41-.55-.84zm-8.31 4.83l4.16-2.41.55.84-4.16 2.41-.55-.84zm-8.32 4.82l4.16-2.41.55.84-4.16 2.41-.55-.84zm-8.31 4.83l4.16-2.41.55.84-4.16 2.41-.55-.84zm-8.31 4.82l4.16-2.41.55.84-4.16 2.41-.55-.84zm-8.32 4.82l4.16-2.41.55.84-4.16 2.41-.55-.84zm-6.23 3.62l2.08-1.21.55.84-2.08 1.21-.55-.84zm-.24 2.9v-2.5l1.02.03v2.5l-1.02-.03zm0 9.99v-4.99l1.02.03v4.99l-1.02-.03zm0 9.99v-4.99l1.02.03v4.99l-1.02-.03zm0 9.98v-4.99l1.02.03v4.99l-1.02-.03zm0 7.49v-2.5l1.02.03v2.5l-1.02-.03zm2.87-.77l-2.08 1.2-.55-.84 2.08-1.2.55.84zm8.33-4.79l-4.17 2.4-.55-.84 4.17-2.4.55.84zm8.33-4.8l-4.17 2.4-.55-.84 4.17-2.4.55.84zm8.34-4.79l-4.17 2.4-.55-.84 4.17-2.4.55.84zm8.33-4.8l-4.17 2.4-.55-.84 4.17-2.4.55.84zm8.33-4.79l-4.17 2.4-.55-.84 4.17-2.4.55.84zm8.33-4.8l-4.17 2.4-.55-.84 4.17-2.4.55.84zm8.34-4.79l-4.17 2.4-.55-.84 4.17-2.4.55.84zm8.33-4.8l-4.17 2.4-.55-.84 4.17-2.4.55.84zm8.33-4.8l-4.17 2.4-.55-.84 4.17-2.4.55.84zm8.34-4.79l-4.17 2.4-.55-.84 4.17-2.4.55.84zm6.25-3.6l-2.08 1.2-.55-.84 2.08-1.2.55.84zm-.8-2.94c0-.27.23-.48.51-.48.28.01.51.23.51.5l-1.02-.02zm.99-5.01c0 .27-.23.48-.51.48-.28-.01-.51-.23-.51-.5l1.02.02zm-1.05-5.06c0-.27.23-.48.51-.48.28.01.51.23.51.5l-1.02-.02zm1-5.01c0 .27-.23.48-.51.48-.28-.01-.51-.23-.51-.5l1.02.02zm-1.05-5.05c0-.27.23-.48.51-.48.28.01.51.23.51.5l-1.02-.02zm1-5.01c0 .27-.23.48-.51.48-.28-.01-.51-.23-.51-.5l1.02.02zm-1.05-5.06c0-.27.23-.48.51-.48.28.01.51.23.51.5l-1.02-.02zm1-5.01c0 .27-.23.48-.51.48-.28-.01-.51-.23-.51-.5l1.02.02zm-2.33-.9a.54.54 0 0 1-.71-.17.47.47 0 0 1 .16-.67l.55.84zm-4.71 1.57a.54.54 0 0 1 .71.17.47.47 0 0 1-.16.67l-.55-.84zm-3.61 3.25a.54.54 0 0 1-.71-.17c-.16-.23-.08-.53.16-.67l.55.84zm-4.7 1.58a.54.54 0 0 1 .71.17c.16.23.08.53-.16.67l-.55-.84zm-3.61 3.25a.54.54 0 0 1-.71-.17c-.16-.23-.08-.53.16-.67l.55.84zm-4.71 1.57a.54.54 0 0 1 .71.17.47.47 0 0 1-.16.67l-.55-.84zm-3.6 3.25a.54.54 0 0 1-.71-.17.47.47 0 0 1 .16-.67l.55.84zm-4.71 1.58a.54.54 0 0 1 .71.17c.16.23.08.53-.16.67l-.55-.84zm-3.61 3.25a.54.54 0 0 1-.71-.17c-.16-.23-.08-.53.16-.67l.55.84zm-4.7 1.57a.54.54 0 0 1 .71.17.47.47 0 0 1-.16.67l-.55-.84zm-3.61 3.25a.54.54 0 0 1-.71-.17.47.47 0 0 1 .16-.67l.55.84zm-4.71 1.57a.54.54 0 0 1 .71.17.47.47 0 0 1-.16.67l-.55-.84zm-3.6 3.25a.54.54 0 0 1-.71-.17.47.47 0 0 1 .16-.67l.55.84zm-4.71 1.58a.54.54 0 0 1 .71.17.47.47 0 0 1-.16.67l-.55-.84zm-3.61 3.25a.54.54 0 0 1-.71-.17.47.47 0 0 1 .16-.67l.55.84zm-4.7 1.57a.54.54 0 0 1 .71.17c.16.23.08.53-.16.67l-.55-.84zm-3.61 3.25a.54.54 0 0 1-.71-.17c-.16-.23-.08-.53.16-.67l.55.84zm-4.71 1.58a.54.54 0 0 1 .71.17c.16.23.08.53-.16.67l-.55-.84zm-3.6 3.25a.54.54 0 0 1-.71-.17c-.16-.23-.08-.53.16-.67l.55.84zm-4.71 1.57a.54.54 0 0 1 .71.17c.16.23.08.53-.16.67l-.55-.84zm-3.61 3.25a.54.54 0 0 1-.71-.17c-.16-.23-.08-.53.16-.67l.55.84zm-4.71 1.58a.54.54 0 0 1 .71.17c.16.23.08.53-.16.67l-.55-.84zm-1.29 4.13c0 .27-.23.48-.51.47s-.51-.23-.51-.5l1.02.03zm-1.02 4.97c0-.27.23-.48.51-.47s.51.23.51.5l-1.02-.03zm1.02 5.02c0 .27-.23.48-.51.47s-.51-.23-.51-.5l1.02.03zm-1.02 4.96c0-.27.23-.48.51-.47s.51.23.51.5l-1.02-.03zm1.02 5.02c0 .27-.23.48-.51.47s-.51-.23-.51-.5l1.02.03zm-1.02 4.97c0-.27.23-.48.51-.47s.51.23.51.5l-1.02-.03zm1.02 5.02c0 .27-.23.48-.51.47s-.51-.23-.51-.5l1.02.03zm-1.02 4.96c0-.27.23-.48.51-.47s.51.23.51.5l-1.02-.03zm2.32.9a.54.54 0 0 1 .71.17.47.47 0 0 1-.16.67l-.55-.84zm4.71-1.56a.54.54 0 0 1-.71-.17.47.47 0 0 1 .16-.67l.55.84zm3.62-3.24a.54.54 0 0 1 .71.17.47.47 0 0 1-.16.67l-.55-.84zm4.72-1.56a.54.54 0 0 1-.71-.17.47.47 0 0 1 .16-.67l.55.84zm3.62-3.24a.54.54 0 0 1 .71.17.47.47 0 0 1-.16.67l-.55-.84zm4.71-1.55a.54.54 0 0 1-.71-.17.47.47 0 0 1 .16-.67l.55.84zm3.62-3.24a.54.54 0 0 1 .71.17.47.47 0 0 1-.16.67l-.55-.84zm4.71-1.56a.54.54 0 0 1-.71-.17.47.47 0 0 1 .16-.67l.55.84zm3.62-3.24a.54.54 0 0 1 .71.17.47.47 0 0 1-.16.67l-.55-.84zm4.72-1.56a.54.54 0 0 1-.71-.17.47.47 0 0 1 .16-.67l.55.84zm3.61-3.23a.54.54 0 0 1 .71.17.47.47 0 0 1-.16.67l-.55-.84zm4.72-1.56a.54.54 0 0 1-.71-.17.47.47 0 0 1 .16-.67l.55.84zm3.62-3.24a.54.54 0 0 1 .71.17.47.47 0 0 1-.16.67l-.55-.84zm4.71-1.56a.54.54 0 0 1-.71-.17.47.47 0 0 1 .16-.67l.55.84zm3.62-3.23a.54.54 0 0 1 .71.17.47.47 0 0 1-.16.67l-.55-.84zm4.71-1.56a.54.54 0 0 1-.71-.17.47.47 0 0 1 .16-.67l.55.84zm3.62-3.24a.54.54 0 0 1 .71.17.47.47 0 0 1-.16.67l-.55-.84zm4.72-1.56a.54.54 0 0 1-.71-.17.47.47 0 0 1 .16-.67l.55.84zm3.62-3.23a.54.54 0 0 1 .71.17.47.47 0 0 1-.16.67l-.55-.84zm4.71-1.56a.54.54 0 0 1-.71-.17.47.47 0 0 1 .16-.67l.55.84zm3.62-3.24a.54.54 0 0 1 .71.17.47.47 0 0 1-.16.67l-.55-.84zm4.71-1.56a.54.54 0 0 1-.71-.17.47.47 0 0 1 .16-.67l.55.84zm-89.85 51.13l.27.42c-.16.09-.36.09-.52 0s-.26-.26-.26-.43l.51.01zm0-39.94l-.51-.01c0-.17.09-.32.24-.4l.27.41zm91.45-53.07l-.28-.42c.16-.09.36-.09.52 0s.27.26.27.43l-.51-.01zm.21 40.26l.51.01c0 .17-.09.32-.24.41l-.27-.42z" fill="#8fadc8"/><g fill="#adadad"><path d="M234 108l-4-3 6.5-1zM53.67 123L52 120l5 .75z"/><path d="M148.71 154.13l3.83 3.2-6.54.66zm-94.941-32.684l.457-.889 69.002 35.502-.458.889z"/><path d="M149.245 155.57l83.997-49.999.512.859-83.997 49.999zm-24.505 3.87l13.05-7-.47-.88-13.05 7 .47.88zm13.04-7c.24-.13.33-.43.2-.68-.13-.24-.43-.33-.68-.2l.48.88zm-13.52 6.12c-.24.13-.33.43-.2.68.13.24.43.33.68.2l-.48-.88z"/><use xlink:href="#B"/><use xlink:href="#B" x="92" y="-52"/><path d="M51.23 120.42l11.55-5.98-.46-.89-11.55 5.98.46.89zm11.54-5.98a.496.496 0 1 0-.46-.88l.46.88zm-12 5.09a.496.496 0 1 0 .46.88l-.46-.88zm74.73 38.97l-4.5-1 2.5-2.5zm-73-83h1v35.78h-1zm9.5-3H51v1h11v-1zm-11 0c-.28 0-.5.22-.5.5s.22.5.5.5v-1zm11 1c.28 0 .5-.22.5-.5s-.22-.5-.5-.5v1z"/><path d="M63 113.5H50v1h13v-1zm-13 0c-.28 0-.5.22-.5.5s.22.5.5.5v-1zm13 1c.28 0 .5-.22.5-.5s-.22-.5-.5-.5v1zM53 73l1.73 3.75h-3.46z"/><path d="M53 114l-1.73-3.75h3.46z"/></g><path d="M135.44 110.99l2.36 1.24-.47.85-2.36-1.24.47-.85zm-9.44-4.96l4.72 2.48-.47.85-4.72-2.48.47-.85zm-9.43-4.96l4.72 2.48-.47.85-4.72-2.48.47-.85zm-9.44-4.95l4.72 2.48-.47.85-4.72-2.48.47-.85zm-9.43-4.96l4.72 2.48-.47.85-4.72-2.48.47-.85zm-9.44-4.95l4.72 2.48-.47.85-4.72-2.48.47-.85zm-9.43-4.96l4.72 2.48-.47.85-4.72-2.48.47-.85zm-9.44-4.95l4.72 2.48-.47.85-4.72-2.48.47-.85zm-7.07-3.72l2.36 1.24-.47.85-2.36-1.24.47-.85zm-.75 2.95v-2.54l1.02.03v2.54l-1.02-.03zm.01 10.14V80.6l1.02.03v5.07l-1.02-.03zm.01 10.15v-5.07l1.02.03v5.07l-1.02-.03zm.01 10.14v-5.07l1.02.03v5.07l-1.02-.03zm.01 7.61v-2.54l1.02.03v2.54l-1.02-.03zm2.63 1.66l-2.36-1.22.47-.85 2.36 1.22-.47.85zm9.43 4.87l-4.72-2.44.47-.85 4.72 2.44-.47.85zm9.43 4.88l-4.72-2.44.47-.85 4.72 2.44-.47.85zm9.43 4.88l-4.72-2.44.47-.85L93 129l-.47.86zm9.43 4.87l-4.72-2.44.47-.85 4.72 2.44-.47.85zm9.43 4.88l-4.72-2.44.47-.85 4.72 2.44-.47.85zm9.43 4.88l-4.72-2.44.47-.85 4.72 2.44-.47.85zm9.43 4.87l-4.72-2.44.47-.85 4.72 2.44-.47.85zm7.07 3.66l-2.36-1.22.47-.85 2.36 1.22-.47.85zm.75-2.91v2.5l-1.02-.03v-2.5l1.02.03zm0-9.98v4.99l-1.02-.03v-4.99l1.02.03zm0-9.99v4.99l-1.02-.03v-4.99l1.02.03zm0-9.99v4.99l-1.02-.03v-4.99l1.02.03zm0-7.49v2.5l-1.02-.03v-2.5l1.02.03zm-3.11-.82c-.25-.13-.35-.43-.22-.66.13-.24.44-.32.69-.19l-.47.85zm-4.24-3.33c.25.13.35.43.22.66-.13.24-.44.32-.69.19l.47-.85zm-5.19-1.63c-.25-.13-.35-.43-.22-.66.13-.24.44-.32.69-.19l-.47.85zm-4.25-3.33c.25.13.35.43.22.66-.13.24-.44.32-.69.19l.47-.85zm-5.19-1.62c-.25-.13-.35-.43-.22-.66.13-.24.44-.32.69-.19l-.47.85zm-4.24-3.33c.25.13.35.43.22.66-.13.24-.44.32-.69.19l.47-.85zm-5.19-1.63c-.25-.13-.35-.43-.22-.66.13-.24.44-.32.69-.19l-.47.85zm-4.25-3.33c.25.13.35.43.22.66-.13.24-.44.32-.69.19l.47-.85zm-5.19-1.62c-.25-.13-.35-.43-.22-.66.13-.24.44-.32.69-.19l-.47.85zm-4.24-3.33c.25.13.35.43.22.66-.13.24-.44.32-.69.19l.47-.85zm-5.19-1.63c-.25-.13-.35-.43-.22-.66.13-.24.44-.32.69-.19l-.47.85zm-4.25-3.33c.25.13.35.43.22.66-.13.24-.44.32-.69.19l.47-.85zm-5.19-1.63c-.25-.13-.35-.43-.22-.66.13-.24.44-.32.69-.19l-.47.85zm-4.24-3.32c.25.13.35.43.22.66-.13.24-.44.32-.69.19l.47-.85zm-5.19-1.63c-.25-.13-.35-.43-.22-.66.13-.24.44-.32.69-.19l-.47.85zm-4.25-3.33c.25.13.35.43.22.66s-.44.32-.69.19l.47-.85zm-2.08 1.74c0 .27-.23.48-.51.47s-.51-.23-.51-.5l1.02.03zm-1.02 5.04c0-.27.23-.48.51-.47s.51.23.51.5l-1.02-.03zm1.03 5.1c0 .27-.23.48-.51.47s-.51-.23-.51-.5l1.02.03zm-1.02 5.05c0-.27.23-.48.51-.47s.51.23.51.5l-1.02-.03zm1.03 5.09c0 .27-.23.48-.51.47s-.51-.23-.51-.5l1.02.03zm-1.02 5.05c0-.27.23-.48.51-.47s.51.23.51.5l-1.02-.03zm1.03 5.1c0 .27-.23.48-.51.47s-.51-.23-.51-.5l1.02.03zm-1.02 5.04c0-.27.23-.48.51-.47s.51.23.51.5l-1.02-.03zm3.11 3.34c.25.13.35.43.22.66-.13.24-.44.32-.69.19l.47-.85zm4.25 3.3c-.25-.13-.35-.43-.22-.66.13-.24.44-.32.69-.19l-.47.85zm5.18 1.58c.25.13.35.43.22.66s-.44.32-.69.19l.47-.85zm4.25 3.29c-.25-.13-.35-.43-.22-.66.13-.24.44-.32.69-.19l-.47.85zm5.18 1.59c.25.13.35.43.22.66-.13.24-.44.32-.69.19l.47-.85zm4.25 3.29c-.25-.13-.35-.43-.22-.66.13-.24.44-.32.69-.19l-.47.85zM93 129c.25.13.35.43.22.66-.13.24-.44.32-.69.19L93 129zm4.25 3.3c-.25-.13-.35-.43-.22-.66.13-.24.44-.32.69-.19l-.47.85zm5.18 1.58c.25.13.35.43.22.66-.13.24-.44.32-.69.19l.47-.85zm4.25 3.29c-.25-.13-.35-.43-.22-.66s.44-.32.69-.19l-.47.85zm5.18 1.59c.25.13.35.43.22.66-.13.24-.44.32-.69.19l.47-.85zm4.25 3.29c-.25-.13-.35-.43-.22-.66s.44-.32.69-.19l-.47.85zm5.18 1.58c.25.13.35.43.22.66s-.44.32-.69.19l.47-.85zm4.25 3.3c-.25-.13-.35-.43-.22-.66s.44-.32.69-.19l-.47.85zm5.18 1.58c.25.13.35.43.22.66-.13.24-.44.32-.69.19l.47-.85zm4.25 3.29c-.25-.13-.35-.43-.22-.66.13-.24.44-.32.69-.19l-.47.85zm2.08-1.72c0-.27.23-.48.51-.47s.51.23.51.5l-1.02-.03zm1.02-4.96c0 .27-.23.48-.51.47s-.51-.23-.51-.5l1.02.03zm-1.02-5.02c0-.27.23-.48.51-.47s.51.23.51.5l-1.02-.03zm1.02-4.97c0 .27-.23.48-.51.47s-.51-.23-.51-.5l1.02.03zm-1.02-5.02c0-.27.23-.48.51-.47s.51.23.51.5l-1.02-.03zm1.02-4.96c0 .27-.23.48-.51.47s-.51-.23-.51-.5l1.02.03zm-1.02-5.02c0-.27.23-.48.51-.47s.51.23.51.5l-1.02-.03zm1.02-4.97c0 .27-.23.48-.51.47s-.51-.23-.51-.5l1.02.03zm-.51 37.43l.51.01c0 .17-.09.33-.25.41-.15.08-.34.09-.5 0l.24-.42zm-75.44-39.01l-.23.43c-.17-.09-.28-.26-.28-.44l.51.01zm-.04-40.57l-.51-.01c0-.17.09-.33.25-.41a.55.55 0 0 1 .5 0l-.24.42zm75.48 39.64l.24-.43a.5.5 0 0 1 .27.44l-.51-.01z" fill="#8fadc8"/><path d="M74.49 148.58c-.97 0-1.76.35-2.24.96v-3.44H71.1v8.9h1.15v-3.28c0-1.38.79-2.11 2.02-2.11 1.09 0 1.72.61 1.72 1.86V155h1.15v-3.66c-.01-1.87-1.1-2.76-2.65-2.76zm-5.15 5.22c-.24.19-.56.3-.9.3-.64 0-1-.38-1-1.07v-3.44h1.82v-.95h-1.82v-1.39h-1.15v1.39h-1.08v.95h1.08v3.49c0 1.28.73 1.99 2.02 1.99.52 0 1.04-.14 1.39-.44l-.36-.83zm-8.82.26c-1.22 0-2.15-.89-2.15-2.24 0-1.36.92-2.23 2.15-2.23 1.21 0 2.14.88 2.14 2.23-.01 1.36-.93 2.24-2.14 2.24zm2.12-7.96v3.5c-.53-.68-1.32-1.02-2.22-1.02-1.86 0-3.22 1.3-3.22 3.24s1.36 3.25 3.22 3.25c.94 0 1.75-.36 2.27-1.08V155h1.1v-8.9h-1.15zm-8.2 8.9h1.15v-6.36h-1.15V155zm.58-7.58c.46 0 .78-.34.78-.77 0-.41-.34-.73-.78-.73s-.78.34-.78.76.33.74.78.74zm-3.03-.82l-2.32 6.86-2.32-6.86h-1.1l-2.36 6.83-2.27-6.83h-1.24l2.81 8.4h1.28l2.29-6.71 2.29 6.71h1.26l2.81-8.4h-1.13zm191.35-9.02c-.97 0-1.76.35-2.24.96v-3.44h-1.15v8.9h1.15v-3.28c0-1.38.79-2.11 2.02-2.11 1.09 0 1.72.61 1.72 1.86V144h1.15v-3.66c-.01-1.87-1.11-2.76-2.65-2.76zm-5.15 5.22c-.24.19-.56.3-.9.3-.64 0-1-.38-1-1.07v-3.44h1.82v-.95h-1.82v-1.39h-1.15v1.39h-1.08v.95h1.08v3.49c0 1.28.73 1.99 2.02 1.99.52 0 1.04-.14 1.39-.44l-.36-.83zm-8.73-.07c-1.28 0-2.2-.85-2.2-2.08 0-1.24.91-2.06 2.2-2.06 1.27 0 2.18.83 2.18 2.06s-.91 2.08-2.18 2.08zm2.22-5.09v.98c-.54-.7-1.4-1.04-2.35-1.04-1.84 0-3.23 1.24-3.23 3.07s1.39 3.08 3.23 3.08c.91 0 1.74-.32 2.29-.98v.5c0 1.44-.68 2.14-2.18 2.14-.94 0-1.86-.32-2.45-.83l-.55.89c.7.62 1.87.95 3.04.95 2.16 0 3.3-1.02 3.3-3.26v-5.5h-1.1zm-9.8-.06c-1.01 0-1.82.37-2.29 1.02v-.96h-1.1V144h1.15v-3.28c0-1.38.79-2.11 2.02-2.11 1.09 0 1.72.61 1.72 1.86V144h1.15v-3.66c-.01-1.87-1.1-2.76-2.65-2.76zm-8.14.97a1.98 1.98 0 0 1 2.04 1.82h-4.08a1.98 1.98 0 0 1 2.04-1.82zm3.14 2.31c0-1.96-1.31-3.28-3.14-3.28-1.84 0-3.19 1.36-3.19 3.24 0 1.9 1.37 3.25 3.42 3.25 1.06 0 1.93-.36 2.51-1.03l-.64-.74c-.47.52-1.09.77-1.84.77-1.26 0-2.16-.74-2.3-1.86h5.16l.02-.35zM204.26 144h5.75v-1.04h-4.55v-7.36h-1.2v8.4zM41.2 97.8c-.24.19-.56.3-.9.3-.64 0-1-.38-1-1.07v-3.44h1.82v-.95H39.3v-1.39h-1.15v1.39h-1.08v.95h1.08v3.49c0 1.28.73 1.99 2.02 1.99.52 0 1.04-.14 1.39-.44l-.36-.83zm-7.99-5.22c-.97 0-1.76.35-2.24.96V90.1h-1.15V99h1.15v-3.28c0-1.38.79-2.11 2.02-2.11 1.09 0 1.72.61 1.72 1.86V99h1.15v-3.66c-.01-1.87-1.1-2.76-2.65-2.76zm-8.91 5.15c-1.28 0-2.2-.85-2.2-2.08 0-1.24.91-2.06 2.2-2.06 1.27 0 2.18.83 2.18 2.06.01 1.23-.91 2.08-2.18 2.08zm2.22-5.09v.98c-.54-.7-1.4-1.04-2.35-1.04-1.84 0-3.23 1.24-3.23 3.07 0 1.84 1.39 3.08 3.23 3.08.91 0 1.74-.32 2.29-.98v.5c0 1.44-.68 2.14-2.18 2.14-.94 0-1.86-.32-2.45-.83l-.55.89c.7.62 1.87.95 3.04.95 2.16 0 3.3-1.02 3.3-3.26v-5.5h-1.1zM18.18 99h1.15v-6.36h-1.15V99zm.57-7.58c.46 0 .78-.34.78-.77 0-.41-.34-.73-.78-.73s-.78.34-.78.76.34.74.78.74zm-5.32 2.13a1.98 1.98 0 0 1 2.04 1.82h-4.08c.12-1.07.94-1.82 2.04-1.82zm3.15 2.31c0-1.96-1.31-3.28-3.14-3.28s-3.19 1.36-3.19 3.24c0 1.9 1.37 3.25 3.42 3.25 1.06 0 1.93-.36 2.51-1.03l-.64-.74c-.47.52-1.09.77-1.84.77-1.26 0-2.16-.74-2.3-1.86h5.16l.02-.35zm-9.3-5.26v3.61H2.46V90.6h-1.2V99h1.2v-3.74h4.82V99h1.2v-8.4h-1.2z" fill="#adadad"/></svg>